<svg height="264" width="269" xmlns="http://www.w3.org/2000/svg"><path d="M209.507 202.744l-7.414-27.666 27.667-7.413-12.968-48.4-47.566 12.746-39.586-22.855-12.54-7.24-12.745-47.566-48.4 12.969 7.414 27.666-27.666 7.413 12.967 48.399h.001l47.566-12.745 39.585 22.854 12.54 7.24 12.745 47.566h.001zm-11.758-6.788l-29.853 8-8-29.855 24.402-6.538-1.537-9.526-22.34 5.986-46.844-27.045-29.612-17.096 1.793 11.04-30.3 8.118-7.998-29.854 27.666-7.412-7.413-27.667 29.854-8 7.998 29.854-24.4 6.538 1.536 9.527 22.34-5.986 46.844 27.045 29.612 17.097-1.792-11.04 30.299-8.12 7.998 29.854-27.666 7.414zM150.022 32.42v23.736h-9.6V32.42zm69.697 45.782L199.162 90.07l-4.8-8.314 20.557-11.868zM56.064 195.16l20.556-11.868-4.8-8.314-20.556 11.868zm74.497 37.469v-23.737h-9.6v23.737z" fill="#183153" fill-rule="evenodd"/></svg>