<svg viewBox="0 0 650.13 306.3" xmlns="http://www.w3.org/2000/svg"><path d="M484.68 0l-28.1 28.1v138.58h41.54l25.3-25.31v-62h-10.29v57.77l-19.38 19.38h-26.88V32.46l22-22.16H640v42.76l-26.18 26h-79.23v99H171.22L63.53 285.54H0v10.29h67.72l107.69-107.51h359.18v69.29h73v19.55L591 295.83h-95.15v-64.92l-21.3-21.3-7.33 7.33 18.33 18.33v47H215l-10.1-10.7 38.22-35.08-35.25-34.21-7.16 7.33 27.4 26.71-37.87 34.73 23.56 24.61h-64.4v-60.22h-10.3V306h98.79L225 292.52h260.55v13.78h110.13l22.17-25.13v-33.68h-73V89.54H618l32.11-32.12V0z" fill="#FFFFFF"/><g fill="#FDD963"><path d="M556 206.6l-23.4-23.41 23.4-23.4 7.2 7.21-16.2 16.19 16.22 16.22z"/><path d="M523.74 206.6l-7.18-7.19 16.21-16.22L516.56 167l7.18-7.19 23.41 23.4z"/></g></svg>