<svg viewBox="0 0 727.15 128.52" xmlns="http://www.w3.org/2000/svg"><path d="M716.8 53.14l-26.15 26.15h-66.38v-10H597.1V54.33h-10.35v43.46l-19.36 19.36H543.8V32.43l22.07-22.07H717zm-69.78 56h-28.18l5.43-6.12V89.47H647v19.7zm-49.58 8.65H581l16.1-16.09V79.29h17v19.86zM561.45 0H171.13L63.5 107.47H0v10.35h67.74L175.38 10.36H551.1l-17.66 17.82V118h-37.69V53l-21.22-21.25-7.3 7.3 18.33 18.33v46.86H215.11l-10.19-10.52 38.2-35L208 24.45l-7.13 7.3 27.5 26.65-37.88 34.81 23.6 24.61h-64.35V57.55h-10.35v70.63H238l-12.91-13.41h260.3v13.75H602l7.64-8.66h47.54v-30h37.72l32.25-32.09V.34z" fill="#173751"/></svg>