<svg viewBox="0 0 649.89 364.92" xmlns="http://www.w3.org/2000/svg"><path d="M484.2 0l-28 28.09v138.59h41.45l25.37-25.37v-62h-10.23v57.79l-19.43 19.42h-27v-124l22-22.15H639.5v42.84l-26.11 26.11H534.2v99H170.76L63.11 285.84H0v10.28h67.44L175.1 188.58h359.1v91.94l-37.87 46.28 26.85 27.72h-56.8v-72.26H233.13l-46.53 44.42 26.73 27.72h-64.22V237h-10.27v127.79h98.75l-36.39-37.74 36-34.4h218.9v72.27h91.33l-37.25-38.49 34.4-41.95V89.84h73.13l32.17-32.05V.49H484.2" fill="#173751"/><g fill="#EC6278"><path d="M555.61 206.72l-23.4-23.39 23.4-23.4 7.22 7.22-16.18 16.18 16.18 16.17z"/><path d="M523.25 206.72L516 199.5l16.17-16.17L516 167.15l7.21-7.22 23.4 23.4-23.4 23.39"/></g></svg>