<svg width="255" height="546" fill="none" xmlns="http://www.w3.org/2000/svg"><path fill-rule="evenodd" clip-rule="evenodd" d="M140.095 175.055l-17.276 17.058v84.065h25.564l15.66-15.41v-37.635h-6.335v35.053l-11.949 11.758h-16.606v-75.256l13.572-13.4h93.136v26.015l-16.176 16.744h-48.771v55.152l3.96 3.893h-34.009l-17.659 20.566v156.555l-36.037 35.461H53.63v6.233h36.163l39.748-39.111V305.939l14.266-16.614h37.198v-.207l6.132 6.027v14.43h-33.418v-7.255h-6.335v13.488h51.961l13.571 13.4v39.918h-13.811l-11.95-11.758v-18.537H162.66v6.233h18.16v14.885l6.655 6.549v136.551l-29.586 26.311-4.982-5.1 23.472-21.196-27.904-28.033-4.526 4.361 23.325 23.434-23.427 21.156 14.551 14.893h-39.657v-51.104h-6.335v57.338h60.869l-10.993-11.253 31.528-28.04V372.731l2.671 2.628h22.77v-48.725l-17.275-17.059h-8.504v-17.013l-16.223-15.946v-46.335h45.155l19.792-20.488v-34.738H140.095z" fill="#093853"/><path fill-rule="evenodd" clip-rule="evenodd" d="M192.465 300.431l-14.456-14.223 14.456-14.223 4.479 4.408-9.975 9.815 9.975 9.815-4.479 4.408z" fill="#EC6278"/><path fill-rule="evenodd" clip-rule="evenodd" d="M172.544 300.431l-4.479-4.408 9.975-9.815-9.975-9.815 4.479-4.408 14.455 14.223-14.455 14.223z" fill="#EC6278"/><path fill-rule="evenodd" clip-rule="evenodd" d="M18.519.69L.206 18.629V67.75l18.183 18.095h218.293l18.115-17.936v-49.28L237.16.69H18.519z" fill="#093853"/><path fill-rule="evenodd" clip-rule="evenodd" d="M148.151 55.432l69.648 68.723V55.433h-69.648z" fill="#093853"/><path d="M55.557 41.315v4.397h7c-.95 2.99-3.799 4.995-7.281 4.995-4.467 0-7.844-3.377-7.844-7.88 0-4.502 3.377-7.879 7.844-7.879 2.955 0 5.382 1.513 6.578 3.764h5.417c-1.266-4.925-6.12-8.442-11.995-8.442-7.317 0-12.804 5.417-12.804 12.558 0 7.14 5.487 12.557 12.804 12.557 3.799 0 6.543-1.266 8.301-3.517v3.095h4.257V41.315H55.557zm20.88-1.653v-2.639h-4.573v17.94h4.573v-8.547c0-3.026 1.864-4.96 5.241-4.96v-4.714c-2.11 0-3.94 1.09-5.241 2.92zm16.1 15.723c5.488 0 9.639-4.045 9.639-9.392 0-5.346-4.15-9.392-9.638-9.392-5.488 0-9.638 4.046-9.638 9.392 0 5.347 4.15 9.392 9.638 9.392zm0-4.432c-2.813 0-4.924-2.146-4.924-4.96s2.11-4.96 4.925-4.96c2.85 0 4.925 2.146 4.925 4.96s-2.076 4.96-4.925 4.96zm35.355-13.93l-3.764 12.171-3.975-12.17h-4.678l-3.94 12.135-3.764-12.136h-5.241l6.542 17.94h4.714l3.975-12.452 3.975 12.452h4.713l6.543-17.94h-5.1zm17.828-.422c-2.357 0-4.327.915-5.698 2.639v-2.217h-4.573v17.94h4.573v-9.849c0-2.462 1.688-4.08 4.221-4.08 2.357 0 3.904 1.583 3.904 4.01v9.92h4.573V43.565c0-4.22-2.779-6.965-7-6.965zm10.955 10.94h10.271V43.11h-10.271v4.432zm26.424-10.517v10.095c0 2.322-1.583 3.834-3.94 3.834-2.216 0-3.693-1.477-3.693-3.764V37.023h-4.573v11.503c0 4.15 2.709 6.86 6.754 6.86 2.251 0 4.115-.915 5.452-2.604v2.181h4.573v-17.94h-4.573zm19.339-.423c-2.427 0-4.432 1.056-5.839 2.78v-2.358h-4.573v24.624h4.573v-9.04c1.407 1.723 3.412 2.778 5.839 2.778 4.995 0 8.724-4.045 8.724-9.392 0-5.346-3.729-9.392-8.724-9.392zm-.915 14.352c-2.814 0-4.924-2.146-4.924-4.96s2.11-4.96 4.924-4.96c2.85 0 4.925 2.146 4.925 4.96s-2.075 4.96-4.925 4.96z" fill="#EC6278"/></svg>