<svg viewBox="0 0 587.74 116.72" xmlns="http://www.w3.org/2000/svg"><path d="M4 116.42v-11.53h43.75l7.45-7.57v-10l-7.92-7.92H14.56L0 65.18V48.41l14.56-14.67h46.58v11.64H21.2l-7.2 7.1v8l7.57 7.57h33.05L69.18 82.3v19.45l-14.45 14.67zm93.24-47.28h42.16V53.53l-8.74-8.73H106l-8.74 8.73zm2.68 47.28L83.27 99.77v-49.5l16.65-16.65h36.8l16.65 16.65V80.2H97.24v16l8.74 8.73h46v11.53H99.92m88.74-11.1h19.57l16.3-16.19V75.31l-35.87.12-8.73 8.5v12.69zm-6.17 11.06l-16.42-16.65V81l16.42-16.66h42V54.12L216 45.38h-39.22V33.74H222l16.42 16.65v66h-13.89v-12.78l-12.81 12.81zm73.51 0V33.74h13.86v14.9l14.44-14.9h21.2v13.85H285l-15 15.49v53.22zm76.83 0l-16.65-16.65v-49.5l16.65-16.65h37.74l14.55 14.32V61.1h-13.86v-8.5l-7.91-7.92h-24.46l-8.73 8.74v42.5l8.73 8.85h45.42v11.53zm67.17.06V0h13.92v47l12.63-13.1H457l16.4 16.64v66.06h-13.97V54.05l-8.38-9H430l-16.24 16.67v55H400m167.7-12.27l-21.91-21.91-21.9 21.91-8.16-8.16 21.91-21.9-21.91-21.91 8.16-8.16 21.9 21.91 21.91-21.91 8.16 8.16L554 74.39l21.91 21.9zm-63.86-72.13v83.9h83.9v-83.9z" fill="#fff"/></svg>