<svg viewBox="0 0 589.29 523.09" xmlns="http://www.w3.org/2000/svg"><path d="M493.85 258.54V83.06h65.51l29.75-29.58V0H437.69l-25.9 26.07v125.34h34.76l23.57-23.56V71.53h-11.37V123l-16.88 16.88h-18.72V30.75l19.22-19.39h135.2v37.27l-23.06 22.9h-72.2v89.58H154.09l-97.44 97.26H0v11.37h61.33l97.44-97.27h323.54v81.72l-34.59 42.28 23.28 23.9h-48V255H210.41l-43.12 41.28 23.23 24.06h-54.65V215.09h-11.36v116.65h92.92l-33.93-35.1 31.59-30.08h196.53v65.35h86.24L463.1 296l30.75-37.43m-374.22 235.8V489h-7.3v33.29h7.3v-16.2c0-6.14 3.8-10.08 10.22-10.08v-7.44c-4.23-.15-7.74 2-10.22 5.84m20.5 7.93a10.22 10.22 0 0119.8 0zm9.9-14.19c-10.19 0-17.73 7.54-17.73 17.44S140 523 150 523c8.28 0 14.78-4.58 17.14-11.38h-8c-1.48 2.81-4.87 4.73-9.16 4.73a10 10 0 01-10-8h27.48a18.7 18.7 0 00.14-2.8c.15-9.9-7.38-17.44-17.58-17.44m39.92 7.15a10.08 10.08 0 019.57 6.58h7.78c-1.65-7.93-8.68-13.61-17.35-13.61-10.17 0-17.8 7.48-17.8 17.5s7.63 17.34 17.8 17.34c8.67 0 15.7-5.68 17.35-13.61h-7.78a10.29 10.29 0 01-19.89-3.73 10.19 10.19 0 0110.32-10.47m31.06-.95v-5.43h-7.38v33.3H221v-16.12c0-6.18 3.77-10.1 10.25-10.1v-7.53c-4.22 0-7.68 2.26-10.25 5.88m39 13.56c0 4.88-3.35 8.07-8.22 8.07S244 512.75 244 508v-19h-7.31v21.18c0 7.76 5 12.79 12.79 12.79a13 13 0 0010.67-5.18v4.42h7.31V489h-7.31v18.89m19.61-33.79a4.6 4.6 0 000 9.19 4.64 4.64 0 004.74-4.59 4.73 4.73 0 00-4.74-4.6m-3.66 48.09h7.34V489h-7.34v33.21m26.9-43.08h-7.26v9.72h-6.14v6.64h6.17V522h16.05v-6.6h-8.64v-19.91h8.64v-6.64h-8.64v-9.72m55.23 8.96a13 13 0 00-11.62 6.44c-1.89-3.92-5.81-6.44-11-6.44a12.37 12.37 0 00-10.36 5v-4.24h-7.38v33.3h7.38v-19.29c0-4.71 3.14-7.7 7.85-7.7s7.38 3 7.38 7.54v19.48h7.39v-19.32c0-4.71 3.14-7.7 7.85-7.7 4.55 0 7.38 3 7.38 7.54v19.48h7.38v-21.52c0-7.54-4.87-12.57-12.25-12.57m26.28 14.33a10 10 0 019.85-7.63 9.91 9.91 0 019.86 7.63zm9.85-14.31c-10.17 0-17.8 7.48-17.8 17.49 0 9.86 7.63 17.49 17.8 17.49 8.27 0 14.79-4.61 17.17-11.29h-7.95c-1.43 2.86-4.92 4.77-9.06 4.77a9.93 9.93 0 01-10-8h27.5a16.16 16.16 0 00.16-2.7c0-10.33-7.63-17.81-17.81-17.81m42.71.09a13.49 13.49 0 00-11.26 5.46V489h-7.23v33.27H426v-18.53c0-5.15 3.54-8.68 8.84-8.68 5 0 8.2 3.37 8.2 8.52v18.48h7.23v-20.89c.16-7.72-5.14-13-13-13m31.15-8.96h-7.29v9.72H455v6.64h6.16v26.56h16v-6.64h-8.74v-19.92h8.74v-6.64h-8.74zM21.63 418L14 410.41v-8l7.3-7.16h40.1v-11.76H14.61L0 398.24V415l14.61 14.32H47.4l7.88 7.88v10l-7.45 7.59h-44v11.6h50.88l14.46-14.6v-19.47L54.56 418zm76.04-14.73l8.68-8.68h24.86l8.67 8.68V419H97.52v-15.73zm54.86 51.49h-46.18l-8.68-8.68V430H154v-30l-16.63-16.63h-36.91L83.84 400v49.57l16.62 16.62h52.07zm56.4.52h-19.64l-8.76-8.76v-12.68l8.76-8.61 36-.15V439zm16.31 11h13.89V400l-16.46-16.6h-45.31v11.78h39.27l8.61 8.76v10.27H183.1l-16.46 16.61v18.87l16.46 16.62h29.3l12.84-12.84v12.84m81.03-82.89H285l-14.34 14.95v-14.95h-14v82.91h14V413l15.11-15.56h20.65v-14m79.75 27.69V398l-14.52-14.36h-37.87l-16.57 16.57v49.54l16.57 16.57h51.6v-11.48h-45.6L331.1 446v-42.6l8.68-8.68h24.61l7.89 7.89v8.52zm74.68 55.31h13.92v-66.2l-16.51-16.67h-30.59L415 396.68v-47.1h-13.88v116.86H415v-55.19l16.35-16.67h21l8.42 9.06v62.8m108.47-12.06l-21.9-22.06-22.06 22.06-8.19-8.19L539 424.3l-21.9-21.9 8.19-8.19 22.06 22.06 21.9-22.06 8.19 8.19-21.9 21.9 21.9 21.89zm-64-72.37v84.07h84.06V382h-84.07" fill="#173751"/><g fill="#88d8e5"><path d="M502.08 188.82l-21.91-21.9L502.08 145l8 8-13.9 13.9 13.9 13.89-8 8"/><path d="M474.42 188.9l-8.14-8.14 13.84-13.85-13.84-13.84 8.14-8.14 22 22-22 22"/></g></svg>