<svg viewBox="0 0 589.29 470.04" xmlns="http://www.w3.org/2000/svg"><path d="M119.88 441.18v-5.33h-7.47v33.4h7.47v-16.34c0-6 3.91-10 10.3-10v-7.47a10.28 10.28 0 00-10.3 5.69m20.36 7.87c1.07-4.64 5-7.5 10-7.5a10.4 10.4 0 0110 7.5zm9.64-13.92c-10 0-17.86 7.49-17.86 17.49s7.5 17.5 17.86 17.5c8.21 0 14.64-4.64 17.14-11.42h-7.85c-1.43 2.85-5 4.64-9.29 4.64a10 10 0 01-10-7.86h27.5c0-.71.36-2.14.36-2.86 0-10-7.5-17.49-17.86-17.49m40.17 6.97a9.84 9.84 0 019.69 6.46h7.9a17.38 17.38 0 00-17.23-13.64c-10 0-17.95 7.54-17.95 17.59S180 470 190.41 470c8.62 0 15.79-5.74 17.23-13.64h-7.9a9.85 9.85 0 01-9.69 6.47 10.42 10.42 0 01-10.41-10.41 10.19 10.19 0 0110.41-10.41m31.08-.91v-5.4h-7.2v33.13h7.2v-16.21c0-6.12 4-10.08 10.08-10.08V435a13.83 13.83 0 00-10.08 6.12m38.93 13.34c0 4.7-3.25 8-8.31 8-4.71 0-7.6-3.26-7.6-8v-19.17h-7.23v21.34c0 7.6 5.06 13 12.65 13 4.35 0 8.32-1.81 10.49-5.06v4.34h7.24v-33.26h-7.24zM276 469h7.24v-33.37H276zm3.61-48.08a4.58 4.58 0 00-4.71 4.72 4.72 4.72 0 009.43 0 4.39 4.39 0 00-4.72-4.72m23.32 4.79h-7.27v9.83h-6.18v6.54h6.18v26.56h16v-6.55h-8.73v-20h8.73v-6.54h-8.73v-9.83m55.62 9.28a13.23 13.23 0 00-11.73 6.23c-1.83-4-5.86-6.23-11-6.23a11.86 11.86 0 00-10.26 5.13v-4.4h-7.33v33.35h7.33v-19.4c0-4.76 3.29-7.69 8.06-7.69 4.39 0 7.33 2.93 7.33 7.69v19.43h7.33v-19.43A7.3 7.3 0 01356 442c4.4 0 7.33 2.93 7.33 7.69v19.43h7.33v-21.63c0-7.7-4.76-12.46-12.09-12.46m26.13 14.2a10.27 10.27 0 019.94-7.74 9.9 9.9 0 019.95 7.74zm9.94-14.37c-9.94 0-17.68 7.37-17.68 17.32s7.74 17.31 17.68 17.31A18.31 18.31 0 00412 458.07h-8.11c-1.47 2.95-4.79 4.79-9.21 4.79a9.92 9.92 0 01-9.94-8.1h27.63c0-.74.36-2.21.36-2.58-.36-9.95-7.73-17.32-18.05-17.32m42.8.14a12.74 12.74 0 00-11.1 5.55v-4.44H419v33.31h7.4v-18.5c0-5.19 3.7-8.52 8.88-8.52s8.15 3.33 8.15 8.52v18.5h7.4V448.3c-.37-8.15-5.55-13.33-13.33-13.33m30.93-8.97H461v9.66h-6.32v6.68H461V469h16v-6.69h-8.55V442.3H477v-6.68h-8.55V426M21.71 364.66l-7.41-7.76v-8.11l7.41-7.05H61.9V330.1H15L.55 344.91v16.92L15 375.94h32.8l7.76 7.75v9.88l-7.41 7.75H4.08V413h50.77l14.46-14.5v-19.39L54.85 365H21.71m75.8-15l8.91-8.55h25l8.91 8.55v15.69H97.87V350zm54.9 51.69h-46l-8.91-8.55v-16h56.32v-30.02l-16.75-16.75H100l-16.75 16.75v49.55L100 413.43h52v-11.77m56.85.51H189l-8.65-8.65v-12.61l8.65-8.65h36v14.06zM225.43 413h14v-66.33l-16.53-16.58h-45.41V342h39.29l8.65 8.65v10.45h-42.17l-16.58 16.58v18.74L183.26 413h29.19l13-13v13m80.8-82.65h-21.08l-14.54 14.9v-14.9h-13.82v82.88h13.82v-53.44l14.9-15.63h20.72zm79.18 82.92v-11.75H339.9l-8.81-8.81v-42.59l8.81-8.81h24.6l8.07 8.08v8.44h14v-13.22l-14.69-14.32h-38.23l-16.52 16.53v49.56l16.52 16.53h51.78M461 413h14.11v-66.07l-16.31-16.71h-30.44l-12.63 13v-47.15h-14.1V413h14.1v-55.31L432.07 341h21.16l8.54 8.91zm108.33-11.82l-21.84-21.84-21.84 21.84-8.28-8.28 21.84-21.84-21.84-21.84 8.28-8.28 21.84 21.83 21.84-21.83 8.28 8.28-21.83 21.84 21.83 21.84zm-64-72.29v84h84v-84zM158.88 172.43h323.41v62.5h65.89v16.19l-14.31 16.19h-84.71v-58l-19.58-19.58-7.9 7.91 16.18 16.19v41H194.65l-8.28-8.29L221 215l-32.75-31.63-7.91 8.29 24.1 23.34-34.27 31.25 20.34 21.08h-54.6v-53.48h-11.29v64.76h93l-11.67-12.05h232.3V279h101.27l20.7-23.34v-32h-66.63V82.83h65.51l29.74-29.74V0H437.49l-26 26v126.86h34.64l23.72-23.72V71.53h-11.3v52.71l-16.94 17H422.8V30.5L442 11.29h135.17v37.28l-23 23h-71.88v89.61H154.36l-97.51 97.1H0v11.29h61.75z" fill="#fff"/><path d="M502.05 188.69l-22-22 22-22 8.2 8.21-13.8 13.79 13.8 13.8z" fill="#88d8e5"/><path d="M474.07 188.76l-8.19-8.19 13.77-13.77-13.77-13.8 8.19-8.19 22 22-22 22" fill="#88d8e5"/></svg>