<svg viewBox="0 0 589.34 523.32" xmlns="http://www.w3.org/2000/svg"><path d="M493.82 258.52V83.12h65.7l29.64-29.64V0H437.89l-26 26v125.26h34.84l23.53-23.53V71.51H459v51.64L442.17 140h-18.64V30.86l19.25-19.25h135.07v37.28l-22.92 22.92h-72.42v89.54H154.32l-97.48 97.17H0v11.31h61.42l97.48-97.18h323.61v81.9L448 296.72l23.22 23.83h-48v-65.39H210.54l-43.08 41.25 23.22 24.14H136V215.43h-11.3v116.73h92.89L183.65 297l31.48-30.25h196.48v65.39h86.18L463 296.11l30.87-37.59M119.64 494.39V489h-7.39v33.28h7.39v-16.23c0-6.26 3.7-10.24 10.24-10.24v-7.4c-4.26 0-7.68 2.28-10.24 6m20.68 7.96a10.17 10.17 0 0119.74 0zm9.73-14.31c-10 0-17.75 7.45-17.75 17.46S140 523 150.05 523c8.3 0 14.88-4.58 17.17-11.45h-8c-1.43 2.86-4.87 4.87-9.16 4.87a9.89 9.89 0 01-10-8h27.48c0-.85.28-2 .28-2.86 0-10-7.44-17.46-17.74-17.46m39.98 6.97a9.69 9.69 0 019.5 6.62h7.78c-1.73-8.06-8.64-13.53-17.28-13.53-10.08 0-17.86 7.48-17.86 17.28s7.78 17.28 17.86 17.28c8.64 0 15.84-5.76 17.28-13.54h-7.78a10.3 10.3 0 11-9.5-14.11m31.09-.93v-5.49h-7.23v33.25h7.23v-16.19c0-6.07 3.76-10.12 10.12-10.12v-7.52c-4.05.29-7.52 2.6-10.12 6.07m38.94 13.77c0 4.94-3.2 8.14-8.44 8.14a7.48 7.48 0 01-7.85-7.85v-18.9h-7.27v21.23c0 7.85 4.95 12.79 12.8 12.79a13 13 0 0010.76-5.23v4.36h7.26V489h-7.26v18.9m15.96 14.32h7.29V489h-7.29v33.23m3.67-48.34a4.67 4.67 0 104.66 4.67 4.61 4.61 0 00-4.66-4.67m23.51 5.11h-7.32v9.66h-6.15v6.73h6.15V522H312v-6.74h-8.78v-19.88H312v-6.73h-8.78V479m55.36 9a12.81 12.81 0 00-11.53 6.5 11.77 11.77 0 00-10.93-6.5 12.21 12.21 0 00-10.34 5v-4.43h-7.39v33.39h7.39v-19.24c0-4.72 3.25-7.68 8-7.68 4.44 0 7.39 3 7.39 7.68v19.51h7.39V503c0-4.73 3.25-7.68 8-7.68 4.43 0 7.39 3 7.39 7.68v19.5h7.39V501c-.59-8-5.32-13-12.71-13m26.09 14.32a10.18 10.18 0 019.81-7.73 9.87 9.87 0 019.82 7.73zm9.81-14.32c-10.11 0-17.84 7.44-17.84 17.55a17.46 17.46 0 0017.84 17.55c8.33 0 14.88-4.76 17.26-11.3h-8c-1.49 2.67-5.06 4.76-9.23 4.76a10.23 10.23 0 01-10.11-8h27.66c0-.9.3-2.09.3-2.68 0-10.41-7.43-17.85-17.85-17.85m42.75-.03a13.51 13.51 0 00-11.37 5.39v-4.49h-7.18v33.21h7.18V503.9a8.32 8.32 0 018.68-8.67c5.08 0 8.38 3.29 8.38 8.37v18.55h7.18v-20.94c.3-7.78-4.79-13.17-12.87-13.17m31.01-8.96h-7.21V489h-6.31v6.61h6.31v26.74H477v-6.61h-8.71V495.9H477v-6.61h-8.71v-10.21M21.76 418l-7.6-7.6v-8.17l7.32-7h40v-11.85H14.72L.08 398v16.9l14.64 14.37h33l7.88 7.89V447l-7.32 7.61H4.3v11.55h51l14.37-14.65v-19.4L55 417.74H21.76m75.9-14.36l8.85-8.85h24.84l8.85 8.85v15.71H97.94zm54.82 51.4h-46.26l-8.85-8.85v-16h56.25V400l-16.56-16.56h-36.83L83.66 400v49.69l16.57 16.56h52.25zm56.58.57h-19.69l-8.68-8.68v-12.74l8.68-8.69 35.9-.28v13.89zm16.21 11h13.89v-66.29l-16.5-16.5H177.5v11.87h39.37l8.69 8.68v10.42h-42.27L166.79 431v18.82l16.5 16.5h29.24l12.74-12.74v12.74m81.04-82.81H285l-14.34 14.92v-14.92h-14v82.79h14v-53.54l14.92-15.5H306l.3-13.75m79.9 27.37v-13l-14.52-14.52h-37.92l-16.59 16.59v49.47L333.76 466h51.55v-11.57h-45.62l-8.59-8.89v-42.66l8.59-8.59h24.59l8 8v8.59zm74.8 55.45h13.8V400l-16.52-16.52h-30.63L415 396.66v-47.15h-13.78v116.82H415v-55.26l16.21-16.51h21l8.4 9 .3 62.76m108.57-12.12l-22-22-22 22-8.26-8.2 22-22-22-22 8.26-8.25 22 22 22-22 8.25 8.25-22 22 22 22zm-64.17-72.12v84h84v-84z" fill="#fff"/><g fill="#88d8e5"><path d="M502.27 188.75l-22-22 22-22 8.15 8.15-13.89 13.89 13.89 13.89-8.15 8.15"/><path d="M474.3 189l-8.14-8.14L480 167l-13.86-13.86 8.16-8.14 22 22z"/></g></svg>