<?xml version="1.0" encoding="UTF-8"?>
<svg width="60px" height="61px" viewBox="0 0 60 61" version="1.1" xmlns="http://www.w3.org/2000/svg" xmlns:xlink="http://www.w3.org/1999/xlink">
    <title>Combined Shape</title>
    <g id="Werken-Bij" stroke="none" stroke-width="1" fill="none" fill-rule="evenodd">
        <g id="Werkenbij---Home-concept-1" transform="translate(-930.000000, -2320.000000)" fill="#94D4E9">
            <g id="Group-7" transform="translate(564.000000, 1998.987883)">
                <path d="M417.627907,322 L426,330.372093 L426,373.627907 L417.627907,382 L374.372093,382 L366,373.627907 L366,330.372093 L374.372093,322 L417.627907,322 Z M387.269,338.097762 C386.871583,338.323103 386.625,338.751199 386.625,339.215943 L386.625,364.784093 C386.625,365.248836 386.871583,365.676932 387.269,365.902273 C387.457833,366.009318 387.6665,366.0625 387.875,366.0625 C388.10525,366.0625 388.335167,365.997472 388.5375,365.868182 L408.5375,353.084192 C408.903,352.850585 409.125,352.440898 409.125,352.000103 C409.125,351.559308 408.903,351.149621 408.5375,350.916013 L388.5375,338.131853 C388.152083,337.885461 387.666417,337.872507 387.269,338.097762 Z" id="Combined-Shape"></path>
            </g>
        </g>
    </g>
</svg>