<svg width="417" height="410" fill="none" xmlns="http://www.w3.org/2000/svg"><path fill-rule="evenodd" clip-rule="evenodd" d="M298.842 189.089l-17.253 17.009v83.825h25.53l15.641-15.365v-37.527h-6.326v34.951L304.5 283.708h-16.585v-75.042l13.555-13.362h93.014v25.892l-16.105 15.766h-48.757v59.855H105.879l-66.29 65.065H.711v6.215h41.495l66.291-65.065h221.124v55.649l-23.336 27.977 16.496 16.756h-34.997v-43.738H144.149l-28.628 26.875 16.464 16.758H92.401v-71.058h-6.327v77.274h60.81l-22.395-22.797 22.196-20.836h134.774v43.737h56.243l-22.951-23.314 21.197-25.413V243.178h45.046l19.817-19.402v-34.687H298.842z" fill="#093853"/><path fill-rule="evenodd" clip-rule="evenodd" d="M342.775 314.107l-14.436-14.182 14.436-14.182 4.474 4.394-9.963 9.788 9.963 9.788-4.474 4.394z" fill="#8FD1E7"/><path fill-rule="evenodd" clip-rule="evenodd" d="M322.881 314.107l-4.474-4.394 9.963-9.788-9.963-9.788 4.474-4.394 14.435 14.182-14.435 14.182z" fill="#8FD1E7"/><path fill-rule="evenodd" clip-rule="evenodd" d="M208.067.532L189.753 18.47v49.124l18.184 18.094H398.49l18.116-17.935V18.47L398.968.532H208.067z" fill="#093853"/><path fill-rule="evenodd" clip-rule="evenodd" d="M308.931 55.274l69.649 68.723V55.274h-69.649z" fill="#093853"/><path d="M238.356 55.214c4.749 0 8.372-3.166 8.372-7.352 0-4.643-3.412-6.508-7.211-7.492-2.568-.669-4.221-1.654-4.221-3.413 0-1.442 1.302-2.532 2.99-2.532 1.759 0 3.096 1.266 3.096 2.955h4.995c0-4.151-3.483-7.282-8.091-7.282-4.538 0-7.985 3.06-7.985 7.07 0 4.433 3.236 6.543 6.859 7.493 2.568.633 4.573 1.653 4.573 3.482 0 1.548-1.442 2.744-3.306 2.744-1.97 0-3.483-1.442-3.483-3.271h-4.995c0 4.326 3.624 7.598 8.407 7.598zm20.363 0c4.819 0 8.583-3.096 9.427-7.422h-4.854c-.739 1.794-2.462 2.99-4.573 2.99-2.814 0-4.925-2.146-4.925-4.96s2.111-4.96 4.925-4.96c2.111 0 3.834 1.196 4.573 2.99h4.854c-.844-4.327-4.608-7.422-9.427-7.422-5.487 0-9.638 4.045-9.638 9.392 0 5.346 4.151 9.392 9.638 9.392zm26.723-4.573V36.85H271.16v4.257h9.709v2.322h-4.608c-3.624 0-6.367 2.497-6.367 5.874 0 3.342 2.743 5.91 6.367 5.91 2.18 0 3.974-.844 5.135-2.252v1.83h6.121V50.64h-2.075zm-8.126.914c-1.548 0-2.709-1.02-2.709-2.321 0-1.302 1.161-2.287 2.709-2.287h3.553v2.076c0 1.512-1.443 2.532-3.553 2.532zm17.345-.95v-21.14h-4.573v25.327h7.598v-4.186h-3.025zm23.85-4.748c0-5.382-4.151-9.427-9.639-9.427-5.487 0-9.638 4.045-9.638 9.392 0 5.346 4.151 9.392 9.638 9.392 4.432 0 7.985-2.533 9.287-6.191h-4.89c-.703 1.23-2.356 2.145-4.326 2.145-2.392 0-4.221-1.477-4.819-3.763h14.246c.105-.422.141-1.09.141-1.548zm-9.639-5.417c2.252 0 4.116 1.442 4.714 3.623h-9.392c.598-2.181 2.392-3.623 4.678-3.623zm12.713 6.93h10.271v-4.433h-10.271v4.433zm26.424-10.518v10.095c0 2.322-1.583 3.835-3.94 3.835-2.216 0-3.693-1.478-3.693-3.764V36.852h-4.573v11.502c0 4.151 2.709 6.86 6.754 6.86 2.251 0 4.116-.915 5.452-2.603v2.18h4.573v-17.94h-4.573zm19.339-.422c-2.427 0-4.432 1.055-5.839 2.779v-2.357h-4.573v24.623h4.573v-9.04c1.407 1.723 3.412 2.779 5.839 2.779 4.995 0 8.724-4.045 8.724-9.392 0-5.347-3.729-9.392-8.724-9.392zm-.915 14.352c-2.814 0-4.924-2.146-4.924-4.96s2.11-4.96 4.924-4.96c2.85 0 4.925 2.146 4.925 4.96s-2.075 4.96-4.925 4.96z" fill="#94D4E9"/></svg>