<svg width="1126" height="313" xmlns="http://www.w3.org/2000/svg"><g fill="none" fill-rule="evenodd"><path fill="#093853" d="M415.627 0l-24.053 24.137v118.95h35.592l21.805-21.804V68.031h-8.82v49.598l-16.637 16.638h-23.12V27.781l18.896-18.96h129.672v36.74l-22.451 22.373h-67.974v84.935H146.614L54.198 245.2H0v8.82h57.848l92.417-92.33h308.272v78.968l-32.532 39.7 22.997 23.776h-48.79V242.07H199.967l-39.91 38.136 22.952 23.78h-55.185V203.151h-8.82v109.654h84.776l-31.22-32.348 30.943-29.568h187.89v62.064h78.409l-31.996-33.082 29.55-36.062V76.754h62.8l27.626-27.531V0zm247.654 81L641 103.117v60.573L663.123 186h440.466l22.041-22.114v-60.769L1104.171 81z"/><text font-family="Fractul-SemiBold, Fractul" font-size="42.797" font-weight="500"><tspan x="686" y="154" fill="#94D4E9">Mijn groei</tspan> <tspan x="887.32" y="154" fill="#FDD963"> </tspan> <tspan x="897.077" y="154" fill="#FFF">Scale-up</tspan></text><path fill="#093853" d="M599 81l84.739 84.739v-84.74z"/></g></svg>