<svg width="419" height="371" fill="none" xmlns="http://www.w3.org/2000/svg"><path fill-rule="evenodd" clip-rule="evenodd" d="M298.33 184.556l-17.253 17.105v84.299h25.53l15.64-15.452v-37.74h-6.326v35.151l-11.935 11.791h-16.583v-75.466l13.553-13.437h93.015v26.037l-16.104 15.857h-48.759v60.193H105.366l-66.29 65.399H0v6.251h41.694l66.29-65.399h221.124v42.172h44.944v11.87l-10.216 11.384h-58.621v-39.525l-13.111-12.953-4.472 4.419 11.257 11.123v28.544H132.353l-6.27-6.444 23.5-21.307-21.685-20.853-4.413 4.479 16.889 16.24-23.339 21.161 14.531 14.936H91.962v-36.666h-6.327v42.916h60.79l-7.99-8.212h160.454v8.392h67.793l13.696-15.262v-20.493h-44.943v-96.114h45.046l19.817-19.512v-34.884H298.33z" fill="#093853"/><path fill-rule="evenodd" clip-rule="evenodd" d="M342.263 310.282l-14.436-14.262 14.436-14.263 4.472 4.42-9.961 9.843 9.961 9.842-4.472 4.42z" fill="#FDD963"/><path fill-rule="evenodd" clip-rule="evenodd" d="M322.368 310.282l-4.473-4.42 9.961-9.842-9.961-9.843 4.473-4.42 14.436 14.263-14.436 14.262z" fill="#FDD963"/><path fill-rule="evenodd" clip-rule="evenodd" d="M209.409.055L191.096 17.99v49.124l18.183 18.095H400.86l18.115-17.936V17.992L401.338.055H209.409z" fill="#093853"/><path fill-rule="evenodd" clip-rule="evenodd" d="M312.329 54.796l69.648 68.723V54.796h-69.648z" fill="#093853"/><path d="M245.699 53.71c4.749 0 8.372-3.166 8.372-7.352 0-4.644-3.412-6.508-7.211-7.493-2.568-.668-4.221-1.653-4.221-3.412 0-1.442 1.301-2.533 2.99-2.533 1.758 0 3.095 1.267 3.095 2.955h4.995c0-4.15-3.482-7.281-8.09-7.281-4.538 0-7.985 3.06-7.985 7.07 0 4.432 3.236 6.543 6.859 7.492 2.568.634 4.573 1.654 4.573 3.483 0 1.548-1.442 2.744-3.307 2.744-1.97 0-3.482-1.443-3.482-3.272h-4.995c0 4.327 3.623 7.598 8.407 7.598zm22.617-14.177v-4.186h-4.432v-5.276h-4.573v5.276h-3.236v4.186h3.236v13.754h9.005v-4.186h-4.432v-9.568h4.432zm17.563 9.603V35.347h-14.281v4.257h9.708v2.321h-4.608c-3.623 0-6.366 2.498-6.366 5.875 0 3.342 2.743 5.91 6.366 5.91 2.181 0 3.975-.845 5.136-2.252v1.83h6.121v-4.151h-2.076zm-8.125.915c-1.548 0-2.709-1.02-2.709-2.322 0-1.301 1.161-2.286 2.709-2.286h3.552v2.075c0 1.513-1.442 2.533-3.552 2.533zm17.345-12.065v-2.639h-4.573v17.94h4.573V44.74c0-3.026 1.864-4.96 5.241-4.96v-4.714c-2.111 0-3.94 1.09-5.241 2.92zm19.386 1.547v-4.186h-4.433v-5.276h-4.572v5.276h-3.237v4.186h3.237v13.754h9.005v-4.186h-4.433v-9.568h4.433zm2.385 6.332h10.271v-4.432H316.87v4.432zm26.424-10.518v10.096c0 2.322-1.583 3.834-3.939 3.834-2.216 0-3.694-1.477-3.694-3.764V35.347h-4.573V46.85c0 4.15 2.709 6.86 6.754 6.86 2.251 0 4.116-.915 5.452-2.604v2.181h4.573v-17.94h-4.573zm19.339-.422c-2.427 0-4.432 1.056-5.839 2.78v-2.358h-4.573v24.624h4.573v-9.04c1.407 1.723 3.412 2.778 5.839 2.778 4.995 0 8.724-4.045 8.724-9.392 0-5.346-3.729-9.392-8.724-9.392zm-.914 14.352c-2.814 0-4.925-2.146-4.925-4.96s2.111-4.96 4.925-4.96c2.849 0 4.924 2.146 4.924 4.96s-2.075 4.96-4.924 4.96z" fill="#FDD963"/></svg>