<?xml version="1.0" standalone="no"?>
<!DOCTYPE svg PUBLIC "-//W3C//DTD SVG 1.1//EN" "http://www.w3.org/Graphics/SVG/1.1/DTD/svg11.dtd" >
<svg xmlns="http://www.w3.org/2000/svg" xmlns:xlink="http://www.w3.org/1999/xlink" version="1.1">
<metadata>
Created by FontForge 20170731 at Sun May 12 20:00:38 2019
 By Aleksey,,,
Copyright (c) 2019 by Adam Ladd. All rights reserved.
</metadata>
<defs>
<font id="Fractul-Regular" horiz-adv-x="0" >
  <font-face 
    font-family="Fractul"
    font-weight="400"
    font-stretch="normal"
    units-per-em="1000"
    panose-1="0 0 5 0 0 0 0 0 0 0"
    ascent="780"
    descent="-220"
    x-height="510"
    cap-height="690"
    bbox="-684 -227 1280 914"
    underline-thickness="51"
    underline-position="-200"
    unicode-range="U+0020-FB02"
  />
<missing-glyph horiz-adv-x="500" 
d="M410 780v-1000h-317v1000h317zM333 713h-165v-33h65v-37h-66v-33h166v33h-66v37h66v33zM267 584h-100v-104h166v34h-66v70zM233 550v-36h-33v36h33zM333 453h-166v-33h66v-37h-66v-33h100v70h66v33zM333 393h-33v-66h-133v-34h166v100zM333 271h-100v-56h34v23h33v-47
h-100v80h-33v-113h166v113zM333 98h-166v-113h166v113zM300 65v-47h-100v47h100zM333 -38h-166v-33h70l-70 -47v-33h166v33h-102l70 47h32v33z" />
    <glyph glyph-name="fi" unicode="fi" horiz-adv-x="594" 
d="M478 612q-24 0 -40.5 16.5t-16.5 40.5q0 25 16.5 41t40.5 16q25 0 41.5 -16t16.5 -41q0 -24 -16.5 -40.5t-41.5 -16.5zM521 510v-510h-86v432h-222v-432h-86v432h-93v78h93v210h208v-79h-122v-131h308z" />
    <glyph glyph-name="fl" unicode="fl" horiz-adv-x="654" 
d="M127 510v210h228v-79h-142v-131h142v-78h-142v-432h-86v432h-93v78h93zM544 79h94v-79h-180v720h86v-641z" />
    <glyph glyph-name="f_f.liga" unicode="ff" horiz-adv-x="717" 
d="M699 641h-142v-131h142v-78h-142v-432h-86v432h-258v-432h-86v432h-93v78h93v210h228v-79h-142v-131h258v210h228v-79z" />
    <glyph glyph-name="f_f_i.liga" unicode="ffi" horiz-adv-x="938" 
d="M823 612q-25 0 -41.5 16.5t-16.5 40.5q0 25 16.5 41t41.5 16q24 0 40.5 -16t16.5 -41q0 -24 -16.5 -40.5t-40.5 -16.5zM866 510v-510h-86v432h-223v-432h-86v432h-258v-432h-86v432h-93v78h93v210h228v-79h-142v-131h258v210h208v-79h-122v-131h309z" />
    <glyph glyph-name=".notdef" horiz-adv-x="500" 
d="M410 780v-1000h-317v1000h317zM333 713h-165v-33h65v-37h-66v-33h166v33h-66v37h66v33zM267 584h-100v-104h166v34h-66v70zM233 550v-36h-33v36h33zM333 453h-166v-33h66v-37h-66v-33h100v70h66v33zM333 393h-33v-66h-133v-34h166v100zM333 271h-100v-56h34v23h33v-47
h-100v80h-33v-113h166v113zM333 98h-166v-113h166v113zM300 65v-47h-100v47h100zM333 -38h-166v-33h70l-70 -47v-33h166v33h-102l70 47h32v33z" />
    <glyph glyph-name=".null" 
 />
    <glyph glyph-name="nonmarkingreturn" horiz-adv-x="333" 
 />
    <glyph glyph-name="space" unicode=" " horiz-adv-x="247" 
 />
    <glyph glyph-name="exclam" unicode="!" horiz-adv-x="253" 
d="M87 193l-6 327v170h91v-170l-5 -327h-80zM127 -7q-27 0 -45 18t-18 44q0 27 18 45t45 18q26 0 44 -18t18 -45q0 -26 -18 -44t-44 -18z" />
    <glyph glyph-name="quotedbl" unicode="&#x22;" horiz-adv-x="402" 
d="M67 449l-5 241h85l-5 -241h-75zM260 449l-5 241h85l-5 -241h-75z" />
    <glyph glyph-name="numbersign" unicode="#" horiz-adv-x="760" 
d="M717 427h-139l-48 -164h135v-75h-157l-56 -188h-80l55 188h-196l-55 -188h-80l55 188h-117v75h139l48 164h-134v75h156l55 188h81l-55 -188h196l55 188h81l-56 -188h117v-75zM449 263l49 164h-196l-49 -164h196z" />
    <glyph glyph-name="dollar" unicode="$" horiz-adv-x="533" 
d="M486 186q0 -74 -53.5 -127.5t-136.5 -61.5v-66h-57v65q-84 9 -138 65t-54 135h93q0 -43 28 -75t71 -41v232q-181 49 -181 199q0 71 51 122.5t130 60.5v66h57v-67q78 -9 128.5 -62t50.5 -128h-93q0 39 -24 68t-62 38v-220q190 -50 190 -203zM152 514q0 -69 87 -107v204
q-38 -8 -62.5 -34.5t-24.5 -62.5zM296 79q42 8 69 36.5t27 65.5q0 74 -96 113v-215z" />
    <glyph glyph-name="percent" unicode="%" horiz-adv-x="836" 
d="M210 382q-70 0 -116 46t-46 114t46 114t116 46q69 0 115 -46t46 -114t-46 -114t-115 -46zM122 0l500 690h93l-500 -690h-93zM210 452q38 0 63.5 26t25.5 64t-25.5 64t-63.5 26t-63.5 -26t-25.5 -64t25.5 -64t63.5 -26zM626 -12q-69 0 -115.5 46t-46.5 114t46.5 114
t115.5 46t115.5 -46t46.5 -114t-46.5 -114t-115.5 -46zM626 58q38 0 63.5 26t25.5 64t-25.5 64t-63.5 26t-63.5 -26t-25.5 -64t25.5 -64t63.5 -26z" />
    <glyph glyph-name="ampersand" unicode="&#x26;" horiz-adv-x="619" 
d="M622 0h-105l-58 83q-57 -95 -184 -95q-105 0 -171.5 61.5t-66.5 159.5q0 80 47.5 139t131.5 85l-128 183v74h369v-80h-263l263 -374v9v190h82v-190q0 -54 -22 -95zM277 69q92 0 144 68l-162 234q-63 -19 -99 -61t-36 -99q0 -62 43.5 -102t109.5 -40z" />
    <glyph glyph-name="quotesingle" unicode="'" horiz-adv-x="209" 
d="M67 449l-5 241h85l-5 -241h-75z" />
    <glyph glyph-name="parenleft" unicode="(" horiz-adv-x="320" 
d="M218 -190q-64 85 -103 213.5t-39 256.5t39 256.5t103 213.5h87q-62 -85 -100 -213.5t-38 -256.5t38 -256.5t100 -213.5h-87z" />
    <glyph glyph-name="parenright" unicode=")" horiz-adv-x="320" 
d="M15 -190q62 85 100 213.5t38 256.5t-38 256.5t-100 213.5h87q64 -85 103 -213.5t39 -256.5t-39 -256.5t-103 -213.5h-87z" />
    <glyph glyph-name="asterisk" unicode="*" horiz-adv-x="377" 
d="M237 570l21 -9l77 -43l-28 -47l-77 43l-17 14l3 -22v-87h-55v87l4 22l-18 -14l-77 -43l-28 47l77 44l21 8l-21 8l-77 43l28 48l77 -44l18 -14l-4 22v87h55v-87l-3 -22l17 14l77 44l28 -48l-77 -44z" />
    <glyph glyph-name="plus" unicode="+" horiz-adv-x="534" 
d="M471 334v-78h-164v-165h-80v165h-164v78h164v165h80v-165h164z" />
    <glyph glyph-name="comma" unicode="," horiz-adv-x="240" 
d="M20 -145l70 249h102l-97 -249h-75z" />
    <glyph glyph-name="hyphen" unicode="-" horiz-adv-x="408" 
d="M63 232v83h282v-83h-282z" />
    <glyph glyph-name="period" unicode="." horiz-adv-x="235" 
d="M117 -7q-27 0 -45.5 18.5t-18.5 45.5t18.5 45.5t45.5 18.5q28 0 46.5 -18.5t18.5 -45.5t-18.5 -45.5t-46.5 -18.5z" />
    <glyph glyph-name="slash" unicode="/" horiz-adv-x="510" 
d="M11 -150l400 900h87l-400 -900h-87z" />
    <glyph glyph-name="zero" unicode="0" horiz-adv-x="643" 
d="M322 -12q-118 0 -192 99.5t-74 257.5t74 257.5t192 99.5q117 0 191 -99.5t74 -257.5t-74 -257.5t-191 -99.5zM322 76q75 0 123 75t48 194t-48 194t-123 75q-76 0 -124 -75t-48 -194t48 -194t124 -75z" />
    <glyph glyph-name="one" unicode="1" horiz-adv-x="442" 
d="M291 86h139v-86h-384v86h154v496l-154 -67v97l181 78h64v-604z" />
    <glyph glyph-name="two" unicode="2" horiz-adv-x="528" 
d="M179 86h296v-86h-424v73l247 280q75 85 75 145q0 49 -32 81t-80 32t-79.5 -32t-31.5 -81h-94q0 87 58.5 145.5t146.5 58.5t147 -58.5t59 -145.5q0 -53 -23 -96.5t-66 -92.5z" />
    <glyph glyph-name="three" unicode="3" horiz-adv-x="518" 
d="M363 358q48 -23 76.5 -68t28.5 -101q0 -86 -60.5 -143.5t-150.5 -57.5q-91 0 -151 57.5t-60 143.5h94q0 -48 33.5 -80.5t83.5 -32.5t83.5 32.5t33.5 80.5q0 54 -34 89t-87 35h-81v87h81q47 0 77.5 31.5t30.5 80.5q0 43 -30 72.5t-74 29.5q-45 0 -74.5 -29t-29.5 -73h-94
q0 81 56.5 135.5t141.5 54.5t141.5 -54.5t56.5 -135.5q0 -50 -25 -91t-67 -63z" />
    <glyph glyph-name="four" unicode="4" horiz-adv-x="563" 
d="M535 241v-86h-90v-155h-91v155h-321v68l313 467h99v-449h90zM138 241h216v327z" />
    <glyph glyph-name="five" unicode="5" horiz-adv-x="560" 
d="M299 438q95 0 158.5 -64t63.5 -161t-66 -161t-164 -64t-163.5 64t-65.5 161h94q0 -59 38.5 -98t96.5 -39t96.5 39t38.5 98t-38.5 98t-96.5 39q-35 0 -69 -17t-51 -43h-95l32 400h368v-86h-285l-17 -211q48 45 125 45z" />
    <glyph glyph-name="six" unicode="6" horiz-adv-x="541" 
d="M282 438q95 0 158.5 -64.5t63.5 -160.5t-66 -160.5t-164 -64.5t-164.5 64.5t-66.5 160.5q0 77 44 143l224 334h111l-172 -255q16 3 32 3zM274 76q58 0 97 39.5t39 97.5t-39 97.5t-97 39.5t-97.5 -39t-39.5 -98t39.5 -98t97.5 -39z" />
    <glyph glyph-name="seven" unicode="7" horiz-adv-x="526" 
d="M45 690h450v-71l-291 -619h-103l285 604h-341v86z" />
    <glyph glyph-name="eight" unicode="8" horiz-adv-x="536" 
d="M378 358q50 -25 79.5 -70.5t29.5 -100.5q0 -85 -62.5 -142t-156.5 -57t-156 57t-62 142q0 56 29 101t79 70q-43 24 -68.5 66t-25.5 92q0 79 58.5 132.5t145.5 53.5t145.5 -53.5t58.5 -132.5q0 -51 -25 -92.5t-69 -65.5zM268 614q-47 0 -78.5 -30.5t-31.5 -76.5t31.5 -77
t78.5 -31t78.5 31t31.5 77t-31.5 76.5t-78.5 30.5zM268 76q53 0 88.5 34t35.5 85t-35.5 85t-88.5 34t-88.5 -34t-35.5 -85t35.5 -85t88.5 -34z" />
    <glyph glyph-name="nine" unicode="9" horiz-adv-x="546" 
d="M272 702q98 0 164.5 -64.5t66.5 -160.5q0 -73 -44 -143l-219 -334h-108l167 255q-16 -3 -35 -3q-95 0 -158.5 64.5t-63.5 160.5t66 160.5t164 64.5zM272 340q58 0 97.5 39t39.5 98t-39.5 98t-97.5 39t-97 -39.5t-39 -97.5t39 -97.5t97 -39.5z" />
    <glyph glyph-name="colon" unicode=":" horiz-adv-x="245" 
d="M122 347q-27 0 -45.5 18.5t-18.5 45.5t18.5 45.5t45.5 18.5q28 0 46.5 -18.5t18.5 -45.5t-18.5 -45.5t-46.5 -18.5zM122 -7q-27 0 -45.5 18.5t-18.5 45.5t18.5 45.5t45.5 18.5q28 0 46.5 -18.5t18.5 -45.5t-18.5 -45.5t-46.5 -18.5z" />
    <glyph glyph-name="semicolon" unicode=";" horiz-adv-x="258" 
d="M137 347q-28 0 -46.5 18.5t-18.5 45.5t18.5 45.5t46.5 18.5t46 -18.5t18 -45.5t-18 -45.5t-46 -18.5zM19 -145l69 249h102l-96 -249h-75z" />
    <glyph glyph-name="less" unicode="&#x3c;" horiz-adv-x="464" 
d="M401 505v-86l-254 -123l254 -123v-86l-338 170v78z" />
    <glyph glyph-name="equal" unicode="=" horiz-adv-x="534" 
d="M63 344v78h408v-78h-408zM63 170v77h408v-77h-408z" />
    <glyph glyph-name="greater" unicode="&#x3e;" horiz-adv-x="464" 
d="M63 505l338 -170v-78l-338 -170v86l254 123l-254 123v86z" />
    <glyph glyph-name="question" unicode="?" horiz-adv-x="475" 
d="M187 197v32q0 38 14.5 70t29.5 49t42 40q33 29 50.5 55t17.5 61q0 47 -31 78.5t-78 31.5t-78 -31.5t-31 -78.5h-94q0 85 58 141.5t145 56.5q86 0 144 -56.5t58 -141.5q0 -38 -14.5 -71t-30.5 -50.5t-42 -40.5q-35 -30 -52.5 -54t-17.5 -59v-32h-90zM232 -7q-27 0 -45 18
t-18 44q0 27 18 45t45 18t44.5 -18t17.5 -45q0 -26 -17.5 -44t-44.5 -18z" />
    <glyph glyph-name="at" unicode="@" horiz-adv-x="845" 
d="M518 440h81v-239q0 -20 12.5 -33.5t32.5 -13.5q32 0 52.5 38t20.5 97q0 118 -84 197t-208 79q-128 0 -212.5 -84t-84.5 -211t84.5 -211.5t212.5 -84.5q111 0 186 60h112q-54 -61 -132.5 -96t-166.5 -35q-159 0 -265 105t-106 262q0 156 106.5 261t265.5 105
q155 0 260.5 -99.5t105.5 -248.5q0 -89 -39.5 -144t-108.5 -55q-41 0 -72 17.5t-45 48.5q-41 -68 -128 -68q-76 0 -126 52t-50 130t49.5 130.5t121.5 52.5q80 0 125 -62v50zM411 165q46 0 76.5 30t30.5 75q0 44 -31 74t-76 30t-75 -29.5t-30 -74.5q0 -46 30 -75.5t75 -29.5z
" />
    <glyph glyph-name="A" unicode="A" horiz-adv-x="713" 
d="M591 0l-67 167h-338l-67 -167h-98l281 690h109l281 -690h-101zM220 252h270l-135 339z" />
    <glyph glyph-name="B" unicode="B" horiz-adv-x="562" 
d="M403 366q58 -14 94 -64t36 -116q0 -80 -54.5 -133t-135.5 -53h-262v690h233q75 0 126 -49t51 -124q0 -49 -25 -90.5t-63 -60.5zM292 607h-122v-210h122q43 0 74 30.5t31 74.5q0 45 -30 75t-75 30zM322 83q50 0 83.5 34t33.5 84t-33.5 83.5t-83.5 33.5h-152v-235h152z" />
    <glyph glyph-name="C" unicode="C" horiz-adv-x="798" 
d="M406 -12q-154 0 -257.5 102.5t-103.5 254.5t103.5 254.5t257.5 102.5q129 0 225 -74.5t126 -192.5h-98q-27 81 -95 130t-158 49q-114 0 -190.5 -77t-76.5 -192t76.5 -192t190.5 -77q90 0 158 49t95 130h98q-30 -118 -126 -192.5t-225 -74.5z" />
    <glyph glyph-name="D" unicode="D" horiz-adv-x="741" 
d="M347 690q150 0 250 -98.5t100 -246.5t-100 -246.5t-250 -98.5h-266v690h266zM346 86q110 0 183.5 74t73.5 185t-73.5 185t-183.5 74h-173v-518h173z" />
    <glyph glyph-name="E" unicode="E" horiz-adv-x="513" 
d="M173 86h295v-86h-387v690h382v-86h-290v-214h257v-86h-257v-218z" />
    <glyph glyph-name="F" unicode="F" horiz-adv-x="485" 
d="M448 604h-275v-220h234v-86h-234v-298h-92v690h367v-86z" />
    <glyph glyph-name="G" unicode="G" horiz-adv-x="825" 
d="M419 367h344v-367h-80v138q-39 -71 -110.5 -110.5t-166.5 -39.5q-154 0 -257.5 102.5t-103.5 254.5t103.5 254.5t257.5 102.5q123 0 216.5 -66.5t123.5 -172.5h-101q-30 69 -94 110t-145 41q-114 0 -190.5 -77t-76.5 -192t76.5 -192t190.5 -77q99 0 171 58t89 150h-247
v83z" />
    <glyph glyph-name="H" unicode="H" horiz-adv-x="730" 
d="M557 690h92v-690h-92v304h-384v-304h-92v690h92v-300h384v300z" />
    <glyph glyph-name="I" unicode="I" horiz-adv-x="353" 
d="M315 604h-93v-518h93v-86h-277v86h93v518h-93v86h277v-86z" />
    <glyph glyph-name="J" unicode="J" horiz-adv-x="468" 
d="M296 690h91v-690h-357v86h266v604z" />
    <glyph glyph-name="K" unicode="K" horiz-adv-x="618" 
d="M497 0l-249 304h-75v-304h-92v690h92v-300h76l244 300h112l-279 -341l286 -349h-115z" />
    <glyph glyph-name="L" unicode="L" horiz-adv-x="468" 
d="M173 86h265v-86h-357v690h92v-604z" />
    <glyph glyph-name="M" unicode="M" horiz-adv-x="896" 
d="M696 690h118v-690h-91v539l-242 -539h-67l-241 539v-539h-92v690h121l247 -553z" />
    <glyph glyph-name="N" unicode="N" horiz-adv-x="739" 
d="M566 690h91v-690h-94l-390 537v-537h-92v690h95l390 -539v539z" />
    <glyph glyph-name="O" unicode="O" horiz-adv-x="812" 
d="M406 -12q-154 0 -257.5 102.5t-103.5 254.5t103.5 254.5t257.5 102.5t257.5 -102.5t103.5 -254.5t-103.5 -254.5t-257.5 -102.5zM406 76q114 0 190.5 77t76.5 192t-76.5 192t-190.5 77t-190.5 -77t-76.5 -192t76.5 -192t190.5 -77z" />
    <glyph glyph-name="P" unicode="P" horiz-adv-x="562" 
d="M309 690q95 0 158 -62t63 -155q0 -92 -63.5 -154t-157.5 -62h-136v-257h-92v690h228zM308 343q55 0 91.5 37t36.5 93t-36.5 93.5t-91.5 37.5h-135v-261h135z" />
    <glyph glyph-name="Q" unicode="Q" horiz-adv-x="812" 
d="M451 -9v-99h233v-82h-324v181q-137 16 -226 115t-89 239q0 152 103.5 254.5t257.5 102.5t257.5 -102.5t103.5 -254.5q0 -140 -89 -239.5t-227 -114.5zM139 345q0 -115 76.5 -192t190.5 -77t190.5 77t76.5 192t-76.5 192t-190.5 77t-190.5 -77t-76.5 -192z" />
    <glyph glyph-name="R" unicode="R" horiz-adv-x="565" 
d="M423 0l-175 274h-75v-274h-92v690h224q92 0 153.5 -60t61.5 -150q0 -77 -47 -132.5t-121 -69.5l182 -278h-111zM173 604v-250h130q53 0 88 35.5t35 89.5t-35 89.5t-88 35.5h-130z" />
    <glyph glyph-name="S" unicode="S" horiz-adv-x="532" 
d="M266 -12q-95 0 -159.5 59.5t-64.5 147.5h93q0 -53 38.5 -89t94.5 -36q55 0 91.5 31.5t36.5 78.5q0 93 -151 130q-192 47 -192 202q0 81 61 135.5t152 54.5t152 -56.5t61 -141.5h-93q0 50 -34.5 83t-86.5 33q-50 0 -84 -30t-34 -74q0 -89 141 -125q202 -50 202 -205
q0 -85 -64 -141.5t-160 -56.5z" />
    <glyph glyph-name="T" unicode="T" horiz-adv-x="546" 
d="M517 690v-86h-198v-604h-92v604h-198v86h488z" />
    <glyph glyph-name="U" unicode="U" horiz-adv-x="693" 
d="M346 -12q-119 0 -199.5 79t-80.5 197v426h91v-424q0 -81 54 -135.5t135 -54.5q82 0 136 54.5t54 135.5v424h91v-426q0 -118 -80.5 -197t-200.5 -79z" />
    <glyph glyph-name="V" unicode="V" horiz-adv-x="707" 
d="M586 690h100l-285 -690h-96l-284 690h102l232 -571z" />
    <glyph glyph-name="W" unicode="W" horiz-adv-x="1124" 
d="M1000 690h99l-248 -690h-94l-195 557l-195 -557h-94l-248 690h101l196 -570l199 570h84l199 -570z" />
    <glyph glyph-name="X" unicode="X" horiz-adv-x="714" 
d="M689 0h-114l-219 285l-219 -285h-112l269 347l-265 343h113l216 -283l214 283h113l-265 -343z" />
    <glyph glyph-name="Y" unicode="Y" horiz-adv-x="677" 
d="M564 690h102l-282 -435v-255h-91v255l-282 435h104l225 -345z" />
    <glyph glyph-name="Z" unicode="Z" horiz-adv-x="614" 
d="M166 86h407v-86h-532v66l400 538h-396v86h521v-66z" />
    <glyph glyph-name="bracketleft" unicode="[" horiz-adv-x="332" 
d="M302 669h-127v-778h127v-81h-216v940h216v-81z" />
    <glyph glyph-name="backslash" unicode="\" horiz-adv-x="510" 
d="M411 -150l-400 900h87l400 -900h-87z" />
    <glyph glyph-name="bracketright" unicode="]" horiz-adv-x="332" 
d="M30 750h216v-940h-216v81h127v778h-127v81z" />
    <glyph glyph-name="asciicircum" unicode="^" horiz-adv-x="413" 
d="M371 449h-80l-85 170l-85 -170h-79l124 241h81z" />
    <glyph glyph-name="underscore" unicode="_" horiz-adv-x="518" 
d="M38 -153v73h441v-73h-441z" />
    <glyph glyph-name="grave" unicode="`" horiz-adv-x="214" 
d="M123 577l-123 129h111l103 -129h-91z" />
    <glyph glyph-name="a" unicode="a" horiz-adv-x="538" 
d="M458 78h67v-78h-144v66q-24 -36 -66.5 -57t-94.5 -21q-79 0 -131.5 48.5t-52.5 121.5q0 72 52.5 120.5t131.5 48.5h152v100h-302v83h388v-432zM231 66q63 0 102 28t39 73v82h-141q-46 0 -76 -26t-30 -65q0 -40 30 -66t76 -26z" />
    <glyph glyph-name="b" unicode="b" horiz-adv-x="654" 
d="M357 522q109 0 182.5 -76.5t73.5 -190.5t-73.5 -190.5t-182.5 -76.5q-63 0 -114.5 29t-83.5 80v-97h-86v720h86v-307q32 51 83.5 80t114.5 29zM341 71q79 0 131 52.5t52 131.5t-52 131.5t-131 52.5q-78 0 -130 -52.5t-52 -131.5t52 -131.5t130 -52.5z" />
    <glyph glyph-name="c" unicode="c" horiz-adv-x="612" 
d="M312 -12q-116 0 -194 76.5t-78 190.5t78 190.5t194 76.5q97 0 170 -56.5t93 -145.5h-91q-20 53 -66 86t-106 33q-79 0 -131 -52.5t-52 -131.5t52 -131.5t131 -52.5q60 0 106 33t66 86h91q-20 -89 -93 -145.5t-170 -56.5z" />
    <glyph glyph-name="d" unicode="d" horiz-adv-x="654" 
d="M495 720h86v-720h-86v97q-32 -51 -83.5 -80t-114.5 -29q-109 0 -182 76.5t-73 190.5t73 190.5t182 76.5q63 0 114.5 -29t83.5 -80v307zM313 71q78 0 130 52.5t52 131.5t-52 131.5t-130 52.5q-79 0 -131 -52.5t-52 -131.5t52 -131.5t131 -52.5z" />
    <glyph glyph-name="e" unicode="e" horiz-adv-x="619" 
d="M582 255q0 -16 -2 -36h-448q11 -68 60.5 -110t118.5 -42q57 0 101.5 26.5t64.5 69.5h95q-28 -79 -98 -127t-163 -48q-116 0 -193.5 76.5t-77.5 190.5t77.5 190.5t193.5 76.5t193.5 -76.5t77.5 -190.5zM311 443q-68 0 -116.5 -40.5t-61.5 -106.5h357q-12 65 -61.5 106
t-117.5 41z" />
    <glyph glyph-name="f" unicode="f" horiz-adv-x="373" 
d="M355 641h-142v-131h142v-78h-142v-432h-86v432h-93v78h93v210h228v-79z" />
    <glyph glyph-name="g" unicode="g" horiz-adv-x="655" 
d="M496 510h86v-700h-490v79h404v216q-32 -50 -83.5 -78.5t-115.5 -28.5q-109 0 -182 74.5t-73 187.5q0 112 73 187t182 75q63 0 115 -29t84 -79v96zM314 76q78 0 130 52.5t52 131.5q0 78 -52 130.5t-130 52.5q-79 0 -131 -52.5t-52 -130.5q0 -79 52 -131.5t131 -52.5z" />
    <glyph glyph-name="h" unicode="h" horiz-adv-x="616" 
d="M343 522q93 0 150 -56.5t57 -150.5v-315h-86v288q0 68 -40.5 109.5t-108.5 41.5q-70 0 -113 -42t-43 -111v-286h-86v720h86v-295q61 97 184 97z" />
    <glyph glyph-name="i" unicode="i" horiz-adv-x="231" 
d="M116 612q-25 0 -41.5 16.5t-16.5 40.5q0 25 16.5 41t41.5 16q24 0 40.5 -16t16.5 -41q0 -24 -16.5 -40.5t-40.5 -16.5zM73 0v510h86v-510h-86z" />
    <glyph glyph-name="j" unicode="j" horiz-adv-x="237" 
d="M121 612q-24 0 -40.5 16.5t-16.5 40.5q0 25 16.5 41t40.5 16q25 0 41.5 -16t16.5 -41q0 -24 -16.5 -40.5t-41.5 -16.5zM78 -123v633h86v-712h-184v79h98z" />
    <glyph glyph-name="k" unicode="k" horiz-adv-x="517" 
d="M397 0l-171 217h-67v-217h-86v720h86v-423h67l166 213h104l-201 -253l208 -257h-106z" />
    <glyph glyph-name="l" unicode="l" horiz-adv-x="269" 
d="M159 79h94v-79h-180v720h86v-641z" />
    <glyph glyph-name="m" unicode="m" horiz-adv-x="940" 
d="M684 522q86 0 138.5 -52.5t52.5 -140.5v-329h-86v305q0 61 -36 97.5t-96 36.5q-63 0 -101.5 -37.5t-38.5 -98.5v-303h-86v305q0 61 -36 97.5t-96 36.5q-63 0 -101.5 -37.5t-38.5 -98.5v-303h-86v510h86v-73q56 85 167 85q61 0 106.5 -28t67.5 -78q56 106 184 106z" />
    <glyph glyph-name="n" unicode="n" horiz-adv-x="616" 
d="M343 522q93 0 150 -56.5t57 -150.5v-315h-86v288q0 68 -40.5 109.5t-108.5 41.5q-70 0 -113 -42t-43 -111v-286h-86v510h86v-82q61 94 184 94z" />
    <glyph glyph-name="o" unicode="o" horiz-adv-x="623" 
d="M312 -12q-116 0 -194 76.5t-78 190.5t78 190.5t194 76.5t193.5 -76.5t77.5 -190.5t-77.5 -190.5t-193.5 -76.5zM312 71q78 0 130 52.5t52 131.5t-52 131.5t-130 52.5q-79 0 -131 -52.5t-52 -131.5t52 -131.5t131 -52.5z" />
    <glyph glyph-name="p" unicode="p" horiz-adv-x="654" 
d="M357 522q109 0 182.5 -76.5t73.5 -190.5t-73.5 -190.5t-182.5 -76.5q-63 0 -114.5 29t-83.5 80v-287h-86v700h86v-97q32 51 83.5 80t114.5 29zM341 71q79 0 131 52.5t52 131.5t-52 131.5t-131 52.5q-78 0 -130 -52.5t-52 -131.5t52 -131.5t130 -52.5z" />
    <glyph glyph-name="q" unicode="q" horiz-adv-x="654" 
d="M495 510h86v-700h-86v287q-32 -51 -83.5 -80t-114.5 -29q-109 0 -182 76.5t-73 190.5t73 190.5t182 76.5q63 0 114.5 -29t83.5 -80v97zM313 71q78 0 130 52.5t52 131.5t-52 131.5t-130 52.5q-79 0 -131 -52.5t-52 -131.5t52 -131.5t131 -52.5z" />
    <glyph glyph-name="r" unicode="r" horiz-adv-x="355" 
d="M159 418q59 100 167 100v-89q-78 0 -122.5 -47t-44.5 -126v-256h-86v510h86v-92z" />
    <glyph glyph-name="s" unicode="s" horiz-adv-x="422" 
d="M211 -12q-74 0 -123 45.5t-49 111.5h89q0 -33 24.5 -56t59.5 -23q34 0 57.5 19.5t23.5 48.5q0 62 -100 87q-68 18 -107.5 53.5t-39.5 100.5q0 66 47.5 106.5t117.5 40.5t117.5 -44t47.5 -107h-89q0 30 -22 51.5t-55 21.5q-31 0 -53 -19t-22 -45q0 -61 100 -85
q148 -39 148 -153q0 -69 -49 -111.5t-123 -42.5z" />
    <glyph glyph-name="t" unicode="t" horiz-adv-x="397" 
d="M360 432h-143v-353h143v-79h-229v432h-99v78h99v150h86v-150h143v-78z" />
    <glyph glyph-name="u" unicode="u" horiz-adv-x="600" 
d="M441 510h86v-510h-86v80q-59 -92 -176 -92q-89 0 -144 55t-55 146v321h86v-296q0 -65 38 -104t102 -39q67 0 108 40t41 105v294z" />
    <glyph glyph-name="v" unicode="v" horiz-adv-x="568" 
d="M457 510h96l-224 -510h-90l-224 510h98l172 -407z" />
    <glyph glyph-name="w" unicode="w" horiz-adv-x="903" 
d="M790 510h95l-194 -510h-90l-149 411l-149 -411h-90l-194 510h97l144 -408l149 408h89l148 -405z" />
    <glyph glyph-name="x" unicode="x" horiz-adv-x="568" 
d="M540 0h-106l-151 199l-150 -199h-105l197 256l-194 254h105l148 -196l148 196h105l-194 -254z" />
    <glyph glyph-name="y" unicode="y" horiz-adv-x="568" 
d="M457 510h96l-307 -700h-163v79h103l51 113l-222 508h98l172 -407z" />
    <glyph glyph-name="z" unicode="z" horiz-adv-x="500" 
d="M164 83h292v-83h-412v62l285 365h-281v83h401v-62z" />
    <glyph glyph-name="braceleft" unicode="{" horiz-adv-x="401" 
d="M248 356q0 -25 -14.5 -45.5t-38.5 -29.5q53 -22 53 -76v-249q0 -28 17.5 -46.5t45.5 -18.5h60v-81h-92q-53 0 -86.5 34t-33.5 87v253q0 25 -15 40.5t-39 15.5h-39v81h39q24 0 39 15.5t15 40.5v252q0 53 33.5 87t86.5 34h92v-81h-60q-28 0 -45.5 -18.5t-17.5 -46.5v-248z
" />
    <glyph glyph-name="bar" unicode="|" horiz-adv-x="282" 
d="M101 -190v940h79v-940h-79z" />
    <glyph glyph-name="braceright" unicode="}" horiz-adv-x="401" 
d="M296 321h39v-81h-39q-24 0 -39 -15.5t-15 -40.5v-253q0 -53 -33.5 -87t-86.5 -34h-92v81h61q27 0 45 18.5t18 46.5v249q0 54 53 76q-24 9 -38.5 29.5t-14.5 45.5v248q0 28 -18 46.5t-45 18.5h-61v81h92q53 0 86.5 -34t33.5 -87v-252q0 -25 15 -40.5t39 -15.5z" />
    <glyph glyph-name="asciitilde" unicode="~" horiz-adv-x="553" 
d="M364 222q-33 0 -62 17t-53.5 34.5t-45.5 17.5q-26 0 -43.5 -17.5t-17.5 -43.5h-79q0 65 32.5 105.5t93.5 40.5q26 0 50.5 -11t40 -23.5t35 -23.5t36.5 -11q26 0 43 17.5t17 43.5h79q0 -65 -32.5 -105.5t-93.5 -40.5z" />
    <glyph glyph-name="exclamdown" unicode="&#xa1;" horiz-adv-x="253" 
d="M127 392q-27 0 -45 18t-18 45q0 26 18 44t45 18q26 0 44 -18t18 -44q0 -27 -18 -45t-44 -18zM81 -180v170l6 327h80l5 -327v-170h-91z" />
    <glyph glyph-name="cent" unicode="&#xa2;" horiz-adv-x="637" 
d="M352 164q54 8 93 44t53 90h90q-14 -89 -79 -149t-157 -70v-79h-57v78q-107 9 -177 84t-70 182q0 108 70 183t177 84v79h57v-80q92 -10 157 -69.5t79 -148.5h-90q-14 53 -53 89t-93 45v-362zM138 344q0 -71 44.5 -122t112.5 -59v364q-68 -8 -112.5 -59.5t-44.5 -123.5z
" />
    <glyph glyph-name="sterling" unicode="&#xa3;" horiz-adv-x="579" 
d="M206 86h336v-86h-493v86h65v200h-65v79h65v132q0 88 60 146.5t149 58.5t149 -58.5t60 -146.5h-92q0 50 -33.5 83.5t-83.5 33.5t-83.5 -33.5t-33.5 -83.5v-132h212v-79h-212v-200z" />
    <glyph glyph-name="currency" unicode="&#xa4;" horiz-adv-x="536" 
d="M459 345q0 -58 -32 -104l62 -62l-53 -53l-64 64q-45 -28 -103 -28t-103 28l-65 -64l-54 53l63 63q-31 45 -31 103t32 104l-63 64l52 53l66 -65q45 28 103 28q55 0 103 -27l64 64l53 -54l-62 -62q32 -46 32 -105zM269 230q49 0 82 33t33 82q0 50 -33 83.5t-82 33.5
q-50 0 -83 -33.5t-33 -83.5q0 -49 33 -82t83 -33z" />
    <glyph glyph-name="yen" unicode="&#xa5;" horiz-adv-x="641" 
d="M617 690l-217 -376h105v-70h-139v-58h139v-71h-139v-115h-91v115h-139v71h139v58h-139v70h105l-217 376h103l195 -344l195 344h100z" />
    <glyph glyph-name="brokenbar" unicode="&#xa6;" horiz-adv-x="282" 
d="M101 340v410h79v-410h-79zM101 -190v410h79v-410h-79z" />
    <glyph glyph-name="section" unicode="&#xa7;" horiz-adv-x="507" 
d="M357 181q78 -44 78 -125q0 -69 -52 -110.5t-129 -41.5q-78 0 -130 45t-52 112h85q0 -39 28.5 -65t69.5 -26q40 0 67 23t27 58q0 68 -118 97q-157 37 -157 157q0 41 21 74t56 51q-74 43 -74 123q0 67 51 108t125 41q76 0 127 -44.5t51 -109.5h-85q0 37 -27 62.5t-66 25.5
t-65 -22.5t-26 -55.5q0 -69 115 -95q161 -36 161 -156q0 -41 -22 -74.5t-59 -51.5zM159 312q0 -69 98 -94q41 1 68 24.5t27 57.5q0 70 -102 94q-40 -1 -65.5 -24.5t-25.5 -57.5z" />
    <glyph glyph-name="dieresis" unicode="&#xa8;" horiz-adv-x="314" 
d="M53 582q-23 0 -38 15t-15 38t15 38t38 15t38.5 -15.5t15.5 -37.5t-15.5 -37.5t-38.5 -15.5zM260 582q-22 0 -37.5 15t-15.5 38t15.5 38t37.5 15q23 0 38.5 -15.5t15.5 -37.5t-15.5 -37.5t-38.5 -15.5z" />
    <glyph glyph-name="copyright" unicode="&#xa9;" horiz-adv-x="824" 
d="M412 -12q-152 0 -254.5 102.5t-102.5 254.5t102.5 254.5t254.5 102.5t254.5 -102.5t102.5 -254.5t-102.5 -254.5t-254.5 -102.5zM412 48q125 0 209.5 85t84.5 212t-84.5 212t-209.5 85t-210 -85t-85 -212t85 -212t210 -85zM414 146q-85 0 -142.5 57t-57.5 142t57.5 142
t142.5 57q75 0 129 -44t66 -113h-71q-11 40 -44.5 65t-79.5 25q-56 0 -93.5 -38t-37.5 -94t37.5 -94t93.5 -38q45 0 79 25t45 65h71q-12 -69 -66 -113t-129 -44z" />
    <glyph glyph-name="ordfeminine" unicode="&#xaa;" horiz-adv-x="384" 
d="M278 691h64v-272h-64v44q-39 -52 -100 -52q-58 0 -97 41.5t-39 102.5t39 102.5t97 41.5q61 0 100 -52v44zM193 469q36 0 60.5 24.5t24.5 61.5t-24.5 61.5t-60.5 24.5t-60.5 -24.5t-24.5 -61.5t24.5 -61.5t60.5 -24.5z" />
    <glyph glyph-name="guillemotleft" unicode="&#xab;" horiz-adv-x="603" 
d="M311 467l-167 -203l167 -203h-102l-166 203l166 203h102zM556 467l-166 -203l166 -203h-102l-166 203l166 203h102z" />
    <glyph glyph-name="registered" unicode="&#xae;" horiz-adv-x="447" 
d="M224 702q77 0 129 -52t52 -130q0 -77 -52 -129t-129 -52q-78 0 -130 52t-52 129q0 78 52 130t130 52zM224 373q62 0 103.5 42t41.5 105t-41.5 105.5t-103.5 42.5t-104 -42.5t-42 -105.5t42 -105t104 -42zM294 563q0 -41 -37 -56l43 -75h-38l-37 71h-20v-71h-33v191h62
q26 0 43 -17.5t17 -42.5zM205 594v-61h27q13 0 21.5 8.5t8.5 21.5t-8.5 22t-21.5 9h-27z" />
    <glyph glyph-name="macron" unicode="&#xaf;" horiz-adv-x="237" 
d="M0 592v73h237v-73h-237z" />
    <glyph glyph-name="degree" unicode="&#xb0;" horiz-adv-x="387" 
d="M194 412q-63 0 -105 41.5t-42 104.5q0 62 42 103t105 41q62 0 104 -41.5t42 -102.5q0 -63 -42 -104.5t-104 -41.5zM194 481q32 0 54 22t22 55q0 32 -22 54t-54 22q-33 0 -54.5 -22t-21.5 -54q0 -33 21.5 -55t54.5 -22z" />
    <glyph glyph-name="plusminus" unicode="&#xb1;" horiz-adv-x="534" 
d="M307 401h164v-77h-164v-124h-80v124h-164v77h164v124h80v-124zM63 56v78h408v-78h-408z" />
    <glyph glyph-name="uni00B2" unicode="&#xb2;" horiz-adv-x="339" 
d="M131 426h174v-60h-272v50l156 163q45 47 45 80q0 28 -19 47.5t-47 19.5t-46.5 -19t-18.5 -48h-67q0 55 38.5 91.5t95.5 36.5q56 0 93.5 -36.5t37.5 -91.5t-54 -111z" />
    <glyph glyph-name="uni00B3" unicode="&#xb3;" horiz-adv-x="330" 
d="M243 581q58 -31 58 -97q0 -52 -39 -88.5t-97 -36.5t-97.5 36.5t-39.5 91.5h67q0 -28 20.5 -47.5t49.5 -19.5q30 0 50 19t20 48t-20 49t-50 20h-57v48h57q26 0 44 18.5t18 45.5q0 25 -18 42t-44 17t-44 -17t-18 -42h-68q0 50 37.5 84.5t92.5 34.5t92 -34t37 -82
q0 -59 -51 -90z" />
    <glyph glyph-name="acute" unicode="&#xb4;" horiz-adv-x="214" 
d="M0 577l104 129h110l-122 -129h-92z" />
    <glyph glyph-name="paragraph" unicode="&#xb6;" horiz-adv-x="602" 
d="M526 690v-880h-74v806h-84v-806h-75v473h-57q-86 0 -144.5 58.5t-58.5 144.5q0 87 58.5 145.5t144.5 58.5h290z" />
    <glyph glyph-name="periodcentered" unicode="&#xb7;" horiz-adv-x="255" 
d="M128 210q-28 0 -46.5 18.5t-18.5 45.5t18.5 45.5t46.5 18.5q27 0 45.5 -18.5t18.5 -45.5t-18.5 -45.5t-45.5 -18.5z" />
    <glyph glyph-name="cedilla" unicode="&#xb8;" horiz-adv-x="206" 
d="M114 -34q40 0 66 -27t26 -68t-29.5 -69t-73.5 -28t-73.5 28t-29.5 69h54q0 -20 14.5 -34t34.5 -14t34.5 14t14.5 34q0 21 -14.5 35t-34.5 14q-22 0 -34 -14l-50 22l56 72v2h62v-2l-28 -34h5z" />
    <glyph glyph-name="uni00B9" unicode="&#xb9;" horiz-adv-x="302" 
d="M193 426h81v-60h-235v60h89v276l-89 -40v69l108 49h46v-354z" />
    <glyph glyph-name="ordmasculine" unicode="&#xba;" horiz-adv-x="386" 
d="M193 411q-64 0 -107.5 41t-43.5 103t43.5 103t107.5 41t107.5 -41.5t43.5 -102.5t-43.5 -102.5t-107.5 -41.5zM193 469q36 0 60.5 24.5t24.5 61.5t-24.5 61.5t-60.5 24.5t-60.5 -24.5t-24.5 -61.5t24.5 -61.5t60.5 -24.5z" />
    <glyph glyph-name="guillemotright" unicode="&#xbb;" horiz-adv-x="603" 
d="M152 467l166 -203l-166 -203h-102l166 203l-166 203h102zM397 467l166 -203l-166 -203h-102l167 203l-167 203h102z" />
    <glyph glyph-name="onequarter" unicode="&#xbc;" horiz-adv-x="831" 
d="M274 336v-60h-235v60h89v276l-89 -40v69l108 49h46v-354h81zM644 690h81l-483 -690h-81zM810 148v-60h-52v-88h-66v88h-195v48l181 278h80v-266h52zM568 148h124v193z" />
    <glyph glyph-name="onehalf" unicode="&#xbd;" horiz-adv-x="878" 
d="M274 336v-60h-235v60h89v276l-89 -40v69l108 49h46v-354h81zM644 690h81l-483 -690h-81zM670 60h174v-60h-272v50l156 163q45 47 45 80q0 28 -19 47.5t-47 19.5t-46.5 -19t-18.5 -48h-67q0 55 38.5 91.5t95.5 36.5q56 0 93.5 -36.5t37.5 -91.5t-54 -111z" />
    <glyph glyph-name="threequarters" unicode="&#xbe;" horiz-adv-x="819" 
d="M301 394q0 -52 -39 -88.5t-97 -36.5t-97.5 36.5t-39.5 91.5h67q0 -28 20.5 -47.5t49.5 -19.5q30 0 50 19t20 48t-20 49t-50 20h-57v48h57q26 0 44 18.5t18 45.5q0 25 -18 42t-44 17t-44 -17t-18 -42h-68q0 50 37.5 84.5t92.5 34.5t92 -34t37 -82q0 -59 -51 -90
q58 -31 58 -97zM632 690h81l-483 -690h-81zM798 148v-60h-52v-88h-66v88h-195v48l181 278h80v-266h52zM556 148h124v193z" />
    <glyph glyph-name="questiondown" unicode="&#xbf;" horiz-adv-x="460" 
d="M240 392q-26 0 -44 18t-18 45q0 26 18 44t44 18q27 0 45 -18t18 -44q0 -27 -18 -45t-45 -18zM240 -192q-86 0 -144 56.5t-58 141.5q0 54 23.5 90.5t64.5 71.5q23 20 35.5 33t23 34.5t10.5 45.5v32h91v-32q0 -38 -14.5 -70t-30 -49t-42.5 -40q-33 -29 -50.5 -55t-17.5 -61
q0 -47 31 -78.5t78 -31.5t78 31.5t31 78.5h94q0 -85 -58 -141.5t-145 -56.5z" />
    <glyph glyph-name="Agrave" unicode="&#xc0;" horiz-adv-x="713" 
d="M408 757h-91l-123 129h111zM591 0l-67 167h-338l-67 -167h-98l281 690h109l281 -690h-101zM220 252h270l-135 339z" />
    <glyph glyph-name="Aacute" unicode="&#xc1;" horiz-adv-x="713" 
d="M517 886l-122 -129h-92l104 129h110zM591 0l-67 167h-338l-67 -167h-98l281 690h109l281 -690h-101zM220 252h270l-135 339z" />
    <glyph glyph-name="Acircumflex" unicode="&#xc2;" horiz-adv-x="713" 
d="M356 840l-71 -83h-82l100 129h105l101 -129h-82zM591 0l-67 167h-338l-67 -167h-98l281 690h109l281 -690h-101zM220 252h270l-135 339z" />
    <glyph glyph-name="Atilde" unicode="&#xc3;" horiz-adv-x="713" 
d="M298 818q-21 0 -35 -14.5t-14 -35.5h-62q0 51 27.5 84.5t73.5 33.5q33 0 69.5 -27t56.5 -27q21 0 35 14t14 36h63q0 -52 -27.5 -85.5t-74.5 -33.5q-33 0 -69.5 27.5t-56.5 27.5zM591 0l-67 167h-338l-67 -167h-98l281 690h109l281 -690h-101zM220 252h270l-135 339z" />
    <glyph glyph-name="Adieresis" unicode="&#xc4;" horiz-adv-x="713" 
d="M252 762q-22 0 -37.5 15t-15.5 38t15.5 38t37.5 15q23 0 38.5 -15.5t15.5 -37.5t-15.5 -37.5t-38.5 -15.5zM459 762q-23 0 -38 15t-15 38t15 38t38 15t38.5 -15.5t15.5 -37.5t-15.5 -37.5t-38.5 -15.5zM591 0l-67 167h-338l-67 -167h-98l281 690h109l281 -690h-101z
M220 252h270l-135 339z" />
    <glyph glyph-name="Aring" unicode="&#xc5;" horiz-adv-x="713" 
d="M356 743q-37 0 -62 24.5t-25 61.5q0 36 25 60.5t62 24.5t62 -24.5t25 -60.5q0 -37 -25 -61.5t-62 -24.5zM356 869q-17 0 -28 -11.5t-11 -28.5q0 -18 11 -29.5t28 -11.5t28 11.5t11 29.5q0 17 -11 28.5t-28 11.5zM591 0l-67 167h-338l-67 -167h-98l281 690h109l281 -690
h-101zM220 252h270l-135 339z" />
    <glyph glyph-name="AE" unicode="&#xc6;" horiz-adv-x="872" 
d="M531 86h296v-86h-387v166h-260l-100 -166h-105l419 690h428v-86h-291v-214h258v-86h-258v-218zM231 250h209v346z" />
    <glyph glyph-name="Ccedilla" unicode="&#xc7;" horiz-adv-x="798" 
d="M406 76q90 0 158 49t95 130h98q-28 -111 -115.5 -184t-206.5 -82l-20 -24h5q40 0 66 -27t26 -68t-29.5 -69t-73.5 -28t-73.5 28t-29.5 69h54q0 -20 14.5 -34t34.5 -14t34.5 14t14.5 34q0 21 -14.5 35t-34.5 14q-22 0 -34 -14l-50 22l48 62q-142 12 -235 112.5t-93 243.5
q0 152 103.5 254.5t257.5 102.5q129 0 225 -74.5t126 -192.5h-98q-27 81 -95 130t-158 49q-114 0 -190.5 -77t-76.5 -192t76.5 -192t190.5 -77z" />
    <glyph glyph-name="Egrave" unicode="&#xc8;" horiz-adv-x="513" 
d="M324 757h-91l-123 129h111zM173 86h295v-86h-387v690h382v-86h-290v-214h257v-86h-257v-218z" />
    <glyph glyph-name="Eacute" unicode="&#xc9;" horiz-adv-x="513" 
d="M433 886l-122 -129h-92l104 129h110zM173 86h295v-86h-387v690h382v-86h-290v-214h257v-86h-257v-218z" />
    <glyph glyph-name="Ecircumflex" unicode="&#xca;" horiz-adv-x="513" 
d="M272 840l-71 -83h-82l100 129h105l101 -129h-82zM173 86h295v-86h-387v690h382v-86h-290v-214h257v-86h-257v-218z" />
    <glyph glyph-name="Edieresis" unicode="&#xcb;" horiz-adv-x="513" 
d="M168 762q-22 0 -37.5 15t-15.5 38t15.5 38t37.5 15q23 0 38.5 -15.5t15.5 -37.5t-15.5 -37.5t-38.5 -15.5zM375 762q-23 0 -38 15t-15 38t15 38t38 15t38.5 -15.5t15.5 -37.5t-15.5 -37.5t-38.5 -15.5zM173 86h295v-86h-387v690h382v-86h-290v-214h257v-86h-257v-218z
" />
    <glyph glyph-name="Igrave" unicode="&#xcc;" horiz-adv-x="353" 
d="M229 757h-91l-123 129h111zM315 604h-93v-518h93v-86h-277v86h93v518h-93v86h277v-86z" />
    <glyph glyph-name="Iacute" unicode="&#xcd;" horiz-adv-x="353" 
d="M338 886l-122 -129h-92l104 129h110zM38 604v86h277v-86h-93v-518h93v-86h-277v86h93v518h-93z" />
    <glyph glyph-name="Icircumflex" unicode="&#xce;" horiz-adv-x="353" 
d="M177 840l-71 -83h-82l100 129h105l101 -129h-82zM38 604v86h277v-86h-93v-518h93v-86h-277v86h93v518h-93z" />
    <glyph glyph-name="Idieresis" unicode="&#xcf;" horiz-adv-x="353" 
d="M127 815q0 -22 -15.5 -37.5t-38.5 -15.5t-38 15t-15 38t15 38t38 15t38.5 -15.5t15.5 -37.5zM280 868q23 0 38.5 -15.5t15.5 -37.5t-15.5 -37.5t-38.5 -15.5q-22 0 -37.5 15t-15.5 38t15.5 38t37.5 15zM38 604v86h277v-86h-93v-518h93v-86h-277v86h93v518h-93z" />
    <glyph glyph-name="Eth" unicode="&#xd0;" horiz-adv-x="741" 
d="M347 690q150 0 250 -98.5t100 -246.5t-100 -246.5t-250 -98.5h-266v314h-70v63h70v313h266zM346 86q110 0 183.5 74t73.5 185t-73.5 185t-183.5 74h-173v-227h128v-63h-128v-228h173z" />
    <glyph glyph-name="Ntilde" unicode="&#xd1;" horiz-adv-x="739" 
d="M313 818q-21 0 -35 -14.5t-14 -35.5h-62q0 51 27.5 84.5t73.5 33.5q33 0 69.5 -27t56.5 -27q21 0 35 14t14 36h63q0 -52 -27.5 -85.5t-74.5 -33.5q-33 0 -69.5 27.5t-56.5 27.5zM566 690h91v-690h-94l-390 537v-537h-92v690h95l390 -539v539z" />
    <glyph glyph-name="Ograve" unicode="&#xd2;" horiz-adv-x="812" 
d="M368 757l-123 129h111l103 -129h-91zM406 -12q-154 0 -257.5 102.5t-103.5 254.5t103.5 254.5t257.5 102.5t257.5 -102.5t103.5 -254.5t-103.5 -254.5t-257.5 -102.5zM406 76q114 0 190.5 77t76.5 192t-76.5 192t-190.5 77t-190.5 -77t-76.5 -192t76.5 -192t190.5 -77z
" />
    <glyph glyph-name="Oacute" unicode="&#xd3;" horiz-adv-x="812" 
d="M353 757l104 129h110l-122 -129h-92zM406 -12q-154 0 -257.5 102.5t-103.5 254.5t103.5 254.5t257.5 102.5t257.5 -102.5t103.5 -254.5t-103.5 -254.5t-257.5 -102.5zM406 76q114 0 190.5 77t76.5 192t-76.5 192t-190.5 77t-190.5 -77t-76.5 -192t76.5 -192t190.5 -77z
" />
    <glyph glyph-name="Ocircumflex" unicode="&#xd4;" horiz-adv-x="812" 
d="M406 840l-71 -83h-82l100 129h105l101 -129h-82zM406 702q154 0 257.5 -102.5t103.5 -254.5t-103.5 -254.5t-257.5 -102.5t-257.5 102.5t-103.5 254.5t103.5 254.5t257.5 102.5zM406 76q114 0 190.5 77t76.5 192t-76.5 192t-190.5 77t-190.5 -77t-76.5 -192t76.5 -192
t190.5 -77z" />
    <glyph glyph-name="Otilde" unicode="&#xd5;" horiz-adv-x="812" 
d="M474 763q-33 0 -69.5 27.5t-56.5 27.5q-21 0 -35 -14.5t-14 -35.5h-62q0 51 27.5 84.5t73.5 33.5q33 0 69.5 -27t56.5 -27q21 0 35 14t14 36h63q0 -52 -27.5 -85.5t-74.5 -33.5zM406 -12q-154 0 -257.5 102.5t-103.5 254.5t103.5 254.5t257.5 102.5t257.5 -102.5
t103.5 -254.5t-103.5 -254.5t-257.5 -102.5zM406 76q114 0 190.5 77t76.5 192t-76.5 192t-190.5 77t-190.5 -77t-76.5 -192t76.5 -192t190.5 -77z" />
    <glyph glyph-name="Odieresis" unicode="&#xd6;" horiz-adv-x="812" 
d="M302 762q-22 0 -37.5 15t-15.5 38t15.5 38t37.5 15q23 0 38.5 -15.5t15.5 -37.5t-15.5 -37.5t-38.5 -15.5zM509 762q-23 0 -38 15t-15 38t15 38t38 15t38.5 -15.5t15.5 -37.5t-15.5 -37.5t-38.5 -15.5zM406 -12q-154 0 -257.5 102.5t-103.5 254.5t103.5 254.5
t257.5 102.5t257.5 -102.5t103.5 -254.5t-103.5 -254.5t-257.5 -102.5zM406 76q114 0 190.5 77t76.5 192t-76.5 192t-190.5 77t-190.5 -77t-76.5 -192t76.5 -192t190.5 -77z" />
    <glyph glyph-name="multiply" unicode="&#xd7;" horiz-adv-x="472" 
d="M408 411l-116 -116l116 -116l-57 -56l-115 116l-116 -116l-57 56l116 116l-116 116l57 56l116 -115l115 115z" />
    <glyph glyph-name="Oslash" unicode="&#xd8;" horiz-adv-x="812" 
d="M666 597q101 -103 101 -252q0 -152 -103.5 -254.5t-257.5 -102.5q-123 0 -215 67l-48 -55h-79l82 93q-101 103 -101 252q0 152 103.5 254.5t257.5 102.5q123 0 215 -67l48 55h79zM139 345q0 -108 68 -182l354 404q-67 47 -155 47q-114 0 -190.5 -77t-76.5 -192zM406 76
q114 0 190.5 77t76.5 192q0 108 -68 182l-354 -404q67 -47 155 -47z" />
    <glyph glyph-name="Ugrave" unicode="&#xd9;" horiz-adv-x="693" 
d="M308 757l-123 129h111l103 -129h-91zM346 -12q-119 0 -199.5 79t-80.5 197v426h91v-424q0 -81 54 -135.5t135 -54.5q82 0 136 54.5t54 135.5v424h91v-426q0 -118 -80.5 -197t-200.5 -79z" />
    <glyph glyph-name="Uacute" unicode="&#xda;" horiz-adv-x="693" 
d="M293 757l104 129h110l-122 -129h-92zM346 -12q-119 0 -199.5 79t-80.5 197v426h91v-424q0 -81 54 -135.5t135 -54.5q82 0 136 54.5t54 135.5v424h91v-426q0 -118 -80.5 -197t-200.5 -79z" />
    <glyph glyph-name="Ucircumflex" unicode="&#xdb;" horiz-adv-x="693" 
d="M347 840l-71 -83h-82l100 129h105l101 -129h-82zM536 690h91v-426q0 -118 -80.5 -197t-200.5 -79q-119 0 -199.5 79t-80.5 197v426h91v-424q0 -81 54 -135.5t135 -54.5q82 0 136 54.5t54 135.5v424z" />
    <glyph glyph-name="Udieresis" unicode="&#xdc;" horiz-adv-x="693" 
d="M243 762q-23 0 -38 15t-15 38t15 38t38 15t38.5 -15.5t15.5 -37.5t-15.5 -37.5t-38.5 -15.5zM450 762q-22 0 -37.5 15t-15.5 38t15.5 38t37.5 15q23 0 38.5 -15.5t15.5 -37.5t-15.5 -37.5t-38.5 -15.5zM346 -12q-119 0 -199.5 79t-80.5 197v426h91v-424q0 -81 54 -135.5
t135 -54.5q82 0 136 54.5t54 135.5v424h91v-426q0 -118 -80.5 -197t-200.5 -79z" />
    <glyph glyph-name="Yacute" unicode="&#xdd;" horiz-adv-x="677" 
d="M500 886l-122 -129h-92l104 129h110zM564 690h102l-282 -435v-255h-91v255l-282 435h104l225 -345z" />
    <glyph glyph-name="Thorn" unicode="&#xde;" horiz-adv-x="559" 
d="M309 563q95 0 158 -62t63 -155q0 -92 -63.5 -154.5t-157.5 -62.5h-136v-129h-92v690h92v-127h136zM308 215q55 0 91.5 37.5t36.5 93.5t-36.5 93.5t-91.5 37.5h-135v-262h135z" />
    <glyph glyph-name="germandbls" unicode="&#xdf;" horiz-adv-x="531" 
d="M374 382q57 -18 92 -69t35 -119q0 -88 -62 -147t-154 -59q-39 0 -70 12v84q28 -13 61 -13q59 0 98 38t39 95q0 59 -37.5 98t-93.5 39h-48v82h42q47 0 78 32.5t31 80.5q0 49 -32.5 81t-82.5 32q-49 0 -81.5 -32t-32.5 -81v-536h-86v543q0 81 57 135t143 54
q87 0 145.5 -54.5t58.5 -133.5q0 -54 -27.5 -98t-72.5 -64z" />
    <glyph glyph-name="agrave" unicode="&#xe0;" horiz-adv-x="538" 
d="M317 577h-91l-123 129h111zM458 78h67v-78h-144v66q-24 -36 -66.5 -57t-94.5 -21q-79 0 -131.5 48.5t-52.5 121.5q0 72 52.5 120.5t131.5 48.5h152v100h-302v83h388v-432zM231 66q63 0 102 28t39 73v82h-141q-46 0 -76 -26t-30 -65q0 -40 30 -66t76 -26z" />
    <glyph glyph-name="aacute" unicode="&#xe1;" horiz-adv-x="538" 
d="M426 706l-122 -129h-92l104 129h110zM458 78h67v-78h-144v66q-24 -36 -66.5 -57t-94.5 -21q-79 0 -131.5 48.5t-52.5 121.5q0 72 52.5 120.5t131.5 48.5h152v100h-302v83h388v-432zM231 66q63 0 102 28t39 73v82h-141q-46 0 -76 -26t-30 -65q0 -40 30 -66t76 -26z" />
    <glyph glyph-name="acircumflex" unicode="&#xe2;" horiz-adv-x="538" 
d="M265 660l-71 -83h-82l100 129h105l101 -129h-82zM458 78h67v-78h-144v66q-24 -36 -66.5 -57t-94.5 -21q-79 0 -131.5 48.5t-52.5 121.5q0 72 52.5 120.5t131.5 48.5h152v100h-302v83h388v-432zM231 66q63 0 102 28t39 73v82h-141q-46 0 -76 -26t-30 -65q0 -40 30 -66
t76 -26z" />
    <glyph glyph-name="atilde" unicode="&#xe3;" horiz-adv-x="538" 
d="M206 638q-21 0 -35 -14.5t-14 -35.5h-62q0 51 27.5 84.5t73.5 33.5q33 0 69.5 -27t56.5 -27q21 0 35 14t14 36h63q0 -52 -27.5 -85.5t-74.5 -33.5q-33 0 -69.5 27.5t-56.5 27.5zM458 78h67v-78h-144v66q-24 -36 -66.5 -57t-94.5 -21q-79 0 -131.5 48.5t-52.5 121.5
q0 72 52.5 120.5t131.5 48.5h152v100h-302v83h388v-432zM231 66q63 0 102 28t39 73v82h-141q-46 0 -76 -26t-30 -65q0 -40 30 -66t76 -26z" />
    <glyph glyph-name="adieresis" unicode="&#xe4;" horiz-adv-x="538" 
d="M161 582q-23 0 -38 15t-15 38t15 38t38 15t38.5 -15.5t15.5 -37.5t-15.5 -37.5t-38.5 -15.5zM368 582q-22 0 -37.5 15t-15.5 38t15.5 38t37.5 15q23 0 38.5 -15.5t15.5 -37.5t-15.5 -37.5t-38.5 -15.5zM458 78h67v-78h-144v66q-24 -36 -66.5 -57t-94.5 -21
q-79 0 -131.5 48.5t-52.5 121.5q0 72 52.5 120.5t131.5 48.5h152v100h-302v83h388v-432zM231 66q63 0 102 28t39 73v82h-141q-46 0 -76 -26t-30 -65q0 -40 30 -66t76 -26z" />
    <glyph glyph-name="aring" unicode="&#xe5;" horiz-adv-x="538" 
d="M264 563q-37 0 -62 24.5t-25 61.5q0 36 25 60.5t62 24.5t62 -24.5t25 -60.5q0 -37 -25 -61.5t-62 -24.5zM264 689q-17 0 -28 -11.5t-11 -28.5q0 -18 11 -29.5t28 -11.5t28 11.5t11 29.5q0 17 -11 28.5t-28 11.5zM458 78h67v-78h-144v66q-24 -36 -66.5 -57t-94.5 -21
q-79 0 -131.5 48.5t-52.5 121.5q0 72 52.5 120.5t131.5 48.5h152v100h-302v83h388v-432zM231 66q63 0 102 28t39 73v82h-141q-46 0 -76 -26t-30 -65q0 -40 30 -66t76 -26z" />
    <glyph glyph-name="ae" unicode="&#xe6;" horiz-adv-x="949" 
d="M912 258q0 -24 -3 -39h-448q11 -68 61 -110t119 -42q57 0 101.5 26.5t64.5 69.5h94q-28 -79 -98 -127t-162 -48q-131 0 -210 97q-24 -43 -78.5 -70t-125.5 -27q-87 0 -139 43.5t-52 111.5q0 66 46.5 109.5t116.5 43.5h174v131h-303v83h383v-61q76 73 188 73
q116 0 193.5 -76.5t77.5 -187.5zM641 443q-68 0 -117 -40.5t-62 -106.5h358q-11 65 -61 106t-118 41zM233 66q55 0 100 22.5t61 59.5q-15 36 -19 71h-165q-37 0 -61 -21.5t-24 -54.5q0 -34 28 -55.5t80 -21.5z" />
    <glyph glyph-name="ccedilla" unicode="&#xe7;" horiz-adv-x="612" 
d="M312 71q60 0 106 33t66 86h91q-19 -82 -82.5 -137t-151.5 -64l-20 -24h5q40 0 66 -27t26 -68t-29.5 -69t-73.5 -28t-73.5 28t-29.5 69h54q0 -20 14.5 -34t34.5 -14t34.5 14t14.5 34q0 21 -14.5 35t-34.5 14q-22 0 -34 -14l-50 22l49 63q-105 11 -172.5 85.5t-67.5 179.5
q0 114 78 190.5t194 76.5q97 0 170 -56.5t93 -145.5h-91q-20 53 -66 86t-106 33q-79 0 -131 -52.5t-52 -131.5t52 -131.5t131 -52.5z" />
    <glyph glyph-name="egrave" unicode="&#xe8;" horiz-adv-x="619" 
d="M364 577h-91l-123 129h111zM582 255q0 -16 -2 -36h-448q11 -68 60.5 -110t118.5 -42q57 0 101.5 26.5t64.5 69.5h95q-28 -79 -98 -127t-163 -48q-116 0 -193.5 76.5t-77.5 190.5t77.5 190.5t193.5 76.5t193.5 -76.5t77.5 -190.5zM311 443q-68 0 -116.5 -40.5
t-61.5 -106.5h357q-12 65 -61.5 106t-117.5 41z" />
    <glyph glyph-name="eacute" unicode="&#xe9;" horiz-adv-x="619" 
d="M472 706l-122 -129h-92l104 129h110zM582 255q0 -16 -2 -36h-448q11 -68 60.5 -110t118.5 -42q57 0 101.5 26.5t64.5 69.5h95q-28 -79 -98 -127t-163 -48q-116 0 -193.5 76.5t-77.5 190.5t77.5 190.5t193.5 76.5t193.5 -76.5t77.5 -190.5zM311 443q-68 0 -116.5 -40.5
t-61.5 -106.5h357q-12 65 -61.5 106t-117.5 41z" />
    <glyph glyph-name="ecircumflex" unicode="&#xea;" horiz-adv-x="619" 
d="M311 660l-71 -83h-82l100 129h105l101 -129h-82zM582 255q0 -16 -2 -36h-448q11 -68 60.5 -110t118.5 -42q57 0 101.5 26.5t64.5 69.5h95q-28 -79 -98 -127t-163 -48q-116 0 -193.5 76.5t-77.5 190.5t77.5 190.5t193.5 76.5t193.5 -76.5t77.5 -190.5zM311 443
q-68 0 -116.5 -40.5t-61.5 -106.5h357q-12 65 -61.5 106t-117.5 41z" />
    <glyph glyph-name="edieresis" unicode="&#xeb;" horiz-adv-x="619" 
d="M207 582q-23 0 -38 15t-15 38t15 38t38 15t38.5 -15.5t15.5 -37.5t-15.5 -37.5t-38.5 -15.5zM414 582q-22 0 -37.5 15t-15.5 38t15.5 38t37.5 15q23 0 38.5 -15.5t15.5 -37.5t-15.5 -37.5t-38.5 -15.5zM582 255q0 -16 -2 -36h-448q11 -68 60.5 -110t118.5 -42
q57 0 101.5 26.5t64.5 69.5h95q-28 -79 -98 -127t-163 -48q-116 0 -193.5 76.5t-77.5 190.5t77.5 190.5t193.5 76.5t193.5 -76.5t77.5 -190.5zM311 443q-68 0 -116.5 -40.5t-61.5 -106.5h357q-12 65 -61.5 106t-117.5 41z" />
    <glyph glyph-name="igrave" unicode="&#xec;" horiz-adv-x="231" 
d="M77 577l-123 129h111l103 -129h-91zM73 0v510h86v-510h-86z" />
    <glyph glyph-name="iacute" unicode="&#xed;" horiz-adv-x="231" 
d="M63 577l104 129h110l-122 -129h-92zM73 0v510h86v-510h-86z" />
    <glyph glyph-name="icircumflex" unicode="&#xee;" horiz-adv-x="231" 
d="M168 706l101 -129h-82l-71 83l-71 -83h-82l100 129h105zM73 0v510h86v-510h-86z" />
    <glyph glyph-name="idieresis" unicode="&#xef;" horiz-adv-x="231" 
d="M12 582q-22 0 -37.5 15t-15.5 38t15.5 38t37.5 15q23 0 38.5 -15.5t15.5 -37.5t-15.5 -37.5t-38.5 -15.5zM219 582q-23 0 -38 15t-15 38t15 38t38 15t38.5 -15.5t15.5 -37.5t-15.5 -37.5t-38.5 -15.5zM73 0v510h86v-510h-86z" />
    <glyph glyph-name="eth" unicode="&#xf0;" horiz-adv-x="605" 
d="M342 656q104 -64 163 -170.5t59 -226.5q0 -122 -74 -196.5t-187 -74.5q-114 0 -189 74t-75 185q0 110 72.5 184t177.5 74q85 0 152 -57q-57 96 -157 150l-47 -46h-69l69 67q-43 17 -95 25v81q85 -10 157 -45l45 45h68zM302 71q74 0 124 50.5t50 124.5q0 75 -50 125
t-124 50q-75 0 -124.5 -50t-49.5 -125t49.5 -125t124.5 -50z" />
    <glyph glyph-name="ntilde" unicode="&#xf1;" horiz-adv-x="616" 
d="M253 638q-21 0 -35 -14.5t-14 -35.5h-62q0 51 27.5 84.5t73.5 33.5q33 0 69.5 -27t56.5 -27q21 0 35 14t14 36h63q0 -52 -27.5 -85.5t-74.5 -33.5q-33 0 -69.5 27.5t-56.5 27.5zM343 522q93 0 150 -56.5t57 -150.5v-315h-86v288q0 68 -40.5 109.5t-108.5 41.5
q-70 0 -113 -42t-43 -111v-286h-86v510h86v-82q61 94 184 94z" />
    <glyph glyph-name="ograve" unicode="&#xf2;" horiz-adv-x="623" 
d="M273 577l-123 129h111l103 -129h-91zM312 -12q-116 0 -194 76.5t-78 190.5t78 190.5t194 76.5t193.5 -76.5t77.5 -190.5t-77.5 -190.5t-193.5 -76.5zM312 71q78 0 130 52.5t52 131.5t-52 131.5t-130 52.5q-79 0 -131 -52.5t-52 -131.5t52 -131.5t131 -52.5z" />
    <glyph glyph-name="oacute" unicode="&#xf3;" horiz-adv-x="623" 
d="M259 577l104 129h110l-122 -129h-92zM312 -12q-116 0 -194 76.5t-78 190.5t78 190.5t194 76.5t193.5 -76.5t77.5 -190.5t-77.5 -190.5t-193.5 -76.5zM312 71q78 0 130 52.5t52 131.5t-52 131.5t-130 52.5q-79 0 -131 -52.5t-52 -131.5t52 -131.5t131 -52.5z" />
    <glyph glyph-name="ocircumflex" unicode="&#xf4;" horiz-adv-x="623" 
d="M312 660l-71 -83h-82l100 129h105l101 -129h-82zM312 522q116 0 193.5 -76.5t77.5 -190.5t-77.5 -190.5t-193.5 -76.5t-194 76.5t-78 190.5t78 190.5t194 76.5zM312 71q78 0 130 52.5t52 131.5t-52 131.5t-130 52.5q-79 0 -131 -52.5t-52 -131.5t52 -131.5t131 -52.5z
" />
    <glyph glyph-name="otilde" unicode="&#xf5;" horiz-adv-x="623" 
d="M379 583q-33 0 -69.5 27.5t-56.5 27.5q-21 0 -35 -14.5t-14 -35.5h-62q0 51 27.5 84.5t73.5 33.5q33 0 69.5 -27t56.5 -27q21 0 35 14t14 36h63q0 -52 -27.5 -85.5t-74.5 -33.5zM312 -12q-116 0 -194 76.5t-78 190.5t78 190.5t194 76.5t193.5 -76.5t77.5 -190.5
t-77.5 -190.5t-193.5 -76.5zM312 71q78 0 130 52.5t52 131.5t-52 131.5t-130 52.5q-79 0 -131 -52.5t-52 -131.5t52 -131.5t131 -52.5z" />
    <glyph glyph-name="odieresis" unicode="&#xf6;" horiz-adv-x="623" 
d="M208 582q-22 0 -37.5 15t-15.5 38t15.5 38t37.5 15q23 0 38.5 -15.5t15.5 -37.5t-15.5 -37.5t-38.5 -15.5zM415 582q-23 0 -38 15t-15 38t15 38t38 15t38.5 -15.5t15.5 -37.5t-15.5 -37.5t-38.5 -15.5zM312 -12q-116 0 -194 76.5t-78 190.5t78 190.5t194 76.5
t193.5 -76.5t77.5 -190.5t-77.5 -190.5t-193.5 -76.5zM312 71q78 0 130 52.5t52 131.5t-52 131.5t-130 52.5q-79 0 -131 -52.5t-52 -131.5t52 -131.5t131 -52.5z" />
    <glyph glyph-name="divide" unicode="&#xf7;" horiz-adv-x="534" 
d="M267 406q-22 0 -37 14.5t-15 36.5t15 36.5t37 14.5t37 -14.5t15 -36.5t-15 -36.5t-37 -14.5zM63 260v71h408v-71h-408zM267 83q-22 0 -37 14.5t-15 36.5t15 36.5t37 14.5t37 -14.5t15 -36.5t-15 -36.5t-37 -14.5z" />
    <glyph glyph-name="oslash" unicode="&#xf8;" horiz-adv-x="623" 
d="M510 441q73 -76 73 -186q0 -114 -77.5 -190.5t-193.5 -76.5q-92 0 -162 50l-34 -38h-65l62 69q-73 76 -73 186q0 114 78 190.5t194 76.5q92 0 161 -50l34 38h65zM129 255q0 -69 42 -121l245 274q-45 31 -104 31q-79 0 -131 -52.5t-52 -131.5zM312 71q78 0 130 52.5
t52 131.5q0 69 -42 121l-245 -274q45 -31 105 -31z" />
    <glyph glyph-name="ugrave" unicode="&#xf9;" horiz-adv-x="600" 
d="M349 577h-91l-123 129h111zM441 510h86v-510h-86v80q-59 -92 -176 -92q-89 0 -144 55t-55 146v321h86v-296q0 -65 38 -104t102 -39q67 0 108 40t41 105v294z" />
    <glyph glyph-name="uacute" unicode="&#xfa;" horiz-adv-x="600" 
d="M458 706l-122 -129h-92l104 129h110zM441 510h86v-510h-86v80q-59 -92 -176 -92q-89 0 -144 55t-55 146v321h86v-296q0 -65 38 -104t102 -39q67 0 108 40t41 105v294z" />
    <glyph glyph-name="ucircumflex" unicode="&#xfb;" horiz-adv-x="600" 
d="M297 660l-71 -83h-82l100 129h105l101 -129h-82zM441 510h86v-510h-86v80q-59 -92 -176 -92q-89 0 -144 55t-55 146v321h86v-296q0 -65 38 -104t102 -39q67 0 108 40t41 105v294z" />
    <glyph glyph-name="udieresis" unicode="&#xfc;" horiz-adv-x="600" 
d="M193 582q-23 0 -38 15t-15 38t15 38t38 15t38.5 -15.5t15.5 -37.5t-15.5 -37.5t-38.5 -15.5zM400 582q-22 0 -37.5 15t-15.5 38t15.5 38t37.5 15q23 0 38.5 -15.5t15.5 -37.5t-15.5 -37.5t-38.5 -15.5zM441 510h86v-510h-86v80q-59 -92 -176 -92q-89 0 -144 55t-55 146
v321h86v-296q0 -65 38 -104t102 -39q67 0 108 40t41 105v294z" />
    <glyph glyph-name="yacute" unicode="&#xfd;" horiz-adv-x="568" 
d="M447 706l-122 -129h-92l104 129h110zM457 510h96l-307 -700h-163v79h103l51 113l-222 508h98l172 -407z" />
    <glyph glyph-name="thorn" unicode="&#xfe;" horiz-adv-x="654" 
d="M357 522q109 0 182.5 -76.5t73.5 -190.5t-73.5 -190.5t-182.5 -76.5q-63 0 -114.5 29t-83.5 80v-287h-86v910h86v-307q32 51 83.5 80t114.5 29zM341 71q79 0 131 52.5t52 131.5t-52 131.5t-131 52.5q-78 0 -130 -52.5t-52 -131.5t52 -131.5t130 -52.5z" />
    <glyph glyph-name="ydieresis" unicode="&#xff;" horiz-adv-x="568" 
d="M182 582q-22 0 -37.5 15t-15.5 38t15.5 38t37.5 15q23 0 38.5 -15.5t15.5 -37.5t-15.5 -37.5t-38.5 -15.5zM389 582q-23 0 -38 15t-15 38t15 38t38 15t38.5 -15.5t15.5 -37.5t-15.5 -37.5t-38.5 -15.5zM457 510h96l-307 -700h-163v79h103l51 113l-222 508h98l172 -407z
" />
    <glyph glyph-name="Amacron" unicode="&#x100;" horiz-adv-x="713" 
d="M474 845v-73h-237v73h237zM591 0l-67 167h-338l-67 -167h-98l281 690h109l281 -690h-101zM220 252h270l-135 339z" />
    <glyph glyph-name="amacron" unicode="&#x101;" horiz-adv-x="538" 
d="M383 665v-73h-237v73h237zM458 78h67v-78h-144v66q-24 -36 -66.5 -57t-94.5 -21q-79 0 -131.5 48.5t-52.5 121.5q0 72 52.5 120.5t131.5 48.5h152v100h-302v83h388v-432zM231 66q63 0 102 28t39 73v82h-141q-46 0 -76 -26t-30 -65q0 -40 30 -66t76 -26z" />
    <glyph glyph-name="Abreve" unicode="&#x102;" horiz-adv-x="713" 
d="M356 747q-59 0 -98.5 38t-39.5 95h68q0 -30 20 -50.5t50 -20.5t50 20.5t20 50.5h68q0 -57 -39.5 -95t-98.5 -38zM591 0l-67 167h-338l-67 -167h-98l281 690h109l281 -690h-101zM220 252h270l-135 339z" />
    <glyph glyph-name="abreve" unicode="&#x103;" horiz-adv-x="538" 
d="M264 567q-59 0 -98.5 38t-39.5 95h68q0 -30 20 -50.5t50 -20.5t50 20.5t20 50.5h68q0 -57 -39.5 -95t-98.5 -38zM458 78h67v-78h-144v66q-24 -36 -66.5 -57t-94.5 -21q-79 0 -131.5 48.5t-52.5 121.5q0 72 52.5 120.5t131.5 48.5h152v100h-302v83h388v-432zM231 66
q63 0 102 28t39 73v82h-141q-46 0 -76 -26t-30 -65q0 -40 30 -66t76 -26z" />
    <glyph glyph-name="Aogonek" unicode="&#x104;" horiz-adv-x="713" 
d="M639 -160q35 0 63 23v-64q-34 -22 -80 -22q-45 0 -75.5 28t-30.5 69q0 39 27.5 72.5t73.5 53.5h-26l-67 167h-338l-67 -167h-98l281 690h109l281 -690h-1q-106 -47 -106 -108q0 -23 15.5 -37.5t38.5 -14.5zM220 252h270l-135 339z" />
    <glyph glyph-name="aogonek" unicode="&#x105;" horiz-adv-x="538" 
d="M471 -160q35 0 63 23v-64q-34 -22 -80 -22q-45 0 -75.5 28t-30.5 69q0 39 27.5 72.5t73.5 53.5h-68v66q-24 -36 -66.5 -57t-94.5 -21q-79 0 -131.5 48.5t-52.5 121.5q0 72 52.5 120.5t131.5 48.5h152v100h-302v83h388v-432h67v-78h-2q-106 -47 -106 -108
q0 -23 15.5 -37.5t38.5 -14.5zM231 66q63 0 102 28t39 73v82h-141q-46 0 -76 -26t-30 -65q0 -40 30 -66t76 -26z" />
    <glyph glyph-name="Cacute" unicode="&#x106;" horiz-adv-x="798" 
d="M353 757l104 129h110l-122 -129h-92zM406 -12q-154 0 -257.5 102.5t-103.5 254.5t103.5 254.5t257.5 102.5q129 0 225 -74.5t126 -192.5h-98q-27 81 -95 130t-158 49q-114 0 -190.5 -77t-76.5 -192t76.5 -192t190.5 -77q90 0 158 49t95 130h98q-30 -118 -126 -192.5
t-225 -74.5z" />
    <glyph glyph-name="cacute" unicode="&#x107;" horiz-adv-x="612" 
d="M259 577l104 129h110l-122 -129h-92zM312 -12q-116 0 -194 76.5t-78 190.5t78 190.5t194 76.5q97 0 170 -56.5t93 -145.5h-91q-20 53 -66 86t-106 33q-79 0 -131 -52.5t-52 -131.5t52 -131.5t131 -52.5q60 0 106 33t66 86h91q-20 -89 -93 -145.5t-170 -56.5z" />
    <glyph glyph-name="Ccircumflex" unicode="&#x108;" horiz-adv-x="798" 
d="M406 840l-71 -83h-82l100 129h105l101 -129h-82zM406 76q90 0 158 49t95 130h98q-30 -118 -126 -192.5t-225 -74.5q-154 0 -257.5 102.5t-103.5 254.5t103.5 254.5t257.5 102.5q129 0 225 -74.5t126 -192.5h-98q-27 81 -95 130t-158 49q-114 0 -190.5 -77t-76.5 -192
t76.5 -192t190.5 -77z" />
    <glyph glyph-name="ccircumflex" unicode="&#x109;" horiz-adv-x="612" 
d="M312 660l-71 -83h-82l100 129h105l101 -129h-82zM312 71q60 0 106 33t66 86h91q-20 -89 -93 -145.5t-170 -56.5q-116 0 -194 76.5t-78 190.5t78 190.5t194 76.5q97 0 170 -56.5t93 -145.5h-91q-20 53 -66 86t-106 33q-79 0 -131 -52.5t-52 -131.5t52 -131.5t131 -52.5z
" />
    <glyph glyph-name="Cdotaccent" unicode="&#x10a;" horiz-adv-x="798" 
d="M407 762q-24 0 -40 16t-16 39t16 39t40 16q23 0 39 -16t16 -39t-16 -39t-39 -16zM406 -12q-154 0 -257.5 102.5t-103.5 254.5t103.5 254.5t257.5 102.5q129 0 225 -74.5t126 -192.5h-98q-27 81 -95 130t-158 49q-114 0 -190.5 -77t-76.5 -192t76.5 -192t190.5 -77
q90 0 158 49t95 130h98q-30 -118 -126 -192.5t-225 -74.5z" />
    <glyph glyph-name="cdotaccent" unicode="&#x10b;" horiz-adv-x="612" 
d="M312 582q-24 0 -40 16t-16 39t16 39t40 16q23 0 39 -16t16 -39t-16 -39t-39 -16zM312 -12q-116 0 -194 76.5t-78 190.5t78 190.5t194 76.5q97 0 170 -56.5t93 -145.5h-91q-20 53 -66 86t-106 33q-79 0 -131 -52.5t-52 -131.5t52 -131.5t131 -52.5q60 0 106 33t66 86h91
q-20 -89 -93 -145.5t-170 -56.5z" />
    <glyph glyph-name="Ccaron" unicode="&#x10c;" horiz-adv-x="798" 
d="M458 757h-105l-100 129h82l71 -83l71 83h82zM406 76q90 0 158 49t95 130h98q-30 -118 -126 -192.5t-225 -74.5q-154 0 -257.5 102.5t-103.5 254.5t103.5 254.5t257.5 102.5q129 0 225 -74.5t126 -192.5h-98q-27 81 -95 130t-158 49q-114 0 -190.5 -77t-76.5 -192
t76.5 -192t190.5 -77z" />
    <glyph glyph-name="ccaron" unicode="&#x10d;" horiz-adv-x="612" 
d="M364 577h-105l-100 129h82l71 -83l71 83h82zM312 71q60 0 106 33t66 86h91q-20 -89 -93 -145.5t-170 -56.5q-116 0 -194 76.5t-78 190.5t78 190.5t194 76.5q97 0 170 -56.5t93 -145.5h-91q-20 53 -66 86t-106 33q-79 0 -131 -52.5t-52 -131.5t52 -131.5t131 -52.5z" />
    <glyph glyph-name="Dcaron" unicode="&#x10e;" horiz-adv-x="741" 
d="M414 757h-105l-100 129h82l71 -83l71 83h82zM347 690q150 0 250 -98.5t100 -246.5t-100 -246.5t-250 -98.5h-266v690h266zM346 86q110 0 183.5 74t73.5 185t-73.5 185t-183.5 74h-173v-518h173z" />
    <glyph glyph-name="dcaron" unicode="&#x10f;" horiz-adv-x="744" 
d="M495 413v307h86v-720h-86v97q-32 -51 -83.5 -80t-114.5 -29q-109 0 -182 76.5t-73 190.5t73 190.5t182 76.5q63 0 114.5 -29t83.5 -80zM666 720h80l-36 -201h-65zM313 71q78 0 130 52.5t52 131.5t-52 131.5t-130 52.5q-79 0 -131 -52.5t-52 -131.5t52 -131.5t131 -52.5z
" />
    <glyph glyph-name="Dcroat" unicode="&#x110;" horiz-adv-x="741" 
d="M347 690q150 0 250 -98.5t100 -246.5t-100 -246.5t-250 -98.5h-266v314h-70v63h70v313h266zM346 86q110 0 183.5 74t73.5 185t-73.5 185t-183.5 74h-173v-227h128v-63h-128v-228h173z" />
    <glyph glyph-name="dcroat" unicode="&#x111;" horiz-adv-x="654" 
d="M654 640v-63h-73v-577h-86v97q-32 -51 -83.5 -80t-114.5 -29q-109 0 -182 76.5t-73 190.5t73 190.5t182 76.5q63 0 114.5 -29t83.5 -80v164h-131v63h131v80h86v-80h73zM313 71q78 0 130 52.5t52 131.5t-52 131.5t-130 52.5q-79 0 -131 -52.5t-52 -131.5t52 -131.5
t131 -52.5z" />
    <glyph glyph-name="Emacron" unicode="&#x112;" horiz-adv-x="513" 
d="M390 845v-73h-237v73h237zM173 86h295v-86h-387v690h382v-86h-290v-214h257v-86h-257v-218z" />
    <glyph glyph-name="emacron" unicode="&#x113;" horiz-adv-x="619" 
d="M429 665v-73h-237v73h237zM582 255q0 -16 -2 -36h-448q11 -68 60.5 -110t118.5 -42q57 0 101.5 26.5t64.5 69.5h95q-28 -79 -98 -127t-163 -48q-116 0 -193.5 76.5t-77.5 190.5t77.5 190.5t193.5 76.5t193.5 -76.5t77.5 -190.5zM311 443q-68 0 -116.5 -40.5t-61.5 -106.5
h357q-12 65 -61.5 106t-117.5 41z" />
    <glyph glyph-name="Ebreve" unicode="&#x114;" horiz-adv-x="513" 
d="M272 747q-59 0 -98.5 38t-39.5 95h68q0 -30 20 -50.5t50 -20.5t50 20.5t20 50.5h68q0 -57 -39.5 -95t-98.5 -38zM173 86h295v-86h-387v690h382v-86h-290v-214h257v-86h-257v-218z" />
    <glyph glyph-name="ebreve" unicode="&#x115;" horiz-adv-x="619" 
d="M311 567q-59 0 -98.5 38t-39.5 95h68q0 -30 20 -50.5t50 -20.5t50 20.5t20 50.5h68q0 -57 -39.5 -95t-98.5 -38zM582 255q0 -16 -2 -36h-448q11 -68 60.5 -110t118.5 -42q57 0 101.5 26.5t64.5 69.5h95q-28 -79 -98 -127t-163 -48q-116 0 -193.5 76.5t-77.5 190.5
t77.5 190.5t193.5 76.5t193.5 -76.5t77.5 -190.5zM311 443q-68 0 -116.5 -40.5t-61.5 -106.5h357q-12 65 -61.5 106t-117.5 41z" />
    <glyph glyph-name="Edotaccent" unicode="&#x116;" horiz-adv-x="513" 
d="M272 762q-24 0 -40 16t-16 39t16 39t40 16q23 0 39 -16t16 -39t-16 -39t-39 -16zM173 86h295v-86h-387v690h382v-86h-290v-214h257v-86h-257v-218z" />
    <glyph glyph-name="edotaccent" unicode="&#x117;" horiz-adv-x="619" 
d="M312 582q-24 0 -40 16t-16 39t16 39t40 16q23 0 39 -16t16 -39t-16 -39t-39 -16zM582 255q0 -16 -2 -36h-448q11 -68 60.5 -110t118.5 -42q57 0 101.5 26.5t64.5 69.5h95q-28 -79 -98 -127t-163 -48q-116 0 -193.5 76.5t-77.5 190.5t77.5 190.5t193.5 76.5t193.5 -76.5
t77.5 -190.5zM311 443q-68 0 -116.5 -40.5t-61.5 -106.5h357q-12 65 -61.5 106t-117.5 41z" />
    <glyph glyph-name="Eogonek" unicode="&#x118;" horiz-adv-x="513" 
d="M406 -160q35 0 63 23v-64q-34 -22 -80 -22q-45 0 -75.5 28t-30.5 69q0 39 27.5 72.5t73.5 53.5h-303v690h382v-86h-290v-214h257v-86h-257v-218h295v-86h-10q-106 -47 -106 -108q0 -23 15.5 -37.5t38.5 -14.5z" />
    <glyph glyph-name="eogonek" unicode="&#x119;" horiz-adv-x="619" 
d="M582 255q0 -16 -2 -36h-448q11 -68 60.5 -110t118.5 -42q57 0 101.5 26.5t64.5 69.5h95q-40 -113 -156 -157q-71 -54 -71 -109q0 -25 16.5 -41t40.5 -16q39 0 66 30v-66q-30 -27 -85 -27q-46 0 -77.5 29.5t-31.5 73.5q0 59 51 108h-14q-116 0 -193.5 76.5t-77.5 190.5
t77.5 190.5t193.5 76.5t193.5 -76.5t77.5 -190.5zM311 443q-68 0 -116.5 -40.5t-61.5 -106.5h357q-12 65 -61.5 106t-117.5 41z" />
    <glyph glyph-name="Ecaron" unicode="&#x11a;" horiz-adv-x="513" 
d="M324 757h-105l-100 129h82l71 -83l71 83h82zM173 86h295v-86h-387v690h382v-86h-290v-214h257v-86h-257v-218z" />
    <glyph glyph-name="ecaron" unicode="&#x11b;" horiz-adv-x="619" 
d="M363 577h-105l-100 129h82l71 -83l71 83h82zM582 255q0 -16 -2 -36h-448q11 -68 60.5 -110t118.5 -42q57 0 101.5 26.5t64.5 69.5h95q-28 -79 -98 -127t-163 -48q-116 0 -193.5 76.5t-77.5 190.5t77.5 190.5t193.5 76.5t193.5 -76.5t77.5 -190.5zM311 443
q-68 0 -116.5 -40.5t-61.5 -106.5h357q-12 65 -61.5 106t-117.5 41z" />
    <glyph glyph-name="Gcircumflex" unicode="&#x11c;" horiz-adv-x="825" 
d="M406 840l-71 -83h-82l100 129h105l101 -129h-82zM419 367h344v-367h-80v138q-39 -71 -110.5 -110.5t-166.5 -39.5q-154 0 -257.5 102.5t-103.5 254.5t103.5 254.5t257.5 102.5q123 0 216.5 -66.5t123.5 -172.5h-101q-30 69 -94 110t-145 41q-114 0 -190.5 -77t-76.5 -192
t76.5 -192t190.5 -77q99 0 171 58t89 150h-247v83z" />
    <glyph glyph-name="gcircumflex" unicode="&#x11d;" horiz-adv-x="655" 
d="M328 660l-71 -83h-82l100 129h105l101 -129h-82zM496 510h86v-700h-490v79h404v216q-32 -50 -83.5 -78.5t-115.5 -28.5q-109 0 -182 74.5t-73 187.5q0 112 73 187t182 75q63 0 115 -29t84 -79v96zM314 76q78 0 130 52.5t52 131.5q0 78 -52 130.5t-130 52.5
q-79 0 -131 -52.5t-52 -130.5q0 -79 52 -131.5t131 -52.5z" />
    <glyph glyph-name="Gbreve" unicode="&#x11e;" horiz-adv-x="825" 
d="M406 747q-59 0 -98.5 38t-39.5 95h68q0 -30 20 -50.5t50 -20.5t50 20.5t20 50.5h68q0 -57 -39.5 -95t-98.5 -38zM419 367h344v-367h-80v138q-39 -71 -110.5 -110.5t-166.5 -39.5q-154 0 -257.5 102.5t-103.5 254.5t103.5 254.5t257.5 102.5q123 0 216.5 -66.5
t123.5 -172.5h-101q-30 69 -94 110t-145 41q-114 0 -190.5 -77t-76.5 -192t76.5 -192t190.5 -77q99 0 171 58t89 150h-247v83z" />
    <glyph glyph-name="gbreve" unicode="&#x11f;" horiz-adv-x="655" 
d="M328 567q-59 0 -98.5 38t-39.5 95h68q0 -30 20 -50.5t50 -20.5t50 20.5t20 50.5h68q0 -57 -39.5 -95t-98.5 -38zM496 510h86v-700h-490v79h404v216q-32 -50 -83.5 -78.5t-115.5 -28.5q-109 0 -182 74.5t-73 187.5q0 112 73 187t182 75q63 0 115 -29t84 -79v96zM314 76
q78 0 130 52.5t52 131.5q0 78 -52 130.5t-130 52.5q-79 0 -131 -52.5t-52 -130.5q0 -79 52 -131.5t131 -52.5z" />
    <glyph glyph-name="Gdotaccent" unicode="&#x120;" horiz-adv-x="825" 
d="M407 762q-24 0 -40 16t-16 39t16 39t40 16q23 0 39 -16t16 -39t-16 -39t-39 -16zM419 367h344v-367h-80v138q-39 -71 -110.5 -110.5t-166.5 -39.5q-154 0 -257.5 102.5t-103.5 254.5t103.5 254.5t257.5 102.5q123 0 216.5 -66.5t123.5 -172.5h-101q-30 69 -94 110
t-145 41q-114 0 -190.5 -77t-76.5 -192t76.5 -192t190.5 -77q99 0 171 58t89 150h-247v83z" />
    <glyph glyph-name="gdotaccent" unicode="&#x121;" horiz-adv-x="655" 
d="M328 582q-24 0 -40 16t-16 39t16 39t40 16q23 0 39 -16t16 -39t-16 -39t-39 -16zM496 510h86v-700h-490v79h404v216q-32 -50 -83.5 -78.5t-115.5 -28.5q-109 0 -182 74.5t-73 187.5q0 112 73 187t182 75q63 0 115 -29t84 -79v96zM314 76q78 0 130 52.5t52 131.5
q0 78 -52 130.5t-130 52.5q-79 0 -131 -52.5t-52 -130.5q0 -79 52 -131.5t131 -52.5z" />
    <glyph glyph-name="uni0122" unicode="&#x122;" horiz-adv-x="825" 
d="M419 367h344v-367h-80v138q-39 -71 -110.5 -110.5t-166.5 -39.5q-154 0 -257.5 102.5t-103.5 254.5t103.5 254.5t257.5 102.5q123 0 216.5 -66.5t123.5 -172.5h-101q-30 69 -94 110t-145 41q-114 0 -190.5 -77t-76.5 -192t76.5 -192t190.5 -77q99 0 171 58t89 150h-247
v83zM338 -220l35 154h90l-54 -154h-71z" />
    <glyph glyph-name="uni0123" unicode="&#x123;" horiz-adv-x="655" 
d="M390 725l-35 -154h-90l54 154h71zM496 510h86v-700h-490v79h404v216q-32 -50 -83.5 -78.5t-115.5 -28.5q-109 0 -182 74.5t-73 187.5q0 112 73 187t182 75q63 0 115 -29t84 -79v96zM314 76q78 0 130 52.5t52 131.5q0 78 -52 130.5t-130 52.5q-79 0 -131 -52.5t-52 -130.5
q0 -79 52 -131.5t131 -52.5z" />
    <glyph glyph-name="Hcircumflex" unicode="&#x124;" horiz-adv-x="730" 
d="M366 840l-71 -83h-82l100 129h105l101 -129h-82zM557 690h92v-690h-92v304h-384v-304h-92v690h92v-300h384v300z" />
    <glyph glyph-name="hcircumflex" unicode="&#x125;" horiz-adv-x="616" 
d="M187 766l-71 83l-71 -83h-82l100 129h105l101 -129h-82zM343 522q93 0 150 -56.5t57 -150.5v-315h-86v288q0 68 -40.5 109.5t-108.5 41.5q-70 0 -113 -42t-43 -111v-286h-86v720h86v-295q61 97 184 97z" />
    <glyph glyph-name="Hbar" unicode="&#x126;" horiz-adv-x="730" 
d="M706 573v-64h-57v-509h-92v304h-384v-304h-92v509h-56v64h56v117h92v-117h384v117h92v-117h57zM557 390v119h-384v-119h384z" />
    <glyph glyph-name="hbar" unicode="&#x127;" horiz-adv-x="616" 
d="M343 522q93 0 150 -56.5t57 -150.5v-315h-86v288q0 68 -40.5 109.5t-108.5 41.5q-70 0 -113 -42t-43 -111v-286h-86v577h-73v63h73v80h86v-80h131v-63h-131v-152q61 97 184 97z" />
    <glyph glyph-name="Itilde" unicode="&#x128;" horiz-adv-x="353" 
d="M119 818q-21 0 -35 -14.5t-14 -35.5h-62q0 51 27.5 84.5t73.5 33.5q33 0 69.5 -27t56.5 -27q21 0 35 14t14 36h63q0 -52 -27.5 -85.5t-74.5 -33.5q-33 0 -69.5 27.5t-56.5 27.5zM38 604v86h277v-86h-93v-518h93v-86h-277v86h93v518h-93z" />
    <glyph glyph-name="itilde" unicode="&#x129;" horiz-adv-x="231" 
d="M183 583q-33 0 -69.5 27.5t-56.5 27.5q-21 0 -35 -14.5t-14 -35.5h-62q0 51 27.5 84.5t73.5 33.5q33 0 69.5 -27t56.5 -27q21 0 35 14t14 36h63q0 -52 -27.5 -85.5t-74.5 -33.5zM73 0v510h86v-510h-86z" />
    <glyph glyph-name="Imacron" unicode="&#x12a;" horiz-adv-x="353" 
d="M295 845v-73h-237v73h237zM315 604h-93v-518h93v-86h-277v86h93v518h-93v86h277v-86z" />
    <glyph glyph-name="imacron" unicode="&#x12b;" horiz-adv-x="231" 
d="M-3 592v73h237v-73h-237zM73 0v510h86v-510h-86z" />
    <glyph glyph-name="Ibreve" unicode="&#x12c;" horiz-adv-x="353" 
d="M177 747q-59 0 -98.5 38t-39.5 95h68q0 -30 20 -50.5t50 -20.5t50 20.5t20 50.5h68q0 -57 -39.5 -95t-98.5 -38zM38 604v86h277v-86h-93v-518h93v-86h-277v86h93v518h-93z" />
    <glyph glyph-name="ibreve" unicode="&#x12d;" horiz-adv-x="231" 
d="M116 567q-59 0 -98.5 38t-39.5 95h68q0 -30 20 -50.5t50 -20.5t50 20.5t20 50.5h68q0 -57 -39.5 -95t-98.5 -38zM73 0v510h86v-510h-86z" />
    <glyph glyph-name="Iogonek" unicode="&#x12e;" horiz-adv-x="353" 
d="M263 -160q35 0 63 23v-64q-34 -22 -80 -22q-45 0 -75.5 28t-30.5 69q0 39 27.5 72.5t73.5 53.5h-203v86h93v518h-93v86h277v-86h-93v-518h93v-86q-106 -47 -106 -108q0 -23 15.5 -37.5t38.5 -14.5z" />
    <glyph glyph-name="iogonek" unicode="&#x12f;" horiz-adv-x="231" 
d="M116 582q-24 0 -40 16t-16 39t16 39t40 16q23 0 39 -16t16 -39t-16 -39t-39 -16zM52 -108q0 -23 15.5 -37.5t38.5 -14.5q35 0 63 23v-64q-34 -22 -80 -22q-45 0 -75.5 28t-30.5 69q0 39 27.5 72.5t73.5 53.5h-11v510h86v-510h-1q-106 -47 -106 -108z" />
    <glyph glyph-name="Idotaccent" unicode="&#x130;" horiz-adv-x="353" 
d="M177 762q-24 0 -40 16t-16 39t16 39t40 16q23 0 39 -16t16 -39t-16 -39t-39 -16zM315 604h-93v-518h93v-86h-277v86h93v518h-93v86h277v-86z" />
    <glyph glyph-name="dotlessi" unicode="&#x131;" horiz-adv-x="231" 
d="M73 0v510h86v-510h-86z" />
    <glyph glyph-name="IJ" unicode="&#x132;" horiz-adv-x="831" 
d="M38 604v86h277v-86h-93v-518h93v-86h-277v86h93v518h-93zM659 690h91v-690h-357v86h266v604z" />
    <glyph glyph-name="ij" unicode="&#x133;" horiz-adv-x="468" 
d="M116 726q24 0 40.5 -16t16.5 -41q0 -24 -16.5 -40.5t-40.5 -16.5q-25 0 -41.5 16.5t-16.5 40.5q0 25 16.5 41t41.5 16zM352 612q-24 0 -40.5 16.5t-16.5 40.5q0 25 16.5 41t40.5 16q25 0 41.5 -16t16.5 -41q0 -24 -16.5 -40.5t-41.5 -16.5zM73 0v510h86v-510h-86z
M309 -123v633h86v-712h-184v79h98z" />
    <glyph glyph-name="Jcircumflex" unicode="&#x134;" horiz-adv-x="468" 
d="M393 886l101 -129h-82l-71 83l-71 -83h-82l100 129h105zM296 86v604h91v-690h-357v86h266z" />
    <glyph glyph-name="jcircumflex" unicode="&#x135;" horiz-adv-x="237" 
d="M174 706l101 -129h-82l-71 83l-71 -83h-82l100 129h105zM78 -123v633h86v-712h-184v79h98z" />
    <glyph glyph-name="uni0136" unicode="&#x136;" horiz-adv-x="618" 
d="M326 349l286 -349h-115l-249 304h-75v-304h-92v690h92v-300h76l244 300h112zM253 -220l35 154h90l-54 -154h-71z" />
    <glyph glyph-name="uni0137" unicode="&#x137;" horiz-adv-x="517" 
d="M295 257l208 -257h-106l-171 217h-67v-217h-86v720h86v-423h67l166 213h104zM206 -220l35 154h90l-54 -154h-71z" />
    <glyph glyph-name="Lacute" unicode="&#x139;" horiz-adv-x="468" 
d="M289 886l-122 -129h-92l104 129h110zM173 86h265v-86h-357v690h92v-604z" />
    <glyph glyph-name="lacute" unicode="&#x13a;" horiz-adv-x="269" 
d="M277 895l-122 -129h-92l104 129h110zM159 720v-641h94v-79h-180v720h86z" />
    <glyph glyph-name="uni013B" unicode="&#x13b;" horiz-adv-x="468" 
d="M173 86h265v-86h-357v690h92v-604zM189 -220l35 154h90l-54 -154h-71z" />
    <glyph glyph-name="uni013C" unicode="&#x13c;" horiz-adv-x="269" 
d="M159 79h94v-79h-180v720h86v-641zM79 -220l35 154h90l-54 -154h-71z" />
    <glyph glyph-name="Lcaron" unicode="&#x13d;" horiz-adv-x="481" 
d="M173 86h265v-86h-357v690h92v-604zM372 690l-36 -201h-65l21 201h80z" />
    <glyph glyph-name="lcaron" unicode="&#x13e;" horiz-adv-x="321" 
d="M159 720v-641h94v-79h-180v720h86zM243 720h80l-36 -201h-65z" />
    <glyph glyph-name="Ldot" unicode="&#x13f;" horiz-adv-x="487" 
d="M173 86h265v-86h-357v690h92v-604zM321 296q-24 0 -40.5 16.5t-16.5 41.5q0 24 16.5 40.5t40.5 16.5q25 0 41.5 -16.5t16.5 -40.5q0 -25 -16.5 -41.5t-41.5 -16.5z" />
    <glyph glyph-name="ldot" unicode="&#x140;" horiz-adv-x="355" 
d="M159 720v-641h94v-79h-180v720h86zM273 418q25 0 41.5 -16.5t16.5 -41.5t-16.5 -41.5t-41.5 -16.5q-24 0 -40.5 16.5t-16.5 41.5t16.5 41.5t40.5 16.5z" />
    <glyph glyph-name="Lslash" unicode="&#x141;" horiz-adv-x="468" 
d="M173 86h265v-86h-357v258l-64 -40v85l64 40v347h92v-289l120 76v-85l-120 -76v-230z" />
    <glyph glyph-name="lslash" unicode="&#x142;" horiz-adv-x="331" 
d="M198 79h95v-79h-181v291l-71 -43v80l71 43v349h86v-297l80 49v-80l-80 -49v-264z" />
    <glyph glyph-name="Nacute" unicode="&#x143;" horiz-adv-x="739" 
d="M533 886l-122 -129h-92l104 129h110zM566 690h91v-690h-94l-390 537v-537h-92v690h95l390 -539v539z" />
    <glyph glyph-name="nacute" unicode="&#x144;" horiz-adv-x="616" 
d="M472 706l-122 -129h-92l104 129h110zM343 522q93 0 150 -56.5t57 -150.5v-315h-86v288q0 68 -40.5 109.5t-108.5 41.5q-70 0 -113 -42t-43 -111v-286h-86v510h86v-82q61 94 184 94z" />
    <glyph glyph-name="uni0145" unicode="&#x145;" horiz-adv-x="739" 
d="M566 690h91v-690h-94l-390 537v-537h-92v690h95l390 -539v539zM301 -220l35 154h90l-54 -154h-71z" />
    <glyph glyph-name="uni0146" unicode="&#x146;" horiz-adv-x="616" 
d="M343 522q93 0 150 -56.5t57 -150.5v-315h-86v288q0 68 -40.5 109.5t-108.5 41.5q-70 0 -113 -42t-43 -111v-286h-86v510h86v-82q61 94 184 94zM243 -220l35 154h90l-54 -154h-71z" />
    <glyph glyph-name="Ncaron" unicode="&#x147;" horiz-adv-x="739" 
d="M424 757h-105l-100 129h82l71 -83l71 83h82zM566 690h91v-690h-94l-390 537v-537h-92v690h95l390 -539v539z" />
    <glyph glyph-name="ncaron" unicode="&#x148;" horiz-adv-x="616" 
d="M363 577h-105l-100 129h82l71 -83l71 83h82zM343 522q93 0 150 -56.5t57 -150.5v-315h-86v288q0 68 -40.5 109.5t-108.5 41.5q-70 0 -113 -42t-43 -111v-286h-86v510h86v-82q61 94 184 94z" />
    <glyph glyph-name="Eng" unicode="&#x14a;" horiz-adv-x="739" 
d="M657 5h1v-43q0 -163 -177 -163v84q85 0 85 82v35h-3l-390 537v-537h-92v690h95l390 -539v539h91v-685z" />
    <glyph glyph-name="eng" unicode="&#x14b;" horiz-adv-x="616" 
d="M343 522q93 0 150 -56.5t57 -150.5v-353q0 -163 -174 -163v84q88 0 88 82v323q0 68 -40.5 109.5t-108.5 41.5q-70 0 -113 -42t-43 -111v-286h-86v510h86v-82q61 94 184 94z" />
    <glyph glyph-name="Omacron" unicode="&#x14c;" horiz-adv-x="812" 
d="M287 772v73h237v-73h-237zM406 -12q-154 0 -257.5 102.5t-103.5 254.5t103.5 254.5t257.5 102.5t257.5 -102.5t103.5 -254.5t-103.5 -254.5t-257.5 -102.5zM406 76q114 0 190.5 77t76.5 192t-76.5 192t-190.5 77t-190.5 -77t-76.5 -192t76.5 -192t190.5 -77z" />
    <glyph glyph-name="omacron" unicode="&#x14d;" horiz-adv-x="623" 
d="M193 592v73h237v-73h-237zM312 -12q-116 0 -194 76.5t-78 190.5t78 190.5t194 76.5t193.5 -76.5t77.5 -190.5t-77.5 -190.5t-193.5 -76.5zM312 71q78 0 130 52.5t52 131.5t-52 131.5t-130 52.5q-79 0 -131 -52.5t-52 -131.5t52 -131.5t131 -52.5z" />
    <glyph glyph-name="Obreve" unicode="&#x14e;" horiz-adv-x="812" 
d="M406 747q-59 0 -98.5 38t-39.5 95h68q0 -30 20 -50.5t50 -20.5t50 20.5t20 50.5h68q0 -57 -39.5 -95t-98.5 -38zM406 -12q-154 0 -257.5 102.5t-103.5 254.5t103.5 254.5t257.5 102.5t257.5 -102.5t103.5 -254.5t-103.5 -254.5t-257.5 -102.5zM406 76q114 0 190.5 77
t76.5 192t-76.5 192t-190.5 77t-190.5 -77t-76.5 -192t76.5 -192t190.5 -77z" />
    <glyph glyph-name="obreve" unicode="&#x14f;" horiz-adv-x="623" 
d="M311 567q-59 0 -98.5 38t-39.5 95h68q0 -30 20 -50.5t50 -20.5t50 20.5t20 50.5h68q0 -57 -39.5 -95t-98.5 -38zM312 -12q-116 0 -194 76.5t-78 190.5t78 190.5t194 76.5t193.5 -76.5t77.5 -190.5t-77.5 -190.5t-193.5 -76.5zM312 71q78 0 130 52.5t52 131.5t-52 131.5
t-130 52.5q-79 0 -131 -52.5t-52 -131.5t52 -131.5t131 -52.5z" />
    <glyph glyph-name="Ohungarumlaut" unicode="&#x150;" horiz-adv-x="812" 
d="M264 757l82 129h96l-94 -129h-84zM459 757l82 129h96l-95 -129h-83zM406 -12q-154 0 -257.5 102.5t-103.5 254.5t103.5 254.5t257.5 102.5t257.5 -102.5t103.5 -254.5t-103.5 -254.5t-257.5 -102.5zM406 76q114 0 190.5 77t76.5 192t-76.5 192t-190.5 77t-190.5 -77
t-76.5 -192t76.5 -192t190.5 -77z" />
    <glyph glyph-name="ohungarumlaut" unicode="&#x151;" horiz-adv-x="623" 
d="M169 577l82 129h96l-94 -129h-84zM364 577l82 129h96l-95 -129h-83zM312 -12q-116 0 -194 76.5t-78 190.5t78 190.5t194 76.5t193.5 -76.5t77.5 -190.5t-77.5 -190.5t-193.5 -76.5zM312 71q78 0 130 52.5t52 131.5t-52 131.5t-130 52.5q-79 0 -131 -52.5t-52 -131.5
t52 -131.5t131 -52.5z" />
    <glyph glyph-name="OE" unicode="&#x152;" horiz-adv-x="899" 
d="M559 86h296v-86h-461q-149 0 -249 98.5t-100 246.5t100 246.5t249 98.5h456v-86h-291v-214h258v-86h-258v-218zM396 86h72v518h-72q-110 0 -183.5 -74t-73.5 -185t73.5 -185t183.5 -74z" />
    <glyph glyph-name="oe" unicode="&#x153;" horiz-adv-x="1074" 
d="M1037 255q0 -21 -3 -36h-448q11 -67 60.5 -108.5t119.5 -41.5q57 0 101.5 25.5t64.5 68.5h95q-29 -79 -98 -127t-161 -48q-76 0 -136.5 37t-92.5 100q-33 -63 -93.5 -100t-136.5 -37q-115 0 -192 76.5t-77 190.5t77 190.5t192 76.5q76 0 136.5 -37t93.5 -100
q32 63 92.5 100t136.5 37q115 0 192 -76.5t77 -190.5zM766 441q-68 0 -117 -40t-62 -105h358q-11 64 -61 104.5t-118 40.5zM311 71q79 0 131 52.5t52 131.5t-52 131.5t-131 52.5t-130.5 -52.5t-51.5 -131.5t51.5 -131.5t130.5 -52.5z" />
    <glyph glyph-name="Racute" unicode="&#x154;" horiz-adv-x="565" 
d="M444 886l-122 -129h-92l104 129h110zM423 0l-175 274h-75v-274h-92v690h224q92 0 153.5 -60t61.5 -150q0 -77 -47 -132.5t-121 -69.5l182 -278h-111zM173 604v-250h130q53 0 88 35.5t35 89.5t-35 89.5t-88 35.5h-130z" />
    <glyph glyph-name="racute" unicode="&#x155;" horiz-adv-x="355" 
d="M359 706l-122 -129h-92l104 129h110zM159 418q59 100 167 100v-89q-78 0 -122.5 -47t-44.5 -126v-256h-86v510h86v-92z" />
    <glyph glyph-name="uni0156" unicode="&#x156;" horiz-adv-x="565" 
d="M352 278l182 -278h-111l-175 274h-75v-274h-92v690h224q92 0 153.5 -60t61.5 -150q0 -77 -47 -132.5t-121 -69.5zM173 604v-250h130q53 0 88 35.5t35 89.5t-35 89.5t-88 35.5h-130zM224 -220l35 154h90l-54 -154h-71z" />
    <glyph glyph-name="uni0157" unicode="&#x157;" horiz-adv-x="355" 
d="M159 418q59 100 167 100v-89q-78 0 -122.5 -47t-44.5 -126v-256h-86v510h86v-92zM48 -220l35 154h90l-54 -154h-71z" />
    <glyph glyph-name="Rcaron" unicode="&#x158;" horiz-adv-x="565" 
d="M335 757h-105l-100 129h82l71 -83l71 83h82zM423 0l-175 274h-75v-274h-92v690h224q92 0 153.5 -60t61.5 -150q0 -77 -47 -132.5t-121 -69.5l182 -278h-111zM173 604v-250h130q53 0 88 35.5t35 89.5t-35 89.5t-88 35.5h-130z" />
    <glyph glyph-name="rcaron" unicode="&#x159;" horiz-adv-x="355" 
d="M250 577h-105l-100 129h82l71 -83l71 83h82zM159 418q59 100 167 100v-89q-78 0 -122.5 -47t-44.5 -126v-256h-86v510h86v-92z" />
    <glyph glyph-name="Sacute" unicode="&#x15a;" horiz-adv-x="532" 
d="M214 757l104 129h110l-122 -129h-92zM266 -12q-95 0 -159.5 59.5t-64.5 147.5h93q0 -53 38.5 -89t94.5 -36q55 0 91.5 31.5t36.5 78.5q0 93 -151 130q-192 47 -192 202q0 81 61 135.5t152 54.5t152 -56.5t61 -141.5h-93q0 50 -34.5 83t-86.5 33q-50 0 -84 -30t-34 -74
q0 -89 141 -125q202 -50 202 -205q0 -85 -64 -141.5t-160 -56.5z" />
    <glyph glyph-name="sacute" unicode="&#x15b;" horiz-adv-x="422" 
d="M158 577l104 129h110l-122 -129h-92zM211 -12q-74 0 -123 45.5t-49 111.5h89q0 -33 24.5 -56t59.5 -23q34 0 57.5 19.5t23.5 48.5q0 62 -100 87q-68 18 -107.5 53.5t-39.5 100.5q0 66 47.5 106.5t117.5 40.5t117.5 -44t47.5 -107h-89q0 30 -22 51.5t-55 21.5
q-31 0 -53 -19t-22 -45q0 -61 100 -85q148 -39 148 -153q0 -69 -49 -111.5t-123 -42.5z" />
    <glyph glyph-name="Scircumflex" unicode="&#x15c;" horiz-adv-x="532" 
d="M267 840l-71 -83h-82l100 129h105l101 -129h-82zM288 391q202 -50 202 -205q0 -85 -64 -141.5t-160 -56.5q-95 0 -159.5 59.5t-64.5 147.5h93q0 -53 38.5 -89t94.5 -36q55 0 91.5 31.5t36.5 78.5q0 93 -151 130q-192 47 -192 202q0 81 61 135.5t152 54.5t152 -56.5
t61 -141.5h-93q0 50 -34.5 83t-86.5 33q-50 0 -84 -30t-34 -74q0 -89 141 -125z" />
    <glyph glyph-name="scircumflex" unicode="&#x15d;" horiz-adv-x="422" 
d="M211 660l-71 -83h-82l100 129h105l101 -129h-82zM235 295q148 -39 148 -153q0 -69 -49 -111.5t-123 -42.5t-123 45.5t-49 111.5h89q0 -33 24.5 -56t59.5 -23q34 0 57.5 19.5t23.5 48.5q0 62 -100 87q-68 18 -107.5 53.5t-39.5 100.5q0 66 47.5 106.5t117.5 40.5
t117.5 -44t47.5 -107h-89q0 30 -22 51.5t-55 21.5q-31 0 -53 -19t-22 -45q0 -61 100 -85z" />
    <glyph glyph-name="Scedilla" unicode="&#x15e;" horiz-adv-x="532" 
d="M490 186q0 -78 -54.5 -132.5t-139.5 -63.5l-20 -25h5q40 0 66 -27t26 -68t-29.5 -69t-73.5 -28t-73.5 28t-29.5 69h54q0 -20 14.5 -34t34.5 -14t34.5 14t14.5 34q0 21 -14.5 35t-34.5 14q-22 0 -34 -14l-50 22l49 63q-84 10 -138.5 67t-54.5 138h93q0 -53 38.5 -89
t94.5 -36q55 0 91.5 31.5t36.5 78.5q0 93 -151 130q-192 47 -192 202q0 81 61 135.5t152 54.5t152 -56.5t61 -141.5h-93q0 50 -34.5 83t-86.5 33q-50 0 -84 -30t-34 -74q0 -89 141 -125q202 -50 202 -205z" />
    <glyph glyph-name="scedilla" unicode="&#x15f;" horiz-adv-x="422" 
d="M383 142q0 -62 -39.5 -103t-102.5 -49l-21 -25h5q40 0 66 -27t26 -68t-29.5 -69t-73.5 -28t-73.5 28t-29.5 69h54q0 -20 14.5 -34t34.5 -14t34.5 14t14.5 34q0 21 -14.5 35t-34.5 14q-22 0 -34 -14l-50 22l49 63q-62 10 -101 53.5t-39 101.5h89q0 -33 24.5 -56t59.5 -23
q34 0 57.5 19.5t23.5 48.5q0 62 -100 87q-68 18 -107.5 53.5t-39.5 100.5q0 66 47.5 106.5t117.5 40.5t117.5 -44t47.5 -107h-89q0 30 -22 51.5t-55 21.5q-31 0 -53 -19t-22 -45q0 -61 100 -85q148 -39 148 -153z" />
    <glyph glyph-name="Scaron" unicode="&#x160;" horiz-adv-x="532" 
d="M319 757h-105l-100 129h82l71 -83l71 83h82zM288 391q202 -50 202 -205q0 -85 -64 -141.5t-160 -56.5q-95 0 -159.5 59.5t-64.5 147.5h93q0 -53 38.5 -89t94.5 -36q55 0 91.5 31.5t36.5 78.5q0 93 -151 130q-192 47 -192 202q0 81 61 135.5t152 54.5t152 -56.5t61 -141.5
h-93q0 50 -34.5 83t-86.5 33q-50 0 -84 -30t-34 -74q0 -89 141 -125z" />
    <glyph glyph-name="scaron" unicode="&#x161;" horiz-adv-x="422" 
d="M263 577h-105l-100 129h82l71 -83l71 83h82zM235 295q148 -39 148 -153q0 -69 -49 -111.5t-123 -42.5t-123 45.5t-49 111.5h89q0 -33 24.5 -56t59.5 -23q34 0 57.5 19.5t23.5 48.5q0 62 -100 87q-68 18 -107.5 53.5t-39.5 100.5q0 66 47.5 106.5t117.5 40.5t117.5 -44
t47.5 -107h-89q0 30 -22 51.5t-55 21.5q-31 0 -53 -19t-22 -45q0 -61 100 -85z" />
    <glyph glyph-name="uni0162" unicode="&#x162;" horiz-adv-x="546" 
d="M319 0h-14l-28 -34h5q40 0 66 -27t26 -68t-29.5 -69t-73.5 -28t-73.5 28t-29.5 69h54q0 -20 14.5 -34t34.5 -14t34.5 14t14.5 34q0 21 -14.5 35t-34.5 14q-22 0 -34 -14l-50 22l56 72h-16v604h-198v86h488v-86h-198v-604z" />
    <glyph glyph-name="uni0163" unicode="&#x163;" horiz-adv-x="397" 
d="M360 432h-143v-353h143v-79h-89l-28 -34h5q40 0 66 -27t26 -68t-29.5 -69t-73.5 -28t-73.5 28t-29.5 69h54q0 -20 14.5 -34t34.5 -14t34.5 14t14.5 34q0 21 -14.5 35t-34.5 14q-22 0 -34 -14l-50 22l56 72h-78v432h-99v78h99v150h86v-150h143v-78z" />
    <glyph glyph-name="Tcaron" unicode="&#x164;" horiz-adv-x="546" 
d="M326 757h-105l-100 129h82l71 -83l71 83h82zM517 690v-86h-198v-604h-92v604h-198v86h488z" />
    <glyph glyph-name="tcaron" unicode="&#x165;" horiz-adv-x="397" 
d="M377 768l-36 -201h-65l21 201h80zM217 660v-150h143v-78h-143v-353h143v-79h-229v432h-99v78h99v150h86z" />
    <glyph glyph-name="Tbar" unicode="&#x166;" horiz-adv-x="546" 
d="M517 604h-198v-245h99v-63h-99v-296h-92v296h-99v63h99v245h-198v86h488v-86z" />
    <glyph glyph-name="tbar" unicode="&#x167;" horiz-adv-x="397" 
d="M360 432h-143v-138h116v-63h-116v-152h143v-79h-229v231h-88v63h88v138h-99v78h99v150h86v-150h143v-78z" />
    <glyph glyph-name="Utilde" unicode="&#x168;" horiz-adv-x="693" 
d="M414 763q-33 0 -69.5 27.5t-56.5 27.5q-21 0 -35 -14.5t-14 -35.5h-62q0 51 27.5 84.5t73.5 33.5q33 0 69.5 -27t56.5 -27q21 0 35 14t14 36h63q0 -52 -27.5 -85.5t-74.5 -33.5zM346 -12q-119 0 -199.5 79t-80.5 197v426h91v-424q0 -81 54 -135.5t135 -54.5
q82 0 136 54.5t54 135.5v424h91v-426q0 -118 -80.5 -197t-200.5 -79z" />
    <glyph glyph-name="utilde" unicode="&#x169;" horiz-adv-x="600" 
d="M238 638q-21 0 -35 -14.5t-14 -35.5h-62q0 51 27.5 84.5t73.5 33.5q33 0 69.5 -27t56.5 -27q21 0 35 14t14 36h63q0 -52 -27.5 -85.5t-74.5 -33.5q-33 0 -69.5 27.5t-56.5 27.5zM441 510h86v-510h-86v80q-59 -92 -176 -92q-89 0 -144 55t-55 146v321h86v-296
q0 -65 38 -104t102 -39q67 0 108 40t41 105v294z" />
    <glyph glyph-name="Umacron" unicode="&#x16a;" horiz-adv-x="693" 
d="M228 772v73h237v-73h-237zM346 -12q-119 0 -199.5 79t-80.5 197v426h91v-424q0 -81 54 -135.5t135 -54.5q82 0 136 54.5t54 135.5v424h91v-426q0 -118 -80.5 -197t-200.5 -79z" />
    <glyph glyph-name="umacron" unicode="&#x16b;" horiz-adv-x="600" 
d="M415 665v-73h-237v73h237zM441 510h86v-510h-86v80q-59 -92 -176 -92q-89 0 -144 55t-55 146v321h86v-296q0 -65 38 -104t102 -39q67 0 108 40t41 105v294z" />
    <glyph glyph-name="Ubreve" unicode="&#x16c;" horiz-adv-x="693" 
d="M346 747q-59 0 -98.5 38t-39.5 95h68q0 -30 20 -50.5t50 -20.5t50 20.5t20 50.5h68q0 -57 -39.5 -95t-98.5 -38zM346 -12q-119 0 -199.5 79t-80.5 197v426h91v-424q0 -81 54 -135.5t135 -54.5q82 0 136 54.5t54 135.5v424h91v-426q0 -118 -80.5 -197t-200.5 -79z" />
    <glyph glyph-name="ubreve" unicode="&#x16d;" horiz-adv-x="600" 
d="M296 567q-59 0 -98.5 38t-39.5 95h68q0 -30 20 -50.5t50 -20.5t50 20.5t20 50.5h68q0 -57 -39.5 -95t-98.5 -38zM441 510h86v-510h-86v80q-59 -92 -176 -92q-89 0 -144 55t-55 146v321h86v-296q0 -65 38 -104t102 -39q67 0 108 40t41 105v294z" />
    <glyph glyph-name="Uring" unicode="&#x16e;" horiz-adv-x="693" 
d="M346 743q-37 0 -62 24.5t-25 61.5q0 36 25 60.5t62 24.5t62 -24.5t25 -60.5q0 -37 -25 -61.5t-62 -24.5zM346 788q17 0 28 11.5t11 29.5q0 17 -11 28.5t-28 11.5t-28 -11.5t-11 -28.5q0 -18 11 -29.5t28 -11.5zM346 -12q-119 0 -199.5 79t-80.5 197v426h91v-424
q0 -81 54 -135.5t135 -54.5q82 0 136 54.5t54 135.5v424h91v-426q0 -118 -80.5 -197t-200.5 -79z" />
    <glyph glyph-name="uring" unicode="&#x16f;" horiz-adv-x="600" 
d="M296 563q-37 0 -62 24.5t-25 61.5q0 36 25 60.5t62 24.5t62 -24.5t25 -60.5q0 -37 -25 -61.5t-62 -24.5zM296 689q-17 0 -28 -11.5t-11 -28.5q0 -18 11 -29.5t28 -11.5t28 11.5t11 29.5q0 17 -11 28.5t-28 11.5zM441 510h86v-510h-86v80q-59 -92 -176 -92q-89 0 -144 55
t-55 146v321h86v-296q0 -65 38 -104t102 -39q67 0 108 40t41 105v294z" />
    <glyph glyph-name="Uhungarumlaut" unicode="&#x170;" horiz-adv-x="693" 
d="M204 757l82 129h96l-94 -129h-84zM399 757l82 129h96l-95 -129h-83zM346 -12q-119 0 -199.5 79t-80.5 197v426h91v-424q0 -81 54 -135.5t135 -54.5q82 0 136 54.5t54 135.5v424h91v-426q0 -118 -80.5 -197t-200.5 -79z" />
    <glyph glyph-name="uhungarumlaut" unicode="&#x171;" horiz-adv-x="600" 
d="M332 706l-94 -129h-84l82 129h96zM527 706l-95 -129h-83l82 129h96zM441 216v294h86v-510h-86v80q-59 -92 -176 -92q-89 0 -144 55t-55 146v321h86v-296q0 -65 38 -104t102 -39q67 0 108 40t41 105z" />
    <glyph glyph-name="Uogonek" unicode="&#x172;" horiz-adv-x="693" 
d="M536 690h91v-426q0 -93 -52 -164t-137 -98q-91 -46 -91 -101q0 -23 15.5 -37.5t38.5 -14.5q35 0 63 23v-64q-34 -22 -80 -22q-45 0 -75.5 28t-30.5 69q0 60 63 105q-118 2 -196.5 81t-78.5 195v426h91v-424q0 -81 54 -135.5t135 -54.5q82 0 136 54.5t54 135.5v424z" />
    <glyph glyph-name="uogonek" unicode="&#x173;" horiz-adv-x="600" 
d="M474 -160q35 0 63 23v-64q-34 -22 -80 -22q-45 0 -75.5 28t-30.5 69q0 39 27.5 72.5t73.5 53.5h-11v80q-59 -92 -176 -92q-89 0 -144 55t-55 146v321h86v-296q0 -65 38 -104t102 -39q67 0 108 40t41 105v294h86v-510h-1q-106 -47 -106 -108q0 -23 15.5 -37.5t38.5 -14.5z
" />
    <glyph glyph-name="Wcircumflex" unicode="&#x174;" horiz-adv-x="1124" 
d="M562 840l-71 -83h-82l100 129h105l101 -129h-82zM1000 690h99l-248 -690h-94l-195 557l-195 -557h-94l-248 690h101l196 -570l199 570h84l199 -570z" />
    <glyph glyph-name="wcircumflex" unicode="&#x175;" horiz-adv-x="903" 
d="M457 660l-71 -83h-82l100 129h105l101 -129h-82zM790 510h95l-194 -510h-90l-149 411l-149 -411h-90l-194 510h97l144 -408l149 408h89l148 -405z" />
    <glyph glyph-name="Ycircumflex" unicode="&#x176;" horiz-adv-x="677" 
d="M339 840l-71 -83h-82l100 129h105l101 -129h-82zM564 690h102l-282 -435v-255h-91v255l-282 435h104l225 -345z" />
    <glyph glyph-name="ycircumflex" unicode="&#x177;" horiz-adv-x="568" 
d="M286 660l-71 -83h-82l100 129h105l101 -129h-82zM457 510h96l-307 -700h-163v79h103l51 113l-222 508h98l172 -407z" />
    <glyph glyph-name="Ydieresis" unicode="&#x178;" horiz-adv-x="677" 
d="M235 762q-23 0 -38 15t-15 38t15 38t38 15t38.5 -15.5t15.5 -37.5t-15.5 -37.5t-38.5 -15.5zM442 762q-22 0 -37.5 15t-15.5 38t15.5 38t37.5 15q23 0 38.5 -15.5t15.5 -37.5t-15.5 -37.5t-38.5 -15.5zM564 690h102l-282 -435v-255h-91v255l-282 435h104l225 -345z" />
    <glyph glyph-name="Zacute" unicode="&#x179;" horiz-adv-x="614" 
d="M467 886l-122 -129h-92l104 129h110zM166 86h407v-86h-532v66l400 538h-396v86h521v-66z" />
    <glyph glyph-name="zacute" unicode="&#x17a;" horiz-adv-x="500" 
d="M411 706l-122 -129h-92l104 129h110zM164 83h292v-83h-412v62l285 365h-281v83h401v-62z" />
    <glyph glyph-name="Zdotaccent" unicode="&#x17b;" horiz-adv-x="614" 
d="M306 762q-24 0 -40 16t-16 39t16 39t40 16q23 0 39 -16t16 -39t-16 -39t-39 -16zM166 86h407v-86h-532v66l400 538h-396v86h521v-66z" />
    <glyph glyph-name="zdotaccent" unicode="&#x17c;" horiz-adv-x="500" 
d="M250 582q-24 0 -40 16t-16 39t16 39t40 16q23 0 39 -16t16 -39t-16 -39t-39 -16zM164 83h292v-83h-412v62l285 365h-281v83h401v-62z" />
    <glyph glyph-name="Zcaron" unicode="&#x17d;" horiz-adv-x="614" 
d="M358 757h-105l-100 129h82l71 -83l71 83h82zM166 86h407v-86h-532v66l400 538h-396v86h521v-66z" />
    <glyph glyph-name="zcaron" unicode="&#x17e;" horiz-adv-x="500" 
d="M302 577h-105l-100 129h82l71 -83l71 83h82zM164 83h292v-83h-412v62l285 365h-281v83h401v-62z" />
    <glyph glyph-name="florin" unicode="&#x192;" horiz-adv-x="449" 
d="M424 602q-55 0 -85 -25.5t-40 -82.5l-18 -107h111v-80h-125l-57 -328q-16 -88 -68 -128.5t-148 -40.5v88q55 0 85 25.5t40 82.5l53 301h-106v80h120l23 134q15 88 67 128.5t148 40.5v-88z" />
    <glyph glyph-name="uni01C4" unicode="&#x1c4;" horiz-adv-x="1321" 
d="M1066 757h-106l-100 129h82l71 -83l71 83h82zM347 690q150 0 250 -98.5t100 -246.5t-100 -246.5t-250 -98.5h-266v690h266zM873 86h407v-86h-532v66l400 538h-396v86h521v-66zM346 86q110 0 183.5 74t73.5 185t-73.5 185t-183.5 74h-173v-518h173z" />
    <glyph glyph-name="uni01C5" unicode="&#x1c5;" horiz-adv-x="1241" 
d="M1043 577h-105l-100 129h82l71 -83l71 83h82zM347 690q150 0 250 -98.5t100 -246.5t-100 -246.5t-250 -98.5h-266v690h266zM346 86q110 0 183.5 74t73.5 185t-73.5 185t-183.5 74h-173v-518h173zM905 83h292v-83h-412v62l285 365h-281v83h401v-62z" />
    <glyph glyph-name="uni01C6" unicode="&#x1c6;" horiz-adv-x="1154" 
d="M495 413v307h86v-720h-86v97q-32 -51 -83.5 -80t-114.5 -29q-109 0 -182 76.5t-73 190.5t73 190.5t182 76.5q63 0 114.5 -29t83.5 -80zM956 577h-105l-100 129h82l71 -83l71 83h82zM818 83h292v-83h-412v62l285 365h-281v83h401v-62zM313 71q78 0 130 52.5t52 131.5
t-52 131.5t-130 52.5q-79 0 -131 -52.5t-52 -131.5t52 -131.5t131 -52.5z" />
    <glyph glyph-name="uni01C7" unicode="&#x1c7;" horiz-adv-x="957" 
d="M173 690v-604h265v-86h-357v690h92zM784 690h91v-690h-357v86h266v604z" />
    <glyph glyph-name="uni01C8" unicode="&#x1c8;" horiz-adv-x="705" 
d="M589 612q-24 0 -40.5 16.5t-16.5 40.5q0 25 16.5 41t40.5 16q25 0 41.5 -16t16.5 -41q0 -24 -16.5 -40.5t-41.5 -16.5zM173 690v-604h265v-86h-357v690h92zM546 -123v633h86v-712h-184v79h98z" />
    <glyph glyph-name="uni01C9" unicode="&#x1c9;" horiz-adv-x="506" 
d="M390 612q-24 0 -40.5 16.5t-16.5 40.5q0 25 16.5 41t40.5 16q25 0 41.5 -16t16.5 -41q0 -24 -16.5 -40.5t-41.5 -16.5zM253 79v-79h-180v720h86v-641h94zM347 -123v633h86v-712h-184v79h98z" />
    <glyph glyph-name="uni01CA" unicode="&#x1ca;" horiz-adv-x="1207" 
d="M566 151v539h91v-690h-94l-390 537v-537h-92v690h95zM1035 690h91v-690h-357v86h266v604z" />
    <glyph glyph-name="uni01CB" unicode="&#x1cb;" horiz-adv-x="976" 
d="M860 612q-24 0 -40.5 16.5t-16.5 40.5q0 25 16.5 41t40.5 16q25 0 41.5 -16t16.5 -41q0 -24 -16.5 -40.5t-41.5 -16.5zM566 151v539h91v-690h-94l-390 537v-537h-92v690h95zM817 -123v633h86v-712h-184v79h98z" />
    <glyph glyph-name="uni01CC" unicode="&#x1cc;" horiz-adv-x="853" 
d="M737 612q-24 0 -40.5 16.5t-16.5 40.5q0 25 16.5 41t40.5 16q25 0 41.5 -16t16.5 -41q0 -24 -16.5 -40.5t-41.5 -16.5zM343 522q93 0 150 -56.5t57 -150.5v-315h-86v288q0 68 -40.5 109.5t-108.5 41.5q-70 0 -113 -42t-43 -111v-286h-86v510h86v-82q61 94 184 94z
M694 -123v633h86v-712h-184v79h98z" />
    <glyph glyph-name="uni01CD" unicode="&#x1cd;" horiz-adv-x="713" 
d="M408 757h-105l-100 129h82l71 -83l71 83h82zM591 0l-67 167h-338l-67 -167h-98l281 690h109l281 -690h-101zM220 252h270l-135 339z" />
    <glyph glyph-name="uni01CE" unicode="&#x1ce;" horiz-adv-x="538" 
d="M317 577h-105l-100 129h82l71 -83l71 83h82zM458 78h67v-78h-144v66q-24 -36 -66.5 -57t-94.5 -21q-79 0 -131.5 48.5t-52.5 121.5q0 72 52.5 120.5t131.5 48.5h152v100h-302v83h388v-432zM231 66q63 0 102 28t39 73v82h-141q-46 0 -76 -26t-30 -65q0 -40 30 -66t76 -26z
" />
    <glyph glyph-name="Gcaron" unicode="&#x1e6;" horiz-adv-x="825" 
d="M458 757h-105l-100 129h82l71 -83l71 83h82zM419 367h344v-367h-80v138q-39 -71 -110.5 -110.5t-166.5 -39.5q-154 0 -257.5 102.5t-103.5 254.5t103.5 254.5t257.5 102.5q123 0 216.5 -66.5t123.5 -172.5h-101q-30 69 -94 110t-145 41q-114 0 -190.5 -77t-76.5 -192
t76.5 -192t190.5 -77q99 0 171 58t89 150h-247v83z" />
    <glyph glyph-name="gcaron" unicode="&#x1e7;" horiz-adv-x="655" 
d="M380 577h-105l-100 129h82l71 -83l71 83h82zM496 510h86v-700h-490v79h404v216q-32 -50 -83.5 -78.5t-115.5 -28.5q-109 0 -182 74.5t-73 187.5q0 112 73 187t182 75q63 0 115 -29t84 -79v96zM314 76q78 0 130 52.5t52 131.5q0 78 -52 130.5t-130 52.5q-79 0 -131 -52.5
t-52 -130.5q0 -79 52 -131.5t131 -52.5z" />
    <glyph glyph-name="uni01EA" unicode="&#x1ea;" horiz-adv-x="812" 
d="M514 3q-93 -46 -93 -102q0 -23 15.5 -37.5t38.5 -14.5q35 0 63 23v-64q-34 -22 -80 -22q-45 0 -75.5 28t-30.5 69q0 60 63 105h-9q-154 0 -257.5 102.5t-103.5 254.5t103.5 254.5t257.5 102.5t257.5 -102.5t103.5 -254.5q0 -123 -69.5 -216t-183.5 -126zM139 345
q0 -115 76.5 -192t190.5 -77t190.5 77t76.5 192t-76.5 192t-190.5 77t-190.5 -77t-76.5 -192z" />
    <glyph glyph-name="uni01EB" unicode="&#x1eb;" horiz-adv-x="623" 
d="M399 1q-89 -44 -89 -100q0 -23 15.5 -37.5t38.5 -14.5q35 0 63 23v-64q-34 -22 -80 -22q-45 0 -75.5 28t-30.5 69q0 62 63 105q-113 3 -188.5 79t-75.5 188q0 114 78 190.5t194 76.5t193.5 -76.5t77.5 -190.5q0 -90 -50.5 -158.5t-133.5 -95.5zM129 255q0 -79 52 -131.5
t131 -52.5q78 0 130 52.5t52 131.5t-52 131.5t-130 52.5q-79 0 -131 -52.5t-52 -131.5z" />
    <glyph glyph-name="uni01F1" unicode="&#x1f1;" horiz-adv-x="1321" 
d="M347 690q150 0 250 -98.5t100 -246.5t-100 -246.5t-250 -98.5h-266v690h266zM873 86h407v-86h-532v66l400 538h-396v86h521v-66zM346 86q110 0 183.5 74t73.5 185t-73.5 185t-183.5 74h-173v-518h173z" />
    <glyph glyph-name="uni01F2" unicode="&#x1f2;" horiz-adv-x="1241" 
d="M347 690q150 0 250 -98.5t100 -246.5t-100 -246.5t-250 -98.5h-266v690h266zM346 86q110 0 183.5 74t73.5 185t-73.5 185t-183.5 74h-173v-518h173zM905 83h292v-83h-412v62l285 365h-281v83h401v-62z" />
    <glyph glyph-name="uni01F3" unicode="&#x1f3;" horiz-adv-x="1154" 
d="M495 413v307h86v-720h-86v97q-32 -51 -83.5 -80t-114.5 -29q-109 0 -182 76.5t-73 190.5t73 190.5t182 76.5q63 0 114.5 -29t83.5 -80zM818 83h292v-83h-412v62l285 365h-281v83h401v-62zM313 71q78 0 130 52.5t52 131.5t-52 131.5t-130 52.5q-79 0 -131 -52.5
t-52 -131.5t52 -131.5t131 -52.5z" />
    <glyph glyph-name="uni01F4" unicode="&#x1f4;" horiz-adv-x="825" 
d="M567 886l-122 -129h-92l104 129h110zM419 367h344v-367h-80v138q-39 -71 -110.5 -110.5t-166.5 -39.5q-154 0 -257.5 102.5t-103.5 254.5t103.5 254.5t257.5 102.5q123 0 216.5 -66.5t123.5 -172.5h-101q-30 69 -94 110t-145 41q-114 0 -190.5 -77t-76.5 -192t76.5 -192
t190.5 -77q99 0 171 58t89 150h-247v83z" />
    <glyph glyph-name="uni01F5" unicode="&#x1f5;" horiz-adv-x="655" 
d="M489 706l-122 -129h-92l104 129h110zM496 510h86v-700h-490v79h404v216q-32 -50 -83.5 -78.5t-115.5 -28.5q-109 0 -182 74.5t-73 187.5q0 112 73 187t182 75q63 0 115 -29t84 -79v96zM314 76q78 0 130 52.5t52 131.5q0 78 -52 130.5t-130 52.5q-79 0 -131 -52.5
t-52 -130.5q0 -79 52 -131.5t131 -52.5z" />
    <glyph glyph-name="AEacute" unicode="&#x1fc;" horiz-adv-x="872" 
d="M652 886l-122 -129h-92l104 129h110zM531 86h296v-86h-387v166h-260l-100 -166h-105l419 690h428v-86h-291v-214h258v-86h-258v-218zM231 250h209v346z" />
    <glyph glyph-name="aeacute" unicode="&#x1fd;" horiz-adv-x="949" 
d="M616 706l-122 -129h-92l104 129h110zM912 258q0 -24 -3 -39h-448q11 -68 61 -110t119 -42q57 0 101.5 26.5t64.5 69.5h94q-28 -79 -98 -127t-162 -48q-131 0 -210 97q-24 -43 -78.5 -70t-125.5 -27q-87 0 -139 43.5t-52 111.5q0 66 46.5 109.5t116.5 43.5h174v131h-303
v83h383v-61q76 73 188 73q116 0 193.5 -76.5t77.5 -187.5zM641 443q-68 0 -117 -40.5t-62 -106.5h358q-11 65 -61 106t-118 41zM233 66q55 0 100 22.5t61 59.5q-15 36 -19 71h-165q-37 0 -61 -21.5t-24 -54.5q0 -34 28 -55.5t80 -21.5z" />
    <glyph glyph-name="Oslashacute" unicode="&#x1fe;" horiz-adv-x="812" 
d="M578 886l-122 -129h-92l104 129h110zM666 597q101 -103 101 -252q0 -152 -103.5 -254.5t-257.5 -102.5q-123 0 -215 67l-48 -55h-79l82 93q-101 103 -101 252q0 152 103.5 254.5t257.5 102.5q123 0 215 -67l48 55h79zM139 345q0 -108 68 -182l354 404q-67 47 -155 47
q-114 0 -190.5 -77t-76.5 -192zM406 76q114 0 190.5 77t76.5 192q0 108 -68 182l-354 -404q67 -47 155 -47z" />
    <glyph glyph-name="oslashacute" unicode="&#x1ff;" horiz-adv-x="623" 
d="M479 706l-122 -129h-92l104 129h110zM510 441q73 -76 73 -186q0 -114 -77.5 -190.5t-193.5 -76.5q-92 0 -162 50l-34 -38h-65l62 69q-73 76 -73 186q0 114 78 190.5t194 76.5q92 0 161 -50l34 38h65zM129 255q0 -69 42 -121l245 274q-45 31 -104 31q-79 0 -131 -52.5
t-52 -131.5zM312 71q78 0 130 52.5t52 131.5q0 69 -42 121l-245 -274q45 -31 105 -31z" />
    <glyph glyph-name="uni0200" unicode="&#x200;" horiz-adv-x="713" 
d="M303 757h-83l-95 129h96zM498 757h-83l-95 129h96zM591 0l-67 167h-338l-67 -167h-98l281 690h109l281 -690h-101zM220 252h270l-135 339z" />
    <glyph glyph-name="uni0201" unicode="&#x201;" horiz-adv-x="538" 
d="M211 577h-83l-95 129h96zM406 577h-83l-95 129h96zM458 78h67v-78h-144v66q-24 -36 -66.5 -57t-94.5 -21q-79 0 -131.5 48.5t-52.5 121.5q0 72 52.5 120.5t131.5 48.5h152v100h-302v83h388v-432zM231 66q63 0 102 28t39 73v82h-141q-46 0 -76 -26t-30 -65q0 -40 30 -66
t76 -26z" />
    <glyph glyph-name="uni0202" unicode="&#x202;" horiz-adv-x="713" 
d="M356 822q-30 0 -50 -20t-20 -51h-68q0 57 39.5 95.5t98.5 38.5t98.5 -38.5t39.5 -95.5h-68q0 31 -20 51t-50 20zM591 0l-67 167h-338l-67 -167h-98l281 690h109l281 -690h-101zM220 252h270l-135 339z" />
    <glyph glyph-name="uni0203" unicode="&#x203;" horiz-adv-x="538" 
d="M264 642q-30 0 -50 -20t-20 -51h-68q0 57 39.5 95.5t98.5 38.5t98.5 -38.5t39.5 -95.5h-68q0 31 -20 51t-50 20zM458 78h67v-78h-144v66q-24 -36 -66.5 -57t-94.5 -21q-79 0 -131.5 48.5t-52.5 121.5q0 72 52.5 120.5t131.5 48.5h152v100h-302v83h388v-432zM231 66
q63 0 102 28t39 73v82h-141q-46 0 -76 -26t-30 -65q0 -40 30 -66t76 -26z" />
    <glyph glyph-name="uni0204" unicode="&#x204;" horiz-adv-x="513" 
d="M219 757h-83l-95 129h96zM414 757h-83l-95 129h96zM173 86h295v-86h-387v690h382v-86h-290v-214h257v-86h-257v-218z" />
    <glyph glyph-name="uni0205" unicode="&#x205;" horiz-adv-x="619" 
d="M258 577h-83l-95 129h96zM453 577h-83l-95 129h96zM582 255q0 -16 -2 -36h-448q11 -68 60.5 -110t118.5 -42q57 0 101.5 26.5t64.5 69.5h95q-28 -79 -98 -127t-163 -48q-116 0 -193.5 76.5t-77.5 190.5t77.5 190.5t193.5 76.5t193.5 -76.5t77.5 -190.5zM311 443
q-68 0 -116.5 -40.5t-61.5 -106.5h357q-12 65 -61.5 106t-117.5 41z" />
    <glyph glyph-name="uni0206" unicode="&#x206;" horiz-adv-x="513" 
d="M272 822q-30 0 -50 -20t-20 -51h-68q0 57 39.5 95.5t98.5 38.5t98.5 -38.5t39.5 -95.5h-68q0 31 -20 51t-50 20zM173 86h295v-86h-387v690h382v-86h-290v-214h257v-86h-257v-218z" />
    <glyph glyph-name="uni0207" unicode="&#x207;" horiz-adv-x="619" 
d="M311 642q-30 0 -50 -20t-20 -51h-68q0 57 39.5 95.5t98.5 38.5t98.5 -38.5t39.5 -95.5h-68q0 31 -20 51t-50 20zM582 255q0 -16 -2 -36h-448q11 -68 60.5 -110t118.5 -42q57 0 101.5 26.5t64.5 69.5h95q-28 -79 -98 -127t-163 -48q-116 0 -193.5 76.5t-77.5 190.5
t77.5 190.5t193.5 76.5t193.5 -76.5t77.5 -190.5zM311 443q-68 0 -116.5 -40.5t-61.5 -106.5h357q-12 65 -61.5 106t-117.5 41z" />
    <glyph glyph-name="uni0208" unicode="&#x208;" horiz-adv-x="353" 
d="M124 757h-83l-95 129h96zM319 757h-83l-95 129h96zM38 604v86h277v-86h-93v-518h93v-86h-277v86h93v518h-93z" />
    <glyph glyph-name="uni0209" unicode="&#x209;" horiz-adv-x="231" 
d="M-21 577l-95 129h96l82 -129h-83zM174 577l-95 129h96l82 -129h-83zM73 0v510h86v-510h-86z" />
    <glyph glyph-name="uni020A" unicode="&#x20a;" horiz-adv-x="353" 
d="M177 822q-30 0 -50 -20t-20 -51h-68q0 57 39.5 95.5t98.5 38.5t98.5 -38.5t39.5 -95.5h-68q0 31 -20 51t-50 20zM38 604v86h277v-86h-93v-518h93v-86h-277v86h93v518h-93z" />
    <glyph glyph-name="uni020B" unicode="&#x20b;" horiz-adv-x="231" 
d="M-22 571q0 57 39.5 95.5t98.5 38.5t98.5 -38.5t39.5 -95.5h-68q0 31 -20 51t-50 20t-50 -20t-20 -51h-68zM73 0v510h86v-510h-86z" />
    <glyph glyph-name="uni020C" unicode="&#x20c;" horiz-adv-x="812" 
d="M270 757l-95 129h96l82 -129h-83zM465 757l-95 129h96l82 -129h-83zM406 -12q-154 0 -257.5 102.5t-103.5 254.5t103.5 254.5t257.5 102.5t257.5 -102.5t103.5 -254.5t-103.5 -254.5t-257.5 -102.5zM406 76q114 0 190.5 77t76.5 192t-76.5 192t-190.5 77t-190.5 -77
t-76.5 -192t76.5 -192t190.5 -77z" />
    <glyph glyph-name="uni020D" unicode="&#x20d;" horiz-adv-x="623" 
d="M175 577l-95 129h96l82 -129h-83zM370 577l-95 129h96l82 -129h-83zM312 -12q-116 0 -194 76.5t-78 190.5t78 190.5t194 76.5t193.5 -76.5t77.5 -190.5t-77.5 -190.5t-193.5 -76.5zM312 71q78 0 130 52.5t52 131.5t-52 131.5t-130 52.5q-79 0 -131 -52.5t-52 -131.5
t52 -131.5t131 -52.5z" />
    <glyph glyph-name="uni020E" unicode="&#x20e;" horiz-adv-x="812" 
d="M268 751q0 57 39.5 95.5t98.5 38.5t98.5 -38.5t39.5 -95.5h-68q0 31 -20 51t-50 20t-50 -20t-20 -51h-68zM406 -12q-154 0 -257.5 102.5t-103.5 254.5t103.5 254.5t257.5 102.5t257.5 -102.5t103.5 -254.5t-103.5 -254.5t-257.5 -102.5zM406 76q114 0 190.5 77t76.5 192
t-76.5 192t-190.5 77t-190.5 -77t-76.5 -192t76.5 -192t190.5 -77z" />
    <glyph glyph-name="uni020F" unicode="&#x20f;" horiz-adv-x="623" 
d="M173 571q0 57 39.5 95.5t98.5 38.5t98.5 -38.5t39.5 -95.5h-68q0 31 -20 51t-50 20t-50 -20t-20 -51h-68zM312 -12q-116 0 -194 76.5t-78 190.5t78 190.5t194 76.5t193.5 -76.5t77.5 -190.5t-77.5 -190.5t-193.5 -76.5zM312 71q78 0 130 52.5t52 131.5t-52 131.5
t-130 52.5q-79 0 -131 -52.5t-52 -131.5t52 -131.5t131 -52.5z" />
    <glyph glyph-name="uni0210" unicode="&#x210;" horiz-adv-x="565" 
d="M229 757h-83l-95 129h96zM424 757h-83l-95 129h96zM423 0l-175 274h-75v-274h-92v690h224q92 0 153.5 -60t61.5 -150q0 -77 -47 -132.5t-121 -69.5l182 -278h-111zM173 604v-250h130q53 0 88 35.5t35 89.5t-35 89.5t-88 35.5h-130z" />
    <glyph glyph-name="uni0211" unicode="&#x211;" horiz-adv-x="355" 
d="M62 706l82 -129h-83l-95 129h96zM339 577h-83l-95 129h96zM159 418q59 100 167 100v-89q-78 0 -122.5 -47t-44.5 -126v-256h-86v510h86v-92z" />
    <glyph glyph-name="uni0212" unicode="&#x212;" horiz-adv-x="565" 
d="M282 822q-30 0 -50 -20t-20 -51h-68q0 57 39.5 95.5t98.5 38.5t98.5 -38.5t39.5 -95.5h-68q0 31 -20 51t-50 20zM423 0l-175 274h-75v-274h-92v690h224q92 0 153.5 -60t61.5 -150q0 -77 -47 -132.5t-121 -69.5l182 -278h-111zM173 604v-250h130q53 0 88 35.5t35 89.5
t-35 89.5t-88 35.5h-130z" />
    <glyph glyph-name="uni0213" unicode="&#x213;" horiz-adv-x="355" 
d="M198 642q-30 0 -50 -20t-20 -51h-68q0 57 39.5 95.5t98.5 38.5t98.5 -38.5t39.5 -95.5h-68q0 31 -20 51t-50 20zM159 418q59 100 167 100v-89q-78 0 -122.5 -47t-44.5 -126v-256h-86v510h86v-92z" />
    <glyph glyph-name="uni0214" unicode="&#x214;" horiz-adv-x="693" 
d="M210 757l-95 129h96l82 -129h-83zM405 757l-95 129h96l82 -129h-83zM346 -12q-119 0 -199.5 79t-80.5 197v426h91v-424q0 -81 54 -135.5t135 -54.5q82 0 136 54.5t54 135.5v424h91v-426q0 -118 -80.5 -197t-200.5 -79z" />
    <glyph glyph-name="uni0215" unicode="&#x215;" horiz-adv-x="600" 
d="M243 577h-83l-95 129h96zM438 577h-83l-95 129h96zM441 510h86v-510h-86v80q-59 -92 -176 -92q-89 0 -144 55t-55 146v321h86v-296q0 -65 38 -104t102 -39q67 0 108 40t41 105v294z" />
    <glyph glyph-name="uni0216" unicode="&#x216;" horiz-adv-x="693" 
d="M208 751q0 57 39.5 95.5t98.5 38.5t98.5 -38.5t39.5 -95.5h-68q0 31 -20 51t-50 20t-50 -20t-20 -51h-68zM346 -12q-119 0 -199.5 79t-80.5 197v426h91v-424q0 -81 54 -135.5t135 -54.5q82 0 136 54.5t54 135.5v424h91v-426q0 -118 -80.5 -197t-200.5 -79z" />
    <glyph glyph-name="uni0217" unicode="&#x217;" horiz-adv-x="600" 
d="M296 642q-30 0 -50 -20t-20 -51h-68q0 57 39.5 95.5t98.5 38.5t98.5 -38.5t39.5 -95.5h-68q0 31 -20 51t-50 20zM441 510h86v-510h-86v80q-59 -92 -176 -92q-89 0 -144 55t-55 146v321h86v-296q0 -65 38 -104t102 -39q67 0 108 40t41 105v294z" />
    <glyph glyph-name="uni0218" unicode="&#x218;" horiz-adv-x="532" 
d="M266 -12q-95 0 -159.5 59.5t-64.5 147.5h93q0 -53 38.5 -89t94.5 -36q55 0 91.5 31.5t36.5 78.5q0 93 -151 130q-192 47 -192 202q0 81 61 135.5t152 54.5t152 -56.5t61 -141.5h-93q0 50 -34.5 83t-86.5 33q-50 0 -84 -30t-34 -74q0 -89 141 -125q202 -50 202 -205
q0 -85 -64 -141.5t-160 -56.5zM198 -220l35 154h90l-54 -154h-71z" />
    <glyph glyph-name="uni0219" unicode="&#x219;" horiz-adv-x="422" 
d="M211 -12q-74 0 -123 45.5t-49 111.5h89q0 -33 24.5 -56t59.5 -23q34 0 57.5 19.5t23.5 48.5q0 62 -100 87q-68 18 -107.5 53.5t-39.5 100.5q0 66 47.5 106.5t117.5 40.5t117.5 -44t47.5 -107h-89q0 30 -22 51.5t-55 21.5q-31 0 -53 -19t-22 -45q0 -61 100 -85
q148 -39 148 -153q0 -69 -49 -111.5t-123 -42.5zM142 -220l35 154h90l-54 -154h-71z" />
    <glyph glyph-name="uni021A" unicode="&#x21a;" horiz-adv-x="546" 
d="M29 690h488v-86h-198v-604h-92v604h-198v86zM205 -220l35 154h90l-54 -154h-71z" />
    <glyph glyph-name="uni021B" unicode="&#x21b;" horiz-adv-x="397" 
d="M360 432h-143v-353h143v-79h-229v432h-99v78h99v150h86v-150h143v-78zM171 -220l35 154h90l-54 -154h-71z" />
    <glyph glyph-name="uni0232" unicode="&#x232;" horiz-adv-x="677" 
d="M457 845v-73h-237v73h237zM564 690h102l-282 -435v-255h-91v255l-282 435h104l225 -345z" />
    <glyph glyph-name="uni0233" unicode="&#x233;" horiz-adv-x="568" 
d="M404 665v-73h-237v73h237zM457 510h96l-307 -700h-163v79h103l51 113l-222 508h98l172 -407z" />
    <glyph glyph-name="uni0237" unicode="&#x237;" horiz-adv-x="237" 
d="M78 510h86v-712h-184v79h98v633z" />
    <glyph glyph-name="uni02BC" unicode="&#x2bc;" horiz-adv-x="101" 
d="M0 519l21 201h80l-36 -201h-65z" />
    <glyph glyph-name="circumflex" unicode="&#x2c6;" horiz-adv-x="306" 
d="M306 577h-82l-71 83l-71 -83h-82l100 129h105z" />
    <glyph glyph-name="caron" unicode="&#x2c7;" horiz-adv-x="306" 
d="M224 706h82l-101 -129h-105l-100 129h82l71 -83z" />
    <glyph glyph-name="breve" unicode="&#x2d8;" horiz-adv-x="276" 
d="M138 567q-59 0 -98.5 38t-39.5 95h68q0 -30 20 -50.5t50 -20.5t50 20.5t20 50.5h68q0 -57 -39.5 -95t-98.5 -38z" />
    <glyph glyph-name="dotaccent" unicode="&#x2d9;" horiz-adv-x="111" 
d="M56 582q-24 0 -40 16t-16 39t16 39t40 16q23 0 39 -16t16 -39t-16 -39t-39 -16z" />
    <glyph glyph-name="ring" unicode="&#x2da;" horiz-adv-x="174" 
d="M87 563q-37 0 -62 24.5t-25 61.5q0 36 25 60.5t62 24.5t62 -24.5t25 -60.5q0 -37 -25 -61.5t-62 -24.5zM87 608q17 0 28 11.5t11 29.5q0 17 -11 28.5t-28 11.5t-28 -11.5t-11 -28.5q0 -18 11 -29.5t28 -11.5z" />
    <glyph glyph-name="ogonek" unicode="&#x2db;" horiz-adv-x="195" 
d="M106 -223q-45 0 -75.5 28t-30.5 69t29.5 75.5t78.5 53.5h65l2 -3q-106 -47 -106 -108q0 -23 15.5 -37.5t38.5 -14.5q35 0 63 23v-64q-34 -22 -80 -22z" />
    <glyph glyph-name="tilde" unicode="&#x2dc;" horiz-adv-x="339" 
d="M237 583q-33 0 -69.5 27.5t-56.5 27.5q-21 0 -35 -14.5t-14 -35.5h-62q0 51 27.5 84.5t73.5 33.5q33 0 69.5 -27t56.5 -27q21 0 35 14t14 36h63q0 -52 -27.5 -85.5t-74.5 -33.5z" />
    <glyph glyph-name="hungarumlaut" unicode="&#x2dd;" horiz-adv-x="373" 
d="M0 577l82 129h96l-94 -129h-84zM195 577l82 129h96l-95 -129h-83z" />
    <glyph glyph-name="gravecomb" unicode="&#x300;" 
d="M-91 577l-123 129h111l103 -129h-91z" />
    <glyph glyph-name="acutecomb" unicode="&#x301;" 
d="M-214 577l104 129h110l-122 -129h-92z" />
    <glyph glyph-name="uni0302" unicode="&#x302;" 
d="M0 577h-82l-71 83l-71 -83h-82l100 129h105z" />
    <glyph glyph-name="tildecomb" unicode="&#x303;" 
d="M-102 583q-33 0 -69.5 27.5t-56.5 27.5q-21 0 -35 -14.5t-14 -35.5h-62q0 51 27.5 84.5t73.5 33.5q33 0 69.5 -27t56.5 -27q21 0 35 14t14 36h63q0 -52 -27.5 -85.5t-74.5 -33.5z" />
    <glyph glyph-name="uni0304" unicode="&#x304;" 
d="M-237 592v73h237v-73h-237z" />
    <glyph glyph-name="uni0306" unicode="&#x306;" 
d="M-138 567q-59 0 -98.5 38t-39.5 95h68q0 -30 20 -50.5t50 -20.5t50 20.5t20 50.5h68q0 -57 -39.5 -95t-98.5 -38z" />
    <glyph glyph-name="uni0307" unicode="&#x307;" 
d="M-55 582q-24 0 -40 16t-16 39t16 39t40 16q23 0 39 -16t16 -39t-16 -39t-39 -16z" />
    <glyph glyph-name="uni0308" unicode="&#x308;" 
d="M-261 582q-23 0 -38 15t-15 38t15 38t38 15t38.5 -15.5t15.5 -37.5t-15.5 -37.5t-38.5 -15.5zM-54 582q-22 0 -37.5 15t-15.5 38t15.5 38t37.5 15q23 0 38.5 -15.5t15.5 -37.5t-15.5 -37.5t-38.5 -15.5z" />
    <glyph glyph-name="uni030A" unicode="&#x30a;" 
d="M-87 563q-37 0 -62 24.5t-25 61.5q0 36 25 60.5t62 24.5t62 -24.5t25 -60.5q0 -37 -25 -61.5t-62 -24.5zM-87 608q17 0 28 11.5t11 29.5q0 17 -11 28.5t-28 11.5t-28 -11.5t-11 -28.5q0 -18 11 -29.5t28 -11.5z" />
    <glyph glyph-name="uni030B" unicode="&#x30b;" 
d="M-373 577l82 129h96l-94 -129h-84zM-178 577l82 129h96l-95 -129h-83z" />
    <glyph glyph-name="uni030C" unicode="&#x30c;" 
d="M-82 706h82l-101 -129h-105l-100 129h82l71 -83z" />
    <glyph glyph-name="uni030F" unicode="&#x30f;" 
d="M-278 577l-95 129h96l82 -129h-83zM-83 577l-95 129h96l82 -129h-83z" />
    <glyph glyph-name="uni0311" unicode="&#x311;" 
d="M-276 571q0 57 39.5 95.5t98.5 38.5t98.5 -38.5t39.5 -95.5h-68q0 31 -20 51t-50 20t-50 -20t-20 -51h-68z" />
    <glyph glyph-name="uni0312" unicode="&#x312;" 
d="M-125 571l54 154h71l-35 -154h-90z" />
    <glyph glyph-name="dotbelowcomb" unicode="&#x323;" 
d="M-55 -182q-24 0 -40 16t-16 39t16 39t40 16q23 0 39 -16t16 -39t-16 -39t-39 -16z" />
    <glyph glyph-name="uni0326" unicode="&#x326;" 
d="M-125 -220l35 154h90l-54 -154h-71z" />
    <glyph glyph-name="uni0327" unicode="&#x327;" 
d="M-92 -34q40 0 66 -27t26 -68t-29.5 -69t-73.5 -28t-73.5 28t-29.5 69h54q0 -20 14.5 -34t34.5 -14t34.5 14t14.5 34q0 21 -14.5 35t-34.5 14q-22 0 -34 -14l-50 22l56 72v2h62v-2l-28 -34h5z" />
    <glyph glyph-name="uni0328" unicode="&#x328;" 
d="M-80 -223q-45 0 -75.5 28t-30.5 69t29.5 75.5t78.5 53.5h65l2 -3q-106 -47 -106 -108q0 -23 15.5 -37.5t38.5 -14.5q35 0 63 23v-64q-34 -22 -80 -22z" />
    <glyph glyph-name="uni0335" unicode="&#x335;" 
d="M-290 243v63h290v-63h-290z" />
    <glyph glyph-name="uni0336" unicode="&#x336;" 
d="M-681 242v64h681v-64h-681z" />
    <glyph glyph-name="uni0337" unicode="&#x337;" 
d="M-521 0l456 510h65l-456 -510h-65z" />
    <glyph glyph-name="uni0338" unicode="&#x338;" 
d="M-684 0l605 690h79l-605 -690h-79z" />
    <glyph glyph-name="uni1E0C" unicode="&#x1e0c;" horiz-adv-x="741" 
d="M347 690q150 0 250 -98.5t100 -246.5t-100 -246.5t-250 -98.5h-266v690h266zM346 86q110 0 183.5 74t73.5 185t-73.5 185t-183.5 74h-173v-518h173zM362 -72q23 0 39 -16t16 -39t-16 -39t-39 -16q-24 0 -40 16t-16 39t16 39t40 16z" />
    <glyph glyph-name="uni1E0D" unicode="&#x1e0d;" horiz-adv-x="654" 
d="M495 720h86v-720h-86v97q-32 -51 -83.5 -80t-114.5 -29q-109 0 -182 76.5t-73 190.5t73 190.5t182 76.5q63 0 114.5 -29t83.5 -80v307zM313 71q78 0 130 52.5t52 131.5t-52 131.5t-130 52.5q-79 0 -131 -52.5t-52 -131.5t52 -131.5t131 -52.5zM326 -72q23 0 39 -16
t16 -39t-16 -39t-39 -16q-24 0 -40 16t-16 39t16 39t40 16z" />
    <glyph glyph-name="uni1E24" unicode="&#x1e24;" horiz-adv-x="730" 
d="M557 690h92v-690h-92v304h-384v-304h-92v690h92v-300h384v300zM366 -72q23 0 39 -16t16 -39t-16 -39t-39 -16q-24 0 -40 16t-16 39t16 39t40 16z" />
    <glyph glyph-name="uni1E25" unicode="&#x1e25;" horiz-adv-x="616" 
d="M343 522q93 0 150 -56.5t57 -150.5v-315h-86v288q0 68 -40.5 109.5t-108.5 41.5q-70 0 -113 -42t-43 -111v-286h-86v720h86v-295q61 97 184 97zM312 -72q23 0 39 -16t16 -39t-16 -39t-39 -16q-24 0 -40 16t-16 39t16 39t40 16z" />
    <glyph glyph-name="uni1E44" unicode="&#x1e44;" horiz-adv-x="739" 
d="M372 762q-24 0 -40 16t-16 39t16 39t40 16q23 0 39 -16t16 -39t-16 -39t-39 -16zM566 690h91v-690h-94l-390 537v-537h-92v690h95l390 -539v539z" />
    <glyph glyph-name="uni1E45" unicode="&#x1e45;" horiz-adv-x="616" 
d="M312 582q-24 0 -40 16t-16 39t16 39t40 16q23 0 39 -16t16 -39t-16 -39t-39 -16zM343 522q93 0 150 -56.5t57 -150.5v-315h-86v288q0 68 -40.5 109.5t-108.5 41.5q-70 0 -113 -42t-43 -111v-286h-86v510h86v-82q61 94 184 94z" />
    <glyph glyph-name="uni1E5A" unicode="&#x1e5a;" horiz-adv-x="565" 
d="M352 278l182 -278h-111l-175 274h-75v-274h-92v690h224q92 0 153.5 -60t61.5 -150q0 -77 -47 -132.5t-121 -69.5zM173 604v-250h130q53 0 88 35.5t35 89.5t-35 89.5t-88 35.5h-130zM293 -72q23 0 39 -16t16 -39t-16 -39t-39 -16q-24 0 -40 16t-16 39t16 39t40 16z" />
    <glyph glyph-name="uni1E5B" unicode="&#x1e5b;" horiz-adv-x="355" 
d="M159 418q59 100 167 100v-89q-78 0 -122.5 -47t-44.5 -126v-256h-86v510h86v-92zM116 -72q23 0 39 -16t16 -39t-16 -39t-39 -16q-24 0 -40 16t-16 39t16 39t40 16z" />
    <glyph glyph-name="uni1E62" unicode="&#x1e62;" horiz-adv-x="532" 
d="M266 -12q-95 0 -159.5 59.5t-64.5 147.5h93q0 -53 38.5 -89t94.5 -36q55 0 91.5 31.5t36.5 78.5q0 93 -151 130q-192 47 -192 202q0 81 61 135.5t152 54.5t152 -56.5t61 -141.5h-93q0 50 -34.5 83t-86.5 33q-50 0 -84 -30t-34 -74q0 -89 141 -125q202 -50 202 -205
q0 -85 -64 -141.5t-160 -56.5zM267 -182q-24 0 -40 16t-16 39t16 39t40 16q23 0 39 -16t16 -39t-16 -39t-39 -16z" />
    <glyph glyph-name="uni1E63" unicode="&#x1e63;" horiz-adv-x="422" 
d="M211 -12q-74 0 -123 45.5t-49 111.5h89q0 -33 24.5 -56t59.5 -23q34 0 57.5 19.5t23.5 48.5q0 62 -100 87q-68 18 -107.5 53.5t-39.5 100.5q0 66 47.5 106.5t117.5 40.5t117.5 -44t47.5 -107h-89q0 30 -22 51.5t-55 21.5q-31 0 -53 -19t-22 -45q0 -61 100 -85
q148 -39 148 -153q0 -69 -49 -111.5t-123 -42.5zM211 -182q-24 0 -40 16t-16 39t16 39t40 16q23 0 39 -16t16 -39t-16 -39t-39 -16z" />
    <glyph glyph-name="uni1E6C" unicode="&#x1e6c;" horiz-adv-x="546" 
d="M29 690h488v-86h-198v-604h-92v604h-198v86zM274 -72q23 0 39 -16t16 -39t-16 -39t-39 -16q-24 0 -40 16t-16 39t16 39t40 16z" />
    <glyph glyph-name="uni1E6D" unicode="&#x1e6d;" horiz-adv-x="397" 
d="M360 432h-143v-353h143v-79h-229v432h-99v78h99v150h86v-150h143v-78zM239 -72q23 0 39 -16t16 -39t-16 -39t-39 -16q-24 0 -40 16t-16 39t16 39t40 16z" />
    <glyph glyph-name="Wgrave" unicode="&#x1e80;" horiz-adv-x="1124" 
d="M615 757h-91l-123 129h111zM1000 690h99l-248 -690h-94l-195 557l-195 -557h-94l-248 690h101l196 -570l199 570h84l199 -570z" />
    <glyph glyph-name="wgrave" unicode="&#x1e81;" horiz-adv-x="903" 
d="M509 577h-91l-123 129h111zM790 510h95l-194 -510h-90l-149 411l-149 -411h-90l-194 510h97l144 -408l149 408h89l148 -405z" />
    <glyph glyph-name="Wacute" unicode="&#x1e82;" horiz-adv-x="1124" 
d="M723 886l-122 -129h-92l104 129h110zM1000 690h99l-248 -690h-94l-195 557l-195 -557h-94l-248 690h101l196 -570l199 570h84l199 -570z" />
    <glyph glyph-name="wacute" unicode="&#x1e83;" horiz-adv-x="903" 
d="M618 706l-122 -129h-92l104 129h110zM790 510h95l-194 -510h-90l-149 411l-149 -411h-90l-194 510h97l144 -408l149 408h89l148 -405z" />
    <glyph glyph-name="Wdieresis" unicode="&#x1e84;" horiz-adv-x="1124" 
d="M458 762q-22 0 -37.5 15t-15.5 38t15.5 38t37.5 15q23 0 38.5 -15.5t15.5 -37.5t-15.5 -37.5t-38.5 -15.5zM665 762q-23 0 -38 15t-15 38t15 38t38 15t38.5 -15.5t15.5 -37.5t-15.5 -37.5t-38.5 -15.5zM1000 690h99l-248 -690h-94l-195 557l-195 -557h-94l-248 690h101
l196 -570l199 570h84l199 -570z" />
    <glyph glyph-name="wdieresis" unicode="&#x1e85;" horiz-adv-x="903" 
d="M353 582q-23 0 -38 15t-15 38t15 38t38 15t38.5 -15.5t15.5 -37.5t-15.5 -37.5t-38.5 -15.5zM560 582q-22 0 -37.5 15t-15.5 38t15.5 38t37.5 15q23 0 38.5 -15.5t15.5 -37.5t-15.5 -37.5t-38.5 -15.5zM790 510h95l-194 -510h-90l-149 411l-149 -411h-90l-194 510h97
l144 -408l149 408h89l148 -405z" />
    <glyph glyph-name="uni1E92" unicode="&#x1e92;" horiz-adv-x="614" 
d="M166 86h407v-86h-532v66l400 538h-396v86h521v-66zM306 -72q23 0 39 -16t16 -39t-16 -39t-39 -16q-24 0 -40 16t-16 39t16 39t40 16z" />
    <glyph glyph-name="uni1E93" unicode="&#x1e93;" horiz-adv-x="500" 
d="M164 83h292v-83h-412v62l285 365h-281v83h401v-62zM250 -72q23 0 39 -16t16 -39t-16 -39t-39 -16q-24 0 -40 16t-16 39t16 39t40 16z" />
    <glyph glyph-name="uni1E9E" unicode="&#x1e9e;" horiz-adv-x="617" 
d="M395 421q86 -9 141.5 -70t55.5 -147q0 -93 -63 -154.5t-157 -61.5q-71 0 -118 33v93q16 -16 45.5 -27t58.5 -11q60 0 100 37.5t40 94.5q0 55 -37.5 92.5t-92.5 37.5h-72v67l140 199h-263v-604h-92v690h455v-75z" />
    <glyph glyph-name="uni1EA0" unicode="&#x1ea0;" horiz-adv-x="713" 
d="M692 0h-101l-67 167h-338l-67 -167h-98l281 690h109zM220 252h270l-135 339zM356 -72q23 0 39 -16t16 -39t-16 -39t-39 -16q-24 0 -40 16t-16 39t16 39t40 16z" />
    <glyph glyph-name="uni1EA1" unicode="&#x1ea1;" horiz-adv-x="538" 
d="M458 78h67v-78h-144v66q-24 -36 -66.5 -57t-94.5 -21q-79 0 -131.5 48.5t-52.5 121.5q0 72 52.5 120.5t131.5 48.5h152v100h-302v83h388v-432zM231 66q63 0 102 28t39 73v82h-141q-46 0 -76 -26t-30 -65q0 -40 30 -66t76 -26zM265 -72q23 0 39 -16t16 -39t-16 -39
t-39 -16q-24 0 -40 16t-16 39t16 39t40 16z" />
    <glyph glyph-name="uni1EB8" unicode="&#x1eb8;" horiz-adv-x="513" 
d="M173 86h295v-86h-387v690h382v-86h-290v-214h257v-86h-257v-218zM272 -72q23 0 39 -16t16 -39t-16 -39t-39 -16q-24 0 -40 16t-16 39t16 39t40 16z" />
    <glyph glyph-name="uni1EB9" unicode="&#x1eb9;" horiz-adv-x="619" 
d="M582 255q0 -16 -2 -36h-448q11 -68 60.5 -110t118.5 -42q57 0 101.5 26.5t64.5 69.5h95q-28 -79 -98 -127t-163 -48q-116 0 -193.5 76.5t-77.5 190.5t77.5 190.5t193.5 76.5t193.5 -76.5t77.5 -190.5zM311 443q-68 0 -116.5 -40.5t-61.5 -106.5h357q-12 65 -61.5 106
t-117.5 41zM312 -72q23 0 39 -16t16 -39t-16 -39t-39 -16q-24 0 -40 16t-16 39t16 39t40 16z" />
    <glyph glyph-name="uni1EBC" unicode="&#x1ebc;" horiz-adv-x="513" 
d="M213 818q-21 0 -35 -14.5t-14 -35.5h-62q0 51 27.5 84.5t73.5 33.5q33 0 69.5 -27t56.5 -27q21 0 35 14t14 36h63q0 -52 -27.5 -85.5t-74.5 -33.5q-33 0 -69.5 27.5t-56.5 27.5zM173 86h295v-86h-387v690h382v-86h-290v-214h257v-86h-257v-218z" />
    <glyph glyph-name="uni1EBD" unicode="&#x1ebd;" horiz-adv-x="619" 
d="M253 638q-21 0 -35 -14.5t-14 -35.5h-62q0 51 27.5 84.5t73.5 33.5q33 0 69.5 -27t56.5 -27q21 0 35 14t14 36h63q0 -52 -27.5 -85.5t-74.5 -33.5q-33 0 -69.5 27.5t-56.5 27.5zM582 255q0 -16 -2 -36h-448q11 -68 60.5 -110t118.5 -42q57 0 101.5 26.5t64.5 69.5h95
q-28 -79 -98 -127t-163 -48q-116 0 -193.5 76.5t-77.5 190.5t77.5 190.5t193.5 76.5t193.5 -76.5t77.5 -190.5zM311 443q-68 0 -116.5 -40.5t-61.5 -106.5h357q-12 65 -61.5 106t-117.5 41z" />
    <glyph glyph-name="uni1ECA" unicode="&#x1eca;" horiz-adv-x="353" 
d="M315 604h-93v-518h93v-86h-277v86h93v518h-93v86h277v-86zM177 -72q23 0 39 -16t16 -39t-16 -39t-39 -16q-24 0 -40 16t-16 39t16 39t40 16z" />
    <glyph glyph-name="uni1ECB" unicode="&#x1ecb;" horiz-adv-x="231" 
d="M116 612q-25 0 -41.5 16.5t-16.5 40.5q0 25 16.5 41t41.5 16q24 0 40.5 -16t16.5 -41q0 -24 -16.5 -40.5t-40.5 -16.5zM73 0v510h86v-510h-86zM116 -182q-24 0 -40 16t-16 39t16 39t40 16q23 0 39 -16t16 -39t-16 -39t-39 -16z" />
    <glyph glyph-name="uni1ECC" unicode="&#x1ecc;" horiz-adv-x="812" 
d="M406 -12q-154 0 -257.5 102.5t-103.5 254.5t103.5 254.5t257.5 102.5t257.5 -102.5t103.5 -254.5t-103.5 -254.5t-257.5 -102.5zM406 76q114 0 190.5 77t76.5 192t-76.5 192t-190.5 77t-190.5 -77t-76.5 -192t76.5 -192t190.5 -77zM407 -182q-24 0 -40 16t-16 39t16 39
t40 16q23 0 39 -16t16 -39t-16 -39t-39 -16z" />
    <glyph glyph-name="uni1ECD" unicode="&#x1ecd;" horiz-adv-x="623" 
d="M312 -12q-116 0 -194 76.5t-78 190.5t78 190.5t194 76.5t193.5 -76.5t77.5 -190.5t-77.5 -190.5t-193.5 -76.5zM312 71q78 0 130 52.5t52 131.5t-52 131.5t-130 52.5q-79 0 -131 -52.5t-52 -131.5t52 -131.5t131 -52.5zM312 -182q-24 0 -40 16t-16 39t16 39t40 16
q23 0 39 -16t16 -39t-16 -39t-39 -16z" />
    <glyph glyph-name="uni1EE4" unicode="&#x1ee4;" horiz-adv-x="693" 
d="M346 -12q-119 0 -199.5 79t-80.5 197v426h91v-424q0 -81 54 -135.5t135 -54.5q82 0 136 54.5t54 135.5v424h91v-426q0 -118 -80.5 -197t-200.5 -79zM347 -182q-24 0 -40 16t-16 39t16 39t40 16q23 0 39 -16t16 -39t-16 -39t-39 -16z" />
    <glyph glyph-name="uni1EE5" unicode="&#x1ee5;" horiz-adv-x="600" 
d="M441 510h86v-510h-86v80q-59 -92 -176 -92q-89 0 -144 55t-55 146v321h86v-296q0 -65 38 -104t102 -39q67 0 108 40t41 105v294zM297 -72q23 0 39 -16t16 -39t-16 -39t-39 -16q-24 0 -40 16t-16 39t16 39t40 16z" />
    <glyph glyph-name="Ygrave" unicode="&#x1ef2;" horiz-adv-x="677" 
d="M391 757h-91l-123 129h111zM564 690h102l-282 -435v-255h-91v255l-282 435h104l225 -345z" />
    <glyph glyph-name="ygrave" unicode="&#x1ef3;" horiz-adv-x="568" 
d="M338 577h-91l-123 129h111zM457 510h96l-307 -700h-163v79h103l51 113l-222 508h98l172 -407z" />
    <glyph glyph-name="uni1EF8" unicode="&#x1ef8;" horiz-adv-x="677" 
d="M281 818q-21 0 -35 -14.5t-14 -35.5h-62q0 51 27.5 84.5t73.5 33.5q33 0 69.5 -27t56.5 -27q21 0 35 14t14 36h63q0 -52 -27.5 -85.5t-74.5 -33.5q-33 0 -69.5 27.5t-56.5 27.5zM564 690h102l-282 -435v-255h-91v255l-282 435h104l225 -345z" />
    <glyph glyph-name="uni1EF9" unicode="&#x1ef9;" horiz-adv-x="568" 
d="M227 638q-21 0 -35 -14.5t-14 -35.5h-62q0 51 27.5 84.5t73.5 33.5q33 0 69.5 -27t56.5 -27q21 0 35 14t14 36h63q0 -52 -27.5 -85.5t-74.5 -33.5q-33 0 -69.5 27.5t-56.5 27.5zM457 510h96l-307 -700h-163v79h103l51 113l-222 508h98l172 -407z" />
    <glyph glyph-name="endash" unicode="&#x2013;" horiz-adv-x="608" 
d="M63 235v78h482v-78h-482z" />
    <glyph glyph-name="emdash" unicode="&#x2014;" horiz-adv-x="1068" 
d="M63 235v78h942v-78h-942z" />
    <glyph glyph-name="quoteleft" unicode="&#x2018;" horiz-adv-x="246" 
d="M50 445l97 245h75l-70 -245h-102z" />
    <glyph glyph-name="quoteright" unicode="&#x2019;" horiz-adv-x="246" 
d="M50 445l70 245h102l-97 -245h-75z" />
    <glyph glyph-name="quotesinglbase" unicode="&#x201a;" horiz-adv-x="240" 
d="M20 -141l70 245h102l-97 -245h-75z" />
    <glyph glyph-name="quotedblleft" unicode="&#x201c;" horiz-adv-x="455" 
d="M50 445l97 245h75l-70 -245h-102zM260 445l96 245h75l-70 -245h-101z" />
    <glyph glyph-name="quotedblright" unicode="&#x201d;" horiz-adv-x="455" 
d="M50 445l70 245h102l-97 -245h-75zM260 445l69 245h102l-97 -245h-74z" />
    <glyph glyph-name="quotedblbase" unicode="&#x201e;" horiz-adv-x="449" 
d="M20 -141l70 245h102l-97 -245h-75zM229 -141l70 245h102l-97 -245h-75z" />
    <glyph glyph-name="dagger" unicode="&#x2020;" horiz-adv-x="494" 
d="M431 510v-78h-144v-622h-80v622h-144v78h144v180h80v-180h144z" />
    <glyph glyph-name="daggerdbl" unicode="&#x2021;" horiz-adv-x="494" 
d="M431 432h-144v-344h144v-78h-144v-200h-80v200h-144v78h144v344h-144v78h144v180h80v-180h144v-78z" />
    <glyph glyph-name="bullet" unicode="&#x2022;" horiz-adv-x="318" 
d="M159 179q-41 0 -68.5 27t-27.5 68t27.5 68t68.5 27t68.5 -27t27.5 -68t-27.5 -68t-68.5 -27z" />
    <glyph glyph-name="ellipsis" unicode="&#x2026;" horiz-adv-x="722" 
d="M117 -7q-27 0 -45.5 18.5t-18.5 45.5t18.5 45.5t45.5 18.5q28 0 46.5 -18.5t18.5 -45.5t-18.5 -45.5t-46.5 -18.5zM361 -7q-28 0 -46.5 18.5t-18.5 45.5t18.5 45.5t46.5 18.5t46 -18.5t18 -45.5t-18 -45.5t-46 -18.5zM604 -7q-27 0 -45.5 18.5t-18.5 45.5t18.5 45.5
t45.5 18.5q28 0 46.5 -18.5t18.5 -45.5t-18.5 -45.5t-46.5 -18.5z" />
    <glyph glyph-name="perthousand" unicode="&#x2030;" horiz-adv-x="1209" 
d="M210 382q-70 0 -116 46t-46 114t46 114t116 46q69 0 115 -46t46 -114t-46 -114t-115 -46zM122 0l500 690h93l-500 -690h-93zM210 452q38 0 63.5 26t25.5 64t-25.5 64t-63.5 26t-63.5 -26t-25.5 -64t25.5 -64t63.5 -26zM626 -12q-69 0 -115.5 46t-46.5 114t46.5 114
t115.5 46t115.5 -46t46.5 -114t-46.5 -114t-115.5 -46zM999 -12q-69 0 -115.5 46t-46.5 114t46.5 114t115.5 46t115.5 -46t46.5 -114t-46.5 -114t-115.5 -46zM626 58q38 0 63.5 26t25.5 64t-25.5 64t-63.5 26t-63.5 -26t-25.5 -64t25.5 -64t63.5 -26zM999 58q38 0 63.5 26
t25.5 64t-25.5 64t-63.5 26t-63.5 -26t-25.5 -64t25.5 -64t63.5 -26z" />
    <glyph glyph-name="guilsinglleft" unicode="&#x2039;" horiz-adv-x="358" 
d="M311 467l-167 -203l167 -203h-102l-166 203l166 203h102z" />
    <glyph glyph-name="guilsinglright" unicode="&#x203a;" horiz-adv-x="358" 
d="M152 467l166 -203l-166 -203h-102l166 203l-166 203h102z" />
    <glyph glyph-name="fraction" unicode="&#x2044;" horiz-adv-x="182" 
d="M-191 0l483 690h81l-483 -690h-81z" />
    <glyph glyph-name="uni2070" unicode="&#x2070;" horiz-adv-x="396" 
d="M198 359q-71 0 -116 60t-45 154t45 154t116 60t116 -60t45 -154t-45 -154t-116 -60zM198 423q41 0 67 41t26 109t-26 109t-67 41t-67 -41.5t-26 -108.5t26 -108.5t67 -41.5z" />
    <glyph glyph-name="uni2074" unicode="&#x2074;" horiz-adv-x="357" 
d="M336 514v-60h-52v-88h-66v88h-195v48l181 278h80v-266h52zM94 514h124v193z" />
    <glyph glyph-name="uni2075" unicode="&#x2075;" horiz-adv-x="351" 
d="M188 629q59 0 98.5 -38.5t39.5 -96.5t-41 -96.5t-103 -38.5q-61 0 -102 38.5t-41 96.5h67q0 -33 22 -54.5t54 -21.5q33 0 55 22t22 54q0 33 -22 55.5t-55 22.5q-20 0 -39.5 -10t-28.5 -24h-67l20 242h232v-59h-172l-11 -116q31 24 72 24z" />
    <glyph glyph-name="uni2076" unicode="&#x2076;" horiz-adv-x="342" 
d="M179 631q58 0 97.5 -38.5t39.5 -95.5q0 -59 -41 -98.5t-102 -39.5t-102.5 40t-41.5 98q0 44 27 85l132 198h78l-100 -150q4 1 13 1zM173 421q32 0 54 21.5t22 54.5q0 32 -22 54t-54 22t-54 -22t-22 -54q0 -33 22 -54.5t54 -21.5z" />
    <glyph glyph-name="uni2077" unicode="&#x2077;" horiz-adv-x="326" 
d="M32 780h273v-51l-169 -363h-73l163 352h-194v62z" />
    <glyph glyph-name="uni2078" unicode="&#x2078;" horiz-adv-x="335" 
d="M242 580q64 -33 64 -101q0 -51 -39.5 -85.5t-98.5 -34.5t-98.5 34.5t-39.5 85.5q0 68 63 101q-55 32 -55 93q0 49 37 81.5t93 32.5t93 -32.5t37 -81.5q0 -60 -56 -93zM168 723q-27 0 -45 -17t-18 -42q0 -26 18 -43t45 -17t45 17t18 43q0 25 -18 42t-45 17zM168 423
q30 0 50 18.5t20 46.5t-20 46.5t-50 18.5q-29 0 -49.5 -18.5t-20.5 -46.5t20 -46.5t50 -18.5z" />
    <glyph glyph-name="uni2079" unicode="&#x2079;" horiz-adv-x="342" 
d="M173 787q61 0 102 -39.5t41 -98.5q0 -43 -28 -85l-130 -198h-78l100 150q-5 -1 -14 -1q-58 0 -97.5 38.5t-39.5 95.5q0 59 41.5 98.5t102.5 39.5zM173 573q32 0 54 22t22 54q0 33 -22 55t-54 22q-33 0 -55 -22t-22 -55q0 -32 22 -54t55 -22z" />
    <glyph glyph-name="franc" unicode="&#x20a3;" horiz-adv-x="508" 
d="M470 604h-276v-209h234v-86h-234v-114h152v-79h-152v-116h-91v116h-66v79h66v495h367v-86z" />
    <glyph glyph-name="lira" unicode="&#x20a4;" horiz-adv-x="578" 
d="M206 86h337v-86h-495v86h65v135h-65v71h65v55h-65v71h65v79q0 88 60.5 146.5t149.5 58.5t149.5 -58.5t60.5 -146.5h-93q0 50 -33.5 83t-83.5 33t-83.5 -33t-33.5 -83v-79h212v-71h-212v-55h212v-71h-212v-135z" />
    <glyph glyph-name="peseta" unicode="&#x20a7;" horiz-adv-x="637" 
d="M607 494v-60h-49q-11 -87 -74.5 -142.5t-155.5 -55.5h-125v-235h-92v433h-65v60h65v197h217q91 0 155 -55.5t75 -141.5h49zM203 605v-111h260q-10 49 -47.5 80t-88.5 31h-124zM327 322q51 0 88.5 31t47.5 81h-260v-112h124z" />
    <glyph glyph-name="uni20A8" unicode="&#x20a8;" horiz-adv-x="987" 
d="M520 480q0 -77 -47 -132.5t-121 -69.5l182 -278h-111l-175 274h-75v-274h-92v690h224q92 0 153.5 -60t61.5 -150zM173 604v-250h130q53 0 88 35.5t35 89.5t-35 89.5t-88 35.5h-130zM800 295q148 -39 148 -153q0 -69 -49 -111.5t-123 -42.5t-123 45.5t-49 111.5h89
q0 -33 24.5 -56t59.5 -23q34 0 57.5 19.5t23.5 48.5q0 62 -100 87q-68 18 -107.5 53.5t-39.5 100.5q0 66 47.5 106.5t117.5 40.5t117.5 -44t47.5 -107h-89q0 30 -22 51.5t-55 21.5q-31 0 -53 -19t-22 -45q0 -61 100 -85z" />
    <glyph glyph-name="Euro" unicode="&#x20ac;" horiz-adv-x="759" 
d="M479 613q-92 0 -161.5 -46t-98.5 -123h401l-22 -71h-396q-1 -9 -1 -28t1 -28h377l-21 -71h-339q29 -77 98.5 -123t161.5 -46q137 0 230 95v-101q-103 -83 -241 -83q-126 0 -221 71.5t-127 186.5h-87l22 71h53q-1 9 -1 28t1 28h-75l22 71h65q32 115 127 186.5t221 71.5
q138 0 241 -83v-101q-93 95 -230 95z" />
    <glyph glyph-name="uni20B1" unicode="&#x20b1;" horiz-adv-x="637" 
d="M608 546v-62h-48q1 -7 1 -22t-1 -22h48v-61h-62q-25 -65 -83 -104.5t-134 -39.5h-127v-235h-91v379h-65v61h65v44h-65v62h65v144h218q76 0 134 -39.5t83 -104.5h62zM202 607v-61h239q-43 61 -122 61h-117zM466 462q0 8 -2 22h-262v-44h262q2 14 2 22zM319 318
q79 0 122 61h-239v-61h117z" />
    <glyph glyph-name="uni20B5" unicode="&#x20b5;" horiz-adv-x="816" 
d="M457 86q79 13 135.5 66t73.5 130h95q-20 -114 -103 -192.5t-201 -92.5v-67h-86v66q-137 14 -226.5 111.5t-89.5 237.5t89.5 237.5t226.5 111.5v66h86v-67q118 -14 201 -92.5t103 -192.5h-95q-17 77 -73.5 130t-135.5 66v-518zM149 345q0 -102 62.5 -174t159.5 -86v520
q-97 -14 -159.5 -86t-62.5 -174z" />
    <glyph glyph-name="uni20B9" unicode="&#x20b9;" horiz-adv-x="561" 
d="M402 619q28 -32 41 -72h90l-27 -71h-52q-1 -91 -62.5 -151.5t-152.5 -60.5h-39l270 -264h-122l-276 269v78h161q54 0 90.5 37t36.5 92h-288v71h270q-35 61 -109 61h-161v82h461l-27 -71h-104z" />
    <glyph glyph-name="uni2116" unicode="&#x2116;" horiz-adv-x="1156" 
d="M926 335q-79 0 -132 52.5t-53 130.5q0 79 53 131.5t132 52.5t132 -52.5t53 -131.5q0 -78 -53 -130.5t-132 -52.5zM566 151v539h91v-690h-94l-390 537v-537h-92v690h95zM926 629q-47 0 -78.5 -32t-31.5 -79q0 -46 32 -78t78 -32t77.5 31.5t31.5 78.5t-31.5 79t-77.5 32z
M754 181v78h343v-78h-343z" />
    <glyph glyph-name="trademark" unicode="&#x2122;" horiz-adv-x="671" 
d="M21 644v46h221v-46h-86v-248h-49v248h-86zM545 690h64v-294h-49v215l-87 -215h-37l-88 216v-216h-49v294h66l90 -223z" />
    <glyph glyph-name="uni2150" unicode="&#x2150;" horiz-adv-x="916" 
d="M274 336v-60h-235v60h89v276l-89 -40v69l108 49h46v-354h81zM644 690h81l-483 -690h-81zM622 414h273v-51l-169 -363h-73l163 352h-194v62z" />
    <glyph glyph-name="uni2151" unicode="&#x2151;" horiz-adv-x="876" 
d="M274 336v-60h-235v60h89v276l-89 -40v69l108 49h46v-354h81zM644 690h81l-483 -690h-81zM707 421q61 0 102 -39.5t41 -98.5q0 -43 -28 -85l-130 -198h-78l100 150q-5 -1 -14 -1q-58 0 -97.5 38.5t-39.5 95.5q0 59 41.5 98.5t102.5 39.5zM707 207q32 0 54 22t22 54
q0 33 -22 55t-54 22q-33 0 -55 -22t-22 -55q0 -32 22 -54t55 -22z" />
    <glyph glyph-name="uni2152" unicode="&#x2152;" horiz-adv-x="1232" 
d="M274 336v-60h-235v60h89v276l-89 -40v69l108 49h46v-354h81zM644 690h81l-483 -690h-81zM1034 421q71 0 116 -60t45 -154t-45 -154t-116 -60t-116 60t-45 154t45 154t116 60zM757 414v-354h81v-60h-235v60h89v276l-89 -40v69l108 49h46zM1034 57q41 0 67 41t26 109
t-26 109t-67 41t-67 -41.5t-26 -108.5t26 -108.5t67 -41.5z" />
    <glyph glyph-name="uni2153" unicode="&#x2153;" horiz-adv-x="869" 
d="M274 336v-60h-235v60h89v276l-89 -40v69l108 49h46v-354h81zM644 690h81l-483 -690h-81zM782 215q58 -31 58 -97q0 -52 -39 -88.5t-97 -36.5t-97.5 36.5t-39.5 91.5h67q0 -28 20.5 -47.5t49.5 -19.5q30 0 50 19t20 48t-20 49t-50 20h-57v48h57q26 0 44 18.5t18 45.5
q0 25 -18 42t-44 17t-44 -17t-18 -42h-68q0 50 37.5 84.5t92.5 34.5t92 -34t37 -82q0 -59 -51 -90z" />
    <glyph glyph-name="uni2154" unicode="&#x2154;" horiz-adv-x="896" 
d="M305 336v-60h-272v50l156 163q45 47 45 80q0 28 -19 47.5t-47 19.5t-46.5 -19t-18.5 -48h-67q0 55 38.5 91.5t95.5 36.5q56 0 93.5 -36.5t37.5 -91.5t-54 -111l-116 -122h174zM671 690h81l-483 -690h-81zM809 215q58 -31 58 -97q0 -52 -39 -88.5t-97 -36.5t-97.5 36.5
t-39.5 91.5h67q0 -28 20.5 -47.5t49.5 -19.5q30 0 50 19t20 48t-20 49t-50 20h-57v48h57q26 0 44 18.5t18 45.5q0 25 -18 42t-44 17t-44 -17t-18 -42h-68q0 50 37.5 84.5t92.5 34.5t92 -34t37 -82q0 -59 -51 -90z" />
    <glyph glyph-name="uni2155" unicode="&#x2155;" horiz-adv-x="896" 
d="M274 336v-60h-235v60h89v276l-89 -40v69l108 49h46v-354h81zM644 690h81l-483 -690h-81zM734 263q59 0 98.5 -38.5t39.5 -96.5t-41 -96.5t-103 -38.5q-61 0 -102 38.5t-41 96.5h67q0 -33 22 -54.5t54 -21.5q33 0 55 22t22 54q0 33 -22 55.5t-55 22.5q-20 0 -39.5 -10
t-28.5 -24h-67l20 242h232v-59h-172l-11 -116q31 24 72 24z" />
    <glyph glyph-name="uni2156" unicode="&#x2156;" horiz-adv-x="923" 
d="M305 336v-60h-272v50l156 163q45 47 45 80q0 28 -19 47.5t-47 19.5t-46.5 -19t-18.5 -48h-67q0 55 38.5 91.5t95.5 36.5q56 0 93.5 -36.5t37.5 -91.5t-54 -111l-116 -122h174zM671 690h81l-483 -690h-81zM761 263q59 0 98.5 -38.5t39.5 -96.5t-41 -96.5t-103 -38.5
q-61 0 -102 38.5t-41 96.5h67q0 -33 22 -54.5t54 -21.5q33 0 55 22t22 54q0 33 -22 55.5t-55 22.5q-19 0 -39 -10t-29 -24h-67l20 242h232v-59h-172l-11 -116q31 24 72 24z" />
    <glyph glyph-name="uni2157" unicode="&#x2157;" horiz-adv-x="884" 
d="M301 394q0 -52 -39 -88.5t-97 -36.5t-97.5 36.5t-39.5 91.5h67q0 -28 20.5 -47.5t49.5 -19.5q30 0 50 19t20 48t-20 49t-50 20h-57v48h57q26 0 44 18.5t18 45.5q0 25 -18 42t-44 17t-44 -17t-18 -42h-68q0 50 37.5 84.5t92.5 34.5t92 -34t37 -82q0 -59 -51 -90
q58 -31 58 -97zM632 690h81l-483 -690h-81zM722 263q59 0 98.5 -38.5t39.5 -96.5t-41 -96.5t-103 -38.5q-61 0 -102 38.5t-41 96.5h67q0 -33 22 -54.5t54 -21.5q33 0 55 22t22 54q0 33 -22 55.5t-55 22.5q-20 0 -39.5 -10t-28.5 -24h-67l20 242h232v-59h-172l-11 -116
q31 24 72 24z" />
    <glyph glyph-name="uni2158" unicode="&#x2158;" horiz-adv-x="910" 
d="M218 276v88h-195v48l181 278h80v-266h52v-60h-52v-88h-66zM658 690h81l-483 -690h-81zM94 424h124v193zM748 263q59 0 98.5 -38.5t39.5 -96.5t-41 -96.5t-103 -38.5q-61 0 -102 38.5t-41 96.5h67q0 -33 22 -54.5t54 -21.5q33 0 55 22t22 54q0 33 -22 55.5t-55 22.5
q-20 0 -39.5 -10t-28.5 -24h-67l20 242h232v-59h-172l-11 -116q31 24 72 24z" />
    <glyph glyph-name="uni2159" unicode="&#x2159;" horiz-adv-x="831" 
d="M274 336v-60h-235v60h89v276l-89 -40v69l108 49h46v-354h81zM644 690h81l-483 -690h-81zM668 265q58 0 97.5 -38.5t39.5 -95.5q0 -59 -41 -98.5t-102 -39.5t-102.5 40t-41.5 98q0 44 27 85l132 198h78l-100 -150q4 1 13 1zM662 55q32 0 54 21.5t22 54.5q0 32 -22 54
t-54 22t-54 -22t-22 -54q0 -33 22 -54.5t54 -21.5z" />
    <glyph glyph-name="uni215A" unicode="&#x215a;" horiz-adv-x="830" 
d="M326 404q0 -58 -41 -96.5t-103 -38.5q-61 0 -102 38.5t-41 96.5h67q0 -33 22 -54.5t54 -21.5q33 0 55 22t22 54q0 33 -22 55.5t-55 22.5q-20 0 -39.5 -10t-28.5 -24h-67l20 242h232v-59h-172l-11 -116q31 24 72 24q59 0 98.5 -38.5t39.5 -96.5zM643 690h81l-483 -690h-81
zM667 265q58 0 97.5 -38.5t39.5 -95.5q0 -59 -41 -98.5t-102 -39.5t-102.5 40t-41.5 98q0 44 27 85l132 198h78l-100 -150q4 1 13 1zM661 55q32 0 54 21.5t22 54.5q0 32 -22 54t-54 22t-54 -22t-22 -54q0 -33 22 -54.5t54 -21.5z" />
    <glyph glyph-name="oneeighth" unicode="&#x215b;" horiz-adv-x="874" 
d="M274 336v-60h-235v60h89v276l-89 -40v69l108 49h46v-354h81zM644 690h81l-483 -690h-81zM781 214q64 -33 64 -101q0 -51 -39.5 -85.5t-98.5 -34.5t-98.5 34.5t-39.5 85.5q0 68 63 101q-55 32 -55 93q0 49 37 81.5t93 32.5t93 -32.5t37 -81.5q0 -60 -56 -93zM707 357
q-27 0 -45 -17t-18 -42q0 -26 18 -43t45 -17t45 17t18 43q0 25 -18 42t-45 17zM707 57q30 0 50 18.5t20 46.5t-20 46.5t-50 18.5q-29 0 -49.5 -18.5t-20.5 -46.5t20 -46.5t50 -18.5z" />
    <glyph glyph-name="threeeighths" unicode="&#x215c;" horiz-adv-x="862" 
d="M301 394q0 -52 -39 -88.5t-97 -36.5t-97.5 36.5t-39.5 91.5h67q0 -28 20.5 -47.5t49.5 -19.5q30 0 50 19t20 48t-20 49t-50 20h-57v48h57q26 0 44 18.5t18 45.5q0 25 -18 42t-44 17t-44 -17t-18 -42h-68q0 50 37.5 84.5t92.5 34.5t92 -34t37 -82q0 -59 -51 -90
q58 -31 58 -97zM632 690h81l-483 -690h-81zM769 214q64 -33 64 -101q0 -51 -39.5 -85.5t-98.5 -34.5t-98.5 34.5t-39.5 85.5q0 68 63 101q-55 32 -55 93q0 49 37 81.5t93 32.5t93 -32.5t37 -81.5q0 -60 -56 -93zM695 357q-27 0 -45 -17t-18 -42q0 -26 18 -43t45 -17t45 17
t18 43q0 25 -18 42t-45 17zM695 57q30 0 50 18.5t20 46.5t-20 46.5t-50 18.5q-29 0 -49.5 -18.5t-20.5 -46.5t20 -46.5t50 -18.5z" />
    <glyph glyph-name="fiveeighths" unicode="&#x215d;" horiz-adv-x="873" 
d="M326 404q0 -58 -41 -96.5t-103 -38.5q-61 0 -102 38.5t-41 96.5h67q0 -33 22 -54.5t54 -21.5q33 0 55 22t22 54q0 33 -22 55.5t-55 22.5q-20 0 -39.5 -10t-28.5 -24h-67l20 242h232v-59h-172l-11 -116q31 24 72 24q59 0 98.5 -38.5t39.5 -96.5zM643 690h81l-483 -690h-81
zM780 214q64 -33 64 -101q0 -51 -39.5 -85.5t-98.5 -34.5t-98.5 34.5t-39.5 85.5q0 68 63 101q-55 32 -55 93q0 49 37 81.5t93 32.5t93 -32.5t37 -81.5q0 -60 -56 -93zM706 357q-27 0 -45 -17t-18 -42q0 -26 18 -43t45 -17t45 17t18 43q0 25 -18 42t-45 17zM706 57
q30 0 50 18.5t20 46.5t-20 46.5t-50 18.5q-29 0 -49.5 -18.5t-20.5 -46.5t20 -46.5t50 -18.5z" />
    <glyph glyph-name="seveneighths" unicode="&#x215e;" horiz-adv-x="798" 
d="M136 276h-73l163 352h-194v62h273v-51zM568 690h81l-483 -690h-81zM705 214q64 -33 64 -101q0 -51 -39.5 -85.5t-98.5 -34.5t-98.5 34.5t-39.5 85.5q0 68 63 101q-55 32 -55 93q0 49 37 81.5t93 32.5t93 -32.5t37 -81.5q0 -60 -56 -93zM631 357q-27 0 -45 -17t-18 -42
q0 -26 18 -43t45 -17t45 17t18 43q0 25 -18 42t-45 17zM631 57q30 0 50 18.5t20 46.5t-20 46.5t-50 18.5q-29 0 -49.5 -18.5t-20.5 -46.5t20 -46.5t50 -18.5z" />
    <glyph glyph-name="uni215F" unicode="&#x215f;" horiz-adv-x="534" 
d="M274 336v-60h-235v60h89v276l-89 -40v69l108 49h46v-354h81zM644 690h81l-483 -690h-81z" />
    <glyph glyph-name="uni2189" unicode="&#x2189;" horiz-adv-x="909" 
d="M359 483q0 -94 -45 -154t-116 -60t-116 60t-45 154t45 154t116 60t116 -60t45 -154zM684 690h81l-483 -690h-81zM198 333q41 0 67 41t26 109t-26 109t-67 41t-67 -41.5t-26 -108.5t26 -108.5t67 -41.5zM822 215q58 -31 58 -97q0 -52 -39 -88.5t-97 -36.5t-97.5 36.5
t-39.5 91.5h67q0 -28 20.5 -47.5t49.5 -19.5q30 0 50 19t20 48t-20 49t-50 20h-57v48h57q26 0 44 18.5t18 45.5q0 25 -18 42t-44 17t-44 -17t-18 -42h-68q0 50 37.5 84.5t92.5 34.5t92 -34t37 -82q0 -59 -51 -90z" />
    <glyph glyph-name="arrowleft" unicode="&#x2190;" horiz-adv-x="665" 
d="M592 384v-78h-380l172 -170h-103l-208 209l208 209h103l-172 -170h380z" />
    <glyph glyph-name="arrowup" unicode="&#x2191;" horiz-adv-x="665" 
d="M533 405v-103l-162 164v-381h-78v379l-161 -162v103l201 200z" />
    <glyph glyph-name="arrowright" unicode="&#x2192;" horiz-adv-x="665" 
d="M383 554l209 -209l-209 -209h-102l171 170h-379v78h379l-171 170h102z" />
    <glyph glyph-name="arrowdown" unicode="&#x2193;" horiz-adv-x="665" 
d="M371 225l170 171v-102l-209 -209l-208 209v102l169 -171v380h78v-380z" />
    <glyph glyph-name="uni2196" unicode="&#x2196;" horiz-adv-x="665" 
d="M527 195l-55 -55l-269 269l1 -230l-72 64v292h291l65 -73l-230 2z" />
    <glyph glyph-name="uni2197" unicode="&#x2197;" horiz-adv-x="665" 
d="M247 535h283v-283l-72 -64l1 221l-268 -269l-56 55l269 269l-221 -2z" />
    <glyph glyph-name="uni2198" unicode="&#x2198;" horiz-adv-x="665" 
d="M460 505l72 -64v-292h-291l-64 73l229 -2l-268 269l55 55l268 -268z" />
    <glyph glyph-name="uni2199" unicode="&#x2199;" horiz-adv-x="665" 
d="M527 489l-269 -269l230 2l-65 -73h-291v292l72 64l-1 -230l269 269z" />
    <glyph glyph-name="minus" unicode="&#x2212;" horiz-adv-x="534" 
d="M63 256v78h408v-78h-408z" />
    <glyph glyph-name="approxequal" unicode="&#x2248;" horiz-adv-x="553" 
d="M364 328q-33 0 -62 17t-53.5 34t-45.5 17q-26 0 -43.5 -17.5t-17.5 -43.5h-79q0 65 32.5 105.5t93.5 40.5q33 0 62.5 -17t54 -34t45.5 -17q26 0 43 17t17 43h79q0 -64 -32.5 -104.5t-93.5 -40.5zM364 117q-33 0 -62 17t-53.5 34t-45.5 17q-26 0 -43.5 -17t-17.5 -43h-79
q0 65 32.5 105t93.5 40q33 0 62.5 -17t54 -34t45.5 -17q26 0 43 17.5t17 43.5h79q0 -65 -32.5 -105.5t-93.5 -40.5z" />
    <glyph glyph-name="notequal" unicode="&#x2260;" horiz-adv-x="534" 
d="M471 344h-143l-45 -97h188v-77h-224l-42 -92h-76l42 92h-108v77h144l45 97h-189v78h225l41 90h76l-41 -90h107v-78z" />
    <glyph glyph-name="lessequal" unicode="&#x2264;" horiz-adv-x="464" 
d="M401 547v-86l-260 -93l260 -93v-86l-338 136v87zM63 59v78h338v-78h-338z" />
    <glyph glyph-name="greaterequal" unicode="&#x2265;" horiz-adv-x="464" 
d="M63 547l338 -135v-87l-338 -136v86l260 93l-260 93v86zM63 59v78h338v-78h-338z" />
    <glyph glyph-name="uni2639" unicode="&#x2639;" horiz-adv-x="824" 
d="M412 -12q-152 0 -254.5 102.5t-102.5 254.5t102.5 254.5t254.5 102.5t254.5 -102.5t102.5 -254.5t-102.5 -254.5t-254.5 -102.5zM412 37q130 0 218 88.5t88 219.5t-88 219.5t-218 88.5q-131 0 -218.5 -88.5t-87.5 -219.5t87.5 -219.5t218.5 -88.5zM289 435q-15 0 -25 10
t-10 25q0 14 10 24.5t25 10.5t25 -10.5t10 -24.5q0 -15 -10 -25t-25 -10zM534 435q-14 0 -24.5 10t-10.5 25q0 14 10.5 24.5t24.5 10.5q15 0 25.5 -10.5t10.5 -24.5q0 -15 -10.5 -25t-25.5 -10zM197 165q0 92 61.5 154t153.5 62t153.5 -62t61.5 -154h-51q0 72 -46.5 119.5
t-117.5 47.5t-118 -47.5t-47 -119.5h-50z" />
    <glyph glyph-name="smileface" unicode="&#x263a;" horiz-adv-x="824" 
d="M412 -12q-152 0 -254.5 102.5t-102.5 254.5t102.5 254.5t254.5 102.5t254.5 -102.5t102.5 -254.5t-102.5 -254.5t-254.5 -102.5zM412 37q130 0 218 88.5t88 219.5t-88 219.5t-218 88.5q-131 0 -218.5 -88.5t-87.5 -219.5t87.5 -219.5t218.5 -88.5zM289 435q-15 0 -25 10
t-10 25q0 14 10 24.5t25 10.5t25 -10.5t10 -24.5q0 -15 -10 -25t-25 -10zM534 435q-14 0 -24.5 10t-10.5 25q0 14 10.5 24.5t24.5 10.5q15 0 25.5 -10.5t10.5 -24.5q0 -15 -10.5 -25t-25.5 -10zM412 117q-98 0 -163.5 65.5t-65.5 162.5h51q0 -77 51 -128t127 -51t126.5 51
t50.5 128h51q0 -97 -65 -162.5t-163 -65.5z" />
    <glyph glyph-name="uni279D" unicode="&#x279d;" horiz-adv-x="1082" 
d="M1001 345l-209 -209v170h-711v78h711v170z" />
    <glyph glyph-name="uni27F5" unicode="&#x27f5;" horiz-adv-x="1082" 
d="M1001 384v-78h-780l171 -170h-102l-209 209l209 209h102l-171 -170h780z" />
    <glyph glyph-name="uni27F6" unicode="&#x27f6;" horiz-adv-x="1082" 
d="M792 554l209 -209l-209 -209h-102l171 170h-780v78h780l-171 170h102z" />
    <glyph glyph-name="K.ss02" horiz-adv-x="618" 
d="M612 0h-121l-318 311v-311h-92v690h92v-304l313 304h119l-345 -341z" />
    <glyph glyph-name="uni0136.ss02" horiz-adv-x="618" 
d="M260 349l352 -349h-121l-318 311v-311h-92v690h92v-304l313 304h119zM253 -220l35 154h90l-54 -154h-71z" />
    <glyph glyph-name="R.ss02" horiz-adv-x="566" 
d="M420 0l-234 274h-13v-274h-92v690h224q92 0 153.5 -60t61.5 -150q0 -88 -61 -147t-152 -59h-8l236 -274h-115zM173 604v-250h130q53 0 88 35.5t35 89.5t-35 89.5t-88 35.5h-130z" />
    <glyph glyph-name="Racute.ss02" horiz-adv-x="566" 
d="M444 886l-122 -129h-92l104 129h110zM420 0l-234 274h-13v-274h-92v690h224q92 0 153.5 -60t61.5 -150q0 -88 -61 -147t-152 -59h-8l236 -274h-115zM173 604v-250h130q53 0 88 35.5t35 89.5t-35 89.5t-88 35.5h-130z" />
    <glyph glyph-name="Rcaron.ss02" horiz-adv-x="566" 
d="M335 757h-105l-100 129h82l71 -83l71 83h82zM420 0l-234 274h-13v-274h-92v690h224q92 0 153.5 -60t61.5 -150q0 -88 -61 -147t-152 -59h-8l236 -274h-115zM173 604v-250h130q53 0 88 35.5t35 89.5t-35 89.5t-88 35.5h-130z" />
    <glyph glyph-name="uni0156.ss02" horiz-adv-x="566" 
d="M299 274l236 -274h-115l-234 274h-13v-274h-92v690h224q92 0 153.5 -60t61.5 -150q0 -88 -61 -147t-152 -59h-8zM173 604v-250h130q53 0 88 35.5t35 89.5t-35 89.5t-88 35.5h-130zM224 -220l35 154h90l-54 -154h-71z" />
    <glyph glyph-name="uni0210.ss02" horiz-adv-x="566" 
d="M229 757h-83l-95 129h96zM424 757h-83l-95 129h96zM420 0l-234 274h-13v-274h-92v690h224q92 0 153.5 -60t61.5 -150q0 -88 -61 -147t-152 -59h-8l236 -274h-115zM173 604v-250h130q53 0 88 35.5t35 89.5t-35 89.5t-88 35.5h-130z" />
    <glyph glyph-name="uni1E5A.ss02" horiz-adv-x="566" 
d="M299 274l236 -274h-115l-234 274h-13v-274h-92v690h224q92 0 153.5 -60t61.5 -150q0 -88 -61 -147t-152 -59h-8zM173 604v-250h130q53 0 88 35.5t35 89.5t-35 89.5t-88 35.5h-130zM293 -72q23 0 39 -16t16 -39t-16 -39t-39 -16q-24 0 -40 16t-16 39t16 39t40 16z" />
    <glyph glyph-name="uni0212.ss02" horiz-adv-x="566" 
d="M282 822q-30 0 -50 -20t-20 -51h-68q0 57 39.5 95.5t98.5 38.5t98.5 -38.5t39.5 -95.5h-68q0 31 -20 51t-50 20zM420 0l-234 274h-13v-274h-92v690h224q92 0 153.5 -60t61.5 -150q0 -88 -61 -147t-152 -59h-8l236 -274h-115zM173 604v-250h130q53 0 88 35.5t35 89.5
t-35 89.5t-88 35.5h-130z" />
    <glyph glyph-name="G.ss03" horiz-adv-x="803" 
d="M419 367h344v-30q-3 -150 -105 -249.5t-252 -99.5q-154 0 -257.5 102.5t-103.5 254.5t103.5 254.5t257.5 102.5q123 0 216.5 -66.5t123.5 -172.5h-101q-30 69 -94 110t-145 41q-114 0 -190.5 -77t-76.5 -192t76.5 -192t190.5 -77q99 0 171 58t89 150h-247v83z" />
    <glyph glyph-name="uni01F4.ss03" horiz-adv-x="803" 
d="M567 886l-122 -129h-92l104 129h110zM419 367h344v-30q-3 -150 -105 -249.5t-252 -99.5q-154 0 -257.5 102.5t-103.5 254.5t103.5 254.5t257.5 102.5q123 0 216.5 -66.5t123.5 -172.5h-101q-30 69 -94 110t-145 41q-114 0 -190.5 -77t-76.5 -192t76.5 -192t190.5 -77
q99 0 171 58t89 150h-247v83z" />
    <glyph glyph-name="Gbreve.ss03" horiz-adv-x="803" 
d="M406 747q-59 0 -98.5 38t-39.5 95h68q0 -30 20 -50.5t50 -20.5t50 20.5t20 50.5h68q0 -57 -39.5 -95t-98.5 -38zM419 367h344v-30q-3 -150 -105 -249.5t-252 -99.5q-154 0 -257.5 102.5t-103.5 254.5t103.5 254.5t257.5 102.5q123 0 216.5 -66.5t123.5 -172.5h-101
q-30 69 -94 110t-145 41q-114 0 -190.5 -77t-76.5 -192t76.5 -192t190.5 -77q99 0 171 58t89 150h-247v83z" />
    <glyph glyph-name="Gcaron.ss03" horiz-adv-x="803" 
d="M458 757h-105l-100 129h82l71 -83l71 83h82zM419 367h344v-30q-3 -150 -105 -249.5t-252 -99.5q-154 0 -257.5 102.5t-103.5 254.5t103.5 254.5t257.5 102.5q123 0 216.5 -66.5t123.5 -172.5h-101q-30 69 -94 110t-145 41q-114 0 -190.5 -77t-76.5 -192t76.5 -192
t190.5 -77q99 0 171 58t89 150h-247v83z" />
    <glyph glyph-name="Gcircumflex.ss03" horiz-adv-x="803" 
d="M406 840l-71 -83h-82l100 129h105l101 -129h-82zM419 367h344v-30q-3 -150 -105 -249.5t-252 -99.5q-154 0 -257.5 102.5t-103.5 254.5t103.5 254.5t257.5 102.5q123 0 216.5 -66.5t123.5 -172.5h-101q-30 69 -94 110t-145 41q-114 0 -190.5 -77t-76.5 -192t76.5 -192
t190.5 -77q99 0 171 58t89 150h-247v83z" />
    <glyph glyph-name="uni0122.ss03" horiz-adv-x="803" 
d="M419 367h344v-30q-3 -150 -105 -249.5t-252 -99.5q-154 0 -257.5 102.5t-103.5 254.5t103.5 254.5t257.5 102.5q123 0 216.5 -66.5t123.5 -172.5h-101q-30 69 -94 110t-145 41q-114 0 -190.5 -77t-76.5 -192t76.5 -192t190.5 -77q99 0 171 58t89 150h-247v83zM338 -220
l35 154h90l-54 -154h-71z" />
    <glyph glyph-name="Gdotaccent.ss03" horiz-adv-x="803" 
d="M407 762q-24 0 -40 16t-16 39t16 39t40 16q23 0 39 -16t16 -39t-16 -39t-39 -16zM419 367h344v-30q-3 -150 -105 -249.5t-252 -99.5q-154 0 -257.5 102.5t-103.5 254.5t103.5 254.5t257.5 102.5q123 0 216.5 -66.5t123.5 -172.5h-101q-30 69 -94 110t-145 41
q-114 0 -190.5 -77t-76.5 -192t76.5 -192t190.5 -77q99 0 171 58t89 150h-247v83z" />
    <glyph glyph-name="B.ss05" horiz-adv-x="562" 
d="M403 366q58 -14 94 -64t36 -116q0 -80 -54.5 -133t-135.5 -53h-262v690h233q75 0 126 -49t51 -124q0 -49 -25 -90.5t-63 -60.5zM322 83q50 0 83.5 34t33.5 84t-33.5 83.5t-83.5 33.5h-111v79h81q43 0 74 30.5t31 74.5q0 45 -30 75t-75 30h-122v-524h152z" />
    <glyph glyph-name="P.ss05" horiz-adv-x="562" 
d="M309 690q95 0 158 -62t63 -155q0 -92 -63.5 -154t-157.5 -62h-95v86h94q55 0 91.5 37t36.5 93t-36.5 93.5t-91.5 37.5h-135v-604h-92v690h228z" />
    <glyph glyph-name="R.ss05" horiz-adv-x="566" 
d="M327 287l208 -287h-114l-209 281v73h91q53 0 88 35.5t35 89.5t-35 89.5t-88 35.5h-130v-604h-92v690h224q92 0 153.5 -60t61.5 -150q0 -70 -40.5 -121.5t-104.5 -64.5z" />
    <glyph glyph-name="Racute.ss05" horiz-adv-x="566" 
d="M444 886l-122 -129h-92l104 129h110zM327 287l208 -287h-114l-209 281v73h91q53 0 88 35.5t35 89.5t-35 89.5t-88 35.5h-130v-604h-92v690h224q92 0 153.5 -60t61.5 -150q0 -70 -40.5 -121.5t-104.5 -64.5z" />
    <glyph glyph-name="Rcaron.ss05" horiz-adv-x="566" 
d="M335 757h-105l-100 129h82l71 -83l71 83h82zM327 287l208 -287h-114l-209 281v73h91q53 0 88 35.5t35 89.5t-35 89.5t-88 35.5h-130v-604h-92v690h224q92 0 153.5 -60t61.5 -150q0 -70 -40.5 -121.5t-104.5 -64.5z" />
    <glyph glyph-name="uni0156.ss05" horiz-adv-x="566" 
d="M327 287l208 -287h-114l-209 281v73h91q53 0 88 35.5t35 89.5t-35 89.5t-88 35.5h-130v-604h-92v690h224q92 0 153.5 -60t61.5 -150q0 -70 -40.5 -121.5t-104.5 -64.5zM224 -220l35 154h90l-54 -154h-71z" />
    <glyph glyph-name="uni0210.ss05" horiz-adv-x="566" 
d="M229 757h-83l-95 129h96zM424 757h-83l-95 129h96zM327 287l208 -287h-114l-209 281v73h91q53 0 88 35.5t35 89.5t-35 89.5t-88 35.5h-130v-604h-92v690h224q92 0 153.5 -60t61.5 -150q0 -70 -40.5 -121.5t-104.5 -64.5z" />
    <glyph glyph-name="uni1E5A.ss05" horiz-adv-x="566" 
d="M327 287l208 -287h-114l-209 281v73h91q53 0 88 35.5t35 89.5t-35 89.5t-88 35.5h-130v-604h-92v690h224q92 0 153.5 -60t61.5 -150q0 -70 -40.5 -121.5t-104.5 -64.5zM293 -72q23 0 39 -16t16 -39t-16 -39t-39 -16q-24 0 -40 16t-16 39t16 39t40 16z" />
    <glyph glyph-name="uni0212.ss05" horiz-adv-x="566" 
d="M282 822q-30 0 -50 -20t-20 -51h-68q0 57 39.5 95.5t98.5 38.5t98.5 -38.5t39.5 -95.5h-68q0 31 -20 51t-50 20zM327 287l208 -287h-114l-209 281v73h91q53 0 88 35.5t35 89.5t-35 89.5t-88 35.5h-130v-604h-92v690h224q92 0 153.5 -60t61.5 -150q0 -70 -40.5 -121.5
t-104.5 -64.5z" />
    <glyph glyph-name="I.ss06" horiz-adv-x="254" 
d="M81 0v690h92v-690h-92z" />
    <glyph glyph-name="Iacute.ss06" horiz-adv-x="254" 
d="M75 757l104 129h110l-122 -129h-92zM81 0v690h92v-690h-92z" />
    <glyph glyph-name="Ibreve.ss06" horiz-adv-x="254" 
d="M127 747q-59 0 -98.5 38t-39.5 95h68q0 -30 20 -50.5t50 -20.5t50 20.5t20 50.5h68q0 -57 -39.5 -95t-98.5 -38zM81 0v690h92v-690h-92z" />
    <glyph glyph-name="Icircumflex.ss06" horiz-adv-x="254" 
d="M180 886l101 -129h-82l-71 83l-71 -83h-82l100 129h105zM81 0v690h92v-690h-92z" />
    <glyph glyph-name="uni0208.ss06" horiz-adv-x="254" 
d="M-9 757l-95 129h96l82 -129h-83zM186 757l-95 129h96l82 -129h-83zM81 0v690h92v-690h-92z" />
    <glyph glyph-name="Idieresis.ss06" horiz-adv-x="254" 
d="M24 762q-22 0 -37.5 15t-15.5 38t15.5 38t37.5 15q23 0 38.5 -15.5t15.5 -37.5t-15.5 -37.5t-38.5 -15.5zM231 762q-23 0 -38 15t-15 38t15 38t38 15t38.5 -15.5t15.5 -37.5t-15.5 -37.5t-38.5 -15.5zM81 0v690h92v-690h-92z" />
    <glyph glyph-name="Idotaccent.ss06" horiz-adv-x="254" 
d="M128 762q-24 0 -40 16t-16 39t16 39t40 16q23 0 39 -16t16 -39t-16 -39t-39 -16zM81 0v690h92v-690h-92z" />
    <glyph glyph-name="uni1ECA.ss06" horiz-adv-x="254" 
d="M81 0v690h92v-690h-92zM128 -182q-24 0 -40 16t-16 39t16 39t40 16q23 0 39 -16t16 -39t-16 -39t-39 -16z" />
    <glyph glyph-name="Igrave.ss06" horiz-adv-x="254" 
d="M89 757l-123 129h111l103 -129h-91zM81 0v690h92v-690h-92z" />
    <glyph glyph-name="uni020A.ss06" horiz-adv-x="254" 
d="M-11 751q0 57 39.5 95.5t98.5 38.5t98.5 -38.5t39.5 -95.5h-68q0 31 -20 51t-50 20t-50 -20t-20 -51h-68zM81 0v690h92v-690h-92z" />
    <glyph glyph-name="Imacron.ss06" horiz-adv-x="254" 
d="M9 772v73h237v-73h-237zM81 0v690h92v-690h-92z" />
    <glyph glyph-name="Iogonek.ss06" horiz-adv-x="254" 
d="M120 -160q35 0 63 23v-64q-34 -22 -80 -22q-45 0 -75.5 28t-30.5 69q0 39 27.5 72.5t73.5 53.5h-17v690h92v-690h-1q-106 -47 -106 -108q0 -23 15.5 -37.5t38.5 -14.5z" />
    <glyph glyph-name="Itilde.ss06" horiz-adv-x="254" 
d="M195 763q-33 0 -69.5 27.5t-56.5 27.5q-21 0 -35 -14.5t-14 -35.5h-62q0 51 27.5 84.5t73.5 33.5q33 0 69.5 -27t56.5 -27q21 0 35 14t14 36h63q0 -52 -27.5 -85.5t-74.5 -33.5zM81 0v690h92v-690h-92z" />
    <glyph glyph-name="i.loclTRK" horiz-adv-x="231" 
d="M116 582q-24 0 -40 16t-16 39t16 39t40 16q23 0 39 -16t16 -39t-16 -39t-39 -16zM73 0v510h86v-510h-86z" />
    <glyph glyph-name="a.ss01" horiz-adv-x="654" 
d="M495 510h86v-510h-86v97q-32 -51 -83.5 -80t-114.5 -29q-109 0 -182 76.5t-73 190.5t73 190.5t182 76.5q63 0 114.5 -29t83.5 -80v97zM313 71q78 0 130 52.5t52 131.5t-52 131.5t-130 52.5q-79 0 -131 -52.5t-52 -131.5t52 -131.5t131 -52.5z" />
    <glyph glyph-name="aacute.ss01" horiz-adv-x="654" 
d="M491 706l-122 -129h-92l104 129h110zM495 510h86v-510h-86v97q-32 -51 -83.5 -80t-114.5 -29q-109 0 -182 76.5t-73 190.5t73 190.5t182 76.5q63 0 114.5 -29t83.5 -80v97zM313 71q78 0 130 52.5t52 131.5t-52 131.5t-130 52.5q-79 0 -131 -52.5t-52 -131.5t52 -131.5
t131 -52.5z" />
    <glyph glyph-name="abreve.ss01" horiz-adv-x="654" 
d="M329 567q-59 0 -98.5 38t-39.5 95h68q0 -30 20 -50.5t50 -20.5t50 20.5t20 50.5h68q0 -57 -39.5 -95t-98.5 -38zM495 510h86v-510h-86v97q-32 -51 -83.5 -80t-114.5 -29q-109 0 -182 76.5t-73 190.5t73 190.5t182 76.5q63 0 114.5 -29t83.5 -80v97zM313 71q78 0 130 52.5
t52 131.5t-52 131.5t-130 52.5q-79 0 -131 -52.5t-52 -131.5t52 -131.5t131 -52.5z" />
    <glyph glyph-name="uni01CE.ss01" horiz-adv-x="654" 
d="M382 577h-105l-100 129h82l71 -83l71 83h82zM495 510h86v-510h-86v97q-32 -51 -83.5 -80t-114.5 -29q-109 0 -182 76.5t-73 190.5t73 190.5t182 76.5q63 0 114.5 -29t83.5 -80v97zM313 71q78 0 130 52.5t52 131.5t-52 131.5t-130 52.5q-79 0 -131 -52.5t-52 -131.5
t52 -131.5t131 -52.5z" />
    <glyph glyph-name="acircumflex.ss01" horiz-adv-x="654" 
d="M330 660l-71 -83h-82l100 129h105l101 -129h-82zM495 510h86v-510h-86v97q-32 -51 -83.5 -80t-114.5 -29q-109 0 -182 76.5t-73 190.5t73 190.5t182 76.5q63 0 114.5 -29t83.5 -80v97zM313 71q78 0 130 52.5t52 131.5t-52 131.5t-130 52.5q-79 0 -131 -52.5t-52 -131.5
t52 -131.5t131 -52.5z" />
    <glyph glyph-name="uni0201.ss01" horiz-adv-x="654" 
d="M276 577h-83l-95 129h96zM471 577h-83l-95 129h96zM495 510h86v-510h-86v97q-32 -51 -83.5 -80t-114.5 -29q-109 0 -182 76.5t-73 190.5t73 190.5t182 76.5q63 0 114.5 -29t83.5 -80v97zM313 71q78 0 130 52.5t52 131.5t-52 131.5t-130 52.5q-79 0 -131 -52.5t-52 -131.5
t52 -131.5t131 -52.5z" />
    <glyph glyph-name="adieresis.ss01" horiz-adv-x="654" 
d="M226 582q-22 0 -37.5 15t-15.5 38t15.5 38t37.5 15q23 0 38.5 -15.5t15.5 -37.5t-15.5 -37.5t-38.5 -15.5zM433 582q-23 0 -38 15t-15 38t15 38t38 15t38.5 -15.5t15.5 -37.5t-15.5 -37.5t-38.5 -15.5zM495 510h86v-510h-86v97q-32 -51 -83.5 -80t-114.5 -29
q-109 0 -182 76.5t-73 190.5t73 190.5t182 76.5q63 0 114.5 -29t83.5 -80v97zM313 71q78 0 130 52.5t52 131.5t-52 131.5t-130 52.5q-79 0 -131 -52.5t-52 -131.5t52 -131.5t131 -52.5z" />
    <glyph glyph-name="uni1EA1.ss01" horiz-adv-x="654" 
d="M495 510h86v-510h-86v97q-32 -51 -83.5 -80t-114.5 -29q-109 0 -182 76.5t-73 190.5t73 190.5t182 76.5q63 0 114.5 -29t83.5 -80v97zM313 71q78 0 130 52.5t52 131.5t-52 131.5t-130 52.5q-79 0 -131 -52.5t-52 -131.5t52 -131.5t131 -52.5zM330 -72q23 0 39 -16t16 -39
t-16 -39t-39 -16q-24 0 -40 16t-16 39t16 39t40 16z" />
    <glyph glyph-name="agrave.ss01" horiz-adv-x="654" 
d="M382 577h-91l-123 129h111zM495 510h86v-510h-86v97q-32 -51 -83.5 -80t-114.5 -29q-109 0 -182 76.5t-73 190.5t73 190.5t182 76.5q63 0 114.5 -29t83.5 -80v97zM313 71q78 0 130 52.5t52 131.5t-52 131.5t-130 52.5q-79 0 -131 -52.5t-52 -131.5t52 -131.5t131 -52.5z
" />
    <glyph glyph-name="uni0203.ss01" horiz-adv-x="654" 
d="M329 642q-30 0 -50 -20t-20 -51h-68q0 57 39.5 95.5t98.5 38.5t98.5 -38.5t39.5 -95.5h-68q0 31 -20 51t-50 20zM495 510h86v-510h-86v97q-32 -51 -83.5 -80t-114.5 -29q-109 0 -182 76.5t-73 190.5t73 190.5t182 76.5q63 0 114.5 -29t83.5 -80v97zM313 71q78 0 130 52.5
t52 131.5t-52 131.5t-130 52.5q-79 0 -131 -52.5t-52 -131.5t52 -131.5t131 -52.5z" />
    <glyph glyph-name="amacron.ss01" horiz-adv-x="654" 
d="M448 665v-73h-237v73h237zM495 510h86v-510h-86v97q-32 -51 -83.5 -80t-114.5 -29q-109 0 -182 76.5t-73 190.5t73 190.5t182 76.5q63 0 114.5 -29t83.5 -80v97zM313 71q78 0 130 52.5t52 131.5t-52 131.5t-130 52.5q-79 0 -131 -52.5t-52 -131.5t52 -131.5t131 -52.5z
" />
    <glyph glyph-name="aogonek.ss01" horiz-adv-x="654" 
d="M529 -160q35 0 63 23v-64q-34 -22 -80 -22q-45 0 -75.5 28t-30.5 69q0 39 27.5 72.5t73.5 53.5h-12v97q-32 -51 -83.5 -80t-114.5 -29q-109 0 -182 76.5t-73 190.5t73 190.5t182 76.5q63 0 114.5 -29t83.5 -80v97h86v-510q-106 -47 -106 -108q0 -23 15.5 -37.5
t38.5 -14.5zM313 71q78 0 130 52.5t52 131.5t-52 131.5t-130 52.5q-79 0 -131 -52.5t-52 -131.5t52 -131.5t131 -52.5z" />
    <glyph glyph-name="aring.ss01" horiz-adv-x="654" 
d="M329 563q-37 0 -62 24.5t-25 61.5q0 36 25 60.5t62 24.5t62 -24.5t25 -60.5q0 -37 -25 -61.5t-62 -24.5zM329 689q-17 0 -28 -11.5t-11 -28.5q0 -18 11 -29.5t28 -11.5t28 11.5t11 29.5q0 17 -11 28.5t-28 11.5zM495 510h86v-510h-86v97q-32 -51 -83.5 -80t-114.5 -29
q-109 0 -182 76.5t-73 190.5t73 190.5t182 76.5q63 0 114.5 -29t83.5 -80v97zM313 71q78 0 130 52.5t52 131.5t-52 131.5t-130 52.5q-79 0 -131 -52.5t-52 -131.5t52 -131.5t131 -52.5z" />
    <glyph glyph-name="atilde.ss01" horiz-adv-x="654" 
d="M271 638q-21 0 -35 -14.5t-14 -35.5h-62q0 51 27.5 84.5t73.5 33.5q33 0 69.5 -27t56.5 -27q21 0 35 14t14 36h63q0 -52 -27.5 -85.5t-74.5 -33.5q-33 0 -69.5 27.5t-56.5 27.5zM495 510h86v-510h-86v97q-32 -51 -83.5 -80t-114.5 -29q-109 0 -182 76.5t-73 190.5
t73 190.5t182 76.5q63 0 114.5 -29t83.5 -80v97zM313 71q78 0 130 52.5t52 131.5t-52 131.5t-130 52.5q-79 0 -131 -52.5t-52 -131.5t52 -131.5t131 -52.5z" />
    <glyph glyph-name="k.ss02" horiz-adv-x="517" 
d="M503 0h-111l-233 222v-222h-86v720h86v-426l227 216h110l-256 -254z" />
    <glyph glyph-name="uni0137.ss02" horiz-adv-x="517" 
d="M240 256l263 -256h-111l-233 222v-222h-86v720h86v-426l227 216h110zM206 -220l35 154h90l-54 -154h-71z" />
    <glyph glyph-name="g.ss04" horiz-adv-x="655" 
d="M496 510h86v-455q0 -116 -71.5 -186.5t-188.5 -70.5q-99 0 -166 50.5t-89 139.5h89q15 -51 59.5 -81t106.5 -30q79 0 126.5 49t47.5 130v49q-32 -50 -83.5 -78.5t-115.5 -28.5q-109 0 -182 74.5t-73 187.5q0 112 73 187t182 75q63 0 115 -29t84 -79v96zM314 76
q78 0 130 52.5t52 131.5q0 78 -52 130.5t-130 52.5q-79 0 -131 -52.5t-52 -130.5q0 -79 52 -131.5t131 -52.5z" />
    <glyph glyph-name="uni01F5.ss04" horiz-adv-x="655" 
d="M489 706l-122 -129h-92l104 129h110zM496 510h86v-455q0 -116 -71.5 -186.5t-188.5 -70.5q-99 0 -166 50.5t-89 139.5h89q15 -51 59.5 -81t106.5 -30q79 0 126.5 49t47.5 130v49q-32 -50 -83.5 -78.5t-115.5 -28.5q-109 0 -182 74.5t-73 187.5q0 112 73 187t182 75
q63 0 115 -29t84 -79v96zM314 76q78 0 130 52.5t52 131.5q0 78 -52 130.5t-130 52.5q-79 0 -131 -52.5t-52 -130.5q0 -79 52 -131.5t131 -52.5z" />
    <glyph glyph-name="gbreve.ss04" horiz-adv-x="655" 
d="M328 567q-59 0 -98.5 38t-39.5 95h68q0 -30 20 -50.5t50 -20.5t50 20.5t20 50.5h68q0 -57 -39.5 -95t-98.5 -38zM496 510h86v-455q0 -116 -71.5 -186.5t-188.5 -70.5q-99 0 -166 50.5t-89 139.5h89q15 -51 59.5 -81t106.5 -30q79 0 126.5 49t47.5 130v49
q-32 -50 -83.5 -78.5t-115.5 -28.5q-109 0 -182 74.5t-73 187.5q0 112 73 187t182 75q63 0 115 -29t84 -79v96zM314 76q78 0 130 52.5t52 131.5q0 78 -52 130.5t-130 52.5q-79 0 -131 -52.5t-52 -130.5q0 -79 52 -131.5t131 -52.5z" />
    <glyph glyph-name="gcaron.ss04" horiz-adv-x="655" 
d="M380 577h-105l-100 129h82l71 -83l71 83h82zM496 510h86v-455q0 -116 -71.5 -186.5t-188.5 -70.5q-99 0 -166 50.5t-89 139.5h89q15 -51 59.5 -81t106.5 -30q79 0 126.5 49t47.5 130v49q-32 -50 -83.5 -78.5t-115.5 -28.5q-109 0 -182 74.5t-73 187.5q0 112 73 187
t182 75q63 0 115 -29t84 -79v96zM314 76q78 0 130 52.5t52 131.5q0 78 -52 130.5t-130 52.5q-79 0 -131 -52.5t-52 -130.5q0 -79 52 -131.5t131 -52.5z" />
    <glyph glyph-name="gcircumflex.ss04" horiz-adv-x="655" 
d="M328 660l-71 -83h-82l100 129h105l101 -129h-82zM496 510h86v-455q0 -116 -71.5 -186.5t-188.5 -70.5q-99 0 -166 50.5t-89 139.5h89q15 -51 59.5 -81t106.5 -30q79 0 126.5 49t47.5 130v49q-32 -50 -83.5 -78.5t-115.5 -28.5q-109 0 -182 74.5t-73 187.5q0 112 73 187
t182 75q63 0 115 -29t84 -79v96zM314 76q78 0 130 52.5t52 131.5q0 78 -52 130.5t-130 52.5q-79 0 -131 -52.5t-52 -130.5q0 -79 52 -131.5t131 -52.5z" />
    <glyph glyph-name="uni0123.ss04" horiz-adv-x="655" 
d="M390 725l-35 -154h-90l54 154h71zM496 510h86v-455q0 -116 -71.5 -186.5t-188.5 -70.5q-99 0 -166 50.5t-89 139.5h89q15 -51 59.5 -81t106.5 -30q79 0 126.5 49t47.5 130v49q-32 -50 -83.5 -78.5t-115.5 -28.5q-109 0 -182 74.5t-73 187.5q0 112 73 187t182 75
q63 0 115 -29t84 -79v96zM314 76q78 0 130 52.5t52 131.5q0 78 -52 130.5t-130 52.5q-79 0 -131 -52.5t-52 -130.5q0 -79 52 -131.5t131 -52.5z" />
    <glyph glyph-name="gdotaccent.ss04" horiz-adv-x="655" 
d="M328 582q-24 0 -40 16t-16 39t16 39t40 16q23 0 39 -16t16 -39t-16 -39t-39 -16zM496 510h86v-455q0 -116 -71.5 -186.5t-188.5 -70.5q-99 0 -166 50.5t-89 139.5h89q15 -51 59.5 -81t106.5 -30q79 0 126.5 49t47.5 130v49q-32 -50 -83.5 -78.5t-115.5 -28.5
q-109 0 -182 74.5t-73 187.5q0 112 73 187t182 75q63 0 115 -29t84 -79v96zM314 76q78 0 130 52.5t52 131.5q0 78 -52 130.5t-130 52.5q-79 0 -131 -52.5t-52 -130.5q0 -79 52 -131.5t131 -52.5z" />
    <glyph glyph-name="f_t.dlig" horiz-adv-x="725" 
d="M688 432h-142v-353h142v-79h-228v432h-247v-432h-86v432h-93v78h93v210h228v-79h-142v-131h247v150h86v-150h142v-78z" />
    <glyph glyph-name="t_t.dlig" horiz-adv-x="750" 
d="M713 432h-142v-353h142v-79h-228v432h-268v-353h143v-79h-229v432h-99v78h99v150h86v-150h268v150h86v-150h142v-78z" />
    <glyph glyph-name="zero.zero" horiz-adv-x="643" 
d="M322 702q117 0 191 -99.5t74 -257.5t-74 -257.5t-191 -99.5q-118 0 -192 99.5t-74 257.5t74 257.5t192 99.5zM322 614q-76 0 -124 -75t-48 -194q0 -75 20 -135l274 331q-48 73 -122 73zM322 76q75 0 123 75t48 194q0 75 -20 135l-274 -331q48 -73 123 -73z" />
    <glyph glyph-name="zero.subs" horiz-adv-x="396" 
d="M198 -121q-71 0 -116 60t-45 154t45 154t116 60t116 -60t45 -154t-45 -154t-116 -60zM198 -57q41 0 67 41t26 109t-26 109t-67 41t-67 -41.5t-26 -108.5t26 -108.5t67 -41.5z" />
    <glyph glyph-name="one.subs" horiz-adv-x="302" 
d="M193 -54h81v-60h-235v60h89v276l-89 -40v69l108 49h46v-354z" />
    <glyph glyph-name="two.subs" horiz-adv-x="339" 
d="M131 -54h174v-60h-272v50l156 163q45 47 45 80q0 28 -19 47.5t-47 19.5t-46.5 -19t-18.5 -48h-67q0 55 38.5 91.5t95.5 36.5q56 0 93.5 -36.5t37.5 -91.5t-54 -111z" />
    <glyph glyph-name="three.subs" horiz-adv-x="330" 
d="M243 101q58 -31 58 -97q0 -52 -39 -88.5t-97 -36.5t-97.5 36.5t-39.5 91.5h67q0 -28 20.5 -47.5t49.5 -19.5q30 0 50 19t20 48t-20 49t-50 20h-57v48h57q26 0 44 18.5t18 45.5q0 25 -18 42t-44 17t-44 -17t-18 -42h-68q0 50 37.5 84.5t92.5 34.5t92 -34t37 -82
q0 -59 -51 -90z" />
    <glyph glyph-name="four.subs" horiz-adv-x="357" 
d="M336 34v-60h-52v-88h-66v88h-195v48l181 278h80v-266h52zM94 34h124v193z" />
    <glyph glyph-name="five.subs" horiz-adv-x="351" 
d="M188 149q59 0 98.5 -38.5t39.5 -96.5t-41 -96.5t-103 -38.5q-61 0 -102 38.5t-41 96.5h67q0 -33 22 -54.5t54 -21.5q33 0 55 22t22 54q0 33 -22 55.5t-55 22.5q-20 0 -39.5 -10t-28.5 -24h-67l20 242h232v-59h-172l-11 -116q31 24 72 24z" />
    <glyph glyph-name="six.subs" horiz-adv-x="342" 
d="M179 151q58 0 97.5 -38.5t39.5 -95.5q0 -59 -41 -98.5t-102 -39.5t-102.5 40t-41.5 98q0 44 27 85l132 198h78l-100 -150q4 1 13 1zM173 -59q32 0 54 21.5t22 54.5q0 32 -22 54t-54 22t-54 -22t-22 -54q0 -33 22 -54.5t54 -21.5z" />
    <glyph glyph-name="seven.subs" horiz-adv-x="326" 
d="M32 300h273v-51l-169 -363h-73l163 352h-194v62z" />
    <glyph glyph-name="eight.subs" horiz-adv-x="335" 
d="M242 100q64 -33 64 -101q0 -51 -39.5 -85.5t-98.5 -34.5t-98.5 34.5t-39.5 85.5q0 68 63 101q-55 32 -55 93q0 49 37 81.5t93 32.5t93 -32.5t37 -81.5q0 -60 -56 -93zM168 243q-27 0 -45 -17t-18 -42q0 -26 18 -43t45 -17t45 17t18 43q0 25 -18 42t-45 17zM168 -57
q30 0 50 18.5t20 46.5t-20 46.5t-50 18.5q-29 0 -49.5 -18.5t-20.5 -46.5t20 -46.5t50 -18.5z" />
    <glyph glyph-name="nine.subs" horiz-adv-x="342" 
d="M173 307q61 0 102 -39.5t41 -98.5q0 -43 -28 -85l-130 -198h-78l100 150q-5 -1 -14 -1q-58 0 -97.5 38.5t-39.5 95.5q0 59 41.5 98.5t102.5 39.5zM173 93q32 0 54 22t22 54q0 33 -22 55t-54 22q-33 0 -55 -22t-22 -55q0 -32 22 -54t55 -22z" />
    <glyph glyph-name="zero.dnom" horiz-adv-x="396" 
d="M198 -7q-71 0 -116 60t-45 154t45 154t116 60t116 -60t45 -154t-45 -154t-116 -60zM198 57q41 0 67 41t26 109t-26 109t-67 41t-67 -41.5t-26 -108.5t26 -108.5t67 -41.5z" />
    <glyph glyph-name="one.dnom" horiz-adv-x="302" 
d="M193 60h81v-60h-235v60h89v276l-89 -40v69l108 49h46v-354z" />
    <glyph glyph-name="two.dnom" horiz-adv-x="339" 
d="M131 60h174v-60h-272v50l156 163q45 47 45 80q0 28 -19 47.5t-47 19.5t-46.5 -19t-18.5 -48h-67q0 55 38.5 91.5t95.5 36.5q56 0 93.5 -36.5t37.5 -91.5t-54 -111z" />
    <glyph glyph-name="three.dnom" horiz-adv-x="330" 
d="M243 215q58 -31 58 -97q0 -52 -39 -88.5t-97 -36.5t-97.5 36.5t-39.5 91.5h67q0 -28 20.5 -47.5t49.5 -19.5q30 0 50 19t20 48t-20 49t-50 20h-57v48h57q26 0 44 18.5t18 45.5q0 25 -18 42t-44 17t-44 -17t-18 -42h-68q0 50 37.5 84.5t92.5 34.5t92 -34t37 -82
q0 -59 -51 -90z" />
    <glyph glyph-name="four.dnom" horiz-adv-x="357" 
d="M336 148v-60h-52v-88h-66v88h-195v48l181 278h80v-266h52zM94 148h124v193z" />
    <glyph glyph-name="five.dnom" horiz-adv-x="351" 
d="M188 263q59 0 98.5 -38.5t39.5 -96.5t-41 -96.5t-103 -38.5q-61 0 -102 38.5t-41 96.5h67q0 -33 22 -54.5t54 -21.5q33 0 55 22t22 54q0 33 -22 55.5t-55 22.5q-20 0 -39.5 -10t-28.5 -24h-67l20 242h232v-59h-172l-11 -116q31 24 72 24z" />
    <glyph glyph-name="six.dnom" horiz-adv-x="342" 
d="M179 265q58 0 97.5 -38.5t39.5 -95.5q0 -59 -41 -98.5t-102 -39.5t-102.5 40t-41.5 98q0 44 27 85l132 198h78l-100 -150q4 1 13 1zM173 55q32 0 54 21.5t22 54.5q0 32 -22 54t-54 22t-54 -22t-22 -54q0 -33 22 -54.5t54 -21.5z" />
    <glyph glyph-name="seven.dnom" horiz-adv-x="326" 
d="M32 414h273v-51l-169 -363h-73l163 352h-194v62z" />
    <glyph glyph-name="eight.dnom" horiz-adv-x="335" 
d="M242 214q64 -33 64 -101q0 -51 -39.5 -85.5t-98.5 -34.5t-98.5 34.5t-39.5 85.5q0 68 63 101q-55 32 -55 93q0 49 37 81.5t93 32.5t93 -32.5t37 -81.5q0 -60 -56 -93zM168 357q-27 0 -45 -17t-18 -42q0 -26 18 -43t45 -17t45 17t18 43q0 25 -18 42t-45 17zM168 57
q30 0 50 18.5t20 46.5t-20 46.5t-50 18.5q-29 0 -49.5 -18.5t-20.5 -46.5t20 -46.5t50 -18.5z" />
    <glyph glyph-name="nine.dnom" horiz-adv-x="342" 
d="M173 421q61 0 102 -39.5t41 -98.5q0 -43 -28 -85l-130 -198h-78l100 150q-5 -1 -14 -1q-58 0 -97.5 38.5t-39.5 95.5q0 59 41.5 98.5t102.5 39.5zM173 207q32 0 54 22t22 54q0 33 -22 55t-54 22q-33 0 -55 -22t-22 -55q0 -32 22 -54t55 -22z" />
    <glyph glyph-name="zero.numr" horiz-adv-x="396" 
d="M198 269q-71 0 -116 60t-45 154t45 154t116 60t116 -60t45 -154t-45 -154t-116 -60zM198 333q41 0 67 41t26 109t-26 109t-67 41t-67 -41.5t-26 -108.5t26 -108.5t67 -41.5z" />
    <glyph glyph-name="one.numr" horiz-adv-x="302" 
d="M193 336h81v-60h-235v60h89v276l-89 -40v69l108 49h46v-354z" />
    <glyph glyph-name="two.numr" horiz-adv-x="339" 
d="M131 336h174v-60h-272v50l156 163q45 47 45 80q0 28 -19 47.5t-47 19.5t-46.5 -19t-18.5 -48h-67q0 55 38.5 91.5t95.5 36.5q56 0 93.5 -36.5t37.5 -91.5t-54 -111z" />
    <glyph glyph-name="three.numr" horiz-adv-x="330" 
d="M243 491q58 -31 58 -97q0 -52 -39 -88.5t-97 -36.5t-97.5 36.5t-39.5 91.5h67q0 -28 20.5 -47.5t49.5 -19.5q30 0 50 19t20 48t-20 49t-50 20h-57v48h57q26 0 44 18.5t18 45.5q0 25 -18 42t-44 17t-44 -17t-18 -42h-68q0 50 37.5 84.5t92.5 34.5t92 -34t37 -82
q0 -59 -51 -90z" />
    <glyph glyph-name="four.numr" horiz-adv-x="357" 
d="M336 424v-60h-52v-88h-66v88h-195v48l181 278h80v-266h52zM94 424h124v193z" />
    <glyph glyph-name="five.numr" horiz-adv-x="351" 
d="M188 539q59 0 98.5 -38.5t39.5 -96.5t-41 -96.5t-103 -38.5q-61 0 -102 38.5t-41 96.5h67q0 -33 22 -54.5t54 -21.5q33 0 55 22t22 54q0 33 -22 55.5t-55 22.5q-20 0 -39.5 -10t-28.5 -24h-67l20 242h232v-59h-172l-11 -116q31 24 72 24z" />
    <glyph glyph-name="six.numr" horiz-adv-x="342" 
d="M179 541q58 0 97.5 -38.5t39.5 -95.5q0 -59 -41 -98.5t-102 -39.5t-102.5 40t-41.5 98q0 44 27 85l132 198h78l-100 -150q4 1 13 1zM173 331q32 0 54 21.5t22 54.5q0 32 -22 54t-54 22t-54 -22t-22 -54q0 -33 22 -54.5t54 -21.5z" />
    <glyph glyph-name="seven.numr" horiz-adv-x="326" 
d="M32 690h273v-51l-169 -363h-73l163 352h-194v62z" />
    <glyph glyph-name="eight.numr" horiz-adv-x="335" 
d="M242 490q64 -33 64 -101q0 -51 -39.5 -85.5t-98.5 -34.5t-98.5 34.5t-39.5 85.5q0 68 63 101q-55 32 -55 93q0 49 37 81.5t93 32.5t93 -32.5t37 -81.5q0 -60 -56 -93zM168 633q-27 0 -45 -17t-18 -42q0 -26 18 -43t45 -17t45 17t18 43q0 25 -18 42t-45 17zM168 333
q30 0 50 18.5t20 46.5t-20 46.5t-50 18.5q-29 0 -49.5 -18.5t-20.5 -46.5t20 -46.5t50 -18.5z" />
    <glyph glyph-name="nine.numr" horiz-adv-x="342" 
d="M173 697q61 0 102 -39.5t41 -98.5q0 -43 -28 -85l-130 -198h-78l100 150q-5 -1 -14 -1q-58 0 -97.5 38.5t-39.5 95.5q0 59 41.5 98.5t102.5 39.5zM173 483q32 0 54 22t22 54q0 33 -22 55t-54 22q-33 0 -55 -22t-22 -55q0 -32 22 -54t55 -22z" />
    <glyph glyph-name="exclamdown.case" horiz-adv-x="253" 
d="M127 572q-27 0 -45 18t-18 45q0 26 18 44t45 18q26 0 44 -18t18 -44q0 -27 -18 -45t-44 -18zM81 0v170l6 327h80l5 -327v-170h-91z" />
    <glyph glyph-name="questiondown.case" horiz-adv-x="500" 
d="M260 572q-26 0 -44 18t-18 45q0 26 18 44t44 18q27 0 45 -18t18 -44q0 -27 -18 -45t-45 -18zM260 -12q-86 0 -144 56.5t-58 141.5q0 54 23.5 90.5t64.5 71.5q23 20 35.5 33t23 34.5t10.5 45.5v32h91v-32q0 -38 -14.5 -70t-30 -49t-42.5 -40q-33 -29 -50.5 -55t-17.5 -61
q0 -47 31 -78.5t78 -31.5t78 31.5t31 78.5h94q0 -85 -58 -141.5t-145 -56.5z" />
    <glyph glyph-name="periodcentered.case" horiz-adv-x="255" 
d="M128 281q-28 0 -46.5 18.5t-18.5 45.5t18.5 45.5t46.5 18.5q27 0 45.5 -18.5t18.5 -45.5t-18.5 -45.5t-45.5 -18.5z" />
    <glyph glyph-name="bullet.case" horiz-adv-x="318" 
d="M159 250q-41 0 -68.5 27t-27.5 68t27.5 68t68.5 27t68.5 -27t27.5 -68t-27.5 -68t-68.5 -27z" />
    <glyph glyph-name="asterisk.case" horiz-adv-x="397" 
d="M247 540l21 -9l77 -43l-28 -47l-77 43l-17 14l3 -22v-87h-55v87l4 22l-18 -14l-77 -43l-28 47l77 44l21 8l-21 8l-77 43l28 48l77 -44l18 -14l-4 22v87h55v-87l-3 -22l17 14l77 44l28 -48l-77 -44z" />
    <glyph glyph-name="slash.case" horiz-adv-x="517" 
d="M15 -105l400 900h87l-400 -900h-87z" />
    <glyph glyph-name="backslash.case" horiz-adv-x="517" 
d="M415 -105l-400 900h87l400 -900h-87z" />
    <glyph glyph-name="parenleft.case" horiz-adv-x="340" 
d="M228 -125q-64 85 -103 213.5t-39 256.5t39 256.5t103 213.5h87q-62 -85 -100 -213.5t-38 -256.5t38 -256.5t100 -213.5h-87z" />
    <glyph glyph-name="parenright.case" horiz-adv-x="340" 
d="M25 -125q62 85 100 213.5t38 256.5t-38 256.5t-100 213.5h87q64 -85 103 -213.5t39 -256.5t-39 -256.5t-103 -213.5h-87z" />
    <glyph glyph-name="braceleft.case" horiz-adv-x="409" 
d="M248 421q0 -25 -14.5 -45.5t-38.5 -29.5q53 -22 53 -76v-249q0 -28 17.5 -46.5t45.5 -18.5h60v-81h-92q-53 0 -86.5 34t-33.5 87v253q0 25 -15 40.5t-39 15.5h-39v81h39q24 0 39 15.5t15 40.5v252q0 53 33.5 87t86.5 34h92v-81h-60q-28 0 -45.5 -18.5t-17.5 -46.5v-248z
" />
    <glyph glyph-name="braceright.case" horiz-adv-x="409" 
d="M304 386h39v-81h-39q-24 0 -39 -15.5t-15 -40.5v-253q0 -53 -33.5 -87t-86.5 -34h-92v81h60q28 0 45.5 18.5t17.5 46.5v249q0 54 53 76q-24 9 -38.5 29.5t-14.5 45.5v248q0 28 -17.5 46.5t-45.5 18.5h-60v81h92q53 0 86.5 -34t33.5 -87v-252q0 -25 15 -40.5t39 -15.5z
" />
    <glyph glyph-name="bracketleft.case" horiz-adv-x="350" 
d="M312 734h-127v-778h127v-81h-216v940h216v-81z" />
    <glyph glyph-name="bracketright.case" horiz-adv-x="350" 
d="M38 815h216v-940h-216v81h127v778h-127v81z" />
    <glyph glyph-name="hyphen.case" horiz-adv-x="408" 
d="M63 304v83h282v-83h-282z" />
    <glyph glyph-name="endash.case" horiz-adv-x="608" 
d="M63 307v78h482v-78h-482z" />
    <glyph glyph-name="emdash.case" horiz-adv-x="1068" 
d="M63 307v78h942v-78h-942z" />
    <glyph glyph-name="guillemotleft.case" horiz-adv-x="623" 
d="M321 548l-167 -203l167 -203h-102l-166 203l166 203h102zM566 548l-166 -203l166 -203h-102l-166 203l166 203h102z" />
    <glyph glyph-name="guillemotright.case" horiz-adv-x="623" 
d="M162 548l166 -203l-166 -203h-102l166 203l-166 203h102zM407 548l166 -203l-166 -203h-102l167 203l-167 203h102z" />
    <glyph glyph-name="guilsinglleft.case" horiz-adv-x="378" 
d="M321 548l-167 -203l167 -203h-102l-166 203l166 203h102z" />
    <glyph glyph-name="guilsinglright.case" horiz-adv-x="378" 
d="M162 548l166 -203l-166 -203h-102l166 203l-166 203h102z" />
    <glyph glyph-name="plus.case" horiz-adv-x="534" 
d="M471 384v-78h-164v-165h-80v165h-164v78h164v165h80v-165h164z" />
    <glyph glyph-name="at.case" horiz-adv-x="841" 
d="M518 515h81v-239q0 -20 12.5 -33.5t32.5 -13.5q32 0 52.5 38t20.5 97q0 118 -84 197t-208 79q-128 0 -212.5 -84t-84.5 -211t84.5 -211.5t212.5 -84.5q111 0 186 60h112q-54 -61 -132.5 -96t-166.5 -35q-159 0 -265 105t-106 262q0 156 106.5 261t265.5 105
q155 0 260.5 -99.5t105.5 -248.5q0 -89 -39.5 -144t-108.5 -55q-41 0 -72 17.5t-45 48.5q-41 -68 -128 -68q-76 0 -126 52t-50 130t49.5 130.5t121.5 52.5q80 0 125 -62v50zM411 240q46 0 76.5 30t30.5 75q0 44 -31 74t-76 30t-75 -29.5t-30 -74.5q0 -46 30 -75.5t75 -29.5z
" />
    <glyph glyph-name="uni030C.alt" 
d="M-101 519l21 201h80l-36 -201h-65z" />
    <glyph glyph-name="caron.alt" horiz-adv-x="101" 
d="M0 519l21 201h80l-36 -201h-65z" />
    </font>
</defs>
</svg>
