<svg width="68" height="82" xmlns="http://www.w3.org/2000/svg"><g fill="#183153"><path d="M2.731 27.189A1.61 1.61 0 001.6 26.72c-.42 0-.833.171-1.131.469-.298.297-.469.71-.469 1.131 0 .42.171.834.469 1.131.297.298.71.469 1.131.469.42 0 .834-.171 1.131-.469A1.61 1.61 0 003.2 28.32c0-.42-.171-.834-.469-1.131zM63.04 0H30.667a1.6 1.6 0 000 3.2H63.04c.882 0 1.6.718 1.6 1.6v72.32c0 .882-.718 1.6-1.6 1.6H4.8c-.882 0-1.6-.718-1.6-1.6V34.293a1.6 1.6 0 00-3.2 0V77.12c0 2.647 2.153 4.8 4.8 4.8h58.24c2.647 0 4.8-2.153 4.8-4.8V4.8c0-2.647-2.153-4.8-4.8-4.8z"/><path d="M33.92 6.4c-1.089 0-2.183.083-3.252.247a1.6 1.6 0 00.485 3.163c.91-.14 1.84-.21 2.767-.21C43.89 9.6 52 17.71 52 27.68c0 4.427-1.6 8.487-4.252 11.634a16 16 0 00-4.72-5.108 15.937 15.937 0 00-3.632-1.882 7.816 7.816 0 002.364-5.604v-1.56c0-4.323-3.517-7.84-7.84-7.84s-7.84 3.517-7.84 7.84v1.56c0 2.194.907 4.18 2.364 5.604a15.943 15.943 0 00-3.631 1.882 16.002 16.002 0 00-4.738 5.136 18.02 18.02 0 01-3.985-8.648 1.6 1.6 0 00-3.156.53A21.284 21.284 0 0033.92 48.96c11.734 0 21.28-9.547 21.28-21.28 0-11.735-9.546-21.28-21.28-21.28zm-4.64 18.76a4.645 4.645 0 014.64-4.64 4.645 4.645 0 014.64 4.64v1.56a4.645 4.645 0 01-4.64 4.64 4.645 4.645 0 01-4.64-4.64v-1.56zm4.64 20.6a18.058 18.058 0 01-11.471-4.077A12.72 12.72 0 0133.92 34.56a12.72 12.72 0 0111.457 7.096A17.996 17.996 0 0133.92 45.76zm14.777 17.92h-22.72a1.6 1.6 0 000 3.2h22.72a1.6 1.6 0 000-3.2zm-28.423-8.491a1.611 1.611 0 00-1.132-.469c-.42 0-.833.171-1.13.469a1.61 1.61 0 00-.47 1.131c0 .422.172.834.47 1.131.297.298.71.469 1.13.469a1.605 1.605 0 001.6-1.6c0-.42-.17-.834-.468-1.131zm0 8.96a1.609 1.609 0 00-1.132-.469c-.42 0-.833.171-1.13.469a1.61 1.61 0 00-.47 1.131c0 .422.172.834.47 1.131.297.298.71.469 1.13.469a1.602 1.602 0 001.131-2.731zm28.423-9.429h-22.72a1.6 1.6 0 000 3.2h22.72a1.6 1.6 0 000-3.2zM18.82 9.22a1.6 1.6 0 00-2.263 0l-5.21 5.211-1.78-1.78a1.6 1.6 0 00-2.264 2.262l2.912 2.912a1.596 1.596 0 002.263 0l6.342-6.341a1.6 1.6 0 000-2.263z"/><path d="M13.12 0C5.886 0 0 5.886 0 13.12c0 7.234 5.886 13.12 13.12 13.12 7.234 0 13.12-5.886 13.12-13.12C26.24 5.886 20.354 0 13.12 0zm0 23.04c-5.47 0-9.92-4.45-9.92-9.92S7.65 3.2 13.12 3.2s9.92 4.45 9.92 9.92-4.45 9.92-9.92 9.92z"/></g></svg>