<svg viewBox="0 0 587.71 172.93" xmlns="http://www.w3.org/2000/svg"><path d="M129.47 138.42v7.45c-6.42 0-10.19 3.94-10.19 10.1v16.19H112v-33.23h7.28v5.4c2.4-3.68 5.91-5.91 10.19-5.91m10.19 13.96h19.7a10.18 10.18 0 00-19.7 0zm27.4 5.91h-27.48a9.86 9.86 0 009.93 8c4.19 0 7.71-2 9.08-4.71h8c-2.4 6.68-8.91 11.3-17.13 11.3-10.1 0-17.72-7.45-17.72-17.38s7.62-17.38 17.72-17.38 17.81 7.45 17.81 17.47a14.84 14.84 0 01-.17 2.74m4.5-2.78c0-9.85 7.62-17.39 17.81-17.39 8.74 0 15.67 5.57 17.3 13.53H199a10.37 10.37 0 100 7.71h7.71c-1.63 8-8.56 13.53-17.3 13.53-10.19 0-17.81-7.54-17.81-17.38m59-17.13v7.45c-6.42 0-10.19 3.94-10.19 10.1v16.19h-7.28v-33.23h7.28v5.4c2.4-3.68 5.91-5.91 10.19-5.91m35.96.51v33.23h-7.27v-4.45a12.49 12.49 0 01-10.62 5.22c-7.62 0-12.68-5.05-12.68-12.85v-21.15h7.28v19c0 4.71 3.09 8 7.71 8 5 0 8.31-3.26 8.31-8v-19zm8.65 0h7.28v33.23h-7.28zm-.94-10.19a4.67 4.67 0 019.33 0 4.62 4.62 0 01-4.7 4.63 4.56 4.56 0 01-4.63-4.63m27.92 16.87v19.87h8.65v6.68h-15.93v-26.55h-6.17v-6.68h6.17v-9.76h7.28v9.76h8.65v6.68zm67.45 4.96v21.51h-7.29v-19.4c0-4.56-2.9-7.55-7.37-7.55-4.66 0-7.91 3.07-7.91 7.64V172h-7.28v-19.41c0-4.56-2.9-7.55-7.38-7.55-4.65 0-7.9 3.07-7.9 7.64v19.23h-7.29v-33.19h7.29V143a12.12 12.12 0 0110.27-5.09c5.18 0 9 2.37 11 6.41a12.77 12.77 0 0111.59-6.41c7.46.18 12.29 5.18 12.29 12.64m14.01 1.79h19.74a10.2 10.2 0 00-19.74 0zm27.36 6h-27.45a9.87 9.87 0 0010 8c4.22 0 7.71-2 9.06-4.75h8c-2.42 6.72-8.88 11.3-17.13 11.3-10.05 0-17.67-7.45-17.67-17.4s7.62-17.41 17.67-17.41 17.76 7.45 17.76 17.49a15 15 0 01-.18 2.79m38.12-7.15v20.95h-7.31v-18.48c0-5.12-3.3-8.5-8.23-8.5-5.31 0-8.79 3.47-8.79 8.6v18.38h-7.31V139h7.31v4.66a13.44 13.44 0 0111.12-5.43c8-.09 13.17 5.12 13.17 13m17.91-5.66v19.83h8.62v6.68h-15.95v-26.6h-6.2v-6.68h6.2v-9.73h7.33v9.73h8.62v6.68h-8.62M3.94 116.41v-11.56H47.7l7.45-7.62V87.3l-7.88-7.88H14.56L0 65.21V48.42L14.56 33.7h46.67v11.73h-40L14 52.53v8l7.62 7.62h33.01l14.56 14.27v19.44L54.8 116.41zm93.34-47.26h42.21V53.48l-8.73-8.65h-24.84l-8.73 8.65v15.67zm2.72 47.26L83.4 99.8V50.31L100 33.7h36.82l16.61 16.61v29.88H97.36v15.93l8.73 8.73h46v11.56zm88.64-11.04h19.61l16.27-16.1v-14l-35.88.17-8.73 8.57v12.71zm-6.16 11L166 99.8V81l16.44-16.61h42V54.08L216 45.43h-39.26V33.7H222l16.44 16.61v66.1h-13.92v-12.76l-12.84 12.76h-29.2m73.52 0V33.78h13.87v14.9l14.38-14.9h21.15v14h-20.6l-15 15.5v53.22zm76.77.04L316.13 99.9V50.42l16.64-16.55h37.8l14.51 14.34v13.1h-13.89v-8.5l-7.88-7.87h-24.52l-8.67 8.67V96.1l8.67 8.85h45.5v11.5zm67.23.01V0h13.88v46.94l12.69-13.15H457l16.48 16.57v66.1h-13.9V53.88l-8.34-9h-21l-16.3 16.59v55H400m167.75-12l-21.91-21.91-21.92 21.91-8.22-8.22 21.92-21.91-21.92-21.92 8.22-8.22 21.92 21.92 21.91-21.92 8.25 8.22-21.95 21.92L576 96.25zm-63.89-72.1v83.84h83.85V32.37z" fill="#fff"/></svg>