<svg viewBox="0 0 587.76 172.97" xmlns="http://www.w3.org/2000/svg"><path d="M129.47 138.46v7.45c-6.42 0-10.19 3.94-10.19 10.11v16.18H112V139h7.28v5.39c2.4-3.68 5.91-5.91 10.19-5.91m10.19 13.94h19.7a10.18 10.18 0 00-19.7 0zm27.4 5.91h-27.48a9.86 9.86 0 009.93 8c4.19 0 7.71-2 9.08-4.71h8c-2.4 6.68-8.91 11.31-17.13 11.31-10.1 0-17.72-7.45-17.72-17.39s7.62-17.38 17.72-17.38 17.81 7.45 17.81 17.47a14.84 14.84 0 01-.17 2.74m4.5-2.78c0-9.85 7.62-17.38 17.81-17.38 8.74 0 15.67 5.56 17.3 13.53H199a10 10 0 00-9.59-6.51 10.36 10.36 0 109.59 14.21h7.71c-1.63 8-8.56 13.53-17.3 13.53-10.19 0-17.81-7.53-17.81-17.38m59-17.13v7.45c-6.42 0-10.19 3.94-10.19 10.11v16.18h-7.28V139h7.28v5.39c2.4-3.68 5.91-5.91 10.19-5.91m35.96.52v33.2h-7.27v-4.45a12.49 12.49 0 01-10.62 5.25c-7.62 0-12.68-5.05-12.68-12.84V139h7.28v19c0 4.71 3.09 8 7.71 8 5 0 8.31-3.25 8.31-8v-19zm8.65 0h7.28v33.2h-7.28zm-.94-10.19a4.67 4.67 0 019.33 0 4.61 4.61 0 01-4.7 4.62 4.55 4.55 0 01-4.63-4.62m27.92 16.85v19.86h8.64v6.68h-15.92v-26.54h-6.17V139h6.17v-9.77h7.28V139h8.64v6.68h-8.64m67.47 4.94v21.58h-7.28v-19.44c0-4.54-2.82-7.53-7.36-7.53-4.71 0-7.88 3.08-7.88 7.7v19.27h-7.28v-19.44c0-4.54-2.82-7.53-7.36-7.53-4.71 0-7.88 3.08-7.88 7.7v19.27h-7.28V139h7.28v4.28a12 12 0 0110.28-5c5.13 0 9.07 2.39 11 6.42a12.84 12.84 0 0111.56-6.42c7.36 0 12.24 5 12.24 12.41m13.92 1.73h19.69a10.17 10.17 0 00-19.69 0zm27.4 5.91h-27.4a9.88 9.88 0 009.93 8c4.2 0 7.71-2 9.08-4.71h8c-2.39 6.68-8.9 11.31-17.12 11.31-10.11 0-17.73-7.45-17.73-17.39s7.62-17.38 17.73-17.38 17.81 7.45 17.81 17.47a15 15 0 01-.26 2.74m38.15-7.06v20.89h-7.28v-18.5c0-5-3.25-8.47-8.3-8.47-5.31 0-8.82 3.42-8.82 8.56v18.33h-7.28v-33.23h7.28v4.62a13.27 13.27 0 0111.19-5.39c8 .09 13.18 5.31 13.18 13.19m17.93-5.65v19.86h8.65v6.68h-15.93v-26.54h-6.17V139h6.17v-9.77h7.28V139h8.65v6.68h-8.65M3.94 116.46V104.9H47.7l7.45-7.62v-9.94l-7.88-7.88H14.56L0 65.25V48.47l14.56-14.73h46.67v11.73H21.15l-7.28 7.11v8.05l7.62 7.62h33.06L69.1 82.46v19.44l-14.38 14.56zm93.34-47.27h42.21V53.52l-8.73-8.65h-24.84l-8.73 8.65zm2.72 47.27L83.4 99.84V50.35L100 33.74h36.82l16.61 16.61v29.88H97.36v15.93l8.73 8.74h46v11.56zm88.64-11.05h19.61l16.27-16.1v-14l-35.88.18-8.73 8.56v12.71zm-6.16 11L166 99.84V81l16.44-16.62h42V54.12L216 45.47h-39.26V33.74H222l16.44 16.61v66.11h-13.92V103.7l-12.84 12.76h-29.2m73.52 0V33.82h13.87v14.9l14.38-14.9h21.15v14h-20.6l-15 15.5v53.26H256m76.84-.12l-16.61-16.62V50.35l16.61-16.61h37.76l14.56 14.38v13.11h-13.87v-8.57l-7.88-7.88h-24.49l-8.73 8.65V96l8.73 8.82h45.56v11.56h-51.64m67.16.08V0h13.87v46.92l12.67-13.1H457l16.45 16.62v66.1h-13.88V54l-8.39-9h-21.06l-16.27 16.57v55H400m167.72-12.1L545.8 82.55l-21.92 21.92-8.22-8.22 21.92-21.92-21.92-21.93 8.22-8.22 21.92 21.93 21.92-21.93 8.22 8.22L554 74.33l21.92 21.92zm-63.79-72.1v83.83h83.83V32.37z" fill="#173751"/></svg>