<svg viewBox="0 0 589.27 466.21" xmlns="http://www.w3.org/2000/svg"><path d="M493.79 258.44V83h65.5l29.79-29.56V0H437.75l-26 26v125.33h34.75l23.64-23.64V71.41h-11.35V123l-17 17h-18.7V30.74l19.39-19.39h135.25v37.12l-22.94 22.94h-72.35V161h-328.2l-97.42 97.44H.07v11.35h61.48L159 172.38h323.44v81.81l-34.76 42.32 23.17 23.89h-48v-65.5H210.28L167 296l23.17 24.12h-54.61V214.94h-11.35v116.57h92.93l-33.82-35.23 31.45-30h196.5v65.5h86.3l-34.76-35.94 31-37.37M21.68 418L14 410.31v-8.08l7.25-7.23h40.17v-11.69H14.66L0 398v16.79L14.66 429H47.4l7.86 7.86v10l-7.44 7.65h-44V466h50.8l14.45-14.66v-19.57l-14.66-14.24H21.68M140 418.78H97.76V403.2l8.66-8.66h24.89l8.69 8.66zm-39.6-35.5L83.69 400v49.56l16.67 16.67h52.16v-11.52h-46.1l-8.66-8.66V430H154v-29.83l-16.63-16.67-37-.22M225.22 439l-16.31 16.08H189.3l-8.59-8.81v-12.79l8.59-8.6 35.92-.22zm-47.82-55.76v11.68h39.23l8.59 8.81v10.36h-42.09l-16.52 16.52v18.95l16.52 16.53h29.31l12.78-12.78v12.78h13.88v-66.33L222.58 383H177.4m93.32 15.29v-15h-13.85v82.89h13.85v-53.4l15-15.42h20.56v-13.82H285l-14.3 14.75m62.98-14.89L317.1 400v49.51l16.58 16.58h51.55v-11.6h-45.65l-8.58-8.86v-42.7l8.63-8.63h24.53l7.95 7.95v8.63h13.85v-13.17l-14.58-14.31zm94.13-.16l-12.72 13.18v-47.16h-13.87V466h13.87v-55.24l16.42-16.65h21l8.32 9v62.65h13.87v-66.1L458.33 383h-30.52m141.59 71.09l-22-22-22 22-8.28-8.27 22-22-22-22 8.28-8.27 22 22 22-22 8.28 8.27-22 22 22 22zM505.32 382v84.18h83.95V382z" fill="#173751"/><g fill="#88d8e5"><path d="M502.15 188.84L480.26 167l21.89-21.89 8.14 8.15-14 14 14 14-8.14 7.68"/><path d="M474.39 188.77l-8.13-8.13 13.94-13.93-13.94-13.93 8.13-8.13 22.06 22.06z"/></g></svg>