<svg viewBox="0 0 589.87 470.07" xmlns="http://www.w3.org/2000/svg"><path d="M119.78 441.35V436h-7.47v33.44h7.47v-16c0-6.05 3.92-10 10.32-10V436c-4.63-.72-8.18 1.42-10.32 5.33m20.34 8a9.6 9.6 0 019.65-7.51 10.1 10.1 0 0110 7.51zm9.65-14.3c-10 0-17.87 7.51-17.87 17.52s7.51 17.52 17.87 17.52c8.23 0 14.66-4.65 17.17-11.44h-7.87c-1.43 2.86-5 4.64-8.94 4.64a10 10 0 01-10-7.86h27.53c0-.72.36-2.15.36-2.86-.36-10-7.87-17.52-18.24-17.52m40.15 6.97a9.87 9.87 0 019.7 6.47h7.91a17.41 17.41 0 00-17.25-13.65c-10.06 0-18 7.54-18 17.24 0 10.07 7.55 17.25 18 17.25 8.62 0 15.81-5.75 17.25-13.65h-7.91a9.87 9.87 0 01-9.7 6.47 10.43 10.43 0 01-10.42-10.43c0-5 4.67-9.7 10.42-9.7m31.07-.78v-5.41h-7.21V469H221v-16.24c0-6.13 4-10.1 10.09-10.1v-7.57a13.84 13.84 0 00-10.09 6.13m39 13.59c0 4.71-3.26 8-8.33 8-4.7 0-7.6-3.25-7.6-8v-19.19h-7.24V457c0 7.6 5.07 12.67 12.67 12.67a12.86 12.86 0 0010.5-5.07v4.35h7.24v-33.33H260zm15.92 14.41h7.26v-33.38h-7.26zm3.59-48.22a4.58 4.58 0 00-4.72 4.72 4.72 4.72 0 109.43 0 4.38 4.38 0 00-4.71-4.72m23.31 5.21h-7.28V436h-6.19v6.55h6.19v26.59h16v-6.92h-8.74v-20h8.74v-6.55h-8.74v-9.47m55.65 8.98a13.23 13.23 0 00-11.74 6.24c-1.84-4-5.87-6.24-11-6.24a11.9 11.9 0 00-10.27 5.14v-4.4h-7.34v33.38h7.34v-19.44a7.32 7.32 0 017.7-7.71c4.41 0 7.34 2.94 7.34 7.71v19.44h7.34v-19.44c0-4.77 3.3-7.71 8.07-7.71 4.4 0 7.34 2.94 7.34 7.71v19.44h7.33v-21.64c0-7.71-4.76-12.48-12.1-12.48m26.12 14.21a10.29 10.29 0 0110-7.75 9.91 9.91 0 0110 7.75zm10-14.38c-10 0-17.7 7.37-17.7 17.33s7.74 17.33 17.7 17.33a18.32 18.32 0 0017.33-11.43h-8.11c-1.48 2.95-4.8 4.79-9.22 4.79a9.94 9.94 0 01-10-8.11h27.66c0-.74.37-1.84.37-2.58A17.72 17.72 0 00394.54 435m42.83-.08a12.76 12.76 0 00-11.12 5.55v-4.81h-7.41V469h7.41v-18.52c0-5.19 3.71-8.52 8.89-8.52s8.15 3.33 8.15 8.52V469h7.42v-21.12c-.37-7.41-5.56-13-13.34-13m30.97-8.99h-7.43v9.67h-6.32v6.69h6.32V469h16v-6.7h-8.55v-20.05h8.55v-6.69h-8.55v-9.67M21.55 365.11l-7.77-7.76v-8.12l7.42-7.06h40.24v-11.65H14.49L0 345.35v16.94l14.47 14.12h32.85l8.12 7.77v9.88L48 401.83H4.25v11.65h50.83L69.56 399v-19.41l-14.48-14.12zm76.17-15.01l8.56-8.57h25l8.56 8.57v15.7H97.36v-15.7zm54.6 51.75h-46l-8.56-8.57v-16.06h56.39v-30l-16.78-16.77h-36.8L83.8 347.24v49.61l16.77 16.77h52.11v-11.77m56.03.33h-19.84l-8.66-8.66v-12.63l8.66-8.66H225v14.07zm16.6 11.19h14.07V347l-16.6-16.59h-45.46v11.9h39.33l8.66 8.66v10.47h-42.22L166.49 378v18.77l16.6 16.6h29.23l13-13v13m80.85-82.95h-21.11l-14.56 14.92v-14.92h-13.83v83h13.83V359.9l14.92-15.65h20.75zm79.15 82.98V402h-45.58l-8.82-8.83v-42.63l8.82-8.82h24.63l8.09 8.09v8.45h14V345l-14.7-14.34h-37.9l-16.54 16.55v49.62l16.54 16.54h51.46m75.59-.14h13.75v-66.16l-16.35-16.72h-30.48l-12.64 13v-47.2h-14.12v116.7h14.12v-55l16.36-16.72h21.18l8.55 8.92v63.18m107.93-12.05l-21.87-21.86-21.86 21.86-8.29-8.29L539.05 371l-21.86-21.86 8.29-8.29 21.86 21.86 21.87-21.86 8.29 8.29L555.64 371l21.86 21.86zm-64.08-72.37v84.06h84v-84.06zM159.06 172.63h323.39v62.56h66v16.21l-14.33 16.21h-84.46v-58.05L430.06 190l-7.92 7.92 16.21 16.21v41.08H195.24l-7.91-8.29 34.67-31.7-32.79-31.66-7.92 8.29 24.13 23.37-34.3 31.28 20.35 21.11h-54.65v-53.52h-11.31v64.82h92.72l-11.68-12.06h232.17v12.44h101l20.73-23.37v-32h-66V83.3h65.58l29.78-29.78V0H438.72l-26 26v126.65h34.67l23.75-23.75V71.24h-11.31V124l-17 17H424.4V30.15l19.22-19.22h135.32v37.31l-23 23h-73.87v89.32H154.16l-97.25 97.25H0v11.31h61.81z" fill="#173751"/><g fill="#88d8e5"><path d="M501.94 188.6l-22-22 22-22 8.21 8.21-13.81 13.81 13.81 13.81-8.21 8.22"/><path d="M473.94 188.73l-8.2-8.2 13.79-13.78L465.74 153l8.2-8.2 22 22-22 22"/></g></svg>