<svg viewBox="0 0 589.68 413.75" xmlns="http://www.w3.org/2000/svg"><path d="M21.72 364.83l-7.62-7.61V349l7.34-7h40.05v-11.86H14.67L0 344.81v16.92l14.67 14.39h32.72l7.9 7.9v9.87L48 401.5H4v11.57h50.72l14.39-14.67v-19.46l-14.67-14.39H21.72M140.21 366H97.89v-15.73l8.58-8.58h24.87l8.58 8.58zm-39.75-35.46l-16.59 16.58v49.47l16.59 16.59h52.05v-11.44h-46l-8.58-8.58v-16h56.33v-30l-16.58-16.59h-37.22m124.83 55.33l-16.23 16.24h-19.72l-8.69-8.7v-12.76l8.69-8.69 35.95-.29zm-47.83-55.37v11.6h39.43l8.4 8.7v10.43h-42l-16.53 16.53v18.84l16.53 16.52h29.28l12.75-12.75v12.75h13.92v-66.09l-16.53-16.53zm93.44 14.83v-14.94h-14.06v82.91h14.06V360l14.94-15.53h20.51v-14.05H285zm63.1-15.1l-16.61 16.62v49.54L334 413h51.62v-11.54H340l-8.6-8.9v-42.72l8.6-8.6h24.63l8 8v8.6h13.94V344.8L372 330.26zm93.93.19l-12.63 13.23v-46.92h-13.84v116.69h13.84v-55l16.24-16.54h21l8.42 9v62.85h13.83v-66.17l-16.49-16.54h-30.37m141.55 70.28l-22-22-22 22-8.27-8.26 22-22-22-22 8.27-8.26 22 22 22-22 8.26 8.26-22 22 22 22zm-64-72.22v84.15h84.16v-84.15h-84.12M159 172.57h323.13v62.73h66.1v16.22l-14.38 16.22h-84.46V209.6L429.81 190l-7.95 8 16.21 16.22v41H195.12l-8.26-8.57 34.58-31.82L188.7 183l-8 8.26 23.87 23.25L170.34 246l20.5 21.11h-54.77v-53.53h-11.32v65.17h92.71l-11.63-12.24h231.94v12.55h101.28l20.81-23.26v-32.13h-66.1V82.92h65.48l29.68-29.68V0H437.77l-26 26v126.69h35.49l23.56-23.57V71.6h-11.33v52.63l-16.83 16.83h-19.27V30.9l19.27-19.27H577.6V49l-23 22.95h-72.16v89.34h-328l-97.3 97.31H.21v11.32H62l97-97.31" fill="#173751"/><path d="M502.1 188.85L480 166.78l22.07-22.07 8.16 8.16-13.91 13.91 13.91 13.91-8.16 8.16" fill="#88d8e5"/><path d="M474.39 188.62l-8.14-8.14 13.88-13.88-13.88-13.88 8.14-8.15 22 22-22 22" fill="#88d8e5"/></svg>