<?xml version="1.0" encoding="UTF-8"?>
<svg width="68px" height="82px" viewBox="0 0 68 82" version="1.1" xmlns="http://www.w3.org/2000/svg" xmlns:xlink="http://www.w3.org/1999/xlink">
    <title>approved</title>
    <g id="1920-px-Desktop" stroke="none" stroke-width="1" fill="none" fill-rule="evenodd">
        <g id="Home" transform="translate(-415.000000, -3279.000000)" fill="#183153" fill-rule="nonzero">
            <g id="approved" transform="translate(415.000000, 3279.000000)">
                <path d="M2.73104,27.1888 C2.4336,26.89104 2.0208,26.72 1.6,26.72 C1.1792,26.72 0.76656,26.8912 0.4688,27.1888 C0.17104,27.4864 0,27.8992 0,28.32 C0,28.7408 0.17104,29.1536 0.4688,29.45104 C0.7664,29.7488 1.1792,29.92 1.6,29.92 C2.0208,29.92 2.4336,29.7488 2.73104,29.45104 C3.0288,29.1536 3.2,28.7408 3.2,28.32 C3.2,27.8992 3.0288,27.4864 2.73104,27.1888 Z" id="Path"></path>
                <path d="M63.04,0 L30.66672,0 C29.7832,0 29.06672,0.71648 29.06672,1.6 C29.06672,2.48352 29.7832,3.2 30.66672,3.2 L63.04,3.2 C63.92224,3.2 64.64,3.91776 64.64,4.8 L64.64,77.12 C64.64,78.00224 63.92224,78.72 63.04,78.72 L4.8,78.72 C3.91776,78.72 3.2,78.00224 3.2,77.12 L3.2,34.29328 C3.2,33.40976 2.48352,32.69328 1.6,32.69328 C0.71648,32.69328 0,33.40976 0,34.29328 L0,77.12 C0,79.76672 2.15328,81.92 4.8,81.92 L63.04,81.92 C65.68672,81.92 67.84,79.76672 67.84,77.12 L67.84,4.8 C67.84,2.15328 65.68672,0 63.04,0 Z" id="Path"></path>
                <path d="M33.92,6.4 C32.83136,6.4 31.73728,6.4832 30.66816,6.64704 C29.79472,6.78112 29.1952,7.5976 29.32912,8.47104 C29.46304,9.34448 30.28,9.9432 31.15312,9.81008 C32.0624,9.67056 32.99328,9.6 33.92,9.6 C43.88944,9.6 52.00016,17.71072 52.00016,27.68016 C52.00016,32.10736 50.39984,36.16704 47.74832,39.31376 C46.57504,37.29616 44.97248,35.55584 43.02736,34.20592 C41.89216,33.41808 40.67248,32.78928 39.39568,32.32384 C40.85296,30.89936 41.76,28.91424 41.76,26.72032 L41.76,25.16032 C41.76,20.83712 38.24304,17.32016 33.92,17.32016 C29.59696,17.32016 26.08,20.83712 26.08,25.16032 L26.08,26.72032 C26.08,28.91424 26.98688,30.89936 28.44432,32.32384 C27.16768,32.78928 25.948,33.41808 24.81264,34.20592 C22.85824,35.5624 21.24928,37.31248 20.07456,39.34224 C18.05424,36.94144 16.64208,33.98848 16.0896,30.69424 C15.94352,29.82304 15.11776,29.2352 14.24704,29.38096 C13.37552,29.52704 12.78752,30.352 12.9336,31.22352 C13.75632,36.12912 16.30304,40.61936 20.1048,43.86688 C23.94976,47.15152 28.85616,48.96048 33.91984,48.96048 C45.65376,48.96048 55.2,39.41424 55.2,27.68032 C55.2,15.9464 45.65392,6.4 33.92,6.4 Z M29.28,25.16016 C29.28,22.6016 31.3616,20.52 33.92,20.52 C36.4784,20.52 38.56,22.6016 38.56,25.16016 L38.56,26.72016 C38.56,29.27856 36.4784,31.36016 33.92,31.36016 C31.3616,31.36016 29.28,29.27856 29.28,26.72016 L29.28,25.16016 Z M33.92,45.76032 C29.58816,45.76032 25.58336,44.24768 22.44896,41.6832 C24.59744,37.32288 28.9896,34.56016 33.92,34.56016 C38.84016,34.56016 43.224,37.31152 45.37728,41.656 C42.25616,44.21936 38.26464,45.76032 33.92,45.76032 Z" id="Shape"></path>
                <path d="M48.69712,63.68032 L25.97712,63.68032 C25.0936,63.68032 24.37712,64.3968 24.37712,65.28032 C24.37712,66.16384 25.0936,66.88032 25.97712,66.88032 L48.69712,66.88032 C49.5808,66.88032 50.29712,66.16384 50.29712,65.28032 C50.29712,64.3968 49.58064,63.68032 48.69712,63.68032 Z" id="Path"></path>
                <path d="M20.2736,55.1888 C19.976,54.89104 19.5632,54.72 19.1424,54.72 C18.7216,54.72 18.3088,54.8912 18.0112,55.1888 C17.7136,55.4864 17.5424,55.8992 17.5424,56.32 C17.5424,56.74224 17.71376,57.1536 18.0112,57.45104 C18.3088,57.7488 18.7216,57.92 19.1424,57.92 C19.5632,57.92 19.976,57.7488 20.2736,57.45104 C20.5728,57.1536 20.7424,56.7408 20.7424,56.32 C20.7424,55.8992 20.5728,55.4864 20.2736,55.1888 Z" id="Path"></path>
                <path d="M20.2736,64.1488 C19.976,63.85104 19.5648,63.68 19.1424,63.68 C18.7216,63.68 18.3088,63.8512 18.0112,64.1488 C17.7136,64.4464 17.5424,64.8592 17.5424,65.28 C17.5424,65.70224 17.71376,66.1136 18.0112,66.41104 C18.3088,66.7088 18.7216,66.88 19.1424,66.88 C19.5632,66.88 19.976,66.7088 20.2736,66.41104 C20.5728,66.1136 20.7424,65.7024 20.7424,65.28 C20.7424,64.8592 20.5728,64.4464 20.2736,64.1488 Z" id="Path"></path>
                <path d="M48.69712,54.72032 L25.97712,54.72032 C25.0936,54.72032 24.37712,55.4368 24.37712,56.32032 C24.37712,57.20384 25.0936,57.92032 25.97712,57.92032 L48.69712,57.92032 C49.5808,57.92032 50.29712,57.20384 50.29712,56.32032 C50.29712,55.4368 49.58064,54.72032 48.69712,54.72032 Z" id="Path"></path>
                <path d="M18.82016,9.22064 C18.19504,8.596 17.18224,8.596 16.55728,9.22064 L11.34672,14.4312 L9.56608,12.65056 C8.94096,12.02592 7.92816,12.02592 7.3032,12.65056 C6.6784,13.27552 6.6784,14.28864 7.3032,14.91344 L10.2152,17.82544 C10.52768,18.13776 10.93696,18.29408 11.34656,18.29408 C11.75616,18.29408 12.16544,18.13776 12.47808,17.8256 L18.82016,11.48352 C19.44496,10.85856 19.44496,9.84544 18.82016,9.22064 Z" id="Path"></path>
                <path d="M13.12,0 C5.8856,0 0,5.8856 0,13.12 C0,20.3544 5.8856,26.24 13.12,26.24 C20.3544,26.24 26.24,20.3544 26.24,13.12 C26.24,5.8856 20.3544,0 13.12,0 Z M13.12,23.04 C7.65008,23.04 3.2,18.58992 3.2,13.12 C3.2,7.65008 7.65008,3.2 13.12,3.2 C18.58992,3.2 23.04,7.65008 23.04,13.12 C23.04,18.58992 18.58992,23.04 13.12,23.04 Z" id="Shape"></path>
            </g>
        </g>
    </g>
</svg>