<svg height="18" viewBox="0 0 34 18" width="34" xmlns="http://www.w3.org/2000/svg"><path d="m25.8848849 18.2778865 7.8442569 8.0512364c.0278401.0285747.0539144.0589619.0780396.0909737l-.0780396-.0909737c.03438.0352872.0654857.0726614.0933172.111725.0175058.0246768.0340541.0504312.0493745.077018.0071869.0123799.0139273.0247256.020378.0371877.0092831.0179681.0180646.0363021.0262753.0549568.0075085.017172.0144296.0342882.0208414.0515578.009658.0256409.018411.0526506.0259841.0801667.002065.0080968.0040742.0157983.0059873.0235196.0065469.0256847.0119361.0519764.0162407.0786425.0021801.0146181.0041377.0287419.0057851.0428964.0044415.0367601.0066746.0746877.0066746.1131473l-.0062231.1106029-.0014131.0105208c-.0014325.0114849-.0030696.022948-.0049114.0343832-.0042167.0272029-.0096059.0534946-.0160315.0793626-.0019624.0072474-.0038924.0146596-.0059114.0220517-.0078444.0291912-.0170716.0575494-.0275324.0852786-.0054.0141473-.0110748.0282165-.0170934.0421672-.0090727.0210661-.0190676.0420469-.0297768.0625771-.0061316.0118416-.0124956.0234618-.0191168.0349695-.015477.0267479-.0320253.0525024-.049721.0773419-.0047954.0068345-.0098857.0137776-.0150811.0206641-.0034182.0044514-.0068688.0089459-.0103579.0134073l-.0676883.0774909-7.8442569 8.0512364c-.180264.1850205-.4169183.2780051-.6535726.2780051-.2366542 0-.4733085-.0925102-.6535725-.2780051-.3609902-.3705153-.3609902-.9711202 0-1.3416355l6.2652602-6.4323594-29.91856927.0007636c-.51028576 0-.92443073-.4250727-.92443073-.9488229s.41414497-.9488229.92443073-.9488229l29.91956927-.0001178-6.2662602-6.431478c-.3609902-.3705153-.3609902-.9711202 0-1.3416355.360528-.3705153.9466171-.3705153 1.3071451 0z" fill="#183153" transform="matrix(-1 0 0 1 34 -18)"/></svg>