<svg height="18" viewBox="0 0 34 18" width="34" xmlns="http://www.w3.org/2000/svg"><path d="m1382.88488 18.2778865 7.84426 8.0512364c.02784.0285747.05392.0589619.07804.0909737l-.07804-.0909737c.03438.0352872.06549.0726614.09332.111725.0175.0246768.03405.0504312.04937.077018.00719.0123799.01393.0247256.02038.0371877.00928.0179681.01807.0363021.02628.0549568.00751.017172.01443.0342882.02084.0515578.00966.0256409.01841.0526506.02598.0801667.00207.0080968.00408.0157983.00599.0235196.00655.0256847.01194.0519764.01624.0786425.00218.0146181.00414.0287419.00579.0428964.00444.0367601.00667.0746877.00667.1131473l-.00622.1106029-.00142.0105208c-.00143.0114849-.00307.022948-.00491.0343832-.00421.0272029-.0096.0534946-.01603.0793626-.00196.0072474-.00389.0146596-.00591.0220517-.00784.0291912-.01707.0575494-.02753.0852786-.0054.0141473-.01108.0282165-.0171.0421672-.00907.0210661-.01906.0420469-.02977.0625771-.00613.0118416-.0125.0234618-.01912.0349695-.01548.0267479-.03203.0525024-.04972.0773419-.0048.0068345-.00989.0137776-.01508.0206641-.00342.0044514-.00687.0089459-.01036.0134073l-.06769.0774909-7.84426 8.0512364c-.18026.1850205-.41691.2780051-.65357.2780051-.23665 0-.47331-.0925102-.65357-.2780051-.36099-.3705153-.36099-.9711202 0-1.3416355l6.26526-6.4323594-29.91857.0007636c-.51029 0-.92443-.4250727-.92443-.9488229s.41414-.9488229.92443-.9488229l29.91957-.0001178-6.26626-6.431478c-.36099-.3705153-.36099-.9711202 0-1.3416355.36053-.3705153.94662-.3705153 1.30714 0z" fill="#183153" transform="translate(-1357 -18)"/></svg>