<svg height="264" viewBox="0 0 269 264" width="269" xmlns="http://www.w3.org/2000/svg"><g fill="#183153" fill-rule="evenodd" transform="matrix(.8660254 .5 -.5 .8660254 94.464447 .343612)"><path d="m120.73728-44.16-20.2528 20.25344-20.25344-20.25344-35.43104 35.4304 34.82112 34.82048v45.70944h.00064v14.48l-34.82176 34.82112 35.43104 35.4304 20.25344-20.25344 20.2528 20.25344 35.4304-35.42976v-.00128l-34.82048-34.81984v-45.70944h-.00064v-14.48l34.82112-34.82048v-.00128zm0 13.57632 21.85472 21.85408-21.85472 21.85472-17.86304-17.86368-7.4816 6.09472 16.35456 16.35456v54.0896h.00064v34.19328l8.66368-7.07264 22.18048 22.18048-21.85472 21.85408-20.2528-20.25344-20.25344 20.25344-21.85472-21.85408 21.85472-21.85408 17.8624 17.86304 7.48288-6.09408-16.35456-16.35456v-54.09024-34.19328l-8.66432 7.072-22.18112-22.17984 21.85472-21.85408 20.25344 20.25344z" transform="matrix(0 1 -1 0 156.66976 -2.974524)"/><path d="m64.1523091 0 11.8682973 20.556494-8.3138438 4.8-11.8682974-20.556494zm83.2504389 4.8-11.868298 20.556494-8.313844-4.8 11.868298-20.556494z"/><path d="m64.1523091 162.56 11.8682973 20.556494-8.3138438 4.8-11.8682974-20.556494zm83.2504389 4.8-11.868298 20.556494-8.313844-4.8 11.868298-20.556494z" transform="matrix(1 0 0 -1 0 350.476494)"/></g></svg>