<?xml version="1.0" encoding="UTF-8"?>
<svg width="82px" height="74px" viewBox="0 0 82 74" version="1.1" xmlns="http://www.w3.org/2000/svg" xmlns:xlink="http://www.w3.org/1999/xlink">
    <title>career</title>
    <g id="1920-px-Desktop" stroke="none" stroke-width="1" fill="none" fill-rule="evenodd">
        <g id="Home" transform="translate(-815.000000, -3280.000000)" fill="#183153" fill-rule="nonzero">
            <g id="career" transform="translate(815.000000, 3280.000000)">
                <path d="M72.23408,27.9416 L72.22096,27.88784 C72.00864,27.03008 71.14128,26.50704 70.28368,26.7192 C69.42608,26.93152 68.90272,27.79872 69.11504,28.65664 L69.12464,28.69552 C69.30208,29.42768 69.95664,29.91872 70.67808,29.91872 C70.80288,29.91872 70.92976,29.904 71.05632,29.87328 C71.91488,29.66496 72.4424,28.80016 72.23408,27.9416 Z" id="Path"></path>
                <path d="M29.87008,47.88048 C25.89248,45.48048 23.51776,41.27792 23.51776,36.63888 C23.51776,35.20496 23.74736,33.796 24.2,32.45136 C24.48192,31.61408 24.03152,30.70656 23.19424,30.4248 C22.35696,30.1432 21.4496,30.59344 21.16768,31.43072 C20.60416,33.10496 20.3184,34.85728 20.3184,36.63904 C20.3184,42.40912 23.27136,47.63584 28.21728,50.62032 C28.476,50.77632 28.7608,50.85056 29.04224,50.85056 C29.58432,50.85056 30.11296,50.57472 30.41344,50.0768 C30.86992,49.32032 30.62672,48.33712 29.87008,47.88048 Z" id="Path"></path>
                <path d="M47.82128,24.75632 C44.78336,21.896 40.8112,20.32064 36.63664,20.32064 C34.6816,20.32064 32.76864,20.66336 30.95104,21.33888 C30.12288,21.64688 29.70112,22.56768 30.00896,23.396 C30.3168,24.22432 31.2376,24.64608 32.06608,24.33808 C33.52592,23.79536 35.06352,23.52016 36.6368,23.52016 C39.9928,23.52016 43.18592,24.7864 45.62784,27.08576 C45.9368,27.3768 46.33088,27.52096 46.72416,27.52096 C47.14976,27.52096 47.5744,27.35216 47.88928,27.01776 C48.49488,26.37456 48.46432,25.36192 47.82128,24.75632 Z" id="Path"></path>
                <path d="M80.32016,37.12096 L68.284,37.12096 L68.284,33.8112 C68.284,32.2024 66.97504,30.89344 65.36624,30.89344 L63.21856,30.89344 C62.11872,25.78144 59.58576,21.12544 55.86816,17.40768 C49.55984,11.09936 40.54656,8.28608 31.75728,9.8808 C30.888,10.03856 30.31104,10.8712 30.4688,11.74064 C30.62656,12.61008 31.45936,13.1864 32.32864,13.02912 C40.08528,11.62144 48.03952,14.104 53.6056,19.6704 C56.72224,22.78704 58.896,26.64976 59.93744,30.8936 L51.20368,30.8936 C49.59488,30.8936 48.28592,32.20256 48.28592,33.81136 L48.28592,37.12112 L36.24976,37.12112 C35.36624,37.12112 34.64992,37.8376 34.64992,38.72096 L34.64992,48.5352 C34.64992,50.03696 35.23472,51.40384 36.1872,52.42304 L36.1872,60.63328 C29.94592,60.52672 24.11728,58.05776 19.66784,53.60816 C13.95664,47.89696 11.50992,39.75568 13.12288,31.82992 C13.29904,30.96416 12.74,30.11936 11.87424,29.9432 C11.00816,29.76688 10.16368,30.32608 9.98752,31.19184 C8.16,40.17248 10.9328,49.39808 17.40512,55.87056 C22.38528,60.85072 29.16816,63.7096 36.18704,63.8304 L36.18704,69.62768 C36.18704,69.77776 36.19712,69.92528 36.21488,70.07056 C17.97152,69.84368 3.19952,54.93536 3.19952,36.6392 C3.19952,30.91808 4.65472,25.32576 7.41872,20.36992 L12.81664,25.79344 C13.11696,26.0952 13.52512,26.2648 13.95056,26.2648 L24.01296,26.2648 L33.87744,36.12928 C34.18992,36.44176 34.59936,36.59792 35.00864,36.59792 C35.41808,36.59792 35.82768,36.44176 36.13984,36.12928 C36.76464,35.50448 36.76464,34.49152 36.13984,33.86656 L26.2752,24.00208 L26.2752,13.93968 C26.2752,13.51472 26.10608,13.1072 25.80512,12.80704 L20.39216,7.40736 C25.3416,4.65264 30.92464,3.2024 36.636,3.2024 C49.61456,3.2024 61.5288,10.81408 66.98944,22.59424 C67.26016,23.17824 67.83808,23.5216 68.44192,23.5216 C68.6672,23.5216 68.896,23.47376 69.11376,23.3728 C69.91536,23.00112 70.264,22.05008 69.89248,21.24848 C66.99344,14.9944 62.40112,9.69472 56.61152,5.92256 C50.668,2.04976 43.76048,0.00288 36.63616,0.00288 C30.07264,0.00288 23.66208,1.75152 18.04448,5.06544 L13.44016,0.47184 C12.98208,0.01504 12.2944,-0.12128 11.69712,0.12672 C11.09968,0.37456 10.71056,0.9576 10.71056,1.60432 L10.71056,10.67104 L1.61584,10.67104 C0.96928,10.67104 0.38656,11.06 0.13856,11.6568 C-0.10944,12.25376 0.02592,12.94112 0.48192,13.39936 L5.0792,18.0184 C1.7544,23.64352 0,30.06416 0,36.63904 C0,46.42496 3.81088,55.62528 10.73056,62.54496 C17.65024,69.4648 26.85056,73.27552 36.63648,73.27552 L76.73296,73.27728 C78.74544,73.27728 80.38272,71.64016 80.38272,69.62752 L80.38272,52.42368 C81.37472,51.36448 81.92,49.99056 81.92,48.53216 L81.92,38.72064 L81.92,38.72064 C81.92,37.83728 81.20368,37.12096 80.32016,37.12096 Z M13.91008,5.46016 L23.07584,14.6032 L23.07584,20.79584 L13.91008,11.60944 L13.91008,5.46016 Z M11.64656,13.87088 L20.81328,23.06448 L14.61552,23.06448 L5.46528,13.87088 L11.64656,13.87088 L11.64656,13.87088 Z M51.48544,34.09312 L65.084,34.09312 L65.084,37.12096 L51.48544,37.12096 L51.48544,34.09312 Z M77.18288,62.39712 L66.684,62.39712 C65.80048,62.39712 65.08416,63.1136 65.08416,63.99696 C65.08416,64.88032 65.80048,65.5968 66.684,65.5968 L77.18288,65.5968 L77.18288,69.62736 C77.18288,69.87568 76.98112,70.0776 76.73296,70.0776 L41.79792,70.0776 C41.7864,70.07744 41.77536,70.07584 41.76384,70.07584 L39.81952,70.07584 C39.57936,70.06672 39.38656,69.86992 39.38656,69.62752 L39.38656,54.15136 C39.69968,54.2048 40.02096,54.23424 40.34896,54.23424 L53.5432,54.23424 C53.82688,56.59936 55.84448,58.43904 58.2848,58.43904 C60.7288,58.43904 62.74896,56.5936 63.02768,54.2232 L76.2168,54.23152 C76.21808,54.23152 76.2192,54.23152 76.22048,54.23152 C76.5464,54.23152 76.86784,54.20272 77.18288,54.14944 L77.18288,62.39712 L77.18288,62.39712 Z M56.70768,53.66208 L56.70768,50.84976 L59.86224,50.84976 L59.86224,53.66208 C59.86224,54.53184 59.15456,55.23936 58.28496,55.23936 C57.41536,55.23936 56.70768,54.53184 56.70768,53.66208 Z M78.72032,48.53216 C78.72032,49.20032 78.46016,49.82816 77.98752,50.30032 C77.51536,50.77216 76.888,51.032 76.22048,51.032 C76.22,51.032 76.21952,51.032 76.21888,51.032 L63.06176,51.02368 L63.06176,49.55744 C63.06176,48.50576 62.20624,47.65008 61.1544,47.65008 L55.41504,47.65008 C54.36336,47.65008 53.50768,48.5056 53.50768,49.55744 L53.50768,51.03456 L40.34896,51.03456 C38.97056,51.03456 37.84928,49.91312 37.84928,48.53488 L37.84928,40.32064 L78.72032,40.32064 L78.72032,48.53216 L78.72032,48.53216 Z" id="Shape"></path>
                <path d="M59.97664,62.86592 C59.67904,62.56832 59.26624,62.39712 58.8456,62.39712 C58.4232,62.39712 58.01216,62.56816 57.71296,62.86592 C57.41536,63.16352 57.24576,63.57632 57.24576,63.99696 C57.24576,64.41776 57.41536,64.8304 57.71296,65.12784 C58.01216,65.42544 58.42336,65.5968 58.8456,65.5968 C59.2664,65.5968 59.6776,65.4256 59.97664,65.12784 C60.27424,64.8304 60.44544,64.4176 60.44544,63.99696 C60.44544,63.57632 60.27424,63.16352 59.97664,62.86592 Z" id="Path"></path>
            </g>
        </g>
    </g>
</svg>