<svg viewBox="0 0 727.15 128.52" xmlns="http://www.w3.org/2000/svg"><path d="m716.8 53.14-26.15 26.15h-66.38v-10h-27.17v-14.96h-10.35v43.46l-19.36 19.36h-23.59v-84.72l22.07-22.07h151.13zm-69.78 56h-28.18l5.43-6.12v-13.55h22.73v19.7zm-49.58 8.65h-16.44l16.1-16.09v-22.41h17v19.86zm-35.99-117.79h-390.32l-107.63 107.47h-63.5v10.35h67.74l107.64-107.46h375.72l-17.66 17.82v89.82h-37.69v-65l-21.22-21.25-7.3 7.3 18.33 18.33v46.86h-270.45l-10.19-10.52 38.2-35-35.12-34.27-7.13 7.3 27.5 26.65-37.88 34.81 23.6 24.61h-64.35v-60.27h-10.35v70.63h98.61l-12.91-13.41h260.3v13.75h116.61l7.64-8.66h47.54v-30h37.72l32.25-32.09v-57.43z" fill="#173751"/></svg>