<svg viewBox="0 0 650.13 306.3" xmlns="http://www.w3.org/2000/svg"><path d="m484.68 0-28.1 28.1v138.58h41.54l25.3-25.31v-62h-10.29v57.77l-19.38 19.38h-26.88v-124.06l22-22.16h151.13v42.76l-26.18 26h-79.23v99h-363.37l-107.69 107.48h-63.53v10.29h67.72l107.69-107.51h359.18v69.29h73v19.55l-16.59 18.67h-95.15v-64.92l-21.3-21.3-7.33 7.33 18.33 18.33v47h-270.55l-10.1-10.7 38.22-35.08-35.25-34.21-7.16 7.33 27.4 26.71-37.87 34.73 23.56 24.61h-64.4v-60.22h-10.3v70.56h98.79l-12.89-13.48h260.55v13.78h110.13l22.17-25.13v-33.68h-73v-157.95h73.15l32.11-32.12v-57.42z" fill="#173751"/><g fill="#88d8e5"><path d="m556 206.6-23.4-23.41 23.4-23.4 7.2 7.21-16.2 16.19 16.22 16.22z"/><path d="m523.74 206.6-7.18-7.19 16.21-16.22-16.21-16.19 7.18-7.19 23.41 23.4z"/></g></svg>