<svg viewBox="0 0 649.89 364.92" xmlns="http://www.w3.org/2000/svg"><path d="m484.2 0-28 28.09v138.59h41.45l25.37-25.37v-62h-10.23v57.79l-19.43 19.42h-27v-124l22-22.15h151.14v42.84l-26.11 26.11h-79.19v99h-363.44l-107.65 107.52h-63.11v10.28h67.44l107.66-107.54h359.1v91.94l-37.87 46.28 26.85 27.72h-56.8v-72.26h-233.25l-46.53 44.42 26.73 27.72h-64.22v-117.4h-10.27v127.79h98.75l-36.39-37.74 36-34.4h218.9v72.27h91.33l-37.25-38.49 34.4-41.95v-194.64h73.13l32.17-32.05v-57.3h-165.68" fill="#173751"/><g fill="#88d8e5"><path d="m555.61 206.72-23.4-23.39 23.4-23.4 7.22 7.22-16.18 16.18 16.18 16.17z"/><path d="m523.25 206.72-7.25-7.22 16.17-16.17-16.17-16.18 7.21-7.22 23.4 23.4-23.4 23.39"/></g></svg>