<svg height="230" viewBox="0 0 381 230" width="381" xmlns="http://www.w3.org/2000/svg"><g fill="none" fill-rule="evenodd" transform="translate(0 .441356)"><path d="m22.123 189.441856-22.123-22.311v-145.013856l22.281-22.117h336.445839l21.459 22.117v145.209856l-22.041 22.115-282.144839-.0005-39 39v-39z" fill="#fff"/><g transform="translate(32 32)"><text fill="#183153" font-family="Fractul-Bold, Fractul" font-size="25.6" font-weight="bold"><tspan x=".3168" y="25">Google Reviews</tspan></text><g transform="translate(0 42.24)"><g fill="#183153" font-family="Roboto-Regular, Roboto" font-size="20.48"><text><tspan x=".83" y="19">4.8</tspan></text><text opacity=".5"><tspan x="181.33" y="19">by 485 people</tspan></text><text text-decoration="underline"><tspan x=".16" y="53.56">Read all reviews</tspan></text></g><g fill="#fdd963" stroke="#fdd963" stroke-linejoin="round" stroke-width=".896" transform="translate(42.24 1.28)"><path d="m11.52-1.04026719 3.6175425 7.58114708 8.3279815 1.09778409-6.0922173 5.78319062 1.5294331 8.259615-7.3827398-4.0069387-7.38273982 4.0069387 1.52943308-8.259615-6.09221722-5.78319062 8.32798145-1.09778409z"/><path d="m62.72-1.04026719 3.6175425 7.58114708 8.3279815 1.09778409-6.0922173 5.78319062 1.5294331 8.259615-7.3827398-4.0069387-7.3827398 4.0069387 1.5294331-8.259615-6.0922173-5.78319062 8.3279815-1.09778409z"/><path d="m37.12-1.04026719 3.6175425 7.58114708 8.3279815 1.09778409-6.0922173 5.78319062 1.5294331 8.259615-7.3827398-4.0069387-7.3827398 4.0069387 1.5294331-8.259615-6.0922173-5.78319062 8.3279815-1.09778409z"/><path d="m88.32-1.04026719 3.6175425 7.58114708 8.3279815 1.09778409-6.0922173 5.78319062 1.5294331 8.259615-7.3827398-4.0069387-7.3827398 4.0069387 1.5294331-8.259615-6.0922173-5.78319062 8.3279815-1.09778409z"/><path d="m113.92-1.04026719 3.617543 7.58114708 8.327981 1.09778409-6.092217 5.78319062 1.529433 8.259615-7.38274-4.0069387-7.38274 4.0069387 1.529433-8.259615-6.092217-5.78319062 8.327981-1.09778409z"/></g></g></g></g></svg>