<svg width="255" height="546" viewBox="0 0 255 546" fill="none" xmlns="http://www.w3.org/2000/svg">
<path fill-rule="evenodd" clip-rule="evenodd" d="M140.095 175.055L122.819 192.113V276.178H148.383L164.043 260.768V223.133H157.708V258.186L145.759 269.944H129.153V194.688L142.725 181.288H235.861V207.303L219.685 224.047H170.914V279.199L174.874 283.092H140.865L123.206 303.658V460.213L87.1694 495.674H53.6304V501.907H89.7927L129.541 462.796V305.939L143.807 289.325H181.005V289.118L187.137 295.145V309.575H153.719V302.32H147.384V315.808H199.345L212.916 329.208V369.126H199.105L187.155 357.368V338.831H162.66V345.064H180.82V359.949L187.475 366.498V503.049L157.889 529.36L152.907 524.26L176.379 503.064L148.475 475.031L143.949 479.392L167.274 502.826L143.847 523.982L158.398 538.875H118.741V487.771H112.406V545.109H173.275L162.282 533.856L193.81 505.816V372.731L196.481 375.359H219.251V326.634L201.976 309.575H193.472V292.562L177.249 276.616V230.281H222.404L242.196 209.793V175.055H140.095Z" fill="#093853"/>
<path fill-rule="evenodd" clip-rule="evenodd" d="M192.465 300.431L178.009 286.208L192.465 271.985L196.944 276.393L186.969 286.208L196.944 296.023L192.465 300.431Z" fill="#EC6278"/>
<path fill-rule="evenodd" clip-rule="evenodd" d="M172.544 300.431L168.065 296.023L178.04 286.208L168.065 276.393L172.544 271.985L186.999 286.208L172.544 300.431Z" fill="#EC6278"/>
<path fill-rule="evenodd" clip-rule="evenodd" d="M18.5187 0.690796L0.205566 18.6276V67.7515L18.3889 85.8456H236.682L254.797 67.9105V18.6276L237.16 0.690796L18.5187 0.690796Z" fill="#093853"/>
<path fill-rule="evenodd" clip-rule="evenodd" d="M148.151 55.4325L217.799 124.155V55.4325H148.151Z" fill="#093853"/>
<path d="M55.5574 41.315V45.712H62.5574C61.6077 48.7019 58.7584 50.707 55.276 50.707C50.8086 50.707 47.4317 47.3301 47.4317 42.8275C47.4317 38.325 50.8086 34.9481 55.276 34.9481C58.2308 34.9481 60.6579 36.4607 61.8539 38.7119H67.271C66.0047 33.7873 61.1504 30.2697 55.276 30.2697C47.9594 30.2697 42.4719 35.6868 42.4719 42.8275C42.4719 49.9683 47.9594 55.3854 55.276 55.3854C59.075 55.3854 61.8187 54.119 63.5775 51.8678V54.9633H67.8338V41.315H55.5574ZM76.4368 39.6617V37.0235H71.8639V54.9633H76.4368V46.4155C76.4368 43.3903 78.3012 41.4557 81.6781 41.4557V36.7421C79.5675 36.7421 77.7383 37.8325 76.4368 39.6617ZM92.5378 55.3854C98.0253 55.3854 102.176 51.3401 102.176 45.9934C102.176 40.6466 98.0253 36.6014 92.5378 36.6014C87.0504 36.6014 82.8996 40.6466 82.8996 45.9934C82.8996 51.3401 87.0504 55.3854 92.5378 55.3854ZM92.5378 50.9532C89.7237 50.9532 87.6132 48.8075 87.6132 45.9934C87.6132 43.1793 89.7237 41.0335 92.5378 41.0335C95.3871 41.0335 97.4625 43.1793 97.4625 45.9934C97.4625 48.8075 95.3871 50.9532 92.5378 50.9532ZM127.892 37.0235L124.128 49.1944L120.153 37.0235H115.475L111.535 49.1592L107.771 37.0235H102.53L109.072 54.9633H113.786L117.761 42.5109L121.736 54.9633H126.449L132.992 37.0235H127.892ZM145.72 36.6014C143.363 36.6014 141.393 37.5159 140.022 39.2396V37.0235H135.449V54.9633H140.022V45.114C140.022 42.6516 141.71 41.0335 144.243 41.0335C146.6 41.0335 148.147 42.6165 148.147 45.0436V54.9633H152.72V43.5662C152.72 39.3451 149.941 36.6014 145.72 36.6014ZM156.675 47.5411H166.946V43.1089H156.675V47.5411ZM183.099 37.0235V47.119C183.099 49.4406 181.516 50.9532 179.159 50.9532C176.943 50.9532 175.466 49.4758 175.466 47.1894V37.0235H170.893V48.526C170.893 52.6768 173.602 55.3854 177.647 55.3854C179.898 55.3854 181.762 54.4708 183.099 52.7823V54.9633H187.672V37.0235H183.099ZM202.438 36.6014C200.011 36.6014 198.006 37.6567 196.599 39.3803V37.0235H192.026V61.6467H196.599V52.6065C198.006 54.3301 200.011 55.3854 202.438 55.3854C207.433 55.3854 211.162 51.3401 211.162 45.9934C211.162 40.6466 207.433 36.6014 202.438 36.6014ZM201.523 50.9532C198.709 50.9532 196.599 48.8075 196.599 45.9934C196.599 43.1793 198.709 41.0335 201.523 41.0335C204.373 41.0335 206.448 43.1793 206.448 45.9934C206.448 48.8075 204.373 50.9532 201.523 50.9532Z" fill="#EC6278"/>
</svg>
