<?xml version="1.0" encoding="UTF-8"?>
<svg width="82px" height="82px" viewBox="0 0 82 82" version="1.1" xmlns="http://www.w3.org/2000/svg" xmlns:xlink="http://www.w3.org/1999/xlink">
    <title>job</title>
    <g id="1920-px-Desktop" stroke="none" stroke-width="1" fill="none" fill-rule="evenodd">
        <g id="Home" transform="translate(-1228.000000, -3275.000000)" fill="#183153" fill-rule="nonzero">
            <g id="job" transform="translate(1228.000000, 3275.000000)">
                <path d="M76.8115385,0 L19.9884615,0 C17.3481038,0 15.2,2.14486875 15.2,4.78125 L15.2,10.2 C15.2,11.0800688 15.9145981,11.79375 16.7961538,11.79375 C17.6777096,11.79375 18.3923077,11.0800688 18.3923077,10.2 L18.3923077,4.78125 C18.3923077,3.90245625 19.1083423,3.1875 19.9884615,3.1875 L76.8115385,3.1875 C77.6916577,3.1875 78.4076923,3.90245625 78.4076923,4.78125 L78.4076923,76.81875 C78.4076923,77.6975438 77.6916577,78.4125 76.8115385,78.4125 L19.9884615,78.4125 C19.1083423,78.4125 18.3923077,77.6975438 18.3923077,76.81875 L18.3923077,71.6653594 C18.3923077,70.7852906 17.6777096,70.0716094 16.7961538,70.0716094 C15.9145981,70.0716094 15.2,70.7852906 15.2,71.6653594 L15.2,76.81875 C15.2,79.4551313 17.3481038,81.6 19.9884615,81.6 L76.8115385,81.6 C79.4518962,81.6 81.6,79.4551313 81.6,76.81875 L81.6,4.78125 C81.6,2.14486875 79.4518962,0 76.8115385,0 Z" id="Path"></path>
                <path d="M68.8,61.6 L30.4,61.6 C29.51632,61.6 28.8,62.31648 28.8,63.2 C28.8,64.08352 29.51632,64.8 30.4,64.8 L68.8,64.8 C69.68368,64.8 70.4,64.08352 70.4,63.2 C70.4,62.31648 69.68368,61.6 68.8,61.6 Z" id="Path"></path>
                <path d="M69.9312,70.0688 C69.6336,69.77104 69.2224,69.6 68.8,69.6 C68.3792,69.6 67.9664,69.77104 67.6688,70.0688 C67.3712,70.36656 67.2,70.7792 67.2,71.2 C67.2,71.6208 67.3712,72.0336 67.6688,72.33104 C67.9664,72.62864 68.3792,72.8 68.8,72.8 C69.2224,72.8 69.6336,72.6288 69.9312,72.33104 C70.2288,72.0336 70.4,71.6208 70.4,71.2 C70.4,70.7792 70.2288,70.3664 69.9312,70.0688 Z" id="Path"></path>
                <path d="M62.393479,69.6 L30.406521,69.6 C29.5192395,69.6 28.8,70.31648 28.8,71.2 C28.8,72.08352 29.5192395,72.8 30.406521,72.8 L62.393479,72.8 C63.2807605,72.8 64,72.08352 64,71.2 C64,70.31648 63.2807605,69.6 62.393479,69.6 Z" id="Path"></path>
                <path d="M42,13.6 C32.5159504,13.6 24.8,21.3159504 24.8,30.8001594 C24.8,35.7229147 26.8791979,40.1688219 30.2051815,43.3070625 C30.2617594,43.3684216 30.3226404,43.4261152 30.3892589,43.4783899 C33.4511592,46.2848131 37.5287522,48 41.9998406,48 C46.470929,48 50.5483627,46.2846537 53.6104223,43.4783899 C53.6770408,43.4261152 53.7379218,43.3682623 53.7944997,43.3070625 C57.1204833,40.1688219 59.2,35.7229147 59.2,30.8001594 C59.2,21.3159504 51.4840496,13.6 42,13.6 Z M41.9998406,44.8125127 C38.7258131,44.8125127 35.7109283,43.6836641 33.3228628,41.7950779 C35.014781,38.594522 38.3114397,36.5808269 41.9998406,36.5808269 C45.6882415,36.5808269 48.9849002,38.594522 50.6768184,41.7950779 C48.288753,43.6836641 45.2738682,44.8125127 41.9998406,44.8125127 Z M38.6451697,30.038828 L38.6451697,28.8016049 C38.6451697,26.951906 40.1499824,25.4469339 41.9996813,25.4469339 C43.8493801,25.4469339 45.3541928,26.9517466 45.3541928,28.8016049 L45.3541928,30.038828 C45.3541928,31.8883675 43.8493801,33.3933396 41.9996813,33.3933396 C40.1499824,33.3933396 38.6451697,31.8885269 38.6451697,30.038828 Z M53.0079873,39.4607216 C51.5492337,37.1340153 49.4147329,35.3595412 46.9165397,34.3473546 C47.9271326,33.195556 48.5418395,31.688034 48.5418395,30.0389874 L48.5418395,28.8017642 C48.5418395,25.1943255 45.60712,22.259606 41.9998406,22.259606 C38.3925613,22.259606 35.4578418,25.1943255 35.4578418,28.8017642 L35.4578418,30.0389874 C35.4578418,31.688034 36.0725487,33.195556 37.0831415,34.3473546 C34.5849484,35.3597005 32.4504475,37.1340153 30.991694,39.4607216 C29.1109171,37.0753655 27.9873279,34.0665369 27.9873279,30.8001594 C27.9873279,23.0735309 34.2732121,16.7874873 41.9998406,16.7874873 C49.7263097,16.7874873 56.0123534,23.0735309 56.0123534,30.8001594 C56.0123534,34.0665369 54.8887641,37.0753655 53.0079873,39.4607216 Z" id="Shape"></path>
                <path d="M42.2698753,6.4 C28.5233908,6.4 17.3397505,17.58412 17.3397505,31.3311941 C17.3397505,39.2791541 21.0780923,46.3705543 26.8886469,50.9388739 L8.30326284,69.524895 C7.13833367,70.6898741 5.24274171,70.6898741 4.07765241,69.524895 C3.51336232,68.9605807 3.20255442,68.21019 3.20255442,67.4120792 C3.20255442,66.6139684 3.51336232,65.8635777 4.07781254,65.2992634 L13.5829941,55.7936742 C14.2082928,55.1683486 14.2082928,54.1543764 13.5829941,53.5288907 C12.9576953,52.9037253 11.9437666,52.9037253 11.3184678,53.5288907 L1.81344644,63.0344799 C0.643873566,64.2037827 0,65.7585294 0,67.4120792 C0,69.065629 0.643873566,70.6203757 1.81312618,71.7896785 C3.02000882,72.9964527 4.60527325,73.6 6.19053769,73.6 C7.77580213,73.6 9.36106656,72.9964527 10.5679492,71.7896785 L29.5762306,52.7805818 C33.296638,54.9909195 37.6372202,56.2625483 42.2698753,56.2625483 C56.0165198,56.2625483 67.2,45.0784283 67.2,31.3313542 C67.2,17.5842801 56.0163597,6.4 42.2698753,6.4 Z M42.2698753,53.0596964 C30.2892793,53.0596964 20.5421448,43.312464 20.5421448,31.3311941 C20.5421448,19.3500842 30.2891192,9.60269179 42.2698753,9.60269179 C54.2506313,9.60269179 63.9974456,19.3500842 63.9974456,31.3311941 C63.9974456,43.3123039 54.2504712,53.0596964 42.2698753,53.0596964 Z" id="Shape"></path>
                <path d="M17.9312,48.46896 C17.6336,48.17136 17.2224,48 16.8,48 C16.3792,48 15.9664,48.1712 15.6688,48.46896 C15.3712,48.7664 15.2,49.1792 15.2,49.6 C15.2,50.02096 15.3712,50.4336 15.6688,50.7312 C15.9664,51.0288 16.3792,51.2 16.8,51.2 C17.2224,51.19984 17.6336,51.0288 17.9312,50.7312 C18.2304,50.4336 18.4,50.02096 18.4,49.6 C18.4,49.1792 18.2304,48.7664 17.9312,48.46896 Z" id="Path"></path>
            </g>
        </g>
    </g>
</svg>