<svg viewBox="0 0 589.34 523.32" xmlns="http://www.w3.org/2000/svg"><g fill="#fff"><path d="m493.82 258.52v-175.4h65.7l29.64-29.64v-53.48h-151.27l-26 26v125.26h34.84l23.53-23.53v-56.22h-11.26v51.64l-16.83 16.85h-18.64v-109.14l19.25-19.25h135.07v37.28l-22.92 22.92h-72.42v89.54h-328.19l-97.48 97.17h-56.84v11.31h61.42l97.48-97.18h323.61v81.9l-34.51 42.17 23.22 23.83h-48v-65.39h-212.68l-43.08 41.25 23.22 24.14h-54.68v-105.12h-11.3v116.73h92.89l-33.94-35.16 31.48-30.25h196.48v65.39h86.18l-34.79-36.03 30.87-37.59"/><path d="m119.64 494.39v-5.39h-7.39v33.28h7.39v-16.23c0-6.26 3.7-10.24 10.24-10.24v-7.4c-4.26 0-7.68 2.28-10.24 6"/><path d="m140.32 502.37a10.17 10.17 0 0 1 19.74 0zm9.73-14.31c-10 0-17.75 7.45-17.75 17.46s7.7 17.48 17.75 17.48c8.3 0 14.88-4.58 17.17-11.45h-8c-1.43 2.86-4.87 4.87-9.16 4.87a9.89 9.89 0 0 1 -10-8h27.48c0-.85.28-2 .28-2.86 0-10-7.44-17.46-17.74-17.46"/><path d="m190.06 495.07a9.69 9.69 0 0 1 9.5 6.62h7.78c-1.73-8.06-8.64-13.53-17.28-13.53-10.08 0-17.86 7.48-17.86 17.28s7.78 17.28 17.86 17.28c8.64 0 15.84-5.76 17.28-13.54h-7.78a10.3 10.3 0 1 1 -9.5-14.11"/><path d="m221.15 494.14v-5.49h-7.23v33.25h7.23v-16.19c0-6.07 3.76-10.12 10.12-10.12v-7.52c-4.05.29-7.52 2.6-10.12 6.07"/><path d="m260.09 507.91c0 4.94-3.2 8.14-8.44 8.14a7.48 7.48 0 0 1 -7.85-7.85v-18.9h-7.27v21.23c0 7.85 4.95 12.79 12.8 12.79a13 13 0 0 0 10.76-5.23v4.36h7.26v-33.45h-7.26v18.9"/><path d="m276.05 522.22h7.29v-33.22h-7.29v33.23"/><path d="m279.72 473.89a4.67 4.67 0 1 0 4.66 4.67 4.61 4.61 0 0 0 -4.66-4.67"/><path d="m303.23 479h-7.32v9.66h-6.15v6.73h6.15v26.61h16.09v-6.74h-8.78v-19.88h8.78v-6.73h-8.78v-9.65"/><path d="m358.58 488a12.81 12.81 0 0 0 -11.53 6.5 11.77 11.77 0 0 0 -10.93-6.5 12.21 12.21 0 0 0 -10.34 5v-4.43h-7.39v33.39h7.39v-19.24c0-4.72 3.25-7.68 8-7.68 4.44 0 7.39 3 7.39 7.68v19.51h7.39v-19.23c0-4.73 3.25-7.68 8-7.68 4.43 0 7.39 3 7.39 7.68v19.5h7.39v-21.5c-.59-8-5.32-13-12.71-13"/><path d="m384.72 502.32a10.18 10.18 0 0 1 9.81-7.73 9.87 9.87 0 0 1 9.82 7.73zm9.81-14.32c-10.11 0-17.84 7.44-17.84 17.55a17.46 17.46 0 0 0 17.84 17.55c8.33 0 14.88-4.76 17.26-11.3h-8c-1.49 2.67-5.06 4.76-9.23 4.76a10.23 10.23 0 0 1 -10.11-8h27.66c0-.9.3-2.09.3-2.68 0-10.41-7.43-17.85-17.85-17.85"/><path d="m437.31 488a13.51 13.51 0 0 0 -11.37 5.39v-4.49h-7.18v33.21h7.18v-18.21a8.32 8.32 0 0 1 8.68-8.67c5.08 0 8.38 3.29 8.38 8.37v18.55h7.18v-20.94c.3-7.78-4.79-13.17-12.87-13.17"/><path d="m468.32 479.08h-7.21v9.92h-6.31v6.61h6.31v26.74h15.89v-6.61h-8.71v-19.84h8.71v-6.61h-8.71v-10.21"/><path d="m21.76 418-7.6-7.6v-8.17l7.32-7h40v-11.85h-46.76l-14.64 14.62v16.9l14.64 14.37h33l7.88 7.89v9.84l-7.32 7.61h-43.98v11.55h51l14.37-14.65v-19.4l-14.67-14.37h-33.24"/><path d="m97.66 403.38 8.85-8.85h24.84l8.85 8.85v15.71h-42.26zm54.82 51.4h-46.26l-8.85-8.85v-16h56.25v-29.93l-16.56-16.56h-36.83l-16.57 16.56v49.69l16.57 16.56h52.25z"/><path d="m209.06 455.35h-19.69l-8.68-8.68v-12.74l8.68-8.69 35.9-.28v13.89zm16.21 11h13.89v-66.29l-16.5-16.5h-45.16v11.87h39.37l8.69 8.68v10.42h-42.27l-16.5 16.47v18.82l16.5 16.5h29.24l12.74-12.74v12.74"/><path d="m306.31 383.51h-21.31l-14.34 14.92v-14.92h-14v82.79h14v-53.54l14.92-15.5h20.42l.3-13.75"/><path d="m386.2 410.88v-13l-14.52-14.52h-37.92l-16.59 16.59v49.47l16.59 16.58h51.55v-11.57h-45.62l-8.59-8.89v-42.66l8.59-8.59h24.59l8 8v8.59z"/><path d="m461 466.33h13.8v-66.33l-16.52-16.52h-30.63l-12.65 13.18v-47.15h-13.78v116.82h13.78v-55.26l16.21-16.51h21l8.4 9 .3 62.76"/><path d="m569.48 454.2-22-22-22 22-8.26-8.2 22-22-22-22 8.26-8.25 22 22 22-22 8.25 8.25-22 22 22 22zm-64.17-72.12v84h84v-84z"/></g><g fill="#88d8e5"><path d="m502.27 188.75-22-22 22-22 8.15 8.15-13.89 13.89 13.89 13.89-8.15 8.15"/><path d="m474.3 189-8.14-8.14 13.84-13.86-13.86-13.86 8.16-8.14 22 22z"/></g></svg>