<svg viewBox="0 0 589.27 466.21" xmlns="http://www.w3.org/2000/svg"><g fill="#173751"><path d="m493.79 258.44v-175.44h65.5l29.79-29.56v-53.44h-151.33l-26 26v125.33h34.75l23.64-23.64v-56.28h-11.35v51.59l-17 17h-18.7v-109.26l19.39-19.39h135.25v37.12l-22.94 22.94h-72.35v89.59h-328.2l-97.42 97.44h-56.75v11.35h61.48l97.45-97.41h323.44v81.81l-34.76 42.32 23.17 23.89h-48v-65.5h-212.57l-43.28 41.1 23.17 24.12h-54.61v-105.18h-11.35v116.57h92.93l-33.82-35.23 31.45-30h196.5v65.5h86.3l-34.76-35.94 31-37.37"/><path d="m21.68 418-7.68-7.69v-8.08l7.25-7.23h40.17v-11.69h-46.76l-14.66 14.69v16.79l14.66 14.21h32.74l7.86 7.86v10l-7.44 7.65h-44v11.49h50.8l14.45-14.66v-19.57l-14.66-14.24h-32.73"/><path d="m140 418.78h-42.24v-15.58l8.66-8.66h24.89l8.69 8.66zm-39.6-35.5-16.71 16.72v49.56l16.67 16.67h52.16v-11.52h-46.1l-8.66-8.66v-16.05h56.24v-29.83l-16.63-16.67-37-.22"/><path d="m225.22 439-16.31 16.08h-19.61l-8.59-8.81v-12.79l8.59-8.6 35.92-.22zm-47.82-55.76v11.68h39.23l8.59 8.81v10.36h-42.09l-16.52 16.52v18.95l16.52 16.53h29.31l12.78-12.78v12.78h13.88v-66.33l-16.52-16.76h-45.18"/><path d="m270.72 398.29v-15h-13.85v82.89h13.85v-53.4l15-15.42h20.56v-13.82h-21.28l-14.3 14.75"/><path d="m333.68 383.4-16.58 16.6v49.51l16.58 16.58h51.55v-11.6h-45.65l-8.58-8.86v-42.7l8.63-8.63h24.53l7.95 7.95v8.63h13.85v-13.17l-14.58-14.31z"/><path d="m427.81 383.24-12.72 13.18v-47.16h-13.87v116.74h13.87v-55.24l16.42-16.65h21l8.32 9v62.65h13.87v-66.1l-16.37-16.66h-30.52"/><path d="m569.4 454.09-22-22-22 22-8.28-8.27 22-22-22-22 8.28-8.27 22 22 22-22 8.28 8.27-22 22 22 22zm-64.08-72.09v84.18h83.95v-84.18z"/></g><g fill="#88d8e5"><path d="m502.15 188.84-21.89-21.84 21.89-21.89 8.14 8.15-14 14 14 14-8.14 7.68"/><path d="m474.39 188.77-8.13-8.13 13.94-13.93-13.94-13.93 8.13-8.13 22.06 22.06z"/></g></svg>