<svg viewBox="0 0 589.29 523.09" xmlns="http://www.w3.org/2000/svg"><g fill="#173751"><path d="m493.85 258.54v-175.48h65.51l29.75-29.58v-53.48h-151.42l-25.9 26.07v125.34h34.76l23.57-23.56v-56.32h-11.37v51.47l-16.88 16.88h-18.72v-109.13l19.22-19.39h135.2v37.27l-23.06 22.9h-72.2v89.58h-328.22l-97.44 97.26h-56.65v11.37h61.33l97.44-97.27h323.54v81.72l-34.59 42.28 23.28 23.9h-48v-65.37h-212.59l-43.12 41.28 23.23 24.06h-54.65v-105.25h-11.36v116.65h92.92l-33.93-35.1 31.59-30.08h196.53v65.35h86.24l-34.76-35.91 30.75-37.43"/><path d="m119.63 494.37v-5.37h-7.3v33.29h7.3v-16.2c0-6.14 3.8-10.08 10.22-10.08v-7.44c-4.23-.15-7.74 2-10.22 5.84"/><path d="m140.13 502.34a10.22 10.22 0 0 1 19.8 0zm9.9-14.19c-10.19 0-17.73 7.54-17.73 17.44s7.7 17.41 17.7 17.41c8.28 0 14.78-4.58 17.14-11.38h-8c-1.48 2.81-4.87 4.73-9.16 4.73a10 10 0 0 1 -10-8h27.48a18.7 18.7 0 0 0 .14-2.8c.15-9.9-7.38-17.44-17.58-17.44"/><path d="m189.94 495.26a10.08 10.08 0 0 1 9.57 6.58h7.78c-1.65-7.93-8.68-13.61-17.35-13.61-10.17 0-17.8 7.48-17.8 17.5s7.63 17.34 17.8 17.34c8.67 0 15.7-5.68 17.35-13.61h-7.78a10.29 10.29 0 0 1 -19.89-3.73 10.19 10.19 0 0 1 10.32-10.47"/><path d="m221 494.31v-5.43h-7.38v33.3h7.38v-16.12c0-6.18 3.77-10.1 10.25-10.1v-7.53c-4.22 0-7.68 2.26-10.25 5.88"/><path d="m260 507.87c0 4.88-3.35 8.07-8.22 8.07s-7.78-3.19-7.78-7.94v-19h-7.31v21.18c0 7.76 5 12.79 12.79 12.79a13 13 0 0 0 10.67-5.18v4.42h7.31v-33.21h-7.31v18.89"/><path d="m279.76 474.1a4.6 4.6 0 0 0 0 9.19 4.64 4.64 0 0 0 4.74-4.59 4.73 4.73 0 0 0 -4.74-4.6"/><path d="m276.1 522.19h7.34v-33.19h-7.34v33.21"/><path d="m303 479.13h-7.26v9.72h-6.14v6.64h6.17v26.51h16.05v-6.6h-8.64v-19.91h8.64v-6.64h-8.64v-9.72"/><path d="m358.41 488.09a13 13 0 0 0 -11.62 6.44c-1.89-3.92-5.81-6.44-11-6.44a12.37 12.37 0 0 0 -10.36 5v-4.24h-7.38v33.3h7.38v-19.29c0-4.71 3.14-7.7 7.85-7.7s7.38 3 7.38 7.54v19.48h7.39v-19.32c0-4.71 3.14-7.7 7.85-7.7 4.55 0 7.38 3 7.38 7.54v19.48h7.38v-21.52c0-7.54-4.87-12.57-12.25-12.57"/><path d="m384.69 502.42a10 10 0 0 1 9.85-7.63 9.91 9.91 0 0 1 9.86 7.63zm9.85-14.31c-10.17 0-17.8 7.48-17.8 17.49 0 9.86 7.63 17.49 17.8 17.49 8.27 0 14.79-4.61 17.17-11.29h-7.95c-1.43 2.86-4.92 4.77-9.06 4.77a9.93 9.93 0 0 1 -10-8h27.5a16.16 16.16 0 0 0 .16-2.7c0-10.33-7.63-17.81-17.81-17.81"/><path d="m437.26 488.15a13.49 13.49 0 0 0 -11.26 5.46v-4.61h-7.23v33.27h7.23v-18.53c0-5.15 3.54-8.68 8.84-8.68 5 0 8.2 3.37 8.2 8.52v18.48h7.23v-20.89c.16-7.72-5.14-13-13-13"/><path d="m468.42 479.21h-7.29v9.72h-6.13v6.64h6.16v26.56h16v-6.64h-8.74v-19.92h8.74v-6.64h-8.74z"/><path d="m21.63 418-7.63-7.59v-8l7.3-7.16h40.1v-11.76h-46.79l-14.61 14.75v16.76l14.61 14.32h32.79l7.88 7.88v10l-7.45 7.59h-44v11.6h50.88l14.46-14.6v-19.47l-14.61-14.32z"/><path d="m97.67 403.27 8.68-8.68h24.86l8.67 8.68v15.73h-42.36v-15.73zm54.86 51.49h-46.18l-8.68-8.68v-16.08h56.33v-30l-16.63-16.63h-36.91l-16.62 16.63v49.57l16.62 16.62h52.07z"/><path d="m208.93 455.28h-19.64l-8.76-8.76v-12.68l8.76-8.61 36-.15v13.92zm16.31 11h13.89v-66.28l-16.46-16.6h-45.31v11.78h39.27l8.61 8.76v10.27h-42.14l-16.46 16.61v18.87l16.46 16.62h29.3l12.84-12.84v12.84"/><path d="m306.27 383.42h-21.27l-14.34 14.95v-14.95h-14v82.91h14v-53.33l15.11-15.56h20.65v-14"/><path d="m386.17 411.13v-13.13l-14.52-14.36h-37.87l-16.57 16.57v49.54l16.57 16.57h51.6v-11.48h-45.6l-8.68-8.84v-42.6l8.68-8.68h24.61l7.89 7.89v8.52z"/><path d="m460.85 466.44h13.92v-66.2l-16.51-16.67h-30.59l-12.67 13.11v-47.1h-13.88v116.86h13.88v-55.19l16.35-16.67h21l8.42 9.06v62.8"/><path d="m569.24 454.38-21.9-22.06-22.06 22.06-8.19-8.19 21.91-21.89-21.9-21.9 8.19-8.19 22.06 22.06 21.9-22.06 8.19 8.19-21.9 21.9 21.9 21.89zm-64-72.37v84.07h84.06v-84.08h-84.07"/></g><path d="m502.08 188.82-21.91-21.9 21.91-21.92 8 8-13.9 13.9 13.9 13.89-8 8" fill="#88d8e5"/><path d="m474.42 188.9-8.14-8.14 13.84-13.85-13.84-13.84 8.14-8.14 22 22-22 22" fill="#88d8e5"/></svg>