<svg viewBox="0 0 587.84 116.74" xmlns="http://www.w3.org/2000/svg"><g fill="#173751"><path d="m3.87 116.56v-11.56h43.78l7.41-7.58v-9.98l-7.92-7.92h-32.66l-14.48-14.14v-16.67l14.48-14.65h46.64v11.62h-39.91l-7.21 7.07v8.08l7.58 7.58h33l14.42 14.31v19.36l-14.28 14.48z"/><path d="m97.32 69.25h42.26v-15.66l-8.76-8.75h-24.92l-8.75 8.75v15.66zm2.68 47.31-16.66-16.67v-49.5l16.66-16.66h36.87l16.67 16.66v29.81h-56.22v16l8.75 8.76h46v11.61h-52.07"/><path d="m188.74 105.45h19.53l16.34-16.16v-14l-35.87.17-8.74 8.61v12.63zm-6.23 11.11-16.51-16.67v-18.89l16.5-16.67h42.1v-10.23l-8.6-8.76h-39.21v-11.61h45.29l16.5 16.66v66.17h-14v-12.79l-12.8 12.79h-29.3"/><path d="m255.92 116.56v-82.67h14v14.82l14.31-14.82h21.21v14h-20.56l-15 15.49v53.2h-14"/><path d="m332.87 116.56-16.67-16.67v-49.5l16.67-16.66h37.71l14.48 14.27v13.17h-14v-8.59l-7.92-7.91h-24.55l-8.75 8.75v42.58l8.75 8.93h45.46v11.61h-51.18"/><path d="m400 116.57v-116.57h13.93v46.9l12.58-13.08h30.59l16.49 16.65v66.1h-13.94v-62.57l-8.33-9h-21.07l-16.31 16.68v55.06z"/><path d="m567.8 104.58-21.9-21.9-21.9 21.9-8.25-8.25 21.9-21.9-21.9-21.9 8.25-8.25 21.9 21.9 21.9-21.9 8.25 8.25-21.9 21.9 21.9 21.9zm-63.8-72.09v83.88h83.88v-83.88z"/></g></svg>