<svg viewBox="0 0 587.76 172.97" xmlns="http://www.w3.org/2000/svg"><g fill="#173751"><path d="m129.47 138.46v7.45c-6.42 0-10.19 3.94-10.19 10.11v16.18h-7.28v-33.2h7.28v5.39c2.4-3.68 5.91-5.91 10.19-5.91"/><path d="m139.66 152.42h19.7a10.18 10.18 0 0 0 -19.7 0zm27.4 5.91h-27.48a9.86 9.86 0 0 0 9.93 8c4.19 0 7.71-2 9.08-4.71h8c-2.4 6.68-8.91 11.31-17.13 11.31-10.1 0-17.72-7.45-17.72-17.39s7.62-17.38 17.72-17.38 17.81 7.45 17.81 17.47a14.84 14.84 0 0 1 -.17 2.74"/><path d="m171.6 155.59c0-9.85 7.62-17.38 17.81-17.38 8.74 0 15.67 5.56 17.3 13.53h-7.71a10 10 0 0 0 -9.59-6.51 10.36 10.36 0 1 0 9.59 14.21h7.71c-1.63 8-8.56 13.53-17.3 13.53-10.19 0-17.81-7.53-17.81-17.38"/><path d="m230.6 138.46v7.45c-6.42 0-10.19 3.94-10.19 10.11v16.18h-7.28v-33.2h7.28v5.39c2.4-3.68 5.91-5.91 10.19-5.91"/><path d="m266.56 139v33.2h-7.27v-4.45a12.49 12.49 0 0 1 -10.62 5.25c-7.62 0-12.68-5.05-12.68-12.84v-21.16h7.28v19c0 4.71 3.09 8 7.71 8 5 0 8.31-3.25 8.31-8v-19z"/><path d="m275.21 139h7.28v33.2h-7.28zm-.94-10.19a4.67 4.67 0 0 1 9.33 0 4.61 4.61 0 0 1 -4.7 4.62 4.55 4.55 0 0 1 -4.63-4.62"/><path d="m302.19 145.66v19.86h8.64v6.68h-15.92v-26.54h-6.17v-6.66h6.17v-9.77h7.28v9.77h8.64v6.68h-8.64"/><path d="m369.66 150.62v21.58h-7.28v-19.44c0-4.54-2.82-7.53-7.36-7.53-4.71 0-7.88 3.08-7.88 7.7v19.27h-7.28v-19.44c0-4.54-2.82-7.53-7.36-7.53-4.71 0-7.88 3.08-7.88 7.7v19.27h-7.28v-33.2h7.28v4.28a12 12 0 0 1 10.28-5c5.13 0 9.07 2.39 11 6.42a12.84 12.84 0 0 1 11.56-6.42c7.36 0 12.24 5 12.24 12.41"/><path d="m383.62 152.42h19.69a10.17 10.17 0 0 0 -19.69 0zm27.4 5.91h-27.4a9.88 9.88 0 0 0 9.93 8c4.2 0 7.71-2 9.08-4.71h8c-2.39 6.68-8.9 11.31-17.12 11.31-10.11 0-17.73-7.45-17.73-17.39s7.62-17.38 17.73-17.38 17.81 7.45 17.81 17.47a15 15 0 0 1 -.26 2.74"/><path d="m449.21 151.31v20.89h-7.28v-18.5c0-5-3.25-8.47-8.3-8.47-5.31 0-8.82 3.42-8.82 8.56v18.33h-7.28v-33.23h7.28v4.62a13.27 13.27 0 0 1 11.19-5.39c8 .09 13.18 5.31 13.18 13.19"/><path d="m467.11 145.66v19.86h8.65v6.68h-15.93v-26.54h-6.17v-6.66h6.17v-9.77h7.28v9.77h8.65v6.68h-8.65"/><path d="m3.94 116.46v-11.56h43.76l7.45-7.62v-9.94l-7.88-7.88h-32.71l-14.56-14.21v-16.78l14.56-14.73h46.67v11.73h-40.08l-7.28 7.11v8.05l7.62 7.62h33.06l14.55 14.21v19.44l-14.38 14.56z"/><path d="m97.28 69.19h42.21v-15.67l-8.73-8.65h-24.84l-8.73 8.65zm2.72 47.27-16.6-16.62v-49.49l16.6-16.61h36.82l16.61 16.61v29.88h-56.07v15.93l8.73 8.74h46v11.56z"/><path d="m188.64 105.41h19.61l16.27-16.1v-14l-35.88.18-8.73 8.56v12.71zm-6.16 11-16.48-16.57v-18.84l16.44-16.62h42v-10.26l-8.44-8.65h-39.26v-11.73h45.26l16.44 16.61v66.11h-13.92v-12.76l-12.84 12.76h-29.2"/><path d="m256 116.46v-82.64h13.87v14.9l14.38-14.9h21.15v14h-20.6l-15 15.5v53.26h-13.8"/><path d="m332.84 116.46-16.61-16.62v-49.49l16.61-16.61h37.76l14.56 14.38v13.11h-13.87v-8.57l-7.88-7.88h-24.49l-8.73 8.65v42.57l8.73 8.82h45.56v11.56h-51.64"/><path d="m400 116.46v-116.46h13.87v46.92l12.67-13.1h30.46l16.45 16.62v66.1h-13.88v-62.54l-8.39-9h-21.06l-16.27 16.57v55h-13.85"/><path d="m567.72 104.47-21.92-21.92-21.92 21.92-8.22-8.22 21.92-21.92-21.92-21.93 8.22-8.22 21.92 21.93 21.92-21.93 8.22 8.22-21.94 21.93 21.92 21.92zm-63.79-72.1v83.83h83.83v-83.83z"/></g></svg>