<svg viewBox="0 0 589.68 413.75" xmlns="http://www.w3.org/2000/svg"><g fill="#173751"><path d="m21.72 364.83-7.62-7.61v-8.22l7.34-7h40.05v-11.86h-46.82l-14.67 14.67v16.92l14.67 14.39h32.72l7.9 7.9v9.87l-7.29 7.61h-44v11.57h50.72l14.39-14.67v-19.46l-14.67-14.39h-32.72"/><path d="m140.21 366h-42.32v-15.73l8.58-8.58h24.87l8.58 8.58zm-39.75-35.46-16.59 16.58v49.47l16.59 16.59h52.05v-11.44h-46l-8.58-8.58v-16h56.33v-30l-16.58-16.59h-37.22"/><path d="m225.29 385.9-16.23 16.24h-19.72l-8.69-8.7v-12.76l8.69-8.69 35.95-.29zm-47.83-55.37v11.6h39.43l8.4 8.7v10.43h-42l-16.53 16.53v18.84l16.53 16.52h29.28l12.75-12.75v12.75h13.92v-66.09l-16.53-16.53z"/><path d="m270.9 345.36v-14.94h-14.06v82.91h14.06v-53.33l14.94-15.53h20.51v-14.05h-21.35z"/><path d="m334 330.26-16.61 16.62v49.54l16.61 16.58h51.62v-11.54h-45.62l-8.6-8.9v-42.72l8.6-8.6h24.63l8 8v8.6h13.94v-13.04l-14.57-14.54z"/><path d="m427.93 330.45-12.63 13.23v-46.92h-13.84v116.69h13.84v-55l16.24-16.54h21l8.42 9v62.85h13.83v-66.17l-16.49-16.54h-30.37"/><path d="m569.48 401.33-22-22-22 22-8.27-8.26 22-22-22-22 8.27-8.26 22 22 22-22 8.26 8.26-22 22 22 22zm-64-72.22v84.15h84.16v-84.15h-84.12"/><path d="m159 172.57h323.13v62.73h66.1v16.22l-14.38 16.22h-84.46v-58.14l-19.58-19.6-7.95 8 16.21 16.22v41h-242.95l-8.26-8.57 34.58-31.82-32.74-31.83-8 8.26 23.87 23.25-34.23 31.49 20.5 21.11h-54.77v-53.53h-11.32v65.17h92.71l-11.63-12.24h231.94v12.55h101.28l20.81-23.26v-32.13h-66.1v-140.75h65.48l29.68-29.68v-53.24h-151.15l-26 26v126.69h35.49l23.56-23.57v-57.52h-11.33v52.63l-16.83 16.83h-19.27v-110.16l19.27-19.27h134.94v37.37l-23 22.95h-72.16v89.34h-328l-97.3 97.31h-56.93v11.32h61.79l97-97.31"/></g><path d="m502.1 188.85-22.1-22.07 22.07-22.07 8.16 8.16-13.91 13.91 13.91 13.91-8.16 8.16" fill="#88d8e5"/><path d="m474.39 188.62-8.14-8.14 13.88-13.88-13.88-13.88 8.14-8.15 22 22-22 22" fill="#88d8e5"/></svg>