<svg height="60" viewBox="0 0 60 60" width="60" xmlns="http://www.w3.org/2000/svg"><path d="m51.627907 0 8.372093 8.37209302v43.25581398l-8.372093 8.372093h-43.25581398l-8.37209302-8.372093v-43.25581398l8.37209302-8.37209302zm-30.358907 16.0977621c-.3974167.2253406-.644.6534367-.644 1.1181804v25.56815c0 .4647437.2465833.8928398.644 1.1181804.1888333.1070453.3975.1602271.606.1602271.23025 0 .4601667-.0650283.6625-.1943179l20-12.7839898c.3655-.2336077.5875-.6432947.5875-1.0840896s-.222-.8504819-.5875-1.0840895l-20-12.7841602c-.3854167-.2463918-.8710833-.2593463-1.2685-.0340909z" fill="#fdd963" fill-rule="evenodd"/></svg>