<?xml version="1.0" encoding="UTF-8"?>
<svg width="60px" height="60px" viewBox="0 0 60 60" version="1.1" xmlns="http://www.w3.org/2000/svg" xmlns:xlink="http://www.w3.org/1999/xlink">
    <title>Combined Shape</title>
    <g id="1920-px-Desktop" stroke="none" stroke-width="1" fill="none" fill-rule="evenodd">
        <g id="Ons-bedrijf" transform="translate(-1084.000000, -2025.000000)" fill="#EC6278">
            <g id="Group-15-Copy-3" transform="translate(668.000000, 1768.000000)">
                <g id="Group-5" transform="translate(416.000000, 257.000000)">
                    <path d="M51.627907,0 L60,8.37209302 L60,51.627907 L51.627907,60 L8.37209302,60 L0,51.627907 L0,8.37209302 L8.37209302,0 L51.627907,0 Z M21.269,16.0977621 C20.8715833,16.3231027 20.625,16.7511988 20.625,17.2159425 L20.625,42.7840925 C20.625,43.2488362 20.8715833,43.6769323 21.269,43.9022729 C21.4578333,44.0093182 21.6665,44.0625 21.875,44.0625 C22.10525,44.0625 22.3351667,43.9974717 22.5375,43.8681821 L42.5375,31.0841923 C42.903,30.8505846 43.125,30.4408976 43.125,30.0001027 C43.125,29.5593078 42.903,29.1496208 42.5375,28.9160132 L22.5375,16.131853 C22.1520833,15.8854612 21.6664167,15.8725067 21.269,16.0977621 Z" id="Combined-Shape"></path>
                </g>
            </g>
        </g>
    </g>
</svg>