<svg width="417" height="410" viewBox="0 0 417 410" fill="none" xmlns="http://www.w3.org/2000/svg">
<path fill-rule="evenodd" clip-rule="evenodd" d="M298.842 189.089L281.589 206.098V289.923H307.119L322.76 274.558V237.031H316.434V271.982L304.5 283.708H287.915V208.666L301.47 195.304H394.484V221.196L378.379 236.962H329.622V296.817H105.879L39.5884 361.882H0.712158V368.097H42.2069L108.498 303.032H329.622V358.681L306.286 386.658L322.782 403.414H287.785V359.676H144.149L115.521 386.551L131.985 403.309H92.4008V332.251H86.0742V409.525H146.884L124.489 386.728L146.685 365.892H281.459V409.629H337.702L314.751 386.315L335.948 360.902V243.178H380.994L400.811 223.776V189.089H298.842Z" fill="#093853"/>
<path fill-rule="evenodd" clip-rule="evenodd" d="M342.775 314.107L328.339 299.925L342.775 285.743L347.249 290.137L337.286 299.925L347.249 309.713L342.775 314.107Z" fill="#8FD1E7"/>
<path fill-rule="evenodd" clip-rule="evenodd" d="M322.881 314.107L318.407 309.713L328.37 299.925L318.407 290.137L322.881 285.743L337.316 299.925L322.881 314.107Z" fill="#8FD1E7"/>
<path fill-rule="evenodd" clip-rule="evenodd" d="M208.067 0.532471L189.753 18.4692V67.5932L207.937 85.6873H398.49L416.606 67.7522V18.4692L398.968 0.532471L208.067 0.532471Z" fill="#093853"/>
<path fill-rule="evenodd" clip-rule="evenodd" d="M308.931 55.2742L378.58 123.997V55.2742H308.931Z" fill="#093853"/>
<path d="M238.356 55.2137C243.105 55.2137 246.728 52.0479 246.728 47.8619C246.728 43.2187 243.316 41.3544 239.517 40.3695C236.949 39.7011 235.296 38.7162 235.296 36.9574C235.296 35.5152 236.598 34.4247 238.286 34.4247C240.045 34.4247 241.382 35.691 241.382 37.3795H246.377C246.377 33.2287 242.894 30.0981 238.286 30.0981C233.748 30.0981 230.301 33.1584 230.301 37.1684C230.301 41.6006 233.537 43.7112 237.16 44.6609C239.728 45.2941 241.733 46.3142 241.733 48.1434C241.733 49.6911 240.291 50.8871 238.427 50.8871C236.457 50.8871 234.944 49.4449 234.944 47.6157H229.949C229.949 51.9424 233.573 55.2137 238.356 55.2137ZM258.719 55.2137C263.538 55.2137 267.302 52.1182 268.146 47.7916H263.292C262.553 49.5856 260.83 50.7816 258.719 50.7816C255.905 50.7816 253.794 48.6358 253.794 45.8217C253.794 43.0077 255.905 40.8619 258.719 40.8619C260.83 40.8619 262.553 42.0579 263.292 43.8519H268.146C267.302 39.5252 263.538 36.4297 258.719 36.4297C253.232 36.4297 249.081 40.475 249.081 45.8217C249.081 51.1685 253.232 55.2137 258.719 55.2137ZM285.442 50.6409V36.8519H271.16V41.1082H280.869V43.4298H276.261C272.637 43.4298 269.894 45.9273 269.894 49.3042C269.894 52.6459 272.637 55.2137 276.261 55.2137C278.441 55.2137 280.235 54.3695 281.396 52.9625V54.7916H287.517V50.6409H285.442ZM277.316 51.5554C275.768 51.5554 274.607 50.5353 274.607 49.2338C274.607 47.9323 275.768 46.9474 277.316 46.9474H280.869V49.0228C280.869 50.5353 279.426 51.5554 277.316 51.5554ZM294.661 50.6057V29.4649H290.088V54.7916H297.686V50.6057H294.661ZM318.511 45.8569C318.511 40.475 314.36 36.4297 308.872 36.4297C303.385 36.4297 299.234 40.475 299.234 45.8217C299.234 51.1685 303.385 55.2137 308.872 55.2137C313.304 55.2137 316.857 52.6811 318.159 49.0228H313.269C312.566 50.2539 310.913 51.1685 308.943 51.1685C306.551 51.1685 304.722 49.6911 304.124 47.4047H318.37C318.475 46.9825 318.511 46.3142 318.511 45.8569ZM308.872 40.4398C311.124 40.4398 312.988 41.882 313.586 44.0629H304.194C304.792 41.882 306.586 40.4398 308.872 40.4398ZM321.585 47.3695H331.856V42.9373H321.585V47.3695ZM348.009 36.8519V46.9474C348.009 49.269 346.426 50.7816 344.069 50.7816C341.853 50.7816 340.376 49.3042 340.376 47.0177V36.8519H335.803V48.3544C335.803 52.5052 338.512 55.2137 342.557 55.2137C344.808 55.2137 346.673 54.2992 348.009 52.6107V54.7916H352.582V36.8519H348.009ZM367.348 36.4297C364.921 36.4297 362.916 37.485 361.509 39.2086V36.8519H356.936V61.4751H361.509V52.4348C362.916 54.1585 364.921 55.2137 367.348 55.2137C372.343 55.2137 376.072 51.1685 376.072 45.8217C376.072 40.475 372.343 36.4297 367.348 36.4297ZM366.433 50.7816C363.619 50.7816 361.509 48.6358 361.509 45.8217C361.509 43.0077 363.619 40.8619 366.433 40.8619C369.283 40.8619 371.358 43.0077 371.358 45.8217C371.358 48.6358 369.283 50.7816 366.433 50.7816Z" fill="#94D4E9"/>
</svg>
