<?xml version="1.0" encoding="UTF-8"?>
<svg width="30px" height="30px" viewBox="0 0 30 30" version="1.1" xmlns="http://www.w3.org/2000/svg" xmlns:xlink="http://www.w3.org/1999/xlink">
    <title>Shape</title>
    <g id="1920-px-Desktop" stroke="none" stroke-width="1" fill="none" fill-rule="evenodd">
        <g id="Home" transform="translate(-923.000000, -5626.000000)" fill="#EC6278" fill-rule="nonzero">
            <g id="Group" transform="translate(360.000000, 5609.000000)">
                <g id="search-(1)" transform="translate(563.000000, 17.000000)">
                    <path d="M12.0740736,24.1391498 C14.7555221,24.1392148 17.3602668,23.2444396 19.4757322,21.5964876 L27.4566996,29.5786655 C28.0529093,30.1545515 29.0029316,30.1380382 29.5787303,29.5417381 C30.1404232,28.9600659 30.1404232,28.0379202 29.5787303,27.456313 L21.5977628,19.4741351 C25.6864014,14.2101548 24.734299,6.62787243 19.4711169,2.5386137 C14.2079349,-1.55064502 6.62686734,-0.598398202 2.53822873,4.66558215 C-1.55040987,9.9295625 -0.598307457,17.5118448 4.66487463,21.6011036 C6.78378515,23.2474302 9.39086997,24.1405151 12.0740736,24.1391498 Z M5.66143926,5.65768199 C9.20307562,2.11544346 14.9452016,2.11537845 18.4869029,5.65755197 C22.0286043,9.19972549 22.0286693,14.9427223 18.4870329,18.4849609 C14.9453966,22.0271994 9.20327063,22.0272644 5.66156927,18.4850909 C5.66150426,18.4850259 5.66150426,18.4850259 5.66143926,18.4849609 C2.1198029,14.9685975 2.09893686,9.24653492 5.61476694,5.7043614 C5.63030271,5.68875825 5.64583848,5.67322012 5.66143926,5.65768199 Z" id="Shape"></path>
                </g>
            </g>
        </g>
    </g>
</svg>