<?xml version="1.0" encoding="UTF-8"?>
<svg width="1126px" height="313px" viewBox="0 0 1126 313" version="1.1" xmlns="http://www.w3.org/2000/svg" xmlns:xlink="http://www.w3.org/1999/xlink">
    <title>Group 31</title>
    <g id="1920" stroke="none" stroke-width="1" fill="none" fill-rule="evenodd">
        <g id="IT" transform="translate(-361.000000, -318.000000)">
            <g id="Group-31" transform="translate(360.999804, 318.000196)">
                <polygon id="Fill-1" fill="#093853" points="415.62682 -2.84217094e-14 391.5737 24.13642 391.5737 143.08686 427.16632 143.08686 448.97132 121.28284 448.97132 68.03062 440.15132 68.03062 440.15132 117.62842 423.51386 134.26686 400.3937 134.26686 400.3937 27.78104 419.29006 8.82 548.96268 8.82 548.96268 45.56118 526.51088 67.9336 458.5371 67.9336 458.5371 152.86922 146.61388 152.86922 54.19792 245.19796 2.27373675e-13 245.19796 2.27373675e-13 254.01796 57.84842 254.01796 150.26536 161.68922 458.5371 161.68922 458.5371 240.65664 426.00502 280.35644 449.0017 304.1332 400.2124 304.1332 400.2124 242.06882 199.96704 242.06882 160.05654 280.20454 183.00912 303.98522 127.82434 303.98522 127.82434 203.15106 119.00434 203.15106 119.00434 312.80522 203.78022 312.80522 172.55938 280.4564 203.50288 250.88882 391.3924 250.88882 391.3924 312.9532 469.8022 312.9532 437.80618 279.87036 467.3571 243.80832 467.3571 76.7536 530.1555 76.7536 557.78268 49.22246 557.78268 -2.84217094e-14"></polygon>
                <polygon id="Fill-1" fill="#093853" points="663.281196 80.999804 641.000196 103.116804 641.000196 163.689304 663.123196 186.000304 1103.5896 186.000304 1125.6306 163.885304 1125.6306 103.116804 1104.1716 80.999804"></polygon>
                <text id="Mijn-groei-Scale-up" font-family="Fractul-SemiBold, Fractul" font-size="42.7975" font-weight="500">
                    <tspan x="686.000196" y="153.999804" fill="#94D4E9">Mijn groei</tspan>
                    <tspan x="887.319636" y="153.999804" fill="#FDD963"> </tspan>
                    <tspan x="897.077466" y="153.999804" fill="#FFFFFF">Scale-up</tspan>
                </text>
                <polygon id="Fill-2" fill="#093853" points="599.000196 80.999304 683.739196 165.738304 683.739196 80.999304"></polygon>
            </g>
        </g>
    </g>
</svg>