<svg width="419" height="371" viewBox="0 0 419 371" fill="none" xmlns="http://www.w3.org/2000/svg">
<path fill-rule="evenodd" clip-rule="evenodd" d="M298.33 184.556L281.077 201.661V285.96H306.607L322.247 270.508V232.768H315.921V267.919L303.986 279.71H287.403V204.244L300.956 190.807H393.971V216.844L377.867 232.701H329.108V292.894H105.366L39.0762 358.293H0.000244141V364.544H41.694L107.984 299.145H329.108V341.317H374.052V353.187L363.836 364.571H305.215V325.046L292.104 312.093L287.632 316.512L298.889 327.635V356.179H132.353L126.083 349.735L149.583 328.428L127.898 307.575L123.485 312.054L140.374 328.294L117.035 349.455L131.566 364.391H91.9617V327.725H85.635V370.641H146.425L138.435 362.429H298.889V370.821H366.682L380.378 355.559V335.066H335.435V238.952H380.481L400.298 219.44V184.556H298.33Z" fill="#093853"/>
<path fill-rule="evenodd" clip-rule="evenodd" d="M342.263 310.282L327.827 296.02L342.263 281.757L346.735 286.177L336.774 296.02L346.735 305.862L342.263 310.282Z" fill="#FDD963"/>
<path fill-rule="evenodd" clip-rule="evenodd" d="M322.368 310.282L317.895 305.862L327.856 296.02L317.895 286.177L322.368 281.757L336.804 296.02L322.368 310.282Z" fill="#FDD963"/>
<path fill-rule="evenodd" clip-rule="evenodd" d="M209.409 0.0546875L191.096 17.9915V67.1154L209.279 85.2095H400.86L418.975 67.2744V17.9915L401.338 0.0546875L209.409 0.0546875Z" fill="#093853"/>
<path fill-rule="evenodd" clip-rule="evenodd" d="M312.329 54.7964L381.977 123.519V54.7964H312.329Z" fill="#093853"/>
<path d="M245.699 53.7093C250.448 53.7093 254.071 50.5435 254.071 46.3576C254.071 41.7143 250.659 39.85 246.86 38.8651C244.292 38.1967 242.639 37.2118 242.639 35.453C242.639 34.0108 243.94 32.9203 245.629 32.9203C247.387 32.9203 248.724 34.1866 248.724 35.8751H253.719C253.719 31.7243 250.237 28.5937 245.629 28.5937C241.091 28.5937 237.644 31.654 237.644 35.664C237.644 40.0962 240.88 42.2068 244.503 43.1565C247.071 43.7897 249.076 44.8098 249.076 46.639C249.076 48.1867 247.634 49.3827 245.769 49.3827C243.799 49.3827 242.287 47.9405 242.287 46.1113H237.292C237.292 50.438 240.915 53.7093 245.699 53.7093ZM268.316 39.5334V35.3475H263.884V30.0711H259.311V35.3475H256.075V39.5334H259.311V53.2872H268.316V49.1013H263.884V39.5334H268.316ZM285.879 49.1365V35.3475H271.598V39.6038H281.306V41.9254H276.698C273.075 41.9254 270.332 44.4229 270.332 47.7998C270.332 51.1415 273.075 53.7093 276.698 53.7093C278.879 53.7093 280.673 52.8651 281.834 51.4581V53.2872H287.955V49.1365H285.879ZM277.754 50.051C276.206 50.051 275.045 49.0309 275.045 47.7294C275.045 46.4279 276.206 45.443 277.754 45.443H281.306V47.5184C281.306 49.0309 279.864 50.051 277.754 50.051ZM295.099 37.9857V35.3475H290.526V53.2872H295.099V44.7395C295.099 41.7143 296.963 39.7796 300.34 39.7796V35.0661C298.229 35.0661 296.4 36.1565 295.099 37.9857ZM314.485 39.5334V35.3475H310.052V30.0711H305.48V35.3475H302.243V39.5334H305.48V53.2872H314.485V49.1013H310.052V39.5334H314.485ZM316.87 45.8651H327.141V41.4329H316.87V45.8651ZM343.294 35.3475V45.443C343.294 47.7646 341.711 49.2772 339.355 49.2772C337.139 49.2772 335.661 47.7998 335.661 45.5133V35.3475H331.088V46.85C331.088 51.0008 333.797 53.7093 337.842 53.7093C340.093 53.7093 341.958 52.7948 343.294 51.1063V53.2872H347.867V35.3475H343.294ZM362.633 34.9253C360.206 34.9253 358.201 35.9806 356.794 37.7043V35.3475H352.221V59.9707H356.794V50.9304C358.201 52.6541 360.206 53.7093 362.633 53.7093C367.628 53.7093 371.357 49.6641 371.357 44.3173C371.357 38.9706 367.628 34.9253 362.633 34.9253ZM361.719 49.2772C358.905 49.2772 356.794 47.1314 356.794 44.3173C356.794 41.5033 358.905 39.3575 361.719 39.3575C364.568 39.3575 366.643 41.5033 366.643 44.3173C366.643 47.1314 364.568 49.2772 361.719 49.2772Z" fill="#FDD963"/>
</svg>
