<?xml version="1.0" standalone="no"?>
<!DOCTYPE svg PUBLIC "-//W3C//DTD SVG 1.1//EN" "http://www.w3.org/Graphics/SVG/1.1/DTD/svg11.dtd" >
<svg xmlns="http://www.w3.org/2000/svg" xmlns:xlink="http://www.w3.org/1999/xlink" version="1.1">
<metadata>
Created by FontForge 20170731 at Sun May 12 20:06:44 2019
 By Aleksey,,,
Copyright (c) 2019 by Adam Ladd. All rights reserved.
</metadata>
<defs>
<font id="Fractul-Italic" horiz-adv-x="0" >
  <font-face 
    font-family="Fractul"
    font-weight="400"
    font-style="italic"
    font-stretch="normal"
    units-per-em="1000"
    panose-1="0 0 5 0 0 0 0 0 0 0"
    ascent="780"
    descent="-220"
    x-height="510"
    cap-height="690"
    bbox="-720 -227 1334 914"
    underline-thickness="51"
    underline-position="-200"
    slope="-8"
    unicode-range="U+0020-FB02"
  />
<missing-glyph horiz-adv-x="500" 
d="M410 780v-1000h-317v1000h317zM333 713h-165v-33h65v-37h-66v-33h166v33h-66v37h66v33zM267 584h-100v-104h166v34h-66v70zM233 550v-36h-33v36h33zM333 453h-166v-33h66v-37h-66v-33h100v70h66v33zM333 393h-33v-66h-133v-34h166v100zM333 271h-100v-56h34v23h33v-47
h-100v80h-33v-113h166v113zM333 98h-166v-113h166v113zM300 65v-47h-100v47h100zM333 -38h-166v-33h70l-70 -47v-33h166v33h-102l70 47h32v33z" />
    <glyph glyph-name="fi" unicode="fi" horiz-adv-x="594" 
d="M545 726q24 0 38.5 -16t10.5 -41q-3 -24 -22 -40.5t-44 -16.5q-24 0 -38 16.5t-11 40.5q4 25 22.5 41t43.5 16zM557 510l-72 -510h-86l61 432h-223l-60 -432h-86l61 432h-93l11 78h93l29 210h208l-11 -79h-122l-19 -131h309z" />
    <glyph glyph-name="fl" unicode="fl" horiz-adv-x="654" 
d="M163 510l29 210h228l-11 -79h-142l-19 -131h143l-11 -78h-143l-60 -432h-86l61 432h-93l11 78h93zM518 79h96l-12 -79h-180l101 720h86z" />
    <glyph glyph-name="f_f.liga" unicode="ff" horiz-adv-x="717" 
d="M753 641h-141l-19 -131h142l-11 -78h-142l-61 -432h-86l61 432h-259l-60 -432h-86l61 432h-93l11 78h93l29 210h228l-11 -79h-142l-19 -131h259l29 210h228z" />
    <glyph glyph-name="f_f_i.liga" unicode="ffi" horiz-adv-x="938" 
d="M889 726q25 0 39 -16t10 -41q-3 -24 -22 -40.5t-43 -16.5q-25 0 -39 16.5t-10 40.5q3 24 22 40.5t43 16.5zM902 510l-72 -510h-86l61 432h-223l-61 -432h-86l61 432h-259l-60 -432h-86l61 432h-93l11 78h93l29 210h228l-11 -79h-142l-19 -131h259l29 210h208l-11 -79
h-121l-19 -131h309z" />
    <glyph glyph-name=".notdef" horiz-adv-x="500" 
d="M410 780v-1000h-317v1000h317zM333 713h-165v-33h65v-37h-66v-33h166v33h-66v37h66v33zM267 584h-100v-104h166v34h-66v70zM233 550v-36h-33v36h33zM333 453h-166v-33h66v-37h-66v-33h100v70h66v33zM333 393h-33v-66h-133v-34h166v100zM333 271h-100v-56h34v23h33v-47
h-100v80h-33v-113h166v113zM333 98h-166v-113h166v113zM300 65v-47h-100v47h100zM333 -38h-166v-33h70l-70 -47v-33h166v33h-102l70 47h32v33z" />
    <glyph glyph-name=".null" 
 />
    <glyph glyph-name="nonmarkingreturn" horiz-adv-x="333" 
 />
    <glyph glyph-name="space" unicode=" " horiz-adv-x="247" 
 />
    <glyph glyph-name="exclam" unicode="!" horiz-adv-x="253" 
d="M78 193l40 327l24 170h91l-24 -170l-51 -327h-80zM90 -7q-27 0 -42.5 18t-11.5 44q4 27 24.5 45t46.5 18q27 0 42.5 -18t11.5 -45q-4 -26 -24 -44t-47 -18z" />
    <glyph glyph-name="quotedbl" unicode="&#x22;" horiz-adv-x="402" 
d="M95 449l28 241h85l-39 -241h-74zM288 449l28 241h85l-38 -241h-75z" />
    <glyph glyph-name="numbersign" unicode="#" horiz-adv-x="760" 
d="M742 427h-140l-71 -164h135l-11 -75h-157l-82 -188h-80l82 188h-196l-82 -188h-80l81 188h-116l10 75h139l71 164h-133l9 75h157l81 188h81l-82 -188h196l82 188h81l-82 -188h117zM450 263l72 164h-196l-72 -164h196z" />
    <glyph glyph-name="dollar" unicode="$" horiz-adv-x="533" 
d="M509 503h-93q6 39 -13.5 68t-56.5 38l-31 -220q183 -50 161 -203q-10 -74 -71.5 -127.5t-145.5 -61.5l-9 -66h-57l9 65q-82 9 -128.5 65.5t-35.5 134.5h94q-7 -43 16 -75t66 -41l33 232q-175 51 -153 199q10 72 68 123t139 60l9 66h57l-9 -67q77 -9 119.5 -62t31.5 -128z
M188 514q-9 -70 72 -107l29 204q-39 -8 -67.5 -34.5t-33.5 -62.5zM382 181q10 74 -81 113l-30 -215q44 8 75 36.5t36 65.5z" />
    <glyph glyph-name="percent" unicode="%" horiz-adv-x="836" 
d="M228 382q-70 0 -110 46t-30 114t62.5 114t122.5 46q69 0 108.5 -46t30.5 -114q-10 -68 -62.5 -114t-121.5 -46zM86 0l597 690h93l-597 -690h-93zM237 452q38 0 67 26t35 64q5 38 -16.5 64t-59.5 26t-67.5 -26t-34.5 -64q-6 -38 16 -64t60 -26zM588 -12q-69 0 -109 46
t-30 114t62.5 114t122.5 46q69 0 109 -46t30 -114t-63 -114t-122 -46zM598 58q38 0 67.5 26t34.5 64t-16.5 64t-59.5 26t-67.5 -26t-34.5 -64t16.5 -64t59.5 -26z" />
    <glyph glyph-name="ampersand" unicode="&#x26;" horiz-adv-x="619" 
d="M586 0h-105l-46 83q-72 -95 -198 -95q-105 0 -162.5 61.5t-44.5 159.5q11 80 66.5 139t144.5 85l-102 183l10 74h369l-11 -80h-262l209 -375q2 8 2 10l27 190h82l-27 -190q-7 -49 -36 -95zM251 69q91 0 154 68l-130 234q-66 -19 -108.5 -61.5t-49.5 -98.5
q-9 -62 29.5 -102t104.5 -40z" />
    <glyph glyph-name="quotesingle" unicode="'" horiz-adv-x="209" 
d="M95 449l28 241h85l-39 -241h-74z" />
    <glyph glyph-name="parenleft" unicode="(" horiz-adv-x="320" 
d="M155 -190q-52 85 -73 214t-2 256q18 128 75 256.5t133 213.5h87q-74 -85 -130 -213.5t-74 -256.5q-19 -128 1 -256.5t70 -213.5h-87z" />
    <glyph glyph-name="parenright" unicode=")" horiz-adv-x="320" 
d="M-48 -190q74 85 130 213.5t75 256.5q18 128 -2 256.5t-70 213.5h87q52 -85 73 -213.5t3 -256.5q-19 -128 -76 -256.5t-133 -213.5h-87z" />
    <glyph glyph-name="asterisk" unicode="*" horiz-adv-x="377" 
d="M282 570l19 -9l71 -43l-35 -47l-71 43l-15 14v-22l-12 -87h-55l12 87l6 22l-19 -14l-83 -43l-21 47l83 44l22 8l-20 8l-70 43l34 48l71 -44l16 -14l-1 22l12 87h55l-12 -87l-6 -22l19 14l83 44l21 -48l-83 -44z" />
    <glyph glyph-name="plus" unicode="+" horiz-adv-x="534" 
d="M482 334l-11 -78h-165l-23 -165h-79l23 165h-163l11 78h164l23 165h79l-23 -165h164z" />
    <glyph glyph-name="comma" unicode="," horiz-adv-x="240" 
d="M-36 -145l104 249h102l-131 -249h-75z" />
    <glyph glyph-name="hyphen" unicode="-" horiz-adv-x="408" 
d="M60 232l12 83h281l-12 -83h-281z" />
    <glyph glyph-name="period" unicode="." horiz-adv-x="235" 
d="M81 -7q-28 0 -44 18.5t-12 45.5t25 45.5t49 18.5q27 0 43 -18.5t12 -45.5t-25 -45.5t-48 -18.5z" />
    <glyph glyph-name="slash" unicode="/" horiz-adv-x="510" 
d="M-46 -150l527 900h87l-527 -900h-87z" />
    <glyph glyph-name="zero" unicode="0" horiz-adv-x="643" 
d="M284 -12q-118 0 -177.5 99.5t-37.5 257.5t110 257.5t206 99.5q117 0 177 -99.5t38 -257.5t-110.5 -257.5t-205.5 -99.5zM297 76q75 0 133.5 75t75.5 194q16 119 -21 194t-113 75q-75 0 -134 -75t-75 -194q-17 -119 20.5 -194t113.5 -75z" />
    <glyph glyph-name="one" unicode="1" horiz-adv-x="442" 
d="M267 86h139l-12 -86h-384l12 86h154l70 496l-163 -67l13 97l192 78h64z" />
    <glyph glyph-name="two" unicode="2" horiz-adv-x="528" 
d="M501 498q-8 -53 -37 -96.5t-79 -92.5l-230 -223h296l-12 -86h-424l10 73l287 280q87 85 95 145q7 49 -20.5 81t-74.5 32q-48 0 -84.5 -32t-43.5 -81h-94q12 87 79 145.5t155 58.5t138.5 -58.5t38.5 -145.5z" />
    <glyph glyph-name="three" unicode="3" horiz-adv-x="518" 
d="M491 512q-7 -50 -37.5 -91t-75.5 -63q44 -23 66 -68t15 -101q-12 -85 -81 -143t-159 -58t-142 57.5t-40 143.5h94q-7 -48 22 -80.5t79 -32.5t87.5 32.5t45.5 80.5q8 54 -21.5 89t-82.5 35h-80l12 87h80q47 0 82 31.5t42 80.5q6 44 -19.5 73t-70.5 29q-44 0 -78 -29.5
t-40 -72.5h-94q11 81 75.5 135.5t149.5 54.5t133.5 -54.5t37.5 -135.5z" />
    <glyph glyph-name="four" unicode="4" horiz-adv-x="563" 
d="M533 241l-12 -86h-90l-22 -155h-91l22 155h-320l8 68l379 467h99l-63 -449h90zM136 241h216l45 326z" />
    <glyph glyph-name="five" unicode="5" horiz-adv-x="560" 
d="M525 604h-285l-47 -210q54 44 132 44q94 0 148.5 -64t41.5 -161t-88.5 -161t-173.5 -64t-154.5 64t-42.5 161h94q-8 -58 25 -97.5t91 -39.5t102.5 39t52.5 98t-25.5 98t-91.5 39q-34 0 -71 -17t-57 -43h-95l88 400h368z" />
    <glyph glyph-name="six" unicode="6" horiz-adv-x="541" 
d="M307 438q95 0 149.5 -64.5t41.5 -160.5t-88.5 -160.5t-173.5 -64.5t-155 64.5t-44 160.5q12 77 64 143l271 334h111l-207 -255q15 3 31 3zM404 213q8 58 -25.5 97.5t-91.5 39.5t-103 -39t-53 -98q-8 -58 25.5 -97.5t92.5 -39.5q58 0 102.5 39.5t52.5 97.5z" />
    <glyph glyph-name="seven" unicode="7" horiz-adv-x="526" 
d="M106 690h450l-10 -71l-378 -619h-103l369 604h-340z" />
    <glyph glyph-name="eight" unicode="8" horiz-adv-x="536" 
d="M509 516q-7 -51 -38.5 -92.5t-78.5 -65.5q47 -25 70 -70t15 -101q-12 -85 -82.5 -142t-164.5 -57t-148 57t-42 142q8 56 43.5 101t88.5 70q-40 24 -59 66t-12 92q11 79 77 132.5t153 53.5t138 -53.5t40 -132.5zM413 507q7 46 -20.5 76.5t-74.5 30.5q-46 0 -81.5 -30.5
t-42.5 -76.5t20 -77t74 -31t83 31t42 77zM384 195q7 51 -24 85t-84 34t-93 -34t-48 -85q-7 -51 24 -85t84 -34t93 34t48 85z" />
    <glyph glyph-name="nine" unicode="9" horiz-adv-x="546" 
d="M335 702q98 0 155 -64.5t44 -160.5q-10 -73 -64 -143l-266 -334h-108l204 255q-18 -3 -36 -3q-95 0 -149.5 64.5t-41.5 160.5t88.5 160.5t173.5 64.5zM440 477q8 59 -25.5 98t-91.5 39t-103 -39t-53 -98q-8 -58 25.5 -97.5t91.5 -39.5t103 39t53 98z" />
    <glyph glyph-name="colon" unicode=":" horiz-adv-x="245" 
d="M136 347q-28 0 -44 18.5t-12 45.5t25 45.5t49 18.5q27 0 43 -18.5t12 -45.5t-25 -45.5t-48 -18.5zM86 -7q-28 0 -44 18.5t-12 45.5t25 45.5t49 18.5q27 0 43 -18.5t12 -45.5t-25 -45.5t-48 -18.5z" />
    <glyph glyph-name="semicolon" unicode=";" horiz-adv-x="258" 
d="M150 347q-28 0 -44 18.5t-11 45.5q4 27 24.5 45.5t48.5 18.5t43.5 -18.5t11.5 -45.5t-24.5 -45.5t-48.5 -18.5zM-37 -145l104 249h102l-131 -249h-75z" />
    <glyph glyph-name="less" unicode="&#x3c;" horiz-adv-x="464" 
d="M436 505l-12 -86l-271 -123l236 -123l-12 -86l-313 170l11 78z" />
    <glyph glyph-name="equal" unicode="=" horiz-adv-x="534" 
d="M76 344l11 78h407l-10 -78h-408zM51 170l11 77h408l-11 -77h-408z" />
    <glyph glyph-name="greater" unicode="&#x3e;" horiz-adv-x="464" 
d="M99 505l313 -170l-11 -78l-361 -170l12 86l270 123l-235 123z" />
    <glyph glyph-name="question" unicode="?" horiz-adv-x="475" 
d="M178 197l4 32q6 38 25 70t37 49t48 40q24 19 38.5 33.5t28 36.5t16.5 46q7 47 -19.5 78.5t-73.5 31.5t-82.5 -31.5t-42.5 -78.5h-93q12 85 78 141.5t153 56.5q86 0 136 -56.5t38 -141.5q-5 -38 -24.5 -71t-37.5 -50.5t-48 -40.5q-26 -20 -40.5 -33t-28.5 -34.5t-17 -45.5
l-4 -32h-91zM195 -7q-27 0 -42.5 18t-11.5 44q4 27 24.5 45t47.5 18q26 0 41.5 -18t12.5 -45q-4 -26 -24.5 -44t-47.5 -18z" />
    <glyph glyph-name="at" unicode="@" horiz-adv-x="845" 
d="M478 636q156 0 247 -99.5t70 -248.5q-12 -89 -59 -144t-116 -55q-41 0 -70 17.5t-38 47.5q-53 -67 -138 -67q-76 0 -118.5 52t-31.5 130t68 130.5t129 52.5q79 0 115 -60l7 48h81l-33 -239q-2 -21 8.5 -34t30.5 -13q32 0 57.5 38t33.5 97q16 118 -56.5 197t-196.5 79
q-128 0 -224.5 -84t-113.5 -211q-18 -127 55 -211.5t200 -84.5q112 0 195 60h113q-63 -61 -146.5 -96t-172.5 -35q-158 0 -249.5 105t-69.5 262q23 156 143.5 261t279.5 105zM399 165q42 0 75 26t43 66l4 25q1 40 -25 66t-68 26q-45 0 -79.5 -29.5t-40.5 -74.5
q-6 -46 20 -75.5t71 -29.5z" />
    <glyph glyph-name="A" unicode="A" horiz-adv-x="713" 
d="M555 0l-43 167h-339l-90 -167h-98l378 690h109l184 -690h-101zM219 252h271l-87 339z" />
    <glyph glyph-name="B" unicode="B" horiz-adv-x="562" 
d="M528 517q-7 -49 -38 -90.5t-72 -60.5q56 -14 85.5 -64t19.5 -116q-11 -80 -73 -133t-143 -53h-262l97 690h233q75 0 119 -49t34 -124zM432 502q6 45 -19.5 75t-70.5 30h-123l-29 -210h122q43 0 78 30t42 75zM431 201q7 50 -21.5 83.5t-78.5 33.5h-152l-33 -235h152
q50 0 88 34t45 84z" />
    <glyph glyph-name="C" unicode="C" horiz-adv-x="798" 
d="M368 -12q-154 0 -243 102.5t-67 254.5q21 152 139 254.5t272 102.5q129 0 214.5 -74.5t98.5 -192.5h-98q-15 80 -76.5 129.5t-150.5 49.5q-114 0 -201.5 -77t-103.5 -192t49.5 -192t179.5 -77q90 0 165 49t113 130h98q-46 -118 -153 -192.5t-236 -74.5z" />
    <glyph glyph-name="D" unicode="D" horiz-adv-x="741" 
d="M408 690q150 0 236 -98.5t66 -246.5q-21 -148 -135 -246.5t-264 -98.5h-266l97 690h266zM616 345q15 111 -48 185t-173 74h-173l-73 -518h173q110 0 193.5 74t100.5 185z" />
    <glyph glyph-name="E" unicode="E" horiz-adv-x="513" 
d="M512 604h-290l-30 -214h258l-13 -86h-257l-31 -218h295l-12 -86h-387l97 690h382z" />
    <glyph glyph-name="F" unicode="F" horiz-adv-x="485" 
d="M497 604h-275l-31 -220h234l-12 -86h-234l-42 -298h-92l97 690h367z" />
    <glyph glyph-name="G" unicode="G" horiz-adv-x="825" 
d="M435 367h344l-52 -367h-80l19 138q-49 -71 -126 -110.5t-172 -39.5q-154 0 -243 102.5t-67 254.5q21 152 139 254.5t272 102.5q123 0 206.5 -66.5t99.5 -172.5h-101q-20 69 -78 110t-139 41q-114 0 -201.5 -77t-103.5 -192t49.5 -192t179.5 -77q99 0 179 58t110 150h-247
z" />
    <glyph glyph-name="H" unicode="H" horiz-adv-x="730" 
d="M618 690h92l-97 -690h-92l43 304h-384l-43 -304h-92l97 690h92l-42 -300h384z" />
    <glyph glyph-name="I" unicode="I" horiz-adv-x="353" 
d="M364 604h-92l-74 -518h93l-12 -86h-277l12 86h92l74 518h-93l12 86h277z" />
    <glyph glyph-name="J" unicode="J" horiz-adv-x="468" 
d="M357 690h91l-97 -690h-357l12 86h266z" />
    <glyph glyph-name="K" unicode="K" horiz-adv-x="618" 
d="M666 690l-327 -340l237 -350h-115l-206 304h-75l-43 -304h-92l97 690h92l-42 -300h75l287 300h112z" />
    <glyph glyph-name="L" unicode="L" horiz-adv-x="468" 
d="M149 86h265l-12 -86h-357l97 690h92z" />
    <glyph glyph-name="M" unicode="M" horiz-adv-x="896" 
d="M757 690h118l-97 -690h-91l76 539l-318 -539h-67l-165 539l-76 -539h-92l97 690h121l169 -553z" />
    <glyph glyph-name="N" unicode="N" horiz-adv-x="739" 
d="M627 690h91l-97 -690h-94l-315 538l-75 -538h-92l97 690h95l315 -538z" />
    <glyph glyph-name="O" unicode="O" horiz-adv-x="812" 
d="M368 -12q-154 0 -243 102.5t-67 254.5q21 152 139 254.5t272 102.5t243 -102.5t68 -254.5q-22 -152 -140 -254.5t-272 -102.5zM381 76q114 0 201 77t104 192q16 115 -49.5 192t-179.5 77t-201.5 -77t-103.5 -192t49.5 -192t179.5 -77z" />
    <glyph glyph-name="P" unicode="P" horiz-adv-x="562" 
d="M370 690q95 0 149.5 -62t41.5 -155q-13 -92 -85 -154t-167 -62h-136l-36 -257h-92l97 690h228zM467 473q8 56 -23.5 93.5t-86.5 37.5h-135l-37 -261h135q55 0 97.5 37t49.5 93z" />
    <glyph glyph-name="Q" unicode="Q" horiz-adv-x="812" 
d="M469 702q154 0 243 -102.5t68 -254.5q-20 -141 -123 -240t-243 -114l-14 -99h233l-12 -82h-324l25 181q-134 16 -209 115t-55 239q21 152 139 254.5t272 102.5zM686 345q16 115 -49.5 192t-179.5 77t-201.5 -77t-103.5 -192t49.5 -192t179.5 -77t201 77t104 192z" />
    <glyph glyph-name="R" unicode="R" horiz-adv-x="565" 
d="M552 480q-11 -77 -66 -132.5t-131 -69.5l143 -278h-111l-137 274h-74l-39 -274h-92l97 690h224q92 0 145.5 -60t40.5 -150zM458 479q7 54 -23 89.5t-83 35.5h-130l-35 -250h130q53 0 93.5 35.5t47.5 89.5z" />
    <glyph glyph-name="S" unicode="S" horiz-adv-x="532" 
d="M228 -12q-95 0 -151 59.5t-44 147.5h94q-7 -53 26 -89t89 -36q55 0 96 31.5t47 78.5q7 48 -27.5 80t-104.5 50q-185 47 -163 202q10 81 79 135.5t160 54.5t144 -56.5t41 -141.5h-94q7 49 -22.5 82.5t-80.5 33.5q-50 0 -88.5 -30t-44.5 -74q-13 -89 123 -125
q195 -50 173 -205q-11 -85 -83.5 -141.5t-168.5 -56.5z" />
    <glyph glyph-name="T" unicode="T" horiz-adv-x="546" 
d="M578 690l-12 -86h-198l-85 -604h-92l85 604h-198l12 86h488z" />
    <glyph glyph-name="U" unicode="U" horiz-adv-x="693" 
d="M308 -12q-119 0 -188 79t-53 197l60 426h91l-59 -424q-12 -81 34.5 -135.5t127.5 -54.5t143 54.5t74 135.5l59 424h91l-60 -426q-16 -118 -108 -197t-212 -79z" />
    <glyph glyph-name="V" unicode="V" horiz-adv-x="707" 
d="M647 690h100l-382 -690h-96l-187 690h102l151 -571z" />
    <glyph glyph-name="W" unicode="W" horiz-adv-x="1124" 
d="M1061 690h99l-345 -690h-94l-117 558l-273 -558h-94l-151 690h101l116 -570l279 570h84l120 -570z" />
    <glyph glyph-name="X" unicode="X" horiz-adv-x="714" 
d="M746 690l-313 -344l220 -346h-114l-178 285l-260 -285h-112l317 347l-216 343h113l176 -283l254 283h113z" />
    <glyph glyph-name="Y" unicode="Y" horiz-adv-x="677" 
d="M625 690h102l-343 -435l-36 -255h-91l36 255l-221 435h104l176 -345z" />
    <glyph glyph-name="Z" unicode="Z" horiz-adv-x="614" 
d="M627 690l-9 -66l-475 -538h406l-12 -86h-532l10 66l474 538h-395l12 86h521z" />
    <glyph glyph-name="bracketleft" unicode="[" horiz-adv-x="332" 
d="M360 669h-127l-110 -778h128l-12 -81h-216l133 940h216z" />
    <glyph glyph-name="backslash" unicode="\" horiz-adv-x="510" 
d="M354 -150l-273 900h87l273 -900h-87z" />
    <glyph glyph-name="bracketright" unicode="]" horiz-adv-x="332" 
d="M100 750h216l-133 -940h-216l12 81h127l110 778h-128z" />
    <glyph glyph-name="asciicircum" unicode="^" horiz-adv-x="413" 
d="M398 449h-79l-61 170l-109 -170h-80l158 241h81z" />
    <glyph glyph-name="underscore" unicode="_" horiz-adv-x="518" 
d="M-19 -153l10 73h441l-10 -73h-441z" />
    <glyph glyph-name="grave" unicode="`" horiz-adv-x="214" 
d="M168 577l-105 129h111l86 -129h-92z" />
    <glyph glyph-name="a" unicode="a" horiz-adv-x="538" 
d="M432 78h69l-12 -78h-144l9 66q-63 -78 -172 -78q-79 0 -124.5 48.5t-34.5 121.5q10 72 69 120.5t138 48.5h152l15 100h-303l12 83h388zM204 66q60 0 102 25t52 67l13 91h-141q-45 0 -79 -26t-39 -65q-6 -40 20.5 -66t71.5 -26z" />
    <glyph glyph-name="b" unicode="b" horiz-adv-x="654" 
d="M395 522q109 0 171.5 -76.5t46.5 -190.5t-100 -190.5t-194 -76.5q-64 0 -111 29t-71 81l-14 -98h-86l101 720h86l-43 -308q84 110 214 110zM524 255q11 79 -33.5 131.5t-123.5 52.5q-78 0 -138 -52.5t-70 -131.5q-11 -79 33.5 -131.5t122.5 -52.5q79 0 138.5 52.5
t70.5 131.5z" />
    <glyph glyph-name="c" unicode="c" horiz-adv-x="612" 
d="M274 -12q-116 0 -183 76.5t-51 190.5t105 190.5t205 76.5q97 0 161.5 -56.5t72.5 -145.5h-92q-11 53 -52.5 86t-101.5 33q-79 0 -139 -52.5t-70 -131.5q-11 -79 33.5 -131.5t123.5 -52.5q60 0 110.5 33t78.5 86h91q-33 -89 -114 -145.5t-178 -56.5z" />
    <glyph glyph-name="d" unicode="d" horiz-adv-x="654" 
d="M560 720h86l-101 -720h-86l14 97q-85 -109 -214 -109q-109 0 -171 76.5t-46 190.5t100 190.5t193 76.5q63 0 110 -29t72 -80zM287 71q75 0 133.5 49t72.5 124l3 21q8 75 -36.5 124.5t-120.5 49.5q-79 0 -138.5 -52.5t-70.5 -131.5t33.5 -131.5t123.5 -52.5z" />
    <glyph glyph-name="e" unicode="e" horiz-adv-x="619" 
d="M349 522q116 0 182.5 -76.5t50.5 -190.5q-2 -19 -7 -36h-448q2 -68 45 -110t112 -42q57 0 105.5 26.5t75.5 69.5h94q-40 -79 -117 -127t-169 -48q-115 0 -182 76.5t-51 190.5t104.5 190.5t204.5 76.5zM338 443q-68 0 -123 -41t-76 -106h357q-3 66 -46.5 106.5
t-111.5 40.5z" />
    <glyph glyph-name="f" unicode="f" horiz-adv-x="373" 
d="M409 641h-142l-19 -131h143l-11 -78h-143l-60 -432h-86l61 432h-93l11 78h93l29 210h228z" />
    <glyph glyph-name="g" unicode="g" horiz-adv-x="655" 
d="M532 510h86l-99 -700h-490l12 79h404l31 218q-85 -109 -215 -109q-109 0 -171.5 74.5t-46.5 187.5q16 112 99.5 187t192.5 75q63 0 111 -29t73 -80zM288 76q79 0 138.5 52.5t70.5 131.5q11 78 -34 130.5t-123 52.5t-138 -52.5t-70 -130.5q-11 -79 33 -131.5t123 -52.5z
" />
    <glyph glyph-name="h" unicode="h" horiz-adv-x="616" 
d="M381 522q93 0 142 -56.5t36 -150.5l-45 -315h-86l41 288q10 68 -25 109.5t-102 41.5q-66 0 -113.5 -36.5t-62.5 -97.5l-43 -305h-86l101 720h86l-41 -295q75 97 198 97z" />
    <glyph glyph-name="i" unicode="i" horiz-adv-x="231" 
d="M166 612q-25 0 -39 16.5t-11 40.5q4 25 22.5 41t43.5 16t39 -16t10 -41q-3 -24 -22 -40.5t-43 -16.5zM37 0l72 510h86l-72 -510h-86z" />
    <glyph glyph-name="j" unicode="j" horiz-adv-x="237" 
d="M188 726q24 0 38 -16t11 -41q-4 -24 -22.5 -40.5t-43.5 -16.5q-24 0 -38 16.5t-11 40.5q3 25 22 41t44 16zM25 -123l89 633h86l-100 -712h-184l11 79h98z" />
    <glyph glyph-name="k" unicode="k" horiz-adv-x="517" 
d="M532 510l-237 -253l172 -257h-106l-141 217h-67l-30 -217h-86l101 720h86l-59 -423h67l196 213h104z" />
    <glyph glyph-name="l" unicode="l" horiz-adv-x="269" 
d="M133 79h96l-12 -79h-180l101 720h86z" />
    <glyph glyph-name="m" unicode="m" horiz-adv-x="940" 
d="M722 522q86 0 131 -52.5t32 -140.5l-46 -329h-86l43 305q8 61 -22.5 97.5t-90.5 36.5t-103.5 -34.5t-54.5 -91.5l-44 -313h-86l43 305q8 61 -22.5 97.5t-90.5 36.5q-59 0 -101.5 -32.5t-55.5 -87.5l-45 -319h-86l72 510h86l-10 -74q68 86 179 86q61 0 103 -28t56 -78
q70 106 199 106z" />
    <glyph glyph-name="n" unicode="n" horiz-adv-x="616" 
d="M381 522q93 0 142 -56.5t36 -150.5l-45 -315h-86l41 288q10 68 -25 109.5t-102 41.5q-65 0 -112.5 -36t-63.5 -96l-43 -307h-86l72 510h86l-12 -82q75 94 198 94z" />
    <glyph glyph-name="o" unicode="o" horiz-adv-x="623" 
d="M274 -12q-116 0 -183 76.5t-51 190.5t105 190.5t205 76.5q115 0 182 -76.5t51 -190.5t-104.5 -190.5t-204.5 -76.5zM286 71q78 0 138 52.5t70 131.5q11 79 -33.5 131.5t-122.5 52.5q-79 0 -139 -52.5t-70 -131.5q-11 -79 33.5 -131.5t123.5 -52.5z" />
    <glyph glyph-name="p" unicode="p" horiz-adv-x="654" 
d="M395 522q109 0 171.5 -76.5t46.5 -190.5t-100 -190.5t-194 -76.5q-64 0 -111 29t-71 81l-41 -288h-86l99 700h86l-14 -97q85 109 214 109zM524 255q11 79 -33.5 131.5t-123.5 52.5q-78 0 -138 -52.5t-70 -131.5q-11 -79 33.5 -131.5t122.5 -52.5q79 0 138.5 52.5
t70.5 131.5z" />
    <glyph glyph-name="q" unicode="q" horiz-adv-x="654" 
d="M531 510h86l-99 -700h-86l41 287q-85 -109 -214 -109q-109 0 -171 76.5t-46 190.5t100 190.5t193 76.5q63 0 110.5 -29t71.5 -80zM287 71q77 0 135.5 50.5t71.5 126.5l2 12q9 77 -35.5 128t-121.5 51q-79 0 -138.5 -52.5t-70.5 -131.5t33.5 -131.5t123.5 -52.5z" />
    <glyph glyph-name="r" unicode="r" horiz-adv-x="355" 
d="M182 418q73 100 181 100l-12 -89q-72 0 -122 -40t-67 -110l-39 -279h-86l72 510h86z" />
    <glyph glyph-name="s" unicode="s" horiz-adv-x="422" 
d="M173 -12q-74 0 -116.5 45.5t-32.5 111.5h88q-5 -33 16.5 -56t56.5 -23q34 0 60.5 19.5t30.5 48.5q4 33 -18 54t-70 33q-141 39 -125 154q9 66 62.5 106.5t123.5 40.5t111 -44t32 -107h-88q4 30 -15.5 51.5t-52.5 21.5q-31 0 -55.5 -19t-28.5 -45q-4 -31 19 -52t69 -33
q143 -39 127 -153q-10 -69 -65 -111.5t-129 -42.5z" />
    <glyph glyph-name="t" unicode="t" horiz-adv-x="397" 
d="M384 432h-142l-50 -353h143l-11 -79h-229l61 432h-99l11 78h99l21 150h86l-21 -150h143z" />
    <glyph glyph-name="u" unicode="u" horiz-adv-x="600" 
d="M477 510h86l-72 -510h-86l11 80q-72 -92 -189 -92q-89 0 -136 55t-34 146l45 321h86l-42 -296q-9 -65 23.5 -104t96.5 -39q63 0 108.5 36t58.5 95z" />
    <glyph glyph-name="v" unicode="v" horiz-adv-x="568" 
d="M493 510h96l-296 -510h-90l-152 510h98l115 -408z" />
    <glyph glyph-name="w" unicode="w" horiz-adv-x="903" 
d="M826 510h95l-266 -510h-90l-91 412l-207 -412h-90l-122 510h97l86 -408l207 408h89l91 -407z" />
    <glyph glyph-name="x" unicode="x" horiz-adv-x="568" 
d="M573 510l-230 -254l161 -256h-106l-123 198l-178 -198h-105l233 256l-158 254h105l121 -197l175 197h105z" />
    <glyph glyph-name="y" unicode="y" horiz-adv-x="568" 
d="M493 510h96l-406 -700h-163l12 79h103l67 113l-151 508h98l115 -408z" />
    <glyph glyph-name="z" unicode="z" horiz-adv-x="500" 
d="M485 510l-10 -62l-335 -365h291l-11 -83h-412l10 62l334 365h-280l12 83h401z" />
    <glyph glyph-name="braceleft" unicode="{" horiz-adv-x="401" 
d="M349 750h92l-11 -81h-61q-27 0 -47.5 -18.5t-24.5 -46.5l-35 -248q-4 -25 -21 -45.5t-43 -29.5q49 -21 43 -76l-35 -249q-4 -28 11 -46.5t42 -18.5h61l-12 -81h-92q-53 0 -81.5 34t-21.5 87l36 253q4 25 -9 40.5t-37 15.5h-39l11 81h39q24 0 41.5 15.5t20.5 40.5l36 252
q7 53 45.5 87t91.5 34z" />
    <glyph glyph-name="bar" unicode="|" horiz-adv-x="282" 
d="M38 -190l133 940h79l-133 -940h-79z" />
    <glyph glyph-name="braceright" unicode="}" horiz-adv-x="401" 
d="M305 321h39l-11 -81h-39q-23 0 -40.5 -15.5t-21.5 -40.5l-35 -253q-7 -53 -46 -87t-92 -34h-92l12 81h60q28 0 48 18.5t24 46.5l36 249q3 25 20.5 45.5t43.5 30.5q-23 9 -35 29.5t-8 45.5l35 248q4 28 -11 46.5t-43 18.5h-61l12 81h92q53 0 81.5 -34t21.5 -87l-36 -252
q-3 -25 10 -40.5t36 -15.5z" />
    <glyph glyph-name="asciitilde" unicode="~" horiz-adv-x="553" 
d="M360 222q-26 0 -49 11t-36.5 23.5t-31.5 23.5t-35 11q-26 0 -45.5 -17.5t-23.5 -43.5h-79q9 65 47 105.5t99 40.5q26 0 49 -11t36.5 -23.5t31.5 -23.5t35 -11q26 0 45.5 17.5t23.5 43.5h79q-9 -65 -47 -105.5t-99 -40.5z" />
    <glyph glyph-name="exclamdown" unicode="&#xa1;" horiz-adv-x="253" 
d="M146 392q-27 0 -42.5 18t-11.5 45q4 26 24.5 44t46.5 18q27 0 42.5 -18t11.5 -44q-3 -27 -23.5 -45t-47.5 -18zM20 -180l24 170l52 327h80l-41 -327l-24 -170h-91z" />
    <glyph glyph-name="cent" unicode="&#xa2;" horiz-adv-x="637" 
d="M339 163q55 9 99.5 45.5t64.5 89.5h91q-27 -89 -100 -149t-167 -70l-11 -79h-57l11 78q-106 9 -165.5 83.5t-43.5 182.5q15 108 95 183t189 84l11 79h57l-11 -80q91 -10 147 -69.5t59 -148.5h-91q-6 53 -40 89.5t-87 45.5zM151 344q-10 -71 26.5 -122t104.5 -59l51 364
q-70 -9 -121 -60t-61 -123z" />
    <glyph glyph-name="sterling" unicode="&#xa3;" horiz-adv-x="579" 
d="M567 497h-92q7 50 -22 83.5t-79 33.5t-88.5 -33.5t-45.5 -83.5l-19 -132h213l-11 -79h-213l-28 -200h336l-12 -86h-493l12 86h65l28 200h-65l11 79h65l19 132q12 88 80.5 146.5t157.5 58.5t140.5 -58.5t40.5 -146.5z" />
    <glyph glyph-name="currency" unicode="&#xa4;" horiz-adv-x="536" 
d="M472 345q-9 -58 -47 -104l53 -62l-60 -53l-55 64q-50 -28 -107 -28q-58 0 -100 28l-73 -64l-47 53l72 63q-25 47 -16 103q7 56 46 105l-54 63l60 53l57 -64q49 27 106 27q56 0 99 -27l74 64l45 -54l-71 -62q25 -46 18 -105zM166 345q-7 -49 21.5 -82t77.5 -33
q50 0 87.5 33t44.5 82q7 50 -21.5 83.5t-77.5 33.5q-50 0 -87.5 -33.5t-44.5 -83.5z" />
    <glyph glyph-name="yen" unicode="&#xa5;" horiz-adv-x="641" 
d="M678 690l-270 -376h106l-10 -70h-140l-8 -58h140l-10 -71h-140l-16 -115h-91l16 115h-139l11 71h138l8 58h-138l9 70h105l-164 376h103l147 -344l243 344h100z" />
    <glyph glyph-name="brokenbar" unicode="&#xa6;" horiz-adv-x="282" 
d="M113 340l58 410h79l-58 -410h-79zM38 -190l58 410h79l-58 -410h-79z" />
    <glyph glyph-name="section" unicode="&#xa7;" horiz-adv-x="507" 
d="M471 548h-85q5 37 -18 62.5t-62 25.5q-38 0 -67 -22.5t-34 -55.5q-5 -35 20.5 -58.5t80.5 -36.5q156 -36 139 -156q-12 -85 -99 -126q71 -43 61 -125q-9 -69 -67 -110.5t-135 -41.5q-78 0 -123.5 45t-36.5 112h85q-5 -39 19 -65t66 -26q40 0 71 23.5t35 57.5
q9 68 -105 97q-152 37 -136 157q6 41 31.5 74t64.5 51q-69 44 -57 123q9 67 66 108t131 41q76 0 120.5 -44.5t34.5 -109.5zM269 394q-39 -2 -68.5 -25t-33.5 -57q-10 -69 85 -94q41 1 71 24.5t35 57.5q10 70 -89 94z" />
    <glyph glyph-name="dieresis" unicode="&#xa8;" horiz-adv-x="314" 
d="M99 582q-23 0 -36 15.5t-10 37.5t21 37.5t41 15.5q22 0 35 -15t10 -38t-20.5 -38t-40.5 -15zM306 582q-23 0 -36 15.5t-10 37.5t20.5 37.5t40.5 15.5t36 -15.5t10 -37.5t-20.5 -37.5t-40.5 -15.5z" />
    <glyph glyph-name="copyright" unicode="&#xa9;" horiz-adv-x="824" 
d="M374 -12q-152 0 -240 102.5t-66 254.5q21 152 138 254.5t269 102.5t240 -102.5t67 -254.5q-22 -152 -139 -254.5t-269 -102.5zM383 48q125 0 221.5 85t114.5 212t-55 212t-198 85t-221.5 -85t-114.5 -212t55 -212t198 -85zM398 146q-85 0 -134 57t-37 142t77 142t150 57
q75 0 123 -44t50 -113h-70q-5 40 -35.5 65t-76.5 25q-56 0 -98.5 -38t-50.5 -94t24 -94t87 -38q46 0 83.5 25t54.5 65h71q-22 -69 -82.5 -113t-135.5 -44z" />
    <glyph glyph-name="ordfeminine" unicode="&#xaa;" horiz-adv-x="384" 
d="M339 691h64l-38 -272h-64l6 44q-45 -52 -107 -52q-58 0 -91 41.5t-25 102.5q9 62 53.5 103t102.5 41q62 0 93 -52zM223 469q36 0 64 24.5t33 61.5v1q5 36 -16 60.5t-57 24.5t-64 -24.5t-33 -61.5t16 -61.5t57 -24.5z" />
    <glyph glyph-name="guillemotleft" unicode="&#xab;" horiz-adv-x="603" 
d="M340 467l-194 -203l138 -203h-102l-138 203l195 203h101zM586 467l-194 -203l137 -203h-102l-138 203l195 203h102z" />
    <glyph glyph-name="registered" unicode="&#xae;" horiz-adv-x="447" 
d="M287 702q77 0 121.5 -52t33.5 -130q-11 -77 -70 -129t-137 -52q-77 0 -122 52t-34 129q11 78 70.5 130t137.5 52zM406 520q9 63 -26.5 105.5t-97.5 42.5t-109.5 -42.5t-57.5 -105.5q-8 -63 28 -105t98 -42t109 42t56 105zM286 623q25 0 40 -17t11 -43q-5 -41 -44 -56
l32 -75h-38l-28 71h-19l-10 -71h-33l27 191h62zM305 563q2 13 -5.5 22t-20.5 9h-26l-9 -61h27q13 0 23 8.5t11 21.5z" />
    <glyph glyph-name="macron" unicode="&#xaf;" horiz-adv-x="237" 
d="M48 592l10 73h237l-10 -73h-237z" />
    <glyph glyph-name="degree" unicode="&#xb0;" horiz-adv-x="387" 
d="M215 412q-62 0 -98 41.5t-28 104.5q9 62 57 103t111 41q62 0 98 -41t28 -103q-9 -63 -57 -104.5t-111 -41.5zM225 481q33 0 57.5 22t29.5 55q5 32 -14 54t-51 22q-33 0 -57.5 -22t-29.5 -54q-4 -33 14.5 -55t50.5 -22z" />
    <glyph glyph-name="plusminus" unicode="&#xb1;" horiz-adv-x="534" 
d="M327 401h165l-11 -77h-165l-17 -124h-80l18 124h-164l11 77h163l18 124h79zM35 56l11 78h408l-11 -78h-408z" />
    <glyph glyph-name="uni00B2" unicode="&#xb2;" horiz-adv-x="339" 
d="M357 659q-7 -54 -69 -111l-134 -122h175l-9 -60h-272l7 50l180 163q51 49 55 80q4 29 -12 48t-44 19t-49.5 -19t-25.5 -48h-67q7 55 51 91.5t101 36.5q56 0 88.5 -36.5t24.5 -91.5z" />
    <glyph glyph-name="uni00B3" unicode="&#xb3;" horiz-adv-x="330" 
d="M351 671q-7 -59 -63 -90q53 -30 45 -97q-8 -52 -52 -88.5t-102 -36.5t-92 36.5t-27 91.5h68q-4 -28 13 -47.5t47 -19.5t52.5 19t26.5 48q5 29 -12.5 49t-47.5 20h-57l7 48h57q26 0 46 18.5t24 45.5q4 25 -11.5 42t-41.5 17t-46 -16.5t-25 -42.5h-67q8 51 49.5 85t96.5 34
t87 -34t25 -82z" />
    <glyph glyph-name="acute" unicode="&#xb4;" horiz-adv-x="214" 
d="M45 577l122 129h111l-141 -129h-92z" />
    <glyph glyph-name="paragraph" unicode="&#xb6;" horiz-adv-x="602" 
d="M587 690l-124 -880h-74l114 806h-84l-114 -806h-75l67 473h-57q-87 0 -137 58.5t-38 144.5q12 87 79 145.5t153 58.5h290z" />
    <glyph glyph-name="periodcentered" unicode="&#xb7;" horiz-adv-x="255" 
d="M122 210q-28 0 -44 18.5t-12 45.5t25 45.5t49 18.5q27 0 43 -18.5t12 -45.5t-25 -45.5t-48 -18.5z" />
    <glyph glyph-name="cedilla" unicode="&#xb8;" horiz-adv-x="206" 
d="M74 -34q39 0 61.5 -27.5t16.5 -67.5q-5 -41 -39 -69t-78 -28q-43 0 -69 28t-20 69h54q-3 -20 9.5 -34t32.5 -14q21 0 37 14t19 34q4 21 -8.5 35t-33.5 14q-20 0 -36 -14l-46 22l65 72v2h62v-2l-33 -34h6z" />
    <glyph glyph-name="uni00B9" unicode="&#xb9;" horiz-adv-x="302" 
d="M217 426h80l-8 -60h-235l9 60h88l39 277l-94 -41l10 69l114 49h46z" />
    <glyph glyph-name="ordmasculine" unicode="&#xba;" horiz-adv-x="386" 
d="M215 411q-64 0 -101.5 41t-29.5 103q9 62 58 103t113 41t102 -41.5t29 -102.5q-8 -61 -57.5 -102.5t-113.5 -41.5zM223 469q36 0 64.5 24.5t32.5 61.5q5 37 -16 61.5t-57 24.5t-64 -24.5t-33 -61.5t16 -61.5t57 -24.5z" />
    <glyph glyph-name="guillemotright" unicode="&#xbb;" horiz-adv-x="603" 
d="M181 467l138 -203l-195 -203h-101l194 203l-138 203h102zM426 467l138 -203l-194 -203h-102l195 203l-138 203h101z" />
    <glyph glyph-name="onequarter" unicode="&#xbc;" horiz-adv-x="831" 
d="M285 336l-8 -60h-235l9 60h88l39 277l-94 -41l10 69l114 49h46l-49 -354h80zM705 690h81l-580 -690h-81zM795 148l-8 -60h-53l-12 -88h-66l12 88h-195l7 48l220 278h80l-37 -266h52zM553 148h124l26 192z" />
    <glyph glyph-name="onehalf" unicode="&#xbd;" horiz-adv-x="878" 
d="M285 336l-8 -60h-235l9 60h88l39 277l-94 -41l10 69l114 49h46l-49 -354h80zM705 690h81l-580 -690h-81zM845 293q-7 -54 -69 -111l-134 -122h175l-9 -60h-272l7 50l180 163q51 49 55 80q4 29 -12 48t-44 19t-49.5 -19t-25.5 -48h-67q7 55 51 91.5t101 36.5
q56 0 88.5 -36.5t24.5 -91.5z" />
    <glyph glyph-name="threequarters" unicode="&#xbe;" horiz-adv-x="819" 
d="M321 394q-8 -52 -52 -88.5t-102 -36.5t-92 36.5t-27 91.5h68q-4 -28 13 -47.5t47 -19.5t52.5 19t26.5 48q5 29 -12.5 49t-47.5 20h-57l7 48h57q26 0 46 18.5t24 45.5q4 25 -11.5 42t-41.5 17t-46 -16.5t-25 -42.5h-67q8 51 49.5 85t96.5 34t87 -34t25 -82q-7 -59 -63 -90
q53 -30 45 -97zM693 690h81l-580 -690h-81zM783 148l-8 -60h-53l-12 -88h-66l12 88h-195l7 48l220 278h80l-37 -266h52zM541 148h124l26 192z" />
    <glyph glyph-name="questiondown" unicode="&#xbf;" horiz-adv-x="460" 
d="M260 392q-27 0 -42.5 18t-11.5 45q4 26 24 44t47 18t42.5 -18t11.5 -44q-4 -27 -24.5 -45t-46.5 -18zM177 -192q-86 0 -136 56.5t-38 141.5q5 38 24.5 71t37.5 50.5t48 40.5q26 20 40.5 33t28.5 34.5t17 45.5l5 32h90l-4 -32q-6 -38 -25 -70t-37 -49t-48 -40
q-37 -29 -57.5 -55t-25.5 -61q-7 -47 19.5 -78.5t73.5 -31.5t82.5 31.5t42.5 78.5h93q-12 -85 -78 -141.5t-153 -56.5z" />
    <glyph glyph-name="Agrave" unicode="&#xc0;" horiz-adv-x="713" 
d="M479 757h-92l-105 129h111zM555 0l-43 167h-339l-90 -167h-98l378 690h109l184 -690h-101zM219 252h271l-87 339z" />
    <glyph glyph-name="Aacute" unicode="&#xc1;" horiz-adv-x="713" 
d="M606 886l-141 -129h-92l122 129h111zM555 0l-43 167h-339l-90 -167h-98l378 690h109l184 -690h-101zM219 252h271l-87 339z" />
    <glyph glyph-name="Acircumflex" unicode="&#xc2;" horiz-adv-x="713" 
d="M438 840l-83 -83h-82l119 129h105l82 -129h-82zM555 0l-43 167h-339l-90 -167h-98l378 690h109l184 -690h-101zM219 252h271l-87 339z" />
    <glyph glyph-name="Atilde" unicode="&#xc3;" horiz-adv-x="713" 
d="M377 818q-21 0 -37 -14.5t-19 -35.5h-62q7 52 39 85t79 33q32 0 65 -27t53 -27q21 0 37 14t19 36h62q-7 -52 -39 -85.5t-78 -33.5q-33 0 -66 27.5t-53 27.5zM555 0l-43 167h-339l-90 -167h-98l378 690h109l184 -690h-101zM219 252h271l-87 339z" />
    <glyph glyph-name="Adieresis" unicode="&#xc4;" horiz-adv-x="713" 
d="M323 762q-23 0 -36 15.5t-10 37.5t21 37.5t41 15.5q22 0 35 -15t10 -38t-20.5 -38t-40.5 -15zM530 762q-23 0 -36 15.5t-10 37.5t20.5 37.5t40.5 15.5t36 -15.5t10 -37.5t-20.5 -37.5t-40.5 -15.5zM555 0l-43 167h-339l-90 -167h-98l378 690h109l184 -690h-101zM219 252
h271l-87 339z" />
    <glyph glyph-name="Aring" unicode="&#xc5;" horiz-adv-x="713" 
d="M424 743q-37 0 -58.5 24.5t-16.5 61.5q5 36 33.5 60.5t65.5 24.5t59 -24.5t17 -60.5q-5 -37 -34 -61.5t-66 -24.5zM397 829q-2 -18 7.5 -29.5t26.5 -11.5t30 11.5t15 29.5q2 17 -7.5 28.5t-26.5 11.5t-30 -11.5t-15 -28.5zM555 0l-43 167h-339l-90 -167h-98l378 690h109
l184 -690h-101zM219 252h271l-87 339z" />
    <glyph glyph-name="AE" unicode="&#xc6;" horiz-adv-x="872" 
d="M871 604h-291l-30 -214h258l-12 -86h-258l-31 -218h296l-12 -86h-387l23 166h-259l-124 -166h-105l516 690h428zM230 250h209l49 346z" />
    <glyph glyph-name="Ccedilla" unicode="&#xc7;" horiz-adv-x="798" 
d="M381 76q90 0 165 49t113 130h98q-44 -111 -141.5 -184t-218.5 -82l-23 -24h6q39 0 61.5 -27.5t16.5 -67.5q-5 -41 -39 -69t-78 -28q-43 0 -69 28t-20 69h54q-3 -20 9.5 -34t32.5 -14q21 0 37 14t19 34q4 21 -8.5 35t-33.5 14q-20 0 -36 -14l-46 22l56 62
q-141 11 -219.5 111.5t-58.5 244.5q21 152 139 254.5t272 102.5q129 0 214.5 -74.5t98.5 -192.5h-98q-15 80 -76.5 129.5t-150.5 49.5q-114 0 -201.5 -77t-103.5 -192t49.5 -192t179.5 -77z" />
    <glyph glyph-name="Egrave" unicode="&#xc8;" horiz-adv-x="513" 
d="M395 757h-92l-105 129h111zM512 604h-290l-30 -214h258l-13 -86h-257l-31 -218h295l-12 -86h-387l97 690h382z" />
    <glyph glyph-name="Eacute" unicode="&#xc9;" horiz-adv-x="513" 
d="M522 886l-141 -129h-92l122 129h111zM512 604h-290l-30 -214h258l-13 -86h-257l-31 -218h295l-12 -86h-387l97 690h382z" />
    <glyph glyph-name="Ecircumflex" unicode="&#xca;" horiz-adv-x="513" 
d="M354 840l-83 -83h-82l119 129h105l82 -129h-82zM512 604h-290l-30 -214h258l-13 -86h-257l-31 -218h295l-12 -86h-387l97 690h382z" />
    <glyph glyph-name="Edieresis" unicode="&#xcb;" horiz-adv-x="513" 
d="M239 762q-23 0 -36 15.5t-10 37.5t21 37.5t41 15.5q22 0 35 -15t10 -38t-20.5 -38t-40.5 -15zM446 762q-23 0 -36 15.5t-10 37.5t20.5 37.5t40.5 15.5t36 -15.5t10 -37.5t-20.5 -37.5t-40.5 -15.5zM512 604h-290l-30 -214h258l-13 -86h-257l-31 -218h295l-12 -86h-387
l97 690h382z" />
    <glyph glyph-name="Igrave" unicode="&#xcc;" horiz-adv-x="353" 
d="M300 757h-92l-105 129h111zM364 604h-92l-74 -518h93l-12 -86h-277l12 86h92l74 518h-93l12 86h277z" />
    <glyph glyph-name="Iacute" unicode="&#xcd;" horiz-adv-x="353" 
d="M427 886l-141 -129h-92l122 129h111zM87 604l12 86h277l-12 -86h-92l-74 -518h93l-12 -86h-277l12 86h92l74 518h-93z" />
    <glyph glyph-name="Icircumflex" unicode="&#xce;" horiz-adv-x="353" 
d="M259 840l-83 -83h-82l119 129h105l82 -129h-82zM87 604l12 86h277l-12 -86h-92l-74 -518h93l-12 -86h-277l12 86h92l74 518h-93z" />
    <glyph glyph-name="Idieresis" unicode="&#xcf;" horiz-adv-x="353" 
d="M144 762q-23 0 -36 15.5t-10 37.5t21 37.5t41 15.5q22 0 35 -15t10 -38t-20.5 -38t-40.5 -15zM366 868q23 0 36 -15.5t10 -37.5t-20.5 -37.5t-40.5 -15.5t-36 15.5t-10 37.5t20.5 37.5t40.5 15.5zM87 604l12 86h277l-12 -86h-92l-74 -518h93l-12 -86h-277l12 86h92
l74 518h-93z" />
    <glyph glyph-name="Eth" unicode="&#xd0;" horiz-adv-x="741" 
d="M408 690q150 0 236 -98.5t66 -246.5q-21 -148 -135 -246.5t-264 -98.5h-266l44 314h-69l8 63h70l44 313h266zM616 345q15 111 -48 185t-173 74h-173l-32 -227h128l-8 -63h-129l-32 -228h173q110 0 193.5 74t100.5 185z" />
    <glyph glyph-name="Ntilde" unicode="&#xd1;" horiz-adv-x="739" 
d="M392 818q-21 0 -37 -14.5t-19 -35.5h-62q7 52 39 85t79 33q32 0 65 -27t53 -27q21 0 37 14t19 36h62q-7 -52 -39 -85.5t-78 -33.5q-33 0 -66 27.5t-53 27.5zM627 690h91l-97 -690h-94l-315 538l-75 -538h-92l97 690h95l315 -538z" />
    <glyph glyph-name="Ograve" unicode="&#xd2;" horiz-adv-x="812" 
d="M438 757l-105 129h111l86 -129h-92zM368 -12q-154 0 -243 102.5t-67 254.5q21 152 139 254.5t272 102.5t243 -102.5t68 -254.5q-22 -152 -140 -254.5t-272 -102.5zM381 76q114 0 201 77t104 192q16 115 -49.5 192t-179.5 77t-201.5 -77t-103.5 -192t49.5 -192t179.5 -77z
" />
    <glyph glyph-name="Oacute" unicode="&#xd3;" horiz-adv-x="812" 
d="M423 757l122 129h111l-141 -129h-92zM368 -12q-154 0 -243 102.5t-67 254.5q21 152 139 254.5t272 102.5t243 -102.5t68 -254.5q-22 -152 -140 -254.5t-272 -102.5zM381 76q114 0 201 77t104 192q16 115 -49.5 192t-179.5 77t-201.5 -77t-103.5 -192t49.5 -192t179.5 -77
z" />
    <glyph glyph-name="Ocircumflex" unicode="&#xd4;" horiz-adv-x="812" 
d="M488 840l-83 -83h-82l119 129h105l82 -129h-82zM469 702q154 0 243 -102.5t68 -254.5q-22 -152 -140 -254.5t-272 -102.5t-243 102.5t-67 254.5q21 152 139 254.5t272 102.5zM686 345q16 115 -49.5 192t-179.5 77t-201.5 -77t-103.5 -192t49.5 -192t179.5 -77t201 77
t104 192z" />
    <glyph glyph-name="Otilde" unicode="&#xd5;" horiz-adv-x="812" 
d="M546 763q-33 0 -66 27.5t-53 27.5q-21 0 -37 -14.5t-19 -35.5h-62q7 52 39 85t79 33q32 0 65 -27t53 -27q21 0 37 14t19 36h62q-7 -52 -39 -85.5t-78 -33.5zM368 -12q-154 0 -243 102.5t-67 254.5q21 152 139 254.5t272 102.5t243 -102.5t68 -254.5q-22 -152 -140 -254.5
t-272 -102.5zM381 76q114 0 201 77t104 192q16 115 -49.5 192t-179.5 77t-201.5 -77t-103.5 -192t49.5 -192t179.5 -77z" />
    <glyph glyph-name="Odieresis" unicode="&#xd6;" horiz-adv-x="812" 
d="M373 762q-23 0 -36 15.5t-10 37.5t21 37.5t41 15.5q22 0 35 -15t10 -38t-20.5 -38t-40.5 -15zM580 762q-23 0 -36 15.5t-10 37.5t20.5 37.5t40.5 15.5t36 -15.5t10 -37.5t-20.5 -37.5t-40.5 -15.5zM368 -12q-154 0 -243 102.5t-67 254.5q21 152 139 254.5t272 102.5
t243 -102.5t68 -254.5q-22 -152 -140 -254.5t-272 -102.5zM381 76q114 0 201 77t104 192q16 115 -49.5 192t-179.5 77t-201.5 -77t-103.5 -192t49.5 -192t179.5 -77z" />
    <glyph glyph-name="multiply" unicode="&#xd7;" horiz-adv-x="472" 
d="M430 411l-132 -116l100 -116l-65 -56l-99 116l-132 -116l-49 56l132 116l-100 116l65 56l99 -115l132 115z" />
    <glyph glyph-name="Oslash" unicode="&#xd8;" horiz-adv-x="812" 
d="M809 690l-95 -93q87 -103 66 -252q-22 -152 -140 -254.5t-272 -102.5q-122 0 -205 67l-56 -55h-79l95 93q-86 102 -65 252q21 152 139 254.5t272 102.5q121 0 206 -66l55 54h79zM152 345q-15 -108 42 -182l411 404q-61 47 -148 47q-114 0 -201.5 -77t-103.5 -192z
M686 345q15 107 -42 183l-411 -405q60 -47 148 -47q114 0 201 77t104 192z" />
    <glyph glyph-name="Ugrave" unicode="&#xd9;" horiz-adv-x="693" 
d="M378 757l-105 129h111l86 -129h-92zM308 -12q-119 0 -188 79t-53 197l60 426h91l-59 -424q-12 -81 34.5 -135.5t127.5 -54.5t143 54.5t74 135.5l59 424h91l-60 -426q-16 -118 -108 -197t-212 -79z" />
    <glyph glyph-name="Uacute" unicode="&#xda;" horiz-adv-x="693" 
d="M363 757l122 129h111l-141 -129h-92zM308 -12q-119 0 -188 79t-53 197l60 426h91l-59 -424q-12 -81 34.5 -135.5t127.5 -54.5t143 54.5t74 135.5l59 424h91l-60 -426q-16 -118 -108 -197t-212 -79z" />
    <glyph glyph-name="Ucircumflex" unicode="&#xdb;" horiz-adv-x="693" 
d="M429 840l-83 -83h-82l119 129h105l82 -129h-82zM597 690h91l-60 -426q-16 -118 -108 -197t-212 -79q-119 0 -188 79t-53 197l60 426h91l-59 -424q-12 -81 34.5 -135.5t127.5 -54.5t143 54.5t74 135.5z" />
    <glyph glyph-name="Udieresis" unicode="&#xdc;" horiz-adv-x="693" 
d="M314 762q-23 0 -36 15.5t-10 37.5t21 37.5t41 15.5q22 0 35 -15t10 -38t-20.5 -38t-40.5 -15zM521 762q-23 0 -36 15.5t-10 37.5t20.5 37.5t40.5 15.5t36 -15.5t10 -37.5t-20.5 -37.5t-40.5 -15.5zM308 -12q-119 0 -188 79t-53 197l60 426h91l-59 -424
q-12 -81 34.5 -135.5t127.5 -54.5t143 54.5t74 135.5l59 424h91l-60 -426q-16 -118 -108 -197t-212 -79z" />
    <glyph glyph-name="Yacute" unicode="&#xdd;" horiz-adv-x="677" 
d="M589 886l-141 -129h-92l122 129h111zM625 690h102l-343 -435l-36 -255h-91l36 255l-221 435h104l176 -345z" />
    <glyph glyph-name="Thorn" unicode="&#xde;" horiz-adv-x="559" 
d="M352 563q95 0 149.5 -62t41.5 -155q-13 -92 -85 -154.5t-166 -62.5h-137l-18 -129h-92l97 690h92l-18 -127h136zM449 346q8 56 -23.5 93.5t-86.5 37.5h-135l-37 -262h135q55 0 97 37.5t50 93.5z" />
    <glyph glyph-name="germandbls" unicode="&#xdf;" horiz-adv-x="531" 
d="M514 544q-8 -54 -41 -98t-81 -64q55 -18 83 -69t18 -119q-13 -88 -83.5 -147t-162.5 -59q-39 0 -68 12l12 84q26 -13 59 -13q59 0 103.5 38t51.5 95q9 58 -23 97.5t-88 39.5h-47l11 82h42q46 0 81.5 32.5t42.5 80.5q7 49 -21 81t-77 32q-50 0 -87 -32t-44 -81l-75 -536
h-86l76 543q11 81 76 135t151 54q87 0 137.5 -54.5t39.5 -133.5z" />
    <glyph glyph-name="agrave" unicode="&#xe0;" horiz-adv-x="538" 
d="M363 577h-92l-105 129h111zM432 78h69l-12 -78h-144l9 66q-63 -78 -172 -78q-79 0 -124.5 48.5t-34.5 121.5q10 72 69 120.5t138 48.5h152l15 100h-303l12 83h388zM204 66q60 0 102 25t52 67l13 91h-141q-45 0 -79 -26t-39 -65q-6 -40 20.5 -66t71.5 -26z" />
    <glyph glyph-name="aacute" unicode="&#xe1;" horiz-adv-x="538" 
d="M490 706l-141 -129h-92l122 129h111zM432 78h69l-12 -78h-144l9 66q-63 -78 -172 -78q-79 0 -124.5 48.5t-34.5 121.5q10 72 69 120.5t138 48.5h152l15 100h-303l12 83h388zM204 66q60 0 102 25t52 67l13 91h-141q-45 0 -79 -26t-39 -65q-6 -40 20.5 -66t71.5 -26z" />
    <glyph glyph-name="acircumflex" unicode="&#xe2;" horiz-adv-x="538" 
d="M322 660l-83 -83h-82l119 129h105l82 -129h-82zM432 78h69l-12 -78h-144l9 66q-63 -78 -172 -78q-79 0 -124.5 48.5t-34.5 121.5q10 72 69 120.5t138 48.5h152l15 100h-303l12 83h388zM204 66q60 0 102 25t52 67l13 91h-141q-45 0 -79 -26t-39 -65q-6 -40 20.5 -66
t71.5 -26z" />
    <glyph glyph-name="atilde" unicode="&#xe3;" horiz-adv-x="538" 
d="M260 638q-21 0 -37 -14.5t-19 -35.5h-62q7 52 39 85t79 33q32 0 65 -27t53 -27q21 0 37 14t19 36h62q-7 -52 -39 -85.5t-78 -33.5q-33 0 -66 27.5t-53 27.5zM432 78h69l-12 -78h-144l9 66q-63 -78 -172 -78q-79 0 -124.5 48.5t-34.5 121.5q10 72 69 120.5t138 48.5h152
l15 100h-303l12 83h388zM204 66q60 0 102 25t52 67l13 91h-141q-45 0 -79 -26t-39 -65q-6 -40 20.5 -66t71.5 -26z" />
    <glyph glyph-name="adieresis" unicode="&#xe4;" horiz-adv-x="538" 
d="M207 582q-23 0 -36 15.5t-10 37.5t21 37.5t41 15.5q22 0 35 -15t10 -38t-20.5 -38t-40.5 -15zM414 582q-23 0 -36 15.5t-10 37.5t20.5 37.5t40.5 15.5t36 -15.5t10 -37.5t-20.5 -37.5t-40.5 -15.5zM432 78h69l-12 -78h-144l9 66q-63 -78 -172 -78q-79 0 -124.5 48.5
t-34.5 121.5q10 72 69 120.5t138 48.5h152l15 100h-303l12 83h388zM204 66q60 0 102 25t52 67l13 91h-141q-45 0 -79 -26t-39 -65q-6 -40 20.5 -66t71.5 -26z" />
    <glyph glyph-name="aring" unicode="&#xe5;" horiz-adv-x="538" 
d="M307 563q-37 0 -58.5 24.5t-16.5 61.5q5 36 33.5 60.5t65.5 24.5t59 -24.5t17 -60.5q-5 -37 -34 -61.5t-66 -24.5zM280 649q-2 -18 7.5 -29.5t26.5 -11.5t30 11.5t15 29.5q2 17 -7.5 28.5t-26.5 11.5t-30 -11.5t-15 -28.5zM432 78h69l-12 -78h-144l9 66q-63 -78 -172 -78
q-79 0 -124.5 48.5t-34.5 121.5q10 72 69 120.5t138 48.5h152l15 100h-303l12 83h388zM204 66q60 0 102 25t52 67l13 91h-141q-45 0 -79 -26t-39 -65q-6 -40 20.5 -66t71.5 -26z" />
    <glyph glyph-name="ae" unicode="&#xe6;" horiz-adv-x="949" 
d="M679 522q116 0 182.5 -76.5t50.5 -187.5q-4 -25 -8 -39h-448q2 -68 45.5 -110t112.5 -42q57 0 105.5 26.5t74.5 69.5h95q-40 -79 -117 -127t-169 -48q-132 0 -196 97q-31 -43 -89 -70t-129 -27q-87 0 -132.5 43.5t-35.5 111.5q9 66 61.5 109.5t123.5 43.5h173l18 131
h-303l12 83h383l-9 -61q88 73 199 73zM667 443q-67 0 -122 -41t-77 -106h358q-2 65 -46.5 106t-112.5 41zM206 66q55 0 103 22.5t70 59.5q-9 33 -9 71h-165q-37 0 -64.5 -21.5t-31.5 -54.5q-5 -34 20 -55.5t77 -21.5z" />
    <glyph glyph-name="ccedilla" unicode="&#xe7;" horiz-adv-x="612" 
d="M286 71q60 0 110.5 33t78.5 86h91q-31 -82 -102.5 -137t-159.5 -64l-24 -24h6q39 0 61.5 -27.5t16.5 -67.5q-5 -41 -39 -69t-78 -28q-43 0 -69 28t-20 69h54q-3 -20 9.5 -34t32.5 -14q21 0 37 14t19 34q4 21 -8.5 35t-33.5 14q-20 0 -36 -14l-46 22l57 63
q-103 11 -160.5 85.5t-42.5 179.5q16 114 105 190.5t205 76.5q97 0 161.5 -56.5t72.5 -145.5h-92q-11 53 -52.5 86t-101.5 33q-79 0 -139 -52.5t-70 -131.5q-11 -79 33.5 -131.5t123.5 -52.5z" />
    <glyph glyph-name="egrave" unicode="&#xe8;" horiz-adv-x="619" 
d="M410 577h-92l-105 129h111zM349 522q116 0 182.5 -76.5t50.5 -190.5q-2 -19 -7 -36h-448q2 -68 45 -110t112 -42q57 0 105.5 26.5t75.5 69.5h94q-40 -79 -117 -127t-169 -48q-115 0 -182 76.5t-51 190.5t104.5 190.5t204.5 76.5zM338 443q-68 0 -123 -41t-76 -106h357
q-3 66 -46.5 106.5t-111.5 40.5z" />
    <glyph glyph-name="eacute" unicode="&#xe9;" horiz-adv-x="619" 
d="M536 706l-141 -129h-92l122 129h111zM349 522q116 0 182.5 -76.5t50.5 -190.5q-2 -19 -7 -36h-448q2 -68 45 -110t112 -42q57 0 105.5 26.5t75.5 69.5h94q-40 -79 -117 -127t-169 -48q-115 0 -182 76.5t-51 190.5t104.5 190.5t204.5 76.5zM338 443q-68 0 -123 -41
t-76 -106h357q-3 66 -46.5 106.5t-111.5 40.5z" />
    <glyph glyph-name="ecircumflex" unicode="&#xea;" horiz-adv-x="619" 
d="M368 660l-83 -83h-82l119 129h105l82 -129h-82zM349 522q116 0 182.5 -76.5t50.5 -190.5q-2 -19 -7 -36h-448q2 -68 45 -110t112 -42q57 0 105.5 26.5t75.5 69.5h94q-40 -79 -117 -127t-169 -48q-115 0 -182 76.5t-51 190.5t104.5 190.5t204.5 76.5zM338 443
q-68 0 -123 -41t-76 -106h357q-3 66 -46.5 106.5t-111.5 40.5z" />
    <glyph glyph-name="edieresis" unicode="&#xeb;" horiz-adv-x="619" 
d="M253 582q-23 0 -36 15.5t-10 37.5t21 37.5t41 15.5q22 0 35 -15t10 -38t-20.5 -38t-40.5 -15zM460 582q-23 0 -36 15.5t-10 37.5t20.5 37.5t40.5 15.5t36 -15.5t10 -37.5t-20.5 -37.5t-40.5 -15.5zM349 522q116 0 182.5 -76.5t50.5 -190.5q-2 -19 -7 -36h-448
q2 -68 45 -110t112 -42q57 0 105.5 26.5t75.5 69.5h94q-40 -79 -117 -127t-169 -48q-115 0 -182 76.5t-51 190.5t104.5 190.5t204.5 76.5zM338 443q-68 0 -123 -41t-76 -106h357q-3 66 -46.5 106.5t-111.5 40.5z" />
    <glyph glyph-name="igrave" unicode="&#xec;" horiz-adv-x="231" 
d="M122 577l-105 129h111l86 -129h-92zM37 0l72 510h86l-72 -510h-86z" />
    <glyph glyph-name="iacute" unicode="&#xed;" horiz-adv-x="231" 
d="M108 577l122 129h111l-141 -129h-92zM37 0l72 510h86l-72 -510h-86z" />
    <glyph glyph-name="icircumflex" unicode="&#xee;" horiz-adv-x="231" 
d="M232 706l82 -129h-82l-59 83l-83 -83h-82l119 129h105zM37 0l72 510h86l-72 -510h-86z" />
    <glyph glyph-name="idieresis" unicode="&#xef;" horiz-adv-x="231" 
d="M58 582q-23 0 -36 15.5t-10 37.5t21 37.5t41 15.5q22 0 35 -15t10 -38t-20.5 -38t-40.5 -15zM265 582q-23 0 -36 15.5t-10 37.5t20.5 37.5t40.5 15.5t36 -15.5t10 -37.5t-20.5 -37.5t-40.5 -15.5zM37 0l72 510h86l-72 -510h-86z" />
    <glyph glyph-name="eth" unicode="&#xf0;" horiz-adv-x="605" 
d="M399 656q95 -64 139 -171t27 -226q-17 -122 -102 -196.5t-198 -74.5q-114 0 -178.5 74t-48.5 185q15 110 97.5 184t188.5 74q87 0 144 -57q-42 96 -136 150l-53 -46h-69l78 67q-40 17 -91 25l11 81q84 -11 150 -45l52 45h68zM474 246q10 75 -32.5 125t-116.5 50
t-131.5 -50t-67.5 -125q-11 -74 32 -124.5t118 -50.5q74 0 130.5 50.5t67.5 124.5z" />
    <glyph glyph-name="ntilde" unicode="&#xf1;" horiz-adv-x="616" 
d="M307 638q-21 0 -37 -14.5t-19 -35.5h-62q7 52 39 85t79 33q32 0 65 -27t53 -27q21 0 37 14t19 36h62q-7 -52 -39 -85.5t-78 -33.5q-33 0 -66 27.5t-53 27.5zM381 522q93 0 142 -56.5t36 -150.5l-45 -315h-86l41 288q10 68 -25 109.5t-102 41.5q-65 0 -112.5 -36
t-63.5 -96l-43 -307h-86l72 510h86l-12 -82q75 94 198 94z" />
    <glyph glyph-name="ograve" unicode="&#xf2;" horiz-adv-x="623" 
d="M318 577l-105 129h111l86 -129h-92zM274 -12q-116 0 -183 76.5t-51 190.5t105 190.5t205 76.5q115 0 182 -76.5t51 -190.5t-104.5 -190.5t-204.5 -76.5zM286 71q78 0 138 52.5t70 131.5q11 79 -33.5 131.5t-122.5 52.5q-79 0 -139 -52.5t-70 -131.5q-11 -79 33.5 -131.5
t123.5 -52.5z" />
    <glyph glyph-name="oacute" unicode="&#xf3;" horiz-adv-x="623" 
d="M304 577l122 129h111l-141 -129h-92zM274 -12q-116 0 -183 76.5t-51 190.5t105 190.5t205 76.5q115 0 182 -76.5t51 -190.5t-104.5 -190.5t-204.5 -76.5zM286 71q78 0 138 52.5t70 131.5q11 79 -33.5 131.5t-122.5 52.5q-79 0 -139 -52.5t-70 -131.5q-11 -79 33.5 -131.5
t123.5 -52.5z" />
    <glyph glyph-name="ocircumflex" unicode="&#xf4;" horiz-adv-x="623" 
d="M369 660l-83 -83h-82l119 129h105l82 -129h-82zM350 522q115 0 182 -76.5t51 -190.5t-104.5 -190.5t-204.5 -76.5t-183 76.5t-51 190.5t105 190.5t205 76.5zM494 255q11 79 -33.5 131.5t-122.5 52.5q-79 0 -139 -52.5t-70 -131.5q-11 -79 33.5 -131.5t123.5 -52.5
q78 0 138 52.5t70 131.5z" />
    <glyph glyph-name="otilde" unicode="&#xf5;" horiz-adv-x="623" 
d="M426 583q-33 0 -66 27.5t-53 27.5q-21 0 -37 -14.5t-19 -35.5h-62q7 52 39 85t79 33q32 0 65 -27t53 -27q21 0 37 14t19 36h62q-7 -52 -39 -85.5t-78 -33.5zM274 -12q-116 0 -183 76.5t-51 190.5t105 190.5t205 76.5q115 0 182 -76.5t51 -190.5t-104.5 -190.5
t-204.5 -76.5zM286 71q78 0 138 52.5t70 131.5q11 79 -33.5 131.5t-122.5 52.5q-79 0 -139 -52.5t-70 -131.5q-11 -79 33.5 -131.5t123.5 -52.5z" />
    <glyph glyph-name="odieresis" unicode="&#xf6;" horiz-adv-x="623" 
d="M254 582q-23 0 -36 15.5t-10 37.5t21 37.5t41 15.5q22 0 35 -15t10 -38t-20.5 -38t-40.5 -15zM461 582q-23 0 -36 15.5t-10 37.5t20.5 37.5t40.5 15.5t36 -15.5t10 -37.5t-20.5 -37.5t-40.5 -15.5zM274 -12q-116 0 -183 76.5t-51 190.5t105 190.5t205 76.5
q115 0 182 -76.5t51 -190.5t-104.5 -190.5t-204.5 -76.5zM286 71q78 0 138 52.5t70 131.5q11 79 -33.5 131.5t-122.5 52.5q-79 0 -139 -52.5t-70 -131.5q-11 -79 33.5 -131.5t123.5 -52.5z" />
    <glyph glyph-name="divide" unicode="&#xf7;" horiz-adv-x="534" 
d="M288 406q-22 0 -34.5 14.5t-9.5 36.5t19.5 36.5t38.5 14.5t35 -14.5t10 -36.5t-20 -36.5t-39 -14.5zM64 260l10 71h408l-11 -71h-407zM243 83q-22 0 -35 14.5t-10 36.5t20 36.5t39 14.5t35 -14.5t10 -36.5t-20 -36.5t-39 -14.5z" />
    <glyph glyph-name="oslash" unicode="&#xf8;" horiz-adv-x="623" 
d="M608 510l-72 -69q62 -76 47 -186q-16 -114 -104.5 -190.5t-204.5 -76.5q-93 0 -155 50l-39 -38h-65l72 69q-62 76 -47 186q16 114 105 190.5t205 76.5q92 0 154 -50l39 38h65zM129 255q-9 -72 25 -120l284 273q-42 31 -100 31q-79 0 -139 -52.5t-70 -131.5zM494 255
q10 70 -25 121l-283 -274q40 -31 100 -31q78 0 138 52.5t70 131.5z" />
    <glyph glyph-name="ugrave" unicode="&#xf9;" horiz-adv-x="600" 
d="M395 577h-92l-105 129h111zM477 510h86l-72 -510h-86l11 80q-72 -92 -189 -92q-89 0 -136 55t-34 146l45 321h86l-42 -296q-9 -65 23.5 -104t96.5 -39q63 0 108.5 36t58.5 95z" />
    <glyph glyph-name="uacute" unicode="&#xfa;" horiz-adv-x="600" 
d="M522 706l-141 -129h-92l122 129h111zM477 510h86l-72 -510h-86l11 80q-72 -92 -189 -92q-89 0 -136 55t-34 146l45 321h86l-42 -296q-9 -65 23.5 -104t96.5 -39q63 0 108.5 36t58.5 95z" />
    <glyph glyph-name="ucircumflex" unicode="&#xfb;" horiz-adv-x="600" 
d="M354 660l-83 -83h-82l119 129h105l82 -129h-82zM477 510h86l-72 -510h-86l11 80q-72 -92 -189 -92q-89 0 -136 55t-34 146l45 321h86l-42 -296q-9 -65 23.5 -104t96.5 -39q63 0 108.5 36t58.5 95z" />
    <glyph glyph-name="udieresis" unicode="&#xfc;" horiz-adv-x="600" 
d="M239 582q-23 0 -36 15.5t-10 37.5t21 37.5t41 15.5q22 0 35 -15t10 -38t-20.5 -38t-40.5 -15zM446 582q-23 0 -36 15.5t-10 37.5t20.5 37.5t40.5 15.5t36 -15.5t10 -37.5t-20.5 -37.5t-40.5 -15.5zM477 510h86l-72 -510h-86l11 80q-72 -92 -189 -92q-89 0 -136 55
t-34 146l45 321h86l-42 -296q-9 -65 23.5 -104t96.5 -39q63 0 108.5 36t58.5 95z" />
    <glyph glyph-name="yacute" unicode="&#xfd;" horiz-adv-x="568" 
d="M511 706l-141 -129h-92l122 129h111zM493 510h96l-406 -700h-163l12 79h103l67 113l-151 508h98l115 -408z" />
    <glyph glyph-name="thorn" unicode="&#xfe;" horiz-adv-x="654" 
d="M395 522q109 0 171.5 -76.5t46.5 -190.5t-100 -190.5t-194 -76.5q-64 0 -111 29t-71 81l-41 -288h-86l128 910h86l-43 -308q83 110 214 110zM524 255q11 79 -33.5 131.5t-123.5 52.5q-78 0 -138 -52.5t-70 -131.5q-11 -79 33.5 -131.5t122.5 -52.5q79 0 138.5 52.5
t70.5 131.5z" />
    <glyph glyph-name="ydieresis" unicode="&#xff;" horiz-adv-x="568" 
d="M228 582q-23 0 -36 15.5t-10 37.5t21 37.5t41 15.5q22 0 35 -15t10 -38t-20.5 -38t-40.5 -15zM435 582q-23 0 -36 15.5t-10 37.5t20.5 37.5t40.5 15.5t36 -15.5t10 -37.5t-20.5 -37.5t-40.5 -15.5zM493 510h96l-406 -700h-163l12 79h103l67 113l-151 508h98l115 -408z
" />
    <glyph glyph-name="Amacron" unicode="&#x100;" horiz-adv-x="713" 
d="M557 845l-10 -73h-237l10 73h237zM555 0l-43 167h-339l-90 -167h-98l378 690h109l184 -690h-101zM219 252h271l-87 339z" />
    <glyph glyph-name="amacron" unicode="&#x101;" horiz-adv-x="538" 
d="M441 665l-10 -73h-237l10 73h237zM432 78h69l-12 -78h-144l9 66q-63 -78 -172 -78q-79 0 -124.5 48.5t-34.5 121.5q10 72 69 120.5t138 48.5h152l15 100h-303l12 83h388zM204 66q60 0 102 25t52 67l13 91h-141q-45 0 -79 -26t-39 -65q-6 -40 20.5 -66t71.5 -26z" />
    <glyph glyph-name="Abreve" unicode="&#x102;" horiz-adv-x="713" 
d="M425 747q-59 0 -93 38t-26 95h68q-4 -30 13 -50.5t46 -20.5q30 0 53 20.5t28 50.5h68q-8 -57 -53 -95t-104 -38zM555 0l-43 167h-339l-90 -167h-98l378 690h109l184 -690h-101zM219 252h271l-87 339z" />
    <glyph glyph-name="abreve" unicode="&#x103;" horiz-adv-x="538" 
d="M308 567q-59 0 -93 38t-26 95h68q-4 -30 13 -50.5t46 -20.5q30 0 53 20.5t28 50.5h68q-8 -57 -53 -95t-104 -38zM432 78h69l-12 -78h-144l9 66q-63 -78 -172 -78q-79 0 -124.5 48.5t-34.5 121.5q10 72 69 120.5t138 48.5h152l15 100h-303l12 83h388zM204 66q60 0 102 25
t52 67l13 91h-141q-45 0 -79 -26t-39 -65q-6 -40 20.5 -66t71.5 -26z" />
    <glyph glyph-name="Aogonek" unicode="&#x104;" horiz-adv-x="713" 
d="M655 0q-111 -46 -121 -108q-4 -23 10 -37.5t37 -14.5q35 0 66 23l-9 -64q-37 -22 -83 -22t-72.5 28t-20.5 69q7 40 39 73t80 53h-26l-43 167h-339l-90 -167h-98l378 690h109l184 -690h-1zM219 252h271l-87 339z" />
    <glyph glyph-name="aogonek" unicode="&#x105;" horiz-adv-x="538" 
d="M432 78h69l-12 -78h-2q-111 -46 -121 -108q-4 -23 10 -37.5t37 -14.5q35 0 66 23l-9 -64q-37 -22 -83 -22t-72.5 28t-20.5 69q7 40 39 73t80 53h-68l9 66q-63 -78 -172 -78q-79 0 -124.5 48.5t-34.5 121.5q10 72 69 120.5t138 48.5h152l15 100h-303l12 83h388zM204 66
q60 0 102 25t52 67l13 91h-141q-45 0 -79 -26t-39 -65q-6 -40 20.5 -66t71.5 -26z" />
    <glyph glyph-name="Cacute" unicode="&#x106;" horiz-adv-x="798" 
d="M423 757l122 129h111l-141 -129h-92zM368 -12q-154 0 -243 102.5t-67 254.5q21 152 139 254.5t272 102.5q129 0 214.5 -74.5t98.5 -192.5h-98q-15 80 -76.5 129.5t-150.5 49.5q-114 0 -201.5 -77t-103.5 -192t49.5 -192t179.5 -77q90 0 165 49t113 130h98
q-46 -118 -153 -192.5t-236 -74.5z" />
    <glyph glyph-name="cacute" unicode="&#x107;" horiz-adv-x="612" 
d="M304 577l122 129h111l-141 -129h-92zM274 -12q-116 0 -183 76.5t-51 190.5t105 190.5t205 76.5q97 0 161.5 -56.5t72.5 -145.5h-92q-11 53 -52.5 86t-101.5 33q-79 0 -139 -52.5t-70 -131.5q-11 -79 33.5 -131.5t123.5 -52.5q60 0 110.5 33t78.5 86h91
q-33 -89 -114 -145.5t-178 -56.5z" />
    <glyph glyph-name="Ccircumflex" unicode="&#x108;" horiz-adv-x="798" 
d="M488 840l-83 -83h-82l119 129h105l82 -129h-82zM381 76q90 0 165 49t113 130h98q-46 -118 -153 -192.5t-236 -74.5q-154 0 -243 102.5t-67 254.5q21 152 139 254.5t272 102.5q129 0 214.5 -74.5t98.5 -192.5h-98q-15 80 -76.5 129.5t-150.5 49.5q-114 0 -201.5 -77
t-103.5 -192t49.5 -192t179.5 -77z" />
    <glyph glyph-name="ccircumflex" unicode="&#x109;" horiz-adv-x="612" 
d="M369 660l-83 -83h-82l119 129h105l82 -129h-82zM286 71q60 0 110.5 33t78.5 86h91q-33 -89 -114 -145.5t-178 -56.5q-116 0 -183 76.5t-51 190.5t105 190.5t205 76.5q97 0 161.5 -56.5t72.5 -145.5h-92q-11 53 -52.5 86t-101.5 33q-79 0 -139 -52.5t-70 -131.5
q-11 -79 33.5 -131.5t123.5 -52.5z" />
    <glyph glyph-name="Cdotaccent" unicode="&#x10a;" horiz-adv-x="798" 
d="M478 762q-24 0 -38 16t-10 39q3 23 21.5 39t41.5 16q24 0 37.5 -16t10.5 -39q-4 -23 -22 -39t-41 -16zM368 -12q-154 0 -243 102.5t-67 254.5q21 152 139 254.5t272 102.5q129 0 214.5 -74.5t98.5 -192.5h-98q-15 80 -76.5 129.5t-150.5 49.5q-114 0 -201.5 -77
t-103.5 -192t49.5 -192t179.5 -77q90 0 165 49t113 130h98q-46 -118 -153 -192.5t-236 -74.5z" />
    <glyph glyph-name="cdotaccent" unicode="&#x10b;" horiz-adv-x="612" 
d="M358 582q-24 0 -38 16t-10 39q3 23 21.5 39t41.5 16q24 0 37.5 -16t10.5 -39q-4 -23 -22 -39t-41 -16zM274 -12q-116 0 -183 76.5t-51 190.5t105 190.5t205 76.5q97 0 161.5 -56.5t72.5 -145.5h-92q-11 53 -52.5 86t-101.5 33q-79 0 -139 -52.5t-70 -131.5
q-11 -79 33.5 -131.5t123.5 -52.5q60 0 110.5 33t78.5 86h91q-33 -89 -114 -145.5t-178 -56.5z" />
    <glyph glyph-name="Ccaron" unicode="&#x10c;" horiz-adv-x="798" 
d="M529 757h-105l-83 129h82l59 -83l83 83h82zM381 76q90 0 165 49t113 130h98q-46 -118 -153 -192.5t-236 -74.5q-154 0 -243 102.5t-67 254.5q21 152 139 254.5t272 102.5q129 0 214.5 -74.5t98.5 -192.5h-98q-15 80 -76.5 129.5t-150.5 49.5q-114 0 -201.5 -77
t-103.5 -192t49.5 -192t179.5 -77z" />
    <glyph glyph-name="ccaron" unicode="&#x10d;" horiz-adv-x="612" 
d="M410 577h-105l-83 129h82l59 -83l83 83h82zM286 71q60 0 110.5 33t78.5 86h91q-33 -89 -114 -145.5t-178 -56.5q-116 0 -183 76.5t-51 190.5t105 190.5t205 76.5q97 0 161.5 -56.5t72.5 -145.5h-92q-11 53 -52.5 86t-101.5 33q-79 0 -139 -52.5t-70 -131.5
q-11 -79 33.5 -131.5t123.5 -52.5z" />
    <glyph glyph-name="Dcaron" unicode="&#x10e;" horiz-adv-x="741" 
d="M485 757h-105l-83 129h82l59 -83l83 83h82zM408 690q150 0 236 -98.5t66 -246.5q-21 -148 -135 -246.5t-264 -98.5h-266l97 690h266zM616 345q15 111 -48 185t-173 74h-173l-73 -518h173q110 0 193.5 74t100.5 185z" />
    <glyph glyph-name="dcaron" unicode="&#x10f;" horiz-adv-x="744" 
d="M517 413l43 307h86l-101 -720h-86l14 97q-85 -109 -214 -109q-109 0 -171 76.5t-46 190.5t100 190.5t193 76.5q63 0 110 -29t72 -80zM731 720h80l-64 -201h-65zM287 71q75 0 133.5 49t72.5 124l3 21q8 75 -36.5 124.5t-120.5 49.5q-79 0 -138.5 -52.5t-70.5 -131.5
t33.5 -131.5t123.5 -52.5z" />
    <glyph glyph-name="Dcroat" unicode="&#x110;" horiz-adv-x="741" 
d="M408 690q150 0 236 -98.5t66 -246.5q-21 -148 -135 -246.5t-264 -98.5h-266l44 314h-69l8 63h70l44 313h266zM616 345q15 111 -48 185t-173 74h-173l-32 -227h128l-8 -63h-129l-32 -228h173q110 0 193.5 74t100.5 185z" />
    <glyph glyph-name="dcroat" unicode="&#x111;" horiz-adv-x="654" 
d="M708 640l-8 -63h-74l-81 -577h-86l14 97q-85 -109 -214 -109q-109 0 -171 76.5t-46 190.5t100 190.5t193 76.5q63 0 110 -29t72 -80l23 164h-130l8 63h131l11 80h86l-11 -80h73zM287 71q75 0 133.5 49t72.5 124l3 21q8 75 -36.5 124.5t-120.5 49.5q-79 0 -138.5 -52.5
t-70.5 -131.5t33.5 -131.5t123.5 -52.5z" />
    <glyph glyph-name="Emacron" unicode="&#x112;" horiz-adv-x="513" 
d="M473 845l-10 -73h-237l10 73h237zM512 604h-290l-30 -214h258l-13 -86h-257l-31 -218h295l-12 -86h-387l97 690h382z" />
    <glyph glyph-name="emacron" unicode="&#x113;" horiz-adv-x="619" 
d="M487 665l-10 -73h-237l10 73h237zM349 522q116 0 182.5 -76.5t50.5 -190.5q-2 -19 -7 -36h-448q2 -68 45 -110t112 -42q57 0 105.5 26.5t75.5 69.5h94q-40 -79 -117 -127t-169 -48q-115 0 -182 76.5t-51 190.5t104.5 190.5t204.5 76.5zM338 443q-68 0 -123 -41t-76 -106
h357q-3 66 -46.5 106.5t-111.5 40.5z" />
    <glyph glyph-name="Ebreve" unicode="&#x114;" horiz-adv-x="513" 
d="M341 747q-59 0 -93 38t-26 95h68q-4 -30 13 -50.5t46 -20.5q30 0 53 20.5t28 50.5h68q-8 -57 -53 -95t-104 -38zM512 604h-290l-30 -214h258l-13 -86h-257l-31 -218h295l-12 -86h-387l97 690h382z" />
    <glyph glyph-name="ebreve" unicode="&#x115;" horiz-adv-x="619" 
d="M355 567q-59 0 -93 38t-26 95h68q-4 -30 13 -50.5t46 -20.5q30 0 53 20.5t28 50.5h68q-8 -57 -53 -95t-104 -38zM349 522q116 0 182.5 -76.5t50.5 -190.5q-2 -19 -7 -36h-448q2 -68 45 -110t112 -42q57 0 105.5 26.5t75.5 69.5h94q-40 -79 -117 -127t-169 -48
q-115 0 -182 76.5t-51 190.5t104.5 190.5t204.5 76.5zM338 443q-68 0 -123 -41t-76 -106h357q-3 66 -46.5 106.5t-111.5 40.5z" />
    <glyph glyph-name="Edotaccent" unicode="&#x116;" horiz-adv-x="513" 
d="M343 762q-24 0 -38 16t-10 39q3 23 21.5 39t41.5 16q24 0 37.5 -16t10.5 -39q-4 -23 -22 -39t-41 -16zM512 604h-290l-30 -214h258l-13 -86h-257l-31 -218h295l-12 -86h-387l97 690h382z" />
    <glyph glyph-name="edotaccent" unicode="&#x117;" horiz-adv-x="619" 
d="M358 582q-24 0 -38 16t-10 39q3 23 21.5 39t41.5 16q24 0 37.5 -16t10.5 -39q-4 -23 -22 -39t-41 -16zM349 522q116 0 182.5 -76.5t50.5 -190.5q-2 -19 -7 -36h-448q2 -68 45 -110t112 -42q57 0 105.5 26.5t75.5 69.5h94q-40 -79 -117 -127t-169 -48q-115 0 -182 76.5
t-51 190.5t104.5 190.5t204.5 76.5zM338 443q-68 0 -123 -41t-76 -106h357q-3 66 -46.5 106.5t-111.5 40.5z" />
    <glyph glyph-name="Eogonek" unicode="&#x118;" horiz-adv-x="513" 
d="M512 604h-290l-30 -214h258l-13 -86h-257l-31 -218h295l-12 -86h-10q-111 -46 -121 -108q-4 -23 10 -37.5t37 -14.5q35 0 66 23l-9 -64q-37 -22 -83 -22t-72.5 28t-20.5 69q7 40 39 73t80 53h-303l97 690h382z" />
    <glyph glyph-name="eogonek" unicode="&#x119;" horiz-adv-x="619" 
d="M349 522q116 0 182.5 -76.5t50.5 -190.5q-2 -19 -7 -36h-448q2 -68 45 -110t112 -42q57 0 105.5 26.5t75.5 69.5h94q-57 -114 -177 -156q-80 -55 -87 -110q-4 -25 10.5 -41t38.5 -16q39 0 69 30l-9 -66q-33 -27 -88 -27q-46 0 -73.5 29.5t-21.5 73.5q9 59 66 108h-14
q-115 0 -182 76.5t-51 190.5t104.5 190.5t204.5 76.5zM338 443q-68 0 -123 -41t-76 -106h357q-3 66 -46.5 106.5t-111.5 40.5z" />
    <glyph glyph-name="Ecaron" unicode="&#x11a;" horiz-adv-x="513" 
d="M395 757h-105l-83 129h82l59 -83l83 83h82zM512 604h-290l-30 -214h258l-13 -86h-257l-31 -218h295l-12 -86h-387l97 690h382z" />
    <glyph glyph-name="ecaron" unicode="&#x11b;" horiz-adv-x="619" 
d="M409 577h-105l-83 129h82l59 -83l83 83h82zM349 522q116 0 182.5 -76.5t50.5 -190.5q-2 -19 -7 -36h-448q2 -68 45 -110t112 -42q57 0 105.5 26.5t75.5 69.5h94q-40 -79 -117 -127t-169 -48q-115 0 -182 76.5t-51 190.5t104.5 190.5t204.5 76.5zM338 443q-68 0 -123 -41
t-76 -106h357q-3 66 -46.5 106.5t-111.5 40.5z" />
    <glyph glyph-name="Gcircumflex" unicode="&#x11c;" horiz-adv-x="825" 
d="M488 840l-83 -83h-82l119 129h105l82 -129h-82zM435 367h344l-52 -367h-80l19 138q-49 -71 -126 -110.5t-172 -39.5q-154 0 -243 102.5t-67 254.5q21 152 139 254.5t272 102.5q123 0 206.5 -66.5t99.5 -172.5h-101q-20 69 -78 110t-139 41q-114 0 -201.5 -77t-103.5 -192
t49.5 -192t179.5 -77q99 0 179 58t110 150h-247z" />
    <glyph glyph-name="gcircumflex" unicode="&#x11d;" horiz-adv-x="655" 
d="M385 660l-83 -83h-82l119 129h105l82 -129h-82zM532 510h86l-99 -700h-490l12 79h404l31 218q-85 -109 -215 -109q-109 0 -171.5 74.5t-46.5 187.5q16 112 99.5 187t192.5 75q63 0 111 -29t73 -80zM288 76q79 0 138.5 52.5t70.5 131.5q11 78 -34 130.5t-123 52.5
t-138 -52.5t-70 -130.5q-11 -79 33 -131.5t123 -52.5z" />
    <glyph glyph-name="Gbreve" unicode="&#x11e;" horiz-adv-x="825" 
d="M475 747q-59 0 -93 38t-26 95h68q-4 -30 13 -50.5t46 -20.5q30 0 53 20.5t28 50.5h68q-8 -57 -53 -95t-104 -38zM435 367h344l-52 -367h-80l19 138q-49 -71 -126 -110.5t-172 -39.5q-154 0 -243 102.5t-67 254.5q21 152 139 254.5t272 102.5q123 0 206.5 -66.5
t99.5 -172.5h-101q-20 69 -78 110t-139 41q-114 0 -201.5 -77t-103.5 -192t49.5 -192t179.5 -77q99 0 179 58t110 150h-247z" />
    <glyph glyph-name="gbreve" unicode="&#x11f;" horiz-adv-x="655" 
d="M372 567q-59 0 -93 38t-26 95h68q-4 -30 13 -50.5t46 -20.5q30 0 53 20.5t28 50.5h68q-8 -57 -53 -95t-104 -38zM532 510h86l-99 -700h-490l12 79h404l31 218q-85 -109 -215 -109q-109 0 -171.5 74.5t-46.5 187.5q16 112 99.5 187t192.5 75q63 0 111 -29t73 -80zM288 76
q79 0 138.5 52.5t70.5 131.5q11 78 -34 130.5t-123 52.5t-138 -52.5t-70 -130.5q-11 -79 33 -131.5t123 -52.5z" />
    <glyph glyph-name="Gdotaccent" unicode="&#x120;" horiz-adv-x="825" 
d="M478 762q-24 0 -38 16t-10 39q3 23 21.5 39t41.5 16q24 0 37.5 -16t10.5 -39q-4 -23 -22 -39t-41 -16zM435 367h344l-52 -367h-80l19 138q-49 -71 -126 -110.5t-172 -39.5q-154 0 -243 102.5t-67 254.5q21 152 139 254.5t272 102.5q123 0 206.5 -66.5t99.5 -172.5h-101
q-20 69 -78 110t-139 41q-114 0 -201.5 -77t-103.5 -192t49.5 -192t179.5 -77q99 0 179 58t110 150h-247z" />
    <glyph glyph-name="gdotaccent" unicode="&#x121;" horiz-adv-x="655" 
d="M374 582q-24 0 -38 16t-10 39q3 23 21.5 39t41.5 16q24 0 37.5 -16t10.5 -39q-4 -23 -22 -39t-41 -16zM532 510h86l-99 -700h-490l12 79h404l31 218q-85 -109 -215 -109q-109 0 -171.5 74.5t-46.5 187.5q16 112 99.5 187t192.5 75q63 0 111 -29t73 -80zM288 76
q79 0 138.5 52.5t70.5 131.5q11 78 -34 130.5t-123 52.5t-138 -52.5t-70 -130.5q-11 -79 33 -131.5t123 -52.5z" />
    <glyph glyph-name="uni0122" unicode="&#x122;" horiz-adv-x="825" 
d="M435 367h344l-52 -367h-80l19 138q-49 -71 -126 -110.5t-172 -39.5q-154 0 -243 102.5t-67 254.5q21 152 139 254.5t272 102.5q123 0 206.5 -66.5t99.5 -172.5h-101q-20 69 -78 110t-139 41q-114 0 -201.5 -77t-103.5 -192t49.5 -192t179.5 -77q99 0 179 58t110 150h-247
zM272 -220l56 154h90l-75 -154h-71z" />
    <glyph glyph-name="uni0123" unicode="&#x123;" horiz-adv-x="655" 
d="M456 725l-57 -154h-90l76 154h71zM532 510h86l-99 -700h-490l12 79h404l31 218q-85 -109 -215 -109q-109 0 -171.5 74.5t-46.5 187.5q16 112 99.5 187t192.5 75q63 0 111 -29t73 -80zM288 76q79 0 138.5 52.5t70.5 131.5q11 78 -34 130.5t-123 52.5t-138 -52.5
t-70 -130.5q-11 -79 33 -131.5t123 -52.5z" />
    <glyph glyph-name="Hcircumflex" unicode="&#x124;" horiz-adv-x="730" 
d="M448 840l-83 -83h-82l119 129h105l82 -129h-82zM618 690h92l-97 -690h-92l43 304h-384l-43 -304h-92l97 690h92l-42 -300h384z" />
    <glyph glyph-name="hcircumflex" unicode="&#x125;" horiz-adv-x="616" 
d="M199 849l-83 -83h-82l119 129h105l82 -129h-82zM381 522q93 0 142 -56.5t36 -150.5l-45 -315h-86l41 288q10 68 -25 109.5t-102 41.5q-66 0 -113.5 -36.5t-62.5 -97.5l-43 -305h-86l101 720h86l-41 -295q75 97 198 97z" />
    <glyph glyph-name="Hbar" unicode="&#x126;" horiz-adv-x="730" 
d="M751 573l-9 -64h-57l-72 -509h-92l43 304h-384l-43 -304h-92l72 509h-56l8 64h57l16 117h92l-16 -117h384l16 117h92l-16 -117h57zM576 390l17 119h-384l-17 -119h384z" />
    <glyph glyph-name="hbar" unicode="&#x127;" horiz-adv-x="616" 
d="M381 522q93 0 142 -56.5t36 -150.5l-45 -315h-86l41 288q10 68 -25 109.5t-102 41.5q-66 0 -113.5 -36.5t-62.5 -97.5l-43 -305h-86l81 577h-72l8 63h73l11 80h86l-11 -80h131l-8 -63h-132l-21 -152q75 97 198 97z" />
    <glyph glyph-name="Itilde" unicode="&#x128;" horiz-adv-x="353" 
d="M372 882h62q-7 -52 -39 -85.5t-78 -33.5q-33 0 -66 27.5t-53 27.5q-21 0 -37 -14.5t-19 -35.5h-62q7 52 39 85t79 33q32 0 65 -27t53 -27q21 0 37 14t19 36zM87 604l12 86h277l-12 -86h-92l-74 -518h93l-12 -86h-277l12 86h92l74 518h-93z" />
    <glyph glyph-name="itilde" unicode="&#x129;" horiz-adv-x="231" 
d="M230 583q-33 0 -66 27.5t-53 27.5q-21 0 -37 -14.5t-19 -35.5h-62q7 52 39 85t79 33q32 0 65 -27t53 -27q21 0 37 14t19 36h62q-7 -52 -39 -85.5t-78 -33.5zM37 0l72 510h86l-72 -510h-86z" />
    <glyph glyph-name="Imacron" unicode="&#x12a;" horiz-adv-x="353" 
d="M378 845l-10 -73h-237l10 73h237zM87 604l12 86h277l-12 -86h-92l-74 -518h93l-12 -86h-277l12 86h92l74 518h-93z" />
    <glyph glyph-name="imacron" unicode="&#x12b;" horiz-adv-x="231" 
d="M45 592l10 73h237l-10 -73h-237zM37 0l72 510h86l-72 -510h-86z" />
    <glyph glyph-name="Ibreve" unicode="&#x12c;" horiz-adv-x="353" 
d="M246 747q-59 0 -93 38t-26 95h68q-4 -30 13 -50.5t46 -20.5q30 0 53 20.5t28 50.5h68q-8 -57 -53 -95t-104 -38zM87 604l12 86h277l-12 -86h-92l-74 -518h93l-12 -86h-277l12 86h92l74 518h-93z" />
    <glyph glyph-name="ibreve" unicode="&#x12d;" horiz-adv-x="231" 
d="M160 567q-59 0 -93 38t-26 95h68q-4 -30 13 -50.5t46 -20.5q30 0 53 20.5t28 50.5h68q-8 -57 -53 -95t-104 -38zM37 0l72 510h86l-72 -510h-86z" />
    <glyph glyph-name="Iogonek" unicode="&#x12e;" horiz-adv-x="353" 
d="M364 604h-92l-74 -518h93l-12 -86q-111 -46 -121 -108q-4 -23 10 -37.5t37 -14.5q35 0 66 23l-9 -64q-37 -22 -83 -22t-72.5 28t-20.5 69q7 40 39 73t80 53h-203l12 86h92l74 518h-93l12 86h277z" />
    <glyph glyph-name="iogonek" unicode="&#x12f;" horiz-adv-x="231" 
d="M177 692q24 0 37.5 -16t10.5 -39q-4 -23 -22 -39t-41 -16q-24 0 -38 16t-10 39q3 23 21.5 39t41.5 16zM37 0l72 510h86l-72 -510h-1q-111 -46 -121 -108q-4 -23 10 -37.5t37 -14.5q35 0 66 23l-9 -64q-37 -22 -83 -22t-72.5 28t-20.5 69q7 40 39 73t80 53h-11z" />
    <glyph glyph-name="Idotaccent" unicode="&#x130;" horiz-adv-x="353" 
d="M248 762q-24 0 -38 16t-10 39q3 23 21.5 39t41.5 16q24 0 37.5 -16t10.5 -39q-4 -23 -22 -39t-41 -16zM364 604h-92l-74 -518h93l-12 -86h-277l12 86h92l74 518h-93l12 86h277z" />
    <glyph glyph-name="dotlessi" unicode="&#x131;" horiz-adv-x="231" 
d="M37 0l72 510h86l-72 -510h-86z" />
    <glyph glyph-name="IJ" unicode="&#x132;" horiz-adv-x="831" 
d="M272 604l-74 -518h93l-12 -86h-277l12 86h92l74 518h-93l12 86h277l-12 -86h-92zM720 690h91l-97 -690h-357l12 86h266z" />
    <glyph glyph-name="ij" unicode="&#x133;" horiz-adv-x="468" 
d="M166 612q-25 0 -39 16.5t-11 40.5q4 25 22.5 41t43.5 16t39 -16t10 -41q-3 -24 -22 -40.5t-43 -16.5zM419 726q24 0 38 -16t11 -41q-4 -24 -22.5 -40.5t-43.5 -16.5q-24 0 -38 16.5t-11 40.5q3 25 22 41t44 16zM109 510h86l-72 -510h-86zM256 -123l89 633h86l-100 -712
h-184l11 79h98z" />
    <glyph glyph-name="Jcircumflex" unicode="&#x134;" horiz-adv-x="468" 
d="M482 886l82 -129h-82l-59 83l-83 -83h-82l119 129h105zM272 86l85 604h91l-97 -690h-357l12 86h266z" />
    <glyph glyph-name="jcircumflex" unicode="&#x135;" horiz-adv-x="237" 
d="M238 706l82 -129h-82l-59 83l-83 -83h-82l119 129h105zM25 -123l89 633h86l-100 -712h-184l11 79h98z" />
    <glyph glyph-name="uni0136" unicode="&#x136;" horiz-adv-x="618" 
d="M666 690l-327 -340l237 -350h-115l-206 304h-75l-43 -304h-92l97 690h92l-42 -300h75l287 300h112zM187 -220l56 154h90l-75 -154h-71z" />
    <glyph glyph-name="uni0137" unicode="&#x137;" horiz-adv-x="517" 
d="M532 510l-237 -253l172 -257h-106l-141 217h-67l-30 -217h-86l101 720h86l-59 -423h67l196 213h104zM140 -220l56 154h90l-75 -154h-71z" />
    <glyph glyph-name="Lacute" unicode="&#x139;" horiz-adv-x="468" 
d="M378 886l-141 -129h-92l122 129h111zM149 86h265l-12 -86h-357l97 690h92z" />
    <glyph glyph-name="lacute" unicode="&#x13a;" horiz-adv-x="269" 
d="M367 895l-141 -129h-92l122 129h111zM224 720l-91 -641h96l-12 -79h-180l101 720h86z" />
    <glyph glyph-name="uni013B" unicode="&#x13b;" horiz-adv-x="468" 
d="M149 86h265l-12 -86h-357l97 690h92zM123 -220l56 154h90l-75 -154h-71z" />
    <glyph glyph-name="uni013C" unicode="&#x13c;" horiz-adv-x="269" 
d="M133 79h96l-12 -79h-180l101 720h86zM13 -220l56 154h90l-75 -154h-71z" />
    <glyph glyph-name="Lcaron" unicode="&#x13d;" horiz-adv-x="481" 
d="M234 690l-85 -604h265l-12 -86h-357l97 690h92zM433 690l-64 -201h-65l49 201h80z" />
    <glyph glyph-name="lcaron" unicode="&#x13e;" horiz-adv-x="321" 
d="M224 720l-91 -641h96l-12 -79h-180l101 720h86zM308 720h80l-63 -201h-66z" />
    <glyph glyph-name="Ldot" unicode="&#x13f;" horiz-adv-x="487" 
d="M149 86h265l-12 -86h-357l97 690h92zM327 296q-25 0 -39 16.5t-10 41.5q3 24 21.5 40.5t43.5 16.5t39.5 -16.5t10.5 -40.5q-4 -25 -22.5 -41.5t-43.5 -16.5z" />
    <glyph glyph-name="ldot" unicode="&#x140;" horiz-adv-x="355" 
d="M224 720l-91 -641h96l-12 -79h-180l101 720h86zM297 418q24 0 38 -16.5t11 -41.5q-4 -25 -22.5 -41.5t-43.5 -16.5t-39 16.5t-10 41.5q3 25 22 41.5t44 16.5z" />
    <glyph glyph-name="Lslash" unicode="&#x141;" horiz-adv-x="468" 
d="M149 86h265l-12 -86h-357l36 258l-69 -40l12 85l69 40l49 347h92l-41 -289l132 76l-12 -85l-132 -76z" />
    <glyph glyph-name="lslash" unicode="&#x142;" horiz-adv-x="331" 
d="M297 392l-87 -49l-37 -264h95l-11 -79h-181l41 291l-77 -43l11 80l77 43l49 349h86l-42 -297l88 49z" />
    <glyph glyph-name="Nacute" unicode="&#x143;" horiz-adv-x="739" 
d="M622 886l-141 -129h-92l122 129h111zM627 690h91l-97 -690h-94l-315 538l-75 -538h-92l97 690h95l315 -538z" />
    <glyph glyph-name="nacute" unicode="&#x144;" horiz-adv-x="616" 
d="M536 706l-141 -129h-92l122 129h111zM381 522q93 0 142 -56.5t36 -150.5l-45 -315h-86l41 288q10 68 -25 109.5t-102 41.5q-65 0 -112.5 -36t-63.5 -96l-43 -307h-86l72 510h86l-12 -82q75 94 198 94z" />
    <glyph glyph-name="uni0145" unicode="&#x145;" horiz-adv-x="739" 
d="M627 690h91l-97 -690h-94l-315 538l-75 -538h-92l97 690h95l315 -538zM235 -220l56 154h90l-75 -154h-71z" />
    <glyph glyph-name="uni0146" unicode="&#x146;" horiz-adv-x="616" 
d="M381 522q93 0 142 -56.5t36 -150.5l-45 -315h-86l41 288q10 68 -25 109.5t-102 41.5q-65 0 -112.5 -36t-63.5 -96l-43 -307h-86l72 510h86l-12 -82q75 94 198 94zM177 -220l56 154h90l-75 -154h-71z" />
    <glyph glyph-name="Ncaron" unicode="&#x147;" horiz-adv-x="739" 
d="M495 757h-105l-83 129h82l59 -83l83 83h82zM627 690h91l-97 -690h-94l-315 538l-75 -538h-92l97 690h95l315 -538z" />
    <glyph glyph-name="ncaron" unicode="&#x148;" horiz-adv-x="616" 
d="M409 577h-105l-83 129h82l59 -83l83 83h82zM381 522q93 0 142 -56.5t36 -150.5l-45 -315h-86l41 288q10 68 -25 109.5t-102 41.5q-65 0 -112.5 -36t-63.5 -96l-43 -307h-86l72 510h86l-12 -82q75 94 198 94z" />
    <glyph glyph-name="Eng" unicode="&#x14a;" horiz-adv-x="739" 
d="M718 690l-96 -685h1l-6 -43q-24 -163 -200 -163l12 84q85 0 97 82l4 35h-3l-315 538l-75 -538h-92l97 690h95l315 -538l75 538h91z" />
    <glyph glyph-name="eng" unicode="&#x14b;" horiz-adv-x="616" 
d="M381 522q93 0 142 -56.5t36 -150.5l-50 -353q-22 -163 -197 -163l12 84q88 0 100 82l45 323q10 68 -25 109.5t-102 41.5q-65 0 -112.5 -36t-63.5 -96l-43 -307h-86l72 510h86l-12 -82q75 94 198 94z" />
    <glyph glyph-name="Omacron" unicode="&#x14c;" horiz-adv-x="812" 
d="M360 772l10 73h237l-10 -73h-237zM368 -12q-154 0 -243 102.5t-67 254.5q21 152 139 254.5t272 102.5t243 -102.5t68 -254.5q-22 -152 -140 -254.5t-272 -102.5zM381 76q114 0 201 77t104 192q16 115 -49.5 192t-179.5 77t-201.5 -77t-103.5 -192t49.5 -192t179.5 -77z
" />
    <glyph glyph-name="omacron" unicode="&#x14d;" horiz-adv-x="623" 
d="M241 592l10 73h237l-10 -73h-237zM274 -12q-116 0 -183 76.5t-51 190.5t105 190.5t205 76.5q115 0 182 -76.5t51 -190.5t-104.5 -190.5t-204.5 -76.5zM286 71q78 0 138 52.5t70 131.5q11 79 -33.5 131.5t-122.5 52.5q-79 0 -139 -52.5t-70 -131.5q-11 -79 33.5 -131.5
t123.5 -52.5z" />
    <glyph glyph-name="Obreve" unicode="&#x14e;" horiz-adv-x="812" 
d="M475 747q-59 0 -93 38t-26 95h68q-4 -30 13 -50.5t46 -20.5q30 0 53 20.5t28 50.5h68q-8 -57 -53 -95t-104 -38zM368 -12q-154 0 -243 102.5t-67 254.5q21 152 139 254.5t272 102.5t243 -102.5t68 -254.5q-22 -152 -140 -254.5t-272 -102.5zM381 76q114 0 201 77t104 192
q16 115 -49.5 192t-179.5 77t-201.5 -77t-103.5 -192t49.5 -192t179.5 -77z" />
    <glyph glyph-name="obreve" unicode="&#x14f;" horiz-adv-x="623" 
d="M355 567q-59 0 -93 38t-26 95h68q-4 -30 13 -50.5t46 -20.5q30 0 53 20.5t28 50.5h68q-8 -57 -53 -95t-104 -38zM274 -12q-116 0 -183 76.5t-51 190.5t105 190.5t205 76.5q115 0 182 -76.5t51 -190.5t-104.5 -190.5t-204.5 -76.5zM286 71q78 0 138 52.5t70 131.5
q11 79 -33.5 131.5t-122.5 52.5q-79 0 -139 -52.5t-70 -131.5q-11 -79 33.5 -131.5t123.5 -52.5z" />
    <glyph glyph-name="Ohungarumlaut" unicode="&#x150;" horiz-adv-x="812" 
d="M334 757l101 129h96l-113 -129h-84zM529 757l100 129h97l-113 -129h-84zM368 -12q-154 0 -243 102.5t-67 254.5q21 152 139 254.5t272 102.5t243 -102.5t68 -254.5q-22 -152 -140 -254.5t-272 -102.5zM381 76q114 0 201 77t104 192q16 115 -49.5 192t-179.5 77
t-201.5 -77t-103.5 -192t49.5 -192t179.5 -77z" />
    <glyph glyph-name="ohungarumlaut" unicode="&#x151;" horiz-adv-x="623" 
d="M214 577l101 129h96l-113 -129h-84zM409 577l100 129h97l-113 -129h-84zM274 -12q-116 0 -183 76.5t-51 190.5t105 190.5t205 76.5q115 0 182 -76.5t51 -190.5t-104.5 -190.5t-204.5 -76.5zM286 71q78 0 138 52.5t70 131.5q11 79 -33.5 131.5t-122.5 52.5
q-79 0 -139 -52.5t-70 -131.5q-11 -79 33.5 -131.5t123.5 -52.5z" />
    <glyph glyph-name="OE" unicode="&#x152;" horiz-adv-x="899" 
d="M899 604h-291l-30 -214h258l-12 -86h-258l-31 -218h296l-12 -86h-461q-149 0 -235 98.5t-65 246.5q20 148 134 246.5t263 98.5h456zM444 86l73 518h-72q-110 0 -194 -74t-99 -185q-16 -111 47 -185t173 -74h72z" />
    <glyph glyph-name="oe" unicode="&#x153;" horiz-adv-x="1074" 
d="M806 522q115 0 181 -76.5t50 -190.5q-6 -28 -8 -36h-448q2 -67 46 -108.5t113 -41.5q57 0 105 25.5t74 68.5h95q-40 -79 -116 -127t-168 -48q-76 0 -131 37t-79 100q-41 -63 -107 -100t-142 -37q-115 0 -181 76.5t-50 190.5t104 190.5t203 76.5q76 0 131 -37t79 -100
q41 63 107 100t142 37zM792 441q-68 0 -122.5 -40t-76.5 -105h358q-2 64 -46.5 104.5t-112.5 40.5zM494 255q11 79 -33.5 131.5t-123.5 52.5t-138 -52.5t-70 -131.5t33.5 -131.5t122.5 -52.5q79 0 138.5 52.5t70.5 131.5z" />
    <glyph glyph-name="Racute" unicode="&#x154;" horiz-adv-x="565" 
d="M533 886l-141 -129h-92l122 129h111zM552 480q-11 -77 -66 -132.5t-131 -69.5l143 -278h-111l-137 274h-74l-39 -274h-92l97 690h224q92 0 145.5 -60t40.5 -150zM458 479q7 54 -23 89.5t-83 35.5h-130l-35 -250h130q53 0 93.5 35.5t47.5 89.5z" />
    <glyph glyph-name="racute" unicode="&#x155;" horiz-adv-x="355" 
d="M423 706l-141 -129h-92l122 129h111zM182 418q73 100 181 100l-12 -89q-72 0 -122 -40t-67 -110l-39 -279h-86l72 510h86z" />
    <glyph glyph-name="uni0156" unicode="&#x156;" horiz-adv-x="565" 
d="M552 480q-11 -77 -66 -132.5t-131 -69.5l143 -278h-111l-137 274h-74l-39 -274h-92l97 690h224q92 0 145.5 -60t40.5 -150zM458 479q7 54 -23 89.5t-83 35.5h-130l-35 -250h130q53 0 93.5 35.5t47.5 89.5zM158 -220l56 154h90l-75 -154h-71z" />
    <glyph glyph-name="uni0157" unicode="&#x157;" horiz-adv-x="355" 
d="M182 418q73 100 181 100l-12 -89q-72 0 -122 -40t-67 -110l-39 -279h-86l72 510h86zM-18 -220l56 154h90l-75 -154h-71z" />
    <glyph glyph-name="Rcaron" unicode="&#x158;" horiz-adv-x="565" 
d="M406 757h-105l-83 129h82l59 -83l83 83h82zM552 480q-11 -77 -66 -132.5t-131 -69.5l143 -278h-111l-137 274h-74l-39 -274h-92l97 690h224q92 0 145.5 -60t40.5 -150zM458 479q7 54 -23 89.5t-83 35.5h-130l-35 -250h130q53 0 93.5 35.5t47.5 89.5z" />
    <glyph glyph-name="rcaron" unicode="&#x159;" horiz-adv-x="355" 
d="M296 577h-105l-83 129h82l59 -83l83 83h82zM182 418q73 100 181 100l-12 -89q-72 0 -122 -40t-67 -110l-39 -279h-86l72 510h86z" />
    <glyph glyph-name="Sacute" unicode="&#x15a;" horiz-adv-x="532" 
d="M284 757l122 129h111l-141 -129h-92zM228 -12q-95 0 -151 59.5t-44 147.5h94q-7 -53 26 -89t89 -36q55 0 96 31.5t47 78.5q7 48 -27.5 80t-104.5 50q-185 47 -163 202q10 81 79 135.5t160 54.5t144 -56.5t41 -141.5h-94q7 49 -22.5 82.5t-80.5 33.5q-50 0 -88.5 -30
t-44.5 -74q-13 -89 123 -125q195 -50 173 -205q-11 -85 -83.5 -141.5t-168.5 -56.5z" />
    <glyph glyph-name="sacute" unicode="&#x15b;" horiz-adv-x="422" 
d="M203 577l122 129h111l-141 -129h-92zM173 -12q-74 0 -116.5 45.5t-32.5 111.5h88q-5 -33 16.5 -56t56.5 -23q34 0 60.5 19.5t30.5 48.5q4 33 -18 54t-70 33q-141 39 -125 154q9 66 62.5 106.5t123.5 40.5t111 -44t32 -107h-88q4 30 -15.5 51.5t-52.5 21.5
q-31 0 -55.5 -19t-28.5 -45q-4 -31 19 -52t69 -33q143 -39 127 -153q-10 -69 -65 -111.5t-129 -42.5z" />
    <glyph glyph-name="Scircumflex" unicode="&#x15c;" horiz-adv-x="532" 
d="M349 840l-83 -83h-82l119 129h105l82 -129h-82zM514 504h-94q7 49 -22.5 82.5t-80.5 33.5q-50 0 -88.5 -30t-44.5 -74q-13 -89 123 -125q195 -50 173 -205q-11 -85 -83.5 -141.5t-168.5 -56.5q-95 0 -151 59.5t-44 147.5h94q-7 -53 26 -89t89 -36q55 0 96 31.5t47 78.5
q7 48 -27.5 80t-104.5 50q-185 47 -163 202q10 81 79 135.5t160 54.5t144 -56.5t41 -141.5z" />
    <glyph glyph-name="scircumflex" unicode="&#x15d;" horiz-adv-x="422" 
d="M268 660l-83 -83h-82l119 129h105l82 -129h-82zM249 522q70 0 111 -44t32 -107h-88q4 30 -15.5 51.5t-52.5 21.5q-31 0 -55.5 -19t-28.5 -45q-4 -31 19 -52t69 -33q143 -39 127 -153q-10 -69 -65 -111.5t-129 -42.5t-116.5 45.5t-32.5 111.5h88q-5 -33 16.5 -56t56.5 -23
q34 0 60.5 19.5t30.5 48.5q4 33 -18 54t-70 33q-141 39 -125 154q9 66 62.5 106.5t123.5 40.5z" />
    <glyph glyph-name="Scedilla" unicode="&#x15e;" horiz-adv-x="532" 
d="M514 504h-94q7 49 -22.5 82.5t-80.5 33.5q-50 0 -88.5 -30t-44.5 -74q-13 -89 123 -125q195 -50 173 -205q-10 -78 -72.5 -132.5t-148.5 -63.5l-24 -25h6q39 0 61.5 -27.5t16.5 -67.5q-5 -41 -39 -69t-78 -28q-43 0 -69 28t-20 69h54q-3 -20 9.5 -34t32.5 -14q21 0 37 14
t19 34q4 21 -8.5 35t-33.5 14q-20 0 -36 -14l-46 22l57 63q-83 10 -129.5 67t-35.5 138h94q-7 -53 26 -89t89 -36q55 0 96 31.5t47 78.5q7 48 -27.5 80t-104.5 50q-185 47 -163 202q10 81 79 135.5t160 54.5t144 -56.5t41 -141.5z" />
    <glyph glyph-name="scedilla" unicode="&#x15f;" horiz-adv-x="422" 
d="M392 371h-88q4 30 -15.5 51.5t-52.5 21.5q-31 0 -55.5 -19t-28.5 -45q-4 -31 19 -52t69 -33q143 -39 127 -153q-9 -62 -54.5 -103t-109.5 -49l-24 -25h6q39 0 61.5 -27.5t16.5 -67.5q-5 -41 -39 -69t-78 -28q-43 0 -69 28t-20 69h54q-3 -20 9.5 -34t32.5 -14q21 0 37 14
t19 34q4 21 -8.5 35t-33.5 14q-20 0 -36 -14l-46 22l57 63q-61 10 -94 53.5t-24 101.5h88q-5 -33 16.5 -56t56.5 -23q34 0 60.5 19.5t30.5 48.5q4 33 -18 54t-70 33q-141 39 -125 154q9 66 62.5 106.5t123.5 40.5t111 -44t32 -107z" />
    <glyph glyph-name="Scaron" unicode="&#x160;" horiz-adv-x="532" 
d="M390 757h-105l-83 129h82l59 -83l83 83h82zM514 504h-94q7 49 -22.5 82.5t-80.5 33.5q-50 0 -88.5 -30t-44.5 -74q-13 -89 123 -125q195 -50 173 -205q-11 -85 -83.5 -141.5t-168.5 -56.5q-95 0 -151 59.5t-44 147.5h94q-7 -53 26 -89t89 -36q55 0 96 31.5t47 78.5
q7 48 -27.5 80t-104.5 50q-185 47 -163 202q10 81 79 135.5t160 54.5t144 -56.5t41 -141.5z" />
    <glyph glyph-name="scaron" unicode="&#x161;" horiz-adv-x="422" 
d="M309 577h-105l-83 129h82l59 -83l83 83h82zM249 522q70 0 111 -44t32 -107h-88q4 30 -15.5 51.5t-52.5 21.5q-31 0 -55.5 -19t-28.5 -45q-4 -31 19 -52t69 -33q143 -39 127 -153q-10 -69 -65 -111.5t-129 -42.5t-116.5 45.5t-32.5 111.5h88q-5 -33 16.5 -56t56.5 -23
q34 0 60.5 19.5t30.5 48.5q4 33 -18 54t-70 33q-141 39 -125 154q9 66 62.5 106.5t123.5 40.5z" />
    <glyph glyph-name="uni0162" unicode="&#x162;" horiz-adv-x="546" 
d="M283 0h-14l-33 -34h6q39 0 61.5 -27.5t16.5 -67.5q-5 -41 -39 -69t-78 -28q-43 0 -69 28t-20 69h54q-3 -20 9.5 -34t32.5 -14q21 0 37 14t19 34q4 21 -8.5 35t-33.5 14q-20 0 -36 -14l-46 22l65 72h-16l85 604h-198l12 86h488l-12 -86h-198z" />
    <glyph glyph-name="uni0163" unicode="&#x163;" horiz-adv-x="397" 
d="M384 432h-142l-50 -353h143l-11 -79h-89l-33 -34h6q39 0 61.5 -27.5t16.5 -67.5q-5 -41 -39 -69t-78 -28q-43 0 -69 28t-20 69h54q-3 -20 9.5 -34t32.5 -14q21 0 37 14t19 34q4 21 -8.5 35t-33.5 14q-20 0 -36 -14l-46 22l65 72h-78l61 432h-99l11 78h99l21 150h86
l-21 -150h143z" />
    <glyph glyph-name="Tcaron" unicode="&#x164;" horiz-adv-x="546" 
d="M397 757h-105l-83 129h82l59 -83l83 83h82zM578 690l-12 -86h-198l-85 -604h-92l85 604h-198l12 86h488z" />
    <glyph glyph-name="tcaron" unicode="&#x165;" horiz-adv-x="397" 
d="M449 768l-63 -201h-66l49 201h80zM274 660l-21 -150h143l-12 -78h-142l-50 -353h143l-11 -79h-229l61 432h-99l11 78h99l21 150h86z" />
    <glyph glyph-name="Tbar" unicode="&#x166;" horiz-adv-x="546" 
d="M566 604h-198l-35 -245h100l-8 -63h-101l-41 -296h-92l42 296h-98l8 63h99l34 245h-198l12 86h488z" />
    <glyph glyph-name="tbar" unicode="&#x167;" horiz-adv-x="397" 
d="M384 432h-142l-20 -138h116l-8 -63h-117l-21 -152h143l-11 -79h-229l33 231h-88l8 63h88l20 138h-99l11 78h99l21 150h86l-21 -150h143z" />
    <glyph glyph-name="Utilde" unicode="&#x168;" horiz-adv-x="693" 
d="M486 763q-33 0 -66 27.5t-53 27.5q-21 0 -37 -14.5t-19 -35.5h-62q7 52 39 85t79 33q32 0 65 -27t53 -27q21 0 37 14t19 36h62q-7 -52 -39 -85.5t-78 -33.5zM308 -12q-119 0 -188 79t-53 197l60 426h91l-59 -424q-12 -81 34.5 -135.5t127.5 -54.5t143 54.5t74 135.5
l59 424h91l-60 -426q-16 -118 -108 -197t-212 -79z" />
    <glyph glyph-name="utilde" unicode="&#x169;" horiz-adv-x="600" 
d="M292 638q-21 0 -37 -14.5t-19 -35.5h-62q7 52 39 85t79 33q32 0 65 -27t53 -27q21 0 37 14t19 36h62q-7 -52 -39 -85.5t-78 -33.5q-33 0 -66 27.5t-53 27.5zM477 510h86l-72 -510h-86l11 80q-72 -92 -189 -92q-89 0 -136 55t-34 146l45 321h86l-42 -296q-9 -65 23.5 -104
t96.5 -39q63 0 108.5 36t58.5 95z" />
    <glyph glyph-name="Umacron" unicode="&#x16a;" horiz-adv-x="693" 
d="M301 772l10 73h237l-10 -73h-237zM308 -12q-119 0 -188 79t-53 197l60 426h91l-59 -424q-12 -81 34.5 -135.5t127.5 -54.5t143 54.5t74 135.5l59 424h91l-60 -426q-16 -118 -108 -197t-212 -79z" />
    <glyph glyph-name="umacron" unicode="&#x16b;" horiz-adv-x="600" 
d="M473 665l-10 -73h-237l10 73h237zM477 510h86l-72 -510h-86l11 80q-72 -92 -189 -92q-89 0 -136 55t-34 146l45 321h86l-42 -296q-9 -65 23.5 -104t96.5 -39q63 0 108.5 36t58.5 95z" />
    <glyph glyph-name="Ubreve" unicode="&#x16c;" horiz-adv-x="693" 
d="M415 747q-59 0 -93 38t-26 95h68q-4 -30 13 -50.5t46 -20.5q30 0 53 20.5t28 50.5h68q-8 -57 -53 -95t-104 -38zM308 -12q-119 0 -188 79t-53 197l60 426h91l-59 -424q-12 -81 34.5 -135.5t127.5 -54.5t143 54.5t74 135.5l59 424h91l-60 -426q-16 -118 -108 -197
t-212 -79z" />
    <glyph glyph-name="ubreve" unicode="&#x16d;" horiz-adv-x="600" 
d="M340 567q-59 0 -93 38t-26 95h68q-4 -30 13 -50.5t46 -20.5q30 0 53 20.5t28 50.5h68q-8 -57 -53 -95t-104 -38zM477 510h86l-72 -510h-86l11 80q-72 -92 -189 -92q-89 0 -136 55t-34 146l45 321h86l-42 -296q-9 -65 23.5 -104t96.5 -39q63 0 108.5 36t58.5 95z" />
    <glyph glyph-name="Uring" unicode="&#x16e;" horiz-adv-x="693" 
d="M414 743q-37 0 -58.5 24.5t-16.5 61.5q5 36 33.5 60.5t65.5 24.5t59 -24.5t17 -60.5q-5 -37 -34 -61.5t-66 -24.5zM421 788q17 0 30 11.5t15 29.5q2 17 -7.5 28.5t-26.5 11.5t-30 -11.5t-15 -28.5q-2 -18 7.5 -29.5t26.5 -11.5zM308 -12q-119 0 -188 79t-53 197l60 426
h91l-59 -424q-12 -81 34.5 -135.5t127.5 -54.5t143 54.5t74 135.5l59 424h91l-60 -426q-16 -118 -108 -197t-212 -79z" />
    <glyph glyph-name="uring" unicode="&#x16f;" horiz-adv-x="600" 
d="M339 563q-37 0 -58.5 24.5t-16.5 61.5q5 36 33.5 60.5t65.5 24.5t59 -24.5t17 -60.5q-5 -37 -34 -61.5t-66 -24.5zM312 649q-2 -18 7.5 -29.5t26.5 -11.5t30 11.5t15 29.5q2 17 -7.5 28.5t-26.5 11.5t-30 -11.5t-15 -28.5zM477 510h86l-72 -510h-86l11 80
q-72 -92 -189 -92q-89 0 -136 55t-34 146l45 321h86l-42 -296q-9 -65 23.5 -104t96.5 -39q63 0 108.5 36t58.5 95z" />
    <glyph glyph-name="Uhungarumlaut" unicode="&#x170;" horiz-adv-x="693" 
d="M274 757l101 129h96l-113 -129h-84zM469 757l100 129h97l-113 -129h-84zM308 -12q-119 0 -188 79t-53 197l60 426h91l-59 -424q-12 -81 34.5 -135.5t127.5 -54.5t143 54.5t74 135.5l59 424h91l-60 -426q-16 -118 -108 -197t-212 -79z" />
    <glyph glyph-name="uhungarumlaut" unicode="&#x171;" horiz-adv-x="600" 
d="M396 706l-113 -129h-84l101 129h96zM478 577h-84l100 129h97zM433 202l44 308h86l-72 -510h-86l11 80q-72 -92 -189 -92q-89 0 -136 55t-34 146l45 321h86l-42 -296q-9 -65 23.5 -104t96.5 -39q63 0 108.5 36t58.5 95z" />
    <glyph glyph-name="Uogonek" unicode="&#x172;" horiz-adv-x="693" 
d="M597 690h91l-60 -426q-13 -94 -76 -165.5t-153 -97.5q-94 -43 -103 -100q-4 -23 10 -37.5t37 -14.5q35 0 66 23l-9 -64q-37 -22 -83 -22t-72.5 28t-20.5 69q11 62 78 105q-117 2 -184 81t-51 195l60 426h91l-59 -424q-12 -81 34.5 -135.5t127.5 -54.5t143 54.5t74 135.5z
" />
    <glyph glyph-name="uogonek" unicode="&#x173;" horiz-adv-x="600" 
d="M477 510h86l-72 -510h-1q-111 -46 -121 -108q-4 -23 10 -37.5t37 -14.5q35 0 66 23l-9 -64q-37 -22 -83 -22t-72.5 28t-20.5 69q7 40 39 73t80 53h-11l11 80q-72 -92 -189 -92q-89 0 -136 55t-34 146l45 321h86l-42 -296q-9 -65 23.5 -104t96.5 -39q63 0 108.5 36
t58.5 95z" />
    <glyph glyph-name="Wcircumflex" unicode="&#x174;" horiz-adv-x="1124" 
d="M644 840l-83 -83h-82l119 129h105l82 -129h-82zM1061 690h99l-345 -690h-94l-117 558l-273 -558h-94l-151 690h101l116 -570l279 570h84l120 -570z" />
    <glyph glyph-name="wcircumflex" unicode="&#x175;" horiz-adv-x="903" 
d="M514 660l-83 -83h-82l119 129h105l82 -129h-82zM826 510h95l-266 -510h-90l-91 412l-207 -412h-90l-122 510h97l86 -408l207 408h89l91 -407z" />
    <glyph glyph-name="Ycircumflex" unicode="&#x176;" horiz-adv-x="677" 
d="M421 840l-83 -83h-82l119 129h105l82 -129h-82zM625 690h102l-343 -435l-36 -255h-91l36 255l-221 435h104l176 -345z" />
    <glyph glyph-name="ycircumflex" unicode="&#x177;" horiz-adv-x="568" 
d="M343 660l-83 -83h-82l119 129h105l82 -129h-82zM493 510h96l-406 -700h-163l12 79h103l67 113l-151 508h98l115 -408z" />
    <glyph glyph-name="Ydieresis" unicode="&#x178;" horiz-adv-x="677" 
d="M306 762q-23 0 -36 15.5t-10 37.5t21 37.5t41 15.5q22 0 35 -15t10 -38t-20.5 -38t-40.5 -15zM513 762q-23 0 -36 15.5t-10 37.5t20.5 37.5t40.5 15.5t36 -15.5t10 -37.5t-20.5 -37.5t-40.5 -15.5zM625 690h102l-343 -435l-36 -255h-91l36 255l-221 435h104l176 -345z
" />
    <glyph glyph-name="Zacute" unicode="&#x179;" horiz-adv-x="614" 
d="M556 886l-141 -129h-92l122 129h111zM627 690l-9 -66l-475 -538h406l-12 -86h-532l10 66l474 538h-395l12 86h521z" />
    <glyph glyph-name="zacute" unicode="&#x17a;" horiz-adv-x="500" 
d="M475 706l-141 -129h-92l122 129h111zM485 510l-10 -62l-335 -365h291l-11 -83h-412l10 62l334 365h-280l12 83h401z" />
    <glyph glyph-name="Zdotaccent" unicode="&#x17b;" horiz-adv-x="614" 
d="M377 762q-24 0 -38 16t-10 39q3 23 21.5 39t41.5 16q24 0 37.5 -16t10.5 -39q-4 -23 -22 -39t-41 -16zM627 690l-9 -66l-475 -538h406l-12 -86h-532l10 66l474 538h-395l12 86h521z" />
    <glyph glyph-name="zdotaccent" unicode="&#x17c;" horiz-adv-x="500" 
d="M296 582q-24 0 -38 16t-10 39q3 23 21.5 39t41.5 16q24 0 37.5 -16t10.5 -39q-4 -23 -22 -39t-41 -16zM485 510l-10 -62l-335 -365h291l-11 -83h-412l10 62l334 365h-280l12 83h401z" />
    <glyph glyph-name="Zcaron" unicode="&#x17d;" horiz-adv-x="614" 
d="M429 757h-105l-83 129h82l59 -83l83 83h82zM627 690l-9 -66l-475 -538h406l-12 -86h-532l10 66l474 538h-395l12 86h521z" />
    <glyph glyph-name="zcaron" unicode="&#x17e;" horiz-adv-x="500" 
d="M348 577h-105l-83 129h82l59 -83l83 83h82zM485 510l-10 -62l-335 -365h291l-11 -83h-412l10 62l334 365h-280l12 83h401z" />
    <glyph glyph-name="florin" unicode="&#x192;" horiz-adv-x="449" 
d="M472 602q-55 0 -88 -25.5t-51 -82.5l-34 -107h112l-11 -80h-126l-103 -328q-28 -88 -86 -128.5t-154 -40.5l13 88q55 0 88.5 25.5t51.5 82.5l95 301h-106l11 80h120l42 134q28 88 85.5 128.5t153.5 40.5z" />
    <glyph glyph-name="uni01C4" unicode="&#x1c4;" horiz-adv-x="1321" 
d="M1136 757h-105l-82 129h82l58 -83l83 83h82zM408 690q150 0 236 -98.5t66 -246.5q-21 -148 -135 -246.5t-264 -98.5h-266l97 690h266zM1334 690l-9 -66l-475 -538h406l-12 -86h-532l10 66l474 538h-395l12 86h521zM616 345q15 111 -48 185t-173 74h-173l-73 -518h173
q110 0 193.5 74t100.5 185z" />
    <glyph glyph-name="uni01C5" unicode="&#x1c5;" horiz-adv-x="1241" 
d="M1089 577h-105l-83 129h82l59 -83l83 83h82zM408 690q150 0 236 -98.5t66 -246.5q-21 -148 -135 -246.5t-264 -98.5h-266l97 690h266zM616 345q15 111 -48 185t-173 74h-173l-73 -518h173q110 0 193.5 74t100.5 185zM1226 510l-10 -62l-335 -365h291l-11 -83h-412l10 62
l334 365h-280l12 83h401z" />
    <glyph glyph-name="uni01C6" unicode="&#x1c6;" horiz-adv-x="1154" 
d="M517 413l43 307h86l-101 -720h-86l14 97q-85 -109 -214 -109q-109 0 -171 76.5t-46 190.5t100 190.5t193 76.5q63 0 110 -29t72 -80zM1002 577h-105l-83 129h82l59 -83l83 83h82zM1139 510l-10 -62l-335 -365h291l-11 -83h-412l10 62l334 365h-280l12 83h401zM287 71
q75 0 133.5 49t72.5 124l3 21q8 75 -36.5 124.5t-120.5 49.5q-79 0 -138.5 -52.5t-70.5 -131.5t33.5 -131.5t123.5 -52.5z" />
    <glyph glyph-name="uni01C7" unicode="&#x1c7;" horiz-adv-x="957" 
d="M234 690l-85 -604h265l-12 -86h-357l97 690h92zM845 690h91l-97 -690h-357l12 86h266z" />
    <glyph glyph-name="uni01C8" unicode="&#x1c8;" horiz-adv-x="705" 
d="M656 726q24 0 38 -16t11 -41q-4 -24 -22.5 -40.5t-43.5 -16.5q-24 0 -38 16.5t-11 40.5q3 25 22 41t44 16zM414 86l-12 -86h-357l97 690h92l-85 -604h265zM493 -123l89 633h86l-100 -712h-184l11 79h98z" />
    <glyph glyph-name="uni01C9" unicode="&#x1c9;" horiz-adv-x="506" 
d="M457 726q24 0 38 -16t11 -41q-4 -24 -22.5 -40.5t-43.5 -16.5q-24 0 -38 16.5t-11 40.5q3 25 22 41t44 16zM229 79l-12 -79h-180l101 720h86l-91 -641h96zM294 -123l89 633h86l-100 -712h-184l11 79h98z" />
    <glyph glyph-name="uni01CA" unicode="&#x1ca;" horiz-adv-x="1207" 
d="M552 152l75 538h91l-97 -690h-94l-315 538l-75 -538h-92l97 690h95zM1096 690h91l-97 -690h-357l12 86h266z" />
    <glyph glyph-name="uni01CB" unicode="&#x1cb;" horiz-adv-x="976" 
d="M927 726q24 0 38 -16t11 -41q-4 -24 -22.5 -40.5t-43.5 -16.5q-24 0 -38 16.5t-11 40.5q3 25 22 41t44 16zM627 690h91l-97 -690h-94l-315 538l-75 -538h-92l97 690h95l315 -538zM764 -123l89 633h86l-100 -712h-184l11 79h98z" />
    <glyph glyph-name="uni01CC" unicode="&#x1cc;" horiz-adv-x="853" 
d="M804 726q24 0 38 -16t11 -41q-4 -24 -22.5 -40.5t-43.5 -16.5q-24 0 -38 16.5t-11 40.5q3 25 22 41t44 16zM381 522q93 0 142 -56.5t36 -150.5l-45 -315h-86l41 288q10 68 -25 109.5t-102 41.5q-65 0 -112.5 -36t-63.5 -96l-43 -307h-86l72 510h86l-12 -82q75 94 198 94z
M641 -123l89 633h86l-100 -712h-184l11 79h98z" />
    <glyph glyph-name="uni01CD" unicode="&#x1cd;" horiz-adv-x="713" 
d="M479 757h-105l-83 129h82l59 -83l83 83h82zM555 0l-43 167h-339l-90 -167h-98l378 690h109l184 -690h-101zM219 252h271l-87 339z" />
    <glyph glyph-name="uni01CE" unicode="&#x1ce;" horiz-adv-x="538" 
d="M363 577h-105l-83 129h82l59 -83l83 83h82zM432 78h69l-12 -78h-144l9 66q-63 -78 -172 -78q-79 0 -124.5 48.5t-34.5 121.5q10 72 69 120.5t138 48.5h152l15 100h-303l12 83h388zM204 66q60 0 102 25t52 67l13 91h-141q-45 0 -79 -26t-39 -65q-6 -40 20.5 -66t71.5 -26z
" />
    <glyph glyph-name="Gcaron" unicode="&#x1e6;" horiz-adv-x="825" 
d="M529 757h-105l-83 129h82l59 -83l83 83h82zM435 367h344l-52 -367h-80l19 138q-49 -71 -126 -110.5t-172 -39.5q-154 0 -243 102.5t-67 254.5q21 152 139 254.5t272 102.5q123 0 206.5 -66.5t99.5 -172.5h-101q-20 69 -78 110t-139 41q-114 0 -201.5 -77t-103.5 -192
t49.5 -192t179.5 -77q99 0 179 58t110 150h-247z" />
    <glyph glyph-name="gcaron" unicode="&#x1e7;" horiz-adv-x="655" 
d="M426 577h-105l-83 129h82l59 -83l83 83h82zM532 510h86l-99 -700h-490l12 79h404l31 218q-85 -109 -215 -109q-109 0 -171.5 74.5t-46.5 187.5q16 112 99.5 187t192.5 75q63 0 111 -29t73 -80zM288 76q79 0 138.5 52.5t70.5 131.5q11 78 -34 130.5t-123 52.5t-138 -52.5
t-70 -130.5q-11 -79 33 -131.5t123 -52.5z" />
    <glyph glyph-name="uni01EA" unicode="&#x1ea;" horiz-adv-x="812" 
d="M469 702q154 0 243 -102.5t68 -254.5q-18 -123 -101.5 -216.5t-202.5 -126.5q-96 -43 -106 -101q-4 -23 10 -37.5t37 -14.5q35 0 66 23l-9 -64q-37 -22 -83 -22t-72.5 28t-20.5 69q11 62 78 105h-8q-154 0 -243 102.5t-67 254.5q21 152 139 254.5t272 102.5zM686 345
q16 115 -49.5 192t-179.5 77t-201.5 -77t-103.5 -192t49.5 -192t179.5 -77t201 77t104 192z" />
    <glyph glyph-name="uni01EB" unicode="&#x1eb;" horiz-adv-x="623" 
d="M350 522q115 0 182 -76.5t51 -190.5q-13 -90 -73 -159t-147 -95q-95 -44 -103 -100q-4 -23 10 -37.5t37 -14.5q35 0 66 23l-9 -64q-37 -22 -83 -22t-72.5 28t-20.5 69q11 62 78 105q-113 3 -177.5 79t-48.5 188q16 114 105 190.5t205 76.5zM494 255q11 79 -33.5 131.5
t-122.5 52.5q-79 0 -139 -52.5t-70 -131.5q-11 -79 33.5 -131.5t123.5 -52.5q78 0 138 52.5t70 131.5z" />
    <glyph glyph-name="uni01F1" unicode="&#x1f1;" horiz-adv-x="1321" 
d="M408 690q150 0 236 -98.5t66 -246.5q-21 -148 -135 -246.5t-264 -98.5h-266l97 690h266zM1334 690l-9 -66l-475 -538h406l-12 -86h-532l10 66l474 538h-395l12 86h521zM616 345q15 111 -48 185t-173 74h-173l-73 -518h173q110 0 193.5 74t100.5 185z" />
    <glyph glyph-name="uni01F2" unicode="&#x1f2;" horiz-adv-x="1241" 
d="M408 690q150 0 236 -98.5t66 -246.5q-21 -148 -135 -246.5t-264 -98.5h-266l97 690h266zM616 345q15 111 -48 185t-173 74h-173l-73 -518h173q110 0 193.5 74t100.5 185zM1226 510l-10 -62l-335 -365h291l-11 -83h-412l10 62l334 365h-280l12 83h401z" />
    <glyph glyph-name="uni01F3" unicode="&#x1f3;" horiz-adv-x="1154" 
d="M517 413l43 307h86l-101 -720h-86l14 97q-85 -109 -214 -109q-109 0 -171 76.5t-46 190.5t100 190.5t193 76.5q63 0 110 -29t72 -80zM1139 510l-10 -62l-335 -365h291l-11 -83h-412l10 62l334 365h-280l12 83h401zM287 71q75 0 133.5 49t72.5 124l3 21q8 75 -36.5 124.5
t-120.5 49.5q-79 0 -138.5 -52.5t-70.5 -131.5t33.5 -131.5t123.5 -52.5z" />
    <glyph glyph-name="uni01F4" unicode="&#x1f4;" horiz-adv-x="825" 
d="M656 886l-141 -129h-92l122 129h111zM435 367h344l-52 -367h-80l19 138q-49 -71 -126 -110.5t-172 -39.5q-154 0 -243 102.5t-67 254.5q21 152 139 254.5t272 102.5q123 0 206.5 -66.5t99.5 -172.5h-101q-20 69 -78 110t-139 41q-114 0 -201.5 -77t-103.5 -192t49.5 -192
t179.5 -77q99 0 179 58t110 150h-247z" />
    <glyph glyph-name="uni01F5" unicode="&#x1f5;" horiz-adv-x="655" 
d="M553 706l-141 -129h-92l122 129h111zM532 510h86l-99 -700h-490l12 79h404l31 218q-85 -109 -215 -109q-109 0 -171.5 74.5t-46.5 187.5q16 112 99.5 187t192.5 75q63 0 111 -29t73 -80zM288 76q79 0 138.5 52.5t70.5 131.5q11 78 -34 130.5t-123 52.5t-138 -52.5
t-70 -130.5q-11 -79 33 -131.5t123 -52.5z" />
    <glyph glyph-name="AEacute" unicode="&#x1fc;" horiz-adv-x="872" 
d="M741 886l-141 -129h-92l122 129h111zM871 604h-291l-30 -214h258l-12 -86h-258l-31 -218h296l-12 -86h-387l23 166h-259l-124 -166h-105l516 690h428zM230 250h209l49 346z" />
    <glyph glyph-name="aeacute" unicode="&#x1fd;" horiz-adv-x="949" 
d="M680 706l-141 -129h-92l122 129h111zM679 522q116 0 182.5 -76.5t50.5 -187.5q-4 -25 -8 -39h-448q2 -68 45.5 -110t112.5 -42q57 0 105.5 26.5t74.5 69.5h95q-40 -79 -117 -127t-169 -48q-132 0 -196 97q-31 -43 -89 -70t-129 -27q-87 0 -132.5 43.5t-35.5 111.5
q9 66 61.5 109.5t123.5 43.5h173l18 131h-303l12 83h383l-9 -61q88 73 199 73zM667 443q-67 0 -122 -41t-77 -106h358q-2 65 -46.5 106t-112.5 41zM206 66q55 0 103 22.5t70 59.5q-9 33 -9 71h-165q-37 0 -64.5 -21.5t-31.5 -54.5q-5 -34 20 -55.5t77 -21.5z" />
    <glyph glyph-name="Oslashacute" unicode="&#x1fe;" horiz-adv-x="812" 
d="M667 886l-141 -129h-92l122 129h111zM809 690l-95 -93q87 -103 66 -252q-22 -152 -140 -254.5t-272 -102.5q-122 0 -205 67l-56 -55h-79l95 93q-86 102 -65 252q21 152 139 254.5t272 102.5q121 0 206 -66l55 54h79zM152 345q-15 -108 42 -182l411 404q-61 47 -148 47
q-114 0 -201.5 -77t-103.5 -192zM686 345q15 107 -42 183l-411 -405q60 -47 148 -47q114 0 201 77t104 192z" />
    <glyph glyph-name="oslashacute" unicode="&#x1ff;" horiz-adv-x="623" 
d="M543 706l-141 -129h-92l122 129h111zM608 510l-72 -69q62 -76 47 -186q-16 -114 -104.5 -190.5t-204.5 -76.5q-93 0 -155 50l-39 -38h-65l72 69q-62 76 -47 186q16 114 105 190.5t205 76.5q92 0 154 -50l39 38h65zM129 255q-9 -72 25 -120l284 273q-42 31 -100 31
q-79 0 -139 -52.5t-70 -131.5zM494 255q10 70 -25 121l-283 -274q40 -31 100 -31q78 0 138 52.5t70 131.5z" />
    <glyph glyph-name="uni0200" unicode="&#x200;" horiz-adv-x="713" 
d="M374 757h-84l-77 129h96zM568 757h-83l-77 129h96zM555 0l-43 167h-339l-90 -167h-98l378 690h109l184 -690h-101zM219 252h271l-87 339z" />
    <glyph glyph-name="uni0201" unicode="&#x201;" horiz-adv-x="538" 
d="M257 577h-84l-77 129h96zM451 577h-83l-77 129h96zM432 78h69l-12 -78h-144l9 66q-63 -78 -172 -78q-79 0 -124.5 48.5t-34.5 121.5q10 72 69 120.5t138 48.5h152l15 100h-303l12 83h388zM204 66q60 0 102 25t52 67l13 91h-141q-45 0 -79 -26t-39 -65q-6 -40 20.5 -66
t71.5 -26z" />
    <glyph glyph-name="uni0202" unicode="&#x202;" horiz-adv-x="713" 
d="M435 822q-30 0 -53 -20t-27 -51h-68q8 57 53 95.5t104 38.5t93.5 -38.5t25.5 -95.5h-67q4 31 -13.5 51t-47.5 20zM555 0l-43 167h-339l-90 -167h-98l378 690h109l184 -690h-101zM219 252h271l-87 339z" />
    <glyph glyph-name="uni0203" unicode="&#x203;" horiz-adv-x="538" 
d="M318 642q-30 0 -53 -20t-27 -51h-68q8 57 53 95.5t104 38.5t93.5 -38.5t25.5 -95.5h-67q4 31 -13.5 51t-47.5 20zM432 78h69l-12 -78h-144l9 66q-63 -78 -172 -78q-79 0 -124.5 48.5t-34.5 121.5q10 72 69 120.5t138 48.5h152l15 100h-303l12 83h388zM204 66q60 0 102 25
t52 67l13 91h-141q-45 0 -79 -26t-39 -65q-6 -40 20.5 -66t71.5 -26z" />
    <glyph glyph-name="uni0204" unicode="&#x204;" horiz-adv-x="513" 
d="M290 757h-84l-77 129h96zM484 757h-83l-77 129h96zM512 604h-290l-30 -214h258l-13 -86h-257l-31 -218h295l-12 -86h-387l97 690h382z" />
    <glyph glyph-name="uni0205" unicode="&#x205;" horiz-adv-x="619" 
d="M304 577h-84l-77 129h96zM498 577h-83l-77 129h96zM349 522q116 0 182.5 -76.5t50.5 -190.5q-2 -19 -7 -36h-448q2 -68 45 -110t112 -42q57 0 105.5 26.5t75.5 69.5h94q-40 -79 -117 -127t-169 -48q-115 0 -182 76.5t-51 190.5t104.5 190.5t204.5 76.5zM338 443
q-68 0 -123 -41t-76 -106h357q-3 66 -46.5 106.5t-111.5 40.5z" />
    <glyph glyph-name="uni0206" unicode="&#x206;" horiz-adv-x="513" 
d="M351 822q-30 0 -53 -20t-27 -51h-68q8 57 53 95.5t104 38.5t93.5 -38.5t25.5 -95.5h-67q4 31 -13.5 51t-47.5 20zM512 604h-290l-30 -214h258l-13 -86h-257l-31 -218h295l-12 -86h-387l97 690h382z" />
    <glyph glyph-name="uni0207" unicode="&#x207;" horiz-adv-x="619" 
d="M365 642q-30 0 -53 -20t-27 -51h-68q8 57 53 95.5t104 38.5t93.5 -38.5t25.5 -95.5h-67q4 31 -13.5 51t-47.5 20zM349 522q116 0 182.5 -76.5t50.5 -190.5q-2 -19 -7 -36h-448q2 -68 45 -110t112 -42q57 0 105.5 26.5t75.5 69.5h94q-40 -79 -117 -127t-169 -48
q-115 0 -182 76.5t-51 190.5t104.5 190.5t204.5 76.5zM338 443q-68 0 -123 -41t-76 -106h357q-3 66 -46.5 106.5t-111.5 40.5z" />
    <glyph glyph-name="uni0208" unicode="&#x208;" horiz-adv-x="353" 
d="M195 757h-84l-77 129h96zM389 757h-83l-77 129h96zM87 604l12 86h277l-12 -86h-92l-74 -518h93l-12 -86h-277l12 86h92l74 518h-93z" />
    <glyph glyph-name="uni0209" unicode="&#x209;" horiz-adv-x="231" 
d="M24 577l-77 129h96l65 -129h-84zM219 577l-77 129h96l64 -129h-83zM37 0l72 510h86l-72 -510h-86z" />
    <glyph glyph-name="uni020A" unicode="&#x20a;" horiz-adv-x="353" 
d="M265 885q59 0 93.5 -38.5t25.5 -95.5h-67q4 31 -13.5 51t-47.5 20t-53 -20t-27 -51h-68q8 57 53 95.5t104 38.5zM87 604l12 86h277l-12 -86h-92l-74 -518h93l-12 -86h-277l12 86h92l74 518h-93z" />
    <glyph glyph-name="uni020B" unicode="&#x20b;" horiz-adv-x="231" 
d="M22 571q8 57 53 95.5t104 38.5t93.5 -38.5t25.5 -95.5h-67q4 31 -13.5 51t-47.5 20t-53 -20t-27 -51h-68zM37 0l72 510h86l-72 -510h-86z" />
    <glyph glyph-name="uni020C" unicode="&#x20c;" horiz-adv-x="812" 
d="M340 757l-77 129h96l65 -129h-84zM535 757l-77 129h96l64 -129h-83zM368 -12q-154 0 -243 102.5t-67 254.5q21 152 139 254.5t272 102.5t243 -102.5t68 -254.5q-22 -152 -140 -254.5t-272 -102.5zM381 76q114 0 201 77t104 192q16 115 -49.5 192t-179.5 77t-201.5 -77
t-103.5 -192t49.5 -192t179.5 -77z" />
    <glyph glyph-name="uni020D" unicode="&#x20d;" horiz-adv-x="623" 
d="M220 577l-77 129h96l65 -129h-84zM415 577l-77 129h96l64 -129h-83zM274 -12q-116 0 -183 76.5t-51 190.5t105 190.5t205 76.5q115 0 182 -76.5t51 -190.5t-104.5 -190.5t-204.5 -76.5zM286 71q78 0 138 52.5t70 131.5q11 79 -33.5 131.5t-122.5 52.5q-79 0 -139 -52.5
t-70 -131.5q-11 -79 33.5 -131.5t123.5 -52.5z" />
    <glyph glyph-name="uni020E" unicode="&#x20e;" horiz-adv-x="812" 
d="M337 751q8 57 53 95.5t104 38.5t93.5 -38.5t25.5 -95.5h-67q4 31 -13.5 51t-47.5 20t-53 -20t-27 -51h-68zM368 -12q-154 0 -243 102.5t-67 254.5q21 152 139 254.5t272 102.5t243 -102.5t68 -254.5q-22 -152 -140 -254.5t-272 -102.5zM381 76q114 0 201 77t104 192
q16 115 -49.5 192t-179.5 77t-201.5 -77t-103.5 -192t49.5 -192t179.5 -77z" />
    <glyph glyph-name="uni020F" unicode="&#x20f;" horiz-adv-x="623" 
d="M217 571q8 57 53 95.5t104 38.5t93.5 -38.5t25.5 -95.5h-67q4 31 -13.5 51t-47.5 20t-53 -20t-27 -51h-68zM274 -12q-116 0 -183 76.5t-51 190.5t105 190.5t205 76.5q115 0 182 -76.5t51 -190.5t-104.5 -190.5t-204.5 -76.5zM286 71q78 0 138 52.5t70 131.5
q11 79 -33.5 131.5t-122.5 52.5q-79 0 -139 -52.5t-70 -131.5q-11 -79 33.5 -131.5t123.5 -52.5z" />
    <glyph glyph-name="uni0210" unicode="&#x210;" horiz-adv-x="565" 
d="M300 757h-84l-77 129h96zM494 757h-83l-77 129h96zM552 480q-11 -77 -66 -132.5t-131 -69.5l143 -278h-111l-137 274h-74l-39 -274h-92l97 690h224q92 0 145.5 -60t40.5 -150zM458 479q7 54 -23 89.5t-83 35.5h-130l-35 -250h130q53 0 93.5 35.5t47.5 89.5z" />
    <glyph glyph-name="uni0211" unicode="&#x211;" horiz-adv-x="355" 
d="M190 577h-84l-77 129h96zM384 577h-83l-77 129h96zM182 418q73 100 181 100l-12 -89q-72 0 -122 -40t-67 -110l-39 -279h-86l72 510h86z" />
    <glyph glyph-name="uni0212" unicode="&#x212;" horiz-adv-x="565" 
d="M361 822q-30 0 -53 -20t-27 -51h-68q8 57 53 95.5t104 38.5t93.5 -38.5t25.5 -95.5h-67q4 31 -13.5 51t-47.5 20zM552 480q-11 -77 -66 -132.5t-131 -69.5l143 -278h-111l-137 274h-74l-39 -274h-92l97 690h224q92 0 145.5 -60t40.5 -150zM458 479q7 54 -23 89.5
t-83 35.5h-130l-35 -250h130q53 0 93.5 35.5t47.5 89.5z" />
    <glyph glyph-name="uni0213" unicode="&#x213;" horiz-adv-x="355" 
d="M261 705q59 0 93.5 -38.5t25.5 -95.5h-67q4 31 -13.5 51t-47.5 20t-53 -20t-27 -51h-68q8 57 53 95.5t104 38.5zM182 418q73 100 181 100l-12 -89q-72 0 -122 -40t-67 -110l-39 -279h-86l72 510h86z" />
    <glyph glyph-name="uni0214" unicode="&#x214;" horiz-adv-x="693" 
d="M280 757l-77 129h96l65 -129h-84zM475 757l-77 129h96l64 -129h-83zM308 -12q-119 0 -188 79t-53 197l60 426h91l-59 -424q-12 -81 34.5 -135.5t127.5 -54.5t143 54.5t74 135.5l59 424h91l-60 -426q-16 -118 -108 -197t-212 -79z" />
    <glyph glyph-name="uni0215" unicode="&#x215;" horiz-adv-x="600" 
d="M289 577h-84l-77 129h96zM483 577h-83l-77 129h96zM477 510h86l-72 -510h-86l11 80q-72 -92 -189 -92q-89 0 -136 55t-34 146l45 321h86l-42 -296q-9 -65 23.5 -104t96.5 -39q63 0 108.5 36t58.5 95z" />
    <glyph glyph-name="uni0216" unicode="&#x216;" horiz-adv-x="693" 
d="M277 751q8 57 53 95.5t104 38.5t93.5 -38.5t25.5 -95.5h-67q4 31 -13.5 51t-47.5 20t-53 -20t-27 -51h-68zM308 -12q-119 0 -188 79t-53 197l60 426h91l-59 -424q-12 -81 34.5 -135.5t127.5 -54.5t143 54.5t74 135.5l59 424h91l-60 -426q-16 -118 -108 -197t-212 -79z
" />
    <glyph glyph-name="uni0217" unicode="&#x217;" horiz-adv-x="600" 
d="M350 642q-30 0 -53 -20t-27 -51h-68q8 57 53 95.5t104 38.5t93.5 -38.5t25.5 -95.5h-67q4 31 -13.5 51t-47.5 20zM477 510h86l-72 -510h-86l11 80q-72 -92 -189 -92q-89 0 -136 55t-34 146l45 321h86l-42 -296q-9 -65 23.5 -104t96.5 -39q63 0 108.5 36t58.5 95z" />
    <glyph glyph-name="uni0218" unicode="&#x218;" horiz-adv-x="532" 
d="M228 -12q-95 0 -151 59.5t-44 147.5h94q-7 -53 26 -89t89 -36q55 0 96 31.5t47 78.5q7 48 -27.5 80t-104.5 50q-185 47 -163 202q10 81 79 135.5t160 54.5t144 -56.5t41 -141.5h-94q7 49 -22.5 82.5t-80.5 33.5q-50 0 -88.5 -30t-44.5 -74q-13 -89 123 -125
q195 -50 173 -205q-11 -85 -83.5 -141.5t-168.5 -56.5zM132 -220l56 154h90l-75 -154h-71z" />
    <glyph glyph-name="uni0219" unicode="&#x219;" horiz-adv-x="422" 
d="M173 -12q-74 0 -116.5 45.5t-32.5 111.5h88q-5 -33 16.5 -56t56.5 -23q34 0 60.5 19.5t30.5 48.5q4 33 -18 54t-70 33q-141 39 -125 154q9 66 62.5 106.5t123.5 40.5t111 -44t32 -107h-88q4 30 -15.5 51.5t-52.5 21.5q-31 0 -55.5 -19t-28.5 -45q-4 -31 19 -52t69 -33
q143 -39 127 -153q-10 -69 -65 -111.5t-129 -42.5zM76 -220l56 154h90l-75 -154h-71z" />
    <glyph glyph-name="uni021A" unicode="&#x21a;" horiz-adv-x="546" 
d="M578 690l-12 -86h-198l-85 -604h-92l85 604h-198l12 86h488zM139 -220l56 154h90l-75 -154h-71z" />
    <glyph glyph-name="uni021B" unicode="&#x21b;" horiz-adv-x="397" 
d="M384 432h-142l-50 -353h143l-11 -79h-229l61 432h-99l11 78h99l21 150h86l-21 -150h143zM105 -220l56 154h90l-75 -154h-71z" />
    <glyph glyph-name="uni0232" unicode="&#x232;" horiz-adv-x="677" 
d="M540 845l-10 -73h-237l10 73h237zM625 690h102l-343 -435l-36 -255h-91l36 255l-221 435h104l176 -345z" />
    <glyph glyph-name="uni0233" unicode="&#x233;" horiz-adv-x="568" 
d="M462 665l-10 -73h-237l10 73h237zM493 510h96l-406 -700h-163l12 79h103l67 113l-151 508h98l115 -408z" />
    <glyph glyph-name="uni0237" unicode="&#x237;" horiz-adv-x="237" 
d="M114 510h86l-100 -712h-184l11 79h98z" />
    <glyph glyph-name="uni02BC" unicode="&#x2bc;" horiz-adv-x="101" 
d="M37 519l49 201h80l-63 -201h-66z" />
    <glyph glyph-name="circumflex" unicode="&#x2c6;" horiz-adv-x="306" 
d="M351 577h-82l-59 83l-83 -83h-82l119 129h105z" />
    <glyph glyph-name="caron" unicode="&#x2c7;" horiz-adv-x="306" 
d="M287 706h82l-118 -129h-105l-83 129h82l59 -83z" />
    <glyph glyph-name="breve" unicode="&#x2d8;" horiz-adv-x="276" 
d="M182 567q-59 0 -93 38t-26 95h68q-4 -30 13 -50.5t46 -20.5q30 0 53 20.5t28 50.5h68q-8 -57 -53 -95t-104 -38z" />
    <glyph glyph-name="dotaccent" unicode="&#x2d9;" horiz-adv-x="111" 
d="M102 582q-24 0 -38 16t-10 39q3 23 21.5 39t41.5 16q24 0 37.5 -16t10.5 -39q-4 -23 -22 -39t-41 -16z" />
    <glyph glyph-name="ring" unicode="&#x2da;" horiz-adv-x="174" 
d="M130 563q-37 0 -58.5 24.5t-16.5 61.5q5 36 33.5 60.5t65.5 24.5t59 -24.5t17 -60.5q-5 -37 -34 -61.5t-66 -24.5zM137 608q17 0 30 11.5t15 29.5q2 17 -7.5 28.5t-26.5 11.5t-30 -11.5t-15 -28.5q-2 -18 7.5 -29.5t26.5 -11.5z" />
    <glyph glyph-name="ogonek" unicode="&#x2db;" horiz-adv-x="195" 
d="M39 -223q-46 0 -72.5 28t-20.5 69q7 41 41.5 75.5t85.5 53.5h65l1 -3q-111 -46 -121 -108q-4 -23 10 -37.5t37 -14.5q35 0 66 23l-9 -64q-37 -22 -83 -22z" />
    <glyph glyph-name="tilde" unicode="&#x2dc;" horiz-adv-x="339" 
d="M284 583q-33 0 -66 27.5t-53 27.5q-21 0 -37 -14.5t-19 -35.5h-62q7 52 39 85t79 33q32 0 65 -27t53 -27q21 0 37 14t19 36h62q-7 -52 -39 -85.5t-78 -33.5z" />
    <glyph glyph-name="hungarumlaut" unicode="&#x2dd;" horiz-adv-x="373" 
d="M45 577l101 129h96l-113 -129h-84zM240 577l100 129h97l-113 -129h-84z" />
    <glyph glyph-name="gravecomb" unicode="&#x300;" 
d="M-46 577l-105 129h111l86 -129h-92z" />
    <glyph glyph-name="acutecomb" unicode="&#x301;" 
d="M-169 577l122 129h111l-141 -129h-92z" />
    <glyph glyph-name="uni0302" unicode="&#x302;" 
d="M45 577h-82l-59 83l-83 -83h-82l119 129h105z" />
    <glyph glyph-name="tildecomb" unicode="&#x303;" 
d="M-55 583q-33 0 -66 27.5t-53 27.5q-21 0 -37 -14.5t-19 -35.5h-62q7 52 39 85t79 33q32 0 65 -27t53 -27q21 0 37 14t19 36h62q-7 -52 -39 -85.5t-78 -33.5z" />
    <glyph glyph-name="uni0304" unicode="&#x304;" 
d="M-189 592l10 73h237l-10 -73h-237z" />
    <glyph glyph-name="uni0306" unicode="&#x306;" 
d="M-94 567q-59 0 -93 38t-26 95h68q-4 -30 13 -50.5t46 -20.5q30 0 53 20.5t28 50.5h68q-8 -57 -53 -95t-104 -38z" />
    <glyph glyph-name="uni0307" unicode="&#x307;" 
d="M-9 582q-24 0 -38 16t-10 39q3 23 21.5 39t41.5 16q24 0 37.5 -16t10.5 -39q-4 -23 -22 -39t-41 -16z" />
    <glyph glyph-name="uni0308" unicode="&#x308;" 
d="M-215 582q-23 0 -36 15.5t-10 37.5t21 37.5t41 15.5q22 0 35 -15t10 -38t-20.5 -38t-40.5 -15zM-8 582q-23 0 -36 15.5t-10 37.5t20.5 37.5t40.5 15.5t36 -15.5t10 -37.5t-20.5 -37.5t-40.5 -15.5z" />
    <glyph glyph-name="uni030A" unicode="&#x30a;" 
d="M-44 563q-37 0 -58.5 24.5t-16.5 61.5q5 36 33.5 60.5t65.5 24.5t59 -24.5t17 -60.5q-5 -37 -34 -61.5t-66 -24.5zM-37 608q17 0 30 11.5t15 29.5q2 17 -7.5 28.5t-26.5 11.5t-30 -11.5t-15 -28.5q-2 -18 7.5 -29.5t26.5 -11.5z" />
    <glyph glyph-name="uni030B" unicode="&#x30b;" 
d="M-328 577l101 129h96l-113 -129h-84zM-133 577l100 129h97l-113 -129h-84z" />
    <glyph glyph-name="uni030C" unicode="&#x30c;" 
d="M-19 706h82l-118 -129h-105l-83 129h82l59 -83z" />
    <glyph glyph-name="uni030F" unicode="&#x30f;" 
d="M-233 577l-77 129h96l65 -129h-84zM-38 577l-77 129h96l64 -129h-83z" />
    <glyph glyph-name="uni0311" unicode="&#x311;" 
d="M-232 571q8 57 53 95.5t104 38.5t93.5 -38.5t25.5 -95.5h-67q4 31 -13.5 51t-47.5 20t-53 -20t-27 -51h-68z" />
    <glyph glyph-name="uni0312" unicode="&#x312;" 
d="M-81 571l76 154h71l-57 -154h-90z" />
    <glyph glyph-name="dotbelowcomb" unicode="&#x323;" 
d="M-117 -182q-23 0 -37 16t-11 39q4 23 22 39t41 16q24 0 38 -16t10 -39q-3 -23 -21.5 -39t-41.5 -16z" />
    <glyph glyph-name="uni0326" unicode="&#x326;" 
d="M-191 -220l56 154h90l-75 -154h-71z" />
    <glyph glyph-name="uni0327" unicode="&#x327;" 
d="M-132 -34q39 0 61.5 -27.5t16.5 -67.5q-5 -41 -39 -69t-78 -28q-43 0 -69 28t-20 69h54q-3 -20 9.5 -34t32.5 -14q21 0 37 14t19 34q4 21 -8.5 35t-33.5 14q-20 0 -36 -14l-46 22l65 72v2h62v-2l-33 -34h6z" />
    <glyph glyph-name="uni0328" unicode="&#x328;" 
d="M-147 -223q-46 0 -72.5 28t-20.5 69q7 41 41.5 75.5t85.5 53.5h65l1 -3q-111 -46 -121 -108q-4 -23 10 -37.5t37 -14.5q35 0 66 23l-9 -64q-37 -22 -83 -22z" />
    <glyph glyph-name="uni0335" unicode="&#x335;" 
d="M-291 243l8 63h290l-8 -63h-290z" />
    <glyph glyph-name="uni0336" unicode="&#x336;" 
d="M-682 242l8 64h682l-9 -64h-681z" />
    <glyph glyph-name="uni0337" unicode="&#x337;" 
d="M-557 0l528 510h65l-528 -510h-65z" />
    <glyph glyph-name="uni0338" unicode="&#x338;" 
d="M-720 0l702 690h79l-702 -690h-79z" />
    <glyph glyph-name="uni1E0C" unicode="&#x1e0c;" horiz-adv-x="741" 
d="M408 690q150 0 236 -98.5t66 -246.5q-21 -148 -135 -246.5t-264 -98.5h-266l97 690h266zM616 345q15 111 -48 185t-173 74h-173l-73 -518h173q110 0 193.5 74t100.5 185zM315 -72q24 0 38 -16t10 -39q-3 -23 -21.5 -39t-41.5 -16t-37 16t-11 39q4 23 22 39t41 16z" />
    <glyph glyph-name="uni1E0D" unicode="&#x1e0d;" horiz-adv-x="654" 
d="M560 720h86l-101 -720h-86l14 97q-85 -109 -214 -109q-109 0 -171 76.5t-46 190.5t100 190.5t193 76.5q63 0 110 -29t72 -80zM287 71q75 0 133.5 49t72.5 124l3 21q8 75 -36.5 124.5t-120.5 49.5q-79 0 -138.5 -52.5t-70.5 -131.5t33.5 -131.5t123.5 -52.5zM279 -72
q24 0 38 -16t10 -39q-3 -23 -21.5 -39t-41.5 -16t-37 16t-11 39q4 23 22 39t41 16z" />
    <glyph glyph-name="uni1E24" unicode="&#x1e24;" horiz-adv-x="730" 
d="M618 690h92l-97 -690h-92l43 304h-384l-43 -304h-92l97 690h92l-42 -300h384zM319 -72q24 0 38 -16t10 -39q-3 -23 -21.5 -39t-41.5 -16t-37 16t-11 39q4 23 22 39t41 16z" />
    <glyph glyph-name="uni1E25" unicode="&#x1e25;" horiz-adv-x="616" 
d="M381 522q93 0 142 -56.5t36 -150.5l-45 -315h-86l41 288q10 68 -25 109.5t-102 41.5q-66 0 -113.5 -36.5t-62.5 -97.5l-43 -305h-86l101 720h86l-41 -295q75 97 198 97zM265 -72q24 0 38 -16t10 -39q-3 -23 -21.5 -39t-41.5 -16t-37 16t-11 39q4 23 22 39t41 16z" />
    <glyph glyph-name="uni1E44" unicode="&#x1e44;" horiz-adv-x="739" 
d="M443 762q-24 0 -38 16t-10 39q3 23 21.5 39t41.5 16q24 0 37.5 -16t10.5 -39q-4 -23 -22 -39t-41 -16zM627 690h91l-97 -690h-94l-315 538l-75 -538h-92l97 690h95l315 -538z" />
    <glyph glyph-name="uni1E45" unicode="&#x1e45;" horiz-adv-x="616" 
d="M358 582q-24 0 -38 16t-10 39q3 23 21.5 39t41.5 16q24 0 37.5 -16t10.5 -39q-4 -23 -22 -39t-41 -16zM381 522q93 0 142 -56.5t36 -150.5l-45 -315h-86l41 288q10 68 -25 109.5t-102 41.5q-65 0 -112.5 -36t-63.5 -96l-43 -307h-86l72 510h86l-12 -82q75 94 198 94z" />
    <glyph glyph-name="uni1E5A" unicode="&#x1e5a;" horiz-adv-x="565" 
d="M552 480q-11 -77 -66 -132.5t-131 -69.5l143 -278h-111l-137 274h-74l-39 -274h-92l97 690h224q92 0 145.5 -60t40.5 -150zM458 479q7 54 -23 89.5t-83 35.5h-130l-35 -250h130q53 0 93.5 35.5t47.5 89.5zM246 -72q24 0 38 -16t10 -39q-3 -23 -21.5 -39t-41.5 -16t-37 16
t-11 39q4 23 22 39t41 16z" />
    <glyph glyph-name="uni1E5B" unicode="&#x1e5b;" horiz-adv-x="355" 
d="M182 418q73 100 181 100l-12 -89q-72 0 -122 -40t-67 -110l-39 -279h-86l72 510h86zM69 -72q24 0 38 -16t10 -39q-3 -23 -21.5 -39t-41.5 -16t-37 16t-11 39q4 23 22 39t41 16z" />
    <glyph glyph-name="uni1E62" unicode="&#x1e62;" horiz-adv-x="532" 
d="M228 -12q-95 0 -151 59.5t-44 147.5h94q-7 -53 26 -89t89 -36q55 0 96 31.5t47 78.5q7 48 -27.5 80t-104.5 50q-185 47 -163 202q10 81 79 135.5t160 54.5t144 -56.5t41 -141.5h-94q7 49 -22.5 82.5t-80.5 33.5q-50 0 -88.5 -30t-44.5 -74q-13 -89 123 -125
q195 -50 173 -205q-11 -85 -83.5 -141.5t-168.5 -56.5zM205 -182q-23 0 -37 16t-11 39q4 23 22 39t41 16q24 0 38 -16t10 -39q-3 -23 -21.5 -39t-41.5 -16z" />
    <glyph glyph-name="uni1E63" unicode="&#x1e63;" horiz-adv-x="422" 
d="M173 -12q-74 0 -116.5 45.5t-32.5 111.5h88q-5 -33 16.5 -56t56.5 -23q34 0 60.5 19.5t30.5 48.5q4 33 -18 54t-70 33q-141 39 -125 154q9 66 62.5 106.5t123.5 40.5t111 -44t32 -107h-88q4 30 -15.5 51.5t-52.5 21.5q-31 0 -55.5 -19t-28.5 -45q-4 -31 19 -52t69 -33
q143 -39 127 -153q-10 -69 -65 -111.5t-129 -42.5zM149 -182q-23 0 -37 16t-11 39q4 23 22 39t41 16q24 0 38 -16t10 -39q-3 -23 -21.5 -39t-41.5 -16z" />
    <glyph glyph-name="uni1E6C" unicode="&#x1e6c;" horiz-adv-x="546" 
d="M578 690l-12 -86h-198l-85 -604h-92l85 604h-198l12 86h488zM227 -72q24 0 38 -16t10 -39q-3 -23 -21.5 -39t-41.5 -16t-37 16t-11 39q4 23 22 39t41 16z" />
    <glyph glyph-name="uni1E6D" unicode="&#x1e6d;" horiz-adv-x="397" 
d="M384 432h-142l-50 -353h143l-11 -79h-229l61 432h-99l11 78h99l21 150h86l-21 -150h143zM192 -72q24 0 38 -16t10 -39q-3 -23 -21.5 -39t-41.5 -16t-37 16t-11 39q4 23 22 39t41 16z" />
    <glyph glyph-name="Wgrave" unicode="&#x1e80;" horiz-adv-x="1124" 
d="M686 757h-92l-105 129h111zM1061 690h99l-345 -690h-94l-117 558l-273 -558h-94l-151 690h101l116 -570l279 570h84l120 -570z" />
    <glyph glyph-name="wgrave" unicode="&#x1e81;" horiz-adv-x="903" 
d="M555 577h-92l-105 129h111zM826 510h95l-266 -510h-90l-91 412l-207 -412h-90l-122 510h97l86 -408l207 408h89l91 -407z" />
    <glyph glyph-name="Wacute" unicode="&#x1e82;" horiz-adv-x="1124" 
d="M812 886l-141 -129h-92l122 129h111zM1061 690h99l-345 -690h-94l-117 558l-273 -558h-94l-151 690h101l116 -570l279 570h84l120 -570z" />
    <glyph glyph-name="wacute" unicode="&#x1e83;" horiz-adv-x="903" 
d="M682 706l-141 -129h-92l122 129h111zM826 510h95l-266 -510h-90l-91 412l-207 -412h-90l-122 510h97l86 -408l207 408h89l91 -407z" />
    <glyph glyph-name="Wdieresis" unicode="&#x1e84;" horiz-adv-x="1124" 
d="M529 762q-23 0 -36 15.5t-10 37.5t21 37.5t41 15.5q22 0 35 -15t10 -38t-20.5 -38t-40.5 -15zM736 762q-23 0 -36 15.5t-10 37.5t20.5 37.5t40.5 15.5t36 -15.5t10 -37.5t-20.5 -37.5t-40.5 -15.5zM1061 690h99l-345 -690h-94l-117 558l-273 -558h-94l-151 690h101
l116 -570l279 570h84l120 -570z" />
    <glyph glyph-name="wdieresis" unicode="&#x1e85;" horiz-adv-x="903" 
d="M399 582q-23 0 -36 15.5t-10 37.5t21 37.5t41 15.5q22 0 35 -15t10 -38t-20.5 -38t-40.5 -15zM606 582q-23 0 -36 15.5t-10 37.5t20.5 37.5t40.5 15.5t36 -15.5t10 -37.5t-20.5 -37.5t-40.5 -15.5zM826 510h95l-266 -510h-90l-91 412l-207 -412h-90l-122 510h97l86 -408
l207 408h89l91 -407z" />
    <glyph glyph-name="uni1E92" unicode="&#x1e92;" horiz-adv-x="614" 
d="M627 690l-9 -66l-475 -538h406l-12 -86h-532l10 66l474 538h-395l12 86h521zM259 -72q24 0 38 -16t10 -39q-3 -23 -21.5 -39t-41.5 -16t-37 16t-11 39q4 23 22 39t41 16z" />
    <glyph glyph-name="uni1E93" unicode="&#x1e93;" horiz-adv-x="500" 
d="M485 510l-10 -62l-335 -365h291l-11 -83h-412l10 62l334 365h-280l12 83h401zM203 -72q24 0 38 -16t10 -39q-3 -23 -21.5 -39t-41.5 -16t-37 16t-11 39q4 23 22 39t41 16z" />
    <glyph glyph-name="uni1E9E" unicode="&#x1e9e;" horiz-adv-x="617" 
d="M418 421q84 -8 131.5 -69.5t35.5 -147.5q-13 -93 -85 -154.5t-166 -61.5q-70 0 -113 33l13 93q13 -16 41.5 -27t57.5 -11q60 0 105.5 37.5t52.5 94.5q8 55 -24 92.5t-87 37.5h-72l9 67l167 199h-262l-85 -604h-92l97 690h455l-10 -75z" />
    <glyph glyph-name="uni1EA0" unicode="&#x1ea0;" horiz-adv-x="713" 
d="M656 0h-101l-43 167h-339l-90 -167h-98l378 690h109zM219 252h271l-87 339zM309 -72q24 0 38 -16t10 -39q-3 -23 -21.5 -39t-41.5 -16t-37 16t-11 39q4 23 22 39t41 16z" />
    <glyph glyph-name="uni1EA1" unicode="&#x1ea1;" horiz-adv-x="538" 
d="M432 78h69l-12 -78h-144l9 66q-63 -78 -172 -78q-79 0 -124.5 48.5t-34.5 121.5q10 72 69 120.5t138 48.5h152l15 100h-303l12 83h388zM204 66q60 0 102 25t52 67l13 91h-141q-45 0 -79 -26t-39 -65q-6 -40 20.5 -66t71.5 -26zM218 -72q24 0 38 -16t10 -39
q-3 -23 -21.5 -39t-41.5 -16t-37 16t-11 39q4 23 22 39t41 16z" />
    <glyph glyph-name="uni1EB8" unicode="&#x1eb8;" horiz-adv-x="513" 
d="M512 604h-290l-30 -214h258l-13 -86h-257l-31 -218h295l-12 -86h-387l97 690h382zM225 -72q24 0 38 -16t10 -39q-3 -23 -21.5 -39t-41.5 -16t-37 16t-11 39q4 23 22 39t41 16z" />
    <glyph glyph-name="uni1EB9" unicode="&#x1eb9;" horiz-adv-x="619" 
d="M349 522q116 0 182.5 -76.5t50.5 -190.5q-2 -19 -7 -36h-448q2 -68 45 -110t112 -42q57 0 105.5 26.5t75.5 69.5h94q-40 -79 -117 -127t-169 -48q-115 0 -182 76.5t-51 190.5t104.5 190.5t204.5 76.5zM338 443q-68 0 -123 -41t-76 -106h357q-3 66 -46.5 106.5
t-111.5 40.5zM265 -72q24 0 38 -16t10 -39q-3 -23 -21.5 -39t-41.5 -16t-37 16t-11 39q4 23 22 39t41 16z" />
    <glyph glyph-name="uni1EBC" unicode="&#x1ebc;" horiz-adv-x="513" 
d="M292 818q-21 0 -37 -14.5t-19 -35.5h-62q7 52 39 85t79 33q32 0 65 -27t53 -27q21 0 37 14t19 36h62q-7 -52 -39 -85.5t-78 -33.5q-33 0 -66 27.5t-53 27.5zM524 690l-12 -86h-290l-30 -214h258l-13 -86h-257l-31 -218h295l-12 -86h-387l97 690h382z" />
    <glyph glyph-name="uni1EBD" unicode="&#x1ebd;" horiz-adv-x="619" 
d="M307 638q-21 0 -37 -14.5t-19 -35.5h-62q7 52 39 85t79 33q32 0 65 -27t53 -27q21 0 37 14t19 36h62q-7 -52 -39 -85.5t-78 -33.5q-33 0 -66 27.5t-53 27.5zM349 522q116 0 182.5 -76.5t50.5 -190.5q-2 -19 -7 -36h-448q2 -68 45 -110t112 -42q57 0 105.5 26.5t75.5 69.5
h94q-40 -79 -117 -127t-169 -48q-115 0 -182 76.5t-51 190.5t104.5 190.5t204.5 76.5zM338 443q-68 0 -123 -41t-76 -106h357q-3 66 -46.5 106.5t-111.5 40.5z" />
    <glyph glyph-name="uni1ECA" unicode="&#x1eca;" horiz-adv-x="353" 
d="M364 604h-92l-74 -518h93l-12 -86h-277l12 86h92l74 518h-93l12 86h277zM130 -72q24 0 38 -16t10 -39q-3 -23 -21.5 -39t-41.5 -16t-37 16t-11 39q4 23 22 39t41 16z" />
    <glyph glyph-name="uni1ECB" unicode="&#x1ecb;" horiz-adv-x="231" 
d="M166 612q-25 0 -39 16.5t-11 40.5q4 25 22.5 41t43.5 16t39 -16t10 -41q-3 -24 -22 -40.5t-43 -16.5zM37 0l72 510h86l-72 -510h-86zM54 -182q-23 0 -37 16t-11 39q4 23 22 39t41 16q24 0 38 -16t10 -39q-3 -23 -21.5 -39t-41.5 -16z" />
    <glyph glyph-name="uni1ECC" unicode="&#x1ecc;" horiz-adv-x="812" 
d="M368 -12q-154 0 -243 102.5t-67 254.5q21 152 139 254.5t272 102.5t243 -102.5t68 -254.5q-22 -152 -140 -254.5t-272 -102.5zM381 76q114 0 201 77t104 192q16 115 -49.5 192t-179.5 77t-201.5 -77t-103.5 -192t49.5 -192t179.5 -77zM345 -182q-23 0 -37 16t-11 39
q4 23 22 39t41 16q24 0 38 -16t10 -39q-3 -23 -21.5 -39t-41.5 -16z" />
    <glyph glyph-name="uni1ECD" unicode="&#x1ecd;" horiz-adv-x="623" 
d="M274 -12q-116 0 -183 76.5t-51 190.5t105 190.5t205 76.5q115 0 182 -76.5t51 -190.5t-104.5 -190.5t-204.5 -76.5zM286 71q78 0 138 52.5t70 131.5q11 79 -33.5 131.5t-122.5 52.5q-79 0 -139 -52.5t-70 -131.5q-11 -79 33.5 -131.5t123.5 -52.5zM250 -182q-23 0 -37 16
t-11 39q4 23 22 39t41 16q24 0 38 -16t10 -39q-3 -23 -21.5 -39t-41.5 -16z" />
    <glyph glyph-name="uni1EE4" unicode="&#x1ee4;" horiz-adv-x="693" 
d="M308 -12q-119 0 -188 79t-53 197l60 426h91l-59 -424q-12 -81 34.5 -135.5t127.5 -54.5t143 54.5t74 135.5l59 424h91l-60 -426q-16 -118 -108 -197t-212 -79zM285 -182q-23 0 -37 16t-11 39q4 23 22 39t41 16q24 0 38 -16t10 -39q-3 -23 -21.5 -39t-41.5 -16z" />
    <glyph glyph-name="uni1EE5" unicode="&#x1ee5;" horiz-adv-x="600" 
d="M477 510h86l-72 -510h-86l11 80q-72 -92 -189 -92q-89 0 -136 55t-34 146l45 321h86l-42 -296q-9 -65 23.5 -104t96.5 -39q63 0 108.5 36t58.5 95zM250 -72q24 0 38 -16t10 -39q-3 -23 -21.5 -39t-41.5 -16t-37 16t-11 39q4 23 22 39t41 16z" />
    <glyph glyph-name="Ygrave" unicode="&#x1ef2;" horiz-adv-x="677" 
d="M462 757h-92l-105 129h111zM625 690h102l-343 -435l-36 -255h-91l36 255l-221 435h104l176 -345z" />
    <glyph glyph-name="ygrave" unicode="&#x1ef3;" horiz-adv-x="568" 
d="M384 577h-92l-105 129h111zM493 510h96l-406 -700h-163l12 79h103l67 113l-151 508h98l115 -408z" />
    <glyph glyph-name="uni1EF8" unicode="&#x1ef8;" horiz-adv-x="677" 
d="M360 818q-21 0 -37 -14.5t-19 -35.5h-62q7 52 39 85t79 33q32 0 65 -27t53 -27q21 0 37 14t19 36h62q-7 -52 -39 -85.5t-78 -33.5q-33 0 -66 27.5t-53 27.5zM625 690h102l-343 -435l-36 -255h-91l36 255l-221 435h104l176 -345z" />
    <glyph glyph-name="uni1EF9" unicode="&#x1ef9;" horiz-adv-x="568" 
d="M281 638q-21 0 -37 -14.5t-19 -35.5h-62q7 52 39 85t79 33q32 0 65 -27t53 -27q21 0 37 14t19 36h62q-7 -52 -39 -85.5t-78 -33.5q-33 0 -66 27.5t-53 27.5zM493 510h96l-406 -700h-163l12 79h103l67 113l-151 508h98l115 -408z" />
    <glyph glyph-name="endash" unicode="&#x2013;" horiz-adv-x="608" 
d="M61 235l11 78h481l-11 -78h-481z" />
    <glyph glyph-name="emdash" unicode="&#x2014;" horiz-adv-x="1068" 
d="M61 235l11 78h941l-11 -78h-941z" />
    <glyph glyph-name="quoteleft" unicode="&#x2018;" horiz-adv-x="246" 
d="M78 445l130 245h75l-103 -245h-102z" />
    <glyph glyph-name="quoteright" unicode="&#x2019;" horiz-adv-x="246" 
d="M78 445l103 245h102l-131 -245h-74z" />
    <glyph glyph-name="quotesinglbase" unicode="&#x201a;" horiz-adv-x="240" 
d="M-35 -141l103 245h102l-131 -245h-74z" />
    <glyph glyph-name="quotedblleft" unicode="&#x201c;" horiz-adv-x="455" 
d="M78 445l130 245h75l-103 -245h-102zM287 445l130 245h75l-103 -245h-102z" />
    <glyph glyph-name="quotedblright" unicode="&#x201d;" horiz-adv-x="455" 
d="M78 445l103 245h102l-131 -245h-74zM287 445l103 245h102l-131 -245h-74z" />
    <glyph glyph-name="quotedblbase" unicode="&#x201e;" horiz-adv-x="449" 
d="M-35 -141l103 245h102l-131 -245h-74zM174 -141l103 245h102l-131 -245h-74z" />
    <glyph glyph-name="dagger" unicode="&#x2020;" horiz-adv-x="494" 
d="M467 510l-11 -78h-144l-88 -622h-80l88 622h-144l11 78h144l25 180h80l-25 -180h144z" />
    <glyph glyph-name="daggerdbl" unicode="&#x2021;" horiz-adv-x="494" 
d="M456 432h-144l-49 -344h144l-10 -78h-145l-28 -200h-80l28 200h-143l10 78h144l49 344h-144l11 78h144l25 180h80l-25 -180h144z" />
    <glyph glyph-name="bullet" unicode="&#x2022;" horiz-adv-x="318" 
d="M148 179q-41 0 -64.5 27t-17.5 68t37 68t72 27t64.5 -27t18.5 -68q-6 -41 -37.5 -68t-72.5 -27z" />
    <glyph glyph-name="ellipsis" unicode="&#x2026;" horiz-adv-x="722" 
d="M81 -7q-28 0 -44 18.5t-12 45.5t25 45.5t49 18.5q27 0 43 -18.5t12 -45.5t-25 -45.5t-48 -18.5zM324 -7q-28 0 -43.5 18.5t-11.5 45.5t24.5 45.5t48.5 18.5t43.5 -18.5t11.5 -45.5t-24.5 -45.5t-48.5 -18.5zM567 -7q-27 0 -43 18.5t-12 45.5t25 45.5t49 18.5
q27 0 43 -18.5t12 -45.5t-25 -45.5t-49 -18.5z" />
    <glyph glyph-name="perthousand" unicode="&#x2030;" horiz-adv-x="1209" 
d="M228 382q-70 0 -110 46t-30 114t62.5 114t122.5 46q69 0 108.5 -46t30.5 -114q-10 -68 -62.5 -114t-121.5 -46zM86 0l597 690h93l-597 -690h-93zM237 452q38 0 67 26t35 64q5 38 -16.5 64t-59.5 26t-67.5 -26t-34.5 -64q-6 -38 16 -64t60 -26zM588 -12q-69 0 -109 46
t-30 114t62.5 114t122.5 46q69 0 109 -46t30 -114t-63 -114t-122 -46zM961 -12q-69 0 -109 46t-30 114t62.5 114t122.5 46q69 0 109 -46t30 -114t-63 -114t-122 -46zM598 58q38 0 67.5 26t34.5 64t-16.5 64t-59.5 26t-67.5 -26t-34.5 -64t16.5 -64t59.5 -26zM971 58
q38 0 67.5 26t34.5 64t-16.5 64t-59.5 26t-67.5 -26t-34.5 -64t16.5 -64t59.5 -26z" />
    <glyph glyph-name="guilsinglleft" unicode="&#x2039;" horiz-adv-x="358" 
d="M340 467l-194 -203l138 -203h-102l-138 203l195 203h101z" />
    <glyph glyph-name="guilsinglright" unicode="&#x203a;" horiz-adv-x="358" 
d="M181 467l138 -203l-195 -203h-101l194 203l-138 203h102z" />
    <glyph glyph-name="fraction" unicode="&#x2044;" horiz-adv-x="182" 
d="M-227 0l580 690h81l-580 -690h-81z" />
    <glyph glyph-name="uni2070" unicode="&#x2070;" horiz-adv-x="396" 
d="M212 359q-71 0 -107.5 60t-23.5 154t66.5 154t124.5 60t107.5 -60t23.5 -154t-66.5 -154t-124.5 -60zM221 423q41 0 72.5 41t41.5 109q10 67 -10.5 108.5t-61.5 41.5t-72.5 -41.5t-41.5 -108.5t10.5 -108.5t61.5 -41.5z" />
    <glyph glyph-name="uni2074" unicode="&#x2074;" horiz-adv-x="357" 
d="M372 514l-8 -60h-53l-12 -88h-66l12 88h-195l7 48l220 278h80l-37 -266h52zM130 514h124l26 192z" />
    <glyph glyph-name="uni2075" unicode="&#x2075;" horiz-adv-x="351" 
d="M364 721h-172l-27 -116q34 24 76 24q59 0 92.5 -38.5t25.5 -96.5t-55 -96.5t-108 -38.5t-96.5 38.5t-27.5 96.5h68q-5 -33 13.5 -54.5t50.5 -21.5q33 0 58.5 22t30.5 54q5 33 -14.5 55.5t-52.5 22.5q-19 0 -40.5 -10t-32.5 -24h-67l54 242h232z" />
    <glyph glyph-name="uni2076" unicode="&#x2076;" horiz-adv-x="342" 
d="M232 631q58 0 92 -38.5t26 -95.5q-8 -59 -55 -98.5t-108 -39.5t-96.5 40t-27.5 98q7 47 39 85l159 198h78l-121 -150q4 1 14 1zM283 497q5 32 -14.5 54t-51.5 22t-56.5 -22t-29.5 -54q-5 -33 13.5 -54.5t51.5 -21.5q32 0 57 21.5t30 54.5z" />
    <glyph glyph-name="uni2077" unicode="&#x2077;" horiz-adv-x="326" 
d="M105 780h273l-7 -51l-220 -363h-73l213 352h-194z" />
    <glyph glyph-name="uni2078" unicode="&#x2078;" horiz-adv-x="335" 
d="M356 673q-9 -61 -69 -93q59 -33 50 -101q-8 -51 -52.5 -85.5t-102.5 -34.5q-59 0 -93.5 34.5t-27.5 85.5q9 67 78 101q-52 34 -43 93q7 49 48.5 81.5t97.5 32.5t88.5 -32.5t25.5 -81.5zM288 664q4 25 -12 42t-43 17q-26 0 -46.5 -17t-24.5 -42t12 -42.5t42 -17.5
q27 0 48 17.5t24 42.5zM270 488q4 28 -13.5 46.5t-47.5 18.5q-29 0 -51.5 -18.5t-27.5 -46.5q-4 -28 13.5 -46.5t47.5 -18.5t52.5 18.5t26.5 46.5z" />
    <glyph glyph-name="uni2079" unicode="&#x2079;" horiz-adv-x="342" 
d="M247 787q61 0 96.5 -39.5t27.5 -98.5q-7 -42 -39 -85l-159 -198h-78l120 150q-4 -1 -13 -1q-58 0 -92 38.5t-26 95.5q7 58 54 98t109 40zM304 649q4 33 -15 55t-51 22t-57 -22t-29 -55q-5 -32 13.5 -54t51.5 -22q32 0 57.5 22t29.5 54z" />
    <glyph glyph-name="franc" unicode="&#x20a3;" horiz-adv-x="508" 
d="M519 604h-276l-29 -209h234l-12 -86h-235l-16 -114h153l-12 -79h-152l-16 -116h-91l16 116h-65l11 79h65l70 495h367z" />
    <glyph glyph-name="lira" unicode="&#x20a4;" horiz-adv-x="579" 
d="M567 497h-92q7 50 -22.5 83t-79.5 33t-88 -33t-45 -83l-11 -79h212l-9 -71h-213l-8 -55h213l-10 -71h-214l-19 -135h338l-12 -86h-495l12 86h65l19 135h-65l11 71h65l8 55h-65l9 71h66l11 79q12 88 80.5 146.5t157.5 58.5t141 -58.5t40 -146.5z" />
    <glyph glyph-name="peseta" unicode="&#x20a7;" horiz-adv-x="637" 
d="M641 494l-8 -60h-49q-23 -87 -95 -142.5t-163 -55.5h-126l-33 -235h-91l61 433h-66l8 60h66l28 197h217q91 0 147.5 -55.5t54.5 -141.5h49zM252 605l-16 -111h261q-3 49 -36.5 80t-84.5 31h-124zM336 322q51 0 93.5 31t59.5 81h-261l-16 -112h124z" />
    <glyph glyph-name="uni20A8" unicode="&#x20a8;" horiz-adv-x="987" 
d="M366 690q92 0 145.5 -60t40.5 -150q-11 -77 -66 -132.5t-131 -69.5l143 -278h-111l-137 274h-74l-39 -274h-92l97 690h224zM458 479q7 54 -23 89.5t-83 35.5h-130l-35 -250h130q53 0 93.5 35.5t47.5 89.5zM957 371h-88q4 30 -15.5 51.5t-52.5 21.5q-31 0 -55.5 -19
t-28.5 -45q-4 -31 19 -52t69 -33q143 -39 127 -153q-10 -69 -65 -111.5t-129 -42.5t-116.5 45.5t-32.5 111.5h88q-5 -33 16.5 -56t56.5 -23q34 0 60.5 19.5t30.5 48.5q4 33 -18 54t-70 33q-141 39 -125 154q9 66 62.5 106.5t123.5 40.5t111 -44t32 -107z" />
    <glyph glyph-name="Euro" unicode="&#x20ac;" horiz-adv-x="759" 
d="M531 702q138 0 229 -83l-14 -101q-81 95 -217 95q-91 0 -167.5 -46t-115.5 -123h401l-32 -71h-396q-4 -17 -5 -28l-3 -28h377l-31 -71h-339q18 -77 81.5 -123t154.5 -46q137 0 243 95l-14 -101q-114 -83 -253 -83q-126 0 -211 71.5t-100 186.5h-87l31 71h54l3 28
q1 11 5 28h-75l32 71h65q47 115 152.5 186.5t231.5 71.5z" />
    <glyph glyph-name="uni20B1" unicode="&#x20b1;" horiz-adv-x="637" 
d="M592 484q0 -8 -2 -22q-2 -16 -4 -22h48l-9 -61h-62q-33 -65 -97 -104.5t-140 -39.5h-127l-33 -235h-91l53 379h-65l9 61h65l6 44h-65l9 62h65l20 144h218q76 0 128.5 -39.5t68.5 -104.5h62l-9 -62h-48zM251 607l-8 -61h238q-33 61 -112 61h-118zM228 440h262q4 14 5 22
t1 22h-262zM328 318q79 0 130 61h-239l-8 -61h117z" />
    <glyph glyph-name="uni20B5" unicode="&#x20b5;" horiz-adv-x="816" 
d="M433 86q81 13 144.5 66t91.5 130h95q-35 -114 -129.5 -193t-214.5 -92l-9 -67h-86l9 66q-136 14 -211 111.5t-55 237.5q19 139 122 237t243 112l9 66h86l-9 -67q116 -14 188 -92.5t75 -192.5h-95q-6 77 -55 130t-126 66zM162 345q-14 -101 38 -173.5t147 -86.5l73 520
q-99 -14 -171.5 -86.5t-86.5 -173.5z" />
    <glyph glyph-name="uni20B9" unicode="&#x20b9;" horiz-adv-x="561" 
d="M453 619q24 -33 31 -72h91l-38 -71h-52q-14 -91 -83.5 -151.5t-161.5 -60.5h-39l233 -264h-122l-239 269l11 78h161q55 0 96.5 36.5t49.5 92.5h-289l11 71h269q-26 61 -99 61h-162l12 82h461l-37 -71h-104z" />
    <glyph glyph-name="uni2116" unicode="&#x2116;" horiz-adv-x="1156" 
d="M989 702q79 0 124.5 -52.5t34.5 -131.5q-11 -78 -71.5 -130.5t-139.5 -52.5t-124.5 52.5t-34.5 130.5q10 79 70.5 131.5t140.5 52.5zM552 152l75 538h91l-97 -690h-94l-315 538l-75 -538h-92l97 690h95zM1072 518q7 47 -20 79t-73 32q-47 0 -83 -32t-42 -79
q-7 -47 20 -78.5t73 -31.5t82 31.5t43 78.5zM744 181l11 78h343l-11 -78h-343z" />
    <glyph glyph-name="trademark" unicode="&#x2122;" horiz-adv-x="671" 
d="M75 644l7 46h221l-7 -46h-86l-34 -248h-49l34 248h-86zM606 690h64l-41 -294h-49l30 213l-118 -213h-37l-57 215l-30 -215h-49l41 294h66l59 -223z" />
    <glyph glyph-name="uni2150" unicode="&#x2150;" horiz-adv-x="916" 
d="M285 336l-8 -60h-235l9 60h88l39 277l-94 -41l10 69l114 49h46l-49 -354h80zM705 690h81l-580 -690h-81zM644 414h273l-7 -51l-220 -363h-73l213 352h-194z" />
    <glyph glyph-name="uni2151" unicode="&#x2151;" horiz-adv-x="876" 
d="M285 336l-8 -60h-235l9 60h88l39 277l-94 -41l10 69l114 49h46l-49 -354h80zM705 690h81l-580 -690h-81zM730 421q61 0 96.5 -39.5t27.5 -98.5q-7 -42 -39 -85l-159 -198h-78l120 150q-4 -1 -13 -1q-58 0 -92 38.5t-26 95.5q7 58 54 98t109 40zM787 283q4 33 -15 55
t-51 22t-57 -22t-29 -55q-5 -32 13.5 -54t51.5 -22q32 0 57.5 22t29.5 54z" />
    <glyph glyph-name="uni2152" unicode="&#x2152;" horiz-adv-x="1232" 
d="M285 336l-8 -60h-235l9 60h88l39 277l-94 -41l10 69l114 49h46l-49 -354h80zM705 690h81l-580 -690h-81zM1057 421q71 0 107.5 -60t23.5 -154t-66.5 -154t-124.5 -60t-107.5 60t-23.5 154t66.5 154t124.5 60zM779 414l-49 -354h80l-8 -60h-235l9 60h88l39 277l-94 -41
l10 69l114 49h46zM1120 207q10 67 -10.5 108.5t-61.5 41.5t-72.5 -41.5t-41.5 -108.5t10.5 -108.5t61.5 -41.5t72.5 41t41.5 109z" />
    <glyph glyph-name="uni2153" unicode="&#x2153;" horiz-adv-x="869" 
d="M285 336l-8 -60h-235l9 60h88l39 277l-94 -41l10 69l114 49h46l-49 -354h80zM705 690h81l-580 -690h-81zM839 305q-7 -59 -63 -90q53 -30 45 -97q-8 -52 -52 -88.5t-102 -36.5t-92 36.5t-27 91.5h68q-4 -28 13 -47.5t47 -19.5t52.5 19t26.5 48q5 29 -12.5 49t-47.5 20
h-57l7 48h57q26 0 46 18.5t24 45.5q4 25 -11.5 42t-41.5 17t-46 -16.5t-25 -42.5h-67q8 51 49.5 85t96.5 34t87 -34t25 -82z" />
    <glyph glyph-name="uni2154" unicode="&#x2154;" horiz-adv-x="896" 
d="M317 336l-9 -60h-272l7 50l180 163q51 49 55 80q4 29 -12 48t-44 19t-49.5 -19t-25.5 -48h-67q7 55 51 91.5t101 36.5q56 0 88.5 -36.5t24.5 -91.5q-7 -54 -69 -111l-134 -122h175zM732 690h81l-580 -690h-81zM866 305q-7 -59 -63 -90q53 -30 45 -97q-8 -52 -52 -88.5
t-102 -36.5t-92 36.5t-27 91.5h68q-4 -28 13 -47.5t47 -19.5t52.5 19t26.5 48q5 29 -12.5 49t-47.5 20h-57l7 48h57q26 0 46 18.5t24 45.5q4 25 -11.5 42t-41.5 17t-46 -16.5t-25 -42.5h-67q8 51 49.5 85t96.5 34t87 -34t25 -82z" />
    <glyph glyph-name="uni2155" unicode="&#x2155;" horiz-adv-x="896" 
d="M285 336l-8 -60h-235l9 60h88l39 277l-94 -41l10 69l114 49h46l-49 -354h80zM705 690h81l-580 -690h-81zM859 355h-172l-27 -116q34 24 76 24q59 0 92.5 -38.5t25.5 -96.5t-55 -96.5t-108 -38.5t-96.5 38.5t-27.5 96.5h68q-5 -33 13.5 -54.5t50.5 -21.5q33 0 58.5 22
t30.5 54q5 33 -14.5 55.5t-52.5 22.5q-19 0 -40.5 -10t-32.5 -24h-67l54 242h232z" />
    <glyph glyph-name="uni2156" unicode="&#x2156;" horiz-adv-x="923" 
d="M317 336l-9 -60h-272l7 50l180 163q51 49 55 80q4 29 -12 48t-44 19t-49.5 -19t-25.5 -48h-67q7 55 51 91.5t101 36.5q56 0 88.5 -36.5t24.5 -91.5q-7 -54 -69 -111l-134 -122h175zM732 690h81l-580 -690h-81zM886 355h-172l-27 -116q34 24 76 24q59 0 92.5 -38.5
t25.5 -96.5t-55 -96.5t-108 -38.5t-96.5 38.5t-27.5 96.5h68q-5 -33 13.5 -54.5t50.5 -21.5q33 0 58.5 22t30.5 54q5 33 -14.5 55.5t-52.5 22.5q-19 0 -40.5 -10t-32.5 -24h-67l54 242h232z" />
    <glyph glyph-name="uni2157" unicode="&#x2157;" horiz-adv-x="884" 
d="M321 394q-8 -52 -52 -88.5t-102 -36.5t-92 36.5t-27 91.5h68q-4 -28 13 -47.5t47 -19.5t52.5 19t26.5 48q5 29 -12.5 49t-47.5 20h-57l7 48h57q26 0 46 18.5t24 45.5q4 25 -11.5 42t-41.5 17t-46 -16.5t-25 -42.5h-67q8 51 49.5 85t96.5 34t87 -34t25 -82q-7 -59 -63 -90
q53 -30 45 -97zM693 690h81l-580 -690h-81zM847 355h-172l-27 -116q34 24 76 24q59 0 92.5 -38.5t25.5 -96.5t-55 -96.5t-108 -38.5t-96.5 38.5t-27.5 96.5h68q-5 -33 13.5 -54.5t50.5 -21.5q33 0 58.5 22t30.5 54q5 33 -14.5 55.5t-52.5 22.5q-19 0 -40.5 -10t-32.5 -24
h-67l54 242h232z" />
    <glyph glyph-name="uni2158" unicode="&#x2158;" horiz-adv-x="910" 
d="M221 276l12 88h-195l7 48l220 278h80l-37 -266h52l-8 -60h-53l-12 -88h-66zM719 690h81l-580 -690h-81zM118 424h124l26 192zM873 355h-172l-27 -116q34 24 76 24q59 0 92.5 -38.5t25.5 -96.5t-55 -96.5t-108 -38.5t-96.5 38.5t-27.5 96.5h68q-5 -33 13.5 -54.5
t50.5 -21.5q33 0 58.5 22t30.5 54q5 33 -14.5 55.5t-52.5 22.5q-19 0 -40.5 -10t-32.5 -24h-67l54 242h232z" />
    <glyph glyph-name="uni2159" unicode="&#x2159;" horiz-adv-x="831" 
d="M285 336l-8 -60h-235l9 60h88l39 277l-94 -41l10 69l114 49h46l-49 -354h80zM705 690h81l-580 -690h-81zM670 265q58 0 92 -38.5t26 -95.5q-8 -59 -55 -98.5t-108 -39.5t-96.5 40t-27.5 98q7 47 39 85l159 198h78l-121 -150q4 1 14 1zM721 131q5 32 -14.5 54t-51.5 22
t-56.5 -22t-29.5 -54q-5 -33 13.5 -54.5t51.5 -21.5q32 0 57 21.5t30 54.5z" />
    <glyph glyph-name="uni215A" unicode="&#x215a;" horiz-adv-x="830" 
d="M347 404q-8 -58 -55 -96.5t-108 -38.5t-96.5 38.5t-27.5 96.5h68q-5 -33 13.5 -54.5t50.5 -21.5q33 0 58.5 22t30.5 54q5 33 -14.5 55.5t-52.5 22.5q-19 0 -40.5 -10t-32.5 -24h-67l54 242h232l-8 -59h-172l-27 -116q34 24 76 24q59 0 92.5 -38.5t25.5 -96.5zM704 690h81
l-580 -690h-81zM669 265q58 0 92 -38.5t26 -95.5q-8 -59 -55 -98.5t-108 -39.5t-96.5 40t-27.5 98q7 47 39 85l159 198h78l-121 -150q4 1 14 1zM720 131q5 32 -14.5 54t-51.5 22t-56.5 -22t-29.5 -54q-5 -33 13.5 -54.5t51.5 -21.5q32 0 57 21.5t30 54.5z" />
    <glyph glyph-name="oneeighth" unicode="&#x215b;" horiz-adv-x="874" 
d="M285 336l-8 -60h-235l9 60h88l39 277l-94 -41l10 69l114 49h46l-49 -354h80zM705 690h81l-580 -690h-81zM844 307q-9 -61 -69 -93q59 -33 50 -101q-8 -51 -52.5 -85.5t-102.5 -34.5q-59 0 -93.5 34.5t-27.5 85.5q9 67 78 101q-52 33 -43 93q7 49 48.5 81.5t97.5 32.5
t88.5 -32.5t25.5 -81.5zM776 298q4 25 -12 42t-43 17q-26 0 -46.5 -17t-24.5 -42t12 -42.5t42 -17.5q27 0 48 17.5t24 42.5zM758 122q4 28 -13.5 46.5t-47.5 18.5q-29 0 -51.5 -18.5t-27.5 -46.5q-4 -28 13.5 -46.5t47.5 -18.5t52.5 18.5t26.5 46.5z" />
    <glyph glyph-name="threeeighths" unicode="&#x215c;" horiz-adv-x="862" 
d="M321 394q-8 -52 -52 -88.5t-102 -36.5t-92 36.5t-27 91.5h68q-4 -28 13 -47.5t47 -19.5t52.5 19t26.5 48q5 29 -12.5 49t-47.5 20h-57l7 48h57q26 0 46 18.5t24 45.5q4 25 -11.5 42t-41.5 17t-46 -16.5t-25 -42.5h-67q8 51 49.5 85t96.5 34t87 -34t25 -82q-7 -59 -63 -90
q53 -30 45 -97zM693 690h81l-580 -690h-81zM832 307q-9 -61 -69 -93q59 -33 50 -101q-8 -51 -52.5 -85.5t-102.5 -34.5q-59 0 -93.5 34.5t-27.5 85.5q9 67 78 101q-52 33 -43 93q7 49 48.5 81.5t97.5 32.5t88.5 -32.5t25.5 -81.5zM764 298q4 25 -12 42t-43 17
q-26 0 -46.5 -17t-24.5 -42t12 -42.5t42 -17.5q27 0 48 17.5t24 42.5zM746 122q4 28 -13.5 46.5t-47.5 18.5q-29 0 -51.5 -18.5t-27.5 -46.5q-4 -28 13.5 -46.5t47.5 -18.5t52.5 18.5t26.5 46.5z" />
    <glyph glyph-name="fiveeighths" unicode="&#x215d;" horiz-adv-x="873" 
d="M347 404q-8 -58 -55 -96.5t-108 -38.5t-96.5 38.5t-27.5 96.5h68q-5 -33 13.5 -54.5t50.5 -21.5q33 0 58.5 22t30.5 54q5 33 -14.5 55.5t-52.5 22.5q-19 0 -40.5 -10t-32.5 -24h-67l54 242h232l-8 -59h-172l-27 -116q34 24 76 24q59 0 92.5 -38.5t25.5 -96.5zM704 690h81
l-580 -690h-81zM843 307q-9 -61 -69 -93q59 -33 50 -101q-8 -51 -52.5 -85.5t-102.5 -34.5q-59 0 -93.5 34.5t-27.5 85.5q9 67 78 101q-52 33 -43 93q7 49 48.5 81.5t97.5 32.5t88.5 -32.5t25.5 -81.5zM775 298q4 25 -12 42t-43 17q-26 0 -46.5 -17t-24.5 -42t12 -42.5
t42 -17.5q27 0 48 17.5t24 42.5zM757 122q4 28 -13.5 46.5t-47.5 18.5q-29 0 -51.5 -18.5t-27.5 -46.5q-4 -28 13.5 -46.5t47.5 -18.5t52.5 18.5t26.5 46.5z" />
    <glyph glyph-name="seveneighths" unicode="&#x215e;" horiz-adv-x="798" 
d="M629 690h81l-580 -690h-81zM139 276h-73l213 352h-194l8 62h273l-7 -51zM768 307q-9 -61 -69 -93q59 -33 50 -101q-8 -51 -52.5 -85.5t-102.5 -34.5q-59 0 -93.5 34.5t-27.5 85.5q9 67 78 101q-52 34 -43 93q7 49 48.5 81.5t97.5 32.5t88.5 -32.5t25.5 -81.5zM700 298
q4 25 -12 42t-43 17q-26 0 -46.5 -17t-24.5 -42t12 -42.5t42 -17.5q27 0 48 17.5t24 42.5zM682 122q4 28 -13.5 46.5t-47.5 18.5q-29 0 -51.5 -18.5t-27.5 -46.5q-4 -28 13.5 -46.5t47.5 -18.5t52.5 18.5t26.5 46.5z" />
    <glyph glyph-name="uni215F" unicode="&#x215f;" horiz-adv-x="534" 
d="M285 336l-8 -60h-235l9 60h88l39 277l-94 -41l10 69l114 49h46l-49 -354h80zM705 690h81l-580 -690h-81z" />
    <glyph glyph-name="uni2189" unicode="&#x2189;" horiz-adv-x="909" 
d="M391 483q-13 -94 -66.5 -154t-124.5 -60t-107.5 60t-23.5 154t66.5 154t124.5 60t107.5 -60t23.5 -154zM745 690h81l-580 -690h-81zM137 483q-10 -67 10.5 -108.5t61.5 -41.5t72.5 41t41.5 109q10 67 -10.5 108.5t-61.5 41.5t-72.5 -41.5t-41.5 -108.5zM879 305
q-7 -59 -63 -90q53 -30 45 -97q-8 -52 -52 -88.5t-102 -36.5t-92 36.5t-27 91.5h68q-4 -28 13 -47.5t47 -19.5t52.5 19t26.5 48q5 29 -12.5 49t-47.5 20h-57l7 48h57q26 0 46 18.5t24 45.5q4 25 -11.5 42t-41.5 17t-46 -16.5t-25 -42.5h-67q8 51 49.5 85t96.5 34t87 -34
t25 -82z" />
    <glyph glyph-name="arrowleft" unicode="&#x2190;" horiz-adv-x="665" 
d="M592 384v-78h-380l172 -170h-103l-208 209l208 209h103l-172 -170h380z" />
    <glyph glyph-name="arrowup" unicode="&#x2191;" horiz-adv-x="665" 
d="M533 405v-103l-162 164v-381h-78v379l-161 -162v103l201 200z" />
    <glyph glyph-name="arrowright" unicode="&#x2192;" horiz-adv-x="665" 
d="M383 554l209 -209l-209 -209h-102l171 170h-379v78h379l-171 170h102z" />
    <glyph glyph-name="arrowdown" unicode="&#x2193;" horiz-adv-x="665" 
d="M371 225l170 171v-102l-209 -209l-208 209v102l169 -171v380h78v-380z" />
    <glyph glyph-name="uni2196" unicode="&#x2196;" horiz-adv-x="665" 
d="M527 195l-55 -55l-269 269l1 -230l-72 64v292h291l65 -73l-230 2z" />
    <glyph glyph-name="uni2197" unicode="&#x2197;" horiz-adv-x="665" 
d="M247 535h283v-283l-72 -64l1 221l-268 -269l-56 55l269 269l-221 -2z" />
    <glyph glyph-name="uni2198" unicode="&#x2198;" horiz-adv-x="665" 
d="M460 505l72 -64v-292h-291l-64 73l229 -2l-268 269l55 55l268 -268z" />
    <glyph glyph-name="uni2199" unicode="&#x2199;" horiz-adv-x="665" 
d="M527 489l-269 -269l230 2l-65 -73h-291v292l72 64l-1 -230l269 269z" />
    <glyph glyph-name="minus" unicode="&#x2212;" horiz-adv-x="534" 
d="M64 256l11 78h407l-11 -78h-407z" />
    <glyph glyph-name="approxequal" unicode="&#x2248;" horiz-adv-x="553" 
d="M374 328q-33 0 -60 17t-49 34t-43 17q-26 0 -45 -17.5t-23 -43.5h-79q9 65 47 105.5t99 40.5q33 0 60 -17t49 -34t43 -17q26 0 45.5 17t23.5 43h79q-9 -65 -47.5 -105t-99.5 -40zM345 117q-33 0 -60 17t-49 34t-43 17q-26 0 -45.5 -17t-23.5 -43h-79q9 65 47.5 105
t99.5 40q33 0 60 -17t48.5 -34t42.5 -17q26 0 45.5 17.5t23.5 43.5h79q-9 -64 -47 -105t-99 -41z" />
    <glyph glyph-name="notequal" unicode="&#x2260;" horiz-adv-x="534" 
d="M484 344h-144l-58 -97h188l-11 -77h-224l-55 -92h-76l55 92h-108l11 77h144l58 97h-188l11 78h224l54 90h76l-54 -90h107z" />
    <glyph glyph-name="lessequal" unicode="&#x2264;" horiz-adv-x="464" 
d="M442 547l-12 -86l-273 -93l247 -93l-12 -86l-319 136l12 87zM36 59l11 78h337l-11 -78h-337z" />
    <glyph glyph-name="greaterequal" unicode="&#x2265;" horiz-adv-x="464" 
d="M104 547l319 -135l-13 -87l-356 -136l12 86l273 93l-247 93zM36 59l11 78h337l-11 -78h-337z" />
    <glyph glyph-name="uni2639" unicode="&#x2639;" horiz-adv-x="832" 
d="M429 -12q-152 0 -254.5 102.5t-102.5 254.5t102.5 254.5t254.5 102.5t254.5 -102.5t102.5 -254.5t-102.5 -254.5t-254.5 -102.5zM429 37q130 0 218 88.5t88 219.5t-88 219.5t-218 88.5q-131 0 -218.5 -88.5t-87.5 -219.5t87.5 -219.5t218.5 -88.5zM306 435q-15 0 -25 10
t-10 25q0 14 10 24.5t25 10.5t25 -10.5t10 -24.5q0 -15 -10 -25t-25 -10zM551 435q-14 0 -24.5 10t-10.5 25q0 14 10.5 24.5t24.5 10.5q15 0 25.5 -10.5t10.5 -24.5q0 -15 -10.5 -25t-25.5 -10zM214 165q0 92 61.5 154t153.5 62t153.5 -62t61.5 -154h-51q0 72 -46.5 119.5
t-117.5 47.5t-118 -47.5t-47 -119.5h-50z" />
    <glyph glyph-name="smileface" unicode="&#x263a;" horiz-adv-x="832" 
d="M429 -12q-152 0 -254.5 102.5t-102.5 254.5t102.5 254.5t254.5 102.5t254.5 -102.5t102.5 -254.5t-102.5 -254.5t-254.5 -102.5zM429 37q130 0 218 88.5t88 219.5t-88 219.5t-218 88.5q-131 0 -218.5 -88.5t-87.5 -219.5t87.5 -219.5t218.5 -88.5zM306 435q-15 0 -25 10
t-10 25q0 14 10 24.5t25 10.5t25 -10.5t10 -24.5q0 -15 -10 -25t-25 -10zM551 435q-14 0 -24.5 10t-10.5 25q0 14 10.5 24.5t24.5 10.5q15 0 25.5 -10.5t10.5 -24.5q0 -15 -10.5 -25t-25.5 -10zM429 117q-98 0 -163.5 65.5t-65.5 162.5h51q0 -77 51 -128t127 -51t126.5 51
t50.5 128h51q0 -97 -65.5 -162.5t-162.5 -65.5z" />
    <glyph glyph-name="uni279D" unicode="&#x279d;" horiz-adv-x="1082" 
d="M1001 345l-209 -209v170h-711v78h711v170z" />
    <glyph glyph-name="uni27F5" unicode="&#x27f5;" horiz-adv-x="1082" 
d="M1001 384v-78h-780l171 -170h-102l-209 209l209 209h102l-171 -170h780z" />
    <glyph glyph-name="uni27F6" unicode="&#x27f6;" horiz-adv-x="1082" 
d="M792 554l209 -209l-209 -209h-102l171 170h-780v78h780l-171 170h102z" />
    <glyph glyph-name="K.ss02" horiz-adv-x="618" 
d="M666 690l-392 -341l302 -349h-121l-274 312l-44 -312h-92l97 690h92l-43 -306l356 306h119z" />
    <glyph glyph-name="uni0136.ss02" horiz-adv-x="618" 
d="M666 690l-392 -341l302 -349h-121l-274 312l-44 -312h-92l97 690h92l-43 -306l356 306h119zM187 -220l56 154h90l-75 -154h-71z" />
    <glyph glyph-name="R.ss02" horiz-adv-x="566" 
d="M552 480q-13 -88 -82 -147t-161 -59h-8l198 -274h-115l-197 274h-11l-39 -274h-92l97 690h224q92 0 145.5 -60t40.5 -150zM222 604l-35 -250h130q53 0 93.5 35.5t47.5 89.5t-23 89.5t-83 35.5h-130z" />
    <glyph glyph-name="Racute.ss02" horiz-adv-x="566" 
d="M533 886l-141 -129h-92l122 129h111zM552 480q-13 -88 -82 -147t-161 -59h-8l198 -274h-115l-197 274h-11l-39 -274h-92l97 690h224q92 0 145.5 -60t40.5 -150zM222 604l-35 -250h130q53 0 93.5 35.5t47.5 89.5t-23 89.5t-83 35.5h-130z" />
    <glyph glyph-name="Rcaron.ss02" horiz-adv-x="566" 
d="M406 757h-105l-83 129h82l59 -83l83 83h82zM552 480q-13 -88 -82 -147t-161 -59h-8l198 -274h-115l-197 274h-11l-39 -274h-92l97 690h224q92 0 145.5 -60t40.5 -150zM222 604l-35 -250h130q53 0 93.5 35.5t47.5 89.5t-23 89.5t-83 35.5h-130z" />
    <glyph glyph-name="uni0156.ss02" horiz-adv-x="566" 
d="M552 480q-13 -88 -82 -147t-161 -59h-8l198 -274h-115l-197 274h-11l-39 -274h-92l97 690h224q92 0 145.5 -60t40.5 -150zM222 604l-35 -250h130q53 0 93.5 35.5t47.5 89.5t-23 89.5t-83 35.5h-130zM158 -220l56 154h90l-75 -154h-71z" />
    <glyph glyph-name="uni0210.ss02" horiz-adv-x="566" 
d="M300 757h-84l-77 129h96zM494 757h-83l-77 129h96zM552 480q-13 -88 -82 -147t-161 -59h-8l198 -274h-115l-197 274h-11l-39 -274h-92l97 690h224q92 0 145.5 -60t40.5 -150zM222 604l-35 -250h130q53 0 93.5 35.5t47.5 89.5t-23 89.5t-83 35.5h-130z" />
    <glyph glyph-name="uni1E5A.ss02" horiz-adv-x="566" 
d="M552 480q-13 -88 -82 -147t-161 -59h-8l198 -274h-115l-197 274h-11l-39 -274h-92l97 690h224q92 0 145.5 -60t40.5 -150zM222 604l-35 -250h130q53 0 93.5 35.5t47.5 89.5t-23 89.5t-83 35.5h-130zM246 -72q24 0 38 -16t10 -39q-3 -23 -21.5 -39t-41.5 -16t-37 16
t-11 39q4 23 22 39t41 16z" />
    <glyph glyph-name="uni0212.ss02" horiz-adv-x="566" 
d="M361 822q-30 0 -53 -20t-27 -51h-68q8 57 53 95.5t104 38.5t93.5 -38.5t25.5 -95.5h-67q4 31 -13.5 51t-47.5 20zM552 480q-13 -88 -82 -147t-161 -59h-8l198 -274h-115l-197 274h-11l-39 -274h-92l97 690h224q92 0 145.5 -60t40.5 -150zM222 604l-35 -250h130
q53 0 93.5 35.5t47.5 89.5t-23 89.5t-83 35.5h-130z" />
    <glyph glyph-name="G.ss03" horiz-adv-x="803" 
d="M435 367h344q0 -5 -1.5 -15t-2.5 -15q-25 -150 -141 -249.5t-266 -99.5q-154 0 -243 102.5t-67 254.5q21 152 139 254.5t272 102.5q123 0 206.5 -66.5t99.5 -172.5h-101q-20 69 -78 110t-139 41q-114 0 -201.5 -77t-103.5 -192t49.5 -192t179.5 -77q99 0 179 58t110 150
h-247z" />
    <glyph glyph-name="uni01F4.ss03" horiz-adv-x="803" 
d="M656 886l-141 -129h-92l122 129h111zM435 367h344q0 -5 -1.5 -15t-2.5 -15q-25 -150 -141 -249.5t-266 -99.5q-154 0 -243 102.5t-67 254.5q21 152 139 254.5t272 102.5q123 0 206.5 -66.5t99.5 -172.5h-101q-20 69 -78 110t-139 41q-114 0 -201.5 -77t-103.5 -192
t49.5 -192t179.5 -77q99 0 179 58t110 150h-247z" />
    <glyph glyph-name="Gbreve.ss03" horiz-adv-x="803" 
d="M475 747q-59 0 -93 38t-26 95h68q-4 -30 13 -50.5t46 -20.5q30 0 53 20.5t28 50.5h68q-8 -57 -53 -95t-104 -38zM435 367h344q0 -5 -1.5 -15t-2.5 -15q-25 -150 -141 -249.5t-266 -99.5q-154 0 -243 102.5t-67 254.5q21 152 139 254.5t272 102.5q123 0 206.5 -66.5
t99.5 -172.5h-101q-20 69 -78 110t-139 41q-114 0 -201.5 -77t-103.5 -192t49.5 -192t179.5 -77q99 0 179 58t110 150h-247z" />
    <glyph glyph-name="Gcaron.ss03" horiz-adv-x="803" 
d="M529 757h-105l-83 129h82l59 -83l83 83h82zM435 367h344q0 -5 -1.5 -15t-2.5 -15q-25 -150 -141 -249.5t-266 -99.5q-154 0 -243 102.5t-67 254.5q21 152 139 254.5t272 102.5q123 0 206.5 -66.5t99.5 -172.5h-101q-20 69 -78 110t-139 41q-114 0 -201.5 -77t-103.5 -192
t49.5 -192t179.5 -77q99 0 179 58t110 150h-247z" />
    <glyph glyph-name="Gcircumflex.ss03" horiz-adv-x="803" 
d="M488 840l-83 -83h-82l119 129h105l82 -129h-82zM435 367h344q0 -5 -1.5 -15t-2.5 -15q-25 -150 -141 -249.5t-266 -99.5q-154 0 -243 102.5t-67 254.5q21 152 139 254.5t272 102.5q123 0 206.5 -66.5t99.5 -172.5h-101q-20 69 -78 110t-139 41q-114 0 -201.5 -77
t-103.5 -192t49.5 -192t179.5 -77q99 0 179 58t110 150h-247z" />
    <glyph glyph-name="uni0122.ss03" horiz-adv-x="803" 
d="M435 367h344q0 -5 -1.5 -15t-2.5 -15q-25 -150 -141 -249.5t-266 -99.5q-154 0 -243 102.5t-67 254.5q21 152 139 254.5t272 102.5q123 0 206.5 -66.5t99.5 -172.5h-101q-20 69 -78 110t-139 41q-114 0 -201.5 -77t-103.5 -192t49.5 -192t179.5 -77q99 0 179 58t110 150
h-247zM272 -220l56 154h90l-75 -154h-71z" />
    <glyph glyph-name="Gdotaccent.ss03" horiz-adv-x="803" 
d="M478 762q-24 0 -38 16t-10 39q3 23 21.5 39t41.5 16q24 0 37.5 -16t10.5 -39q-4 -23 -22 -39t-41 -16zM435 367h344q0 -5 -1.5 -15t-2.5 -15q-25 -150 -141 -249.5t-266 -99.5q-154 0 -243 102.5t-67 254.5q21 152 139 254.5t272 102.5q123 0 206.5 -66.5t99.5 -172.5
h-101q-20 69 -78 110t-139 41q-114 0 -201.5 -77t-103.5 -192t49.5 -192t179.5 -77q99 0 179 58t110 150h-247z" />
    <glyph glyph-name="B.ss05" horiz-adv-x="562" 
d="M528 517q-7 -49 -38 -90.5t-72 -60.5q56 -14 85.5 -64t19.5 -116q-11 -80 -73 -133t-143 -53h-262l97 690h233q75 0 119 -49t34 -124zM432 502q6 45 -19.5 75t-70.5 30h-123l-73 -524h152q50 0 88 34t45 84t-21.5 83.5t-78.5 33.5h-111l11 79h81q43 0 78 30t42 75z" />
    <glyph glyph-name="P.ss05" horiz-adv-x="562" 
d="M370 690q95 0 149.5 -62t41.5 -155q-13 -92 -85 -154t-167 -62h-95l12 86h94q55 0 97.5 37t49.5 93q8 56 -23.5 93.5t-86.5 37.5h-135l-85 -604h-92l97 690h228z" />
    <glyph glyph-name="R.ss05" horiz-adv-x="566" 
d="M552 480q-10 -70 -58 -121.5t-114 -64.5l-49 -7l168 -287h-114l-170 281l11 73h91q53 0 93.5 35.5t47.5 89.5t-23 89.5t-83 35.5h-130l-85 -604h-92l97 690h224q92 0 145.5 -60t40.5 -150z" />
    <glyph glyph-name="Racute.ss05" horiz-adv-x="566" 
d="M533 886l-141 -129h-92l122 129h111zM552 480q-10 -70 -58 -121.5t-114 -64.5l-49 -7l168 -287h-114l-170 281l11 73h91q53 0 93.5 35.5t47.5 89.5t-23 89.5t-83 35.5h-130l-85 -604h-92l97 690h224q92 0 145.5 -60t40.5 -150z" />
    <glyph glyph-name="Rcaron.ss05" horiz-adv-x="566" 
d="M406 757h-105l-83 129h82l59 -83l83 83h82zM552 480q-10 -70 -58 -121.5t-114 -64.5l-49 -7l168 -287h-114l-170 281l11 73h91q53 0 93.5 35.5t47.5 89.5t-23 89.5t-83 35.5h-130l-85 -604h-92l97 690h224q92 0 145.5 -60t40.5 -150z" />
    <glyph glyph-name="uni0156.ss05" horiz-adv-x="566" 
d="M552 480q-10 -70 -58 -121.5t-114 -64.5l-49 -7l168 -287h-114l-170 281l11 73h91q53 0 93.5 35.5t47.5 89.5t-23 89.5t-83 35.5h-130l-85 -604h-92l97 690h224q92 0 145.5 -60t40.5 -150zM158 -220l56 154h90l-75 -154h-71z" />
    <glyph glyph-name="uni0210.ss05" horiz-adv-x="566" 
d="M300 757h-84l-77 129h96zM494 757h-83l-77 129h96zM552 480q-10 -70 -58 -121.5t-114 -64.5l-49 -7l168 -287h-114l-170 281l11 73h91q53 0 93.5 35.5t47.5 89.5t-23 89.5t-83 35.5h-130l-85 -604h-92l97 690h224q92 0 145.5 -60t40.5 -150z" />
    <glyph glyph-name="uni1E5A.ss05" horiz-adv-x="566" 
d="M552 480q-10 -70 -58 -121.5t-114 -64.5l-49 -7l168 -287h-114l-170 281l11 73h91q53 0 93.5 35.5t47.5 89.5t-23 89.5t-83 35.5h-130l-85 -604h-92l97 690h224q92 0 145.5 -60t40.5 -150zM246 -72q24 0 38 -16t10 -39q-3 -23 -21.5 -39t-41.5 -16t-37 16t-11 39
q4 23 22 39t41 16z" />
    <glyph glyph-name="uni0212.ss05" horiz-adv-x="566" 
d="M361 822q-30 0 -53 -20t-27 -51h-68q8 57 53 95.5t104 38.5t93.5 -38.5t25.5 -95.5h-67q4 31 -13.5 51t-47.5 20zM552 480q-10 -70 -58 -121.5t-114 -64.5l-49 -7l168 -287h-114l-170 281l11 73h91q53 0 93.5 35.5t47.5 89.5t-23 89.5t-83 35.5h-130l-85 -604h-92l97 690
h224q92 0 145.5 -60t40.5 -150z" />
    <glyph glyph-name="I.ss06" horiz-adv-x="254" 
d="M45 0l97 690h92l-97 -690h-92z" />
    <glyph glyph-name="Iacute.ss06" horiz-adv-x="254" 
d="M145 757l122 129h111l-141 -129h-92zM45 0l97 690h92l-97 -690h-92z" />
    <glyph glyph-name="Ibreve.ss06" horiz-adv-x="254" 
d="M196 747q-59 0 -93 38t-26 95h68q-4 -30 13 -50.5t46 -20.5q30 0 53 20.5t28 50.5h68q-8 -57 -53 -95t-104 -38zM45 0l97 690h92l-97 -690h-92z" />
    <glyph glyph-name="Icircumflex.ss06" horiz-adv-x="254" 
d="M269 886l82 -129h-82l-59 83l-83 -83h-82l119 129h105zM45 0l97 690h92l-97 -690h-92z" />
    <glyph glyph-name="uni0208.ss06" horiz-adv-x="254" 
d="M61 757l-77 129h96l65 -129h-84zM256 757l-77 129h96l64 -129h-83zM45 0l97 690h92l-97 -690h-92z" />
    <glyph glyph-name="Idieresis.ss06" horiz-adv-x="254" 
d="M95 762q-23 0 -36 15.5t-10 37.5t21 37.5t41 15.5q22 0 35 -15t10 -38t-20.5 -38t-40.5 -15zM302 762q-23 0 -36 15.5t-10 37.5t20.5 37.5t40.5 15.5t36 -15.5t10 -37.5t-20.5 -37.5t-40.5 -15.5zM45 0l97 690h92l-97 -690h-92z" />
    <glyph glyph-name="Idotaccent.ss06" horiz-adv-x="254" 
d="M199 762q-24 0 -38 16t-10 39q3 23 21.5 39t41.5 16q24 0 37.5 -16t10.5 -39q-4 -23 -22 -39t-41 -16zM45 0l97 690h92l-97 -690h-92z" />
    <glyph glyph-name="uni1ECA.ss06" horiz-adv-x="254" 
d="M45 0l97 690h92l-97 -690h-92zM66 -182q-23 0 -37 16t-11 39q4 23 22 39t41 16q24 0 38 -16t10 -39q-3 -23 -21.5 -39t-41.5 -16z" />
    <glyph glyph-name="Igrave.ss06" horiz-adv-x="254" 
d="M159 757l-105 129h111l86 -129h-92zM45 0l97 690h92l-97 -690h-92z" />
    <glyph glyph-name="uni020A.ss06" horiz-adv-x="254" 
d="M58 751q8 57 53 95.5t104 38.5t93.5 -38.5t25.5 -95.5h-67q4 31 -13.5 51t-47.5 20t-53 -20t-27 -51h-68zM45 0l97 690h92l-97 -690h-92z" />
    <glyph glyph-name="Imacron.ss06" horiz-adv-x="254" 
d="M82 772l10 73h237l-10 -73h-237zM45 0l97 690h92l-97 -690h-92z" />
    <glyph glyph-name="Iogonek.ss06" horiz-adv-x="254" 
d="M142 690h92l-97 -690h-1q-111 -46 -121 -108q-4 -23 10 -37.5t37 -14.5q35 0 66 23l-9 -64q-37 -22 -83 -22t-72.5 28t-20.5 69q7 40 39 73t80 53h-17z" />
    <glyph glyph-name="Itilde.ss06" horiz-adv-x="254" 
d="M267 763q-33 0 -66 27.5t-53 27.5q-21 0 -37 -14.5t-19 -35.5h-62q7 52 39 85t79 33q32 0 65 -27t53 -27q21 0 37 14t19 36h62q-7 -52 -39 -85.5t-78 -33.5zM45 0l97 690h92l-97 -690h-92z" />
    <glyph glyph-name="i.loclTRK" horiz-adv-x="231" 
d="M162 582q-24 0 -38 16t-10 39q3 23 21.5 39t41.5 16q24 0 37.5 -16t10.5 -39q-4 -23 -22 -39t-41 -16zM37 0l72 510h86l-72 -510h-86z" />
    <glyph glyph-name="a.ss01" horiz-adv-x="654" 
d="M531 510h86l-72 -510h-86l14 97q-85 -109 -214 -109q-109 0 -171 76.5t-46 190.5t100 190.5t193 76.5q63 0 110.5 -29t71.5 -80zM287 71q77 0 136.5 51.5t71.5 129.5v3q11 79 -33.5 131.5t-122.5 52.5q-79 0 -138.5 -52.5t-70.5 -131.5t33.5 -131.5t123.5 -52.5z" />
    <glyph glyph-name="aacute.ss01" horiz-adv-x="654" 
d="M555 706l-141 -129h-92l122 129h111zM531 510h86l-72 -510h-86l14 97q-85 -109 -214 -109q-109 0 -171 76.5t-46 190.5t100 190.5t193 76.5q63 0 110.5 -29t71.5 -80zM287 71q77 0 136.5 51.5t71.5 129.5v3q11 79 -33.5 131.5t-122.5 52.5q-79 0 -138.5 -52.5
t-70.5 -131.5t33.5 -131.5t123.5 -52.5z" />
    <glyph glyph-name="abreve.ss01" horiz-adv-x="654" 
d="M373 567q-59 0 -93 38t-26 95h68q-4 -30 13 -50.5t46 -20.5q30 0 53 20.5t28 50.5h68q-8 -57 -53 -95t-104 -38zM531 510h86l-72 -510h-86l14 97q-85 -109 -214 -109q-109 0 -171 76.5t-46 190.5t100 190.5t193 76.5q63 0 110.5 -29t71.5 -80zM287 71q77 0 136.5 51.5
t71.5 129.5v3q11 79 -33.5 131.5t-122.5 52.5q-79 0 -138.5 -52.5t-70.5 -131.5t33.5 -131.5t123.5 -52.5z" />
    <glyph glyph-name="uni01CE.ss01" horiz-adv-x="654" 
d="M428 577h-105l-83 129h82l59 -83l83 83h82zM531 510h86l-72 -510h-86l14 97q-85 -109 -214 -109q-109 0 -171 76.5t-46 190.5t100 190.5t193 76.5q63 0 110.5 -29t71.5 -80zM287 71q77 0 136.5 51.5t71.5 129.5v3q11 79 -33.5 131.5t-122.5 52.5q-79 0 -138.5 -52.5
t-70.5 -131.5t33.5 -131.5t123.5 -52.5z" />
    <glyph glyph-name="acircumflex.ss01" horiz-adv-x="654" 
d="M387 660l-83 -83h-82l119 129h105l82 -129h-82zM531 510h86l-72 -510h-86l14 97q-85 -109 -214 -109q-109 0 -171 76.5t-46 190.5t100 190.5t193 76.5q63 0 110.5 -29t71.5 -80zM287 71q77 0 136.5 51.5t71.5 129.5v3q11 79 -33.5 131.5t-122.5 52.5q-79 0 -138.5 -52.5
t-70.5 -131.5t33.5 -131.5t123.5 -52.5z" />
    <glyph glyph-name="uni0201.ss01" horiz-adv-x="654" 
d="M322 577h-84l-77 129h96zM516 577h-83l-77 129h96zM531 510h86l-72 -510h-86l14 97q-85 -109 -214 -109q-109 0 -171 76.5t-46 190.5t100 190.5t193 76.5q63 0 110.5 -29t71.5 -80zM287 71q77 0 136.5 51.5t71.5 129.5v3q11 79 -33.5 131.5t-122.5 52.5
q-79 0 -138.5 -52.5t-70.5 -131.5t33.5 -131.5t123.5 -52.5z" />
    <glyph glyph-name="adieresis.ss01" horiz-adv-x="654" 
d="M272 582q-23 0 -36 15.5t-10 37.5t21 37.5t41 15.5q22 0 35 -15t10 -38t-20.5 -38t-40.5 -15zM479 582q-23 0 -36 15.5t-10 37.5t20.5 37.5t40.5 15.5t36 -15.5t10 -37.5t-20.5 -37.5t-40.5 -15.5zM531 510h86l-72 -510h-86l14 97q-85 -109 -214 -109q-109 0 -171 76.5
t-46 190.5t100 190.5t193 76.5q63 0 110.5 -29t71.5 -80zM287 71q77 0 136.5 51.5t71.5 129.5v3q11 79 -33.5 131.5t-122.5 52.5q-79 0 -138.5 -52.5t-70.5 -131.5t33.5 -131.5t123.5 -52.5z" />
    <glyph glyph-name="uni1EA1.ss01" horiz-adv-x="654" 
d="M531 510h86l-72 -510h-86l14 97q-85 -109 -214 -109q-109 0 -171 76.5t-46 190.5t100 190.5t193 76.5q63 0 110.5 -29t71.5 -80zM287 71q77 0 136.5 51.5t71.5 129.5v3q11 79 -33.5 131.5t-122.5 52.5q-79 0 -138.5 -52.5t-70.5 -131.5t33.5 -131.5t123.5 -52.5zM283 -72
q24 0 38 -16t10 -39q-3 -23 -21.5 -39t-41.5 -16t-37 16t-11 39q4 23 22 39t41 16z" />
    <glyph glyph-name="agrave.ss01" horiz-adv-x="654" 
d="M428 577h-92l-105 129h111zM531 510h86l-72 -510h-86l14 97q-85 -109 -214 -109q-109 0 -171 76.5t-46 190.5t100 190.5t193 76.5q63 0 110.5 -29t71.5 -80zM287 71q77 0 136.5 51.5t71.5 129.5v3q11 79 -33.5 131.5t-122.5 52.5q-79 0 -138.5 -52.5t-70.5 -131.5
t33.5 -131.5t123.5 -52.5z" />
    <glyph glyph-name="uni0203.ss01" horiz-adv-x="654" 
d="M383 642q-30 0 -53 -20t-27 -51h-68q8 57 53 95.5t104 38.5t93.5 -38.5t25.5 -95.5h-67q4 31 -13.5 51t-47.5 20zM531 510h86l-72 -510h-86l14 97q-85 -109 -214 -109q-109 0 -171 76.5t-46 190.5t100 190.5t193 76.5q63 0 110.5 -29t71.5 -80zM287 71q77 0 136.5 51.5
t71.5 129.5v3q11 79 -33.5 131.5t-122.5 52.5q-79 0 -138.5 -52.5t-70.5 -131.5t33.5 -131.5t123.5 -52.5z" />
    <glyph glyph-name="amacron.ss01" horiz-adv-x="654" 
d="M506 665l-10 -73h-237l10 73h237zM531 510h86l-72 -510h-86l14 97q-85 -109 -214 -109q-109 0 -171 76.5t-46 190.5t100 190.5t193 76.5q63 0 110.5 -29t71.5 -80zM287 71q77 0 136.5 51.5t71.5 129.5v3q11 79 -33.5 131.5t-122.5 52.5q-79 0 -138.5 -52.5t-70.5 -131.5
t33.5 -131.5t123.5 -52.5z" />
    <glyph glyph-name="aogonek.ss01" horiz-adv-x="654" 
d="M545 0q-111 -46 -121 -108q-4 -23 10 -37.5t37 -14.5q35 0 66 23l-9 -64q-37 -22 -83 -22t-72.5 28t-20.5 69q7 40 39 73t80 53h-12l14 97q-85 -109 -214 -109q-109 0 -171 76.5t-46 190.5t100 190.5t193 76.5q63 0 110.5 -29t71.5 -80l14 97h86zM287 71q77 0 136.5 51.5
t71.5 129.5v3q11 79 -33.5 131.5t-122.5 52.5q-79 0 -138.5 -52.5t-70.5 -131.5t33.5 -131.5t123.5 -52.5z" />
    <glyph glyph-name="aring.ss01" horiz-adv-x="654" 
d="M372 563q-37 0 -58.5 24.5t-16.5 61.5q5 36 33.5 60.5t65.5 24.5t59 -24.5t17 -60.5q-5 -37 -34 -61.5t-66 -24.5zM345 649q-2 -18 7.5 -29.5t26.5 -11.5t30 11.5t15 29.5q2 17 -7.5 28.5t-26.5 11.5t-30 -11.5t-15 -28.5zM531 510h86l-72 -510h-86l14 97
q-85 -109 -214 -109q-109 0 -171 76.5t-46 190.5t100 190.5t193 76.5q63 0 110.5 -29t71.5 -80zM287 71q77 0 136.5 51.5t71.5 129.5v3q11 79 -33.5 131.5t-122.5 52.5q-79 0 -138.5 -52.5t-70.5 -131.5t33.5 -131.5t123.5 -52.5z" />
    <glyph glyph-name="atilde.ss01" horiz-adv-x="654" 
d="M325 638q-21 0 -37 -14.5t-19 -35.5h-62q7 52 39 85t79 33q32 0 65 -27t53 -27q21 0 37 14t19 36h62q-7 -52 -39 -85.5t-78 -33.5q-33 0 -66 27.5t-53 27.5zM531 510h86l-72 -510h-86l14 97q-85 -109 -214 -109q-109 0 -171 76.5t-46 190.5t100 190.5t193 76.5
q63 0 110.5 -29t71.5 -80zM287 71q77 0 136.5 51.5t71.5 129.5v3q11 79 -33.5 131.5t-122.5 52.5q-79 0 -138.5 -52.5t-70.5 -131.5t33.5 -131.5t123.5 -52.5z" />
    <glyph glyph-name="k.ss02" horiz-adv-x="517" 
d="M532 510l-291 -254l226 -256h-111l-202 222l-31 -222h-86l101 720h86l-60 -426l258 216h110z" />
    <glyph glyph-name="uni0137.ss02" horiz-adv-x="517" 
d="M532 510l-291 -254l226 -256h-111l-202 222l-31 -222h-86l101 720h86l-60 -426l258 216h110zM140 -220l56 154h90l-75 -154h-71z" />
    <glyph glyph-name="g.ss04" horiz-adv-x="655" 
d="M532 510h86l-64 -455q-16 -116 -97.5 -186.5t-198.5 -70.5q-99 0 -159 50.5t-70 139.5h89q8 -51 48.5 -81t102.5 -30q79 0 133.5 49t65.5 130l7 50q-39 -50 -95 -79t-119 -29q-109 0 -171.5 74.5t-46.5 187.5q16 112 99.5 187t192.5 75q63 0 111 -29t72 -79zM288 76
q76 0 134.5 49.5t72.5 124.5l3 19q7 75 -37.5 124.5t-120.5 49.5q-78 0 -138 -52.5t-70 -130.5q-11 -79 33 -131.5t123 -52.5z" />
    <glyph glyph-name="uni01F5.ss04" horiz-adv-x="655" 
d="M553 706l-141 -129h-92l122 129h111zM532 510h86l-64 -455q-16 -116 -97.5 -186.5t-198.5 -70.5q-99 0 -159 50.5t-70 139.5h89q8 -51 48.5 -81t102.5 -30q79 0 133.5 49t65.5 130l7 50q-39 -50 -95 -79t-119 -29q-109 0 -171.5 74.5t-46.5 187.5q16 112 99.5 187
t192.5 75q63 0 111 -29t72 -79zM288 76q76 0 134.5 49.5t72.5 124.5l3 19q7 75 -37.5 124.5t-120.5 49.5q-78 0 -138 -52.5t-70 -130.5q-11 -79 33 -131.5t123 -52.5z" />
    <glyph glyph-name="gbreve.ss04" horiz-adv-x="655" 
d="M372 567q-59 0 -93 38t-26 95h68q-4 -30 13 -50.5t46 -20.5q30 0 53 20.5t28 50.5h68q-8 -57 -53 -95t-104 -38zM532 510h86l-64 -455q-16 -116 -97.5 -186.5t-198.5 -70.5q-99 0 -159 50.5t-70 139.5h89q8 -51 48.5 -81t102.5 -30q79 0 133.5 49t65.5 130l7 50
q-39 -50 -95 -79t-119 -29q-109 0 -171.5 74.5t-46.5 187.5q16 112 99.5 187t192.5 75q63 0 111 -29t72 -79zM288 76q76 0 134.5 49.5t72.5 124.5l3 19q7 75 -37.5 124.5t-120.5 49.5q-78 0 -138 -52.5t-70 -130.5q-11 -79 33 -131.5t123 -52.5z" />
    <glyph glyph-name="gcaron.ss04" horiz-adv-x="655" 
d="M426 577h-105l-83 129h82l59 -83l83 83h82zM532 510h86l-64 -455q-16 -116 -97.5 -186.5t-198.5 -70.5q-99 0 -159 50.5t-70 139.5h89q8 -51 48.5 -81t102.5 -30q79 0 133.5 49t65.5 130l7 50q-39 -50 -95 -79t-119 -29q-109 0 -171.5 74.5t-46.5 187.5q16 112 99.5 187
t192.5 75q63 0 111 -29t72 -79zM288 76q76 0 134.5 49.5t72.5 124.5l3 19q7 75 -37.5 124.5t-120.5 49.5q-78 0 -138 -52.5t-70 -130.5q-11 -79 33 -131.5t123 -52.5z" />
    <glyph glyph-name="gcircumflex.ss04" horiz-adv-x="655" 
d="M385 660l-83 -83h-82l119 129h105l82 -129h-82zM532 510h86l-64 -455q-16 -116 -97.5 -186.5t-198.5 -70.5q-99 0 -159 50.5t-70 139.5h89q8 -51 48.5 -81t102.5 -30q79 0 133.5 49t65.5 130l7 50q-39 -50 -95 -79t-119 -29q-109 0 -171.5 74.5t-46.5 187.5
q16 112 99.5 187t192.5 75q63 0 111 -29t72 -79zM288 76q76 0 134.5 49.5t72.5 124.5l3 19q7 75 -37.5 124.5t-120.5 49.5q-78 0 -138 -52.5t-70 -130.5q-11 -79 33 -131.5t123 -52.5z" />
    <glyph glyph-name="uni0123.ss04" horiz-adv-x="655" 
d="M456 725l-57 -154h-90l76 154h71zM532 510h86l-64 -455q-16 -116 -97.5 -186.5t-198.5 -70.5q-99 0 -159 50.5t-70 139.5h89q8 -51 48.5 -81t102.5 -30q79 0 133.5 49t65.5 130l7 50q-39 -50 -95 -79t-119 -29q-109 0 -171.5 74.5t-46.5 187.5q16 112 99.5 187t192.5 75
q63 0 111 -29t72 -79zM288 76q76 0 134.5 49.5t72.5 124.5l3 19q7 75 -37.5 124.5t-120.5 49.5q-78 0 -138 -52.5t-70 -130.5q-11 -79 33 -131.5t123 -52.5z" />
    <glyph glyph-name="gdotaccent.ss04" horiz-adv-x="655" 
d="M374 582q-24 0 -38 16t-10 39q3 23 21.5 39t41.5 16q24 0 37.5 -16t10.5 -39q-4 -23 -22 -39t-41 -16zM532 510h86l-64 -455q-16 -116 -97.5 -186.5t-198.5 -70.5q-99 0 -159 50.5t-70 139.5h89q8 -51 48.5 -81t102.5 -30q79 0 133.5 49t65.5 130l7 50q-39 -50 -95 -79
t-119 -29q-109 0 -171.5 74.5t-46.5 187.5q16 112 99.5 187t192.5 75q63 0 111 -29t72 -79zM288 76q76 0 134.5 49.5t72.5 124.5l3 19q7 75 -37.5 124.5t-120.5 49.5q-78 0 -138 -52.5t-70 -130.5q-11 -79 33 -131.5t123 -52.5z" />
    <glyph glyph-name="f_t.dlig" horiz-adv-x="725" 
d="M713 432h-142l-50 -353h142l-11 -79h-228l61 432h-248l-60 -432h-86l61 432h-93l11 78h93l29 210h228l-11 -79h-142l-19 -131h248l21 150h86l-21 -150h142z" />
    <glyph glyph-name="t_t.dlig" horiz-adv-x="750" 
d="M738 432h-142l-50 -353h142l-11 -79h-228l61 432h-268l-50 -353h143l-11 -79h-229l61 432h-99l11 78h99l21 150h86l-21 -150h268l21 150h86l-21 -150h142z" />
    <glyph glyph-name="zero.zero" horiz-adv-x="643" 
d="M385 702q117 0 177 -99.5t38 -257.5t-110.5 -257.5t-205.5 -99.5q-118 0 -177.5 99.5t-37.5 257.5t110 257.5t206 99.5zM163 345q-11 -78 1 -135l320 331q-36 73 -112 73q-75 0 -134 -75t-75 -194zM506 345q10 73 -1 135l-321 -331q38 -73 113 -73t133.5 75t75.5 194z
" />
    <glyph glyph-name="zero.subs" horiz-adv-x="396" 
d="M145 -121q-71 0 -107.5 60t-23.5 154t66.5 154t124.5 60t107.5 -60t23.5 -154t-66.5 -154t-124.5 -60zM154 -57q41 0 72.5 41t41.5 109q10 67 -10.5 108.5t-61.5 41.5t-72.5 -41.5t-41.5 -108.5t10.5 -108.5t61.5 -41.5z" />
    <glyph glyph-name="one.subs" horiz-adv-x="302" 
d="M150 -54h80l-8 -60h-235l9 60h88l39 277l-94 -41l10 69l114 49h46z" />
    <glyph glyph-name="two.subs" horiz-adv-x="339" 
d="M290 179q-7 -54 -69 -111l-134 -122h175l-9 -60h-272l7 50l180 163q51 49 55 80q4 29 -12 48t-44 19t-49.5 -19t-25.5 -48h-67q7 55 51 91.5t101 36.5q56 0 88.5 -36.5t24.5 -91.5z" />
    <glyph glyph-name="three.subs" horiz-adv-x="330" 
d="M284 191q-7 -59 -63 -90q53 -30 45 -97q-8 -52 -52 -88.5t-102 -36.5t-92 36.5t-27 91.5h68q-4 -28 13 -47.5t47 -19.5t52.5 19t26.5 48q5 29 -12.5 49t-47.5 20h-57l7 48h57q26 0 46 18.5t24 45.5q4 25 -11.5 42t-41.5 17t-46 -16.5t-25 -42.5h-67q8 51 49.5 85t96.5 34
t87 -34t25 -82z" />
    <glyph glyph-name="four.subs" horiz-adv-x="357" 
d="M305 34l-8 -60h-53l-12 -88h-66l12 88h-195l7 48l220 278h80l-37 -266h52zM63 34h124l26 192z" />
    <glyph glyph-name="five.subs" horiz-adv-x="351" 
d="M297 241h-172l-27 -116q34 24 76 24q59 0 92.5 -38.5t25.5 -96.5t-55 -96.5t-108 -38.5t-96.5 38.5t-27.5 96.5h68q-5 -33 13.5 -54.5t50.5 -21.5q33 0 58.5 22t30.5 54q5 33 -14.5 55.5t-52.5 22.5q-19 0 -40.5 -10t-32.5 -24h-67l54 242h232z" />
    <glyph glyph-name="six.subs" horiz-adv-x="342" 
d="M165 151q58 0 92 -38.5t26 -95.5q-8 -59 -55 -98.5t-108 -39.5t-96.5 40t-27.5 98q7 47 39 85l159 198h78l-121 -150q4 1 14 1zM216 17q5 32 -14.5 54t-51.5 22t-56.5 -22t-29.5 -54q-5 -33 13.5 -54.5t51.5 -21.5q32 0 57 21.5t30 54.5z" />
    <glyph glyph-name="seven.subs" horiz-adv-x="326" 
d="M38 300h273l-7 -51l-220 -363h-73l213 352h-194z" />
    <glyph glyph-name="eight.subs" horiz-adv-x="335" 
d="M289 193q-9 -61 -69 -93q59 -33 50 -101q-8 -51 -52.5 -85.5t-102.5 -34.5q-59 0 -93.5 34.5t-27.5 85.5q9 67 78 101q-52 34 -43 93q7 49 48.5 81.5t97.5 32.5t88.5 -32.5t25.5 -81.5zM221 184q4 25 -12 42t-43 17q-26 0 -46.5 -17t-24.5 -42t12 -42.5t42 -17.5
q27 0 48 17.5t24 42.5zM203 8q4 28 -13.5 46.5t-47.5 18.5q-29 0 -51.5 -18.5t-27.5 -46.5q-4 -28 13.5 -46.5t47.5 -18.5t52.5 18.5t26.5 46.5z" />
    <glyph glyph-name="nine.subs" horiz-adv-x="342" 
d="M180 307q61 0 96.5 -39.5t27.5 -98.5q-7 -42 -39 -85l-159 -198h-78l120 150q-4 -1 -13 -1q-58 0 -92 38.5t-26 95.5q7 58 54 98t109 40zM237 169q4 33 -15 55t-51 22t-57 -22t-29 -55q-5 -32 13.5 -54t51.5 -22q32 0 57.5 22t29.5 54z" />
    <glyph glyph-name="zero.dnom" horiz-adv-x="396" 
d="M161 -7q-71 0 -107.5 60t-23.5 154t66.5 154t124.5 60t107.5 -60t23.5 -154t-66.5 -154t-124.5 -60zM170 57q41 0 72.5 41t41.5 109q10 67 -10.5 108.5t-61.5 41.5t-72.5 -41.5t-41.5 -108.5t10.5 -108.5t61.5 -41.5z" />
    <glyph glyph-name="one.dnom" horiz-adv-x="302" 
d="M166 60h80l-8 -60h-235l9 60h88l39 277l-94 -41l10 69l114 49h46z" />
    <glyph glyph-name="two.dnom" horiz-adv-x="339" 
d="M306 293q-7 -54 -69 -111l-134 -122h175l-9 -60h-272l7 50l180 163q51 49 55 80q4 29 -12 48t-44 19t-49.5 -19t-25.5 -48h-67q7 55 51 91.5t101 36.5q56 0 88.5 -36.5t24.5 -91.5z" />
    <glyph glyph-name="three.dnom" horiz-adv-x="330" 
d="M300 305q-7 -59 -63 -90q53 -30 45 -97q-8 -52 -52 -88.5t-102 -36.5t-92 36.5t-27 91.5h68q-4 -28 13 -47.5t47 -19.5t52.5 19t26.5 48q5 29 -12.5 49t-47.5 20h-57l7 48h57q26 0 46 18.5t24 45.5q4 25 -11.5 42t-41.5 17t-46 -16.5t-25 -42.5h-67q8 51 49.5 85t96.5 34
t87 -34t25 -82z" />
    <glyph glyph-name="four.dnom" horiz-adv-x="357" 
d="M321 148l-8 -60h-53l-12 -88h-66l12 88h-195l7 48l220 278h80l-37 -266h52zM79 148h124l26 192z" />
    <glyph glyph-name="five.dnom" horiz-adv-x="351" 
d="M313 355h-172l-27 -116q34 24 76 24q59 0 92.5 -38.5t25.5 -96.5t-55 -96.5t-108 -38.5t-96.5 38.5t-27.5 96.5h68q-5 -33 13.5 -54.5t50.5 -21.5q33 0 58.5 22t30.5 54q5 33 -14.5 55.5t-52.5 22.5q-19 0 -40.5 -10t-32.5 -24h-67l54 242h232z" />
    <glyph glyph-name="six.dnom" horiz-adv-x="342" 
d="M181 265q58 0 92 -38.5t26 -95.5q-8 -59 -55 -98.5t-108 -39.5t-96.5 40t-27.5 98q7 47 39 85l159 198h78l-121 -150q4 1 14 1zM232 131q5 32 -14.5 54t-51.5 22t-56.5 -22t-29.5 -54q-5 -33 13.5 -54.5t51.5 -21.5q32 0 57 21.5t30 54.5z" />
    <glyph glyph-name="seven.dnom" horiz-adv-x="326" 
d="M54 414h273l-7 -51l-220 -363h-73l213 352h-194z" />
    <glyph glyph-name="eight.dnom" horiz-adv-x="335" 
d="M305 307q-9 -61 -69 -93q59 -33 50 -101q-8 -51 -52.5 -85.5t-102.5 -34.5q-59 0 -93.5 34.5t-27.5 85.5q9 67 78 101q-52 34 -43 93q7 49 48.5 81.5t97.5 32.5t88.5 -32.5t25.5 -81.5zM237 298q4 25 -12 42t-43 17q-26 0 -46.5 -17t-24.5 -42t12 -42.5t42 -17.5
q27 0 48 17.5t24 42.5zM219 122q4 28 -13.5 46.5t-47.5 18.5q-29 0 -51.5 -18.5t-27.5 -46.5q-4 -28 13.5 -46.5t47.5 -18.5t52.5 18.5t26.5 46.5z" />
    <glyph glyph-name="nine.dnom" horiz-adv-x="342" 
d="M196 421q61 0 96.5 -39.5t27.5 -98.5q-7 -42 -39 -85l-159 -198h-78l120 150q-4 -1 -13 -1q-58 0 -92 38.5t-26 95.5q7 58 54 98t109 40zM253 283q4 33 -15 55t-51 22t-57 -22t-29 -55q-5 -32 13.5 -54t51.5 -22q32 0 57.5 22t29.5 54z" />
    <glyph glyph-name="zero.numr" horiz-adv-x="396" 
d="M200 269q-71 0 -107.5 60t-23.5 154t66.5 154t124.5 60t107.5 -60t23.5 -154t-66.5 -154t-124.5 -60zM209 333q41 0 72.5 41t41.5 109q10 67 -10.5 108.5t-61.5 41.5t-72.5 -41.5t-41.5 -108.5t10.5 -108.5t61.5 -41.5z" />
    <glyph glyph-name="one.numr" horiz-adv-x="302" 
d="M205 336h80l-8 -60h-235l9 60h88l39 277l-94 -41l10 69l114 49h46z" />
    <glyph glyph-name="two.numr" horiz-adv-x="339" 
d="M345 569q-7 -54 -69 -111l-134 -122h175l-9 -60h-272l7 50l180 163q51 49 55 80q4 29 -12 48t-44 19t-49.5 -19t-25.5 -48h-67q7 55 51 91.5t101 36.5q56 0 88.5 -36.5t24.5 -91.5z" />
    <glyph glyph-name="three.numr" horiz-adv-x="330" 
d="M339 581q-7 -59 -63 -90q53 -30 45 -97q-8 -52 -52 -88.5t-102 -36.5t-92 36.5t-27 91.5h68q-4 -28 13 -47.5t47 -19.5t52.5 19t26.5 48q5 29 -12.5 49t-47.5 20h-57l7 48h57q26 0 46 18.5t24 45.5q4 25 -11.5 42t-41.5 17t-46 -16.5t-25 -42.5h-67q8 51 49.5 85t96.5 34
t87 -34t25 -82z" />
    <glyph glyph-name="four.numr" horiz-adv-x="357" 
d="M360 424l-8 -60h-53l-12 -88h-66l12 88h-195l7 48l220 278h80l-37 -266h52zM118 424h124l26 192z" />
    <glyph glyph-name="five.numr" horiz-adv-x="351" 
d="M352 631h-172l-27 -116q34 24 76 24q59 0 92.5 -38.5t25.5 -96.5t-55 -96.5t-108 -38.5t-96.5 38.5t-27.5 96.5h68q-5 -33 13.5 -54.5t50.5 -21.5q33 0 58.5 22t30.5 54q5 33 -14.5 55.5t-52.5 22.5q-19 0 -40.5 -10t-32.5 -24h-67l54 242h232z" />
    <glyph glyph-name="six.numr" horiz-adv-x="342" 
d="M220 541q58 0 92 -38.5t26 -95.5q-8 -59 -55 -98.5t-108 -39.5t-96.5 40t-27.5 98q7 47 39 85l159 198h78l-121 -150q4 1 14 1zM271 407q5 32 -14.5 54t-51.5 22t-56.5 -22t-29.5 -54q-5 -33 13.5 -54.5t51.5 -21.5q32 0 57 21.5t30 54.5z" />
    <glyph glyph-name="seven.numr" horiz-adv-x="326" 
d="M93 690h273l-7 -51l-220 -363h-73l213 352h-194z" />
    <glyph glyph-name="eight.numr" horiz-adv-x="335" 
d="M344 583q-9 -61 -69 -93q59 -33 50 -101q-8 -51 -52.5 -85.5t-102.5 -34.5q-59 0 -93.5 34.5t-27.5 85.5q9 67 78 101q-52 34 -43 93q7 49 48.5 81.5t97.5 32.5t88.5 -32.5t25.5 -81.5zM276 574q4 25 -12 42t-43 17q-26 0 -46.5 -17t-24.5 -42t12 -42.5t42 -17.5
q27 0 48 17.5t24 42.5zM258 398q4 28 -13.5 46.5t-47.5 18.5q-29 0 -51.5 -18.5t-27.5 -46.5q-4 -28 13.5 -46.5t47.5 -18.5t52.5 18.5t26.5 46.5z" />
    <glyph glyph-name="nine.numr" horiz-adv-x="342" 
d="M235 697q61 0 96.5 -39.5t27.5 -98.5q-7 -42 -39 -85l-159 -198h-78l120 150q-4 -1 -13 -1q-58 0 -92 38.5t-26 95.5q7 58 54 98t109 40zM292 559q4 33 -15 55t-51 22t-57 -22t-29 -55q-5 -32 13.5 -54t51.5 -22q32 0 57.5 22t29.5 54z" />
    <glyph glyph-name="exclamdown.case" horiz-adv-x="253" 
d="M171 572q-27 0 -42 18t-11 45q3 26 23.5 44t47.5 18t42.5 -18t11.5 -44q-4 -27 -24.5 -45t-47.5 -18zM45 0l24 170l52 327h80l-41 -327l-24 -170h-91z" />
    <glyph glyph-name="questiondown.case" horiz-adv-x="500" 
d="M305 572q-27 0 -42 18t-11 45q3 26 23.5 44t47.5 18t42 -17.5t12 -44.5q-5 -27 -25 -45t-47 -18zM222 -12q-86 0 -136 56.5t-38 141.5q5 38 24.5 71t37.5 50.5t48 40.5q26 20 40.5 33t28.5 34.5t17 45.5l5 32h90l-4 -32q-6 -38 -25 -70t-36.5 -48.5t-47.5 -40.5
q-37 -29 -58 -55t-26 -61q-7 -47 19.5 -78.5t73.5 -31.5t82.5 31.5t42.5 78.5h93q-12 -85 -78 -141.5t-153 -56.5z" />
    <glyph glyph-name="periodcentered.case" horiz-adv-x="255" 
d="M132 281q-28 0 -44 18.5t-12 45.5t25 45.5t49 18.5q27 0 43 -18.5t12 -45.5t-25 -45.5t-48 -18.5z" />
    <glyph glyph-name="bullet.case" horiz-adv-x="318" 
d="M158 250q-41 0 -64.5 27t-17.5 68t37 68t72 27t64.5 -27t18.5 -68q-6 -41 -37.5 -68t-72.5 -27z" />
    <glyph glyph-name="asterisk.case" horiz-adv-x="397" 
d="M288 540l19 -9l70 -43l-34 -47l-71 43l-15 14v-22l-12 -87h-55l12 87l6 22l-19 -14l-83 -43l-22 47l84 44l22 8l-20 8l-71 43l35 48l71 -44l16 -14l-1 22l12 87h55l-12 -87l-6 -22l19 14l83 44l21 -48l-83 -44z" />
    <glyph glyph-name="slash.case" horiz-adv-x="517" 
d="M-36 -105l527 900h87l-527 -900h-87z" />
    <glyph glyph-name="backslash.case" horiz-adv-x="517" 
d="M364 -105l-273 900h87l273 -900h-87z" />
    <glyph glyph-name="parenleft.case" horiz-adv-x="340" 
d="M175 -125q-52 85 -73 213.5t-3 256.5t75 256.5t133 213.5h87q-74 -85 -130 -213.5t-74 -256.5q-18 -129 1.5 -257t70.5 -213h-87z" />
    <glyph glyph-name="parenright.case" horiz-adv-x="340" 
d="M-28 -125q74 85 130 214t74 256q18 128 -2 256.5t-70 213.5h87q52 -85 73 -213.5t3 -256.5q-18 -127 -75 -256t-133 -214h-87z" />
    <glyph glyph-name="braceleft.case" horiz-adv-x="409" 
d="M358 815h92l-11 -81h-61q-27 0 -47.5 -18.5t-24.5 -46.5l-35 -248q-4 -25 -21 -45.5t-43 -29.5q49 -21 43 -76l-35 -249q-4 -28 11 -46.5t42 -18.5h61l-11 -81h-92q-53 0 -82 34t-22 87l36 253q4 25 -9 40.5t-37 15.5h-39l12 81h39q24 0 41 15.5t21 40.5l35 252
q7 53 45.5 87t91.5 34z" />
    <glyph glyph-name="braceright.case" horiz-adv-x="409" 
d="M323 386h39l-12 -81h-39q-24 0 -41 -15.5t-21 -40.5l-36 -253q-7 -53 -45 -87t-91 -34h-92l10 81h61q28 0 48 18.5t24 46.5l36 249q3 25 20 45.5t43 30.5q-23 9 -34.5 29.5t-7.5 45.5l35 248q4 28 -11.5 46.5t-42.5 18.5h-61l12 81h92q53 0 81.5 -34t21.5 -87l-35 -252
q-4 -25 9 -40.5t37 -15.5z" />
    <glyph glyph-name="bracketleft.case" horiz-adv-x="350" 
d="M379 734h-127l-109 -778h127l-11 -81h-216l132 940h216z" />
    <glyph glyph-name="bracketright.case" horiz-adv-x="350" 
d="M117 815h216l-132 -940h-216l10 81h128l109 778h-127z" />
    <glyph glyph-name="hyphen.case" horiz-adv-x="408" 
d="M71 304l11 83h281l-11 -83h-281z" />
    <glyph glyph-name="endash.case" horiz-adv-x="608" 
d="M71 307l11 78h481l-11 -78h-481z" />
    <glyph glyph-name="emdash.case" horiz-adv-x="1068" 
d="M71 307l11 78h941l-11 -78h-941z" />
    <glyph glyph-name="guillemotleft.case" horiz-adv-x="623" 
d="M362 548l-195 -203l139 -203h-102l-138 203l195 203h101zM608 548l-195 -203l138 -203h-102l-138 203l195 203h102z" />
    <glyph glyph-name="guillemotright.case" horiz-adv-x="623" 
d="M203 548l138 -203l-195 -203h-101l193 203l-137 203h102zM448 548l138 -203l-194 -203h-102l194 203l-137 203h101z" />
    <glyph glyph-name="guilsinglleft.case" horiz-adv-x="378" 
d="M362 548l-195 -203l139 -203h-102l-138 203l195 203h101z" />
    <glyph glyph-name="guilsinglright.case" horiz-adv-x="378" 
d="M203 548l138 -203l-195 -203h-101l193 203l-137 203h102z" />
    <glyph glyph-name="plus.case" horiz-adv-x="534" 
d="M489 384l-11 -78h-165l-23 -165h-79l23 165h-163l11 78h164l23 165h79l-23 -165h164z" />
    <glyph glyph-name="at.case" horiz-adv-x="842" 
d="M489 711q156 0 247 -99.5t70 -248.5q-12 -89 -59 -144t-116 -55q-41 0 -70 17.5t-38 47.5q-53 -67 -138 -67q-76 0 -118.5 52t-31.5 130t68 130.5t129 52.5q79 0 115 -60l7 48h81l-33 -239q-2 -21 8.5 -34t30.5 -13q32 0 57.5 38t33.5 97q16 118 -56.5 197t-196.5 79
q-128 0 -224.5 -84t-113.5 -211q-18 -127 55 -211.5t200 -84.5q112 0 195 60h113q-63 -61 -146.5 -96t-172.5 -35q-158 0 -249.5 105t-69.5 262q23 156 143.5 261t279.5 105zM410 240q42 0 75 26t43 66l4 25q1 40 -25 66t-68 26q-45 0 -79.5 -29.5t-40.5 -74.5
q-6 -46 20 -75.5t71 -29.5z" />
    <glyph glyph-name="uni030C.alt" 
d="M-64 519l49 201h80l-63 -201h-66z" />
    <glyph glyph-name="caron.alt" horiz-adv-x="101" 
d="M37 519l49 201h80l-63 -201h-66z" />
    </font>
</defs>
</svg>
