<?xml version="1.0" standalone="no"?>
<!DOCTYPE svg PUBLIC "-//W3C//DTD SVG 1.1//EN" "http://www.w3.org/Graphics/SVG/1.1/DTD/svg11.dtd" >
<svg xmlns="http://www.w3.org/2000/svg" xmlns:xlink="http://www.w3.org/1999/xlink" version="1.1">
<metadata>
Created by FontForge 20170731 at Sun May 12 20:01:10 2019
 By Aleksey,,,
Copyright (c) 2019 by Adam Ladd. All rights reserved.
</metadata>
<defs>
<font id="Fractul-SemiBold" horiz-adv-x="580" >
  <font-face 
    font-family="Fractul SemiBold"
    font-weight="600"
    font-stretch="normal"
    units-per-em="1000"
    panose-1="0 0 7 0 0 0 0 0 0 0"
    ascent="780"
    descent="-220"
    x-height="510"
    cap-height="690"
    bbox="-709 -245 1272 934"
    underline-thickness="74"
    underline-position="-248"
    unicode-range="U+0020-FB02"
  />
<missing-glyph horiz-adv-x="500" 
d="M410 780v-1000h-317v1000h317zM333 713h-165v-33h65v-37h-66v-33h166v33h-66v37h66v33zM267 584h-100v-104h166v34h-66v70zM233 550v-36h-33v36h33zM333 453h-166v-33h66v-37h-66v-33h100v70h66v33zM333 393h-33v-66h-133v-34h166v100zM333 271h-100v-56h34v23h33v-47
h-100v80h-33v-113h166v113zM333 98h-166v-113h166v113zM300 65v-47h-100v47h100zM333 -38h-166v-33h70l-70 -47v-33h166v33h-102l70 47h32v33z" />
    <glyph glyph-name="fi" unicode="fi" horiz-adv-x="624" 
d="M497 585q-35 0 -58.5 23t-23.5 58t23.5 58t58.5 23t58 -23.5t23 -57.5t-23 -57.5t-58 -23.5zM562 510v-510h-130v391h-194v-391h-130v391h-80v119h80v210h237v-119h-107v-91h324z" />
    <glyph glyph-name="fl" unicode="fl" horiz-adv-x="683" 
d="M108 510v210h257v-119h-127v-91h127v-119h-127v-391h-130v391h-80v119h80zM584 119h86v-119h-216v720h130v-601z" />
    <glyph glyph-name="f_f.liga" unicode="ff" horiz-adv-x="734" 
d="M720 601h-127v-91h127v-119h-127v-391h-130v391h-225v-391h-130v391h-80v119h80v210h257v-119h-127v-91h225v210h257v-119z" />
    <glyph glyph-name="f_f_i.liga" unicode="ffi" horiz-adv-x="979" 
d="M851 585q-35 0 -58 23.5t-23 57.5t23 57.5t58 23.5t58.5 -23t23.5 -58t-23.5 -58t-58.5 -23zM916 510v-510h-130v391h-193v-391h-130v391h-225v-391h-130v391h-80v119h80v210h257v-119h-127v-91h225v210h237v-119h-107v-91h323z" />
    <glyph glyph-name=".notdef" horiz-adv-x="500" 
d="M410 780v-1000h-317v1000h317zM333 713h-165v-33h65v-37h-66v-33h166v33h-66v37h66v33zM267 584h-100v-104h166v34h-66v70zM233 550v-36h-33v36h33zM333 453h-166v-33h66v-37h-66v-33h100v70h66v33zM333 393h-33v-66h-133v-34h166v100zM333 271h-100v-56h34v23h33v-47
h-100v80h-33v-113h166v113zM333 98h-166v-113h166v113zM300 65v-47h-100v47h100zM333 -38h-166v-33h70l-70 -47v-33h166v33h-102l70 47h32v33z" />
    <glyph glyph-name=".null" horiz-adv-x="0" 
 />
    <glyph glyph-name="nonmarkingreturn" horiz-adv-x="333" 
 />
    <glyph glyph-name="space" unicode=" " horiz-adv-x="228" 
 />
    <glyph glyph-name="exclam" unicode="!" horiz-adv-x="272" 
d="M76 220l-8 300v170h137v-170l-8 -300h-121zM136 -9q-38 0 -63 25t-25 62t25 62t63 25t63 -24.5t25 -62.5t-25 -62.5t-63 -24.5z" />
    <glyph glyph-name="quotedbl" unicode="&#x22;" horiz-adv-x="437" 
d="M56 422l-8 268h129l-9 -268h-112zM269 422l-9 268h129l-9 -268h-111z" />
    <glyph glyph-name="numbersign" unicode="#" horiz-adv-x="767" 
d="M732 408h-140l-38 -126h124v-113h-157l-50 -169h-120l50 169h-148l-50 -169h-121l50 169h-106v113h140l37 126h-124v113h158l50 169h120l-50 -169h148l50 169h120l-50 -169h107v-113zM434 282l38 126h-148l-38 -126h148z" />
    <glyph glyph-name="dollar" unicode="$" horiz-adv-x="551" 
d="M512 199q0 -81 -58.5 -138t-149.5 -66v-64h-56v64q-91 9 -150 67.5t-59 142.5h141q0 -30 19 -53t49 -31v166q-1 0 -2.5 0.5t-2.5 0.5q-194 51 -194 211q0 78 56.5 133t142.5 63v65h56v-66q87 -9 142.5 -65t55.5 -135h-141q0 26 -15.5 46t-41.5 28v-156q1 0 3 -1t3 -1
q92 -24 147 -73t55 -138zM191 504q0 -45 57 -72v138q-25 -6 -41 -24t-16 -42zM304 120q29 6 47.5 25.5t18.5 44.5q0 47 -66 77v-147z" />
    <glyph glyph-name="percent" unicode="%" horiz-adv-x="861" 
d="M211 366q-73 0 -122 48.5t-49 120.5q0 71 49 119t122 48t122 -48t49 -119q0 -72 -49 -120.5t-122 -48.5zM111 0l500 690h139l-500 -690h-139zM211 471q27 0 45 18.5t18 45.5q0 26 -18 44t-45 18t-45 -18t-18 -44q0 -27 18 -45.5t45 -18.5zM650 -12q-73 0 -122 48.5
t-49 120.5q0 71 49 119t122 48t122 -48t49 -119q0 -72 -49 -120.5t-122 -48.5zM650 93q27 0 45 18t18 46q0 26 -18 44t-45 18t-45 -18t-18 -44q0 -28 18 -46t45 -18z" />
    <glyph glyph-name="ampersand" unicode="&#x26;" horiz-adv-x="627" 
d="M636 0h-155l-40 58q-57 -70 -164 -70q-111 0 -179.5 62t-68.5 163q0 152 156 217l-104 151v109h398v-118h-239l204 -295v164h122v-175q0 -68 -30 -122zM282 107q59 0 102 34l-136 197q-91 -42 -91 -122q0 -47 35 -78t90 -31z" />
    <glyph glyph-name="quotesingle" unicode="'" horiz-adv-x="225" 
d="M56 422l-8 268h129l-9 -268h-112z" />
    <glyph glyph-name="parenleft" unicode="(" horiz-adv-x="341" 
d="M210 -190q-64 85 -103 213.5t-39 256.5t39 256.5t103 213.5h131q-62 -85 -99.5 -213.5t-37.5 -256.5t37.5 -256.5t99.5 -213.5h-131z" />
    <glyph glyph-name="parenright" unicode=")" horiz-adv-x="341" 
d="M-1 -190q62 85 100 213.5t38 256.5t-38 256.5t-100 213.5h131q65 -85 104 -213.5t39 -256.5t-39 -256.5t-104 -213.5h-131z" />
    <glyph glyph-name="asterisk" unicode="*" horiz-adv-x="375" 
d="M257 564l29 -12l61 -33l-40 -69l-62 33l-22 19l5 -29v-67h-81v67l5 29l-23 -19l-60 -33l-41 69l61 35l27 10l-27 10l-61 33l41 69l61 -32l22 -19l-5 29v66h81v-66l-5 -28l23 18l61 32l40 -69l-61 -33z" />
    <glyph glyph-name="plus" unicode="+" horiz-adv-x="534" 
d="M476 354v-117h-150v-151h-118v151h-150v117h150v150h118v-150h150z" />
    <glyph glyph-name="comma" unicode="," horiz-adv-x="259" 
d="M5 -145l70 282h152l-110 -282h-112z" />
    <glyph glyph-name="hyphen" unicode="-" horiz-adv-x="408" 
d="M58 211v126h292v-126h-292z" />
    <glyph glyph-name="period" unicode="." horiz-adv-x="255" 
d="M128 -9q-39 0 -65 26t-26 64t26 64t65 26q38 0 64 -26t26 -64t-26 -64t-64 -26z" />
    <glyph glyph-name="slash" unicode="/" horiz-adv-x="531" 
d="M0 -150l400 900h131l-400 -900h-131z" />
    <glyph glyph-name="zero" unicode="0" horiz-adv-x="634" 
d="M317 -12q-119 0 -195 99.5t-76 257.5t76 257.5t195 99.5q120 0 195.5 -99.5t75.5 -257.5t-75.5 -257.5t-195.5 -99.5zM317 121q57 0 93 62.5t36 161.5t-36 161.5t-93 62.5q-56 0 -92.5 -62.5t-36.5 -161.5t36.5 -161.5t92.5 -62.5z" />
    <glyph glyph-name="one" unicode="1" horiz-adv-x="454" 
d="M320 130h123v-130h-399v130h138v396l-138 -60v147l178 77h98v-560z" />
    <glyph glyph-name="two" unicode="2" horiz-adv-x="528" 
d="M236 130h244v-130h-436v112l223 250q67 76 67 129q0 31 -20.5 52t-51.5 21q-32 0 -52.5 -21t-20.5 -52h-142q0 90 61.5 150.5t153.5 60.5q91 0 152.5 -60.5t61.5 -150.5q0 -97 -88 -193z" />
    <glyph glyph-name="three" unicode="3" horiz-adv-x="515" 
d="M382 358q42 -25 67 -68t25 -93q0 -89 -62.5 -149t-155.5 -60q-94 0 -156.5 60t-62.5 149h141q0 -32 22.5 -54t55.5 -22q32 0 54.5 22t22.5 54q0 42 -26.5 68.5t-67.5 26.5h-78v129h78q36 0 59.5 23.5t23.5 59.5q0 28 -19 46.5t-47 18.5q-29 0 -48 -18.5t-19 -46.5h-141
q0 85 59.5 141.5t148.5 56.5t148 -56.5t59 -141.5q0 -45 -22 -83.5t-59 -62.5z" />
    <glyph glyph-name="four" unicode="4" horiz-adv-x="568" 
d="M543 264v-130h-74v-134h-138v134h-303v102l289 454h152v-426h74zM182 264h149v241z" />
    <glyph glyph-name="five" unicode="5" horiz-adv-x="555" 
d="M302 448q96 0 160 -66t64 -164t-68 -164t-169 -66t-168.5 66t-67.5 164h141q0 -41 27.5 -69t67.5 -28q41 0 68.5 28t27.5 69t-27.5 69t-68.5 28q-23 0 -46.5 -11t-34.5 -28h-145l34 414h385v-130h-258l-12 -136q38 24 90 24z" />
    <glyph glyph-name="six" unicode="6" horiz-adv-x="534" 
d="M294 449q92 -4 154 -69.5t62 -161.5q0 -98 -68.5 -164t-170.5 -66q-101 0 -169.5 66t-68.5 164q0 78 45 150l202 322h167zM271 121q42 0 69.5 28t27.5 69q0 42 -27.5 69.5t-69.5 27.5q-41 0 -68.5 -27.5t-27.5 -69.5q0 -41 27.5 -69t68.5 -28z" />
    <glyph glyph-name="seven" unicode="7" horiz-adv-x="524" 
d="M38 690h460v-108l-263 -582h-156l255 560h-296v130z" />
    <glyph glyph-name="eight" unicode="8" horiz-adv-x="541" 
d="M405 358q44 -27 69.5 -70t25.5 -95q0 -87 -65.5 -146t-164.5 -59q-97 0 -163 59t-66 146q0 107 94 165q-80 56 -80 151q0 82 61 137.5t154 55.5t154.5 -55.5t61.5 -137.5q0 -96 -81 -151zM270 569q-32 0 -52.5 -21t-20.5 -53t21 -53t52 -21q32 0 53.5 21.5t21.5 52.5
q0 32 -21.5 53t-53.5 21zM270 121q38 0 63.5 24.5t25.5 61.5q0 36 -25.5 60.5t-63.5 24.5q-37 0 -62 -24.5t-25 -60.5q0 -37 25 -61.5t62 -24.5z" />
    <glyph glyph-name="nine" unicode="9" horiz-adv-x="542" 
d="M271 702q101 0 169.5 -66t68.5 -164q0 -75 -44 -150l-194 -322h-164l147 241q-95 2 -158.5 68t-63.5 163q0 98 68.5 164t170.5 66zM174 472q0 -42 28 -69.5t69 -27.5t69 27.5t28 69.5q0 41 -28 69t-69 28t-69 -28t-28 -69z" />
    <glyph glyph-name="colon" unicode=":" horiz-adv-x="265" 
d="M133 317q-39 0 -65 26t-26 64t26 64t65 26q38 0 64 -26t26 -64t-26 -64t-64 -26zM133 -9q-39 0 -65 26t-26 64t26 64t65 26q38 0 64 -26t26 -64t-26 -64t-64 -26z" />
    <glyph glyph-name="semicolon" unicode=";" horiz-adv-x="280" 
d="M148 317q-39 0 -65 26t-26 64t26 64t65 26q38 0 64.5 -26t26.5 -64t-26.5 -64t-64.5 -26zM5 -145l70 282h152l-111 -282h-111z" />
    <glyph glyph-name="less" unicode="&#x3c;" horiz-adv-x="464" 
d="M406 525v-130l-217 -99l217 -99v-130l-348 170v118z" />
    <glyph glyph-name="equal" unicode="=" horiz-adv-x="534" 
d="M58 335v117h418v-117h-418zM58 139v117h418v-117h-418z" />
    <glyph glyph-name="greater" unicode="&#x3e;" horiz-adv-x="464" 
d="M58 525l348 -170v-118l-348 -170v130l217 99l-217 99v130z" />
    <glyph glyph-name="question" unicode="?" horiz-adv-x="474" 
d="M162 222v24q0 39 14.5 72.5t29 49t40.5 38.5q19 17 29 27.5t18.5 28t8.5 35.5q0 31 -20.5 51.5t-50.5 20.5t-50.5 -20.5t-20.5 -51.5h-142q0 88 61 146.5t152 58.5t151.5 -58.5t60.5 -146.5q0 -39 -14.5 -71.5t-29.5 -49t-41 -38.5q-29 -25 -44 -45.5t-15 -46.5v-24h-137
zM231 -9q-38 0 -63 24.5t-25 62.5t25 62.5t63 24.5t63 -25t25 -62t-25 -62t-63 -25z" />
    <glyph glyph-name="at" unicode="@" horiz-adv-x="835" 
d="M421 -11q105 0 173 52h144q-57 -66 -140.5 -104t-177.5 -38q-162 0 -269.5 106t-107.5 264t108 264.5t270 106.5q157 0 264 -99t107 -248q0 -92 -43.5 -147.5t-119.5 -55.5q-87 0 -127 59q-38 -61 -116 -61q-74 0 -122 52t-48 128q0 78 47.5 130t115.5 52q64 0 105 -47
v35h111v-221q0 -17 10.5 -28t28.5 -11q28 0 45.5 32.5t17.5 84.5q0 109 -79.5 182t-196.5 73q-122 0 -202.5 -80t-80.5 -201q0 -120 80.5 -200t202.5 -80zM406 194q34 0 56 21.5t22 53.5t-22.5 53.5t-55.5 21.5t-54.5 -21t-21.5 -54q0 -32 22 -53.5t54 -21.5z" />
    <glyph glyph-name="A" unicode="A" horiz-adv-x="716" 
d="M554 0l-49 134h-296l-49 -134h-149l266 690h163l265 -690h-151zM255 261h203l-101 277z" />
    <glyph glyph-name="B" unicode="B" horiz-adv-x="572" 
d="M435 367q51 -17 83.5 -67.5t32.5 -112.5q0 -81 -55 -134t-139 -53h-287v690h261q78 0 130.5 -50t52.5 -126q0 -47 -22 -87t-57 -60zM297 566h-93v-152h93q31 0 53 22t22 54t-21.5 54t-53.5 22zM323 124q37 0 61.5 25t24.5 62q0 36 -24.5 61t-61.5 25h-119v-173h119z" />
    <glyph glyph-name="C" unicode="C" horiz-adv-x="787" 
d="M400 -12q-156 0 -260 102.5t-104 254.5t104 254.5t260 102.5q132 0 230 -77t125 -199h-147q-24 64 -80 103.5t-128 39.5q-95 0 -159 -64t-64 -160t64 -160t159 -64q72 0 128 39.5t80 103.5h147q-27 -122 -125 -199t-230 -77z" />
    <glyph glyph-name="D" unicode="D" horiz-adv-x="728" 
d="M340 690q151 0 251.5 -98.5t100.5 -246.5t-100.5 -246.5t-251.5 -98.5h-270v690h270zM337 130q91 0 152 61.5t61 153.5t-61 153.5t-152 61.5h-129v-430h129z" />
    <glyph glyph-name="E" unicode="E" horiz-adv-x="505" 
d="M208 130h261v-130h-399v690h394v-130h-256v-148h223v-130h-223v-152z" />
    <glyph glyph-name="F" unicode="F" horiz-adv-x="478" 
d="M449 560h-241v-155h201v-130h-201v-275h-138v690h379v-130z" />
    <glyph glyph-name="G" unicode="G" horiz-adv-x="810" 
d="M408 388h349v-388h-121v88q-78 -100 -236 -100q-156 0 -260 102.5t-104 254.5t104 254.5t260 102.5q125 0 219.5 -67t121.5 -173h-154q-26 49 -75.5 78t-111.5 29q-95 0 -159 -64t-64 -160t64 -160t159 -64q74 0 130.5 39t76.5 103h-199v125z" />
    <glyph glyph-name="H" unicode="H" horiz-adv-x="722" 
d="M514 690h138v-690h-138v282h-306v-282h-138v690h138v-278h306v278z" />
    <glyph glyph-name="I" unicode="I" horiz-adv-x="381" 
d="M346 560h-86v-430h86v-130h-311v130h87v430h-87v130h311v-130z" />
    <glyph glyph-name="J" unicode="J" horiz-adv-x="463" 
d="M255 690h138v-690h-369v130h231v560z" />
    <glyph glyph-name="K" unicode="K" horiz-adv-x="641" 
d="M472 0l-205 282h-59v-282h-138v690h138v-278h60l200 278h170l-254 -341l260 -349h-172z" />
    <glyph glyph-name="L" unicode="L" horiz-adv-x="463" 
d="M208 130h231v-130h-369v690h138v-560z" />
    <glyph glyph-name="M" unicode="M" horiz-adv-x="901" 
d="M654 690h177v-690h-138v455l-195 -455h-95l-195 455v-455h-138v690h179l203 -477z" />
    <glyph glyph-name="N" unicode="N" horiz-adv-x="732" 
d="M524 690h138v-690h-140l-314 453v-453h-138v690h140l314 -453v453z" />
    <glyph glyph-name="O" unicode="O" horiz-adv-x="799" 
d="M400 -12q-156 0 -260 102.5t-104 254.5t104 254.5t260 102.5q155 0 259.5 -102.5t104.5 -254.5t-104.5 -254.5t-259.5 -102.5zM400 121q95 0 158.5 64t63.5 160t-63.5 160t-158.5 64t-159 -64t-64 -160t64 -160t159 -64z" />
    <glyph glyph-name="P" unicode="P" horiz-adv-x="576" 
d="M318 690q101 0 169 -66t68 -164t-68 -164t-169 -66h-110v-230h-138v690h248zM315 360q42 0 70 28.5t28 71.5t-28 71.5t-70 28.5h-107v-200h107z" />
    <glyph glyph-name="Q" unicode="Q" horiz-adv-x="799" 
d="M468 -6v-61h209v-123h-347v184q-130 23 -212 120t-82 231q0 152 104 254.5t260 102.5q155 0 259.5 -102.5t104.5 -254.5q0 -134 -83 -231.5t-213 -119.5zM177 345q0 -96 64 -160t159 -64t158.5 64t63.5 160t-63.5 160t-158.5 64t-159 -64t-64 -160z" />
    <glyph glyph-name="R" unicode="R" 
d="M396 0l-132 246h-56v-246h-138v690h241q100 0 167 -64.5t67 -161.5q0 -68 -36.5 -121.5t-98.5 -78.5l152 -264h-166zM208 560v-194h100q40 0 67.5 28t27.5 69t-27.5 69t-67.5 28h-100z" />
    <glyph glyph-name="S" unicode="S" horiz-adv-x="545" 
d="M273 -12q-102 0 -170.5 62t-68.5 154h142q0 -39 28.5 -66t70.5 -27q40 0 67 22.5t27 55.5q0 67 -130 99q-195 51 -195 213q0 86 65 143.5t162 57.5q98 0 164 -59.5t66 -147.5h-142q0 36 -25 60t-63 24q-36 0 -60.5 -20.5t-24.5 -51.5q0 -66 120 -97q94 -24 149.5 -73
t55.5 -140q0 -89 -68.5 -149t-169.5 -60z" />
    <glyph glyph-name="T" unicode="T" horiz-adv-x="546" 
d="M520 690v-130h-178v-560h-138v560h-178v130h494z" />
    <glyph glyph-name="U" unicode="U" horiz-adv-x="686" 
d="M343 -12q-122 0 -204 80t-82 199v423h138v-421q0 -63 42 -105.5t106 -42.5t106 42.5t42 105.5v421h138v-423q0 -119 -82 -199t-204 -80z" />
    <glyph glyph-name="V" unicode="V" horiz-adv-x="710" 
d="M549 690h151l-274 -690h-142l-274 690h154l193 -507z" />
    <glyph glyph-name="W" unicode="W" horiz-adv-x="1115" 
d="M952 690h150l-246 -690h-139l-159 483l-160 -483h-139l-245 690h152l165 -504l165 504h126l167 -504z" />
    <glyph glyph-name="X" unicode="X" horiz-adv-x="719" 
d="M706 0h-170l-177 251l-177 -251h-169l252 346l-248 344h170l174 -248l172 248h169l-248 -344z" />
    <glyph glyph-name="Y" unicode="Y" horiz-adv-x="677" 
d="M522 690h155l-270 -448v-242h-137v242l-270 448h158l182 -308z" />
    <glyph glyph-name="Z" unicode="Z" horiz-adv-x="614" 
d="M225 130h353v-130h-542v99l346 461h-342v130h531v-99z" />
    <glyph glyph-name="bracketleft" unicode="[" horiz-adv-x="350" 
d="M326 627h-114v-694h114v-123h-248v940h248v-123z" />
    <glyph glyph-name="backslash" unicode="\" horiz-adv-x="531" 
d="M400 -150l-400 900h131l400 -900h-131z" />
    <glyph glyph-name="bracketright" unicode="]" horiz-adv-x="350" 
d="M24 750h248v-940h-248v123h114v694h-114v123z" />
    <glyph glyph-name="asciicircum" unicode="^" horiz-adv-x="429" 
d="M401 438h-117l-69 145l-69 -145h-118l127 252h119z" />
    <glyph glyph-name="underscore" unicode="_" horiz-adv-x="495" 
d="M22 -172v110h452v-110h-452z" />
    <glyph glyph-name="grave" unicode="`" horiz-adv-x="265" 
d="M128 566l-128 143h164l101 -143h-137z" />
    <glyph glyph-name="a" unicode="a" horiz-adv-x="538" 
d="M468 118h59v-118h-174v52q-53 -64 -146 -64q-77 0 -129 48.5t-52 119.5q0 72 52 119.5t129 47.5h131v66h-276v121h406v-392zM237 92q45 0 73 20t28 52v59h-101q-33 0 -55 -18.5t-22 -46.5t22 -47t55 -19z" />
    <glyph glyph-name="b" unicode="b" horiz-adv-x="640" 
d="M358 522q106 0 177 -76.5t71 -190.5t-71 -190.5t-177 -76.5q-102 0 -166 79v-67h-130v720h130v-277q64 79 166 79zM332 114q60 0 100 40.5t40 100.5t-40 100.5t-100 40.5t-100 -40.5t-40 -100.5t40 -100.5t100 -40.5z" />
    <glyph glyph-name="c" unicode="c" horiz-adv-x="601" 
d="M305 -12q-117 0 -195.5 76.5t-78.5 190.5t78.5 190.5t195.5 76.5q102 0 176 -59t92 -152h-138q-16 39 -51 62t-79 23q-60 0 -100 -40.5t-40 -100.5t40 -100.5t100 -40.5q44 0 79 23t51 62h138q-18 -93 -92 -152t-176 -59z" />
    <glyph glyph-name="d" unicode="d" horiz-adv-x="640" 
d="M448 720h130v-720h-130v67q-64 -79 -166 -79q-106 0 -177.5 76.5t-71.5 190.5t71.5 190.5t177.5 76.5q102 0 166 -79v277zM307 114q61 0 101 40.5t40 100.5t-40 100.5t-101 40.5q-60 0 -100 -40.5t-40 -100.5t40 -100.5t100 -40.5z" />
    <glyph glyph-name="e" unicode="e" horiz-adv-x="608" 
d="M579 254q0 -28 -4 -44h-405q13 -49 49.5 -78t87.5 -29q41 0 74.5 17t48.5 44h139q-28 -79 -99.5 -127.5t-164.5 -48.5q-117 0 -195.5 76.5t-78.5 190.5t78.5 190.5t195.5 76.5t195.5 -76.5t78.5 -191.5zM305 408q-48 0 -84 -28t-49 -75h267q-13 47 -49.5 75t-84.5 28z
" />
    <glyph glyph-name="f" unicode="f" horiz-adv-x="379" 
d="M365 601h-127v-91h127v-119h-127v-391h-130v391h-80v119h80v210h257v-119z" />
    <glyph glyph-name="g" unicode="g" horiz-adv-x="639" 
d="M447 510h130v-700h-494v119h364v150q-65 -76 -165 -76q-106 0 -177.5 74.5t-71.5 185.5q0 110 71.5 184.5t177.5 74.5q100 0 165 -76v64zM307 121q61 0 100.5 40.5t39.5 101.5q0 60 -40 100.5t-100 40.5t-100 -40.5t-40 -100.5q0 -61 40 -101.5t100 -40.5z" />
    <glyph glyph-name="h" unicode="h" horiz-adv-x="607" 
d="M354 522q90 0 144.5 -54t54.5 -144v-324h-130v282q0 52 -30.5 83t-80.5 31q-54 0 -87 -32t-33 -84v-280h-130v720h130v-277q59 79 162 79z" />
    <glyph glyph-name="i" unicode="i" horiz-adv-x="254" 
d="M127 585q-35 0 -58.5 23.5t-23.5 57.5t23.5 57.5t58.5 23.5t58.5 -23.5t23.5 -57.5t-23.5 -57.5t-58.5 -23.5zM62 0v510h130v-510h-130z" />
    <glyph glyph-name="j" unicode="j" horiz-adv-x="259" 
d="M132 585q-35 0 -58.5 23.5t-23.5 57.5t23.5 57.5t58.5 23.5t58.5 -23.5t23.5 -57.5t-23.5 -57.5t-58.5 -23.5zM67 -83v593h130v-712h-216v119h86z" />
    <glyph glyph-name="k" unicode="k" horiz-adv-x="540" 
d="M380 0l-134 198h-54v-198h-130v720h130v-404h55l128 194h156l-177 -253l184 -257h-158z" />
    <glyph glyph-name="l" unicode="l" horiz-adv-x="291" 
d="M192 119h86v-119h-216v720h130v-601z" />
    <glyph glyph-name="m" unicode="m" horiz-adv-x="921" 
d="M680 522q84 0 135.5 -52t51.5 -138v-332h-130v293q0 47 -27 75t-73 28q-48 0 -77.5 -29t-29.5 -76v-291h-130v293q0 46 -27.5 74.5t-72.5 28.5q-48 0 -78 -29t-30 -76v-291h-130v510h130v-59q56 71 151 71q116 0 164 -92q60 92 173 92z" />
    <glyph glyph-name="n" unicode="n" horiz-adv-x="607" 
d="M354 522q90 0 144.5 -54t54.5 -144v-324h-130v282q0 52 -30.5 83t-80.5 31q-54 0 -87 -32t-33 -84v-280h-130v510h130v-63q60 75 162 75z" />
    <glyph glyph-name="o" unicode="o" horiz-adv-x="610" 
d="M305 -12q-117 0 -195.5 76.5t-78.5 190.5t78.5 190.5t195.5 76.5t195.5 -76.5t78.5 -190.5t-78.5 -190.5t-195.5 -76.5zM305 114q60 0 100 40.5t40 100.5t-40 100.5t-100 40.5t-100 -40.5t-40 -100.5t40 -100.5t100 -40.5z" />
    <glyph glyph-name="p" unicode="p" horiz-adv-x="640" 
d="M358 522q106 0 177 -76.5t71 -190.5t-71 -190.5t-177 -76.5q-102 0 -166 79v-257h-130v700h130v-67q64 79 166 79zM332 114q60 0 100 40.5t40 100.5t-40 100.5t-100 40.5t-100 -40.5t-40 -100.5t40 -100.5t100 -40.5z" />
    <glyph glyph-name="q" unicode="q" horiz-adv-x="640" 
d="M448 510h130v-700h-130v257q-64 -79 -166 -79q-106 0 -177.5 76.5t-71.5 190.5t71.5 190.5t177.5 76.5q102 0 166 -79v67zM307 114q61 0 101 40.5t40 100.5t-40 100.5t-101 40.5q-60 0 -100 -40.5t-40 -100.5t40 -100.5t100 -40.5z" />
    <glyph glyph-name="r" unicode="r" horiz-adv-x="362" 
d="M192 435q59 83 149 83v-134q-71 0 -110 -38t-39 -103v-243h-130v510h130v-75z" />
    <glyph glyph-name="s" unicode="s" horiz-adv-x="441" 
d="M221 -12q-82 0 -136.5 48t-54.5 117h131q0 -24 18 -41t43 -17q24 0 40.5 13.5t16.5 32.5q0 42 -85 64q-157 37 -157 160q0 73 53 115t130 42q78 0 131 -45.5t53 -111.5h-131q0 21 -15.5 35.5t-38.5 14.5q-21 0 -36 -12.5t-15 -29.5q0 -42 89 -64q154 -39 154 -157
q0 -76 -54.5 -120t-135.5 -44z" />
    <glyph glyph-name="t" unicode="t" horiz-adv-x="406" 
d="M373 391h-126v-272h126v-119h-256v391h-92v119h92v150h130v-150h126v-119z" />
    <glyph glyph-name="u" unicode="u" horiz-adv-x="593" 
d="M401 510h130v-510h-130v62q-59 -74 -155 -74q-86 0 -139 53.5t-53 141.5v327h130v-289q0 -49 29 -78t76 -29q50 0 81 30t31 79v287z" />
    <glyph glyph-name="v" unicode="v" horiz-adv-x="569" 
d="M418 510h146l-212 -510h-135l-211 510h148l132 -347z" />
    <glyph glyph-name="w" unicode="w" horiz-adv-x="882" 
d="M729 510h145l-186 -510h-134l-113 354l-113 -354h-134l-186 510h149l107 -345l112 345h133l113 -346z" />
    <glyph glyph-name="x" unicode="x" horiz-adv-x="567" 
d="M555 0h-158l-114 167l-115 -167h-156l183 256l-180 254h158l111 -164l111 164h157l-181 -254z" />
    <glyph glyph-name="y" unicode="y" horiz-adv-x="569" 
d="M418 510h146l-291 -700h-191v119h100l33 77l-209 504h148l132 -347z" />
    <glyph glyph-name="z" unicode="z" horiz-adv-x="497" 
d="M220 126h239v-126h-421v95l232 289h-228v126h410v-95z" />
    <glyph glyph-name="braceleft" unicode="{" horiz-adv-x="420" 
d="M285 364q0 -60 -59 -83q59 -25 59 -84v-207q0 -26 15 -41.5t40 -15.5h56v-123h-106q-62 0 -100.5 38.5t-38.5 101.5v213q0 25 -15 40.5t-39 15.5h-39v123h39q24 0 39 15.5t15 40.5v212q0 63 38.5 101.5t100.5 38.5h106v-123h-56q-25 0 -40 -15.5t-15 -41.5v-206z" />
    <glyph glyph-name="bar" unicode="|" horiz-adv-x="299" 
d="M90 -190v940h119v-940h-119z" />
    <glyph glyph-name="braceright" unicode="}" horiz-adv-x="420" 
d="M323 342h39v-123h-39q-24 0 -39 -15.5t-15 -40.5v-213q0 -63 -38.5 -101.5t-100.5 -38.5h-106v123h56q25 0 40 15.5t15 41.5v207q0 60 58 84q-58 23 -58 83v206q0 26 -15 41.5t-40 15.5h-56v123h106q62 0 100.5 -38.5t38.5 -101.5v-212q0 -25 15 -40.5t39 -15.5z" />
    <glyph glyph-name="asciitilde" unicode="~" 
d="M378 209q-42 0 -90 25.5t-64 25.5q-21 0 -34 -13t-13 -33h-119q0 79 35.5 127t108.5 48q42 0 90 -25.5t64 -25.5q20 0 33.5 13t13.5 33h119q0 -79 -35.5 -127t-108.5 -48z" />
    <glyph glyph-name="exclamdown" unicode="&#xa1;" horiz-adv-x="272" 
d="M136 345q-38 0 -63 25t-25 62t25 62t63 25t63 -24.5t25 -62.5t-25 -62.5t-63 -24.5zM68 -180v170l8 300h121l8 -300v-170h-137z" />
    <glyph glyph-name="cent" unicode="&#xa2;" horiz-adv-x="629" 
d="M358 209q73 21 94 96h135q-11 -89 -74 -150.5t-155 -74.5v-80h-79v79q-104 13 -170.5 86.5t-66.5 178.5t66.5 179t170.5 87v80h79v-81q92 -13 155 -74.5t74 -151.5h-135q-21 76 -94 97v-271zM176 344q0 -50 28.5 -87.5t74.5 -48.5v273q-46 -11 -74.5 -48.5t-28.5 -88.5z
" />
    <glyph glyph-name="sterling" unicode="&#xa3;" horiz-adv-x="584" 
d="M241 130h312v-130h-505v130h55v142h-55v118h55v99q0 91 63 152t157 61t157 -61t63 -152h-138q0 34 -23.5 57t-58.5 23t-58.5 -23t-23.5 -57v-99h192v-118h-192v-142z" />
    <glyph glyph-name="currency" unicode="&#xa4;" horiz-adv-x="548" 
d="M472 346q0 -50 -24 -93l61 -61l-79 -79l-65 64q-43 -19 -91 -19t-89 19l-66 -64l-80 79l62 62q-24 43 -24 92t24 92l-62 62l80 79l65 -64q43 19 90 19t90 -19l66 65l79 -81l-61 -60q24 -43 24 -93zM274 259q38 0 63 25t25 62t-25 62t-63 25q-37 0 -61.5 -25t-24.5 -62
t24.5 -62t61.5 -25z" />
    <glyph glyph-name="yen" unicode="&#xa5;" horiz-adv-x="648" 
d="M636 690l-204 -377h85v-85h-124v-44h124v-85h-124v-99h-137v99h-124v85h124v44h-124v85h85l-205 377h155l159 -307l159 307h151z" />
    <glyph glyph-name="brokenbar" unicode="&#xa6;" horiz-adv-x="299" 
d="M90 340v410h119v-410h-119zM90 -190v410h119v-410h-119z" />
    <glyph glyph-name="section" unicode="&#xa7;" horiz-adv-x="520" 
d="M396 187q62 -45 62 -119q0 -76 -57 -120t-140 -44q-85 0 -142.5 48t-57.5 118h129q0 -29 20.5 -48t51.5 -19q29 0 48.5 16t19.5 41q0 50 -104 76q-75 18 -121 55t-46 108q0 79 65 124q-60 44 -60 117q0 75 56.5 118.5t138.5 43.5q84 0 140.5 -47.5t56.5 -116.5h-129
q0 28 -20 46.5t-49 18.5q-28 0 -47 -15.5t-19 -39.5q0 -52 104 -74q167 -38 167 -164q0 -77 -67 -123zM265 240q30 1 50 18t20 41q0 51 -79 70q-30 -2 -49.5 -18t-19.5 -40q0 -51 78 -71z" />
    <glyph glyph-name="dieresis" unicode="&#xa8;" horiz-adv-x="363" 
d="M74 565q-32 0 -53 21t-21 52t21.5 52t52.5 21t52.5 -21t21.5 -52t-21 -52t-53 -21zM290 565q-32 0 -53 21t-21 52t21.5 52t52.5 21t52 -21t21 -52t-21 -52t-52 -21z" />
    <glyph glyph-name="copyright" unicode="&#xa9;" horiz-adv-x="805" 
d="M403 -12q-152 0 -254.5 102.5t-102.5 254.5t102.5 254.5t254.5 102.5t254.5 -102.5t102.5 -254.5t-102.5 -254.5t-254.5 -102.5zM403 75q113 0 189.5 77.5t76.5 192.5t-76.5 192.5t-189.5 77.5t-190 -77.5t-77 -192.5t77 -192.5t190 -77.5zM403 157q-80 0 -134 54
t-54 134t54 134t134 54q73 0 125 -44t61 -113h-104q-8 26 -30 41.5t-52 15.5q-37 0 -61.5 -25.5t-24.5 -62.5t24.5 -62.5t61.5 -25.5q30 0 52 15.5t30 41.5h104q-9 -69 -61 -113t-125 -44z" />
    <glyph glyph-name="ordfeminine" unicode="&#xaa;" horiz-adv-x="365" 
d="M241 691h96v-272h-96v29q-34 -37 -81 -37q-56 0 -94 41.5t-38 102.5t38 102.5t94 41.5q47 0 81 -37v29zM183 496q25 0 41.5 17t16.5 42t-16.5 42t-41.5 17t-41.5 -17t-16.5 -42t16.5 -42t41.5 -17z" />
    <glyph glyph-name="guillemotleft" unicode="&#xab;" horiz-adv-x="635" 
d="M337 468l-152 -204l152 -204h-152l-153 204l153 204h152zM604 468l-153 -204l153 -204h-153l-152 204l152 204h153z" />
    <glyph glyph-name="registered" unicode="&#xae;" horiz-adv-x="425" 
d="M213 702q79 0 131.5 -53t52.5 -132t-52.5 -131.5t-131.5 -52.5t-132 52.5t-53 131.5t53 132t132 53zM213 380q57 0 95.5 39.5t38.5 97.5q0 59 -38.5 98.5t-95.5 39.5q-58 0 -97 -39.5t-39 -98.5t39 -98t97 -39zM286 555q0 -36 -30 -54l35 -70h-50l-28 61h-12v-61h-45v187
h66q27 0 45.5 -18t18.5 -45zM201 577v-45h18q10 0 16 6.5t6 16.5q0 22 -22 22h-18z" />
    <glyph glyph-name="macron" unicode="&#xaf;" horiz-adv-x="264" 
d="M0 577v109h264v-109h-264z" />
    <glyph glyph-name="degree" unicode="&#xb0;" horiz-adv-x="387" 
d="M193 387q-68 0 -114 45.5t-46 112.5t46 112t114 45q69 0 115 -45t46 -112q0 -68 -46 -113t-115 -45zM193 488q24 0 40 16.5t16 40.5t-16 40t-40 16t-40 -16t-16 -40t16 -40.5t40 -16.5z" />
    <glyph glyph-name="plusminus" unicode="&#xb1;" horiz-adv-x="534" 
d="M326 432h150v-117h-150v-115h-118v115h-150v117h150v114h118v-114zM58 30v117h418v-117h-418z" />
    <glyph glyph-name="uni00B2" unicode="&#xb2;" horiz-adv-x="352" 
d="M177 454h144v-88h-290v73l147 145q41 39 41 68q0 19 -12.5 32t-31.5 13t-32 -13t-13 -32h-98q0 58 42 96.5t105 38.5q59 0 99 -38.5t40 -96.5q0 -61 -54 -113z" />
    <glyph glyph-name="uni00B3" unicode="&#xb3;" horiz-adv-x="341" 
d="M266 581q51 -32 51 -90q0 -54 -42 -93t-105 -39q-62 0 -104.5 39t-42.5 97h99q0 -20 14 -33t35 -13t35 13t14 33q0 22 -15.5 36t-39.5 14h-60v70h60q20 0 33.5 13t13.5 32q0 17 -12 28.5t-29 11.5q-18 0 -30 -11.5t-12 -28.5h-99q0 54 40 90.5t100 36.5t100.5 -36.5
t40.5 -86.5q0 -52 -45 -83z" />
    <glyph glyph-name="acute" unicode="&#xb4;" horiz-adv-x="265" 
d="M0 566l101 143h164l-128 -143h-137z" />
    <glyph glyph-name="paragraph" unicode="&#xb6;" horiz-adv-x="640" 
d="M573 690v-880h-112v770h-70v-770h-111v462h-43q-89 0 -149 60t-60 149t60 149t149 60h336z" />
    <glyph glyph-name="periodcentered" unicode="&#xb7;" horiz-adv-x="298" 
d="M149 184q-39 0 -65 26t-26 64t26 64t65 26t65 -26t26 -64t-26 -64t-65 -26z" />
    <glyph glyph-name="cedilla" unicode="&#xb8;" horiz-adv-x="237" 
d="M142 -29q41 -3 68 -33t27 -72q0 -47 -34 -78.5t-84 -31.5q-51 0 -85 31.5t-34 78.5h78q0 -16 12 -27.5t29 -11.5t28.5 11.5t11.5 27.5t-12 27.5t-28 11.5q-19 0 -31 -14l-72 33l60 76v2h91v-2z" />
    <glyph glyph-name="uni00B9" unicode="&#xb9;" horiz-adv-x="310" 
d="M212 454h68v-88h-243v88h78v212l-78 -35v101l106 48h69v-326z" />
    <glyph glyph-name="ordmasculine" unicode="&#xba;" horiz-adv-x="366" 
d="M183 411q-65 0 -110 41.5t-45 102.5t45 102.5t110 41.5q66 0 110.5 -41.5t44.5 -102.5t-44.5 -102.5t-110.5 -41.5zM183 496q25 0 42 17t17 42t-17 42t-42 17q-24 0 -41 -17t-17 -42t17 -42t41 -17z" />
    <glyph glyph-name="guillemotright" unicode="&#xbb;" horiz-adv-x="635" 
d="M188 468l153 -204l-153 -204h-152l153 204l-153 204h152zM455 468l153 -204l-153 -204h-152l152 204l-152 204h152z" />
    <glyph glyph-name="onequarter" unicode="&#xbc;" horiz-adv-x="866" 
d="M280 364v-88h-243v88h78v212l-78 -35v101l106 48h69v-326h68zM635 690h120l-474 -690h-119zM844 161v-87h-43v-74h-97v74h-188v71l165 269h120v-253h43zM617 161h87v149z" />
    <glyph glyph-name="onehalf" unicode="&#xbd;" horiz-adv-x="913" 
d="M280 364v-88h-243v88h78v212l-78 -35v101l106 48h69v-326h68zM635 690h120l-474 -690h-119zM738 88h144v-88h-290v73l147 145q41 39 41 68q0 19 -12.5 32t-31.5 13t-32 -13t-13 -32h-98q0 58 42 96.5t105 38.5q59 0 99 -38.5t40 -96.5q0 -61 -54 -113z" />
    <glyph glyph-name="threequarters" unicode="&#xbe;" horiz-adv-x="857" 
d="M317 401q0 -54 -42 -93t-105 -39q-62 0 -104.5 39t-42.5 97h99q0 -20 14 -33t35 -13t35 13t14 33q0 22 -15.5 36t-39.5 14h-60v70h60q20 0 33.5 13t13.5 32q0 17 -12 28.5t-29 11.5q-18 0 -30 -11.5t-12 -28.5h-99q0 54 40 90.5t100 36.5t100.5 -36.5t40.5 -86.5
q0 -52 -45 -83q51 -32 51 -90zM626 690h120l-474 -690h-119zM835 161v-87h-43v-74h-97v74h-188v71l165 269h120v-253h43zM608 161h87v149z" />
    <glyph glyph-name="questiondown" unicode="&#xbf;" horiz-adv-x="457" 
d="M237 345q-38 0 -63 24.5t-25 62.5t25 62.5t63 24.5t63 -25t25 -62t-25 -62t-63 -25zM237 -192q-91 0 -152 58.5t-61 146.5q0 39 14.5 71.5t29.5 48.5t41 39q29 25 44 45.5t15 46.5v24h137v-24q0 -39 -14.5 -72.5t-28.5 -49t-40 -38.5q-19 -17 -29 -27.5t-18.5 -28
t-8.5 -35.5q0 -31 20.5 -51.5t50.5 -20.5t50.5 20.5t20.5 51.5h141q0 -88 -60.5 -146.5t-151.5 -58.5z" />
    <glyph glyph-name="Agrave" unicode="&#xc0;" horiz-adv-x="716" 
d="M434 746h-137l-128 143h164zM554 0l-49 134h-296l-49 -134h-149l266 690h163l265 -690h-151zM255 261h203l-101 277z" />
    <glyph glyph-name="Aacute" unicode="&#xc1;" horiz-adv-x="716" 
d="M547 889l-128 -143h-137l101 143h164zM554 0l-49 134h-296l-49 -134h-149l266 690h163l265 -690h-151zM255 261h203l-101 277z" />
    <glyph glyph-name="Acircumflex" unicode="&#xc2;" horiz-adv-x="716" 
d="M358 819l-56 -73h-122l99 143h157l99 -143h-122zM554 0l-49 134h-296l-49 -134h-149l266 690h163l265 -690h-151zM255 261h203l-101 277z" />
    <glyph glyph-name="Atilde" unicode="&#xc3;" horiz-adv-x="716" 
d="M308 793q-17 0 -27.5 -11t-10.5 -27h-92q0 62 30 102t84 40q31 0 65.5 -21.5t48.5 -21.5q16 0 27.5 11.5t11.5 28.5h91q0 -63 -29.5 -102.5t-83.5 -39.5q-32 0 -66.5 20.5t-48.5 20.5zM554 0l-49 134h-296l-49 -134h-149l266 690h163l265 -690h-151zM255 261h203
l-101 277z" />
    <glyph glyph-name="Adieresis" unicode="&#xc4;" horiz-adv-x="716" 
d="M250 745q-32 0 -53 21t-21 52t21.5 52t52.5 21t52.5 -21t21.5 -52t-21 -52t-53 -21zM466 745q-32 0 -53 21t-21 52t21.5 52t52.5 21t52 -21t21 -52t-21 -52t-52 -21zM554 0l-49 134h-296l-49 -134h-149l266 690h163l265 -690h-151zM255 261h203l-101 277z" />
    <glyph glyph-name="Aring" unicode="&#xc5;" horiz-adv-x="716" 
d="M358 734q-44 0 -73.5 28.5t-29.5 71.5t29.5 71.5t73.5 28.5t73 -28.5t29 -71.5t-29 -71.5t-73 -28.5zM358 869q-15 0 -24.5 -10t-9.5 -25t9.5 -25t24.5 -10q14 0 24 10t10 25t-10 25t-24 10zM554 0l-49 134h-296l-49 -134h-149l266 690h163l265 -690h-151zM255 261h203
l-101 277z" />
    <glyph glyph-name="AE" unicode="&#xc6;" horiz-adv-x="875" 
d="M578 130h260v-130h-398v131h-239l-76 -131h-157l402 690h463v-130h-255v-148h223v-130h-223v-152zM274 258h166v287z" />
    <glyph glyph-name="Ccedilla" unicode="&#xc7;" horiz-adv-x="787" 
d="M400 121q72 0 128 39.5t80 103.5h147q-25 -111 -109 -186t-201 -88l-18 -20q41 -3 68 -33t27 -72q0 -47 -34 -78.5t-84 -31.5q-51 0 -85 31.5t-34 78.5h78q0 -16 12 -27.5t29 -11.5t28.5 11.5t11.5 27.5t-12 27.5t-28 11.5q-19 0 -31 -14l-72 33l53 68
q-139 15 -228.5 114.5t-89.5 239.5q0 152 104 254.5t260 102.5q132 0 230 -77t125 -199h-147q-24 64 -80 103.5t-128 39.5q-95 0 -159 -64t-64 -160t64 -160t159 -64z" />
    <glyph glyph-name="Egrave" unicode="&#xc8;" horiz-adv-x="505" 
d="M342 746h-137l-128 143h164zM208 130h261v-130h-399v690h394v-130h-256v-148h223v-130h-223v-152z" />
    <glyph glyph-name="Eacute" unicode="&#xc9;" horiz-adv-x="505" 
d="M456 889l-128 -143h-137l101 143h164zM208 130h261v-130h-399v690h394v-130h-256v-148h223v-130h-223v-152z" />
    <glyph glyph-name="Ecircumflex" unicode="&#xca;" horiz-adv-x="505" 
d="M267 819l-56 -73h-122l99 143h157l99 -143h-122zM208 130h261v-130h-399v690h394v-130h-256v-148h223v-130h-223v-152z" />
    <glyph glyph-name="Edieresis" unicode="&#xcb;" horiz-adv-x="505" 
d="M159 745q-32 0 -53 21t-21 52t21.5 52t52.5 21t52.5 -21t21.5 -52t-21 -52t-53 -21zM375 745q-32 0 -53 21t-21 52t21.5 52t52.5 21t52 -21t21 -52t-21 -52t-52 -21zM208 130h261v-130h-399v690h394v-130h-256v-148h223v-130h-223v-152z" />
    <glyph glyph-name="Igrave" unicode="&#xcc;" horiz-adv-x="381" 
d="M267 746h-137l-128 143h164zM346 560h-86v-430h86v-130h-311v130h87v430h-87v130h311v-130z" />
    <glyph glyph-name="Iacute" unicode="&#xcd;" horiz-adv-x="381" 
d="M381 889l-128 -143h-137l101 143h164zM35 560v130h311v-130h-86v-430h86v-130h-311v130h87v430h-87z" />
    <glyph glyph-name="Icircumflex" unicode="&#xce;" horiz-adv-x="381" 
d="M191 819l-56 -73h-122l99 143h157l99 -143h-122zM35 560v130h311v-130h-86v-430h86v-130h-311v130h87v430h-87z" />
    <glyph glyph-name="Idieresis" unicode="&#xcf;" horiz-adv-x="381" 
d="M157 818q0 -31 -21 -52t-53 -21t-53 21t-21 52t21.5 52t52.5 21t52.5 -21t21.5 -52zM299 891q31 0 52 -21t21 -52t-21 -52t-52 -21q-32 0 -53 21t-21 52t21.5 52t52.5 21zM35 560v130h311v-130h-86v-430h86v-130h-311v130h87v430h-87z" />
    <glyph glyph-name="Eth" unicode="&#xd0;" horiz-adv-x="728" 
d="M340 690q151 0 251.5 -98.5t100.5 -246.5t-100.5 -246.5t-251.5 -98.5h-270v298h-64v93h64v299h270zM337 130q91 0 152 61.5t61 153.5t-61 153.5t-152 61.5h-129v-169h104v-93h-104v-168h129z" />
    <glyph glyph-name="Ntilde" unicode="&#xd1;" horiz-adv-x="732" 
d="M320 793q-17 0 -27.5 -11t-10.5 -27h-92q0 62 30 102t84 40q31 0 65.5 -21.5t48.5 -21.5q16 0 27.5 11.5t11.5 28.5h91q0 -63 -29.5 -102.5t-83.5 -39.5q-32 0 -66.5 20.5t-48.5 20.5zM524 690h138v-690h-140l-314 453v-453h-138v690h140l314 -453v453z" />
    <glyph glyph-name="Ograve" unicode="&#xd2;" horiz-adv-x="799" 
d="M338 746l-128 143h164l101 -143h-137zM400 -12q-156 0 -260 102.5t-104 254.5t104 254.5t260 102.5q155 0 259.5 -102.5t104.5 -254.5t-104.5 -254.5t-259.5 -102.5zM400 121q95 0 158.5 64t63.5 160t-63.5 160t-158.5 64t-159 -64t-64 -160t64 -160t159 -64z" />
    <glyph glyph-name="Oacute" unicode="&#xd3;" horiz-adv-x="799" 
d="M324 746l101 143h164l-128 -143h-137zM400 -12q-156 0 -260 102.5t-104 254.5t104 254.5t260 102.5q155 0 259.5 -102.5t104.5 -254.5t-104.5 -254.5t-259.5 -102.5zM400 121q95 0 158.5 64t63.5 160t-63.5 160t-158.5 64t-159 -64t-64 -160t64 -160t159 -64z" />
    <glyph glyph-name="Ocircumflex" unicode="&#xd4;" horiz-adv-x="799" 
d="M400 819l-56 -73h-122l99 143h157l99 -143h-122zM400 702q155 0 259.5 -102.5t104.5 -254.5t-104.5 -254.5t-259.5 -102.5q-156 0 -260 102.5t-104 254.5t104 254.5t260 102.5zM400 121q95 0 158.5 64t63.5 160t-63.5 160t-158.5 64t-159 -64t-64 -160t64 -160t159 -64z
" />
    <glyph glyph-name="Otilde" unicode="&#xd5;" horiz-adv-x="799" 
d="M465 752q-32 0 -66.5 20.5t-48.5 20.5q-17 0 -27.5 -11t-10.5 -27h-92q0 62 30 102t84 40q31 0 65.5 -21.5t48.5 -21.5q16 0 27.5 11.5t11.5 28.5h91q0 -63 -29.5 -102.5t-83.5 -39.5zM400 -12q-156 0 -260 102.5t-104 254.5t104 254.5t260 102.5q155 0 259.5 -102.5
t104.5 -254.5t-104.5 -254.5t-259.5 -102.5zM400 121q95 0 158.5 64t63.5 160t-63.5 160t-158.5 64t-159 -64t-64 -160t64 -160t159 -64z" />
    <glyph glyph-name="Odieresis" unicode="&#xd6;" horiz-adv-x="799" 
d="M292 745q-32 0 -53 21t-21 52t21.5 52t52.5 21t52.5 -21t21.5 -52t-21 -52t-53 -21zM508 745q-32 0 -53 21t-21 52t21.5 52t52.5 21t52 -21t21 -52t-21 -52t-52 -21zM400 -12q-156 0 -260 102.5t-104 254.5t104 254.5t260 102.5q155 0 259.5 -102.5t104.5 -254.5
t-104.5 -254.5t-259.5 -102.5zM400 121q95 0 158.5 64t63.5 160t-63.5 160t-158.5 64t-159 -64t-64 -160t64 -160t159 -64z" />
    <glyph glyph-name="multiply" unicode="&#xd7;" horiz-adv-x="497" 
d="M439 400l-105 -105l105 -105l-85 -86l-105 106l-106 -106l-85 86l105 105l-105 105l85 86l106 -105l105 105z" />
    <glyph glyph-name="Oslash" unicode="&#xd8;" horiz-adv-x="799" 
d="M668 591q96 -102 96 -246q0 -152 -104.5 -254.5t-259.5 -102.5q-113 0 -202 56l-38 -44h-115l86 100q-95 100 -95 245q0 152 104 254.5t260 102.5q112 0 201 -56l38 44h115zM177 345q0 -78 45 -139l289 335q-51 28 -111 28q-95 0 -159 -64t-64 -160zM400 121
q95 0 158.5 64t63.5 160q0 78 -45 139l-289 -335q51 -28 112 -28z" />
    <glyph glyph-name="Ugrave" unicode="&#xd9;" horiz-adv-x="686" 
d="M282 746l-128 143h164l101 -143h-137zM343 -12q-122 0 -204 80t-82 199v423h138v-421q0 -63 42 -105.5t106 -42.5t106 42.5t42 105.5v421h138v-423q0 -119 -82 -199t-204 -80z" />
    <glyph glyph-name="Uacute" unicode="&#xda;" horiz-adv-x="686" 
d="M268 746l101 143h164l-128 -143h-137zM343 -12q-122 0 -204 80t-82 199v423h138v-421q0 -63 42 -105.5t106 -42.5t106 42.5t42 105.5v421h138v-423q0 -119 -82 -199t-204 -80z" />
    <glyph glyph-name="Ucircumflex" unicode="&#xdb;" horiz-adv-x="686" 
d="M343 819l-56 -73h-122l99 143h157l99 -143h-122zM491 690h138v-423q0 -119 -82 -199t-204 -80t-204 80t-82 199v423h138v-421q0 -63 42 -105.5t106 -42.5t106 42.5t42 105.5v421z" />
    <glyph glyph-name="Udieresis" unicode="&#xdc;" horiz-adv-x="686" 
d="M235 745q-32 0 -53 21t-21 52t21.5 52t52.5 21t52.5 -21t21.5 -52t-21 -52t-53 -21zM451 745q-32 0 -53 21t-21 52t21.5 52t52.5 21t52 -21t21 -52t-21 -52t-52 -21zM343 -12q-122 0 -204 80t-82 199v423h138v-421q0 -63 42 -105.5t106 -42.5t106 42.5t42 105.5v421h138
v-423q0 -119 -82 -199t-204 -80z" />
    <glyph glyph-name="Yacute" unicode="&#xdd;" horiz-adv-x="677" 
d="M529 889l-128 -143h-137l101 143h164zM522 690h155l-270 -448v-242h-137v242l-270 448h158l182 -308z" />
    <glyph glyph-name="Thorn" unicode="&#xde;" horiz-adv-x="573" 
d="M318 576q101 0 169 -66t68 -164q0 -99 -68 -164.5t-169 -65.5h-110v-116h-138v690h138v-114h110zM315 246q42 0 70 28.5t28 71.5t-28 71.5t-70 28.5h-107v-200h107z" />
    <glyph glyph-name="germandbls" unicode="&#xdf;" horiz-adv-x="539" 
d="M405 374q51 -20 82 -68t31 -111q0 -88 -62.5 -147.5t-156.5 -59.5q-36 0 -63 10v126q20 -10 48 -10q43 0 71.5 27.5t28.5 69.5q0 43 -27.5 71.5t-68.5 28.5h-35v125h26q35 0 59 24t24 61t-24.5 61t-62.5 24q-37 0 -61.5 -24t-24.5 -61v-521h-130v532q0 85 62 142.5
t154 57.5q94 0 157 -57.5t63 -141.5q0 -51 -24.5 -93.5t-65.5 -65.5z" />
    <glyph glyph-name="agrave" unicode="&#xe0;" horiz-adv-x="538" 
d="M340 566h-137l-128 143h164zM468 118h59v-118h-174v52q-53 -64 -146 -64q-77 0 -129 48.5t-52 119.5q0 72 52 119.5t129 47.5h131v66h-276v121h406v-392zM237 92q45 0 73 20t28 52v59h-101q-33 0 -55 -18.5t-22 -46.5t22 -47t55 -19z" />
    <glyph glyph-name="aacute" unicode="&#xe1;" horiz-adv-x="538" 
d="M454 709l-128 -143h-137l101 143h164zM468 118h59v-118h-174v52q-53 -64 -146 -64q-77 0 -129 48.5t-52 119.5q0 72 52 119.5t129 47.5h131v66h-276v121h406v-392zM237 92q45 0 73 20t28 52v59h-101q-33 0 -55 -18.5t-22 -46.5t22 -47t55 -19z" />
    <glyph glyph-name="acircumflex" unicode="&#xe2;" horiz-adv-x="538" 
d="M264 639l-56 -73h-122l99 143h157l99 -143h-122zM468 118h59v-118h-174v52q-53 -64 -146 -64q-77 0 -129 48.5t-52 119.5q0 72 52 119.5t129 47.5h131v66h-276v121h406v-392zM237 92q45 0 73 20t28 52v59h-101q-33 0 -55 -18.5t-22 -46.5t22 -47t55 -19z" />
    <glyph glyph-name="atilde" unicode="&#xe3;" horiz-adv-x="538" 
d="M214 613q-17 0 -27.5 -11t-10.5 -27h-92q0 62 30 102t84 40q31 0 65.5 -21.5t48.5 -21.5q16 0 27.5 11.5t11.5 28.5h91q0 -63 -29.5 -102.5t-83.5 -39.5q-32 0 -66.5 20.5t-48.5 20.5zM468 118h59v-118h-174v52q-53 -64 -146 -64q-77 0 -129 48.5t-52 119.5
q0 72 52 119.5t129 47.5h131v66h-276v121h406v-392zM237 92q45 0 73 20t28 52v59h-101q-33 0 -55 -18.5t-22 -46.5t22 -47t55 -19z" />
    <glyph glyph-name="adieresis" unicode="&#xe4;" horiz-adv-x="538" 
d="M156 565q-32 0 -53 21t-21 52t21.5 52t52.5 21t52.5 -21t21.5 -52t-21 -52t-53 -21zM372 565q-32 0 -53 21t-21 52t21.5 52t52.5 21t52 -21t21 -52t-21 -52t-52 -21zM468 118h59v-118h-174v52q-53 -64 -146 -64q-77 0 -129 48.5t-52 119.5q0 72 52 119.5t129 47.5h131v66
h-276v121h406v-392zM237 92q45 0 73 20t28 52v59h-101q-33 0 -55 -18.5t-22 -46.5t22 -47t55 -19z" />
    <glyph glyph-name="aring" unicode="&#xe5;" horiz-adv-x="538" 
d="M264 554q-44 0 -73.5 28.5t-29.5 71.5t29.5 71.5t73.5 28.5t73 -28.5t29 -71.5t-29 -71.5t-73 -28.5zM264 689q-15 0 -24.5 -10t-9.5 -25t9.5 -25t24.5 -10q14 0 24 10t10 25t-10 25t-24 10zM468 118h59v-118h-174v52q-53 -64 -146 -64q-77 0 -129 48.5t-52 119.5
q0 72 52 119.5t129 47.5h131v66h-276v121h406v-392zM237 92q45 0 73 20t28 52v59h-101q-33 0 -55 -18.5t-22 -46.5t22 -47t55 -19z" />
    <glyph glyph-name="ae" unicode="&#xe6;" horiz-adv-x="909" 
d="M880 255q0 -27 -3 -45h-406q13 -49 49.5 -78t87.5 -29q41 0 74.5 17t48.5 44h139q-28 -79 -99 -127.5t-163 -48.5q-115 0 -193 76q-66 -76 -194 -76q-92 0 -143.5 45t-51.5 116q0 67 48 111.5t121 44.5h143v84h-276v121h383v-39q72 51 163 51q116 0 194 -77t78 -190z
M606 408q-48 0 -83.5 -28t-49.5 -75h268q-13 46 -50 74.5t-85 28.5zM243 92q37 0 69.5 14t48.5 38q-14 33 -20 66h-116q-28 0 -46.5 -16.5t-18.5 -41.5q0 -27 21 -43.5t62 -16.5z" />
    <glyph glyph-name="ccedilla" unicode="&#xe7;" horiz-adv-x="601" 
d="M305 114q44 0 79 23t51 62h138q-16 -82 -76 -138t-146 -70l-19 -21q41 -3 68 -33t27 -72q0 -47 -34 -78.5t-84 -31.5q-51 0 -85 31.5t-34 78.5h78q0 -16 12 -27.5t29 -11.5t28.5 11.5t11.5 27.5t-12 27.5t-28 11.5q-19 0 -31 -14l-72 33l54 68q-100 15 -164.5 88.5
t-64.5 175.5q0 114 78.5 190.5t195.5 76.5q102 0 176 -59t92 -152h-138q-16 39 -51 62t-79 23q-60 0 -100 -40.5t-40 -100.5t40 -100.5t100 -40.5z" />
    <glyph glyph-name="egrave" unicode="&#xe8;" horiz-adv-x="608" 
d="M381 566h-137l-128 143h164zM579 254q0 -28 -4 -44h-405q13 -49 49.5 -78t87.5 -29q41 0 74.5 17t48.5 44h139q-28 -79 -99.5 -127.5t-164.5 -48.5q-117 0 -195.5 76.5t-78.5 190.5t78.5 190.5t195.5 76.5t195.5 -76.5t78.5 -191.5zM305 408q-48 0 -84 -28t-49 -75h267
q-13 47 -49.5 75t-84.5 28z" />
    <glyph glyph-name="eacute" unicode="&#xe9;" horiz-adv-x="608" 
d="M494 709l-128 -143h-137l101 143h164zM579 254q0 -28 -4 -44h-405q13 -49 49.5 -78t87.5 -29q41 0 74.5 17t48.5 44h139q-28 -79 -99.5 -127.5t-164.5 -48.5q-117 0 -195.5 76.5t-78.5 190.5t78.5 190.5t195.5 76.5t195.5 -76.5t78.5 -191.5zM305 408q-48 0 -84 -28
t-49 -75h267q-13 47 -49.5 75t-84.5 28z" />
    <glyph glyph-name="ecircumflex" unicode="&#xea;" horiz-adv-x="608" 
d="M305 639l-56 -73h-122l99 143h157l99 -143h-122zM579 254q0 -28 -4 -44h-405q13 -49 49.5 -78t87.5 -29q41 0 74.5 17t48.5 44h139q-28 -79 -99.5 -127.5t-164.5 -48.5q-117 0 -195.5 76.5t-78.5 190.5t78.5 190.5t195.5 76.5t195.5 -76.5t78.5 -191.5zM305 408
q-48 0 -84 -28t-49 -75h267q-13 47 -49.5 75t-84.5 28z" />
    <glyph glyph-name="edieresis" unicode="&#xeb;" horiz-adv-x="608" 
d="M197 565q-32 0 -53 21t-21 52t21.5 52t52.5 21t52.5 -21t21.5 -52t-21 -52t-53 -21zM413 565q-32 0 -53 21t-21 52t21.5 52t52.5 21t52 -21t21 -52t-21 -52t-52 -21zM579 254q0 -28 -4 -44h-405q13 -49 49.5 -78t87.5 -29q41 0 74.5 17t48.5 44h139q-28 -79 -99.5 -127.5
t-164.5 -48.5q-117 0 -195.5 76.5t-78.5 190.5t78.5 190.5t195.5 76.5t195.5 -76.5t78.5 -191.5zM305 408q-48 0 -84 -28t-49 -75h267q-13 47 -49.5 75t-84.5 28z" />
    <glyph glyph-name="igrave" unicode="&#xec;" horiz-adv-x="254" 
d="M66 566l-128 143h164l101 -143h-137zM62 0v510h130v-510h-130z" />
    <glyph glyph-name="iacute" unicode="&#xed;" horiz-adv-x="254" 
d="M52 566l101 143h164l-128 -143h-137zM62 0v510h130v-510h-130z" />
    <glyph glyph-name="icircumflex" unicode="&#xee;" horiz-adv-x="254" 
d="M127 639l-56 -73h-122l99 143h157l99 -143h-122zM62 0v510h130v-510h-130z" />
    <glyph glyph-name="idieresis" unicode="&#xef;" horiz-adv-x="254" 
d="M19 565q-32 0 -53 21t-21 52t21.5 52t52.5 21t52.5 -21t21.5 -52t-21 -52t-53 -21zM235 565q-32 0 -53 21t-21 52t21.5 52t52.5 21t52 -21t21 -52t-21 -52t-52 -21zM62 0v510h130v-510h-130z" />
    <glyph glyph-name="eth" unicode="&#xf0;" 
d="M336 654q99 -65 156 -170.5t57 -222.5q0 -127 -72.5 -200t-185.5 -73t-187.5 72.5t-74.5 181.5q0 106 70 179t170 73q57 0 104 -27q-46 60 -117 96l-34 -38h-96l59 67q-42 10 -74 13v123q86 -6 160 -39l34 39h96zM289 114q54 0 90 36t36 91t-36 91t-90 36t-90 -36
t-36 -91t36 -91t90 -36z" />
    <glyph glyph-name="ntilde" unicode="&#xf1;" horiz-adv-x="607" 
d="M259 613q-17 0 -27.5 -11t-10.5 -27h-92q0 62 30 102t84 40q31 0 65.5 -21.5t48.5 -21.5q16 0 27.5 11.5t11.5 28.5h91q0 -63 -29.5 -102.5t-83.5 -39.5q-32 0 -66.5 20.5t-48.5 20.5zM354 522q90 0 144.5 -54t54.5 -144v-324h-130v282q0 52 -30.5 83t-80.5 31
q-54 0 -87 -32t-33 -84v-280h-130v510h130v-63q60 75 162 75z" />
    <glyph glyph-name="ograve" unicode="&#xf2;" horiz-adv-x="610" 
d="M244 566l-128 143h164l101 -143h-137zM305 -12q-117 0 -195.5 76.5t-78.5 190.5t78.5 190.5t195.5 76.5t195.5 -76.5t78.5 -190.5t-78.5 -190.5t-195.5 -76.5zM305 114q60 0 100 40.5t40 100.5t-40 100.5t-100 40.5t-100 -40.5t-40 -100.5t40 -100.5t100 -40.5z" />
    <glyph glyph-name="oacute" unicode="&#xf3;" horiz-adv-x="610" 
d="M230 566l101 143h164l-128 -143h-137zM305 -12q-117 0 -195.5 76.5t-78.5 190.5t78.5 190.5t195.5 76.5t195.5 -76.5t78.5 -190.5t-78.5 -190.5t-195.5 -76.5zM305 114q60 0 100 40.5t40 100.5t-40 100.5t-100 40.5t-100 -40.5t-40 -100.5t40 -100.5t100 -40.5z" />
    <glyph glyph-name="ocircumflex" unicode="&#xf4;" horiz-adv-x="610" 
d="M306 639l-56 -73h-122l99 143h157l99 -143h-122zM305 522q117 0 195.5 -76.5t78.5 -190.5t-78.5 -190.5t-195.5 -76.5t-195.5 76.5t-78.5 190.5t78.5 190.5t195.5 76.5zM305 114q60 0 100 40.5t40 100.5t-40 100.5t-100 40.5t-100 -40.5t-40 -100.5t40 -100.5t100 -40.5z
" />
    <glyph glyph-name="otilde" unicode="&#xf5;" horiz-adv-x="610" 
d="M371 572q-32 0 -66.5 20.5t-48.5 20.5q-17 0 -27.5 -11t-10.5 -27h-92q0 62 30 102t84 40q31 0 65.5 -21.5t48.5 -21.5q16 0 27.5 11.5t11.5 28.5h91q0 -63 -29.5 -102.5t-83.5 -39.5zM305 -12q-117 0 -195.5 76.5t-78.5 190.5t78.5 190.5t195.5 76.5t195.5 -76.5
t78.5 -190.5t-78.5 -190.5t-195.5 -76.5zM305 114q60 0 100 40.5t40 100.5t-40 100.5t-100 40.5t-100 -40.5t-40 -100.5t40 -100.5t100 -40.5z" />
    <glyph glyph-name="odieresis" unicode="&#xf6;" horiz-adv-x="610" 
d="M198 565q-32 0 -53 21t-21 52t21.5 52t52.5 21t52.5 -21t21.5 -52t-21 -52t-53 -21zM414 565q-32 0 -53 21t-21 52t21.5 52t52.5 21t52 -21t21 -52t-21 -52t-52 -21zM305 -12q-117 0 -195.5 76.5t-78.5 190.5t78.5 190.5t195.5 76.5t195.5 -76.5t78.5 -190.5
t-78.5 -190.5t-195.5 -76.5zM305 114q60 0 100 40.5t40 100.5t-40 100.5t-100 40.5t-100 -40.5t-40 -100.5t40 -100.5t100 -40.5z" />
    <glyph glyph-name="divide" unicode="&#xf7;" horiz-adv-x="534" 
d="M267 402q-30 0 -50.5 20t-20.5 49q0 30 20.5 50t50.5 20t50.5 -20t20.5 -50q0 -29 -20.5 -49t-50.5 -20zM58 242v108h418v-108h-418zM267 50q-30 0 -50.5 20t-20.5 50q0 29 20.5 49t50.5 20t50.5 -20t20.5 -49q0 -30 -20.5 -50t-50.5 -20z" />
    <glyph glyph-name="oslash" unicode="&#xf8;" horiz-adv-x="610" 
d="M511 435q68 -74 68 -180q0 -114 -78.5 -190.5t-195.5 -76.5q-85 0 -153 43l-27 -31h-93l67 75q-68 74 -68 180q0 114 78.5 190.5t195.5 76.5q85 0 153 -43l27 31h93zM165 255q0 -45 23 -79l182 205q-29 15 -65 15q-60 0 -100 -40.5t-40 -100.5zM305 114q60 0 100 40.5
t40 100.5q0 45 -23 80l-182 -206q29 -15 65 -15z" />
    <glyph glyph-name="ugrave" unicode="&#xf9;" horiz-adv-x="593" 
d="M368 566h-137l-128 143h164zM401 510h130v-510h-130v62q-59 -74 -155 -74q-86 0 -139 53.5t-53 141.5v327h130v-289q0 -49 29 -78t76 -29q50 0 81 30t31 79v287z" />
    <glyph glyph-name="uacute" unicode="&#xfa;" horiz-adv-x="593" 
d="M482 709l-128 -143h-137l101 143h164zM401 510h130v-510h-130v62q-59 -74 -155 -74q-86 0 -139 53.5t-53 141.5v327h130v-289q0 -49 29 -78t76 -29q50 0 81 30t31 79v287z" />
    <glyph glyph-name="ucircumflex" unicode="&#xfb;" horiz-adv-x="593" 
d="M293 639l-56 -73h-122l99 143h157l99 -143h-122zM401 510h130v-510h-130v62q-59 -74 -155 -74q-86 0 -139 53.5t-53 141.5v327h130v-289q0 -49 29 -78t76 -29q50 0 81 30t31 79v287z" />
    <glyph glyph-name="udieresis" unicode="&#xfc;" horiz-adv-x="593" 
d="M185 565q-32 0 -53 21t-21 52t21.5 52t52.5 21t52.5 -21t21.5 -52t-21 -52t-53 -21zM401 565q-32 0 -53 21t-21 52t21.5 52t52.5 21t52 -21t21 -52t-21 -52t-52 -21zM401 510h130v-510h-130v62q-59 -74 -155 -74q-86 0 -139 53.5t-53 141.5v327h130v-289q0 -49 29 -78
t76 -29q50 0 81 30t31 79v287z" />
    <glyph glyph-name="yacute" unicode="&#xfd;" horiz-adv-x="569" 
d="M476 709l-128 -143h-137l101 143h164zM418 510h146l-291 -700h-191v119h100l33 77l-209 504h148l132 -347z" />
    <glyph glyph-name="thorn" unicode="&#xfe;" horiz-adv-x="640" 
d="M358 522q106 0 177 -76.5t71 -190.5t-71 -190.5t-177 -76.5q-102 0 -166 79v-257h-130v910h130v-277q64 79 166 79zM332 114q60 0 100 40.5t40 100.5t-40 100.5t-100 40.5t-100 -40.5t-40 -100.5t40 -100.5t100 -40.5z" />
    <glyph glyph-name="ydieresis" unicode="&#xff;" horiz-adv-x="569" 
d="M179 565q-32 0 -53 21t-21 52t21.5 52t52.5 21t52.5 -21t21.5 -52t-21 -52t-53 -21zM395 565q-32 0 -53 21t-21 52t21.5 52t52.5 21t52 -21t21 -52t-21 -52t-52 -21zM418 510h146l-291 -700h-191v119h100l33 77l-209 504h148l132 -347z" />
    <glyph glyph-name="Amacron" unicode="&#x100;" horiz-adv-x="716" 
d="M490 866v-109h-264v109h264zM554 0l-49 134h-296l-49 -134h-149l266 690h163l265 -690h-151zM255 261h203l-101 277z" />
    <glyph glyph-name="amacron" unicode="&#x101;" horiz-adv-x="538" 
d="M396 686v-109h-264v109h264zM468 118h59v-118h-174v52q-53 -64 -146 -64q-77 0 -129 48.5t-52 119.5q0 72 52 119.5t129 47.5h131v66h-276v121h406v-392zM237 92q45 0 73 20t28 52v59h-101q-33 0 -55 -18.5t-22 -46.5t22 -47t55 -19z" />
    <glyph glyph-name="Abreve" unicode="&#x102;" horiz-adv-x="716" 
d="M358 736q-67 0 -112.5 43t-45.5 108h101q0 -25 16 -41.5t41 -16.5q24 0 40.5 16.5t16.5 41.5h100q0 -65 -45 -108t-112 -43zM554 0l-49 134h-296l-49 -134h-149l266 690h163l265 -690h-151zM255 261h203l-101 277z" />
    <glyph glyph-name="abreve" unicode="&#x103;" horiz-adv-x="538" 
d="M264 556q-67 0 -112.5 43t-45.5 108h101q0 -25 16 -41.5t41 -16.5q24 0 40.5 16.5t16.5 41.5h100q0 -65 -45 -108t-112 -43zM468 118h59v-118h-174v52q-53 -64 -146 -64q-77 0 -129 48.5t-52 119.5q0 72 52 119.5t129 47.5h131v66h-276v121h406v-392zM237 92q45 0 73 20
t28 52v59h-101q-33 0 -55 -18.5t-22 -46.5t22 -47t55 -19z" />
    <glyph glyph-name="Aogonek" unicode="&#x104;" horiz-adv-x="716" 
d="M647 -146q34 0 63 24v-92q-38 -25 -91 -25t-88 31.5t-35 78.5q0 41 28 75.5t73 53.5h-43l-49 134h-296l-49 -134h-149l266 690h163l265 -690h-1q-105 -46 -105 -101q0 -21 14.5 -33t33.5 -12zM255 261h203l-101 277z" />
    <glyph glyph-name="aogonek" unicode="&#x105;" horiz-adv-x="538" 
d="M468 -146q34 0 63 24v-92q-37 -25 -91 -25q-53 0 -88 31.5t-35 78.5q0 41 28 75.5t73 53.5h-65v52q-53 -64 -146 -64q-77 0 -129 48.5t-52 119.5q0 72 52 119.5t129 47.5h131v66h-276v121h406v-392h59v-118h-2q-105 -46 -105 -101q0 -21 14.5 -33t33.5 -12zM237 92
q45 0 73 20t28 52v59h-101q-33 0 -55 -18.5t-22 -46.5t22 -47t55 -19z" />
    <glyph glyph-name="Cacute" unicode="&#x106;" horiz-adv-x="787" 
d="M324 746l101 143h164l-128 -143h-137zM400 -12q-156 0 -260 102.5t-104 254.5t104 254.5t260 102.5q132 0 230 -77t125 -199h-147q-24 64 -80 103.5t-128 39.5q-95 0 -159 -64t-64 -160t64 -160t159 -64q72 0 128 39.5t80 103.5h147q-27 -122 -125 -199t-230 -77z" />
    <glyph glyph-name="cacute" unicode="&#x107;" horiz-adv-x="601" 
d="M230 566l101 143h164l-128 -143h-137zM305 -12q-117 0 -195.5 76.5t-78.5 190.5t78.5 190.5t195.5 76.5q102 0 176 -59t92 -152h-138q-16 39 -51 62t-79 23q-60 0 -100 -40.5t-40 -100.5t40 -100.5t100 -40.5q44 0 79 23t51 62h138q-18 -93 -92 -152t-176 -59z" />
    <glyph glyph-name="Ccircumflex" unicode="&#x108;" horiz-adv-x="787" 
d="M400 819l-56 -73h-122l99 143h157l99 -143h-122zM400 121q72 0 128 39.5t80 103.5h147q-27 -122 -125 -199t-230 -77q-156 0 -260 102.5t-104 254.5t104 254.5t260 102.5q132 0 230 -77t125 -199h-147q-24 64 -80 103.5t-128 39.5q-95 0 -159 -64t-64 -160t64 -160
t159 -64z" />
    <glyph glyph-name="ccircumflex" unicode="&#x109;" horiz-adv-x="601" 
d="M306 639l-56 -73h-122l99 143h157l99 -143h-122zM305 114q44 0 79 23t51 62h138q-18 -93 -92 -152t-176 -59q-117 0 -195.5 76.5t-78.5 190.5t78.5 190.5t195.5 76.5q102 0 176 -59t92 -152h-138q-16 39 -51 62t-79 23q-60 0 -100 -40.5t-40 -100.5t40 -100.5t100 -40.5z
" />
    <glyph glyph-name="Cdotaccent" unicode="&#x10a;" horiz-adv-x="787" 
d="M399 745q-33 0 -55 21.5t-22 54.5t22 55t55 22t55.5 -22t22.5 -55t-22.5 -54.5t-55.5 -21.5zM400 -12q-156 0 -260 102.5t-104 254.5t104 254.5t260 102.5q132 0 230 -77t125 -199h-147q-24 64 -80 103.5t-128 39.5q-95 0 -159 -64t-64 -160t64 -160t159 -64
q72 0 128 39.5t80 103.5h147q-27 -122 -125 -199t-230 -77z" />
    <glyph glyph-name="cdotaccent" unicode="&#x10b;" horiz-adv-x="601" 
d="M305 565q-33 0 -55 21.5t-22 54.5t22 55t55 22t55.5 -22t22.5 -55t-22.5 -54.5t-55.5 -21.5zM305 -12q-117 0 -195.5 76.5t-78.5 190.5t78.5 190.5t195.5 76.5q102 0 176 -59t92 -152h-138q-16 39 -51 62t-79 23q-60 0 -100 -40.5t-40 -100.5t40 -100.5t100 -40.5
q44 0 79 23t51 62h138q-18 -93 -92 -152t-176 -59z" />
    <glyph glyph-name="Ccaron" unicode="&#x10c;" horiz-adv-x="787" 
d="M478 746h-157l-99 143h122l56 -73l55 73h122zM400 121q72 0 128 39.5t80 103.5h147q-27 -122 -125 -199t-230 -77q-156 0 -260 102.5t-104 254.5t104 254.5t260 102.5q132 0 230 -77t125 -199h-147q-24 64 -80 103.5t-128 39.5q-95 0 -159 -64t-64 -160t64 -160t159 -64z
" />
    <glyph glyph-name="ccaron" unicode="&#x10d;" horiz-adv-x="601" 
d="M384 566h-157l-99 143h122l56 -73l55 73h122zM305 114q44 0 79 23t51 62h138q-18 -93 -92 -152t-176 -59q-117 0 -195.5 76.5t-78.5 190.5t78.5 190.5t195.5 76.5q102 0 176 -59t92 -152h-138q-16 39 -51 62t-79 23q-60 0 -100 -40.5t-40 -100.5t40 -100.5t100 -40.5z
" />
    <glyph glyph-name="Dcaron" unicode="&#x10e;" horiz-adv-x="728" 
d="M434 746h-157l-99 143h122l56 -73l55 73h122zM340 690q151 0 251.5 -98.5t100.5 -246.5t-100.5 -246.5t-251.5 -98.5h-270v690h270zM337 130q91 0 152 61.5t61 153.5t-61 153.5t-152 61.5h-129v-430h129z" />
    <glyph glyph-name="dcaron" unicode="&#x10f;" horiz-adv-x="754" 
d="M448 443v277h130v-720h-130v67q-64 -79 -166 -79q-106 0 -177.5 76.5t-71.5 190.5t71.5 190.5t177.5 76.5q102 0 166 -79zM652 720h118l-41 -222h-98zM307 114q61 0 101 40.5t40 100.5t-40 100.5t-101 40.5q-60 0 -100 -40.5t-40 -100.5t40 -100.5t100 -40.5z" />
    <glyph glyph-name="Dcroat" unicode="&#x110;" horiz-adv-x="728" 
d="M340 690q151 0 251.5 -98.5t100.5 -246.5t-100.5 -246.5t-251.5 -98.5h-270v298h-64v93h64v299h270zM337 130q91 0 152 61.5t61 153.5t-61 153.5t-152 61.5h-129v-169h104v-93h-104v-168h129z" />
    <glyph glyph-name="dcroat" unicode="&#x111;" horiz-adv-x="640" 
d="M640 654v-93h-62v-561h-130v67q-64 -79 -166 -79q-106 0 -177.5 76.5t-71.5 190.5t71.5 190.5t177.5 76.5q102 0 166 -79v118h-114v93h114v66h130v-66h62zM307 114q61 0 101 40.5t40 100.5t-40 100.5t-101 40.5q-60 0 -100 -40.5t-40 -100.5t40 -100.5t100 -40.5z" />
    <glyph glyph-name="Emacron" unicode="&#x112;" horiz-adv-x="505" 
d="M398 866v-109h-264v109h264zM208 130h261v-130h-399v690h394v-130h-256v-148h223v-130h-223v-152z" />
    <glyph glyph-name="emacron" unicode="&#x113;" horiz-adv-x="608" 
d="M437 686v-109h-264v109h264zM579 254q0 -28 -4 -44h-405q13 -49 49.5 -78t87.5 -29q41 0 74.5 17t48.5 44h139q-28 -79 -99.5 -127.5t-164.5 -48.5q-117 0 -195.5 76.5t-78.5 190.5t78.5 190.5t195.5 76.5t195.5 -76.5t78.5 -191.5zM305 408q-48 0 -84 -28t-49 -75h267
q-13 47 -49.5 75t-84.5 28z" />
    <glyph glyph-name="Ebreve" unicode="&#x114;" horiz-adv-x="505" 
d="M267 736q-67 0 -112.5 43t-45.5 108h101q0 -25 16 -41.5t41 -16.5q24 0 40.5 16.5t16.5 41.5h100q0 -65 -45 -108t-112 -43zM208 130h261v-130h-399v690h394v-130h-256v-148h223v-130h-223v-152z" />
    <glyph glyph-name="ebreve" unicode="&#x115;" horiz-adv-x="608" 
d="M305 556q-67 0 -112.5 43t-45.5 108h101q0 -25 16 -41.5t41 -16.5q24 0 40.5 16.5t16.5 41.5h100q0 -65 -45 -108t-112 -43zM579 254q0 -28 -4 -44h-405q13 -49 49.5 -78t87.5 -29q41 0 74.5 17t48.5 44h139q-28 -79 -99.5 -127.5t-164.5 -48.5q-117 0 -195.5 76.5
t-78.5 190.5t78.5 190.5t195.5 76.5t195.5 -76.5t78.5 -191.5zM305 408q-48 0 -84 -28t-49 -75h267q-13 47 -49.5 75t-84.5 28z" />
    <glyph glyph-name="Edotaccent" unicode="&#x116;" horiz-adv-x="505" 
d="M266 745q-33 0 -55 21.5t-22 54.5t22 55t55 22t55.5 -22t22.5 -55t-22.5 -54.5t-55.5 -21.5zM208 130h261v-130h-399v690h394v-130h-256v-148h223v-130h-223v-152z" />
    <glyph glyph-name="edotaccent" unicode="&#x117;" horiz-adv-x="608" 
d="M305 565q-33 0 -55 21.5t-22 54.5t22 55t55 22t55.5 -22t22.5 -55t-22.5 -54.5t-55.5 -21.5zM579 254q0 -28 -4 -44h-405q13 -49 49.5 -78t87.5 -29q41 0 74.5 17t48.5 44h139q-28 -79 -99.5 -127.5t-164.5 -48.5q-117 0 -195.5 76.5t-78.5 190.5t78.5 190.5t195.5 76.5
t195.5 -76.5t78.5 -191.5zM305 408q-48 0 -84 -28t-49 -75h267q-13 47 -49.5 75t-84.5 28z" />
    <glyph glyph-name="Eogonek" unicode="&#x118;" horiz-adv-x="505" 
d="M462 0q-105 -46 -105 -101q0 -21 14.5 -33t33.5 -12q34 0 63 24v-92q-38 -25 -91 -25t-88 31.5t-35 78.5q0 41 28 75.5t73 53.5h-285v690h394v-130h-256v-148h223v-130h-223v-152h261v-130h-7z" />
    <glyph glyph-name="eogonek" unicode="&#x119;" horiz-adv-x="608" 
d="M579 254q0 -28 -4 -44h-405q13 -49 49.5 -78t87.5 -29q41 0 74.5 17t48.5 44h139q-38 -109 -152 -155q-69 -51 -69 -104q0 -23 15 -37t37 -14q36 0 63 27v-93q-35 -27 -93 -27q-55 0 -91.5 33.5t-36.5 83.5q0 61 49 110q-112 5 -186 81t-74 186q0 114 78.5 190.5
t195.5 76.5t195.5 -76.5t78.5 -191.5zM305 408q-48 0 -84 -28t-49 -75h267q-13 47 -49.5 75t-84.5 28z" />
    <glyph glyph-name="Ecaron" unicode="&#x11a;" horiz-adv-x="505" 
d="M345 746h-157l-99 143h122l56 -73l55 73h122zM208 130h261v-130h-399v690h394v-130h-256v-148h223v-130h-223v-152z" />
    <glyph glyph-name="ecaron" unicode="&#x11b;" horiz-adv-x="608" 
d="M383 566h-157l-99 143h122l56 -73l55 73h122zM579 254q0 -28 -4 -44h-405q13 -49 49.5 -78t87.5 -29q41 0 74.5 17t48.5 44h139q-28 -79 -99.5 -127.5t-164.5 -48.5q-117 0 -195.5 76.5t-78.5 190.5t78.5 190.5t195.5 76.5t195.5 -76.5t78.5 -191.5zM305 408
q-48 0 -84 -28t-49 -75h267q-13 47 -49.5 75t-84.5 28z" />
    <glyph glyph-name="Gcircumflex" unicode="&#x11c;" horiz-adv-x="810" 
d="M400 819l-56 -73h-122l99 143h157l99 -143h-122zM408 388h349v-388h-121v88q-78 -100 -236 -100q-156 0 -260 102.5t-104 254.5t104 254.5t260 102.5q125 0 219.5 -67t121.5 -173h-154q-26 49 -75.5 78t-111.5 29q-95 0 -159 -64t-64 -160t64 -160t159 -64q74 0 130.5 39
t76.5 103h-199v125z" />
    <glyph glyph-name="gcircumflex" unicode="&#x11d;" horiz-adv-x="639" 
d="M323 639l-56 -73h-122l99 143h157l99 -143h-122zM447 510h130v-700h-494v119h364v150q-65 -76 -165 -76q-106 0 -177.5 74.5t-71.5 185.5q0 110 71.5 184.5t177.5 74.5q100 0 165 -76v64zM307 121q61 0 100.5 40.5t39.5 101.5q0 60 -40 100.5t-100 40.5t-100 -40.5
t-40 -100.5q0 -61 40 -101.5t100 -40.5z" />
    <glyph glyph-name="Gbreve" unicode="&#x11e;" horiz-adv-x="810" 
d="M400 736q-67 0 -112.5 43t-45.5 108h101q0 -25 16 -41.5t41 -16.5q24 0 40.5 16.5t16.5 41.5h100q0 -65 -45 -108t-112 -43zM408 388h349v-388h-121v88q-78 -100 -236 -100q-156 0 -260 102.5t-104 254.5t104 254.5t260 102.5q125 0 219.5 -67t121.5 -173h-154
q-26 49 -75.5 78t-111.5 29q-95 0 -159 -64t-64 -160t64 -160t159 -64q74 0 130.5 39t76.5 103h-199v125z" />
    <glyph glyph-name="gbreve" unicode="&#x11f;" horiz-adv-x="639" 
d="M323 556q-67 0 -112.5 43t-45.5 108h101q0 -25 16 -41.5t41 -16.5q24 0 40.5 16.5t16.5 41.5h100q0 -65 -45 -108t-112 -43zM447 510h130v-700h-494v119h364v150q-65 -76 -165 -76q-106 0 -177.5 74.5t-71.5 185.5q0 110 71.5 184.5t177.5 74.5q100 0 165 -76v64z
M307 121q61 0 100.5 40.5t39.5 101.5q0 60 -40 100.5t-100 40.5t-100 -40.5t-40 -100.5q0 -61 40 -101.5t100 -40.5z" />
    <glyph glyph-name="Gdotaccent" unicode="&#x120;" horiz-adv-x="810" 
d="M399 745q-33 0 -55 21.5t-22 54.5t22 55t55 22t55.5 -22t22.5 -55t-22.5 -54.5t-55.5 -21.5zM408 388h349v-388h-121v88q-78 -100 -236 -100q-156 0 -260 102.5t-104 254.5t104 254.5t260 102.5q125 0 219.5 -67t121.5 -173h-154q-26 49 -75.5 78t-111.5 29
q-95 0 -159 -64t-64 -160t64 -160t159 -64q74 0 130.5 39t76.5 103h-199v125z" />
    <glyph glyph-name="gdotaccent" unicode="&#x121;" horiz-adv-x="639" 
d="M322 565q-33 0 -55 21.5t-22 54.5t22 55t55 22t55.5 -22t22.5 -55t-22.5 -54.5t-55.5 -21.5zM447 510h130v-700h-494v119h364v150q-65 -76 -165 -76q-106 0 -177.5 74.5t-71.5 185.5q0 110 71.5 184.5t177.5 74.5q100 0 165 -76v64zM307 121q61 0 100.5 40.5t39.5 101.5
q0 60 -40 100.5t-100 40.5t-100 -40.5t-40 -100.5q0 -61 40 -101.5t100 -40.5z" />
    <glyph glyph-name="uni0122" unicode="&#x122;" horiz-adv-x="810" 
d="M408 388h349v-388h-121v88q-78 -100 -236 -100q-156 0 -260 102.5t-104 254.5t104 254.5t260 102.5q125 0 219.5 -67t121.5 -173h-154q-26 49 -75.5 78t-111.5 29q-95 0 -159 -64t-64 -160t64 -160t159 -64q74 0 130.5 39t76.5 103h-199v125zM306 -225l41 170h134
l-68 -170h-107z" />
    <glyph glyph-name="uni0123" unicode="&#x123;" horiz-adv-x="639" 
d="M410 733l-41 -170h-134l68 170h107zM447 510h130v-700h-494v119h364v150q-65 -76 -165 -76q-106 0 -177.5 74.5t-71.5 185.5q0 110 71.5 184.5t177.5 74.5q100 0 165 -76v64zM307 121q61 0 100.5 40.5t39.5 101.5q0 60 -40 100.5t-100 40.5t-100 -40.5t-40 -100.5
q0 -61 40 -101.5t100 -40.5z" />
    <glyph glyph-name="Hcircumflex" unicode="&#x124;" horiz-adv-x="722" 
d="M362 819l-56 -73h-122l99 143h157l99 -143h-122zM514 690h138v-690h-138v282h-306v-282h-138v690h138v-278h306v278z" />
    <glyph glyph-name="hcircumflex" unicode="&#x125;" horiz-adv-x="607" 
d="M127 833l-56 -73h-122l99 143h157l99 -143h-122zM354 522q90 0 144.5 -54t54.5 -144v-324h-130v282q0 52 -30.5 83t-80.5 31q-54 0 -87 -32t-33 -84v-280h-130v720h130v-277q59 79 162 79z" />
    <glyph glyph-name="Hbar" unicode="&#x126;" horiz-adv-x="722" 
d="M707 592v-95h-55v-497h-138v282h-306v-282h-138v497h-55v95h55v98h138v-98h306v98h138v-98h55zM514 412v85h-306v-85h306z" />
    <glyph glyph-name="hbar" unicode="&#x127;" horiz-adv-x="607" 
d="M354 522q90 0 144.5 -54t54.5 -144v-324h-130v282q0 52 -30.5 83t-80.5 31q-54 0 -87 -32t-33 -84v-280h-130v561h-63v93h63v66h130v-66h113v-93h-113v-118q59 79 162 79z" />
    <glyph glyph-name="Itilde" unicode="&#x128;" horiz-adv-x="381" 
d="M141 793q-17 0 -27.5 -11t-10.5 -27h-92q0 62 30 102t84 40q31 0 65.5 -21.5t48.5 -21.5q16 0 27.5 11.5t11.5 28.5h91q0 -63 -29.5 -102.5t-83.5 -39.5q-32 0 -66.5 20.5t-48.5 20.5zM35 560v130h311v-130h-86v-430h86v-130h-311v130h87v430h-87z" />
    <glyph glyph-name="itilde" unicode="&#x129;" horiz-adv-x="254" 
d="M192 572q-32 0 -66.5 20.5t-48.5 20.5q-17 0 -27.5 -11t-10.5 -27h-92q0 62 30 102t84 40q31 0 65.5 -21.5t48.5 -21.5q16 0 27.5 11.5t11.5 28.5h91q0 -63 -29.5 -102.5t-83.5 -39.5zM62 0v510h130v-510h-130z" />
    <glyph glyph-name="Imacron" unicode="&#x12a;" horiz-adv-x="381" 
d="M323 866v-109h-264v109h264zM346 560h-86v-430h86v-130h-311v130h87v430h-87v130h311v-130z" />
    <glyph glyph-name="imacron" unicode="&#x12b;" horiz-adv-x="254" 
d="M-5 577v109h264v-109h-264zM62 0v510h130v-510h-130z" />
    <glyph glyph-name="Ibreve" unicode="&#x12c;" horiz-adv-x="381" 
d="M191 736q-67 0 -112.5 43t-45.5 108h101q0 -25 16 -41.5t41 -16.5q24 0 40.5 16.5t16.5 41.5h100q0 -65 -45 -108t-112 -43zM35 560v130h311v-130h-86v-430h86v-130h-311v130h87v430h-87z" />
    <glyph glyph-name="ibreve" unicode="&#x12d;" horiz-adv-x="254" 
d="M127 556q-67 0 -112.5 43t-45.5 108h101q0 -25 16 -41.5t41 -16.5q24 0 40.5 16.5t16.5 41.5h100q0 -65 -45 -108t-112 -43zM62 0v510h130v-510h-130z" />
    <glyph glyph-name="Iogonek" unicode="&#x12e;" horiz-adv-x="381" 
d="M288 -146q34 0 63 24v-92q-37 -25 -91 -25q-53 0 -88 31.5t-35 78.5q0 41 28 75.5t73 53.5h-203v130h87v430h-87v130h311v-130h-86v-430h86v-130h-1q-105 -46 -105 -101q0 -21 14.5 -33t33.5 -12z" />
    <glyph glyph-name="iogonek" unicode="&#x12f;" horiz-adv-x="254" 
d="M127 565q-33 0 -55 21.5t-22 54.5t22 55t55 22t55.5 -22t22.5 -55t-22.5 -54.5t-55.5 -21.5zM86 -101q0 -21 14.5 -33t33.5 -12q34 0 63 24v-92q-38 -25 -91 -25t-88 31.5t-35 78.5q0 41 28 75.5t73 53.5h-22v510h130v-510h-1q-105 -46 -105 -101z" />
    <glyph glyph-name="Idotaccent" unicode="&#x130;" horiz-adv-x="381" 
d="M191 745q-33 0 -55 21.5t-22 54.5t22 55t55 22t55.5 -22t22.5 -55t-22.5 -54.5t-55.5 -21.5zM346 560h-86v-430h86v-130h-311v130h87v430h-87v130h311v-130z" />
    <glyph glyph-name="dotlessi" unicode="&#x131;" horiz-adv-x="254" 
d="M62 0v510h130v-510h-130z" />
    <glyph glyph-name="IJ" unicode="&#x132;" horiz-adv-x="854" 
d="M35 560v130h311v-130h-86v-430h86v-130h-311v130h87v430h-87zM646 690h138v-690h-369v130h231v560z" />
    <glyph glyph-name="ij" unicode="&#x133;" horiz-adv-x="513" 
d="M127 747q35 0 58.5 -23.5t23.5 -57.5t-23.5 -57.5t-58.5 -23.5t-58.5 23.5t-23.5 57.5t23.5 57.5t58.5 23.5zM386 585q-35 0 -58.5 23.5t-23.5 57.5t23.5 57.5t58.5 23.5t58.5 -23.5t23.5 -57.5t-23.5 -57.5t-58.5 -23.5zM62 0v510h130v-510h-130zM321 -83v593h130v-712
h-216v119h86z" />
    <glyph glyph-name="Jcircumflex" unicode="&#x134;" horiz-adv-x="463" 
d="M323 819l-56 -73h-122l99 143h157l99 -143h-122zM255 130v560h138v-690h-369v130h231z" />
    <glyph glyph-name="jcircumflex" unicode="&#x135;" horiz-adv-x="259" 
d="M132 639l-56 -73h-122l99 143h157l99 -143h-122zM67 -83v593h130v-712h-216v119h86z" />
    <glyph glyph-name="uni0136" unicode="&#x136;" horiz-adv-x="641" 
d="M384 349l260 -349h-172l-205 282h-59v-282h-138v690h138v-278h60l200 278h170zM232 -225l41 170h134l-68 -170h-107z" />
    <glyph glyph-name="uni0137" unicode="&#x137;" horiz-adv-x="540" 
d="M354 257l184 -257h-158l-134 198h-54v-198h-130v720h130v-404h55l128 194h156zM191 -225l41 170h134l-68 -170h-107z" />
    <glyph glyph-name="Lacute" unicode="&#x139;" horiz-adv-x="463" 
d="M329 889l-128 -143h-137l101 143h164zM208 130h231v-130h-369v690h138v-560z" />
    <glyph glyph-name="lacute" unicode="&#x13a;" horiz-adv-x="291" 
d="M317 903l-128 -143h-137l101 143h164zM192 720v-601h86v-119h-216v720h130z" />
    <glyph glyph-name="uni013B" unicode="&#x13b;" horiz-adv-x="463" 
d="M208 130h231v-130h-369v690h138v-560zM157 -225l41 170h134l-68 -170h-107z" />
    <glyph glyph-name="uni013C" unicode="&#x13c;" horiz-adv-x="291" 
d="M192 119h86v-119h-216v720h130v-601zM59 -225l41 170h134l-68 -170h-107z" />
    <glyph glyph-name="Lcaron" unicode="&#x13d;" horiz-adv-x="482" 
d="M208 130h231v-130h-369v690h138v-560zM421 690l-41 -222h-98l21 222h118z" />
    <glyph glyph-name="lcaron" unicode="&#x13e;" horiz-adv-x="368" 
d="M192 720v-601h86v-119h-216v720h130zM267 720h118l-41 -222h-98z" />
    <glyph glyph-name="Ldot" unicode="&#x13f;" horiz-adv-x="493" 
d="M208 130h231v-130h-369v690h138v-560zM354 278q-34 0 -57.5 23t-23.5 58t23.5 58t57.5 23t57 -23.5t23 -57.5t-23 -57.5t-57 -23.5z" />
    <glyph glyph-name="ldot" unicode="&#x140;" horiz-adv-x="416" 
d="M192 720v-601h86v-119h-216v720h130zM320 441q34 0 57.5 -23.5t23.5 -57.5t-23.5 -57.5t-57.5 -23.5t-57.5 23.5t-23.5 57.5t23.5 57.5t57.5 23.5z" />
    <glyph glyph-name="Lslash" unicode="&#x141;" horiz-adv-x="463" 
d="M208 130h231v-130h-369v234l-59 -34v126l59 34v330h138v-252l107 61v-126l-107 -61v-182z" />
    <glyph glyph-name="lslash" unicode="&#x142;" horiz-adv-x="350" 
d="M230 119h85v-119h-215v262l-70 -40v119l70 40v339h130v-266l78 44v-119l-78 -44v-216z" />
    <glyph glyph-name="Nacute" unicode="&#x143;" horiz-adv-x="732" 
d="M559 889l-128 -143h-137l101 143h164zM524 690h138v-690h-140l-314 453v-453h-138v690h140l314 -453v453z" />
    <glyph glyph-name="nacute" unicode="&#x144;" horiz-adv-x="607" 
d="M498 709l-128 -143h-137l101 143h164zM354 522q90 0 144.5 -54t54.5 -144v-324h-130v282q0 52 -30.5 83t-80.5 31q-54 0 -87 -32t-33 -84v-280h-130v510h130v-63q60 75 162 75z" />
    <glyph glyph-name="uni0145" unicode="&#x145;" horiz-adv-x="732" 
d="M524 690h138v-690h-140l-314 453v-453h-138v690h140l314 -453v453zM272 -225l41 170h134l-68 -170h-107z" />
    <glyph glyph-name="uni0146" unicode="&#x146;" horiz-adv-x="607" 
d="M354 522q90 0 144.5 -54t54.5 -144v-324h-130v282q0 52 -30.5 83t-80.5 31q-54 0 -87 -32t-33 -84v-280h-130v510h130v-63q60 75 162 75zM214 -225l41 170h134l-68 -170h-107z" />
    <glyph glyph-name="Ncaron" unicode="&#x147;" horiz-adv-x="732" 
d="M448 746h-157l-99 143h122l56 -73l55 73h122zM524 690h138v-690h-140l-314 453v-453h-138v690h140l314 -453v453z" />
    <glyph glyph-name="ncaron" unicode="&#x148;" horiz-adv-x="607" 
d="M387 566h-157l-99 143h122l56 -73l55 73h122zM354 522q90 0 144.5 -54t54.5 -144v-324h-130v282q0 52 -30.5 83t-80.5 31q-54 0 -87 -32t-33 -84v-280h-130v510h130v-63q60 75 162 75z" />
    <glyph glyph-name="Eng" unicode="&#x14a;" horiz-adv-x="732" 
d="M524 690h138v-715q0 -181 -204 -181v126q66 0 66 59v21h-2l-314 453v-453h-138v690h140l314 -453v453z" />
    <glyph glyph-name="eng" unicode="&#x14b;" horiz-adv-x="607" 
d="M354 522q90 0 144.5 -54t54.5 -144v-349q0 -181 -199 -181v126q69 0 69 59v303q0 52 -30.5 83t-80.5 31q-54 0 -87 -32t-33 -84v-280h-130v510h130v-63q60 75 162 75z" />
    <glyph glyph-name="Omacron" unicode="&#x14c;" horiz-adv-x="799" 
d="M268 757v109h264v-109h-264zM400 -12q-156 0 -260 102.5t-104 254.5t104 254.5t260 102.5q155 0 259.5 -102.5t104.5 -254.5t-104.5 -254.5t-259.5 -102.5zM400 121q95 0 158.5 64t63.5 160t-63.5 160t-158.5 64t-159 -64t-64 -160t64 -160t159 -64z" />
    <glyph glyph-name="omacron" unicode="&#x14d;" horiz-adv-x="610" 
d="M173 577v109h264v-109h-264zM305 -12q-117 0 -195.5 76.5t-78.5 190.5t78.5 190.5t195.5 76.5t195.5 -76.5t78.5 -190.5t-78.5 -190.5t-195.5 -76.5zM305 114q60 0 100 40.5t40 100.5t-40 100.5t-100 40.5t-100 -40.5t-40 -100.5t40 -100.5t100 -40.5z" />
    <glyph glyph-name="Obreve" unicode="&#x14e;" horiz-adv-x="799" 
d="M400 736q-67 0 -112.5 43t-45.5 108h101q0 -25 16 -41.5t41 -16.5q24 0 40.5 16.5t16.5 41.5h100q0 -65 -45 -108t-112 -43zM400 -12q-156 0 -260 102.5t-104 254.5t104 254.5t260 102.5q155 0 259.5 -102.5t104.5 -254.5t-104.5 -254.5t-259.5 -102.5zM400 121
q95 0 158.5 64t63.5 160t-63.5 160t-158.5 64t-159 -64t-64 -160t64 -160t159 -64z" />
    <glyph glyph-name="obreve" unicode="&#x14f;" horiz-adv-x="610" 
d="M306 556q-67 0 -112.5 43t-45.5 108h101q0 -25 16 -41.5t41 -16.5q24 0 40.5 16.5t16.5 41.5h100q0 -65 -45 -108t-112 -43zM305 -12q-117 0 -195.5 76.5t-78.5 190.5t78.5 190.5t195.5 76.5t195.5 -76.5t78.5 -190.5t-78.5 -190.5t-195.5 -76.5zM305 114q60 0 100 40.5
t40 100.5t-40 100.5t-100 40.5t-100 -40.5t-40 -100.5t40 -100.5t100 -40.5z" />
    <glyph glyph-name="Ohungarumlaut" unicode="&#x150;" horiz-adv-x="799" 
d="M225 746l85 143h142l-102 -143h-125zM441 746l85 143h142l-102 -143h-125zM400 -12q-156 0 -260 102.5t-104 254.5t104 254.5t260 102.5q155 0 259.5 -102.5t104.5 -254.5t-104.5 -254.5t-259.5 -102.5zM400 121q95 0 158.5 64t63.5 160t-63.5 160t-158.5 64t-159 -64
t-64 -160t64 -160t159 -64z" />
    <glyph glyph-name="ohungarumlaut" unicode="&#x151;" horiz-adv-x="610" 
d="M131 566l85 143h142l-102 -143h-125zM347 566l85 143h142l-102 -143h-125zM305 -12q-117 0 -195.5 76.5t-78.5 190.5t78.5 190.5t195.5 76.5t195.5 -76.5t78.5 -190.5t-78.5 -190.5t-195.5 -76.5zM305 114q60 0 100 40.5t40 100.5t-40 100.5t-100 40.5t-100 -40.5
t-40 -100.5t40 -100.5t100 -40.5z" />
    <glyph glyph-name="OE" unicode="&#x152;" horiz-adv-x="876" 
d="M578 130h261v-130h-451q-151 0 -251.5 98.5t-100.5 246.5t100.5 246.5t251.5 98.5h446v-130h-256v-148h223v-130h-223v-152zM390 130h50v430h-50q-91 0 -152 -61.5t-61 -153.5t61 -153.5t152 -61.5z" />
    <glyph glyph-name="oe" unicode="&#x153;" horiz-adv-x="1022" 
d="M993 254q0 -26 -3 -44h-405q12 -48 49 -77t87 -29q42 0 75 16.5t48 43.5h140q-28 -78 -97.5 -127t-161.5 -49q-67 0 -122.5 29.5t-89.5 80.5q-35 -51 -90.5 -80.5t-122.5 -29.5q-114 0 -191.5 76.5t-77.5 190.5t77.5 190.5t191.5 76.5q67 0 122.5 -29.5t89.5 -80.5
q34 51 89.5 80.5t123.5 29.5q114 0 191 -76.5t77 -191.5zM720 406q-48 0 -84 -27.5t-50 -73.5h268q-12 46 -49 73.5t-85 27.5zM305 114q60 0 100 40.5t40 100.5q0 61 -40 101t-100 40q-61 0 -100.5 -40t-39.5 -101q0 -60 40 -100.5t100 -40.5z" />
    <glyph glyph-name="Racute" unicode="&#x154;" 
d="M476 889l-128 -143h-137l101 143h164zM396 0l-132 246h-56v-246h-138v690h241q100 0 167 -64.5t67 -161.5q0 -68 -36.5 -121.5t-98.5 -78.5l152 -264h-166zM208 560v-194h100q40 0 67.5 28t27.5 69t-27.5 69t-67.5 28h-100z" />
    <glyph glyph-name="racute" unicode="&#x155;" horiz-adv-x="362" 
d="M391 709l-128 -143h-137l101 143h164zM192 435q59 83 149 83v-134q-71 0 -110 -38t-39 -103v-243h-130v510h130v-75z" />
    <glyph glyph-name="uni0156" unicode="&#x156;" 
d="M410 264l152 -264h-166l-132 246h-56v-246h-138v690h241q100 0 167 -64.5t67 -161.5q0 -68 -36.5 -121.5t-98.5 -78.5zM208 560v-194h100q40 0 67.5 28t27.5 69t-27.5 69t-67.5 28h-100zM203 -225l41 170h134l-68 -170h-107z" />
    <glyph glyph-name="uni0157" unicode="&#x157;" horiz-adv-x="362" 
d="M192 435q59 83 149 83v-134q-71 0 -110 -38t-39 -103v-243h-130v510h130v-75zM33 -225l41 170h134l-68 -170h-107z" />
    <glyph glyph-name="Rcaron" unicode="&#x158;" 
d="M365 746h-157l-99 143h122l56 -73l55 73h122zM396 0l-132 246h-56v-246h-138v690h241q100 0 167 -64.5t67 -161.5q0 -68 -36.5 -121.5t-98.5 -78.5l152 -264h-166zM208 560v-194h100q40 0 67.5 28t27.5 69t-27.5 69t-67.5 28h-100z" />
    <glyph glyph-name="rcaron" unicode="&#x159;" horiz-adv-x="362" 
d="M279 566h-157l-99 143h122l56 -73l55 73h122zM192 435q59 83 149 83v-134q-71 0 -110 -38t-39 -103v-243h-130v510h130v-75z" />
    <glyph glyph-name="Sacute" unicode="&#x15a;" horiz-adv-x="545" 
d="M197 746l101 143h164l-128 -143h-137zM273 -12q-102 0 -170.5 62t-68.5 154h142q0 -39 28.5 -66t70.5 -27q40 0 67 22.5t27 55.5q0 67 -130 99q-195 51 -195 213q0 86 65 143.5t162 57.5q98 0 164 -59.5t66 -147.5h-142q0 36 -25 60t-63 24q-36 0 -60.5 -20.5
t-24.5 -51.5q0 -66 120 -97q94 -24 149.5 -73t55.5 -140q0 -89 -68.5 -149t-169.5 -60z" />
    <glyph glyph-name="sacute" unicode="&#x15b;" horiz-adv-x="441" 
d="M145 566l101 143h164l-128 -143h-137zM221 -12q-82 0 -136.5 48t-54.5 117h131q0 -24 18 -41t43 -17q24 0 40.5 13.5t16.5 32.5q0 42 -85 64q-157 37 -157 160q0 73 53 115t130 42q78 0 131 -45.5t53 -111.5h-131q0 21 -15.5 35.5t-38.5 14.5q-21 0 -36 -12.5t-15 -29.5
q0 -42 89 -64q154 -39 154 -157q0 -76 -54.5 -120t-135.5 -44z" />
    <glyph glyph-name="Scircumflex" unicode="&#x15c;" horiz-adv-x="545" 
d="M273 819l-56 -73h-122l99 143h157l99 -143h-122zM306 410q94 -24 149.5 -73t55.5 -140q0 -89 -68.5 -149t-169.5 -60q-102 0 -170.5 62t-68.5 154h142q0 -39 28.5 -66t70.5 -27q40 0 67 22.5t27 55.5q0 67 -130 99q-195 51 -195 213q0 86 65 143.5t162 57.5
q98 0 164 -59.5t66 -147.5h-142q0 36 -25 60t-63 24q-36 0 -60.5 -20.5t-24.5 -51.5q0 -66 120 -97z" />
    <glyph glyph-name="scircumflex" unicode="&#x15d;" horiz-adv-x="441" 
d="M220 639l-56 -73h-122l99 143h157l99 -143h-122zM257 309q154 -39 154 -157q0 -76 -54.5 -120t-135.5 -44q-82 0 -136.5 48t-54.5 117h131q0 -24 18 -41t43 -17q24 0 40.5 13.5t16.5 32.5q0 42 -85 64q-157 37 -157 160q0 73 53 115t130 42q78 0 131 -45.5t53 -111.5
h-131q0 21 -15.5 35.5t-38.5 14.5q-21 0 -36 -12.5t-15 -29.5q0 -42 89 -64z" />
    <glyph glyph-name="Scedilla" unicode="&#x15e;" horiz-adv-x="545" 
d="M511 197q0 -78 -54 -135t-138 -70l-19 -22q41 -3 68 -33t27 -72q0 -47 -34 -78.5t-84 -31.5q-51 0 -85 31.5t-34 78.5h78q0 -16 12 -27.5t29 -11.5t28.5 11.5t11.5 27.5t-12 27.5t-28 11.5q-19 0 -31 -14l-72 33l54 69q-85 13 -139.5 72t-54.5 140h142q0 -39 28.5 -66
t70.5 -27q40 0 67 22.5t27 55.5q0 67 -130 99q-195 51 -195 213q0 86 65 143.5t162 57.5q98 0 164 -59.5t66 -147.5h-142q0 36 -25 60t-63 24q-36 0 -60.5 -20.5t-24.5 -51.5q0 -66 120 -97q94 -24 149.5 -73t55.5 -140z" />
    <glyph glyph-name="scedilla" unicode="&#x15f;" horiz-adv-x="441" 
d="M411 152q0 -64 -40 -106t-105 -54l-19 -22q41 -3 68 -33t27 -72q0 -47 -34 -78.5t-84 -31.5q-51 0 -85 31.5t-34 78.5h78q0 -16 12 -27.5t29 -11.5t28.5 11.5t11.5 27.5t-12 27.5t-28 11.5q-19 0 -31 -14l-72 33l55 69q-65 14 -105.5 58.5t-40.5 102.5h131q0 -24 18 -41
t43 -17q24 0 40.5 13.5t16.5 32.5q0 42 -85 64q-157 37 -157 160q0 73 53 115t130 42q78 0 131 -45.5t53 -111.5h-131q0 21 -15.5 35.5t-38.5 14.5q-21 0 -36 -12.5t-15 -29.5q0 -42 89 -64q154 -39 154 -157z" />
    <glyph glyph-name="Scaron" unicode="&#x160;" horiz-adv-x="545" 
d="M351 746h-157l-99 143h122l56 -73l55 73h122zM306 410q94 -24 149.5 -73t55.5 -140q0 -89 -68.5 -149t-169.5 -60q-102 0 -170.5 62t-68.5 154h142q0 -39 28.5 -66t70.5 -27q40 0 67 22.5t27 55.5q0 67 -130 99q-195 51 -195 213q0 86 65 143.5t162 57.5q98 0 164 -59.5
t66 -147.5h-142q0 36 -25 60t-63 24q-36 0 -60.5 -20.5t-24.5 -51.5q0 -66 120 -97z" />
    <glyph glyph-name="scaron" unicode="&#x161;" horiz-adv-x="441" 
d="M298 566h-157l-99 143h122l56 -73l55 73h122zM257 309q154 -39 154 -157q0 -76 -54.5 -120t-135.5 -44q-82 0 -136.5 48t-54.5 117h131q0 -24 18 -41t43 -17q24 0 40.5 13.5t16.5 32.5q0 42 -85 64q-157 37 -157 160q0 73 53 115t130 42q78 0 131 -45.5t53 -111.5h-131
q0 21 -15.5 35.5t-38.5 14.5q-21 0 -36 -12.5t-15 -29.5q0 -42 89 -64z" />
    <glyph glyph-name="uni0162" unicode="&#x162;" horiz-adv-x="546" 
d="M342 0h-22l-25 -29q41 -3 68 -33t27 -72q0 -47 -34 -78.5t-84 -31.5q-51 0 -85 31.5t-34 78.5h78q0 -16 12 -27.5t29 -11.5t28.5 11.5t11.5 27.5t-12 27.5t-28 11.5q-19 0 -31 -14l-72 33l60 76h-25v560h-178v130h494v-130h-178v-560z" />
    <glyph glyph-name="uni0163" unicode="&#x163;" horiz-adv-x="406" 
d="M373 391h-126v-272h126v-119h-88l-25 -29q41 -3 68 -33t27 -72q0 -47 -34 -78.5t-84 -31.5q-51 0 -85 31.5t-34 78.5h78q0 -16 12 -27.5t29 -11.5t28.5 11.5t11.5 27.5t-12 27.5t-28 11.5q-19 0 -31 -14l-72 33l60 76h-77v391h-92v119h92v150h130v-150h126v-119z" />
    <glyph glyph-name="Tcaron" unicode="&#x164;" horiz-adv-x="546" 
d="M352 746h-157l-99 143h122l56 -73l55 73h122zM520 690v-130h-178v-560h-138v560h-178v130h494z" />
    <glyph glyph-name="tcaron" unicode="&#x165;" horiz-adv-x="406" 
d="M313 784h118l-41 -222h-98zM247 660v-150h126v-119h-126v-272h126v-119h-256v391h-92v119h92v150h130z" />
    <glyph glyph-name="Tbar" unicode="&#x166;" horiz-adv-x="546" 
d="M520 560h-178v-197h85v-93h-85v-270h-138v270h-83v93h83v197h-178v130h494v-130z" />
    <glyph glyph-name="tbar" unicode="&#x167;" horiz-adv-x="406" 
d="M373 391h-126v-85h97v-93h-97v-94h126v-119h-256v213h-79v93h79v85h-92v119h92v150h130v-150h126v-119z" />
    <glyph glyph-name="Utilde" unicode="&#x168;" horiz-adv-x="686" 
d="M408 752q-32 0 -66.5 20.5t-48.5 20.5q-17 0 -27.5 -11t-10.5 -27h-92q0 62 30 102t84 40q31 0 65.5 -21.5t48.5 -21.5q16 0 27.5 11.5t11.5 28.5h91q0 -63 -29.5 -102.5t-83.5 -39.5zM343 -12q-122 0 -204 80t-82 199v423h138v-421q0 -63 42 -105.5t106 -42.5t106 42.5
t42 105.5v421h138v-423q0 -119 -82 -199t-204 -80z" />
    <glyph glyph-name="utilde" unicode="&#x169;" horiz-adv-x="593" 
d="M243 613q-17 0 -27.5 -11t-10.5 -27h-92q0 62 30 102t84 40q31 0 65.5 -21.5t48.5 -21.5q16 0 27.5 11.5t11.5 28.5h91q0 -63 -29.5 -102.5t-83.5 -39.5q-32 0 -66.5 20.5t-48.5 20.5zM401 510h130v-510h-130v62q-59 -74 -155 -74q-86 0 -139 53.5t-53 141.5v327h130
v-289q0 -49 29 -78t76 -29q50 0 81 30t31 79v287z" />
    <glyph glyph-name="Umacron" unicode="&#x16a;" horiz-adv-x="686" 
d="M211 757v109h264v-109h-264zM343 -12q-122 0 -204 80t-82 199v423h138v-421q0 -63 42 -105.5t106 -42.5t106 42.5t42 105.5v421h138v-423q0 -119 -82 -199t-204 -80z" />
    <glyph glyph-name="umacron" unicode="&#x16b;" horiz-adv-x="593" 
d="M425 686v-109h-264v109h264zM401 510h130v-510h-130v62q-59 -74 -155 -74q-86 0 -139 53.5t-53 141.5v327h130v-289q0 -49 29 -78t76 -29q50 0 81 30t31 79v287z" />
    <glyph glyph-name="Ubreve" unicode="&#x16c;" horiz-adv-x="686" 
d="M343 736q-67 0 -112.5 43t-45.5 108h101q0 -25 16 -41.5t41 -16.5q24 0 40.5 16.5t16.5 41.5h100q0 -65 -45 -108t-112 -43zM343 -12q-122 0 -204 80t-82 199v423h138v-421q0 -63 42 -105.5t106 -42.5t106 42.5t42 105.5v421h138v-423q0 -119 -82 -199t-204 -80z" />
    <glyph glyph-name="ubreve" unicode="&#x16d;" horiz-adv-x="593" 
d="M293 556q-67 0 -112.5 43t-45.5 108h101q0 -25 16 -41.5t41 -16.5q24 0 40.5 16.5t16.5 41.5h100q0 -65 -45 -108t-112 -43zM401 510h130v-510h-130v62q-59 -74 -155 -74q-86 0 -139 53.5t-53 141.5v327h130v-289q0 -49 29 -78t76 -29q50 0 81 30t31 79v287z" />
    <glyph glyph-name="Uring" unicode="&#x16e;" horiz-adv-x="686" 
d="M343 734q-44 0 -73.5 28.5t-29.5 71.5t29.5 71.5t73.5 28.5t73 -28.5t29 -71.5t-29 -71.5t-73 -28.5zM343 799q14 0 24 10t10 25t-10 25t-24 10q-15 0 -24.5 -10t-9.5 -25t9.5 -25t24.5 -10zM343 -12q-122 0 -204 80t-82 199v423h138v-421q0 -63 42 -105.5t106 -42.5
t106 42.5t42 105.5v421h138v-423q0 -119 -82 -199t-204 -80z" />
    <glyph glyph-name="uring" unicode="&#x16f;" horiz-adv-x="593" 
d="M293 554q-44 0 -73.5 28.5t-29.5 71.5t29.5 71.5t73.5 28.5t73 -28.5t29 -71.5t-29 -71.5t-73 -28.5zM293 689q-15 0 -24.5 -10t-9.5 -25t9.5 -25t24.5 -10q14 0 24 10t10 25t-10 25t-24 10zM401 510h130v-510h-130v62q-59 -74 -155 -74q-86 0 -139 53.5t-53 141.5v327
h130v-289q0 -49 29 -78t76 -29q50 0 81 30t31 79v287z" />
    <glyph glyph-name="Uhungarumlaut" unicode="&#x170;" horiz-adv-x="686" 
d="M168 746l85 143h142l-102 -143h-125zM384 746l85 143h142l-102 -143h-125zM343 -12q-122 0 -204 80t-82 199v423h138v-421q0 -63 42 -105.5t106 -42.5t106 42.5t42 105.5v421h138v-423q0 -119 -82 -199t-204 -80z" />
    <glyph glyph-name="uhungarumlaut" unicode="&#x171;" horiz-adv-x="593" 
d="M345 709l-102 -143h-125l85 143h142zM459 566h-125l85 143h142zM401 223v287h130v-510h-130v62q-59 -74 -155 -74q-86 0 -139 53.5t-53 141.5v327h130v-289q0 -49 29 -78t76 -29q50 0 81 30t31 79z" />
    <glyph glyph-name="Uogonek" unicode="&#x172;" horiz-adv-x="686" 
d="M491 690h138v-423q0 -93 -52 -164.5t-137 -99.5q-82 -42 -82 -90q0 -21 14.5 -33t33.5 -12q34 0 63 24v-92q-38 -25 -91 -25t-88 31.5t-35 78.5q0 61 58 104q-111 11 -183.5 89t-72.5 189v423h138v-421q0 -63 42 -105.5t106 -42.5t106 42.5t42 105.5v421z" />
    <glyph glyph-name="uogonek" unicode="&#x173;" horiz-adv-x="593" 
d="M473 -146q34 0 63 24v-92q-38 -25 -91 -25t-88 31.5t-35 78.5q0 41 28 75.5t73 53.5h-22v62q-59 -74 -155 -74q-86 0 -139 53.5t-53 141.5v327h130v-289q0 -49 29 -78t76 -29q50 0 81 30t31 79v287h130v-510h-1q-105 -46 -105 -101q0 -21 14.5 -33t33.5 -12z" />
    <glyph glyph-name="Wcircumflex" unicode="&#x174;" horiz-adv-x="1115" 
d="M558 819l-56 -73h-122l99 143h157l99 -143h-122zM952 690h150l-246 -690h-139l-159 483l-160 -483h-139l-245 690h152l165 -504l165 504h126l167 -504z" />
    <glyph glyph-name="wcircumflex" unicode="&#x175;" horiz-adv-x="882" 
d="M444 639l-56 -73h-122l99 143h157l99 -143h-122zM729 510h145l-186 -510h-134l-113 354l-113 -354h-134l-186 510h149l107 -345l112 345h133l113 -346z" />
    <glyph glyph-name="Ycircumflex" unicode="&#x176;" horiz-adv-x="677" 
d="M339 819l-56 -73h-122l99 143h157l99 -143h-122zM522 690h155l-270 -448v-242h-137v242l-270 448h158l182 -308z" />
    <glyph glyph-name="ycircumflex" unicode="&#x177;" horiz-adv-x="569" 
d="M287 639l-56 -73h-122l99 143h157l99 -143h-122zM418 510h146l-291 -700h-191v119h100l33 77l-209 504h148l132 -347z" />
    <glyph glyph-name="Ydieresis" unicode="&#x178;" horiz-adv-x="677" 
d="M231 745q-32 0 -53 21t-21 52t21.5 52t52.5 21t52.5 -21t21.5 -52t-21 -52t-53 -21zM447 745q-32 0 -53 21t-21 52t21.5 52t52.5 21t52 -21t21 -52t-21 -52t-52 -21zM522 690h155l-270 -448v-242h-137v242l-270 448h158l182 -308z" />
    <glyph glyph-name="Zacute" unicode="&#x179;" horiz-adv-x="614" 
d="M496 889l-128 -143h-137l101 143h164zM225 130h353v-130h-542v99l346 461h-342v130h531v-99z" />
    <glyph glyph-name="zacute" unicode="&#x17a;" horiz-adv-x="497" 
d="M438 709l-128 -143h-137l101 143h164zM220 126h239v-126h-421v95l232 289h-228v126h410v-95z" />
    <glyph glyph-name="Zdotaccent" unicode="&#x17b;" horiz-adv-x="614" 
d="M306 745q-33 0 -55 21.5t-22 54.5t22 55t55 22t55.5 -22t22.5 -55t-22.5 -54.5t-55.5 -21.5zM225 130h353v-130h-542v99l346 461h-342v130h531v-99z" />
    <glyph glyph-name="zdotaccent" unicode="&#x17c;" horiz-adv-x="497" 
d="M248 565q-33 0 -55 21.5t-22 54.5t22 55t55 22t55.5 -22t22.5 -55t-22.5 -54.5t-55.5 -21.5zM220 126h239v-126h-421v95l232 289h-228v126h410v-95z" />
    <glyph glyph-name="Zcaron" unicode="&#x17d;" horiz-adv-x="614" 
d="M384 746h-157l-99 143h122l56 -73l55 73h122zM225 130h353v-130h-542v99l346 461h-342v130h531v-99z" />
    <glyph glyph-name="zcaron" unicode="&#x17e;" horiz-adv-x="497" 
d="M327 566h-157l-99 143h122l56 -73l55 73h122zM220 126h239v-126h-421v95l232 289h-228v126h410v-95z" />
    <glyph glyph-name="florin" unicode="&#x192;" horiz-adv-x="460" 
d="M437 557q-95 0 -111 -90l-11 -61h96v-118h-116l-52 -298q-16 -92 -76 -136t-170 -44v133q95 0 111 90l44 255h-89v118h109l18 104q16 92 76.5 136t170.5 44v-133z" />
    <glyph glyph-name="uni01C4" unicode="&#x1c4;" horiz-adv-x="1308" 
d="M1078 746h-156l-100 143h123l55 -73l55 73h123zM340 690q151 0 251.5 -98.5t100.5 -246.5t-100.5 -246.5t-251.5 -98.5h-270v690h270zM919 130h353v-130h-542v99l346 461h-342v130h531v-99zM337 130q91 0 152 61.5t61 153.5t-61 153.5t-152 61.5h-129v-430h129z" />
    <glyph glyph-name="uni01C5" unicode="&#x1c5;" horiz-adv-x="1225" 
d="M1055 566h-157l-99 143h122l56 -73l55 73h122zM340 690q151 0 251.5 -98.5t100.5 -246.5t-100.5 -246.5t-251.5 -98.5h-270v690h270zM337 130q91 0 152 61.5t61 153.5t-61 153.5t-152 61.5h-129v-430h129zM948 126h239v-126h-421v95l232 289h-228v126h410v-95z" />
    <glyph glyph-name="uni01C6" unicode="&#x1c6;" horiz-adv-x="1137" 
d="M448 443v277h130v-720h-130v67q-64 -79 -166 -79q-106 0 -177.5 76.5t-71.5 190.5t71.5 190.5t177.5 76.5q102 0 166 -79zM967 566h-157l-99 143h122l56 -73l55 73h122zM860 126h239v-126h-421v95l232 289h-228v126h410v-95zM307 114q61 0 101 40.5t40 100.5t-40 100.5
t-101 40.5q-60 0 -100 -40.5t-40 -100.5t40 -100.5t100 -40.5z" />
    <glyph glyph-name="uni01C7" unicode="&#x1c7;" horiz-adv-x="950" 
d="M208 690v-560h231v-130h-369v690h138zM743 690h138v-690h-369v130h231v560z" />
    <glyph glyph-name="uni01C8" unicode="&#x1c8;" horiz-adv-x="722" 
d="M595 585q-35 0 -58.5 23.5t-23.5 57.5t23.5 57.5t58.5 23.5t58.5 -23.5t23.5 -57.5t-23.5 -57.5t-58.5 -23.5zM208 690v-560h231v-130h-369v690h138zM530 -83v593h130v-712h-216v119h86z" />
    <glyph glyph-name="uni01C9" unicode="&#x1c9;" horiz-adv-x="550" 
d="M423 585q-35 0 -58.5 23.5t-23.5 57.5t23.5 57.5t58.5 23.5t58.5 -23.5t23.5 -57.5t-23.5 -57.5t-58.5 -23.5zM278 119v-119h-216v720h130v-601h86zM358 -83v593h130v-712h-216v119h86z" />
    <glyph glyph-name="uni01CA" unicode="&#x1ca;" horiz-adv-x="1194" 
d="M524 237v453h138v-690h-140l-314 453v-453h-138v690h140zM987 690h138v-690h-369v130h231v560z" />
    <glyph glyph-name="uni01CB" unicode="&#x1cb;" horiz-adv-x="991" 
d="M864 585q-35 0 -58.5 23.5t-23.5 57.5t23.5 57.5t58.5 23.5t58.5 -23.5t23.5 -57.5t-23.5 -57.5t-58.5 -23.5zM524 237v453h138v-690h-140l-314 453v-453h-138v690h140zM799 -83v593h130v-712h-216v119h86z" />
    <glyph glyph-name="uni01CC" unicode="&#x1cc;" horiz-adv-x="866" 
d="M739 585q-35 0 -58.5 23.5t-23.5 57.5t23.5 57.5t58.5 23.5t58.5 -23.5t23.5 -57.5t-23.5 -57.5t-58.5 -23.5zM354 522q90 0 144.5 -54t54.5 -144v-324h-130v282q0 52 -30.5 83t-80.5 31q-54 0 -87 -32t-33 -84v-280h-130v510h130v-63q60 75 162 75zM674 -83v593h130
v-712h-216v119h86z" />
    <glyph glyph-name="uni01CD" unicode="&#x1cd;" horiz-adv-x="716" 
d="M436 746h-157l-99 143h122l56 -73l55 73h122zM554 0l-49 134h-296l-49 -134h-149l266 690h163l265 -690h-151zM255 261h203l-101 277z" />
    <glyph glyph-name="uni01CE" unicode="&#x1ce;" horiz-adv-x="538" 
d="M342 566h-157l-99 143h122l56 -73l55 73h122zM468 118h59v-118h-174v52q-53 -64 -146 -64q-77 0 -129 48.5t-52 119.5q0 72 52 119.5t129 47.5h131v66h-276v121h406v-392zM237 92q45 0 73 20t28 52v59h-101q-33 0 -55 -18.5t-22 -46.5t22 -47t55 -19z" />
    <glyph glyph-name="Gcaron" unicode="&#x1e6;" horiz-adv-x="810" 
d="M478 746h-157l-99 143h122l56 -73l55 73h122zM408 388h349v-388h-121v88q-78 -100 -236 -100q-156 0 -260 102.5t-104 254.5t104 254.5t260 102.5q125 0 219.5 -67t121.5 -173h-154q-26 49 -75.5 78t-111.5 29q-95 0 -159 -64t-64 -160t64 -160t159 -64q74 0 130.5 39
t76.5 103h-199v125z" />
    <glyph glyph-name="gcaron" unicode="&#x1e7;" horiz-adv-x="639" 
d="M401 566h-157l-99 143h122l56 -73l55 73h122zM447 510h130v-700h-494v119h364v150q-65 -76 -165 -76q-106 0 -177.5 74.5t-71.5 185.5q0 110 71.5 184.5t177.5 74.5q100 0 165 -76v64zM307 121q61 0 100.5 40.5t39.5 101.5q0 60 -40 100.5t-100 40.5t-100 -40.5
t-40 -100.5q0 -61 40 -101.5t100 -40.5z" />
    <glyph glyph-name="uni01EA" unicode="&#x1ea;" horiz-adv-x="799" 
d="M516 5q-86 -42 -86 -92q0 -21 14.5 -33t33.5 -12q34 0 63 24v-92q-38 -25 -91 -25t-88 31.5t-35 78.5q0 61 57 103q-150 6 -249 107.5t-99 249.5q0 152 104 254.5t260 102.5q155 0 259.5 -102.5t104.5 -254.5q0 -121 -68 -213t-180 -127zM177 345q0 -96 64 -160t159 -64
t158.5 64t63.5 160t-63.5 160t-158.5 64t-159 -64t-64 -160z" />
    <glyph glyph-name="uni01EB" unicode="&#x1eb;" horiz-adv-x="610" 
d="M400 3q-82 -40 -82 -90q0 -21 14.5 -33t33.5 -12q34 0 63 24v-92q-37 -25 -91 -25q-53 0 -88 31.5t-35 78.5q0 60 58 105q-105 11 -173.5 85t-68.5 180q0 114 78.5 190.5t195.5 76.5t195.5 -76.5t78.5 -190.5q0 -88 -49 -156t-130 -96zM165 255q0 -60 40 -100.5
t100 -40.5t100 40.5t40 100.5t-40 100.5t-100 40.5t-100 -40.5t-40 -100.5z" />
    <glyph glyph-name="uni01F1" unicode="&#x1f1;" horiz-adv-x="1308" 
d="M340 690q151 0 251.5 -98.5t100.5 -246.5t-100.5 -246.5t-251.5 -98.5h-270v690h270zM919 130h353v-130h-542v99l346 461h-342v130h531v-99zM337 130q91 0 152 61.5t61 153.5t-61 153.5t-152 61.5h-129v-430h129z" />
    <glyph glyph-name="uni01F2" unicode="&#x1f2;" horiz-adv-x="1225" 
d="M340 690q151 0 251.5 -98.5t100.5 -246.5t-100.5 -246.5t-251.5 -98.5h-270v690h270zM337 130q91 0 152 61.5t61 153.5t-61 153.5t-152 61.5h-129v-430h129zM948 126h239v-126h-421v95l232 289h-228v126h410v-95z" />
    <glyph glyph-name="uni01F3" unicode="&#x1f3;" horiz-adv-x="1137" 
d="M448 443v277h130v-720h-130v67q-64 -79 -166 -79q-106 0 -177.5 76.5t-71.5 190.5t71.5 190.5t177.5 76.5q102 0 166 -79zM860 126h239v-126h-421v95l232 289h-228v126h410v-95zM307 114q61 0 101 40.5t40 100.5t-40 100.5t-101 40.5q-60 0 -100 -40.5t-40 -100.5
t40 -100.5t100 -40.5z" />
    <glyph glyph-name="uni01F4" unicode="&#x1f4;" horiz-adv-x="810" 
d="M589 889l-128 -143h-137l101 143h164zM408 388h349v-388h-121v88q-78 -100 -236 -100q-156 0 -260 102.5t-104 254.5t104 254.5t260 102.5q125 0 219.5 -67t121.5 -173h-154q-26 49 -75.5 78t-111.5 29q-95 0 -159 -64t-64 -160t64 -160t159 -64q74 0 130.5 39t76.5 103
h-199v125z" />
    <glyph glyph-name="uni01F5" unicode="&#x1f5;" horiz-adv-x="639" 
d="M512 709l-128 -143h-137l101 143h164zM447 510h130v-700h-494v119h364v150q-65 -76 -165 -76q-106 0 -177.5 74.5t-71.5 185.5q0 110 71.5 184.5t177.5 74.5q100 0 165 -76v64zM307 121q61 0 100.5 40.5t39.5 101.5q0 60 -40 100.5t-100 40.5t-100 -40.5t-40 -100.5
q0 -61 40 -101.5t100 -40.5z" />
    <glyph glyph-name="AEacute" unicode="&#x1fc;" horiz-adv-x="875" 
d="M702 889l-128 -143h-137l101 143h164zM578 130h260v-130h-398v131h-239l-76 -131h-157l402 690h463v-130h-255v-148h223v-130h-223v-152zM274 258h166v287z" />
    <glyph glyph-name="aeacute" unicode="&#x1fd;" horiz-adv-x="909" 
d="M629 709l-128 -143h-137l101 143h164zM880 255q0 -27 -3 -45h-406q13 -49 49.5 -78t87.5 -29q41 0 74.5 17t48.5 44h139q-28 -79 -99 -127.5t-163 -48.5q-115 0 -193 76q-66 -76 -194 -76q-92 0 -143.5 45t-51.5 116q0 67 48 111.5t121 44.5h143v84h-276v121h383v-39
q72 51 163 51q116 0 194 -77t78 -190zM606 408q-48 0 -83.5 -28t-49.5 -75h268q-13 46 -50 74.5t-85 28.5zM243 92q37 0 69.5 14t48.5 38q-14 33 -20 66h-116q-28 0 -46.5 -16.5t-18.5 -41.5q0 -27 21 -43.5t62 -16.5z" />
    <glyph glyph-name="Oslashacute" unicode="&#x1fe;" horiz-adv-x="799" 
d="M607 889l-128 -143h-137l101 143h164zM668 591q96 -102 96 -246q0 -152 -104.5 -254.5t-259.5 -102.5q-113 0 -202 56l-38 -44h-115l86 100q-95 100 -95 245q0 152 104 254.5t260 102.5q112 0 201 -56l38 44h115zM177 345q0 -78 45 -139l289 335q-51 28 -111 28
q-95 0 -159 -64t-64 -160zM400 121q95 0 158.5 64t63.5 160q0 78 -45 139l-289 -335q51 -28 112 -28z" />
    <glyph glyph-name="oslashacute" unicode="&#x1ff;" horiz-adv-x="610" 
d="M505 709l-128 -143h-137l101 143h164zM511 435q68 -74 68 -180q0 -114 -78.5 -190.5t-195.5 -76.5q-85 0 -153 43l-27 -31h-93l67 75q-68 74 -68 180q0 114 78.5 190.5t195.5 76.5q85 0 153 -43l27 31h93zM165 255q0 -45 23 -79l182 205q-29 15 -65 15q-60 0 -100 -40.5
t-40 -100.5zM305 114q60 0 100 40.5t40 100.5q0 45 -23 80l-182 -206q29 -15 65 -15z" />
    <glyph glyph-name="uni0200" unicode="&#x200;" horiz-adv-x="716" 
d="M316 746h-126l-101 143h142zM532 746h-126l-101 143h142zM554 0l-49 134h-296l-49 -134h-149l266 690h163l265 -690h-151zM255 261h203l-101 277z" />
    <glyph glyph-name="uni0201" unicode="&#x201;" horiz-adv-x="538" 
d="M222 566h-126l-101 143h142zM438 566h-126l-101 143h142zM468 118h59v-118h-174v52q-53 -64 -146 -64q-77 0 -129 48.5t-52 119.5q0 72 52 119.5t129 47.5h131v66h-276v121h406v-392zM237 92q45 0 73 20t28 52v59h-101q-33 0 -55 -18.5t-22 -46.5t22 -47t55 -19z" />
    <glyph glyph-name="uni0202" unicode="&#x202;" horiz-adv-x="716" 
d="M358 801q-25 0 -41 -16.5t-16 -41.5h-101q0 65 45.5 108t112.5 43t112 -43t45 -108h-100q0 25 -16.5 41.5t-40.5 16.5zM554 0l-49 134h-296l-49 -134h-149l266 690h163l265 -690h-151zM255 261h203l-101 277z" />
    <glyph glyph-name="uni0203" unicode="&#x203;" horiz-adv-x="538" 
d="M264 621q-25 0 -41 -16.5t-16 -41.5h-101q0 65 45.5 108t112.5 43t112 -43t45 -108h-100q0 25 -16.5 41.5t-40.5 16.5zM468 118h59v-118h-174v52q-53 -64 -146 -64q-77 0 -129 48.5t-52 119.5q0 72 52 119.5t129 47.5h131v66h-276v121h406v-392zM237 92q45 0 73 20t28 52
v59h-101q-33 0 -55 -18.5t-22 -46.5t22 -47t55 -19z" />
    <glyph glyph-name="uni0204" unicode="&#x204;" horiz-adv-x="505" 
d="M225 746h-126l-101 143h142zM441 746h-126l-101 143h142zM208 130h261v-130h-399v690h394v-130h-256v-148h223v-130h-223v-152z" />
    <glyph glyph-name="uni0205" unicode="&#x205;" horiz-adv-x="608" 
d="M263 566h-126l-101 143h142zM479 566h-126l-101 143h142zM579 254q0 -28 -4 -44h-405q13 -49 49.5 -78t87.5 -29q41 0 74.5 17t48.5 44h139q-28 -79 -99.5 -127.5t-164.5 -48.5q-117 0 -195.5 76.5t-78.5 190.5t78.5 190.5t195.5 76.5t195.5 -76.5t78.5 -191.5zM305 408
q-48 0 -84 -28t-49 -75h267q-13 47 -49.5 75t-84.5 28z" />
    <glyph glyph-name="uni0206" unicode="&#x206;" horiz-adv-x="505" 
d="M267 801q-25 0 -41 -16.5t-16 -41.5h-101q0 65 45.5 108t112.5 43t112 -43t45 -108h-100q0 25 -16.5 41.5t-40.5 16.5zM208 130h261v-130h-399v690h394v-130h-256v-148h223v-130h-223v-152z" />
    <glyph glyph-name="uni0207" unicode="&#x207;" horiz-adv-x="608" 
d="M305 621q-25 0 -41 -16.5t-16 -41.5h-101q0 65 45.5 108t112.5 43t112 -43t45 -108h-100q0 25 -16.5 41.5t-40.5 16.5zM579 254q0 -28 -4 -44h-405q13 -49 49.5 -78t87.5 -29q41 0 74.5 17t48.5 44h139q-28 -79 -99.5 -127.5t-164.5 -48.5q-117 0 -195.5 76.5
t-78.5 190.5t78.5 190.5t195.5 76.5t195.5 -76.5t78.5 -191.5zM305 408q-48 0 -84 -28t-49 -75h267q-13 47 -49.5 75t-84.5 28z" />
    <glyph glyph-name="uni0208" unicode="&#x208;" horiz-adv-x="381" 
d="M65 889l85 -143h-126l-101 143h142zM366 746h-126l-101 143h142zM35 560v130h311v-130h-86v-430h86v-130h-311v130h87v430h-87z" />
    <glyph glyph-name="uni0209" unicode="&#x209;" horiz-adv-x="254" 
d="M-40 566l-101 143h142l85 -143h-126zM176 566l-101 143h142l85 -143h-126zM62 0v510h130v-510h-130z" />
    <glyph glyph-name="uni020A" unicode="&#x20a;" horiz-adv-x="381" 
d="M191 801q-25 0 -41 -16.5t-16 -41.5h-101q0 65 45.5 108t112.5 43t112 -43t45 -108h-100q0 25 -16.5 41.5t-40.5 16.5zM35 560v130h311v-130h-86v-430h86v-130h-311v130h87v430h-87z" />
    <glyph glyph-name="uni020B" unicode="&#x20b;" horiz-adv-x="254" 
d="M-31 563q0 65 45.5 108t112.5 43t112 -43t45 -108h-100q0 25 -16.5 41.5t-40.5 16.5q-25 0 -41 -16.5t-16 -41.5h-101zM62 0v510h130v-510h-130z" />
    <glyph glyph-name="uni020C" unicode="&#x20c;" horiz-adv-x="799" 
d="M232 746l-101 143h142l85 -143h-126zM448 746l-101 143h142l85 -143h-126zM400 -12q-156 0 -260 102.5t-104 254.5t104 254.5t260 102.5q155 0 259.5 -102.5t104.5 -254.5t-104.5 -254.5t-259.5 -102.5zM400 121q95 0 158.5 64t63.5 160t-63.5 160t-158.5 64t-159 -64
t-64 -160t64 -160t159 -64z" />
    <glyph glyph-name="uni020D" unicode="&#x20d;" horiz-adv-x="610" 
d="M138 566l-101 143h142l85 -143h-126zM354 566l-101 143h142l85 -143h-126zM305 -12q-117 0 -195.5 76.5t-78.5 190.5t78.5 190.5t195.5 76.5t195.5 -76.5t78.5 -190.5t-78.5 -190.5t-195.5 -76.5zM305 114q60 0 100 40.5t40 100.5t-40 100.5t-100 40.5t-100 -40.5
t-40 -100.5t40 -100.5t100 -40.5z" />
    <glyph glyph-name="uni020E" unicode="&#x20e;" horiz-adv-x="799" 
d="M242 743q0 65 45.5 108t112.5 43t112 -43t45 -108h-100q0 25 -16.5 41.5t-40.5 16.5q-25 0 -41 -16.5t-16 -41.5h-101zM400 -12q-156 0 -260 102.5t-104 254.5t104 254.5t260 102.5q155 0 259.5 -102.5t104.5 -254.5t-104.5 -254.5t-259.5 -102.5zM400 121q95 0 158.5 64
t63.5 160t-63.5 160t-158.5 64t-159 -64t-64 -160t64 -160t159 -64z" />
    <glyph glyph-name="uni020F" unicode="&#x20f;" horiz-adv-x="610" 
d="M148 563q0 65 45.5 108t112.5 43t112 -43t45 -108h-100q0 25 -16.5 41.5t-40.5 16.5q-25 0 -41 -16.5t-16 -41.5h-101zM305 -12q-117 0 -195.5 76.5t-78.5 190.5t78.5 190.5t195.5 76.5t195.5 -76.5t78.5 -190.5t-78.5 -190.5t-195.5 -76.5zM305 114q60 0 100 40.5
t40 100.5t-40 100.5t-100 40.5t-100 -40.5t-40 -100.5t40 -100.5t100 -40.5z" />
    <glyph glyph-name="uni0210" unicode="&#x210;" 
d="M245 746h-126l-101 143h142zM461 746h-126l-101 143h142zM396 0l-132 246h-56v-246h-138v690h241q100 0 167 -64.5t67 -161.5q0 -68 -36.5 -121.5t-98.5 -78.5l152 -264h-166zM208 560v-194h100q40 0 67.5 28t27.5 69t-27.5 69t-67.5 28h-100z" />
    <glyph glyph-name="uni0211" unicode="&#x211;" horiz-adv-x="362" 
d="M75 709l85 -143h-126l-101 143h142zM376 566h-126l-101 143h142zM192 435q59 83 149 83v-134q-71 0 -110 -38t-39 -103v-243h-130v510h130v-75z" />
    <glyph glyph-name="uni0212" unicode="&#x212;" 
d="M287 801q-25 0 -41 -16.5t-16 -41.5h-101q0 65 45.5 108t112.5 43t112 -43t45 -108h-100q0 25 -16.5 41.5t-40.5 16.5zM396 0l-132 246h-56v-246h-138v690h241q100 0 167 -64.5t67 -161.5q0 -68 -36.5 -121.5t-98.5 -78.5l152 -264h-166zM208 560v-194h100q40 0 67.5 28
t27.5 69t-27.5 69t-67.5 28h-100z" />
    <glyph glyph-name="uni0213" unicode="&#x213;" horiz-adv-x="362" 
d="M201 621q-25 0 -41 -16.5t-16 -41.5h-101q0 65 45.5 108t112.5 43t112 -43t45 -108h-100q0 25 -16.5 41.5t-40.5 16.5zM192 435q59 83 149 83v-134q-71 0 -110 -38t-39 -103v-243h-130v510h130v-75z" />
    <glyph glyph-name="uni0214" unicode="&#x214;" horiz-adv-x="686" 
d="M175 746l-101 143h142l85 -143h-126zM391 746l-101 143h142l85 -143h-126zM343 -12q-122 0 -204 80t-82 199v423h138v-421q0 -63 42 -105.5t106 -42.5t106 42.5t42 105.5v421h138v-423q0 -119 -82 -199t-204 -80z" />
    <glyph glyph-name="uni0215" unicode="&#x215;" horiz-adv-x="593" 
d="M251 566h-126l-101 143h142zM467 566h-126l-101 143h142zM401 510h130v-510h-130v62q-59 -74 -155 -74q-86 0 -139 53.5t-53 141.5v327h130v-289q0 -49 29 -78t76 -29q50 0 81 30t31 79v287z" />
    <glyph glyph-name="uni0216" unicode="&#x216;" horiz-adv-x="686" 
d="M185 743q0 65 45.5 108t112.5 43t112 -43t45 -108h-100q0 25 -16.5 41.5t-40.5 16.5q-25 0 -41 -16.5t-16 -41.5h-101zM343 -12q-122 0 -204 80t-82 199v423h138v-421q0 -63 42 -105.5t106 -42.5t106 42.5t42 105.5v421h138v-423q0 -119 -82 -199t-204 -80z" />
    <glyph glyph-name="uni0217" unicode="&#x217;" horiz-adv-x="593" 
d="M293 621q-25 0 -41 -16.5t-16 -41.5h-101q0 65 45.5 108t112.5 43t112 -43t45 -108h-100q0 25 -16.5 41.5t-40.5 16.5zM401 510h130v-510h-130v62q-59 -74 -155 -74q-86 0 -139 53.5t-53 141.5v327h130v-289q0 -49 29 -78t76 -29q50 0 81 30t31 79v287z" />
    <glyph glyph-name="uni0218" unicode="&#x218;" horiz-adv-x="545" 
d="M273 -12q-102 0 -170.5 62t-68.5 154h142q0 -39 28.5 -66t70.5 -27q40 0 67 22.5t27 55.5q0 67 -130 99q-195 51 -195 213q0 86 65 143.5t162 57.5q98 0 164 -59.5t66 -147.5h-142q0 36 -25 60t-63 24q-36 0 -60.5 -20.5t-24.5 -51.5q0 -66 120 -97q94 -24 149.5 -73
t55.5 -140q0 -89 -68.5 -149t-169.5 -60zM179 -225l41 170h134l-68 -170h-107z" />
    <glyph glyph-name="uni0219" unicode="&#x219;" horiz-adv-x="441" 
d="M221 -12q-82 0 -136.5 48t-54.5 117h131q0 -24 18 -41t43 -17q24 0 40.5 13.5t16.5 32.5q0 42 -85 64q-157 37 -157 160q0 73 53 115t130 42q78 0 131 -45.5t53 -111.5h-131q0 21 -15.5 35.5t-38.5 14.5q-21 0 -36 -12.5t-15 -29.5q0 -42 89 -64q154 -39 154 -157
q0 -76 -54.5 -120t-135.5 -44zM126 -225l41 170h134l-68 -170h-107z" />
    <glyph glyph-name="uni021A" unicode="&#x21a;" horiz-adv-x="546" 
d="M26 690h494v-130h-178v-560h-138v560h-178v130zM180 -225l41 170h134l-68 -170h-107z" />
    <glyph glyph-name="uni021B" unicode="&#x21b;" horiz-adv-x="406" 
d="M373 391h-126v-272h126v-119h-256v391h-92v119h92v150h130v-150h126v-119zM144 -225l41 170h134l-68 -170h-107z" />
    <glyph glyph-name="uni0232" unicode="&#x232;" horiz-adv-x="677" 
d="M471 866v-109h-264v109h264zM522 690h155l-270 -448v-242h-137v242l-270 448h158l182 -308z" />
    <glyph glyph-name="uni0233" unicode="&#x233;" horiz-adv-x="569" 
d="M419 686v-109h-264v109h264zM418 510h146l-291 -700h-191v119h100l33 77l-209 504h148l132 -347z" />
    <glyph glyph-name="uni0237" unicode="&#x237;" horiz-adv-x="259" 
d="M67 510h130v-712h-216v119h86v593z" />
    <glyph glyph-name="uni02BC" unicode="&#x2bc;" horiz-adv-x="139" 
d="M0 498l21 222h118l-41 -222h-98z" />
    <glyph glyph-name="circumflex" unicode="&#x2c6;" horiz-adv-x="355" 
d="M355 566h-122l-55 73l-56 -73h-122l99 143h157z" />
    <glyph glyph-name="caron" unicode="&#x2c7;" horiz-adv-x="355" 
d="M233 709h122l-99 -143h-157l-99 143h122l56 -73z" />
    <glyph glyph-name="breve" unicode="&#x2d8;" horiz-adv-x="315" 
d="M158 556q-67 0 -112.5 43t-45.5 108h101q0 -25 16 -41.5t41 -16.5q24 0 40.5 16.5t16.5 41.5h100q0 -65 -45 -108t-112 -43z" />
    <glyph glyph-name="dotaccent" unicode="&#x2d9;" horiz-adv-x="155" 
d="M77 565q-33 0 -55 21.5t-22 54.5t22 55t55 22t55.5 -22t22.5 -55t-22.5 -54.5t-55.5 -21.5z" />
    <glyph glyph-name="ring" unicode="&#x2da;" horiz-adv-x="205" 
d="M103 554q-44 0 -73.5 28.5t-29.5 71.5t29.5 71.5t73.5 28.5t73 -28.5t29 -71.5t-29 -71.5t-73 -28.5zM103 619q14 0 24 10t10 25t-10 25t-24 10q-15 0 -24.5 -10t-9.5 -25t9.5 -25t24.5 -10z" />
    <glyph glyph-name="ogonek" unicode="&#x2db;" horiz-adv-x="219" 
d="M123 -239q-53 0 -88 31.5t-35 78.5q0 42 30 77.5t78 54.5h98l2 -3q-105 -46 -105 -101q0 -21 14.5 -33t33.5 -12q34 0 63 24v-92q-38 -25 -91 -25z" />
    <glyph glyph-name="tilde" unicode="&#x2dc;" horiz-adv-x="358" 
d="M245 572q-32 0 -66.5 20.5t-48.5 20.5q-17 0 -27.5 -11t-10.5 -27h-92q0 62 30 102t84 40q31 0 65.5 -21.5t48.5 -21.5q16 0 27.5 11.5t11.5 28.5h91q0 -63 -29.5 -102.5t-83.5 -39.5z" />
    <glyph glyph-name="hungarumlaut" unicode="&#x2dd;" horiz-adv-x="443" 
d="M0 566l85 143h142l-102 -143h-125zM216 566l85 143h142l-102 -143h-125z" />
    <glyph glyph-name="gravecomb" unicode="&#x300;" horiz-adv-x="0" 
d="M-137 566l-128 143h164l101 -143h-137z" />
    <glyph glyph-name="acutecomb" unicode="&#x301;" horiz-adv-x="0" 
d="M-265 566l101 143h164l-128 -143h-137z" />
    <glyph glyph-name="uni0302" unicode="&#x302;" horiz-adv-x="0" 
d="M0 566h-122l-55 73l-56 -73h-122l99 143h157z" />
    <glyph glyph-name="tildecomb" unicode="&#x303;" horiz-adv-x="0" 
d="M-113 572q-32 0 -66.5 20.5t-48.5 20.5q-17 0 -27.5 -11t-10.5 -27h-92q0 62 30 102t84 40q31 0 65.5 -21.5t48.5 -21.5q16 0 27.5 11.5t11.5 28.5h91q0 -63 -29.5 -102.5t-83.5 -39.5z" />
    <glyph glyph-name="uni0304" unicode="&#x304;" horiz-adv-x="0" 
d="M-264 577v109h264v-109h-264z" />
    <glyph glyph-name="uni0306" unicode="&#x306;" horiz-adv-x="0" 
d="M-157 556q-67 0 -112.5 43t-45.5 108h101q0 -25 16 -41.5t41 -16.5q24 0 40.5 16.5t16.5 41.5h100q0 -65 -45 -108t-112 -43z" />
    <glyph glyph-name="uni0307" unicode="&#x307;" horiz-adv-x="0" 
d="M-78 565q-33 0 -55 21.5t-22 54.5t22 55t55 22t55.5 -22t22.5 -55t-22.5 -54.5t-55.5 -21.5z" />
    <glyph glyph-name="uni0308" unicode="&#x308;" horiz-adv-x="0" 
d="M-289 565q-32 0 -53 21t-21 52t21.5 52t52.5 21t52.5 -21t21.5 -52t-21 -52t-53 -21zM-73 565q-32 0 -53 21t-21 52t21.5 52t52.5 21t52 -21t21 -52t-21 -52t-52 -21z" />
    <glyph glyph-name="uni030A" unicode="&#x30a;" horiz-adv-x="0" 
d="M-102 554q-44 0 -73.5 28.5t-29.5 71.5t29.5 71.5t73.5 28.5t73 -28.5t29 -71.5t-29 -71.5t-73 -28.5zM-102 619q14 0 24 10t10 25t-10 25t-24 10q-15 0 -24.5 -10t-9.5 -25t9.5 -25t24.5 -10z" />
    <glyph glyph-name="uni030B" unicode="&#x30b;" horiz-adv-x="0" 
d="M-443 566l85 143h142l-102 -143h-125zM-227 566l85 143h142l-102 -143h-125z" />
    <glyph glyph-name="uni030C" unicode="&#x30c;" horiz-adv-x="0" 
d="M-122 709h122l-99 -143h-157l-99 143h122l56 -73z" />
    <glyph glyph-name="uni030F" unicode="&#x30f;" horiz-adv-x="0" 
d="M-342 566l-101 143h142l85 -143h-126zM-126 566l-101 143h142l85 -143h-126z" />
    <glyph glyph-name="uni0311" unicode="&#x311;" horiz-adv-x="0" 
d="M-315 563q0 65 45.5 108t112.5 43t112 -43t45 -108h-100q0 25 -16.5 41.5t-40.5 16.5q-25 0 -41 -16.5t-16 -41.5h-101z" />
    <glyph glyph-name="uni0312" unicode="&#x312;" horiz-adv-x="0" 
d="M-175 563l68 170h107l-41 -170h-134z" />
    <glyph glyph-name="dotbelowcomb" unicode="&#x323;" horiz-adv-x="0" 
d="M-78 -208q-33 0 -55 22t-22 55t22 54.5t55 21.5t55.5 -21.5t22.5 -54.5t-22.5 -55t-55.5 -22z" />
    <glyph glyph-name="uni0326" unicode="&#x326;" horiz-adv-x="0" 
d="M-175 -225l41 170h134l-68 -170h-107z" />
    <glyph glyph-name="uni0327" unicode="&#x327;" horiz-adv-x="0" 
d="M-95 -29q41 -3 68 -33t27 -72q0 -47 -34 -78.5t-84 -31.5q-51 0 -85 31.5t-34 78.5h78q0 -16 12 -27.5t29 -11.5t28.5 11.5t11.5 27.5t-12 27.5t-28 11.5q-19 0 -31 -14l-72 33l60 76v2h91v-2z" />
    <glyph glyph-name="uni0328" unicode="&#x328;" horiz-adv-x="0" 
d="M-91 -239q-53 0 -88 31.5t-35 78.5q0 42 30 77.5t78 54.5h98l2 -3q-105 -46 -105 -101q0 -21 14.5 -33t33.5 -12q34 0 63 24v-92q-38 -25 -91 -25z" />
    <glyph glyph-name="uni0335" unicode="&#x335;" horiz-adv-x="0" 
d="M-306 228v93h306v-93h-306z" />
    <glyph glyph-name="uni0336" unicode="&#x336;" horiz-adv-x="0" 
d="M-692 226v95h692v-95h-692z" />
    <glyph glyph-name="uni0337" unicode="&#x337;" horiz-adv-x="0" 
d="M-546 0l453 510h93l-453 -510h-93z" />
    <glyph glyph-name="uni0338" unicode="&#x338;" horiz-adv-x="0" 
d="M-709 0l594 690h115l-594 -690h-115z" />
    <glyph glyph-name="uni1E0C" unicode="&#x1e0c;" horiz-adv-x="728" 
d="M340 690q151 0 251.5 -98.5t100.5 -246.5t-100.5 -246.5t-251.5 -98.5h-270v690h270zM337 130q91 0 152 61.5t61 153.5t-61 153.5t-152 61.5h-129v-430h129zM356 -55q33 0 55.5 -21.5t22.5 -54.5t-22.5 -55t-55.5 -22t-55 22t-22 55t22 54.5t55 21.5z" />
    <glyph glyph-name="uni1E0D" unicode="&#x1e0d;" horiz-adv-x="640" 
d="M448 720h130v-720h-130v67q-64 -79 -166 -79q-106 0 -177.5 76.5t-71.5 190.5t71.5 190.5t177.5 76.5q102 0 166 -79v277zM307 114q61 0 101 40.5t40 100.5t-40 100.5t-101 40.5q-60 0 -100 -40.5t-40 -100.5t40 -100.5t100 -40.5zM317 -55q33 0 55.5 -21.5t22.5 -54.5
t-22.5 -55t-55.5 -22t-55 22t-22 55t22 54.5t55 21.5z" />
    <glyph glyph-name="uni1E24" unicode="&#x1e24;" horiz-adv-x="722" 
d="M514 690h138v-690h-138v282h-306v-282h-138v690h138v-278h306v278zM361 -55q33 0 55.5 -21.5t22.5 -54.5t-22.5 -55t-55.5 -22t-55 22t-22 55t22 54.5t55 21.5z" />
    <glyph glyph-name="uni1E25" unicode="&#x1e25;" horiz-adv-x="607" 
d="M354 522q90 0 144.5 -54t54.5 -144v-324h-130v282q0 52 -30.5 83t-80.5 31q-54 0 -87 -32t-33 -84v-280h-130v720h130v-277q59 79 162 79zM307 -55q33 0 55.5 -21.5t22.5 -54.5t-22.5 -55t-55.5 -22t-55 22t-22 55t22 54.5t55 21.5z" />
    <glyph glyph-name="uni1E44" unicode="&#x1e44;" horiz-adv-x="732" 
d="M369 745q-33 0 -55 21.5t-22 54.5t22 55t55 22t55.5 -22t22.5 -55t-22.5 -54.5t-55.5 -21.5zM524 690h138v-690h-140l-314 453v-453h-138v690h140l314 -453v453z" />
    <glyph glyph-name="uni1E45" unicode="&#x1e45;" horiz-adv-x="607" 
d="M308 565q-33 0 -55 21.5t-22 54.5t22 55t55 22t55.5 -22t22.5 -55t-22.5 -54.5t-55.5 -21.5zM354 522q90 0 144.5 -54t54.5 -144v-324h-130v282q0 52 -30.5 83t-80.5 31q-54 0 -87 -32t-33 -84v-280h-130v510h130v-63q60 75 162 75z" />
    <glyph glyph-name="uni1E5A" unicode="&#x1e5a;" 
d="M410 264l152 -264h-166l-132 246h-56v-246h-138v690h241q100 0 167 -64.5t67 -161.5q0 -68 -36.5 -121.5t-98.5 -78.5zM208 560v-194h100q40 0 67.5 28t27.5 69t-27.5 69t-67.5 28h-100zM297 -55q33 0 55.5 -21.5t22.5 -54.5t-22.5 -55t-55.5 -22t-55 22t-22 55t22 54.5
t55 21.5z" />
    <glyph glyph-name="uni1E5B" unicode="&#x1e5b;" horiz-adv-x="362" 
d="M192 435q59 83 149 83v-134q-71 0 -110 -38t-39 -103v-243h-130v510h130v-75zM127 -55q33 0 55.5 -21.5t22.5 -54.5t-22.5 -55t-55.5 -22t-55 22t-22 55t22 54.5t55 21.5z" />
    <glyph glyph-name="uni1E62" unicode="&#x1e62;" horiz-adv-x="545" 
d="M273 -12q-102 0 -170.5 62t-68.5 154h142q0 -39 28.5 -66t70.5 -27q40 0 67 22.5t27 55.5q0 67 -130 99q-195 51 -195 213q0 86 65 143.5t162 57.5q98 0 164 -59.5t66 -147.5h-142q0 36 -25 60t-63 24q-36 0 -60.5 -20.5t-24.5 -51.5q0 -66 120 -97q94 -24 149.5 -73
t55.5 -140q0 -89 -68.5 -149t-169.5 -60zM272 -208q-33 0 -55 22t-22 55t22 54.5t55 21.5t55.5 -21.5t22.5 -54.5t-22.5 -55t-55.5 -22z" />
    <glyph glyph-name="uni1E63" unicode="&#x1e63;" horiz-adv-x="441" 
d="M221 -12q-82 0 -136.5 48t-54.5 117h131q0 -24 18 -41t43 -17q24 0 40.5 13.5t16.5 32.5q0 42 -85 64q-157 37 -157 160q0 73 53 115t130 42q78 0 131 -45.5t53 -111.5h-131q0 21 -15.5 35.5t-38.5 14.5q-21 0 -36 -12.5t-15 -29.5q0 -42 89 -64q154 -39 154 -157
q0 -76 -54.5 -120t-135.5 -44zM220 -208q-33 0 -55 22t-22 55t22 54.5t55 21.5t55.5 -21.5t22.5 -54.5t-22.5 -55t-55.5 -22z" />
    <glyph glyph-name="uni1E6C" unicode="&#x1e6c;" horiz-adv-x="546" 
d="M26 690h494v-130h-178v-560h-138v560h-178v130zM273 -55q33 0 55.5 -21.5t22.5 -54.5t-22.5 -55t-55.5 -22t-55 22t-22 55t22 54.5t55 21.5z" />
    <glyph glyph-name="uni1E6D" unicode="&#x1e6d;" horiz-adv-x="406" 
d="M373 391h-126v-272h126v-119h-256v391h-92v119h92v150h130v-150h126v-119zM238 -55q33 0 55.5 -21.5t22.5 -54.5t-22.5 -55t-55.5 -22t-55 22t-22 55t22 54.5t55 21.5z" />
    <glyph glyph-name="Wgrave" unicode="&#x1e80;" horiz-adv-x="1115" 
d="M633 746h-137l-128 143h164zM952 690h150l-246 -690h-139l-159 483l-160 -483h-139l-245 690h152l165 -504l165 504h126l167 -504z" />
    <glyph glyph-name="wgrave" unicode="&#x1e81;" horiz-adv-x="882" 
d="M519 566h-137l-128 143h164zM729 510h145l-186 -510h-134l-113 354l-113 -354h-134l-186 510h149l107 -345l112 345h133l113 -346z" />
    <glyph glyph-name="Wacute" unicode="&#x1e82;" horiz-adv-x="1115" 
d="M747 889l-128 -143h-137l101 143h164zM952 690h150l-246 -690h-139l-159 483l-160 -483h-139l-245 690h152l165 -504l165 504h126l167 -504z" />
    <glyph glyph-name="wacute" unicode="&#x1e83;" horiz-adv-x="882" 
d="M633 709l-128 -143h-137l101 143h164zM729 510h145l-186 -510h-134l-113 354l-113 -354h-134l-186 510h149l107 -345l112 345h133l113 -346z" />
    <glyph glyph-name="Wdieresis" unicode="&#x1e84;" horiz-adv-x="1115" 
d="M450 745q-32 0 -53 21t-21 52t21.5 52t52.5 21t52.5 -21t21.5 -52t-21 -52t-53 -21zM666 745q-32 0 -53 21t-21 52t21.5 52t52.5 21t52 -21t21 -52t-21 -52t-52 -21zM952 690h150l-246 -690h-139l-159 483l-160 -483h-139l-245 690h152l165 -504l165 504h126l167 -504z
" />
    <glyph glyph-name="wdieresis" unicode="&#x1e85;" horiz-adv-x="882" 
d="M336 565q-32 0 -53 21t-21 52t21.5 52t52.5 21t52.5 -21t21.5 -52t-21 -52t-53 -21zM552 565q-32 0 -53 21t-21 52t21.5 52t52.5 21t52 -21t21 -52t-21 -52t-52 -21zM729 510h145l-186 -510h-134l-113 354l-113 -354h-134l-186 510h149l107 -345l112 345h133l113 -346z
" />
    <glyph glyph-name="uni1E92" unicode="&#x1e92;" horiz-adv-x="614" 
d="M225 130h353v-130h-542v99l346 461h-342v130h531v-99zM306 -55q33 0 55.5 -21.5t22.5 -54.5t-22.5 -55t-55.5 -22t-55 22t-22 55t22 54.5t55 21.5z" />
    <glyph glyph-name="uni1E93" unicode="&#x1e93;" horiz-adv-x="497" 
d="M220 126h239v-126h-421v95l232 289h-228v126h410v-95zM248 -55q33 0 55.5 -21.5t22.5 -54.5t-22.5 -55t-55.5 -22t-55 22t-22 55t22 54.5t55 21.5z" />
    <glyph glyph-name="uni1E9E" unicode="&#x1e9e;" horiz-adv-x="631" 
d="M449 419q73 -19 119 -77.5t46 -135.5q0 -94 -64.5 -156t-160.5 -62q-69 0 -116 28v137q14 -13 41 -22.5t52 -9.5q46 0 76 26t30 66q0 37 -25.5 62.5t-64.5 25.5h-77v101l108 158h-205v-560h-138v690h495v-114z" />
    <glyph glyph-name="uni1EA0" unicode="&#x1ea0;" horiz-adv-x="716" 
d="M705 0h-151l-49 134h-296l-49 -134h-149l266 690h163zM255 261h203l-101 277zM357 -55q33 0 55.5 -21.5t22.5 -54.5t-22.5 -55t-55.5 -22t-55 22t-22 55t22 54.5t55 21.5z" />
    <glyph glyph-name="uni1EA1" unicode="&#x1ea1;" horiz-adv-x="538" 
d="M468 118h59v-118h-174v52q-53 -64 -146 -64q-77 0 -129 48.5t-52 119.5q0 72 52 119.5t129 47.5h131v66h-276v121h406v-392zM237 92q45 0 73 20t28 52v59h-101q-33 0 -55 -18.5t-22 -46.5t22 -47t55 -19zM264 -55q33 0 55.5 -21.5t22.5 -54.5t-22.5 -55t-55.5 -22t-55 22
t-22 55t22 54.5t55 21.5z" />
    <glyph glyph-name="uni1EB8" unicode="&#x1eb8;" horiz-adv-x="505" 
d="M208 130h261v-130h-399v690h394v-130h-256v-148h223v-130h-223v-152zM266 -55q33 0 55.5 -21.5t22.5 -54.5t-22.5 -55t-55.5 -22t-55 22t-22 55t22 54.5t55 21.5z" />
    <glyph glyph-name="uni1EB9" unicode="&#x1eb9;" horiz-adv-x="608" 
d="M579 254q0 -28 -4 -44h-405q13 -49 49.5 -78t87.5 -29q41 0 74.5 17t48.5 44h139q-28 -79 -99.5 -127.5t-164.5 -48.5q-117 0 -195.5 76.5t-78.5 190.5t78.5 190.5t195.5 76.5t195.5 -76.5t78.5 -191.5zM305 408q-48 0 -84 -28t-49 -75h267q-13 47 -49.5 75t-84.5 28z
M305 -55q33 0 55.5 -21.5t22.5 -54.5t-22.5 -55t-55.5 -22t-55 22t-22 55t22 54.5t55 21.5z" />
    <glyph glyph-name="uni1EBC" unicode="&#x1ebc;" horiz-adv-x="505" 
d="M217 793q-17 0 -27.5 -11t-10.5 -27h-92q0 62 30 102t84 40q31 0 65.5 -21.5t48.5 -21.5q16 0 27.5 11.5t11.5 28.5h91q0 -63 -29.5 -102.5t-83.5 -39.5q-32 0 -66.5 20.5t-48.5 20.5zM208 130h261v-130h-399v690h394v-130h-256v-148h223v-130h-223v-152z" />
    <glyph glyph-name="uni1EBD" unicode="&#x1ebd;" horiz-adv-x="608" 
d="M255 613q-17 0 -27.5 -11t-10.5 -27h-92q0 62 30 102t84 40q31 0 65.5 -21.5t48.5 -21.5q16 0 27.5 11.5t11.5 28.5h91q0 -63 -29.5 -102.5t-83.5 -39.5q-32 0 -66.5 20.5t-48.5 20.5zM579 254q0 -28 -4 -44h-405q13 -49 49.5 -78t87.5 -29q41 0 74.5 17t48.5 44h139
q-28 -79 -99.5 -127.5t-164.5 -48.5q-117 0 -195.5 76.5t-78.5 190.5t78.5 190.5t195.5 76.5t195.5 -76.5t78.5 -191.5zM305 408q-48 0 -84 -28t-49 -75h267q-13 47 -49.5 75t-84.5 28z" />
    <glyph glyph-name="uni1ECA" unicode="&#x1eca;" horiz-adv-x="381" 
d="M346 560h-86v-430h86v-130h-311v130h87v430h-87v130h311v-130zM191 -55q33 0 55.5 -21.5t22.5 -54.5t-22.5 -55t-55.5 -22t-55 22t-22 55t22 54.5t55 21.5z" />
    <glyph glyph-name="uni1ECB" unicode="&#x1ecb;" horiz-adv-x="254" 
d="M127 585q-35 0 -58.5 23.5t-23.5 57.5t23.5 57.5t58.5 23.5t58.5 -23.5t23.5 -57.5t-23.5 -57.5t-58.5 -23.5zM62 0v510h130v-510h-130zM127 -208q-33 0 -55 22t-22 55t22 54.5t55 21.5t55.5 -21.5t22.5 -54.5t-22.5 -55t-55.5 -22z" />
    <glyph glyph-name="uni1ECC" unicode="&#x1ecc;" horiz-adv-x="799" 
d="M400 -12q-156 0 -260 102.5t-104 254.5t104 254.5t260 102.5q155 0 259.5 -102.5t104.5 -254.5t-104.5 -254.5t-259.5 -102.5zM400 121q95 0 158.5 64t63.5 160t-63.5 160t-158.5 64t-159 -64t-64 -160t64 -160t159 -64zM399 -208q-33 0 -55 22t-22 55t22 54.5t55 21.5
t55.5 -21.5t22.5 -54.5t-22.5 -55t-55.5 -22z" />
    <glyph glyph-name="uni1ECD" unicode="&#x1ecd;" horiz-adv-x="610" 
d="M305 -12q-117 0 -195.5 76.5t-78.5 190.5t78.5 190.5t195.5 76.5t195.5 -76.5t78.5 -190.5t-78.5 -190.5t-195.5 -76.5zM305 114q60 0 100 40.5t40 100.5t-40 100.5t-100 40.5t-100 -40.5t-40 -100.5t40 -100.5t100 -40.5zM305 -208q-33 0 -55 22t-22 55t22 54.5t55 21.5
t55.5 -21.5t22.5 -54.5t-22.5 -55t-55.5 -22z" />
    <glyph glyph-name="uni1EE4" unicode="&#x1ee4;" horiz-adv-x="686" 
d="M343 -12q-122 0 -204 80t-82 199v423h138v-421q0 -63 42 -105.5t106 -42.5t106 42.5t42 105.5v421h138v-423q0 -119 -82 -199t-204 -80zM343 -208q-33 0 -55 22t-22 55t22 54.5t55 21.5t55.5 -21.5t22.5 -54.5t-22.5 -55t-55.5 -22z" />
    <glyph glyph-name="uni1EE5" unicode="&#x1ee5;" horiz-adv-x="593" 
d="M401 510h130v-510h-130v62q-59 -74 -155 -74q-86 0 -139 53.5t-53 141.5v327h130v-289q0 -49 29 -78t76 -29q50 0 81 30t31 79v287zM292 -55q33 0 55.5 -21.5t22.5 -54.5t-22.5 -55t-55.5 -22t-55 22t-22 55t22 54.5t55 21.5z" />
    <glyph glyph-name="Ygrave" unicode="&#x1ef2;" horiz-adv-x="677" 
d="M415 746h-137l-128 143h164zM522 690h155l-270 -448v-242h-137v242l-270 448h158l182 -308z" />
    <glyph glyph-name="ygrave" unicode="&#x1ef3;" horiz-adv-x="569" 
d="M362 566h-137l-128 143h164zM418 510h146l-291 -700h-191v119h100l33 77l-209 504h148l132 -347z" />
    <glyph glyph-name="uni1EF8" unicode="&#x1ef8;" horiz-adv-x="677" 
d="M289 793q-17 0 -27.5 -11t-10.5 -27h-92q0 62 30 102t84 40q31 0 65.5 -21.5t48.5 -21.5q16 0 27.5 11.5t11.5 28.5h91q0 -63 -29.5 -102.5t-83.5 -39.5q-32 0 -66.5 20.5t-48.5 20.5zM522 690h155l-270 -448v-242h-137v242l-270 448h158l182 -308z" />
    <glyph glyph-name="uni1EF9" unicode="&#x1ef9;" horiz-adv-x="569" 
d="M237 613q-17 0 -27.5 -11t-10.5 -27h-92q0 62 30 102t84 40q31 0 65.5 -21.5t48.5 -21.5q16 0 27.5 11.5t11.5 28.5h91q0 -63 -29.5 -102.5t-83.5 -39.5q-32 0 -66.5 20.5t-48.5 20.5zM418 510h146l-291 -700h-191v119h100l33 77l-209 504h148l132 -347z" />
    <glyph glyph-name="endash" unicode="&#x2013;" horiz-adv-x="608" 
d="M58 215v117h492v-117h-492z" />
    <glyph glyph-name="emdash" unicode="&#x2014;" horiz-adv-x="1068" 
d="M58 215v117h952v-117h-952z" />
    <glyph glyph-name="quoteleft" unicode="&#x2018;" horiz-adv-x="275" 
d="M39 415l110 275h112l-70 -275h-152z" />
    <glyph glyph-name="quoteright" unicode="&#x2019;" horiz-adv-x="275" 
d="M39 415l70 275h152l-111 -275h-111z" />
    <glyph glyph-name="quotesinglbase" unicode="&#x201a;" horiz-adv-x="259" 
d="M5 -138l70 275h152l-110 -275h-112z" />
    <glyph glyph-name="quotedblleft" unicode="&#x201c;" horiz-adv-x="508" 
d="M39 415l110 275h112l-70 -275h-152zM271 415l111 275h112l-70 -275h-153z" />
    <glyph glyph-name="quotedblright" unicode="&#x201d;" horiz-adv-x="508" 
d="M39 415l70 275h152l-111 -275h-111zM271 415l71 275h152l-111 -275h-112z" />
    <glyph glyph-name="quotedblbase" unicode="&#x201e;" horiz-adv-x="492" 
d="M5 -138l70 275h152l-110 -275h-112zM238 -138l70 275h152l-110 -275h-112z" />
    <glyph glyph-name="dagger" unicode="&#x2020;" horiz-adv-x="494" 
d="M436 510v-117h-130v-583h-118v583h-130v117h130v180h118v-180h130z" />
    <glyph glyph-name="daggerdbl" unicode="&#x2021;" horiz-adv-x="494" 
d="M436 393h-130v-266h130v-117h-130v-200h-118v200h-130v117h130v266h-130v117h130v180h118v-180h130v-117z" />
    <glyph glyph-name="bullet" unicode="&#x2022;" horiz-adv-x="350" 
d="M175 158q-50 0 -83.5 33t-33.5 83t33.5 83t83.5 33t83.5 -33.5t33.5 -82.5t-33.5 -82.5t-83.5 -33.5z" />
    <glyph glyph-name="ellipsis" unicode="&#x2026;" horiz-adv-x="795" 
d="M128 -9q-39 0 -65 26t-26 64t26 64t65 26q38 0 64 -26t26 -64t-26 -64t-64 -26zM397 -9q-38 0 -64 26t-26 64t26 64t64 26q39 0 65 -26t26 -64t-26 -64t-65 -26zM667 -9q-39 0 -65 26t-26 64t26 64t65 26t65 -26t26 -64t-26 -64t-65 -26z" />
    <glyph glyph-name="perthousand" unicode="&#x2030;" horiz-adv-x="1242" 
d="M211 366q-73 0 -122 48.5t-49 120.5q0 71 49 119t122 48t122 -48t49 -119q0 -72 -49 -120.5t-122 -48.5zM111 0l500 690h139l-500 -690h-139zM211 471q27 0 45 18.5t18 45.5q0 26 -18 44t-45 18t-45 -18t-18 -44q0 -27 18 -45.5t45 -18.5zM650 -12q-73 0 -122 48.5
t-49 120.5q0 71 49 119t122 48t122 -48t49 -119q0 -72 -49 -120.5t-122 -48.5zM1031 -12q-73 0 -122 48.5t-49 120.5q0 71 49 119t122 48t122 -48t49 -119q0 -72 -49 -120.5t-122 -48.5zM650 93q27 0 45 18t18 46q0 26 -18 44t-45 18t-45 -18t-18 -44q0 -28 18 -46t45 -18z
M1031 93q27 0 45 18t18 46q0 26 -18 44t-45 18t-45 -18t-18 -44q0 -28 18 -46t45 -18z" />
    <glyph glyph-name="guilsinglleft" unicode="&#x2039;" horiz-adv-x="368" 
d="M337 468l-152 -204l152 -204h-152l-153 204l153 204h152z" />
    <glyph glyph-name="guilsinglright" unicode="&#x203a;" horiz-adv-x="368" 
d="M188 468l153 -204l-153 -204h-152l153 204l-153 204h152z" />
    <glyph glyph-name="fraction" unicode="&#x2044;" horiz-adv-x="196" 
d="M-198 0l473 690h120l-474 -690h-119z" />
    <glyph glyph-name="uni2070" unicode="&#x2070;" horiz-adv-x="395" 
d="M197 359q-72 0 -118 59.5t-46 154.5t46 154.5t118 59.5q73 0 119 -60t46 -154t-46 -154t-119 -60zM197 452q29 0 47 33t18 88t-18 88t-47 33t-47 -33t-18 -88t18 -88t47 -33z" />
    <glyph glyph-name="uni2074" unicode="&#x2074;" horiz-adv-x="370" 
d="M348 527v-87h-43v-74h-97v74h-188v71l165 269h120v-253h43zM121 527h87v149z" />
    <glyph glyph-name="uni2075" unicode="&#x2075;" horiz-adv-x="356" 
d="M195 634q60 0 101 -39.5t41 -97.5q0 -59 -43.5 -98.5t-108.5 -39.5q-64 0 -107 39.5t-43 97.5h98q0 -22 15 -36.5t37 -14.5q23 0 38 14.5t15 37.5t-15 38.5t-38 15.5q-29 0 -46 -22h-98l21 251h247v-87h-160l-6 -71q26 12 52 12z" />
    <glyph glyph-name="uni2076" unicode="&#x2076;" horiz-adv-x="348" 
d="M196 638q56 -4 93.5 -43t37.5 -95q0 -60 -43 -100.5t-107 -40.5t-107.5 40.5t-43.5 100.5q0 44 27 90l119 190h115zM177 449q22 0 36.5 15t14.5 36q0 22 -14.5 37t-36.5 15t-37 -15t-15 -37q0 -21 15 -36t37 -15z" />
    <glyph glyph-name="uni2077" unicode="&#x2077;" horiz-adv-x="331" 
d="M31 780h280v-75l-150 -339h-109l144 323h-165v91z" />
    <glyph glyph-name="uni2078" unicode="&#x2078;" horiz-adv-x="345" 
d="M265 580q55 -36 55 -96q0 -53 -42 -89t-105 -36q-64 0 -106 36t-42 89q0 60 55 96q-49 34 -49 88q0 50 40.5 84.5t101.5 34.5q60 0 100.5 -34.5t40.5 -84.5q0 -54 -49 -88zM173 694q-18 0 -30.5 -11.5t-12.5 -28.5t12.5 -28.5t30.5 -11.5t30.5 11.5t12.5 28.5t-12.5 28.5
t-30.5 11.5zM173 452q20 0 34 13t14 32t-14 32t-34 13t-34.5 -13t-14.5 -32t14 -32t35 -13z" />
    <glyph glyph-name="uni2079" unicode="&#x2079;" horiz-adv-x="349" 
d="M176 787q64 0 107.5 -40.5t43.5 -100.5q0 -45 -28 -90l-118 -190h-115l91 142q-57 4 -94.5 42.5t-37.5 95.5q0 60 43.5 100.5t107.5 40.5zM125 646q0 -22 14.5 -37t36.5 -15t37 15t15 37q0 21 -15 36t-37 15t-36.5 -15t-14.5 -36z" />
    <glyph glyph-name="franc" unicode="&#x20a3;" horiz-adv-x="507" 
d="M470 560h-241v-140h202v-130h-202v-82h123v-119h-123v-89h-138v89h-55v119h55v482h379v-130z" />
    <glyph glyph-name="lira" unicode="&#x20a4;" horiz-adv-x="584" 
d="M241 130h312v-130h-505v130h55v89h-55v84h55v45h-55v84h55v57q0 91 63 152t157 61t157 -61t63 -152h-138q0 34 -23.5 57t-58.5 23t-58.5 -23t-23.5 -57v-57h192v-84h-192v-45h192v-84h-192v-89z" />
    <glyph glyph-name="peseta" unicode="&#x20a7;" horiz-adv-x="653" 
d="M624 489v-88h-45q-15 -90 -84.5 -147t-165.5 -57h-93v-195h-138v399h-55v88h55v203h231q96 0 165.5 -57t84.5 -146h45zM236 562v-73h197q-12 33 -41 53t-66 20h-90zM326 327q38 0 66.5 20t40.5 54h-197v-74h90z" />
    <glyph glyph-name="uni20A8" unicode="&#x20a8;" horiz-adv-x="1021" 
d="M545 464q0 -68 -36.5 -121.5t-98.5 -78.5l152 -264h-166l-132 246h-56v-246h-138v690h241q100 0 167 -64.5t67 -161.5zM208 560v-194h100q40 0 67.5 28t27.5 69t-27.5 69t-67.5 28h-100zM837 309q154 -39 154 -157q0 -76 -54.5 -120t-135.5 -44q-82 0 -136.5 48
t-54.5 117h131q0 -24 18 -41t43 -17q24 0 40.5 13.5t16.5 32.5q0 42 -85 64q-157 37 -157 160q0 73 53 115t130 42q78 0 131 -45.5t53 -111.5h-131q0 21 -15.5 35.5t-38.5 14.5q-21 0 -36 -12.5t-15 -29.5q0 -42 89 -64z" />
    <glyph glyph-name="Euro" unicode="&#x20ac;" horiz-adv-x="753" 
d="M479 569q-72 0 -128 -31.5t-85 -85.5h348l-22 -85h-352q-1 -7 -1 -22t1 -22h341l-22 -85h-293q29 -54 85 -85.5t128 -31.5q63 0 122 25.5t102 69.5v-147q-102 -81 -241 -81q-126 0 -220.5 69t-128.5 181h-84l23 85h47q-1 7 -1 22t1 22h-70l23 85h61q34 112 129 181
t220 69q138 0 241 -80v-148q-92 95 -224 95z" />
    <glyph glyph-name="uni20B1" unicode="&#x20b1;" horiz-adv-x="653" 
d="M624 527v-69h-41v-15v-16h41v-69h-55q-26 -74 -90.5 -118.5t-149.5 -44.5h-93v-195h-138v358h-55v69h55v31h-55v69h55v163h231q85 0 149.5 -44.5t90.5 -118.5h55zM236 568v-41h173q-38 41 -96 41h-77zM441 443q0 10 -1 15h-204v-31h204q1 5 1 16zM313 317q58 0 96 41
h-173v-41h77z" />
    <glyph glyph-name="uni20B5" unicode="&#x20b5;" horiz-adv-x="809" 
d="M476 134q55 18 93.5 60t51.5 99h143q-16 -115 -94.5 -195.5t-193.5 -100.5v-67h-131v66q-131 20 -215 117.5t-84 231.5t84 231.5t215 117.5v66h131v-67q115 -20 193.5 -100.5t94.5 -195.5h-143q-13 57 -51.5 99t-93.5 60v-422zM187 345q0 -77 43.5 -135t114.5 -78v426
q-71 -20 -114.5 -78t-43.5 -135z" />
    <glyph glyph-name="uni20B9" unicode="&#x20b9;" horiz-adv-x="569" 
d="M420 601q29 -37 39 -80h87l-31 -88h-50q-9 -83 -67.5 -139.5t-142.5 -63.5l227 -230h-184l-232 234v122h158q36 0 63 21.5t35 55.5h-256v88h243q-30 46 -85 46h-158v123h480l-31 -89h-95z" />
    <glyph glyph-name="uni2116" unicode="&#x2116;" horiz-adv-x="1144" 
d="M918 327q-81 0 -135.5 54t-54.5 134t54.5 133.5t135.5 53.5q82 0 136.5 -53.5t54.5 -133.5t-54.5 -134t-136.5 -54zM524 237v453h138v-690h-140l-314 453v-453h-138v690h140zM918 593q-33 0 -55 -22t-22 -56t22 -56.5t55 -22.5q34 0 56 22.5t22 56.5t-22 56t-56 22z
M743 152v117h351v-117h-351z" />
    <glyph glyph-name="trademark" unicode="&#x2122;" horiz-adv-x="655" 
d="M12 623v67h225v-67h-77v-230h-71v230h-77zM517 690h90v-297h-70v178l-67 -178h-49l-68 181v-181h-70v297h93l71 -190z" />
    <glyph glyph-name="uni2150" unicode="&#x2150;" horiz-adv-x="941" 
d="M280 364v-88h-243v88h78v212l-78 -35v101l106 48h69v-326h68zM635 690h120l-474 -690h-119zM640 414h280v-75l-150 -339h-109l144 323h-165v91z" />
    <glyph glyph-name="uni2151" unicode="&#x2151;" horiz-adv-x="905" 
d="M280 364v-88h-243v88h78v212l-78 -35v101l106 48h69v-326h68zM635 690h120l-474 -690h-119zM732 421q64 0 107.5 -40.5t43.5 -100.5q0 -45 -28 -90l-118 -190h-115l91 142q-57 4 -94.5 42.5t-37.5 95.5q0 60 43.5 100.5t107.5 40.5zM681 280q0 -22 14.5 -37t36.5 -15
t37 15t15 37q0 21 -15 36t-37 15t-36.5 -15t-14.5 -36z" />
    <glyph glyph-name="uni2152" unicode="&#x2152;" horiz-adv-x="1261" 
d="M280 364v-88h-243v88h78v212l-78 -35v101l106 48h69v-326h68zM635 690h120l-474 -690h-119zM1063 421q73 0 119 -60t46 -154t-46 -154t-119 -60q-72 0 -118 59.5t-46 154.5t46 154.5t118 59.5zM798 414v-326h68v-88h-243v88h78v212l-78 -35v101l106 48h69zM1063 86
q29 0 47 33t18 88t-18 88t-47 33t-47 -33t-18 -88t18 -88t47 -33z" />
    <glyph glyph-name="uni2153" unicode="&#x2153;" horiz-adv-x="902" 
d="M280 364v-88h-243v88h78v212l-78 -35v101l106 48h69v-326h68zM635 690h120l-474 -690h-119zM827 215q51 -32 51 -90q0 -54 -42 -93t-105 -39q-62 0 -104.5 39t-42.5 97h99q0 -20 14 -33t35 -13t35 13t14 33q0 22 -15.5 36t-39.5 14h-60v70h60q20 0 33.5 13t13.5 32
q0 17 -12 28.5t-29 11.5q-18 0 -30 -11.5t-12 -28.5h-99q0 54 40 90.5t100 36.5t100.5 -36.5t40.5 -86.5q0 -52 -45 -83z" />
    <glyph glyph-name="uni2154" unicode="&#x2154;" horiz-adv-x="934" 
d="M321 364v-88h-290v73l147 145q41 39 41 68q0 19 -12.5 32t-31.5 13t-32 -13t-13 -32h-98q0 58 42 96.5t105 38.5q59 0 99 -38.5t40 -96.5q0 -61 -54 -113l-87 -85h144zM667 690h120l-474 -690h-119zM859 215q51 -32 51 -90q0 -54 -42 -93t-105 -39q-62 0 -104.5 39
t-42.5 97h99q0 -20 14 -33t35 -13t35 13t14 33q0 22 -15.5 36t-39.5 14h-60v70h60q20 0 33.5 13t13.5 32q0 17 -12 28.5t-29 11.5q-18 0 -30 -11.5t-12 -28.5h-99q0 54 40 90.5t100 36.5t100.5 -36.5t40.5 -86.5q0 -52 -45 -83z" />
    <glyph glyph-name="uni2155" unicode="&#x2155;" horiz-adv-x="926" 
d="M280 364v-88h-243v88h78v212l-78 -35v101l106 48h69v-326h68zM635 690h120l-474 -690h-119zM764 268q60 0 101 -39.5t41 -97.5q0 -59 -43.5 -98.5t-108.5 -39.5q-64 0 -107 39.5t-43 97.5h98q0 -22 15 -36.5t37 -14.5q23 0 38 14.5t15 37.5t-15 38.5t-38 15.5
q-30 0 -46 -22h-98l21 251h247v-87h-160l-6 -71q26 12 52 12z" />
    <glyph glyph-name="uni2156" unicode="&#x2156;" horiz-adv-x="958" 
d="M321 364v-88h-290v73l147 145q41 39 41 68q0 19 -12.5 32t-31.5 13t-32 -13t-13 -32h-98q0 58 42 96.5t105 38.5q59 0 99 -38.5t40 -96.5q0 -61 -54 -113l-87 -85h144zM667 690h120l-474 -690h-119zM796 268q60 0 101 -39.5t41 -97.5q0 -59 -43.5 -98.5t-108.5 -39.5
q-64 0 -107 39.5t-43 97.5h98q0 -22 15 -36.5t37 -14.5q23 0 38 14.5t15 37.5t-15 38.5t-38 15.5q-30 0 -46 -22h-98l21 251h247v-87h-160l-6 -71q26 12 52 12z" />
    <glyph glyph-name="uni2157" unicode="&#x2157;" horiz-adv-x="917" 
d="M317 401q0 -54 -42 -93t-105 -39q-62 0 -104.5 39t-42.5 97h99q0 -20 14 -33t35 -13t35 13t14 33q0 22 -15.5 36t-39.5 14h-60v70h60q20 0 33.5 13t13.5 32q0 17 -12 28.5t-29 11.5q-18 0 -30 -11.5t-12 -28.5h-99q0 54 40 90.5t100 36.5t100.5 -36.5t40.5 -86.5
q0 -52 -45 -83q51 -32 51 -90zM626 690h120l-474 -690h-119zM755 268q60 0 101 -39.5t41 -97.5q0 -59 -43.5 -98.5t-108.5 -39.5q-64 0 -107 39.5t-43 97.5h98q0 -22 15 -36.5t37 -14.5q23 0 38 14.5t15 37.5t-15 38.5t-38 15.5q-29 0 -46 -22h-98l21 251h247v-87h-160
l-6 -71q26 12 52 12z" />
    <glyph glyph-name="uni2158" unicode="&#x2158;" horiz-adv-x="950" 
d="M208 276v74h-188v71l165 269h120v-253h43v-87h-43v-74h-97zM659 690h120l-474 -690h-119zM121 437h87v149zM788 268q60 0 101 -39.5t41 -97.5q0 -59 -43.5 -98.5t-108.5 -39.5q-64 0 -107 39.5t-43 97.5h98q0 -22 15 -36.5t37 -14.5q23 0 38 14.5t15 37.5t-15 38.5
t-38 15.5q-30 0 -46 -22h-98l21 251h247v-87h-160l-6 -71q26 12 52 12z" />
    <glyph glyph-name="uni2159" unicode="&#x2159;" horiz-adv-x="860" 
d="M280 364v-88h-243v88h78v212l-78 -35v101l106 48h69v-326h68zM635 690h120l-474 -690h-119zM707 272q56 -4 93.5 -43t37.5 -95q0 -60 -43 -100.5t-107 -40.5t-107.5 40.5t-43.5 100.5q0 44 27 90l119 190h115zM688 83q22 0 36.5 15t14.5 36q0 22 -14.5 37t-36.5 15
t-37 -15t-15 -37q0 -21 15 -36t37 -15z" />
    <glyph glyph-name="uni215A" unicode="&#x215a;" horiz-adv-x="856" 
d="M337 407q0 -59 -43.5 -98.5t-108.5 -39.5q-64 0 -107 39.5t-43 97.5h98q0 -22 15 -36.5t37 -14.5q23 0 38 14.5t15 37.5t-15 38.5t-38 15.5q-29 0 -46 -22h-98l21 251h247v-87h-160l-6 -71q26 12 52 12q60 0 101 -39.5t41 -97.5zM631 690h120l-474 -690h-119zM703 272
q56 -4 93.5 -43t37.5 -95q0 -60 -43 -100.5t-107 -40.5t-107.5 40.5t-43.5 100.5q0 44 27 90l119 190h115zM684 83q22 0 36.5 15t14.5 36q0 22 -14.5 37t-36.5 15t-37 -15t-15 -37q0 -21 15 -36t37 -15z" />
    <glyph glyph-name="oneeighth" unicode="&#x215b;" horiz-adv-x="906" 
d="M280 364v-88h-243v88h78v212l-78 -35v101l106 48h69v-326h68zM635 690h120l-474 -690h-119zM826 214q55 -36 55 -96q0 -53 -42 -89t-105 -36q-64 0 -106 36t-42 89q0 60 55 96q-49 34 -49 88q0 50 40.5 84.5t101.5 34.5q60 0 100.5 -34.5t40.5 -84.5q0 -54 -49 -88z
M734 328q-18 0 -30.5 -11.5t-12.5 -28.5t12.5 -28.5t30.5 -11.5t30.5 11.5t12.5 28.5t-12.5 28.5t-30.5 11.5zM734 86q20 0 34 13t14 32t-14 32t-34 13t-34.5 -13t-14.5 -32t14 -32t35 -13z" />
    <glyph glyph-name="threeeighths" unicode="&#x215c;" horiz-adv-x="897" 
d="M317 401q0 -54 -42 -93t-105 -39q-62 0 -104.5 39t-42.5 97h99q0 -20 14 -33t35 -13t35 13t14 33q0 22 -15.5 36t-39.5 14h-60v70h60q20 0 33.5 13t13.5 32q0 17 -12 28.5t-29 11.5q-18 0 -30 -11.5t-12 -28.5h-99q0 54 40 90.5t100 36.5t100.5 -36.5t40.5 -86.5
q0 -52 -45 -83q51 -32 51 -90zM626 690h120l-474 -690h-119zM817 214q55 -36 55 -96q0 -53 -42 -89t-105 -36q-64 0 -106 36t-42 89q0 60 55 96q-49 34 -49 88q0 50 40.5 84.5t101.5 34.5q60 0 100.5 -34.5t40.5 -84.5q0 -54 -49 -88zM725 328q-18 0 -30.5 -11.5
t-12.5 -28.5t12.5 -28.5t30.5 -11.5t30.5 11.5t12.5 28.5t-12.5 28.5t-30.5 11.5zM725 86q20 0 34 13t14 32t-14 32t-34 13t-34.5 -13t-14.5 -32t14 -32t35 -13z" />
    <glyph glyph-name="fiveeighths" unicode="&#x215d;" horiz-adv-x="902" 
d="M337 407q0 -59 -43.5 -98.5t-108.5 -39.5q-64 0 -107 39.5t-43 97.5h98q0 -22 15 -36.5t37 -14.5q23 0 38 14.5t15 37.5t-15 38.5t-38 15.5q-29 0 -46 -22h-98l21 251h247v-87h-160l-6 -71q26 12 52 12q60 0 101 -39.5t41 -97.5zM631 690h120l-474 -690h-119zM822 214
q55 -36 55 -96q0 -53 -42 -89t-105 -36q-64 0 -106 36t-42 89q0 60 55 96q-49 34 -49 88q0 50 40.5 84.5t101.5 34.5q60 0 100.5 -34.5t40.5 -84.5q0 -54 -49 -88zM730 328q-18 0 -30.5 -11.5t-12.5 -28.5t12.5 -28.5t30.5 -11.5t30.5 11.5t12.5 28.5t-12.5 28.5t-30.5 11.5
zM730 86q20 0 34 13t14 32t-14 32t-34 13t-34.5 -13t-14.5 -32t14 -32t35 -13z" />
    <glyph glyph-name="seveneighths" unicode="&#x215e;" horiz-adv-x="827" 
d="M161 276h-109l144 323h-165v91h280v-75zM556 690h120l-474 -690h-119zM747 214q55 -36 55 -96q0 -53 -42 -89t-105 -36q-64 0 -106 36t-42 89q0 60 55 96q-49 34 -49 88q0 50 40.5 84.5t101.5 34.5q60 0 100.5 -34.5t40.5 -84.5q0 -54 -49 -88zM655 328
q-18 0 -30.5 -11.5t-12.5 -28.5t12.5 -28.5t30.5 -11.5t30.5 11.5t12.5 28.5t-12.5 28.5t-30.5 11.5zM655 86q20 0 34 13t14 32t-14 32t-34 13t-34.5 -13t-14.5 -32t14 -32t35 -13z" />
    <glyph glyph-name="uni215F" unicode="&#x215f;" horiz-adv-x="556" 
d="M280 364v-88h-243v88h78v212l-78 -35v101l106 48h69v-326h68zM635 690h120l-474 -690h-119z" />
    <glyph glyph-name="uni2189" unicode="&#x2189;" horiz-adv-x="930" 
d="M362 483q0 -94 -46 -154t-119 -60q-72 0 -118 59.5t-46 154.5t46 154.5t118 59.5q73 0 119 -60t46 -154zM663 690h120l-474 -690h-119zM132 483q0 -55 18 -88t47 -33t47 33t18 88t-18 88t-47 33t-47 -33t-18 -88zM855 215q51 -32 51 -90q0 -54 -42 -93t-105 -39
q-62 0 -104.5 39t-42.5 97h99q0 -20 14 -33t35 -13t35 13t14 33q0 22 -15.5 36t-39.5 14h-60v70h60q20 0 33.5 13t13.5 32q0 17 -12 28.5t-29 11.5q-18 0 -30 -11.5t-12 -28.5h-99q0 54 40 90.5t100 36.5t100.5 -36.5t40.5 -86.5q0 -52 -45 -83z" />
    <glyph glyph-name="arrowleft" unicode="&#x2190;" horiz-adv-x="654" 
d="M592 404v-118h-320l157 -155h-153l-214 214l214 214h153l-157 -155h320z" />
    <glyph glyph-name="arrowup" unicode="&#x2191;" horiz-adv-x="654" 
d="M528 410v-153l-142 144v-321h-118v319l-141 -142v153l201 200z" />
    <glyph glyph-name="arrowright" unicode="&#x2192;" horiz-adv-x="654" 
d="M378 559l214 -214l-214 -214h-153l157 155h-320v118h320l-157 155h153z" />
    <glyph glyph-name="arrowdown" unicode="&#x2193;" horiz-adv-x="654" 
d="M386 290l156 157v-153l-215 -214l-214 214v153l155 -157v320h118v-320z" />
    <glyph glyph-name="uni2196" unicode="&#x2196;" horiz-adv-x="654" 
d="M531 209l-84 -83l-226 227l2 -211l-108 104v297h297l104 -108l-212 1z" />
    <glyph glyph-name="uni2197" unicode="&#x2197;" horiz-adv-x="654" 
d="M252 543h283v-283l-108 -104l1 196l-226 -226l-83 83l227 227l-198 -1z" />
    <glyph glyph-name="uni2198" unicode="&#x2198;" horiz-adv-x="654" 
d="M432 542l107 -104v-297h-297l-104 108l212 -1l-227 227l84 83l226 -227z" />
    <glyph glyph-name="uni2199" unicode="&#x2199;" horiz-adv-x="654" 
d="M531 475l-227 -227l212 1l-104 -108h-297v297l108 104l-2 -211l226 227z" />
    <glyph glyph-name="minus" unicode="&#x2212;" horiz-adv-x="534" 
d="M58 237v117h418v-117h-418z" />
    <glyph glyph-name="approxequal" unicode="&#x2248;" 
d="M378 323q-42 0 -90 26t-64 26q-21 0 -34 -13.5t-13 -33.5h-119q0 80 35.5 128t108.5 48q42 0 90 -26t64 -26q20 0 33.5 13.5t13.5 33.5h119q0 -80 -35.5 -128t-108.5 -48zM378 94q-42 0 -90 26t-64 26q-21 0 -34 -13.5t-13 -33.5h-119q0 80 35.5 128t108.5 48
q42 0 90 -26t64 -26q20 0 33.5 13.5t13.5 33.5h119q0 -80 -35.5 -128t-108.5 -48z" />
    <glyph glyph-name="notequal" unicode="&#x2260;" horiz-adv-x="534" 
d="M476 335h-135l-34 -79h169v-117h-220l-32 -74h-114l32 74h-84v117h135l34 79h-169v117h220l32 73h114l-32 -73h84v-117z" />
    <glyph glyph-name="lessequal" unicode="&#x2264;" horiz-adv-x="464" 
d="M406 586v-129l-222 -69l222 -69v-130l-348 133v131zM58 32v117h348v-117h-348z" />
    <glyph glyph-name="greaterequal" unicode="&#x2265;" horiz-adv-x="464" 
d="M58 586l348 -133v-131l-348 -133v130l222 69l-222 69v129zM58 32v117h348v-117h-348z" />
    <glyph glyph-name="uni2639" unicode="&#x2639;" horiz-adv-x="805" 
d="M403 -12q-152 0 -254.5 102.5t-102.5 254.5t102.5 254.5t254.5 102.5t254.5 -102.5t102.5 -254.5t-102.5 -254.5t-254.5 -102.5zM403 58q122 0 203.5 82t81.5 205t-81.5 205t-203.5 82t-204 -82t-82 -205t82 -205t204 -82zM283 416q-19 0 -32 13t-13 32t13 31.5t32 12.5
t31.5 -12.5t12.5 -31.5t-12.5 -32t-31.5 -13zM523 416q-19 0 -32 13t-13 32t13 31.5t32 12.5t31.5 -12.5t12.5 -31.5t-12.5 -32t-31.5 -13zM200 176q0 86 58 144t145 58q86 0 144 -58t58 -144h-72q0 57 -37 95t-93 38t-93.5 -38t-37.5 -95h-72z" />
    <glyph glyph-name="smileface" unicode="&#x263a;" horiz-adv-x="805" 
d="M403 -12q-152 0 -254.5 102.5t-102.5 254.5t102.5 254.5t254.5 102.5t254.5 -102.5t102.5 -254.5t-102.5 -254.5t-254.5 -102.5zM403 58q122 0 203.5 82t81.5 205t-81.5 205t-203.5 82t-204 -82t-82 -205t82 -205t204 -82zM283 416q-19 0 -32 13t-13 32t13 31.5t32 12.5
t31.5 -12.5t12.5 -31.5t-12.5 -32t-31.5 -13zM523 416q-19 0 -32 13t-13 32t13 31.5t32 12.5t31.5 -12.5t12.5 -31.5t-12.5 -32t-31.5 -13zM403 122q-96 0 -159.5 64t-63.5 159h71q0 -66 43.5 -110t108.5 -44t108 44t43 110h72q0 -95 -64 -159t-159 -64z" />
    <glyph glyph-name="uni279D" unicode="&#x279d;" horiz-adv-x="1082" 
d="M1006 345l-214 -214v155h-716v118h716v155z" />
    <glyph glyph-name="uni27F5" unicode="&#x27f5;" horiz-adv-x="1082" 
d="M1006 404v-118h-720l157 -155h-153l-214 214l214 214h153l-157 -155h720z" />
    <glyph glyph-name="uni27F6" unicode="&#x27f6;" horiz-adv-x="1082" 
d="M792 559l214 -214l-214 -214h-153l157 155h-720v118h720l-157 155h153z" />
    <glyph glyph-name="K.ss02" horiz-adv-x="641" 
d="M644 0h-180l-256 294v-294h-138v690h138v-287l253 287h177l-301 -341z" />
    <glyph glyph-name="uni0136.ss02" horiz-adv-x="641" 
d="M337 349l307 -349h-180l-256 294v-294h-138v690h138v-287l253 287h177zM232 -225l41 170h134l-68 -170h-107z" />
    <glyph glyph-name="R.ss02" 
d="M390 0l-170 246h-12v-246h-138v690h241q100 0 167 -64.5t67 -161.5q0 -76 -45 -132.5t-119 -76.5l181 -255h-172zM208 560v-194h100q40 0 67.5 28t27.5 69t-27.5 69t-67.5 28h-100z" />
    <glyph glyph-name="Racute.ss02" 
d="M476 889l-128 -143h-137l101 143h164zM390 0l-170 246h-12v-246h-138v690h241q100 0 167 -64.5t67 -161.5q0 -76 -45 -132.5t-119 -76.5l181 -255h-172zM208 560v-194h100q40 0 67.5 28t27.5 69t-27.5 69t-67.5 28h-100z" />
    <glyph glyph-name="Rcaron.ss02" 
d="M365 746h-157l-99 143h122l56 -73l55 73h122zM390 0l-170 246h-12v-246h-138v690h241q100 0 167 -64.5t67 -161.5q0 -76 -45 -132.5t-119 -76.5l181 -255h-172zM208 560v-194h100q40 0 67.5 28t27.5 69t-27.5 69t-67.5 28h-100z" />
    <glyph glyph-name="uni0156.ss02" 
d="M381 255l181 -255h-172l-170 246h-12v-246h-138v690h241q100 0 167 -64.5t67 -161.5q0 -76 -45 -132.5t-119 -76.5zM208 560v-194h100q40 0 67.5 28t27.5 69t-27.5 69t-67.5 28h-100zM203 -225l41 170h134l-68 -170h-107z" />
    <glyph glyph-name="uni0210.ss02" 
d="M245 746h-126l-101 143h142zM461 746h-126l-101 143h142zM390 0l-170 246h-12v-246h-138v690h241q100 0 167 -64.5t67 -161.5q0 -76 -45 -132.5t-119 -76.5l181 -255h-172zM208 560v-194h100q40 0 67.5 28t27.5 69t-27.5 69t-67.5 28h-100z" />
    <glyph glyph-name="uni1E5A.ss02" 
d="M381 255l181 -255h-172l-170 246h-12v-246h-138v690h241q100 0 167 -64.5t67 -161.5q0 -76 -45 -132.5t-119 -76.5zM208 560v-194h100q40 0 67.5 28t27.5 69t-27.5 69t-67.5 28h-100zM297 -55q33 0 55.5 -21.5t22.5 -54.5t-22.5 -55t-55.5 -22t-55 22t-22 55t22 54.5
t55 21.5z" />
    <glyph glyph-name="uni0212.ss02" 
d="M287 801q-25 0 -41 -16.5t-16 -41.5h-101q0 65 45.5 108t112.5 43t112 -43t45 -108h-100q0 25 -16.5 41.5t-40.5 16.5zM390 0l-170 246h-12v-246h-138v690h241q100 0 167 -64.5t67 -161.5q0 -76 -45 -132.5t-119 -76.5l181 -255h-172zM208 560v-194h100q40 0 67.5 28
t27.5 69t-27.5 69t-67.5 28h-100z" />
    <glyph glyph-name="G.ss03" horiz-adv-x="788" 
d="M408 388h349v-48q-2 -150 -104 -251t-253 -101q-156 0 -260 102.5t-104 254.5t104 254.5t260 102.5q125 0 219.5 -67t121.5 -173h-154q-26 49 -75.5 78t-111.5 29q-95 0 -159 -64t-64 -160t64 -160t159 -64q74 0 130.5 39t76.5 103h-199v125z" />
    <glyph glyph-name="uni01F4.ss03" horiz-adv-x="788" 
d="M589 889l-128 -143h-137l101 143h164zM408 388h349v-48q-2 -150 -104 -251t-253 -101q-156 0 -260 102.5t-104 254.5t104 254.5t260 102.5q125 0 219.5 -67t121.5 -173h-154q-26 49 -75.5 78t-111.5 29q-95 0 -159 -64t-64 -160t64 -160t159 -64q74 0 130.5 39t76.5 103
h-199v125z" />
    <glyph glyph-name="Gbreve.ss03" horiz-adv-x="788" 
d="M400 736q-67 0 -112.5 43t-45.5 108h101q0 -25 16 -41.5t41 -16.5q24 0 40.5 16.5t16.5 41.5h100q0 -65 -45 -108t-112 -43zM408 388h349v-48q-2 -150 -104 -251t-253 -101q-156 0 -260 102.5t-104 254.5t104 254.5t260 102.5q125 0 219.5 -67t121.5 -173h-154
q-26 49 -75.5 78t-111.5 29q-95 0 -159 -64t-64 -160t64 -160t159 -64q74 0 130.5 39t76.5 103h-199v125z" />
    <glyph glyph-name="Gcaron.ss03" horiz-adv-x="788" 
d="M478 746h-157l-99 143h122l56 -73l55 73h122zM408 388h349v-48q-2 -150 -104 -251t-253 -101q-156 0 -260 102.5t-104 254.5t104 254.5t260 102.5q125 0 219.5 -67t121.5 -173h-154q-26 49 -75.5 78t-111.5 29q-95 0 -159 -64t-64 -160t64 -160t159 -64q74 0 130.5 39
t76.5 103h-199v125z" />
    <glyph glyph-name="Gcircumflex.ss03" horiz-adv-x="788" 
d="M400 819l-56 -73h-122l99 143h157l99 -143h-122zM408 388h349v-48q-2 -150 -104 -251t-253 -101q-156 0 -260 102.5t-104 254.5t104 254.5t260 102.5q125 0 219.5 -67t121.5 -173h-154q-26 49 -75.5 78t-111.5 29q-95 0 -159 -64t-64 -160t64 -160t159 -64q74 0 130.5 39
t76.5 103h-199v125z" />
    <glyph glyph-name="uni0122.ss03" horiz-adv-x="788" 
d="M408 388h349v-48q-2 -150 -104 -251t-253 -101q-156 0 -260 102.5t-104 254.5t104 254.5t260 102.5q125 0 219.5 -67t121.5 -173h-154q-26 49 -75.5 78t-111.5 29q-95 0 -159 -64t-64 -160t64 -160t159 -64q74 0 130.5 39t76.5 103h-199v125zM306 -225l41 170h134
l-68 -170h-107z" />
    <glyph glyph-name="Gdotaccent.ss03" horiz-adv-x="788" 
d="M399 745q-33 0 -55 21.5t-22 54.5t22 55t55 22t55.5 -22t22.5 -55t-22.5 -54.5t-55.5 -21.5zM408 388h349v-48q-2 -150 -104 -251t-253 -101q-156 0 -260 102.5t-104 254.5t104 254.5t260 102.5q125 0 219.5 -67t121.5 -173h-154q-26 49 -75.5 78t-111.5 29
q-95 0 -159 -64t-64 -160t64 -160t159 -64q74 0 130.5 39t76.5 103h-199v125z" />
    <glyph glyph-name="B.ss05" horiz-adv-x="572" 
d="M435 367q51 -17 83.5 -67.5t32.5 -112.5q0 -81 -55 -134t-139 -53h-287v690h261q78 0 130.5 -50t52.5 -126q0 -47 -22 -87t-57 -60zM323 124q37 0 61.5 25t24.5 62q0 36 -24.5 61t-61.5 25h-83v117h57q31 0 53 22t22 54t-21.5 54t-53.5 22h-93v-442h119z" />
    <glyph glyph-name="P.ss05" horiz-adv-x="576" 
d="M318 690q101 0 169 -66t68 -164t-68 -164t-169 -66h-74v130h71q42 0 70 28.5t28 71.5t-28 71.5t-70 28.5h-107v-560h-138v690h248z" />
    <glyph glyph-name="R.ss05" 
d="M399 271l163 -271h-171l-148 250v116h65q40 0 67.5 28t27.5 69t-27.5 69t-67.5 28h-100v-560h-138v690h241q100 0 167 -64.5t67 -161.5q0 -64 -34 -114.5t-89 -70.5z" />
    <glyph glyph-name="Racute.ss05" 
d="M476 889l-128 -143h-137l101 143h164zM399 271l163 -271h-171l-148 250v116h65q40 0 67.5 28t27.5 69t-27.5 69t-67.5 28h-100v-560h-138v690h241q100 0 167 -64.5t67 -161.5q0 -64 -34 -114.5t-89 -70.5z" />
    <glyph glyph-name="Rcaron.ss05" 
d="M365 746h-157l-99 143h122l56 -73l55 73h122zM399 271l163 -271h-171l-148 250v116h65q40 0 67.5 28t27.5 69t-27.5 69t-67.5 28h-100v-560h-138v690h241q100 0 167 -64.5t67 -161.5q0 -64 -34 -114.5t-89 -70.5z" />
    <glyph glyph-name="uni0156.ss05" 
d="M399 271l163 -271h-171l-148 250v116h65q40 0 67.5 28t27.5 69t-27.5 69t-67.5 28h-100v-560h-138v690h241q100 0 167 -64.5t67 -161.5q0 -64 -34 -114.5t-89 -70.5zM203 -225l41 170h134l-68 -170h-107z" />
    <glyph glyph-name="uni0210.ss05" 
d="M245 746h-126l-101 143h142zM461 746h-126l-101 143h142zM399 271l163 -271h-171l-148 250v116h65q40 0 67.5 28t27.5 69t-27.5 69t-67.5 28h-100v-560h-138v690h241q100 0 167 -64.5t67 -161.5q0 -64 -34 -114.5t-89 -70.5z" />
    <glyph glyph-name="uni1E5A.ss05" 
d="M399 271l163 -271h-171l-148 250v116h65q40 0 67.5 28t27.5 69t-27.5 69t-67.5 28h-100v-560h-138v690h241q100 0 167 -64.5t67 -161.5q0 -64 -34 -114.5t-89 -70.5zM297 -55q33 0 55.5 -21.5t22.5 -54.5t-22.5 -55t-55.5 -22t-55 22t-22 55t22 54.5t55 21.5z" />
    <glyph glyph-name="uni0212.ss05" 
d="M287 801q-25 0 -41 -16.5t-16 -41.5h-101q0 65 45.5 108t112.5 43t112 -43t45 -108h-100q0 25 -16.5 41.5t-40.5 16.5zM399 271l163 -271h-171l-148 250v116h65q40 0 67.5 28t27.5 69t-27.5 69t-67.5 28h-100v-560h-138v690h241q100 0 167 -64.5t67 -161.5
q0 -64 -34 -114.5t-89 -70.5z" />
    <glyph glyph-name="I.ss06" horiz-adv-x="278" 
d="M70 0v690h138v-690h-138z" />
    <glyph glyph-name="Iacute.ss06" horiz-adv-x="278" 
d="M64 746l101 143h164l-128 -143h-137zM70 0v690h138v-690h-138z" />
    <glyph glyph-name="Ibreve.ss06" horiz-adv-x="278" 
d="M140 736q-67 0 -112.5 43t-45.5 108h101q0 -25 16 -41.5t41 -16.5q24 0 40.5 16.5t16.5 41.5h100q0 -65 -45 -108t-112 -43zM70 0v690h138v-690h-138z" />
    <glyph glyph-name="Icircumflex.ss06" horiz-adv-x="278" 
d="M140 819l-56 -73h-122l99 143h157l99 -143h-122zM70 0v690h138v-690h-138z" />
    <glyph glyph-name="uni0208.ss06" horiz-adv-x="278" 
d="M-28 746l-101 143h142l85 -143h-126zM188 746l-101 143h142l85 -143h-126zM70 0v690h138v-690h-138z" />
    <glyph glyph-name="Idieresis.ss06" horiz-adv-x="278" 
d="M32 745q-32 0 -53 21t-21 52t21.5 52t52.5 21t52.5 -21t21.5 -52t-21 -52t-53 -21zM248 745q-32 0 -53 21t-21 52t21.5 52t52.5 21t52 -21t21 -52t-21 -52t-52 -21zM70 0v690h138v-690h-138z" />
    <glyph glyph-name="Idotaccent.ss06" horiz-adv-x="278" 
d="M139 745q-33 0 -55 21.5t-22 54.5t22 55t55 22t55.5 -22t22.5 -55t-22.5 -54.5t-55.5 -21.5zM70 0v690h138v-690h-138z" />
    <glyph glyph-name="uni1ECA.ss06" horiz-adv-x="278" 
d="M70 0v690h138v-690h-138zM139 -208q-33 0 -55 22t-22 55t22 54.5t55 21.5t55.5 -21.5t22.5 -54.5t-22.5 -55t-55.5 -22z" />
    <glyph glyph-name="Igrave.ss06" horiz-adv-x="278" 
d="M78 746l-128 143h164l101 -143h-137zM70 0v690h138v-690h-138z" />
    <glyph glyph-name="uni020A.ss06" horiz-adv-x="278" 
d="M-18 743q0 65 45.5 108t112.5 43t112 -43t45 -108h-100q0 25 -16.5 41.5t-40.5 16.5q-25 0 -41 -16.5t-16 -41.5h-101zM70 0v690h138v-690h-138z" />
    <glyph glyph-name="Imacron.ss06" horiz-adv-x="278" 
d="M8 757v109h264v-109h-264zM70 0v690h138v-690h-138z" />
    <glyph glyph-name="Iogonek.ss06" horiz-adv-x="278" 
d="M150 -146q34 0 63 24v-92q-37 -25 -91 -25q-53 0 -88 31.5t-35 78.5q0 41 28 75.5t73 53.5h-30v690h138v-690h-1q-105 -46 -105 -101q0 -21 14.5 -33t33.5 -12z" />
    <glyph glyph-name="Itilde.ss06" horiz-adv-x="278" 
d="M205 752q-32 0 -66.5 20.5t-48.5 20.5q-17 0 -27.5 -11t-10.5 -27h-92q0 62 30 102t84 40q31 0 65.5 -21.5t48.5 -21.5q16 0 27.5 11.5t11.5 28.5h91q0 -63 -29.5 -102.5t-83.5 -39.5zM70 0v690h138v-690h-138z" />
    <glyph glyph-name="i.loclTRK" horiz-adv-x="254" 
d="M127 565q-33 0 -55 21.5t-22 54.5t22 55t55 22t55.5 -22t22.5 -55t-22.5 -54.5t-55.5 -21.5zM62 0v510h130v-510h-130z" />
    <glyph glyph-name="a.ss01" horiz-adv-x="640" 
d="M448 510h130v-510h-130v67q-64 -79 -166 -79q-106 0 -177.5 76.5t-71.5 190.5t71.5 190.5t177.5 76.5q102 0 166 -79v67zM307 114q61 0 101 40.5t40 100.5t-40 100.5t-101 40.5q-60 0 -100 -40.5t-40 -100.5t40 -100.5t100 -40.5z" />
    <glyph glyph-name="aacute.ss01" horiz-adv-x="640" 
d="M513 709l-128 -143h-137l101 143h164zM448 510h130v-510h-130v67q-64 -79 -166 -79q-106 0 -177.5 76.5t-71.5 190.5t71.5 190.5t177.5 76.5q102 0 166 -79v67zM307 114q61 0 101 40.5t40 100.5t-40 100.5t-101 40.5q-60 0 -100 -40.5t-40 -100.5t40 -100.5t100 -40.5z
" />
    <glyph glyph-name="abreve.ss01" horiz-adv-x="640" 
d="M324 556q-67 0 -112.5 43t-45.5 108h101q0 -25 16 -41.5t41 -16.5q24 0 40.5 16.5t16.5 41.5h100q0 -65 -45 -108t-112 -43zM448 510h130v-510h-130v67q-64 -79 -166 -79q-106 0 -177.5 76.5t-71.5 190.5t71.5 190.5t177.5 76.5q102 0 166 -79v67zM307 114q61 0 101 40.5
t40 100.5t-40 100.5t-101 40.5q-60 0 -100 -40.5t-40 -100.5t40 -100.5t100 -40.5z" />
    <glyph glyph-name="uni01CE.ss01" horiz-adv-x="640" 
d="M402 566h-157l-99 143h122l56 -73l55 73h122zM448 510h130v-510h-130v67q-64 -79 -166 -79q-106 0 -177.5 76.5t-71.5 190.5t71.5 190.5t177.5 76.5q102 0 166 -79v67zM307 114q61 0 101 40.5t40 100.5t-40 100.5t-101 40.5q-60 0 -100 -40.5t-40 -100.5t40 -100.5
t100 -40.5z" />
    <glyph glyph-name="acircumflex.ss01" horiz-adv-x="640" 
d="M324 639l-56 -73h-122l99 143h157l99 -143h-122zM448 510h130v-510h-130v67q-64 -79 -166 -79q-106 0 -177.5 76.5t-71.5 190.5t71.5 190.5t177.5 76.5q102 0 166 -79v67zM307 114q61 0 101 40.5t40 100.5t-40 100.5t-101 40.5q-60 0 -100 -40.5t-40 -100.5t40 -100.5
t100 -40.5z" />
    <glyph glyph-name="uni0201.ss01" horiz-adv-x="640" 
d="M282 566h-126l-101 143h142zM498 566h-126l-101 143h142zM448 510h130v-510h-130v67q-64 -79 -166 -79q-106 0 -177.5 76.5t-71.5 190.5t71.5 190.5t177.5 76.5q102 0 166 -79v67zM307 114q61 0 101 40.5t40 100.5t-40 100.5t-101 40.5q-60 0 -100 -40.5t-40 -100.5
t40 -100.5t100 -40.5z" />
    <glyph glyph-name="adieresis.ss01" horiz-adv-x="640" 
d="M216 565q-32 0 -53 21t-21 52t21.5 52t52.5 21t52.5 -21t21.5 -52t-21 -52t-53 -21zM432 565q-32 0 -53 21t-21 52t21.5 52t52.5 21t52 -21t21 -52t-21 -52t-52 -21zM448 510h130v-510h-130v67q-64 -79 -166 -79q-106 0 -177.5 76.5t-71.5 190.5t71.5 190.5t177.5 76.5
q102 0 166 -79v67zM307 114q61 0 101 40.5t40 100.5t-40 100.5t-101 40.5q-60 0 -100 -40.5t-40 -100.5t40 -100.5t100 -40.5z" />
    <glyph glyph-name="uni1EA1.ss01" horiz-adv-x="640" 
d="M448 510h130v-510h-130v67q-64 -79 -166 -79q-106 0 -177.5 76.5t-71.5 190.5t71.5 190.5t177.5 76.5q102 0 166 -79v67zM307 114q61 0 101 40.5t40 100.5t-40 100.5t-101 40.5q-60 0 -100 -40.5t-40 -100.5t40 -100.5t100 -40.5zM323 -55q33 0 55.5 -21.5t22.5 -54.5
t-22.5 -55t-55.5 -22t-55 22t-22 55t22 54.5t55 21.5z" />
    <glyph glyph-name="agrave.ss01" horiz-adv-x="640" 
d="M399 566h-137l-128 143h164zM448 510h130v-510h-130v67q-64 -79 -166 -79q-106 0 -177.5 76.5t-71.5 190.5t71.5 190.5t177.5 76.5q102 0 166 -79v67zM307 114q61 0 101 40.5t40 100.5t-40 100.5t-101 40.5q-60 0 -100 -40.5t-40 -100.5t40 -100.5t100 -40.5z" />
    <glyph glyph-name="uni0203.ss01" horiz-adv-x="640" 
d="M324 621q-25 0 -41 -16.5t-16 -41.5h-101q0 65 45.5 108t112.5 43t112 -43t45 -108h-100q0 25 -16.5 41.5t-40.5 16.5zM448 510h130v-510h-130v67q-64 -79 -166 -79q-106 0 -177.5 76.5t-71.5 190.5t71.5 190.5t177.5 76.5q102 0 166 -79v67zM307 114q61 0 101 40.5
t40 100.5t-40 100.5t-101 40.5q-60 0 -100 -40.5t-40 -100.5t40 -100.5t100 -40.5z" />
    <glyph glyph-name="amacron.ss01" horiz-adv-x="640" 
d="M456 686v-109h-264v109h264zM448 510h130v-510h-130v67q-64 -79 -166 -79q-106 0 -177.5 76.5t-71.5 190.5t71.5 190.5t177.5 76.5q102 0 166 -79v67zM307 114q61 0 101 40.5t40 100.5t-40 100.5t-101 40.5q-60 0 -100 -40.5t-40 -100.5t40 -100.5t100 -40.5z" />
    <glyph glyph-name="aogonek.ss01" horiz-adv-x="640" 
d="M519 -146q34 0 63 24v-92q-38 -25 -91 -25t-88 31.5t-35 78.5q0 41 28 75.5t73 53.5h-21v67q-64 -79 -166 -79q-106 0 -177.5 76.5t-71.5 190.5t71.5 190.5t177.5 76.5q102 0 166 -79v67h130v-510h-2q-105 -46 -105 -101q0 -21 14.5 -33t33.5 -12zM307 114q61 0 101 40.5
t40 100.5t-40 100.5t-101 40.5q-60 0 -100 -40.5t-40 -100.5t40 -100.5t100 -40.5z" />
    <glyph glyph-name="aring.ss01" horiz-adv-x="640" 
d="M324 554q-44 0 -73.5 28.5t-29.5 71.5t29.5 71.5t73.5 28.5t73 -28.5t29 -71.5t-29 -71.5t-73 -28.5zM324 689q-15 0 -24.5 -10t-9.5 -25t9.5 -25t24.5 -10q14 0 24 10t10 25t-10 25t-24 10zM448 510h130v-510h-130v67q-64 -79 -166 -79q-106 0 -177.5 76.5t-71.5 190.5
t71.5 190.5t177.5 76.5q102 0 166 -79v67zM307 114q61 0 101 40.5t40 100.5t-40 100.5t-101 40.5q-60 0 -100 -40.5t-40 -100.5t40 -100.5t100 -40.5z" />
    <glyph glyph-name="atilde.ss01" horiz-adv-x="640" 
d="M274 613q-17 0 -27.5 -11t-10.5 -27h-92q0 62 30 102t84 40q31 0 65.5 -21.5t48.5 -21.5q16 0 27.5 11.5t11.5 28.5h91q0 -63 -29.5 -102.5t-83.5 -39.5q-32 0 -66.5 20.5t-48.5 20.5zM448 510h130v-510h-130v67q-64 -79 -166 -79q-106 0 -177.5 76.5t-71.5 190.5
t71.5 190.5t177.5 76.5q102 0 166 -79v67zM307 114q61 0 101 40.5t40 100.5t-40 100.5t-101 40.5q-60 0 -100 -40.5t-40 -100.5t40 -100.5t100 -40.5z" />
    <glyph glyph-name="k.ss02" horiz-adv-x="540" 
d="M538 0h-165l-181 203v-203h-130v720h130v-405l175 195h164l-219 -253z" />
    <glyph glyph-name="uni0137.ss02" horiz-adv-x="540" 
d="M312 257l226 -257h-165l-181 203v-203h-130v720h130v-405l175 195h164zM191 -225l41 170h134l-68 -170h-107z" />
    <glyph glyph-name="g.ss04" horiz-adv-x="639" 
d="M447 510h130v-455q0 -116 -71.5 -186.5t-190.5 -70.5q-99 0 -167 51t-90 139h134q13 -32 46 -51.5t77 -19.5q60 0 96 38t36 101v23q-65 -76 -165 -76q-106 0 -177.5 74.5t-71.5 185.5q0 110 71.5 184.5t177.5 74.5q100 0 165 -76v64zM307 121q61 0 100.5 40.5t39.5 101.5
q0 60 -40 100.5t-100 40.5t-100 -40.5t-40 -100.5q0 -61 40 -101.5t100 -40.5z" />
    <glyph glyph-name="uni01F5.ss04" horiz-adv-x="639" 
d="M512 709l-128 -143h-137l101 143h164zM447 510h130v-455q0 -116 -71.5 -186.5t-190.5 -70.5q-99 0 -167 51t-90 139h134q13 -32 46 -51.5t77 -19.5q60 0 96 38t36 101v23q-65 -76 -165 -76q-106 0 -177.5 74.5t-71.5 185.5q0 110 71.5 184.5t177.5 74.5q100 0 165 -76v64
zM307 121q61 0 100.5 40.5t39.5 101.5q0 60 -40 100.5t-100 40.5t-100 -40.5t-40 -100.5q0 -61 40 -101.5t100 -40.5z" />
    <glyph glyph-name="gbreve.ss04" horiz-adv-x="639" 
d="M323 556q-67 0 -112.5 43t-45.5 108h101q0 -25 16 -41.5t41 -16.5q24 0 40.5 16.5t16.5 41.5h100q0 -65 -45 -108t-112 -43zM447 510h130v-455q0 -116 -71.5 -186.5t-190.5 -70.5q-99 0 -167 51t-90 139h134q13 -32 46 -51.5t77 -19.5q60 0 96 38t36 101v23
q-65 -76 -165 -76q-106 0 -177.5 74.5t-71.5 185.5q0 110 71.5 184.5t177.5 74.5q100 0 165 -76v64zM307 121q61 0 100.5 40.5t39.5 101.5q0 60 -40 100.5t-100 40.5t-100 -40.5t-40 -100.5q0 -61 40 -101.5t100 -40.5z" />
    <glyph glyph-name="gcaron.ss04" horiz-adv-x="639" 
d="M401 566h-157l-99 143h122l56 -73l55 73h122zM447 510h130v-455q0 -116 -71.5 -186.5t-190.5 -70.5q-99 0 -167 51t-90 139h134q13 -32 46 -51.5t77 -19.5q60 0 96 38t36 101v23q-65 -76 -165 -76q-106 0 -177.5 74.5t-71.5 185.5q0 110 71.5 184.5t177.5 74.5
q100 0 165 -76v64zM307 121q61 0 100.5 40.5t39.5 101.5q0 60 -40 100.5t-100 40.5t-100 -40.5t-40 -100.5q0 -61 40 -101.5t100 -40.5z" />
    <glyph glyph-name="gcircumflex.ss04" horiz-adv-x="639" 
d="M323 639l-56 -73h-122l99 143h157l99 -143h-122zM447 510h130v-455q0 -116 -71.5 -186.5t-190.5 -70.5q-99 0 -167 51t-90 139h134q13 -32 46 -51.5t77 -19.5q60 0 96 38t36 101v23q-65 -76 -165 -76q-106 0 -177.5 74.5t-71.5 185.5q0 110 71.5 184.5t177.5 74.5
q100 0 165 -76v64zM307 121q61 0 100.5 40.5t39.5 101.5q0 60 -40 100.5t-100 40.5t-100 -40.5t-40 -100.5q0 -61 40 -101.5t100 -40.5z" />
    <glyph glyph-name="uni0123.ss04" horiz-adv-x="639" 
d="M410 733l-41 -170h-134l68 170h107zM447 510h130v-455q0 -116 -71.5 -186.5t-190.5 -70.5q-99 0 -167 51t-90 139h134q13 -32 46 -51.5t77 -19.5q60 0 96 38t36 101v23q-65 -76 -165 -76q-106 0 -177.5 74.5t-71.5 185.5q0 110 71.5 184.5t177.5 74.5q100 0 165 -76v64z
M307 121q61 0 100.5 40.5t39.5 101.5q0 60 -40 100.5t-100 40.5t-100 -40.5t-40 -100.5q0 -61 40 -101.5t100 -40.5z" />
    <glyph glyph-name="gdotaccent.ss04" horiz-adv-x="639" 
d="M322 565q-33 0 -55 21.5t-22 54.5t22 55t55 22t55.5 -22t22.5 -55t-22.5 -54.5t-55.5 -21.5zM447 510h130v-455q0 -116 -71.5 -186.5t-190.5 -70.5q-99 0 -167 51t-90 139h134q13 -32 46 -51.5t77 -19.5q60 0 96 38t36 101v23q-65 -76 -165 -76q-106 0 -177.5 74.5
t-71.5 185.5q0 110 71.5 184.5t177.5 74.5q100 0 165 -76v64zM307 121q61 0 100.5 40.5t39.5 101.5q0 60 -40 100.5t-100 40.5t-100 -40.5t-40 -100.5q0 -61 40 -101.5t100 -40.5z" />
    <glyph glyph-name="f_t.dlig" horiz-adv-x="748" 
d="M715 391h-126v-272h126v-119h-256v391h-221v-391h-130v391h-80v119h80v210h257v-119h-127v-91h221v150h130v-150h126v-119z" />
    <glyph glyph-name="t_t.dlig" horiz-adv-x="775" 
d="M743 391h-127v-272h127v-119h-257v391h-239v-272h126v-119h-256v391h-92v119h92v150h130v-150h239v150h130v-150h127v-119z" />
    <glyph glyph-name="zero.zero" horiz-adv-x="634" 
d="M317 702q120 0 195.5 -99.5t75.5 -257.5t-75.5 -257.5t-195.5 -99.5q-119 0 -195 99.5t-76 257.5t76 257.5t195 99.5zM317 569q-56 0 -92.5 -62.5t-36.5 -161.5q0 -40 6 -73l213 240q-36 57 -90 57zM317 121q57 0 93 62.5t36 161.5q0 39 -6 73l-212 -240q35 -57 89 -57z
" />
    <glyph glyph-name="zero.subs" horiz-adv-x="395" 
d="M197 -121q-72 0 -118 59.5t-46 154.5t46 154.5t118 59.5q73 0 119 -60t46 -154t-46 -154t-119 -60zM197 -28q29 0 47 33t18 88t-18 88t-47 33t-47 -33t-18 -88t18 -88t47 -33z" />
    <glyph glyph-name="one.subs" horiz-adv-x="310" 
d="M212 -26h68v-88h-243v88h78v212l-78 -35v101l106 48h69v-326z" />
    <glyph glyph-name="two.subs" horiz-adv-x="352" 
d="M177 -26h144v-88h-290v73l147 145q41 39 41 68q0 19 -12.5 32t-31.5 13t-32 -13t-13 -32h-98q0 58 42 96.5t105 38.5q59 0 99 -38.5t40 -96.5q0 -61 -54 -113z" />
    <glyph glyph-name="three.subs" horiz-adv-x="341" 
d="M266 101q51 -32 51 -90q0 -54 -42 -93t-105 -39q-62 0 -104.5 39t-42.5 97h99q0 -20 14 -33t35 -13t35 13t14 33q0 22 -15.5 36t-39.5 14h-60v70h60q20 0 33.5 13t13.5 32q0 17 -12 28.5t-29 11.5q-18 0 -30 -11.5t-12 -28.5h-99q0 54 40 90.5t100 36.5t100.5 -36.5
t40.5 -86.5q0 -52 -45 -83z" />
    <glyph glyph-name="four.subs" horiz-adv-x="370" 
d="M348 47v-87h-43v-74h-97v74h-188v71l165 269h120v-253h43zM121 47h87v149z" />
    <glyph glyph-name="five.subs" horiz-adv-x="356" 
d="M195 154q60 0 101 -39.5t41 -97.5q0 -59 -43.5 -98.5t-108.5 -39.5q-64 0 -107 39.5t-43 97.5h98q0 -22 15 -36.5t37 -14.5q23 0 38 14.5t15 37.5t-15 38.5t-38 15.5q-29 0 -46 -22h-98l21 251h247v-87h-160l-6 -71q26 12 52 12z" />
    <glyph glyph-name="six.subs" horiz-adv-x="348" 
d="M196 158q56 -4 93.5 -43t37.5 -95q0 -60 -43 -100.5t-107 -40.5t-107.5 40.5t-43.5 100.5q0 44 27 90l119 190h115zM177 -31q22 0 36.5 15t14.5 36q0 22 -14.5 37t-36.5 15t-37 -15t-15 -37q0 -21 15 -36t37 -15z" />
    <glyph glyph-name="seven.subs" horiz-adv-x="331" 
d="M31 300h280v-75l-150 -339h-109l144 323h-165v91z" />
    <glyph glyph-name="eight.subs" horiz-adv-x="345" 
d="M265 100q55 -36 55 -96q0 -53 -42 -89t-105 -36q-64 0 -106 36t-42 89q0 60 55 96q-49 34 -49 88q0 50 40.5 84.5t101.5 34.5q60 0 100.5 -34.5t40.5 -84.5q0 -54 -49 -88zM173 214q-18 0 -30.5 -11.5t-12.5 -28.5t12.5 -28.5t30.5 -11.5t30.5 11.5t12.5 28.5t-12.5 28.5
t-30.5 11.5zM173 -28q20 0 34 13t14 32t-14 32t-34 13t-34.5 -13t-14.5 -32t14 -32t35 -13z" />
    <glyph glyph-name="nine.subs" horiz-adv-x="349" 
d="M176 307q64 0 107.5 -40.5t43.5 -100.5q0 -45 -28 -90l-118 -190h-115l91 142q-57 4 -94.5 42.5t-37.5 95.5q0 60 43.5 100.5t107.5 40.5zM125 166q0 -22 14.5 -37t36.5 -15t37 15t15 37q0 21 -15 36t-37 15t-36.5 -15t-14.5 -36z" />
    <glyph glyph-name="zero.dnom" horiz-adv-x="395" 
d="M197 -7q-72 0 -118 59.5t-46 154.5t46 154.5t118 59.5q73 0 119 -60t46 -154t-46 -154t-119 -60zM197 86q29 0 47 33t18 88t-18 88t-47 33t-47 -33t-18 -88t18 -88t47 -33z" />
    <glyph glyph-name="one.dnom" horiz-adv-x="310" 
d="M212 88h68v-88h-243v88h78v212l-78 -35v101l106 48h69v-326z" />
    <glyph glyph-name="two.dnom" horiz-adv-x="352" 
d="M177 88h144v-88h-290v73l147 145q41 39 41 68q0 19 -12.5 32t-31.5 13t-32 -13t-13 -32h-98q0 58 42 96.5t105 38.5q59 0 99 -38.5t40 -96.5q0 -61 -54 -113z" />
    <glyph glyph-name="three.dnom" horiz-adv-x="341" 
d="M266 215q51 -32 51 -90q0 -54 -42 -93t-105 -39q-62 0 -104.5 39t-42.5 97h99q0 -20 14 -33t35 -13t35 13t14 33q0 22 -15.5 36t-39.5 14h-60v70h60q20 0 33.5 13t13.5 32q0 17 -12 28.5t-29 11.5q-18 0 -30 -11.5t-12 -28.5h-99q0 54 40 90.5t100 36.5t100.5 -36.5
t40.5 -86.5q0 -52 -45 -83z" />
    <glyph glyph-name="four.dnom" horiz-adv-x="370" 
d="M348 161v-87h-43v-74h-97v74h-188v71l165 269h120v-253h43zM121 161h87v149z" />
    <glyph glyph-name="five.dnom" horiz-adv-x="356" 
d="M195 268q60 0 101 -39.5t41 -97.5q0 -59 -43.5 -98.5t-108.5 -39.5q-64 0 -107 39.5t-43 97.5h98q0 -22 15 -36.5t37 -14.5q23 0 38 14.5t15 37.5t-15 38.5t-38 15.5q-29 0 -46 -22h-98l21 251h247v-87h-160l-6 -71q26 12 52 12z" />
    <glyph glyph-name="six.dnom" horiz-adv-x="348" 
d="M196 272q56 -4 93.5 -43t37.5 -95q0 -60 -43 -100.5t-107 -40.5t-107.5 40.5t-43.5 100.5q0 44 27 90l119 190h115zM177 83q22 0 36.5 15t14.5 36q0 22 -14.5 37t-36.5 15t-37 -15t-15 -37q0 -21 15 -36t37 -15z" />
    <glyph glyph-name="seven.dnom" horiz-adv-x="331" 
d="M31 414h280v-75l-150 -339h-109l144 323h-165v91z" />
    <glyph glyph-name="eight.dnom" horiz-adv-x="345" 
d="M265 214q55 -36 55 -96q0 -53 -42 -89t-105 -36q-64 0 -106 36t-42 89q0 60 55 96q-49 34 -49 88q0 50 40.5 84.5t101.5 34.5q60 0 100.5 -34.5t40.5 -84.5q0 -54 -49 -88zM173 328q-18 0 -30.5 -11.5t-12.5 -28.5t12.5 -28.5t30.5 -11.5t30.5 11.5t12.5 28.5t-12.5 28.5
t-30.5 11.5zM173 86q20 0 34 13t14 32t-14 32t-34 13t-34.5 -13t-14.5 -32t14 -32t35 -13z" />
    <glyph glyph-name="nine.dnom" horiz-adv-x="349" 
d="M176 421q64 0 107.5 -40.5t43.5 -100.5q0 -45 -28 -90l-118 -190h-115l91 142q-57 4 -94.5 42.5t-37.5 95.5q0 60 43.5 100.5t107.5 40.5zM125 280q0 -22 14.5 -37t36.5 -15t37 15t15 37q0 21 -15 36t-37 15t-36.5 -15t-14.5 -36z" />
    <glyph glyph-name="zero.numr" horiz-adv-x="395" 
d="M197 269q-72 0 -118 59.5t-46 154.5t46 154.5t118 59.5q73 0 119 -60t46 -154t-46 -154t-119 -60zM197 362q29 0 47 33t18 88t-18 88t-47 33t-47 -33t-18 -88t18 -88t47 -33z" />
    <glyph glyph-name="one.numr" horiz-adv-x="310" 
d="M212 364h68v-88h-243v88h78v212l-78 -35v101l106 48h69v-326z" />
    <glyph glyph-name="two.numr" horiz-adv-x="352" 
d="M177 364h144v-88h-290v73l147 145q41 39 41 68q0 19 -12.5 32t-31.5 13t-32 -13t-13 -32h-98q0 58 42 96.5t105 38.5q59 0 99 -38.5t40 -96.5q0 -61 -54 -113z" />
    <glyph glyph-name="three.numr" horiz-adv-x="341" 
d="M266 491q51 -32 51 -90q0 -54 -42 -93t-105 -39q-62 0 -104.5 39t-42.5 97h99q0 -20 14 -33t35 -13t35 13t14 33q0 22 -15.5 36t-39.5 14h-60v70h60q20 0 33.5 13t13.5 32q0 17 -12 28.5t-29 11.5q-18 0 -30 -11.5t-12 -28.5h-99q0 54 40 90.5t100 36.5t100.5 -36.5
t40.5 -86.5q0 -52 -45 -83z" />
    <glyph glyph-name="four.numr" horiz-adv-x="370" 
d="M348 437v-87h-43v-74h-97v74h-188v71l165 269h120v-253h43zM121 437h87v149z" />
    <glyph glyph-name="five.numr" horiz-adv-x="356" 
d="M195 544q60 0 101 -39.5t41 -97.5q0 -59 -43.5 -98.5t-108.5 -39.5q-64 0 -107 39.5t-43 97.5h98q0 -22 15 -36.5t37 -14.5q23 0 38 14.5t15 37.5t-15 38.5t-38 15.5q-29 0 -46 -22h-98l21 251h247v-87h-160l-6 -71q26 12 52 12z" />
    <glyph glyph-name="six.numr" horiz-adv-x="348" 
d="M196 548q56 -4 93.5 -43t37.5 -95q0 -60 -43 -100.5t-107 -40.5t-107.5 40.5t-43.5 100.5q0 44 27 90l119 190h115zM177 359q22 0 36.5 15t14.5 36q0 22 -14.5 37t-36.5 15t-37 -15t-15 -37q0 -21 15 -36t37 -15z" />
    <glyph glyph-name="seven.numr" horiz-adv-x="331" 
d="M31 690h280v-75l-150 -339h-109l144 323h-165v91z" />
    <glyph glyph-name="eight.numr" horiz-adv-x="345" 
d="M265 490q55 -36 55 -96q0 -53 -42 -89t-105 -36q-64 0 -106 36t-42 89q0 60 55 96q-49 34 -49 88q0 50 40.5 84.5t101.5 34.5q60 0 100.5 -34.5t40.5 -84.5q0 -54 -49 -88zM173 604q-18 0 -30.5 -11.5t-12.5 -28.5t12.5 -28.5t30.5 -11.5t30.5 11.5t12.5 28.5t-12.5 28.5
t-30.5 11.5zM173 362q20 0 34 13t14 32t-14 32t-34 13t-34.5 -13t-14.5 -32t14 -32t35 -13z" />
    <glyph glyph-name="nine.numr" horiz-adv-x="349" 
d="M176 697q64 0 107.5 -40.5t43.5 -100.5q0 -45 -28 -90l-118 -190h-115l91 142q-57 4 -94.5 42.5t-37.5 95.5q0 60 43.5 100.5t107.5 40.5zM125 556q0 -22 14.5 -37t36.5 -15t37 15t15 37q0 21 -15 36t-37 15t-36.5 -15t-14.5 -36z" />
    <glyph glyph-name="exclamdown.case" horiz-adv-x="272" 
d="M136 525q-38 0 -63 25t-25 62t25 62t63 25t63 -24.5t25 -62.5t-25 -62.5t-63 -24.5zM68 0v170l8 300h121l8 -300v-170h-137z" />
    <glyph glyph-name="questiondown.case" horiz-adv-x="497" 
d="M257 525q-38 0 -63 24.5t-25 62.5t25 62.5t63 24.5t63 -25t25 -62t-25 -62t-63 -25zM257 -12q-91 0 -152 58.5t-61 146.5q0 39 14.5 71.5t29.5 48.5t41 39q29 25 44 45.5t15 46.5v24h137v-24q0 -39 -14.5 -72.5t-28.5 -49t-40 -38.5q-19 -17 -29 -27.5t-18.5 -28
t-8.5 -35.5q0 -31 20.5 -51.5t50.5 -20.5t50.5 20.5t20.5 51.5h141q0 -88 -60.5 -146.5t-151.5 -58.5z" />
    <glyph glyph-name="periodcentered.case" horiz-adv-x="298" 
d="M149 255q-39 0 -65 26t-26 64t26 64t65 26t65 -26t26 -64t-26 -64t-65 -26z" />
    <glyph glyph-name="bullet.case" horiz-adv-x="350" 
d="M175 229q-50 0 -83.5 33t-33.5 83t33.5 83t83.5 33t83.5 -33.5t33.5 -82.5t-33.5 -82.5t-83.5 -33.5z" />
    <glyph glyph-name="asterisk.case" horiz-adv-x="395" 
d="M267 534l29 -12l61 -33l-40 -69l-62 33l-22 19l5 -29v-67h-81v67l5 29l-23 -19l-60 -33l-41 69l61 35l27 10l-27 10l-61 33l41 69l61 -32l22 -19l-5 29v66h81v-66l-5 -28l23 18l61 32l40 -69l-61 -33z" />
    <glyph glyph-name="slash.case" horiz-adv-x="537" 
d="M3 -105l400 900h131l-400 -900h-131z" />
    <glyph glyph-name="backslash.case" horiz-adv-x="537" 
d="M403 -105l-400 900h131l400 -900h-131z" />
    <glyph glyph-name="parenleft.case" horiz-adv-x="361" 
d="M220 -125q-64 85 -103 213.5t-39 256.5t39 256.5t103 213.5h131q-62 -85 -99.5 -213.5t-37.5 -256.5t37.5 -256.5t99.5 -213.5h-131z" />
    <glyph glyph-name="parenright.case" horiz-adv-x="361" 
d="M9 -125q62 85 100 213.5t38 256.5t-38 256.5t-100 213.5h131q65 -85 104 -213.5t39 -256.5t-39 -256.5t-104 -213.5h-131z" />
    <glyph glyph-name="braceleft.case" horiz-adv-x="426" 
d="M285 429q0 -60 -59 -83q59 -25 59 -84v-207q0 -26 15 -41.5t40 -15.5h56v-123h-106q-62 0 -100.5 38.5t-38.5 101.5v213q0 25 -15 40.5t-39 15.5h-39v123h39q24 0 39 15.5t15 40.5v212q0 63 38.5 101.5t100.5 38.5h106v-123h-56q-25 0 -40 -15.5t-15 -41.5v-206z" />
    <glyph glyph-name="braceright.case" horiz-adv-x="426" 
d="M330 407h39v-123h-39q-25 0 -39.5 -15t-14.5 -41v-213q0 -63 -38.5 -101.5t-100.5 -38.5h-107v123h57q24 0 39.5 16t15.5 41v207q0 60 58 84q-58 23 -58 83v206q0 25 -15.5 41t-39.5 16h-57v123h107q62 0 100.5 -38.5t38.5 -101.5v-212q0 -25 14.5 -40.5t39.5 -15.5z" />
    <glyph glyph-name="bracketleft.case" horiz-adv-x="366" 
d="M336 692h-114v-694h114v-123h-248v940h248v-123z" />
    <glyph glyph-name="bracketright.case" horiz-adv-x="366" 
d="M30 815h249v-940h-249v123h114v694h-114v123z" />
    <glyph glyph-name="hyphen.case" horiz-adv-x="408" 
d="M58 283v126h292v-126h-292z" />
    <glyph glyph-name="endash.case" horiz-adv-x="608" 
d="M58 287v117h492v-117h-492z" />
    <glyph glyph-name="emdash.case" horiz-adv-x="1068" 
d="M58 287v117h952v-117h-952z" />
    <glyph glyph-name="guillemotleft.case" horiz-adv-x="655" 
d="M347 549l-152 -204l152 -204h-152l-153 204l153 204h152zM614 549l-153 -204l153 -204h-153l-152 204l152 204h153z" />
    <glyph glyph-name="guillemotright.case" horiz-adv-x="655" 
d="M198 549l153 -204l-153 -204h-152l153 204l-153 204h152zM465 549l153 -204l-153 -204h-152l152 204l-152 204h152z" />
    <glyph glyph-name="guilsinglleft.case" horiz-adv-x="388" 
d="M347 549l-152 -204l152 -204h-152l-153 204l153 204h152z" />
    <glyph glyph-name="guilsinglright.case" horiz-adv-x="388" 
d="M198 549l153 -204l-153 -204h-152l153 204l-153 204h152z" />
    <glyph glyph-name="plus.case" horiz-adv-x="534" 
d="M476 404v-117h-150v-151h-118v151h-150v117h150v150h118v-150h150z" />
    <glyph glyph-name="at.case" horiz-adv-x="833" 
d="M421 64q105 0 173 52h144q-57 -66 -140.5 -104t-177.5 -38q-162 0 -269.5 106t-107.5 264t108 264.5t270 106.5q157 0 264 -99t107 -248q0 -92 -43.5 -147.5t-119.5 -55.5q-87 0 -127 59q-38 -61 -116 -61q-74 0 -122 52t-48 128q0 78 47.5 130t115.5 52q64 0 105 -47v35
h111v-221q0 -17 10.5 -28t28.5 -11q28 0 45.5 32.5t17.5 84.5q0 109 -79.5 182t-196.5 73q-122 0 -202.5 -80t-80.5 -201q0 -120 80.5 -200t202.5 -80zM406 269q34 0 56 21.5t22 53.5t-22.5 53.5t-55.5 21.5t-54.5 -21t-21.5 -54q0 -32 22 -53.5t54 -21.5z" />
    <glyph glyph-name="uni030C.alt" horiz-adv-x="0" 
d="M-139 498l21 222h118l-41 -222h-98z" />
    <glyph glyph-name="caron.alt" horiz-adv-x="139" 
d="M0 498l21 222h118l-41 -222h-98z" />
    </font>
</defs>
</svg>
